<?xml version="1.0" encoding="UTF-8"?>
<svg id="Layer_1" data-name="Layer 1" xmlns="http://www.w3.org/2000/svg" viewBox="0 0 188.47 300.67">
  <defs>
    <style>
      .cls-1 {
        fill: #ffd400;
      }
    </style>
  </defs>
  <path class="cls-1" d="m127.11,210.93c1.23-15.02.67-30.34-1.67-45.54-3.4-22.17-10.59-44.1-21.44-64.51-10.85-20.41-25.41-39.33-42.8-55.74C43.82,28.71,23.58,14.79,1.39,4.34.29,3.82-.28,2.58.14,1.47.58.29,1.94-.3,3.19.15c23.58,8.6,45.88,21.07,65.76,36.66,19.89,15.59,37.39,34.32,51.34,55.46,13.95,21.14,24.27,44.55,30.52,68.97,4.6,18,7,36.58,7,55.22l30.65-7.25-57.21,91.46-29.72-104.93,25.58,15.18Z"/>
</svg>