<?xml version="1.0" encoding="UTF-8"?>
<svg id="OBJECT" xmlns="http://www.w3.org/2000/svg" viewBox="0 0 73.46 58.74">
  <defs>
    <style>
      .cls-1 {
        fill: #fff;
      }

      .cls-2 {
        fill: #96c84e;
      }

      .cls-3 {
        fill: #83b044;
      }

      .cls-4 {
        fill: #3c2f16;
      }
    </style>
  </defs>
  <polygon class="cls-3" points=".63 58.11 72.83 27.05 2.17 .63 22.7 29.11 .63 58.11"/>
  <path class="cls-2" d="m25.94,10.19s-13.22,34.09,30.63,23.85l16.26-7L25.94,10.19Z"/>
  <path class="cls-4" d="m.35,58.68c-.08-.04-.16-.1-.22-.18-.18-.22-.18-.54,0-.76l21.79-28.63L1.66.99c-.16-.22-.16-.53.01-.75.17-.22.46-.3.72-.21l70.66,26.42c.24.09.4.32.41.57,0,.26-.14.49-.38.59L.87,58.69c-.17.07-.36.07-.52-.01ZM3.88,1.94l19.32,26.81c.16.22.16.53,0,.75L2.57,56.6l68.58-29.51L3.88,1.94Z"/>
  <path class="cls-1" d="m30.06,16.02s31.46,9.05,30.77,10.45-34.83-10-30.77-10.45Z"/>
</svg>