<?xml version="1.0" encoding="UTF-8"?>
<svg id="Layer_1" data-name="Layer 1" xmlns="http://www.w3.org/2000/svg" viewBox="0 0 222.47 92.75">
  <defs>
    <style>
      .cls-1 {
        fill: #fff;
      }

      .cls-2 {
        opacity: .1;
      }

      .cls-2, .cls-3 {
        fill: #390176;
      }

      .cls-4 {
        fill: #ffd400;
      }

      .cls-3 {
        stroke: #390176;
        stroke-miterlimit: 10;
        stroke-width: 2px;
      }
    </style>
  </defs>
  <polygon class="cls-4" points="142.29 65.25 2.55 47.82 138.44 25.91 130.59 1.63 220.38 43.64 134.01 91.12 142.29 65.25"/>
  <path class="cls-2" d="m107.55,30.89s-37.49,10.95-29.92,25.51L2.55,47.82l105-16.93Z"/>
  <path class="cls-1" d="m203.87,44.9s-48.58,30.77-51.15,29.3,55.93-36.75,51.15-29.3Z"/>
  <path class="cls-3" d="m1.78,48.26c-.19-.11-.31-.26-.32-.42-.02-.29.31-.54.8-.62l134.93-21.75-7.68-23.72c-.08-.26.12-.52.52-.65s.89-.11,1.25.05l89.79,42.01c.24.12.39.28.4.46.01.18-.11.35-.34.48l-86.37,47.48c-.34.19-.86.23-1.27.1-.42-.13-.64-.4-.56-.66l8.09-25.28L2.32,48.43c-.21-.03-.4-.09-.54-.17ZM132.21,3.19l7.31,22.6c.1.32-.23.63-.78.72L7.07,47.74l135.46,16.9c.57.07.95.39.84.72l-7.67,23.97,83.04-45.65L132.21,3.19Z"/>
</svg>