<?xml version="1.0" encoding="UTF-8"?>
<svg id="Layer_1" data-name="Layer 1" xmlns="http://www.w3.org/2000/svg" viewBox="0 0 2060.15 3299.28">
  <defs>
    <style>
      .cls-1 {
        opacity: .8;
      }

      .cls-1, .cls-2, .cls-3, .cls-4, .cls-5, .cls-6, .cls-7 {
        fill: none;
      }

      .cls-8 {
        fill: #512717;
      }

      .cls-9 {
        fill: #fff;
      }

      .cls-10 {
        fill: #5f5f69;
      }

      .cls-11 {
        fill: #371b44;
      }

      .cls-2 {
        opacity: .35;
      }

      .cls-12 {
        fill: #d7d6d6;
      }

      .cls-13 {
        fill: #fbbf16;
      }

      .cls-14 {
        fill: #f29049;
      }

      .cls-15 {
        fill: #121a27;
      }

      .cls-16 {
        fill: #f9d3b7;
      }

      .cls-17 {
        fill: #e4e4e3;
      }

      .cls-3 {
        opacity: .3;
      }

      .cls-18 {
        fill: #acb4c1;
      }

      .cls-19 {
        fill: #d7d8d8;
      }

      .cls-20 {
        fill: #f7aa42;
      }

      .cls-21 {
        fill: #0096f0;
      }

      .cls-22 {
        fill: #fac680;
      }

      .cls-23 {
        fill: #f4971e;
      }

      .cls-24 {
        fill: #db2a2b;
      }

      .cls-4 {
        opacity: .5;
      }

      .cls-5 {
        opacity: .4;
      }

      .cls-25 {
        fill: #f18d24;
      }

      .cls-26 {
        fill: #e84b4d;
      }

      .cls-27 {
        fill: #dcdcdc;
      }

      .cls-28 {
        fill: #f7be1c;
      }

      .cls-29 {
        fill: #371b45;
      }

      .cls-30 {
        fill: #0a75cc;
      }

      .cls-31 {
        fill: #d3710f;
      }

      .cls-6 {
        opacity: .25;
      }

      .cls-32 {
        fill: #d15611;
      }

      .cls-7 {
        opacity: .7;
      }

      .cls-33 {
        fill: #6bc8f0;
      }

      .cls-34 {
        fill: #e27113;
      }
    </style>
  </defs>
  <g>
    <g class="cls-6">
      <path class="cls-29" d="m0,3165.66c0,73.8,461.18,133.62,1030.07,133.62s1030.07-59.82,1030.07-133.62-461.18-133.62-1030.07-133.62S0,3091.86,0,3165.66"/>
    </g>
    <path class="cls-24" d="m1837.71,2851.03s-82.87-43.95-169.97-7.61c-87.1,36.34-118.39,81.98-226.63,60.85-108.24-21.13-118.39-61.69-224.93-21.97-106.55,39.72-184.35,101.69-307.81-12.96,0,0-53.32-5.1-101.9,10.85-88.79,29.16-233.39-8.45-264.29-135.9-31.81-131.23,52.46-347.92,52.46-347.92l626.61-98.88,451.57,318.8,164.9,234.75Z"/>
    <path class="cls-29" d="m1047.42,2949.98c-43.8,0-90.81-16.72-145.3-66.07-13.68-.72-54.21-1.58-91,10.49-57.21,18.78-130.38,10.76-186.42-20.44-50.28-28-83.84-71.62-97.06-126.15-32.54-134.25,49.54-347.84,53.05-356.86,1.93-4.96,6.35-8.52,11.6-9.35l626.61-98.88c3.84-.6,7.77.31,10.94,2.55l451.57,318.8c1.4.99,2.62,2.21,3.61,3.62l164.9,234.75c3.97,5.66,3.55,13.3-1.02,18.49-4.57,5.18-12.09,6.56-18.2,3.33-1.55-.81-78.41-39.92-157.23-7.02-22.54,9.4-41.05,19.35-58.94,28.97-49.19,26.44-91.67,49.27-176.3,32.75-35.95-7.02-61.87-16.28-82.7-23.72-43.21-15.44-67.02-23.94-134.16,1.08-15.61,5.82-30.78,12.21-45.45,18.38-42.51,17.89-83.85,35.28-128.52,35.29Zm-160.07-96.39c13.04,0,21.55.78,22.43.86,3.27.31,6.34,1.69,8.74,3.92,97.97,90.98,163.22,63.51,245.82,28.75,14.95-6.29,30.41-12.8,46.6-18.84,77.35-28.84,109.77-17.26,154.65-1.22,20.92,7.47,44.63,15.94,78.37,22.53,74.15,14.47,108.67-4.08,156.43-29.75,17.67-9.49,37.69-20.26,61.58-30.23,51.89-21.65,101.89-17.05,136.45-8.49l-136.36-194.12-444.49-313.8-611.99,96.57c-14.48,39.89-75.87,219.71-48.9,330.98,14.15,58.38,52.7,90.45,82.55,107.07,49.09,27.33,112.9,34.46,162.56,18.15,31.5-10.34,64.45-12.39,85.55-12.39Z"/>
    <path class="cls-26" d="m1611.92,2396.37c10.45,75.34,58.24,158.4,226.63,263.67,97.5,60.95,117.16,103.93,126.84,125.07,13.76,30.07,36.36,121.69-31.29,208.32,0,0-10.22-80.27-119.23-147.04-175.89-107.75-260.35-203.26-281.6-347.76-14.04-95.52,70.46-161.28,78.65-102.25"/>
    <g class="cls-1">
      <path class="cls-9" d="m1531.75,2475.32c18.07-56.46,67.44-82.74,73.62-38.28,10.43,75.34,58.23,158.39,226.6,263.64,97.52,60.98,117.2,103.95,126.85,125.07,7.28,15.93,17.09,49.14,14.61,89.7,15.51-58.35,1.57-109.37-8.03-130.34-9.68-21.13-29.33-64.13-126.85-125.07-168.38-105.28-216.17-188.34-226.64-263.68-7.48-54.09-79.05-3.38-80.15,78.96"/>
    </g>
    <path class="cls-29" d="m1934.11,3008.38c-1.32,0-2.65-.18-3.96-.54-5.82-1.6-10.1-6.54-10.86-12.53-.09-.65-11.47-74.47-112.21-136.18-186.56-114.29-267.47-214.75-288.58-358.34-8.61-58.56,16.64-108.2,43.74-129.54,14.7-11.58,29.81-15.12,42.56-9.98,6.87,2.77,18.85,10.74,21.94,33.04h0c8.18,58.96,40.54,141.01,219.75,253.04,101.3,63.33,122.38,109.4,132.51,131.53,19.44,42.47,34.34,137.4-33.1,223.75-2.88,3.68-7.25,5.75-11.78,5.75Zm-341.29-619.48c-1.92,0-6.29,1.27-12.11,5.85-17.15,13.51-39.99,51.73-32.65,101.69,19.9,135.35,94.33,226.74,274.62,337.19,71.84,44.01,103.11,93.96,116.52,125.71,49.41-85.17,14.28-164.36,12.61-168-8.92-19.49-27.48-60.04-121.17-118.62-148.03-92.54-220.04-177.14-233.52-274.3-.97-6.96-3.04-9.22-3.5-9.4-.18-.07-.45-.11-.8-.11Z"/>
    <path class="cls-29" d="m908.35,2884.29c-3.47,0-6.97-1.2-9.79-3.66-55.84-48.53-113.32-168.51-115.74-173.59-3.55-7.46-.39-16.38,7.07-19.93,7.45-3.56,16.37-.39,19.92,7.07.57,1.19,57.23,119.44,108.35,163.87,6.23,5.42,6.89,14.86,1.48,21.1-2.96,3.41-7.11,5.15-11.29,5.15Z"/>
    <path class="cls-10" d="m218.22,2312.36c1.03.64,2.06,1.29,3.1,1.89-.72.06-1.4.16-2.09.26,5.95,11.35,19.72,22.13,45.4,30.05l-9-33.38c-18.86-17.48-13.76-51.09-13.76-51.09-16.63,9.35-32.71,31.48-23.66,52.27"/>
    <path class="cls-20" d="m791.91,1747.68l-202.65,38.08c-136.88,11.01-363.22,115.27-441.18,231.96-58.62,87.74-45.98,226.51,73.27,296.52-31.77,3.08-40.78,40.7-36.95,65.54,3.07,19.91,13.89,63.63,101.64,77.7,169.6,27.2,249.85-169.86,147.32-360.23,0,0,19.67-21.88,69.39-37.4"/>
    <path class="cls-20" d="m193.71,2295.31c8.5,6.76,17.7,13.11,27.65,18.93-31.78,3.09-40.8,40.71-36.95,65.53,3.05,19.91,13.88,63.63,101.63,77.71,135.04,21.64,213.46-98.86,187.99-245.01-6.49-37.38-19.78-76.43-40.66-115.23,0,0,19.67-21.88,69.39-37.38l289.16-312.18-202.66,38.08c-136.88,11.03-363.21,115.26-441.17,231.98-53.71,80.41-47.57,203.68,45.63,277.57"/>
    <path class="cls-20" d="m193.7,2295.32c8.52,6.74,17.71,13.09,27.67,18.93-31.77,3.07-40.8,40.7-36.96,65.52,3.04,19.9,13.87,63.64,101.61,77.7,135.05,21.64,213.47-98.84,188.02-244.99-6.49-37.4-19.78-76.43-40.67-115.24,0,0,19.65-21.87,69.4-37.36l142.6-153.94,146.55-158.24-202.68,38.06c-33.62,2.7-72.61,11.02-113.51,23.81-125.57,39.17-268.83,120.11-327.64,208.16-53.73,80.41-47.58,203.69,45.61,277.58"/>
    <path class="cls-20" d="m193.7,2295.32c8.52,6.74,17.71,13.09,27.67,18.93-31.77,3.07-40.8,40.7-36.96,65.52,3.04,19.9,13.87,63.64,101.61,77.7,135.05,21.64,213.47-98.84,188.02-244.99-5.58-32.09-16.14-65.42-32.25-98.74-2.67-5.51-5.48-10.99-8.42-16.5,0,0,19.65-21.87,69.4-37.36l112.66-121.61,29.94-32.33,146.55-158.24-202.68,38.06c-33.62,2.7-72.61,11.02-113.51,23.81-125.57,39.17-268.83,120.11-327.64,208.16-53.73,80.41-47.58,203.69,45.61,277.58"/>
    <path class="cls-9" d="m208.77,2306.34c4.04,2.7,8.25,5.38,12.6,7.91-4.35.43-8.26,1.47-11.76,3.04-22.22,10.05-28.5,41.04-25.19,62.48,3.04,19.9,13.87,63.64,101.61,77.7,135.05,21.64,213.47-98.84,188.01-244.99-5.58-32.09-16.14-65.42-32.25-98.74-2.67-5.51-5.48-10.99-8.42-16.5,0,0,19.65-21.87,69.4-37.36l112.67-121.61,29.94-32.33,146.55-158.24-202.68,38.06c-33.62,2.7-72.6,11.02-113.5,23.81-125.57,39.17-268.84,120.11-327.65,208.16-14.5,21.71-24.62,46.52-29.87,72.66-14.2,70.69,7.45,150.96,75.48,204.92,4.81,3.81,9.82,7.48,15.07,11.02"/>
    <path class="cls-17" d="m193.7,2295.32c4.81,3.81,9.82,7.48,15.07,11.02.66-11.82,6.41-31.05,33.11-46.25,32.94-18.77-114.17-47.45-123.66-169.69-14.2,70.69,7.45,150.96,75.48,204.92"/>
    <path class="cls-17" d="m184.41,2379.77c3.04,19.9,13.87,63.64,101.61,77.7,135.05,21.64,213.47-98.84,188.01-244.99-13.3-4.74-30.14-9.61-49.85-12.99-16.51,58.27-58.24,182.05-117.44,192.87-77.68,14.19-102.74-43.81-42.1-47.78-20.38-13.86-38.66-22.57-55.03-27.28-22.22,10.05-28.5,41.04-25.19,62.48"/>
    <path class="cls-17" d="m334.07,2001.54s50.69,27.28,107.73,112.19c-2.67-5.51-5.48-10.99-8.42-16.5,0,0,19.65-21.87,69.4-37.36l112.67-121.61c-47.91.66-59.18-67.27-90.72-38.62-61.77,56.12-190.65,101.9-190.65,101.9"/>
    <path class="cls-14" d="m475.74,1809.57c41.16,41.31,99.94,74.83,169.63,96.37l146.55-158.24-202.68,38.06c-33.62,2.71-72.6,11.02-113.5,23.81"/>
    <path class="cls-16" d="m608.05,1892.85c63.62,25.11,138.73,39.6,219.19,39.6s155.57-14.49,219.18-39.6c-59.64-116.4-138.29-200.05-219.18-200.05s-159.55,83.65-219.19,200.05"/>
    <path class="cls-14" d="m543.66,1861.56c74.21,43.97,173.91,70.89,283.58,70.89s209.86-27.05,284.14-71.22c-18.98-31.95-144.81-234.74-284.14-234.74s-265.43,204.25-283.58,235.08"/>
    <path class="cls-29" d="m317.25,2475.01c-10.89,0-22.09-.91-33.57-2.75-68.14-10.93-106.51-41.27-114.05-90.19-2.64-17.1-.5-43.79,14.2-62.72,2.13-2.75,4.46-5.23,6.95-7.44-43.98-32.75-74.16-78-86.02-129.76-13.72-59.85-2.46-122.81,30.89-172.73,80.23-120.1,308.36-226.65,451.61-238.5l201.88-37.93c8.11-1.53,15.92,3.82,17.45,11.94,1.52,8.12-3.82,15.93-11.93,17.46l-202.65,38.08c-.52.1-1.04.17-1.56.21-133.74,10.76-355.34,113.69-429.95,225.37-28.37,42.47-38.32,98.33-26.61,149.43,8.47,36.95,31.83,88.79,95.02,125.89,5.59,3.28,8.42,9.79,7.03,16.12-1.39,6.33-6.7,11.04-13.15,11.66-6.33.62-11.36,3.42-15.36,8.57-8.26,10.63-10.07,28.09-8.26,39.81,2.2,14.28,8.04,52.19,89.24,65.21,58.86,9.44,108.89-10.16,140.85-55.17,49.56-69.8,46.01-180.96-9.05-283.2-2.99-5.56-2.17-12.4,2.04-17.09.91-1.02,23.02-25.13,76.05-41.67,7.88-2.46,16.26,1.94,18.72,9.82,2.46,7.88-1.94,16.27-9.82,18.73-28.32,8.84-45.99,19.84-55.13,26.69,54.97,109.27,55.87,227.54,1.55,304.05-32.58,45.89-80.23,70.13-136.38,70.13Z"/>
    <path class="cls-17" d="m241.89,2260.07c-26.33,14.82-51.35,61.64,22.77,84.48"/>
    <path class="cls-29" d="m241.89,2260.07c-11.96-.29-23.17,5.84-31.23,15.48-4.02,4.87-7.14,11-8.66,17.95-1.57,6.92-1.05,14.76,1.45,21.72,2.46,7,6.76,12.92,11.61,17.34,4.88,4.44,10.27,7.58,15.78,9.76,11.07,4.1,22.36,5.19,33.82,2.23-7.75-8.91-15.27-15.48-21.36-21.95-6.02-6.49-10.23-12.34-11.87-17.3-.88-2.51-1.49-4.96-1.56-8.01-.1-3.01.19-6.54,1.12-10.42.89-3.89,2.3-8.06,4.09-12.5,1.81-4.47,4.06-8.99,6.82-14.29"/>
    <path class="cls-29" d="m446.24,2089.85c-1.32-1.91-2.35-3.26-3.53-4.78-1.14-1.48-2.29-2.93-3.46-4.33-2.3-2.86-4.71-5.55-7.08-8.28-4.85-5.35-9.8-10.53-14.94-15.5-10.25-9.94-21.07-19.16-32.47-27.5-11.36-8.38-23.15-16.06-35.48-22.64-12.16-6.86-25.01-12.27-37.82-17.29,11.75,7.25,23.21,14.75,33.7,23.46,10.66,8.45,20.52,17.79,29.74,27.58,9.27,9.75,17.75,20.15,25.48,30.96,3.88,5.4,7.52,10.93,10.99,16.5,1.66,2.82,3.39,5.61,4.92,8.45.8,1.41,1.56,2.82,2.28,4.23.71,1.35,1.49,2.92,1.93,3.95,3.26,7.58,12.05,11.08,19.64,7.82,7.58-3.26,11.08-12.05,7.82-19.62-.39-.9-.85-1.73-1.37-2.51l-.35-.49Z"/>
    <path class="cls-9" d="m774.53,2692.36c-151.47,99.68-234.6,401.47-416.81,401.47h-168.42c-96.79,0-90.78-56.69-89.41-76.48,1.97-28.57,24.46-76.1,84.58-91.34,39.94-96.04,245.48-605.25,245.48-605.25"/>
    <path class="cls-9" d="m103.43,3054.2c7.69,20.12,29.08,39.62,85.87,39.62h168.41c182.2,0,265.37-301.79,416.8-401.46l-344.56-371.57s-10.96,27.14-28.31,70.07c-45.49,112.59-134.91,333.79-185.92,458.89-13.75,33.81-24.71,60.59-31.25,76.29-37.6,9.53-60.5,31.68-72.86,53.92-7.41,13.33-11.01,26.7-11.74,37.41-.57,8.18-1.92,22.65,3.56,36.83"/>
    <path class="cls-17" d="m103.43,3054.2c7.69,20.12,29.08,39.62,85.87,39.62h168.41c182.2,0,265.37-301.79,416.8-401.46l-344.56-371.57s-10.96,27.14-28.31,70.07c19.51,130.86,132.01,254.93,153.69,292.02,43.89,74.89-63.24,207.56-91.96,214.14-49.62,11.37-116.55-109.19-247.65-47.26-13.75,33.81-24.71,60.59-31.25,76.29-37.6,9.53-60.5,31.68-72.86,53.92,52.48-10.02,169.27-19.95,198.28,39.7,16.77,34.54-12.19,33.4-57.27,27.19-38.86-5.36-112.65-10.92-149.18,7.36"/>
    <path class="cls-29" d="m357.72,3108.78h-168.42c-40.18,0-69.35-9.45-86.71-28.1-20.61-22.14-18.65-49.84-17.7-63.15l.09-1.21c2.61-37.87,31.39-85.11,88.46-102.74,45.37-109.71,240.64-593.44,242.65-598.42,3.09-7.65,11.8-11.35,19.45-8.27,7.65,3.09,11.35,11.81,8.26,19.47-2.06,5.09-206.03,510.37-245.54,605.39-1.81,4.35-5.56,7.59-10.13,8.75-54.73,13.87-71.9,57-73.34,77.87l-.09,1.28c-.74,10.48-1.99,28.03,9.76,40.65,11.47,12.33,33.29,18.58,64.83,18.58h168.42c100.81,0,170.14-101.39,243.53-208.73,49.9-72.98,101.5-148.45,165.07-190.28,6.89-4.54,16.16-2.62,20.7,4.28,4.54,6.9,2.62,16.17-4.28,20.71-58.65,38.59-108.56,111.59-156.82,182.18-74.54,109.02-151.62,221.75-268.2,221.75Z"/>
    <path class="cls-29" d="m333.92,2956.56c-10.97-6.69-22.45-12.93-34.49-17.96-12.02-5.04-24.38-9.59-37.04-13.13-12.63-3.64-25.48-6.68-38.5-9.09-6.51-1.17-13.06-2.25-19.66-3.12-6.69-.89-13.06-1.62-20.32-2.07-8.23-.5-15.3,5.75-15.81,13.97-.5,8.22,5.75,15.29,13.98,15.8.96.06,1.9.03,2.82-.09l.14-.02c5.56-.75,12.02-1.29,18.15-1.64,6.21-.38,12.47-.56,18.73-.65,12.54-.13,25.12.38,37.69,1.49,12.6,1.02,25.09,3.04,37.55,5.62,12.48,2.57,24.66,6.41,36.76,10.9"/>
    <path class="cls-29" d="m634.57,2861.94c-3.06,0-6.13-1-8.7-3.07-58.68-47.19-196.1-157.71-354.45-125.74-7.54,1.51-14.86-3.36-16.38-10.88-1.52-7.53,3.35-14.87,10.88-16.39,171.11-34.55,315.65,81.69,377.37,131.33,5.98,4.81,6.94,13.57,2.13,19.56-2.75,3.42-6.78,5.2-10.84,5.2Z"/>
    <path class="cls-22" d="m459.69,3058.36c-8.62-35.03-130.87-172.53-281.6-132.42,0,0,3.99-10.7,15.51-21,53.22-37.4,222.41-6.41,298.51,138.97"/>
    <path class="cls-22" d="m178.1,2925.92c91.17-24.28,171.94,16.46,223.4,60.19,33.65,28.55,54.78,58.4,58.19,72.23l32.43-14.43c-11.08-21.13-24.08-39.83-38.46-56.26-84.37-96.69-214.56-114.69-260.02-82.71-11.53,10.3-15.53,20.98-15.53,20.98"/>
    <path class="cls-12" d="m178.1,2925.92c5.58-1.51,11.11-2.73,16.62-3.71,45.53-8.41,88.12-1.09,125.25,13.94,18.33,7.39,35.33,16.67,50.72,26.83,11.15,7.36,21.45,15.21,30.81,23.12,33.65,28.55,54.78,58.4,58.19,72.23l32.43-14.43c-11.08-21.13-24.08-39.83-38.46-56.26-16.54-18.99-34.88-34.93-53.98-48.03-18.26-12.58-37.26-22.56-56.08-30.13-42.48-17.2-84.16-22.21-115.18-17.24-14.13,2.24-26.01,6.52-34.77,12.68-11.53,10.3-15.53,20.98-15.53,20.98"/>
    <g class="cls-7">
      <path class="cls-9" d="m319.96,2936.16c18.33,7.39,35.33,16.67,50.72,26.83,8.94-9.81,19.56-17.58,28.99-23.36-18.26-12.58-37.26-22.56-56.09-30.13-9.92,8.62-17.7,18.08-23.62,26.66"/>
    </g>
    <g class="cls-7">
      <path class="cls-9" d="m178.1,2925.92c5.58-1.51,11.11-2.73,16.62-3.71,10.52-11.67,23.1-22.11,33.69-29.95-14.13,2.24-26.01,6.52-34.77,12.68-11.53,10.3-15.53,20.98-15.53,20.98"/>
    </g>
    <path class="cls-18" d="m401.49,2986.11c33.65,28.55,54.79,58.4,58.19,72.24l32.42-14.43c-11.08-21.13-24.08-39.83-38.45-56.26-7.57,8.44-22.78,14.96-52.16-1.54"/>
    <path class="cls-29" d="m459.69,3069.96c-5.21,0-9.94-3.54-11.24-8.82-3.92-15.94-40.43-62.98-96.23-96.05-39.03-23.13-100.41-46.76-171.14-27.94-4.19,1.12-8.65-.2-11.56-3.41-2.91-3.21-3.79-7.78-2.27-11.84.51-1.37,5.37-13.73,18.65-25.59.34-.3.69-.58,1.06-.84,25.83-18.15,71.13-21.74,121.17-9.59,39.39,9.56,137.16,43.58,194.26,152.67,2.97,5.67.78,12.68-4.89,15.65-5.67,2.97-12.67.78-15.64-4.89-52.71-100.7-142.87-132.08-179.19-140.89-34.72-8.43-67.98-8.36-89.78-.38,62.28-5.69,115.33,15.9,151.14,37.12,60.11,35.63,101.38,87.93,106.92,110.46,1.53,6.22-2.27,12.5-8.48,14.03-.93.23-1.86.34-2.78.34Z"/>
    <path class="cls-22" d="m371.77,3058.36s-54.11-146.26-249.81-93.66c0,0,6.19-12.96,27.98-24.39,13.48-8.71,185.17-54.91,254.25,103.61l-32.42,14.45Z"/>
    <path class="cls-22" d="m121.98,2964.71c100.25-26.94,163.31-1.72,201.03,29.32,0,0,.04,0,.04.04,35.86,29.53,48.72,64.28,48.72,64.28l32.42-14.43c-7.15-16.4-15.39-30.62-24.5-42.92-78.45-106.43-217.68-68.49-229.74-60.71-21.8,11.46-27.97,24.42-27.97,24.42"/>
    <path class="cls-12" d="m121.98,2964.71c29.51-7.95,55.8-11.35,79.18-11.42,9.71-.03,18.93.52,27.66,1.58,3.79.42,7.5.98,11.11,1.61,13.43,2.35,25.59,5.89,36.63,10.23,18.57,7.36,33.89,17.03,46.44,27.32,0,0,.04,0,.04.04,35.86,29.53,48.72,64.28,48.72,64.28l32.42-14.43c-7.15-16.4-15.39-30.62-24.5-42.92-21.63-29.32-47.88-47.71-74.77-58.75-15.25-6.27-30.67-10.16-45.64-12.4-3.54-.53-7.08-.98-10.58-1.33-10.17-1.02-19.98-1.29-29.27-1.09-36.46.84-64.4,9.56-69.48,12.86-21.8,11.46-27.97,24.42-27.97,24.42"/>
    <g class="cls-7">
      <path class="cls-9" d="m239.93,2956.47c13.43,2.35,25.59,5.89,36.63,10.23,9.05-9.77,20.23-18.57,28.36-24.45-15.25-6.27-30.67-10.16-45.64-12.4-7.96,7.85-14.44,17.73-19.35,26.62"/>
    </g>
    <g class="cls-7">
      <path class="cls-9" d="m201.16,2953.28c9.71-.03,18.93.53,27.66,1.58,6.1-9.77,13.67-19.2,19.88-26.34-10.17-1.02-19.98-1.29-29.27-1.09-7.61,8.09-13.78,17.62-18.26,25.85"/>
    </g>
    <path class="cls-18" d="m323.04,2994.06c35.86,29.53,48.72,64.28,48.72,64.28l32.42-14.43c-7.15-16.39-15.39-30.62-24.5-42.91-3.65,19.13-22.68,14.04-56.64-6.94"/>
    <path class="cls-29" d="m371.77,3069.96c-4.7,0-9.12-2.88-10.86-7.55-2.12-5.63-53.36-135.59-235.95-86.52-4.37,1.18-9.02-.3-11.91-3.78-2.89-3.48-3.5-8.33-1.55-12.41.8-1.67,8.48-16.67,32.72-29.49,14.07-8.35,81.68-24.84,147.16-5.07,56.31,17,97.84,55.4,123.43,114.13,2.56,5.87-.12,12.7-5.99,15.26-5.87,2.56-12.69-.12-15.25-5.99-22.01-50.51-57.07-84.06-104.19-99.72-38.79-12.89-77.08-10.94-102.65-6.66,149.31-8.32,195.39,110.8,195.9,112.17,2.22,6-.84,12.68-6.84,14.9-1.33.49-2.69.72-4.02.72Z"/>
    <path class="cls-22" d="m455.31,3104.34c29.94-10.51,93.27-117.96,93.27-117.96,0,0-34.44,29.83-95.2,39.43-44.14,6.98-90.2,7.3-95.19,78.53,0,14.45,80.78,5.74,97.13,0"/>
    <path class="cls-22" d="m358.17,3104.34c0,14.43,80.8,5.75,97.14,0,16.65-5.85,43.64-41.65,64.28-72.3,16.51-24.45,28.99-45.65,28.99-45.65,0,0-34.42,29.81-95.2,39.41-32.81,5.19-66.7,6.69-83.95,36.43-5.96,10.23-9.95,23.86-11.25,42.11"/>
    <path class="cls-12" d="m358.16,3104.36c0,14.43,80.8,5.72,97.16,0,16.65-5.89,43.6-41.66,64.26-72.32,15.99-23.67,28.23-44.32,28.96-45.58-1.02.86-35.34,29.93-95.19,39.33-32.81,5.2-66.68,6.71-83.94,36.47-5.97,10.22-9.94,23.84-11.25,42.11"/>
    <path class="cls-18" d="m358.16,3104.36c0,14.43,80.8,5.72,97.16,0,16.65-5.89,43.6-41.66,64.26-72.32,0,0-35.59,41.78-95.84,41.53-31.83-.16-47.05-5.68-54.32-11.33-5.97,10.22-9.94,23.84-11.25,42.11"/>
    <path class="cls-29" d="m389.54,3127.2c-16.04,0-30.45-1.84-37.83-7.07-5.38-3.82-8.47-9.57-8.47-15.79,0-.35.01-.7.04-1.05,5.43-77.36,56.2-84.72,96.99-90.64,3.59-.52,7.19-1.04,10.78-1.61,53.2-8.4,75.38-37.27,76.3-38.5,4.61-6.16,13.18-7.86,19.76-3.86,6.57,4,9.08,12.28,5.74,19.22-13.32,27.68-59.38,118.89-92.57,130.55-8.19,2.88-42.06,8.75-70.72,8.75Zm-15.57-30.49c18.02,2.39,64.15-2.18,76.4-6.48h0c9.36-3.29,27.97-29.21,46.67-61.12-11.69,4.84-25.42,8.96-41.32,11.48-3.71.59-7.44,1.13-11.16,1.67-38.45,5.58-64.59,9.37-70.59,54.46Z"/>
    <path class="cls-12" d="m136.05,3130.54h317.26c10.14,0,18.36-2.05,18.36-18.36s-8.22-18.36-18.36-18.36h-61.38c-55.03,0-124-23.48-205.5-23.41-28.73.03-97.93-2.25-99.02,29.01-.6,16.95,21.59,31.11,48.65,31.11"/>
    <path class="cls-12" d="m90.95,3111.35c7.19,11.18,24.75,19.2,45.08,19.2h317.27c7.19,0,13.43-1.05,16.44-7.5-2.95-7.57-9.22-10.4-16.44-10.4h-61.38c-55.03,0-123.98-19.97-205.52-19.9-25.03.03-80.9-1.68-95.45,18.6"/>
    <path class="cls-18" d="m90.95,3111.35c7.19,11.18,24.75,19.2,45.08,19.2h317.27c7.19,0,13.43-1.05,16.44-7.5-2.95-7.57-9.22-10.4-16.44-10.4h-61.38c-55.03,0-123.98-14.98-205.52-14.92-25.03.04-84.7-1.24-95.45,13.62"/>
    <path class="cls-29" d="m453.3,3145.49H136.05c-21.11,0-40.72-7.26-52.45-19.42-7.63-7.91-11.48-17.31-11.13-27.17,1.53-43.84,71.02-43.62,108.36-43.44h5.58c45.98-.03,88.18,7.24,125.33,13.64,29.15,5.03,56.67,9.77,80.18,9.77h61.38c27.53,0,33.31,18.12,33.31,33.31s-5.78,33.31-33.31,33.31Zm-275.16-60.13c-67.91,0-75.66,10.17-75.82,14.59-.07,1.98,1.47,4,2.77,5.35,4.58,4.75,15.43,10.29,30.95,10.29h317.26c1.48,0,2.51-.06,3.21-.13.11-.72.21-1.78.21-3.27s-.1-2.55-.21-3.27c-.7-.07-1.73-.13-3.21-.13h-61.38c-26.07,0-54.82-4.96-85.26-10.21-35.87-6.19-76.51-13.2-119.88-13.2h-6.07c-.86-.02-1.72-.02-2.57-.02Z"/>
    <path class="cls-22" d="m524.31,3010.78c-54.52-63.68-189.21-189.03-321.23-126.8,0,0-4.83-20.77,16.9-36.45,130.16-55.5,262.74,59.7,324.98,126.86,1.68,14.6-6.5,29.08-20.65,36.39"/>
    <path class="cls-12" d="m203.09,2883.97c44.34-20.89,88.97-20.64,130.78-8.63,6.87,1.96,13.66,4.25,20.33,6.79,4.05,1.51,8.01,3.15,11.95,4.9,14.27,6.21,28.1,13.61,41.31,21.75,20.09,12.35,38.78,26.45,55.55,40.8.13.08.25.2.37.29,25.2,21.55,46.06,43.54,60.95,60.92,14.11-7.32,22.29-21.79,20.66-36.39-6.14-6.62-12.97-13.73-20.41-21.05v-.04c-23.15-22.86-52.24-48.24-85.21-69.74-13.79-9.04-28.27-17.38-43.28-24.61-3.19-1.51-6.42-3.03-9.69-4.46-7.61-3.35-15.34-6.38-23.15-9.08-45.58-15.53-94.58-18.64-143.26,2.13-21.72,15.65-16.89,36.42-16.89,36.42"/>
    <g class="cls-7">
      <path class="cls-9" d="m366.14,2887.04c14.28,6.21,28.1,13.61,41.31,21.75,8.8-7.15,22.46-17.78,31.91-25.22-13.79-9.03-28.27-17.37-43.29-24.61-8.87,8.01-21.64,19.79-29.94,28.09"/>
    </g>
    <g class="cls-7">
      <path class="cls-9" d="m333.86,2875.34c6.87,1.96,13.66,4.25,20.33,6.79,8.63-7.56,22.21-19.34,32.19-27.64-7.61-3.35-15.34-6.38-23.15-9.07-9.04,9.03-21.64,21.62-29.37,29.92"/>
    </g>
    <path class="cls-18" d="m463.38,2949.87c25.2,21.55,46.06,43.54,60.95,60.92,14.11-7.32,22.29-21.79,20.66-36.39-6.14-6.62-12.97-13.73-20.41-21.05-4.05,13.61-26.92,23.39-61.2-3.48"/>
    <path class="cls-29" d="m524.32,3024.69c-3.96,0-7.85-1.69-10.56-4.86-38.2-44.61-173.05-185.34-304.74-123.27-3.8,1.79-8.2,1.77-11.98-.07-3.78-1.83-6.53-5.27-7.48-9.37-2.57-11.07-.77-34.24,22.31-50.89.83-.6,1.73-1.11,2.68-1.51,142.3-60.67,285.61,70.84,340.62,130.2,2.01,2.17,3.28,4.93,3.62,7.87,2.33,20.23-8.96,40.46-28.09,50.34-2.03,1.04-4.21,1.55-6.37,1.55Zm-246.21-171.59c109.77,0,207.27,93.43,248.04,138.71,2.84-3.47,4.62-7.58,5.03-11.79-53.19-56.42-181.48-171.27-304.24-120.32-.33.26-.64.51-.95.77,17.55-5.09,34.99-7.36,52.12-7.36Z"/>
    <path class="cls-12" d="m337.3,2848.03c5.24-20.96-7.51-37.95-28.49-37.95s-42.22,16.99-47.46,37.95c-5.24,20.96,7.51,37.95,28.49,37.95s42.22-16.99,47.46-37.95"/>
    <path class="cls-12" d="m289.84,2871.96c14.65,0,30.16-12.52,33.86-27.34,1.52-6.08.75-11.48-2.18-15.22-2.72-3.48-7.12-5.32-12.71-5.32-14.65,0-30.16,12.52-33.86,27.33-1.52,6.08-.75,11.49,2.18,15.22,2.72,3.48,7.12,5.32,12.71,5.32"/>
    <path class="cls-18" d="m277.12,2866.65c2.73,3.47,7.12,5.33,12.72,5.33,14.65,0,30.14-12.54,33.86-27.36.6-2.42.84-4.73.7-6.87-5.75,12.09-19.03,21.37-31.65,21.37-5.61,0-9.99-1.85-12.72-5.33-1.75-2.24-2.7-5.11-2.87-8.34-.95,1.93-1.68,3.92-2.21,5.96-1.5,6.1-.74,11.49,2.18,15.24"/>
    <path class="cls-29" d="m289.84,2899.89c-14.11,0-26.77-5.86-34.74-16.08-8.2-10.51-10.84-24.78-7.24-39.16,6.79-27.19,33.56-48.49,60.94-48.49,14.1,0,26.76,5.86,34.73,16.08,8.2,10.5,10.84,24.78,7.24,39.16-6.79,27.19-33.56,48.49-60.95,48.49Zm18.97-75.9c-14.7,0-30.26,12.55-33.97,27.41-1.53,6.1-.75,11.53,2.18,15.29,2.74,3.52,7.18,5.37,12.82,5.37,14.7,0,30.26-12.55,33.97-27.41h0c1.53-6.1.75-11.53-2.18-15.29-2.74-3.52-7.17-5.37-12.82-5.37Z"/>
    <path class="cls-9" d="m880.69,2692.36c151.47,99.68,234.6,401.47,416.81,401.47h168.43c96.79,0,90.77-56.69,89.41-76.48-1.97-28.57-24.46-76.1-84.58-91.34-39.94-96.04-245.48-605.25-245.48-605.25"/>
    <path class="cls-9" d="m1551.78,3054.2c-7.69,20.12-29.08,39.62-85.87,39.62h-168.41c-182.2,0-265.37-301.79-416.8-401.46l344.56-371.57s10.96,27.14,28.31,70.07c45.49,112.59,134.91,333.79,185.93,458.89,13.74,33.81,24.71,60.59,31.25,76.29,37.59,9.53,60.5,31.68,72.86,53.92,7.41,13.33,11,26.7,11.74,37.41.57,8.18,1.92,22.65-3.56,36.83"/>
    <path class="cls-9" d="m880.69,2692.38c151.45,99.66,234.6,401.42,416.8,401.42h168.42c56.81,0,78.19-19.48,85.86-39.58,5.51-14.2,4.14-28.68,3.58-36.86-.75-10.7-4.33-24.08-11.73-37.38-12.36-22.27-35.27-44.42-72.87-53.94-6.53-15.7-17.52-42.49-31.25-76.29-9.84-24.16-21.14-51.86-33.23-81.72-50.66-124.72-115.98-286.31-152.71-377.19-17.32-42.92-28.31-70.07-28.31-70.07l-344.55,371.6Z"/>
    <path class="cls-17" d="m880.69,2692.38c151.45,99.66,234.6,401.42,416.8,401.42h168.42c56.81,0,78.19-19.48,85.86-39.58-36.53-18.3-110.31-12.75-149.17-7.4-45.07,6.22-74.05,7.4-57.28-27.19,29.02-59.64,145.78-49.69,198.3-39.66-12.36-22.27-35.27-44.42-72.87-53.94-6.53-15.7-17.52-42.49-31.25-76.29-131.1-61.93-198.03,58.62-247.67,47.25-28.7-6.57-135.82-139.24-91.93-214.15,16.97-29.04,132.91,84.71,306.36,85.18-50.66-124.72-115.98-286.31-152.71-377.19-17.32-42.92-28.31-70.07-28.31-70.07l-344.55,371.6Z"/>
    <path class="cls-29" d="m1465.92,3108.78h-168.43c-116.58,0-193.66-112.73-268.2-221.74-48.27-70.59-98.18-143.59-156.82-182.18-6.9-4.54-8.81-13.81-4.27-20.71,4.54-6.9,13.81-8.82,20.7-4.28,63.57,41.83,115.17,117.3,165.07,190.28,73.39,107.34,142.71,208.73,243.53,208.73h168.43c31.54,0,53.36-6.25,64.83-18.58,11.75-12.62,10.5-30.16,9.76-40.65l-.09-1.28c-1.44-20.87-18.62-64-73.34-77.87-4.57-1.16-8.32-4.4-10.13-8.75-39.51-95.02-243.48-600.3-245.54-605.39-3.09-7.66.61-16.37,8.26-19.47,7.66-3.08,16.36.61,19.45,8.27,2.01,4.98,197.28,488.7,242.65,598.42,57.06,17.63,85.85,64.86,88.47,102.74l.09,1.21c.94,13.31,2.91,41.01-17.71,63.15-17.36,18.64-46.53,28.1-86.7,28.1Z"/>
    <path class="cls-29" d="m1321.3,2956.56c12.1-4.49,24.28-8.32,36.76-10.9,12.46-2.58,24.95-4.6,37.55-5.62,12.57-1.11,25.16-1.61,37.69-1.49,6.27.09,12.52.27,18.73.65,6.12.35,12.59.89,18.15,1.64h.07c8.17,1.11,15.68-4.63,16.77-12.79,1.09-8.16-4.64-15.67-12.81-16.76-.95-.13-1.97-.16-2.9-.1-7.26.45-13.63,1.18-20.32,2.07-6.61.87-13.16,1.95-19.67,3.12-13.01,2.4-25.87,5.45-38.5,9.09-12.65,3.55-25.02,8.09-37.04,13.13-12.05,5.03-23.52,11.27-34.49,17.96"/>
    <path class="cls-29" d="m1020.65,2861.94c-4.07,0-8.1-1.78-10.85-5.2-4.81-5.99-3.86-14.74,2.13-19.56,61.72-49.64,206.25-165.89,377.37-131.33,7.53,1.52,12.4,8.86,10.88,16.39-1.52,7.53-8.86,12.39-16.38,10.88-158.35-31.99-295.77,78.55-354.45,125.74-2.57,2.06-5.65,3.07-8.7,3.07Z"/>
    <path class="cls-22" d="m1195.52,3058.36c8.62-35.03,130.87-172.53,281.59-132.42,0,0-3.99-10.7-15.51-21-53.22-37.4-222.41-6.41-298.51,138.97"/>
    <path class="cls-22" d="m1477.12,2925.92c-91.17-24.28-171.94,16.46-223.4,60.19-33.65,28.55-54.79,58.4-58.19,72.23l-32.42-14.43c11.08-21.13,24.08-39.83,38.45-56.26,84.37-96.69,214.56-114.69,260.02-82.71,11.53,10.3,15.53,20.98,15.53,20.98"/>
    <path class="cls-12" d="m1477.12,2925.92c-5.57-1.51-11.11-2.73-16.61-3.71-45.53-8.41-88.13-1.09-125.25,13.94-18.33,7.39-35.33,16.67-50.72,26.83-11.15,7.36-21.45,15.21-30.81,23.12-33.65,28.55-54.79,58.4-58.19,72.23l-32.42-14.43c11.08-21.13,24.08-39.83,38.45-56.26,16.54-18.99,34.88-34.93,53.98-48.03,18.26-12.58,37.26-22.56,56.08-30.13,42.48-17.2,84.16-22.21,115.19-17.24,14.12,2.24,26.01,6.52,34.77,12.68,11.53,10.3,15.53,20.98,15.53,20.98"/>
    <g class="cls-7">
      <path class="cls-9" d="m1335.26,2936.16c-18.33,7.39-35.33,16.67-50.72,26.83-8.93-9.81-19.56-17.58-28.99-23.36,18.26-12.58,37.26-22.56,56.08-30.13,9.92,8.62,17.7,18.08,23.63,26.66"/>
    </g>
    <g class="cls-7">
      <path class="cls-9" d="m1477.12,2925.92c-5.57-1.51-11.11-2.73-16.61-3.71-10.52-11.67-23.1-22.11-33.69-29.95,14.12,2.24,26.01,6.52,34.77,12.68,11.53,10.3,15.53,20.98,15.53,20.98"/>
    </g>
    <path class="cls-18" d="m1253.72,2986.11c-33.65,28.55-54.79,58.4-58.19,72.24l-32.42-14.43c11.08-21.13,24.08-39.83,38.46-56.26,7.57,8.44,22.78,14.96,52.16-1.54"/>
    <path class="cls-29" d="m1195.53,3069.96c-.92,0-1.85-.11-2.78-.34-6.21-1.53-10.01-7.81-8.48-14.03,5.54-22.53,46.8-74.82,106.9-110.45,35.81-21.23,88.88-42.8,151.16-37.13-21.8-7.98-55.06-8.05-89.78.38-36.32,8.82-126.49,40.19-179.19,140.89-2.97,5.67-9.97,7.86-15.64,4.89-5.67-2.97-7.86-9.98-4.89-15.65,57.1-109.09,154.87-143.11,194.26-152.67,50.04-12.15,95.34-8.56,121.17,9.59.37.26.72.54,1.06.84,13.28,11.87,18.14,24.23,18.65,25.6,1.51,4.06.63,8.63-2.28,11.84-2.91,3.21-7.38,4.52-11.56,3.41-70.73-18.82-132.12,4.81-171.16,27.95-55.79,33.07-92.29,80.1-96.21,96.04-1.3,5.29-6.03,8.83-11.24,8.83Z"/>
    <path class="cls-22" d="m1283.45,3058.36s54.11-146.26,249.81-93.66c0,0-6.18-12.96-27.98-24.39-13.48-8.71-185.17-54.91-254.25,103.61l32.42,14.45Z"/>
    <path class="cls-22" d="m1533.24,2964.71c-100.25-26.94-163.32-1.72-201.03,29.32,0,0-.04,0-.04.04-35.86,29.53-48.72,64.28-48.72,64.28l-32.42-14.43c7.15-16.4,15.39-30.62,24.5-42.92,78.45-106.43,217.68-68.49,229.74-60.71,21.8,11.46,27.97,24.42,27.97,24.42"/>
    <path class="cls-12" d="m1533.24,2964.71c-29.51-7.95-55.81-11.35-79.19-11.42-9.71-.03-18.93.52-27.65,1.58-3.79.42-7.5.98-11.11,1.61-13.43,2.35-25.59,5.89-36.63,10.23-18.58,7.36-33.9,17.03-46.44,27.32,0,0-.04,0-.04.04-35.86,29.53-48.72,64.28-48.72,64.28l-32.42-14.43c7.15-16.4,15.39-30.62,24.5-42.92,21.63-29.32,47.88-47.71,74.77-58.75,15.25-6.27,30.68-10.16,45.64-12.4,3.54-.53,7.08-.98,10.58-1.33,10.17-1.02,19.98-1.29,29.27-1.09,36.46.84,64.39,9.56,69.47,12.86,21.8,11.46,27.97,24.42,27.97,24.42"/>
    <g class="cls-7">
      <path class="cls-9" d="m1415.28,2956.47c-13.43,2.35-25.59,5.89-36.63,10.23-9.05-9.77-20.23-18.57-28.36-24.45,15.25-6.27,30.67-10.16,45.64-12.4,7.95,7.85,14.44,17.73,19.35,26.62"/>
    </g>
    <g class="cls-7">
      <path class="cls-9" d="m1454.05,2953.28c-9.71-.03-18.93.53-27.66,1.58-6.1-9.77-13.67-19.2-19.87-26.34,10.17-1.02,19.98-1.29,29.27-1.09,7.61,8.09,13.78,17.62,18.26,25.85"/>
    </g>
    <path class="cls-18" d="m1332.17,2994.06c-35.86,29.53-48.72,64.28-48.72,64.28l-32.42-14.43c7.15-16.39,15.39-30.62,24.5-42.91,3.65,19.13,22.68,14.04,56.64-6.94"/>
    <path class="cls-29" d="m1283.44,3069.94c-1.34,0-2.71-.24-4.04-.74-5.98-2.23-9.04-8.88-6.82-14.87.51-1.37,46.61-120.51,196-112.16-25.55-4.27-63.89-6.26-102.75,6.66-47.12,15.66-82.18,49.21-104.19,99.72-2.56,5.87-9.38,8.55-15.25,5.99-5.86-2.56-8.55-9.39-5.99-15.26,25.6-58.73,67.13-97.13,123.43-114.13,65.47-19.77,133.09-3.27,147.16,5.07,24.23,12.81,31.91,27.81,32.71,29.49,1.95,4.08,1.34,8.93-1.55,12.41-2.89,3.48-7.55,4.96-11.91,3.78-182.63-49.08-233.85,80.96-235.95,86.52-1.75,4.65-6.17,7.53-10.86,7.53Z"/>
    <path class="cls-22" d="m1199.9,3104.34c-29.94-10.51-93.26-117.96-93.26-117.96,0,0,34.44,29.83,95.19,39.43,44.15,6.98,90.2,7.3,95.2,78.53,0,14.45-80.78,5.74-97.13,0"/>
    <path class="cls-22" d="m1297.05,3104.34c0,14.43-80.8,5.75-97.13,0-16.65-5.85-43.65-41.65-64.29-72.3-16.51-24.45-28.99-45.65-28.99-45.65,0,0,34.42,29.81,95.2,39.41,32.81,5.19,66.7,6.69,83.95,36.43,5.96,10.23,9.96,23.86,11.25,42.11"/>
    <path class="cls-12" d="m1297.05,3104.36c0,14.43-80.79,5.72-97.15,0-16.65-5.89-43.61-41.66-64.27-72.32-15.99-23.67-28.23-44.32-28.96-45.58,1.02.86,35.35,29.93,95.19,39.33,32.81,5.2,66.68,6.71,83.94,36.47,5.97,10.22,9.94,23.84,11.25,42.11"/>
    <path class="cls-18" d="m1297.05,3104.36c0,14.43-80.79,5.72-97.15,0-16.65-5.89-43.61-41.66-64.27-72.32,0,0,35.59,41.78,95.84,41.53,31.83-.16,47.05-5.68,54.33-11.33,5.97,10.22,9.94,23.84,11.25,42.11"/>
    <path class="cls-29" d="m1265.68,3127.2c-28.67,0-62.53-5.87-70.72-8.75h0c-33.2-11.65-79.25-102.87-92.58-130.55-3.36-6.97-.84-15.36,5.8-19.33,6.64-3.98,15.22-2.21,19.76,4.06.85,1.13,23.03,30,76.22,38.41,3.59.57,7.19,1.09,10.78,1.61,40.79,5.92,91.56,13.28,96.99,90.64.02.35.04.7.04,1.05,0,6.22-3.09,11.97-8.47,15.79-7.38,5.23-21.79,7.07-37.83,7.07Zm-107.5-98.09c18.7,31.91,37.31,57.84,46.67,61.12h0c12.25,4.3,58.37,8.87,76.4,6.48-6-45.08-32.15-48.88-70.6-54.46-3.72-.54-7.44-1.08-11.16-1.67-15.91-2.51-29.63-6.64-41.32-11.48Z"/>
    <path class="cls-12" d="m1519.17,3130.54h-317.26c-10.14,0-18.37-2.05-18.37-18.36s8.22-18.36,18.37-18.36h61.38c55.03,0,124-23.48,205.5-23.41,28.73.03,97.93-2.25,99.02,29.01.59,16.95-21.59,31.11-48.65,31.11"/>
    <path class="cls-12" d="m1564.26,3111.35c-7.19,11.18-24.75,19.2-45.08,19.2h-317.27c-7.19,0-13.42-1.05-16.44-7.5,2.95-7.57,9.22-10.4,16.44-10.4h61.38c55.04,0,123.99-19.97,205.52-19.9,25.03.03,80.9-1.68,95.45,18.6"/>
    <path class="cls-18" d="m1564.26,3111.35c-7.19,11.18-24.75,19.2-45.08,19.2h-317.27c-7.19,0-13.42-1.05-16.44-7.5,2.95-7.57,9.22-10.4,16.44-10.4h61.38c55.04,0,123.99-14.98,205.52-14.92,25.03.04,84.7-1.24,95.45,13.62"/>
    <path class="cls-29" d="m1519.17,3145.49h-317.26c-27.53,0-33.31-18.11-33.31-33.31s5.78-33.31,33.31-33.31h61.38c23.51,0,51.04-4.75,80.18-9.77,37.05-6.39,79.03-13.63,124.96-13.63h5.96c37.35-.15,106.83-.41,108.36,43.43.35,9.86-3.51,19.26-11.14,27.17-11.73,12.16-31.34,19.42-52.45,19.42Zm-320.47-30.04c.7.07,1.73.13,3.21.13h317.26c15.51,0,26.36-5.54,30.94-10.29,1.3-1.35,2.84-3.37,2.77-5.34-.16-4.48-8.18-14.99-78.38-14.59h-5.72c-43.57.12-84.27,7-120.23,13.21-30.44,5.25-59.19,10.21-85.26,10.21h-61.38c-1.48,0-2.51.06-3.21.13-.11.72-.21,1.78-.21,3.27s.1,2.55.21,3.27Z"/>
    <path class="cls-22" d="m1130.9,3010.78c54.52-63.68,189.21-189.03,321.23-126.8,0,0,4.83-20.77-16.9-36.45-130.16-55.5-262.74,59.7-324.98,126.86-1.68,14.6,6.5,29.08,20.65,36.39"/>
    <path class="cls-12" d="m1452.13,2883.97c-44.34-20.89-88.97-20.64-130.78-8.63-6.87,1.96-13.67,4.25-20.33,6.79-4.05,1.51-8.02,3.15-11.95,4.9-14.28,6.21-28.1,13.61-41.31,21.75-20.09,12.35-38.78,26.45-55.55,40.8-.12.08-.25.2-.37.29-25.2,21.55-46.06,43.54-60.95,60.92-14.11-7.32-22.29-21.79-20.66-36.39,6.13-6.62,12.97-13.73,20.41-21.05v-.04c23.15-22.86,52.24-48.24,85.21-69.74,13.79-9.04,28.27-17.38,43.28-24.61,3.19-1.51,6.43-3.03,9.7-4.46,7.61-3.35,15.34-6.38,23.16-9.08,45.57-15.53,94.57-18.64,143.26,2.13,21.72,15.65,16.89,36.42,16.89,36.42"/>
    <g class="cls-7">
      <path class="cls-9" d="m1289.08,2887.04c-14.28,6.21-28.1,13.61-41.31,21.75-8.8-7.15-22.46-17.78-31.91-25.22,13.79-9.03,28.27-17.37,43.28-24.61,8.88,8.01,21.64,19.79,29.94,28.09"/>
    </g>
    <g class="cls-7">
      <path class="cls-9" d="m1321.35,2875.34c-6.87,1.96-13.66,4.25-20.33,6.79-8.63-7.56-22.21-19.34-32.19-27.64,7.61-3.35,15.34-6.38,23.15-9.07,9.04,9.03,21.64,21.62,29.37,29.92"/>
    </g>
    <path class="cls-18" d="m1191.84,2949.87c-25.2,21.55-46.06,43.54-60.95,60.92-14.11-7.32-22.29-21.79-20.66-36.39,6.13-6.62,12.97-13.73,20.41-21.05,4.05,13.61,26.92,23.39,61.2-3.48"/>
    <path class="cls-29" d="m1130.9,3024.69c-2.16,0-4.35-.51-6.37-1.55-19.12-9.88-30.41-30.11-28.09-50.34.34-2.94,1.61-5.7,3.62-7.87,55.01-59.36,198.32-190.89,340.62-130.2.95.4,1.84.91,2.68,1.51,23.09,16.65,24.89,39.82,22.31,50.89-.95,4.09-3.7,7.54-7.48,9.37-3.78,1.83-8.18,1.86-11.98.07-131.7-62.08-266.55,78.66-304.74,123.27-2.71,3.17-6.6,4.86-10.56,4.86Zm-6.87-44.68c.41,4.22,2.19,8.32,5.03,11.79,47.13-52.35,170.09-169.04,300.16-131.35-.31-.26-.62-.51-.95-.77-122.76-50.97-251.05,63.9-304.24,120.32Z"/>
    <path class="cls-12" d="m1317.92,2848.03c-5.24-20.96,7.52-37.95,28.49-37.95s42.22,16.99,47.46,37.95c5.24,20.96-7.52,37.95-28.49,37.95s-42.22-16.99-47.46-37.95"/>
    <path class="cls-12" d="m1365.38,2871.96c-14.65,0-30.16-12.52-33.86-27.34-1.52-6.08-.74-11.48,2.18-15.22,2.72-3.48,7.12-5.32,12.71-5.32,14.65,0,30.16,12.52,33.86,27.33,1.52,6.08.75,11.49-2.18,15.22-2.72,3.48-7.12,5.32-12.71,5.32"/>
    <path class="cls-18" d="m1378.09,2866.65c-2.74,3.47-7.12,5.33-12.72,5.33-14.65,0-30.14-12.54-33.86-27.36-.6-2.42-.84-4.73-.7-6.87,5.75,12.09,19.03,21.37,31.65,21.37,5.61,0,9.99-1.85,12.72-5.33,1.75-2.24,2.7-5.11,2.87-8.34.95,1.93,1.69,3.92,2.21,5.96,1.51,6.1.74,11.49-2.17,15.24"/>
    <path class="cls-29" d="m1365.38,2899.89c-27.38,0-54.15-21.3-60.95-48.49t0,0c-3.59-14.38-.95-28.65,7.24-39.16,7.97-10.21,20.63-16.08,34.73-16.08,27.38,0,54.15,21.3,60.95,48.48,3.6,14.39.95,28.66-7.24,39.17-7.97,10.21-20.63,16.08-34.73,16.08Zm-33.97-55.24c3.72,14.86,19.28,27.42,33.97,27.42,5.64,0,10.07-1.86,12.82-5.37,2.93-3.76,3.71-9.19,2.19-15.29-3.72-14.86-19.27-27.41-33.97-27.41-5.64,0-10.07,1.86-12.82,5.37-2.93,3.76-3.71,9.19-2.19,15.29h0Z"/>
  </g>
  <g>
    <path class="cls-9" d="m541.41,1865.44c-123.46,244.49-144.9,463.15-121.06,563.11l190.32,231.25s58.99,43.66,216.56,43.66,216.56-43.66,216.56-43.66l191.07-231.25c23.83-99.96,2.39-318.62-121.06-563.11,0,0-135.36-238.95-286.58-238.95s-285.82,238.95-285.82,238.95"/>
    <path class="cls-17" d="m420.35,2428.55l190.31,231.22s59.01,43.67,216.56,43.67,216.57-43.67,216.57-43.67l191.09-231.22c8.66-36.31,11.3-88.36,5.27-151.55-1.34,10.9-3.15,20.93-5.27,29.98,0,0-37.8,109.26-144.01,189.99-.04.04-.08.04-.12.08-20.98,12.98-175.39-683.24-191.49-659.56-172.4,252.9-.86,486.41,7.8,659.36,3.35,66.73-58.26,85.02-79.84,85.02-3.62,0-7.24-.04-10.79-.12-3.58-.08-7.08-.16-10.59-.32h-.24c-3.43-.16-6.85-.31-10.2-.55-3.39-.19-6.69-.43-10-.75-.24,0-.47,0-.71-.04-6.61-.55-13.11-1.22-19.52-2.04-.24,0-.47-.04-.71-.08-2.64-.32-5.27-.67-7.87-1.06-6.18-.91-12.29-1.93-18.27-3.03-1.66-.32-3.31-.63-4.96-.98-2.08-.39-4.13-.79-6.18-1.26-2.44-.51-4.8-1.02-7.2-1.57-2.6-.63-5.12-1.22-7.64-1.85-1.5-.39-2.95-.75-4.41-1.14-.35-.08-.67-.16-1.02-.27-2.16-.55-4.29-1.14-6.46-1.77-2.64-.71-5.23-1.5-7.83-2.28-9.33-2.83-18.39-5.9-27.13-9.24-2.16-.83-4.29-1.66-6.42-2.52-8.15-3.22-16.06-6.73-23.74-10.35-2.2-1.06-4.41-2.12-6.58-3.22-4.88-2.4-9.6-4.92-14.29-7.48-2.21-1.22-4.41-2.44-6.61-3.69-7.95-4.6-15.63-9.36-23-14.25-2.6-1.73-5.16-3.5-7.68-5.27-1.38-.95-2.75-1.93-4.09-2.91-2.75-1.93-5.43-3.93-8.07-5.94-.59-.43-1.18-.86-1.73-1.29-105.59-80.73-142.95-189.6-142.95-189.6-2.16-9.05-3.94-19.04-5.27-29.94-6.07,63.19-3.39,115.2,5.27,151.51"/>
    <path class="cls-14" d="m543.66,1861.56c74.21,43.97,173.91,70.89,283.58,70.89s209.86-27.05,284.14-71.22c-18.98-31.95-144.81-234.74-284.14-234.74s-265.43,204.25-283.58,235.08"/>
    <path class="cls-17" d="m784.7,2580.1c-6.61-.55-13.11-1.22-19.53-2.04,6.38.83,12.91,1.5,19.53,2.04"/>
    <path class="cls-16" d="m608.05,1892.85c63.62,25.11,138.73,39.6,219.19,39.6s155.57-14.49,219.18-39.6c-59.64-116.4-138.29-200.05-219.18-200.05s-159.55,83.65-219.19,200.05"/>
    <path class="cls-29" d="m420.35,2428.55c-1.18-24.74-.26-48.8,1.13-72.79,1.04-12.01,1.75-23.93,3.21-35.87l1.83-17.86,2.33-17.83c5.74-47.57,15.82-94.56,27.52-141.07,11.78-46.51,25.2-92.69,40.45-138.44,8.29-22.63,15.74-45.61,23.66-68.56,7.12-23.3,15.43-46.16,20.92-70.68-7.91,9.67-14.94,19.85-21.93,30.09-3.33,5.2-7.01,10.25-10.06,15.61-3.13,5.32-6.18,10.68-9.19,16.07-2.98,5.4-5.97,10.81-8.84,16.27-1.43,2.74-2.91,5.45-4.28,8.22l-3.91,8.38c-5.21,11.18-10.13,22.49-15.04,33.81-18.71,45.67-34.69,92.63-46.21,140.81-2.77,12.07-5.85,24.06-7.86,36.31-2.16,12.21-4.76,24.32-6.18,36.67l-2.48,18.44-1.22,9.21-.89,9.27c-1.14,12.36-2.61,24.67-2.89,37.13l-.66,18.61c-.1,6.21.2,12.46.27,18.67.23,6.22.19,12.41.82,18.64l1.77,18.6c3.17,24.68,7.88,49.45,17.72,72.29"/>
    <path class="cls-29" d="m1234.87,2428.55c9.84-22.84,14.56-47.61,17.72-72.29l1.77-18.6c.63-6.23.59-12.42.82-18.64.08-6.21.38-12.46.27-18.67l-.66-18.61c-.28-12.46-1.75-24.76-2.89-37.13l-.89-9.27-1.22-9.21-2.49-18.44c-1.41-12.35-4.01-24.46-6.18-36.67-2.01-12.25-5.09-24.24-7.86-36.31-11.53-48.18-27.5-95.14-46.21-140.81-4.91-11.33-9.83-22.64-15.04-33.81l-3.91-8.38c-1.37-2.77-2.85-5.48-4.28-8.22-2.87-5.46-5.86-10.87-8.84-16.27-3.01-5.39-6.06-10.75-9.2-16.07-3.04-5.36-6.73-10.4-10.05-15.61-6.99-10.24-14.03-20.42-21.93-30.09,5.49,24.52,13.8,47.38,20.92,70.68,7.92,22.95,15.38,45.93,23.66,68.56,15.25,45.76,28.67,91.93,40.45,138.44,11.7,46.52,21.78,93.51,27.52,141.07l2.33,17.83,1.83,17.86c1.47,11.94,2.18,23.86,3.21,35.87,1.39,23.99,2.31,48.05,1.13,72.79"/>
    <path class="cls-29" d="m610.67,2659.8c6.84,6.57,14.9,11.87,23.14,16.62,4.1,2.49,8.38,4.55,12.63,6.78,4.32,1.99,8.65,4.05,13.05,5.91,17.61,7.46,35.98,12.94,54.56,17.19,37.21,8.51,75.32,12.01,113.19,12.01,37.86,0,75.98-3.51,113.19-12.01,18.58-4.25,36.94-9.73,54.56-17.19,4.4-1.85,8.74-3.91,13.05-5.91,4.25-2.23,8.53-4.29,12.62-6.78,8.24-4.75,16.3-10.05,23.14-16.62-17.31,7.38-35.22,11.71-53.14,15.41-17.93,3.68-36.01,6.23-54.14,8.12-36.23,3.92-72.69,5.3-109.28,5.3s-73.04-1.38-109.28-5.3c-18.13-1.89-36.21-4.44-54.14-8.12-17.93-3.7-35.84-8.03-53.14-15.41"/>
    <path class="cls-26" d="m785.78,1881.98s-161.31-42.3-207.95-108.72c-46.64-66.42-150.71,53.56-150.71,53.56,0,0,227.37,103.66,348.3,110.7l10.36-55.53Z"/>
    <path class="cls-26" d="m427.11,1826.82s227.39,103.67,348.29,110.71l4.92-26.4,5.43-29.15s-161.29-42.29-207.95-108.71c-25.98-37.02-69.8-16.13-103.5,9.64-26.81,20.38-47.21,43.91-47.21,43.91"/>
    <path class="cls-24" d="m474.32,1782.91c64.29,68.1,244.36,114.1,306.01,128.22l5.43-29.15s-161.29-42.29-207.95-108.71c-25.98-37.02-69.8-16.13-103.5,9.64"/>
    <path class="cls-29" d="m775.43,1952.47c-.29,0-.58,0-.88-.02-122.3-7.11-344.24-107.74-353.63-112.02-4.29-1.95-7.4-5.82-8.41-10.43-1-4.61.23-9.42,3.32-12.98,7.25-8.35,72.36-81.55,128.51-78.66,18.48.95,34.29,10.04,45.71,26.31,43,61.23,197.95,102.45,199.51,102.86,7.58,1.99,12.34,9.5,10.9,17.21l-10.36,55.53c-1.33,7.11-7.53,12.21-14.68,12.21Zm-322.89-130.78c54.52,23.64,212.47,89.19,310.67,99.8l5.38-28.82c-40.76-12.01-161.44-51.66-202.98-110.81-6.19-8.82-13.43-13.15-22.77-13.63-28.23-1.45-67.09,30.53-90.3,53.47Z"/>
    <path class="cls-29" d="m706.87,1892.59c-19.39-7.65-38.34-16.29-56.99-25.39-18.62-9.16-36.93-18.87-54.54-29.56-17.57-10.7-34.83-21.88-50.47-34.65-15.63-12.66-30.23-26.45-41.23-41.71l-23.13,18.62c15.57,16.9,33.34,29.78,51.51,41.28,18.18,11.53,37.26,20.86,56.44,29.62,19.2,8.73,38.8,16.3,58.55,23.24,19.77,6.89,39.68,13.24,59.86,18.55"/>
    <path class="cls-26" d="m869.44,1881.98s161.31-42.3,207.95-108.72c46.64-66.42,150.71,53.56,150.71,53.56,0,0-227.37,103.66-348.29,110.7l-10.36-55.53Z"/>
    <path class="cls-29" d="m879.79,1952.47c-7.15,0-13.35-5.1-14.68-12.21l-10.36-55.53c-1.44-7.71,3.32-15.22,10.9-17.21,1.56-.41,156.57-41.7,199.51-102.86,11.42-16.27,27.23-25.36,45.71-26.31,56.09-2.9,121.26,70.31,128.51,78.66,3.09,3.56,4.32,8.37,3.32,12.98-1,4.61-4.12,8.47-8.41,10.43-9.39,4.28-231.32,104.9-353.63,112.02-.29.02-.59.02-.88.02Zm6.85-59.8l5.38,28.82c98.2-10.6,256.15-76.16,310.67-99.8-23.21-22.94-62.07-54.96-90.3-53.47-9.34.48-16.57,4.82-22.77,13.63-41.53,59.15-162.22,98.8-202.98,110.81Z"/>
    <path class="cls-9" d="m269.19,1079.92s-129.14,48.93-142.41,72.82c-24.6,44.29-20.04,304.63,48.03,372.51,26.65,26.58,222.47,51.41,222.47,51.41l-128.08-496.74Z"/>
    <path class="cls-17" d="m397.27,1576.67s-195.81-24.85-222.45-51.43c-26.56-26.48-43.48-82.34-52.7-143.2,2.16,1.95,71.33,61.61,209.29-59.65.07-.07.18-.14.25-.21l65.61,254.5Z"/>
    <path class="cls-9" d="m1256.92,1576.67s195.81-24.85,222.45-51.43c26.56-26.48,43.48-82.34,52.7-143.2l.04-.04c14.44-94.99,10.29-202.25-4.72-229.26-13.26-23.89-142.4-72.84-142.4-72.84l-62.46,242.27-65.61,254.5Z"/>
    <path class="cls-17" d="m1256.92,1576.67s195.81-24.85,222.45-51.43c26.56-26.48,43.48-82.34,52.7-143.2-2.16,1.95-71.32,61.61-209.29-59.65-.07-.07-.18-.14-.25-.21l-65.61,254.5Z"/>
    <path class="cls-29" d="m417.24,1594.27l-21.85-2.77c-47.12-5.98-203.06-27.65-231.14-55.66-74.39-74.19-77.87-341.15-50.54-390.37,14.37-25.88,109.82-64.24,150.18-79.54l15.6-5.91,137.75,534.24Zm-158.33-494.33c-54.83,21.72-112.26,49.27-119.11,60.12-21.95,39.52-17.14,292.08,45.55,354.59,13.11,13.07,105.67,32.22,191.91,44.25l-118.34-458.97Z"/>
    <path class="cls-29" d="m1236.93,1594.27l137.75-534.24,15.6,5.91c40.37,15.29,135.81,53.66,150.18,79.54,27.34,49.21,23.86,316.17-50.54,390.36-28.08,28-184.01,49.68-231.14,55.66l-21.85,2.77Zm158.33-494.33l-118.34,458.97c86.23-12.03,178.8-31.18,191.9-44.25,62.69-62.52,67.5-315.07,45.51-354.65-6.82-10.81-64.25-38.35-119.08-60.07Z"/>
    <polygon class="cls-19" points="829 1351.64 829 1353.87 830.41 1352.78 829 1351.64"/>
    <polygon class="cls-19" points="830.41 1352.77 831.83 1353.86 831.83 1351.64 830.41 1352.77"/>
    <path class="cls-9" d="m228.4,1243.08c0,330.47,268.07,598.37,598.74,598.37s598.74-267.9,598.74-598.37-268.06-598.37-598.74-598.37S228.4,912.61,228.4,1243.08"/>
    <path class="cls-17" d="m228.38,1243.06c0,330.47,268.06,598.37,598.74,598.37s598.78-267.89,598.78-598.37c0-34.89-2.98-69.1-8.76-102.33-48.57,281.7-294.25,495.99-590.02,495.99s-541.41-214.29-589.99-495.99c-5.77,33.23-8.75,67.45-8.75,102.33"/>
    <path class="cls-29" d="m827.14,1856.4c-338.39,0-613.69-275.13-613.69-613.32s275.3-613.32,613.69-613.32,613.69,275.13,613.69,613.32-275.3,613.32-613.69,613.32Zm0-1196.73c-321.91,0-583.8,261.72-583.8,583.41s261.89,583.41,583.8,583.41,583.8-261.72,583.8-583.41-261.89-583.41-583.8-583.41Z"/>
    <path class="cls-29" d="m827.14,1856.4c-338.39,0-613.69-275.13-613.69-613.32s275.3-613.32,613.69-613.32,613.69,275.13,613.69,613.32-275.3,613.32-613.69,613.32Zm0-1196.73c-321.91,0-583.8,261.72-583.8,583.41s261.89,583.41,583.8,583.41,583.8-261.72,583.8-583.41-261.89-583.41-583.8-583.41Z"/>
    <path class="cls-29" d="m827.14,1856.4c-338.39,0-613.69-275.13-613.69-613.32s275.3-613.32,613.69-613.32,613.69,275.13,613.69,613.32-275.3,613.32-613.69,613.32Zm0-1196.73c-321.91,0-583.8,261.72-583.8,583.41s261.89,583.41,583.8,583.41,583.8-261.72,583.8-583.41-261.89-583.41-583.8-583.41Z"/>
    <path class="cls-29" d="m827.15,1856.39c-279.61,0-523.71-188.5-593.97-458.54-.11-.34-.21-.68-.3-1.02-12.88-49.9-19.41-101.63-19.41-153.75,0-22.91,1.28-45.96,3.82-68.5,34.5-310.58,296.68-544.81,609.86-544.81s575.25,234.15,609.81,544.66c2.56,22.4,3.87,45.52,3.87,68.65,0,52.21-6.55,103.95-19.47,153.77-.09.36-.2.71-.31,1.05-70.22,270.02-314.28,458.49-593.89,458.49Zm-565.23-466.81c66.59,257.25,298.99,436.9,565.23,436.9s498.66-179.65,565.17-436.92c.1-.41.22-.82.36-1.22,12.11-47.06,18.26-95.93,18.26-145.27,0-22-1.24-43.97-3.68-65.29-32.88-295.39-282.27-518.11-580.11-518.11s-547.34,222.79-580.16,518.22c-2.41,21.45-3.63,43.38-3.63,65.18,0,49.27,6.13,98.16,18.22,145.32.13.39.24.78.34,1.18Z"/>
    <path class="cls-29" d="m249.26,1101.11c-1.64,0-3.3-.27-4.93-.84-7.4-2.59-11.55-10.46-9.5-18.03,72.17-266.42,315.73-452.49,592.31-452.49s519.93,185.93,592.2,452.16c2.06,7.57-2.09,15.45-9.49,18.03-7.4,2.6-15.54-.98-18.65-8.18-94.59-219.04-315.99-360.57-564.05-360.57s-469.67,141.66-564.16,360.89c-2.42,5.62-7.91,9.03-13.72,9.03Zm577.89-441.45c-190.59,0-364.69,92.86-472.29,240.38,118.85-124.6,288.61-198.75,472.29-198.75s353.3,74.09,472.16,198.62c-107.61-147.43-281.67-240.24-472.16-240.24Z"/>
    <path class="cls-29" d="m228.44,1243.09c0,51.79,6.57,102.1,18.93,150.01,0,0,.05,0,.05.06,103.87,200.55,324.46,373.1,579.74,373.1s475.82-172.55,579.69-373.1c0-.06.06-.06.06-.06,12.42-47.91,18.99-98.22,18.99-150.01,0-22.64-1.26-45.01-3.78-67-80.77-223.35-316.58-384.96-594.96-384.96s-514.29,161.72-595.01,385.12c-2.46,21.93-3.72,44.24-3.72,66.83"/>
    <g class="cls-2">
      <path class="cls-15" d="m228.41,1243.11c0,51.79,6.57,102.1,18.93,150.01,0,0,.05,0,.05.06,103.87,200.55,324.46,373.09,579.74,373.09s475.82-172.54,579.69-373.09c0-.06.06-.06.06-.06,7.39-28.55,12.69-57.91,15.82-87.99-134.24,150.72-329.44,260.37-546.75,260.37-276.85,0-517.96-177.96-642.73-392.12-.39.98-.76,1.91-1.1,2.9-2.46,21.93-3.72,44.24-3.72,66.83"/>
    </g>
    <path class="cls-29" d="m827.17,1781.22c-122.96,0-245.74-39.4-355.07-113.94-99.01-67.51-183.37-162.16-237.6-266.57-.7-1.19-1.24-2.48-1.6-3.86-12.88-49.89-19.41-101.62-19.41-153.75,0-22.91,1.28-45.95,3.81-68.5.13-1.17.4-2.31.8-3.41,41.21-114.06,120.47-212.18,229.2-283.74,110.58-72.78,241.93-111.24,379.86-111.24,278.86,0,523.61,158.67,609.01,394.82.4,1.1.66,2.23.79,3.39,2.57,22.47,3.88,45.58,3.88,68.7,0,52.2-6.55,103.94-19.47,153.77-.36,1.39-.91,2.7-1.62,3.89-54.23,104.4-138.56,199.02-237.54,266.52-109.32,74.54-232.09,113.94-355.04,113.94Zm-565.77-393.58c94.45,181.25,305.71,363.67,565.77,363.67s471.28-182.43,565.72-363.69c11.99-46.85,18.07-95.46,18.07-144.53,0-21.38-1.17-42.76-3.49-63.55-81.68-223.45-314.63-373.45-580.3-373.45s-498.72,150.05-580.35,373.59c-2.28,20.89-3.43,42.21-3.43,63.41,0,49.01,6.06,97.63,18.02,144.54Z"/>
    <g class="cls-4">
      <path class="cls-9" d="m528.55,1191.01c7.5,46.72-13.89,88.99-47.76,94.41-33.87,5.43-67.41-28.04-74.91-74.75-7.49-46.72,13.89-88.99,47.76-94.42,33.87-5.43,67.41,28.04,74.91,74.76"/>
    </g>
    <g class="cls-4">
      <path class="cls-9" d="m572.14,1362.15c6.37,20.76-2.91,42.02-20.74,47.49-17.83,5.46-37.45-6.94-43.82-27.7-6.37-20.76,2.92-42.02,20.74-47.49,17.83-5.46,37.45,6.94,43.82,27.7"/>
    </g>
    <g class="cls-4">
      <path class="cls-9" d="m1173.9,1353.66c50.13,13.67,141.43-184.47,13.36-282.02-64.02-48.77-249.59-42.58-228.67,13.95,18.06,48.79,146.16-7.64,178.41,128.9,11.13,47.13-9.34,126.57,36.91,139.18"/>
    </g>
    <path class="cls-26" d="m1072.32,704.1s74.62-392.67-113.01-674.42c0,0-143.17-25.13-143.17,274s63.32,352.91,63.32,352.91l192.86,47.51Z"/>
    <path class="cls-26" d="m816.16,303.67c0,38.61,1.04,73.13,2.9,103.97,12.41,208.14,60.42,248.94,60.42,248.94l192.84,47.53s9.31-48.89,13.08-124.57c6.93-138.75-4.69-367.51-126.08-549.86,0,0-143.17-25.12-143.17,273.99"/>
    <path class="cls-24" d="m819.05,407.64c12.41,208.14,60.42,248.94,60.42,248.94l192.85,47.53s9.31-48.9,13.08-124.57c-22.59-7.16-55.53-34.55-58.21-132.6,0,0-55.73,52.74-61.69-55.17,0,0-43.95,67.8-50.19-11.49-3.52-44.67-52.84-11.36-96.26,27.36"/>
    <g class="cls-7">
      <path class="cls-9" d="m862.12,84.53c37.44-36.54,76.76-29.64,76.76-29.64,157.04,235.83,140.92,551.91,128.06,647.89l5.37,1.33s74.61-392.67-112.99-674.43c0,0-55.34-9.69-97.21,54.85"/>
    </g>
    <path class="cls-29" d="m1072.32,719.05c-1.19,0-2.39-.14-3.57-.43l-192.86-47.51c-2.25-.55-4.34-1.62-6.1-3.12-7.02-5.96-68.6-66.85-68.6-364.31,0-130.06,26.38-218.18,78.42-261.91,40.16-33.75,80.58-27.12,82.28-26.82,4.03.71,7.59,3.03,9.85,6.44,98.86,148.46,124.91,326.99,129.36,450.62,4.8,133.53-13.33,230.81-14.11,234.88-.77,4.03-3.16,7.57-6.61,9.79-2.43,1.56-5.24,2.37-8.07,2.37Zm-184.84-75.89l172.66,42.53c10.95-74.55,47.24-400.23-109.26-641.62-9.93.03-31.07,2.62-52.8,21.24-30.56,26.19-67,88.8-67,238.36,0,253.26,46.21,326.45,56.4,339.49Z"/>
    <path class="cls-29" d="m990.46,228.03c-6.88,26.16-12.94,52.55-18.55,79.05-5.62,26.49-10.65,53.13-15.17,79.87-4.58,26.73-8.52,53.6-11.83,80.58-3.5,26.96-5.82,54.09-7.89,81.29l22.26.73c.2-26.81.64-53.69,2.27-80.55,1.44-26.87,3.51-53.74,6.23-80.57,2.67-26.84,5.84-53.65,9.62-80.39,3.77-26.75,8-53.44,13.07-80.01"/>
    <path class="cls-29" d="m1037.11,384.72c-5.2,23.22-10.07,46.52-14.78,69.86-4.69,23.35-9.17,46.75-13.3,70.25-4.14,23.5-8.05,47.06-11.3,70.81-3.24,23.78-6.15,47.62-7.48,72.11h29.7c-1.17-23.03-.78-46.63-.03-70.19.75-23.59,2.19-47.25,3.85-70.91,1.66-23.66,3.68-47.33,5.91-70.99,2.25-23.66,4.67-47.31,7.44-70.94"/>
    <path class="cls-29" d="m1028.1,193.28c-3.53,28.19-6.82,56.31-9.82,84.51-1.5,14.09-2.91,28.2-4.18,42.32-1.24,14.12-2.42,28.25-3.03,42.39,2.46-13.93,5.47-27.74,8.54-41.53,3.09-13.79,6.32-27.54,9.65-41.27,6.64-27.46,13.57-54.89,20.71-82.16l-21.86-4.24Z"/>
    <path class="cls-26" d="m749.2,549.16c-5.7-247.56-53.31-519.47-53.31-519.47,0,0,54.56-14.73,131.71-14.73s131.71,14.73,131.71,14.73c0,0-47.62,271.92-53.32,519.47h-156.79Z"/>
    <path class="cls-26" d="m695.9,29.7s31.48,179.67,46.32,379.92c3.4,46.06,5.91,93.23,6.98,139.55h156.81c1.03-45.95,3.55-92.73,6.9-138.48,14.8-200.68,46.4-380.99,46.4-380.99,0,0-54.56-14.76-131.71-14.76s-131.7,14.76-131.7,14.76"/>
    <path class="cls-24" d="m742.22,409.62c3.4,46.06,5.91,93.23,6.98,139.55h156.81c1.03-45.95,3.55-92.73,6.9-138.48-20.29,9.76-52.42,16.93-65.2-25.97,0,0-25.83,46.44-56.51,0,0,0-18.35,52.39-48.99,24.9"/>
    <g class="cls-7">
      <path class="cls-9" d="m695.9,29.7s1.91,10.98,5.04,30.5c15.19-3.54,63.3-13.46,126.67-13.46s111.49,9.92,126.67,13.46c3.13-19.52,5.04-30.5,5.04-30.5,0,0-54.56-14.76-131.71-14.76s-131.7,14.76-131.7,14.76"/>
    </g>
    <path class="cls-29" d="m906,564.11h-156.79c-8.12,0-14.75-6.49-14.94-14.61-5.6-243.54-52.62-514.53-53.09-517.24-1.33-7.62,3.36-15,10.83-17.02,2.31-.62,57.37-15.25,135.6-15.25s133.3,14.62,135.61,15.25c7.47,2.02,12.16,9.4,10.83,17.02-.47,2.71-47.49,273.7-53.1,517.24-.19,8.12-6.82,14.61-14.94,14.61Zm-142.24-29.91h127.68c6.19-209.96,41.31-435.42,50.8-493.08-20.26-4.17-62.26-11.22-114.64-11.22s-94.37,7.05-114.63,11.22c9.48,57.66,44.61,283.12,50.79,493.08Z"/>
    <path class="cls-29" d="m854.26,506.78c-.7-29.48-.49-59.44.04-89.21.57-29.81,1.54-59.64,2.93-89.47,1.47-29.81,3.11-59.65,5.37-89.44,2.1-29.81,4.78-59.58,7.62-89.35-4.68,29.53-9.21,59.11-13.16,88.77-4.11,29.65-7.6,59.38-10.93,89.16-3.25,29.78-6.08,59.61-8.51,89.5-2.39,29.94-4.47,59.74-5.63,90.03h22.27Z"/>
    <path class="cls-29" d="m806.54,496.96c-1.49-24.49-3.28-48.77-5.22-73.11-1.94-24.32-4.03-48.62-6.31-72.9-4.52-48.56-9.74-97.04-15.65-145.4,2.21,48.67,3.72,97.35,4.53,146.01.43,24.33.66,48.66.74,72.98.07,24.3.01,48.67-.36,72.86l22.27-.44Z"/>
    <path class="cls-28" d="m1078.53,686.7c-6.12-50.86-94.85-183.19-147.4-201.02-77.06,0-82.16,218.42-82.16,218.42,0,0,237.11,45.34,229.55-17.39"/>
    <path class="cls-12" d="m852.78,704.82c25.78,4.65,174.68,30,215.53,2.5-25.91-60.55-93.85-153.06-137.18-167.8-52.31,0-71.45,100.62-78.35,165.3"/>
    <path class="cls-18" d="m852.78,704.82c25.78,4.65,174.68,30,215.53,2.5-25.91-60.55-93.85-153.06-137.18-167.8-52.31,0-71.45,100.62-78.35,165.3"/>
    <path class="cls-29" d="m995.11,734.92c-59.92,0-129.13-12.35-148.94-16.14-7.17-1.37-12.31-7.73-12.14-15.04.56-23.85,8.01-233.02,97.1-233.02,1.63,0,3.25.27,4.8.79,60.4,20.5,150.96,159.66,157.43,213.39h0c1.42,11.78-2.42,22.29-11.09,30.39-15.83,14.79-49.68,19.62-87.16,19.62Zm-130.72-43.21c73.64,12.89,176.58,21.26,197.49,1.73,1.66-1.55,2.08-2.71,1.81-4.95h0c-5.57-46.3-89.79-169.07-134.94-187.74-42.6,4.26-60.99,122.43-64.36,190.96Z"/>
    <path class="cls-28" d="m723.78,692.9h207.35v-207.22s-45.79-11.37-103.68-11.37-103.68,11.37-103.68,11.37v207.22Z"/>
    <g class="cls-3">
      <path class="cls-9" d="m723.78,485.67v25.92s45.79-11.34,103.69-11.34,103.66,11.34,103.66,11.34v-25.92s-45.79-11.34-103.66-11.34-103.69,11.34-103.69,11.34"/>
    </g>
    <path class="cls-29" d="m931.13,707.86h-207.35c-8.25,0-14.94-6.7-14.94-14.95v-207.22c0-6.87,4.68-12.86,11.34-14.51,1.94-.48,48.25-11.81,107.28-11.81s105.33,11.33,107.28,11.81c6.66,1.65,11.34,7.64,11.34,14.51v207.22c0,8.26-6.69,14.95-14.94,14.95Zm-192.41-29.91h177.46v-180.15c-16.69-3.22-50.07-8.53-88.73-8.53s-72.08,5.3-88.73,8.52v180.16Z"/>
    <path class="cls-9" d="m827.43,656.6v.07s.07-.03.07-.03c-.04-.04-.07-.04-.07-.04"/>
    <path class="cls-9" d="m827.51,656.63s.07,0,.11.03v-.07s-.03,0-.11.04"/>
    <path class="cls-12" d="m230.66,1529.45c136.34,167.43,366.53,190.84,366.53,190.84-72.28-128.44-36.5-273.04-36.5-273.04,0,0-109.02-21.35-146.57-91.24-34.99-65.21-39.42-238.87-11.1-280.82,90.58-43.17,266.98-97.18,424.43-97.26h.29c157.45.07,333.85,54.08,424.43,97.26,28.32,41.95,23.92,215.61-11.1,280.82-37.54,69.89-146.53,91.24-146.53,91.24,0,0,35.74,144.6-36.54,273.04,0,0,230.19-23.4,366.53-190.84,0,0-61.86-153.64,24.68-287.05,0-344.77-150.5-488.62-243.6-554.66-170.02-117.67-369.27-131.79-377.88-132.32-.07-.04-.15-.04-.18-.04-.04,0-.07,0-.11.04-8.61.54-207.86,14.65-377.88,132.32-93.1,66.04-243.59,209.89-243.59,554.66,86.54,133.41,24.68,287.05,24.68,287.05"/>
    <path class="cls-12" d="m230.66,1529.45c136.34,167.43,366.53,190.84,366.53,190.84-72.28-128.44-36.5-273.04-36.5-273.04,0,0-109.02-21.35-146.57-91.24-34.99-65.21-39.42-238.87-11.1-280.82,90.58-43.17,266.98-97.18,424.43-97.26h.29c157.45.07,333.85,54.08,424.43,97.26,28.32,41.95,23.92,215.61-11.1,280.82-37.54,69.89-146.53,91.24-146.53,91.24,0,0,35.74,144.6-36.54,273.04,0,0,230.19-23.4,366.53-190.84,0,0-61.86-153.64,24.68-287.05,0-344.77-150.5-488.62-243.6-554.66-170.02-117.67-369.27-131.79-377.88-132.32-.07-.04-.15-.04-.18-.04-.04,0-.07,0-.11.04-8.61.54-207.86,14.65-377.88,132.32-93.1,66.04-243.59,209.89-243.59,554.66,86.54,133.41,24.68,287.05,24.68,287.05"/>
    <path class="cls-28" d="m230.66,1529.45c136.33,167.45,366.55,190.84,366.55,190.84-72.3-128.44-36.53-273.04-36.53-273.04,0,0-109.02-21.34-146.55-91.25-22.56-42.03-32.42-129.12-28.97-196.95,1.86-37.41,7.81-68.96,17.87-83.86,90.56-43.17,266.96-97.17,424.42-97.24h.3c157.45.07,333.86,54.07,424.42,97.24,10.06,14.87,15.99,46.36,17.87,83.68,3.48,67.86-6.38,155.08-28.97,197.14-37.54,69.91-146.52,91.25-146.52,91.25,0,0,35.75,144.61-36.52,273.04,0,0,230.18-23.39,366.51-190.84,0,0-61.85-153.65,24.67-287.06,0-20.3-.52-39.92-1.53-58.85-4.07-77.26-16.15-143.34-33.33-199.94-50.07-165.07-143.49-249.56-208.73-295.85-170.02-117.67-369.28-131.79-377.87-132.31-.07-.03-.13-.03-.2-.03-.03,0-.07,0-.1.03-8.59.52-207.85,14.64-377.87,132.31-65.4,46.39-159.15,131.2-209.12,297.09-16.99,56.44-28.94,122.28-32.97,199.23-.98,18.77-1.5,38.19-1.5,58.33,86.53,133.41,24.67,287.06,24.67,287.06"/>
    <path class="cls-31" d="m207.49,1184.06c48.18-7.35,109.77-16.3,177.67-25.02,1.86-37.41,7.81-68.97,17.87-83.87,90.56-43.17,266.97-97.17,424.42-97.24h.29c157.46.06,333.86,54.07,424.42,97.24,10.06,14.87,15.98,46.36,17.87,83.67,67.58,8.59,129.11,17.41,177.64,24.69-4.07-77.26-16.15-143.33-33.33-199.94-148.38-58.14-387.02-137.22-587.25-137.22s-440.11,80.22-586.63,138.46c-16.99,56.44-28.94,122.29-32.97,199.23"/>
    <g class="cls-7">
      <path class="cls-9" d="m205.99,1242.39c.16.23.29.45.42.68,8.99-321.81,153-458.77,243.17-522.73,170.02-117.67,369.28-131.79,377.87-132.31.03-.03.06-.03.1-.03.07,0,.13,0,.2.03,8.59.52,207.85,14.64,377.87,132.31,90.17,63.96,234.18,200.93,243.17,522.73.13-.23.26-.46.42-.68,0-344.75-150.49-488.6-243.59-554.65-170.02-117.67-369.28-131.79-377.87-132.31-.07-.03-.13-.03-.2-.03-.03,0-.06,0-.1.03-8.6.52-207.85,14.64-377.87,132.31-93.1,66.04-243.6,209.9-243.6,554.65"/>
    </g>
    <path class="cls-29" d="m597.19,1735.24c-.5,0-1.01-.02-1.51-.08-9.65-.98-237.95-25.99-376.6-196.26-3.44-4.22-4.31-9.98-2.28-15.03.91-2.31,57.54-148.63-23.35-273.32-1.57-2.42-2.41-5.25-2.41-8.14,0-258.52,84.08-449.23,249.9-566.85,170.39-117.93,368.12-133.85,384.74-134.99,1.21-.15,2.43-.16,3.67-.01,15.39,1.04,213.91,16.66,384.77,134.91,165.96,117.72,250.04,308.44,250.04,566.95,0,2.89-.84,5.72-2.41,8.14-81.13,125.06-23.94,271.87-23.35,273.34,2.02,5.05,1.15,10.8-2.28,15.02-138.66,170.28-366.96,195.28-376.61,196.26-5.55.57-10.96-2.01-14.01-6.69-3.06-4.67-3.26-10.66-.52-15.53,68.38-121.51,35.39-260.74,35.05-262.13-.97-3.97-.28-8.17,1.92-11.62,2.2-3.44,5.71-5.85,9.72-6.63,1.01-.2,102.55-20.92,136.24-83.65,32.3-60.14,36.11-220.2,13.8-262.14-97.4-45.54-266.78-93.83-413.98-93.9-147.47.07-316.86,48.35-414.25,93.9-22.29,41.92-18.48,201.97,13.81,262.15,33.69,62.72,135.26,83.44,136.28,83.64,4.01.79,7.53,3.2,9.72,6.65,2.19,3.45,2.88,7.65,1.9,11.62-.34,1.38-33.36,140.6,35.01,262.11,2.74,4.87,2.54,10.85-.52,15.53-2.78,4.25-7.5,6.76-12.5,6.76Zm-349.55-208.74c103.22,121.56,259.69,162.41,323.02,174.45-45.94-101.42-34.15-204.8-27.48-242.54-32.55-8.79-110-35.36-142.22-95.32-36.56-68.14-42.83-248.11-10.32-296.27,1.49-2.21,3.55-3.98,5.96-5.13,99.64-47.49,276.96-98.63,430.85-98.71,154.19.07,331.52,51.22,431.16,98.71,2.41,1.15,4.46,2.92,5.96,5.13,32.53,48.19,26.26,228.16-10.32,296.26-32.21,59.97-109.64,86.53-142.18,95.32,6.66,37.75,18.43,141.13-27.52,242.54,63.33-12.04,219.79-52.89,323.02-174.45-11.9-34.86-49.06-167.72,26.71-288.45-.93-246.04-80.75-427.07-237.29-538.1-163.59-113.22-353.6-128.46-369.38-129.55-15.78,1.08-205.79,16.33-369.52,129.65-156.39,110.94-236.21,291.96-237.14,538,75.77,120.73,38.61,253.59,26.71,288.45Z"/>
    <g class="cls-7">
      <path class="cls-9" d="m1246.99,1426.03c12.69,35.88,32.94,102.74,35.48,169.53,27.83-15.16,55.31-33.48,80.21-55.6-2.21-46.82-33.76-158.08-65.23-193.21-3.97,12.29-8.46,23.23-13.34,32.34-9.77,18.22-22.69,33.73-37.11,46.94"/>
    </g>
    <g class="cls-7">
      <path class="cls-9" d="m1137.19,1653.43c25.85-7.58,57.88-17.83,91.77-32.17-1.63-42.85-6.41-118.81-20.48-166.73-20.51,12.36-41.31,21.34-59.02,27.65,4.3,40.76,5.7,103.75-12.27,171.25"/>
    </g>
    <path class="cls-12" d="m1245.93,1485.04c-23.94,16.36-34.77,42.17-24.18,57.64,10.59,15.47,38.58,14.75,62.52-1.61,23.94-16.36,34.76-42.17,24.18-57.64-10.59-15.47-38.58-14.75-62.52,1.61"/>
    <path class="cls-29" d="m1246.81,1563.16c-13.82,0-25.76-5.09-32.71-15.24-5.12-7.48-6.83-16.78-4.94-26.87,2.98-15.89,14.77-32.21,31.54-43.67h0c28.59-19.54,61.71-19.19,75.4.81,5.12,7.49,6.83,16.78,4.94,26.87-2.98,15.89-14.77,32.21-31.53,43.67-14.09,9.63-29.27,14.43-42.69,14.43Zm36.82-81.55c-9.78,0-21.79,3.79-32.47,11.1h0c-12.6,8.61-21.71,20.78-23.77,31.77-.67,3.59-.87,8.75,2.02,12.97,7.43,10.86,30.62,8.98,49.65-4.03,12.6-8.61,21.71-20.79,23.77-31.78.67-3.59.87-8.75-2.01-12.97-3.25-4.76-9.54-7.07-17.17-7.07Zm-37.7,3.44h.05-.05Z"/>
    <g class="cls-7">
      <path class="cls-9" d="m406.65,1426.03c-12.69,35.88-32.94,102.74-35.48,169.53-27.83-15.16-55.3-33.48-80.21-55.6,2.21-46.82,33.76-158.08,65.23-193.21,3.98,12.29,8.46,23.23,13.35,32.34,9.77,18.22,22.69,33.73,37.11,46.94"/>
    </g>
    <g class="cls-7">
      <path class="cls-9" d="m516.45,1653.43c-25.85-7.58-57.88-17.83-91.77-32.17,1.63-42.85,6.41-118.81,20.48-166.73,20.5,12.36,41.31,21.34,59.02,27.65-4.3,40.76-5.7,103.75,12.27,171.25"/>
    </g>
    <path class="cls-12" d="m407.72,1485.04c23.94,16.36,34.76,42.17,24.18,57.64-10.59,15.47-38.58,14.75-62.52-1.61-23.94-16.36-34.76-42.17-24.18-57.64,10.59-15.47,38.58-14.75,62.52,1.61"/>
    <path class="cls-29" d="m406.83,1563.16c-13.42,0-28.6-4.8-42.69-14.43-16.76-11.46-28.55-27.79-31.53-43.67-1.89-10.09-.19-19.38,4.94-26.87,13.68-19.99,46.81-20.34,75.4-.81h0c16.76,11.46,28.55,27.78,31.53,43.67,1.89,10.09.19,19.38-4.94,26.87-6.94,10.14-18.89,15.24-32.71,15.24Zm-36.81-81.55c-7.64,0-13.92,2.31-17.18,7.06-2.88,4.22-2.69,9.38-2.01,12.97,2.06,10.99,11.17,23.17,23.77,31.78,19.02,13,42.22,14.88,49.64,4.03,2.88-4.22,2.69-9.38,2.01-12.97-2.06-10.99-11.17-23.17-23.77-31.77h0c-10.68-7.3-22.69-11.1-32.47-11.1Z"/>
    <g class="cls-7">
      <path class="cls-9" d="m650.19,687.48l177.49-17.6h.13l177.49,17.6c-3.34,0-172.22-56.78-177.49-58.53-.03-.03-.05-.03-.08-.03,0,0-.03,0-.05.03-5.27,1.75-174.15,58.53-177.49,58.53"/>
    </g>
    <path class="cls-29" d="m1137.2,1662.7c-2.39,0-4.72-.92-6.47-2.64-2.4-2.34-3.35-5.79-2.49-9.02,17.56-66.05,16.22-127.75,12.01-167.88-.45-4.25,2.07-8.26,6.1-9.7,43.21-15.46,100.77-45.14,129.59-98.77,38.07-70.89,49.27-262.02,9.03-321.62l-6.03-8.93-9.73-4.64c-102.06-48.65-283.74-101.03-441.44-101.11h-1.36c-157.7.07-339.38,52.46-441.44,101.11l-9.74,4.64-6.03,8.93c-40.23,59.6-29.04,250.72,9.03,321.62,28.81,53.63,86.37,83.31,129.59,98.77,4.03,1.44,6.55,5.45,6.1,9.7-4.21,40.12-5.55,101.82,12.01,167.88.86,3.24-.09,6.69-2.49,9.02-2.4,2.34-5.86,3.21-9.08,2.26-73.59-21.6-180-59.61-254.08-139.99-2.11-2.29-2.93-5.48-2.19-8.5,9.79-39.91,39.57-161.36-30.15-280.42-.83-1.42-1.27-3.04-1.27-4.69,0-80.41,13.69-138.94,26.52-187.49,1.31-4.95,6.38-7.91,11.33-6.6,4.95,1.31,7.9,6.39,6.59,11.34-12.4,46.92-25.62,103.34-25.9,180.26,69.24,120.26,43.17,241.35,32.08,287.13,65.78,69.23,157.69,105.18,226.81,126.5-13.28-58.88-12.78-113.21-9.32-151.44-45.37-17.2-102.8-48.96-132.88-104.95-41.66-77.57-53.24-273.86-8.07-340.78l7.44-11.02c.93-1.37,2.2-2.47,3.69-3.18l12.02-5.73c103.88-49.51,288.83-102.84,449.41-102.91h1.37c160.59.07,345.53,53.39,449.41,102.91l12.01,5.73c1.49.71,2.77,1.81,3.69,3.18l7.44,11.02c45.17,66.92,33.59,263.22-8.06,340.78-30.08,55.99-87.51,87.75-132.87,104.95,3.45,38.24,3.96,92.58-9.32,151.44,69.12-21.32,161.03-57.27,226.81-126.5-11.09-45.78-37.17-166.87,32.08-287.13-.28-76.92-13.5-133.34-25.9-180.26-1.31-4.95,1.64-10.03,6.59-11.34,4.94-1.3,10.02,1.64,11.33,6.6,12.83,48.55,26.52,107.08,26.52,187.49,0,1.65-.44,3.27-1.27,4.69-69.72,119.06-39.94,240.51-30.15,280.42.74,3.02-.08,6.21-2.19,8.5-74.07,80.37-180.48,118.39-254.08,139.99-.86.25-1.74.38-2.61.38Z"/>
    <path class="cls-28" d="m210.27,973.14l2.88,142.51s379.32-91.85,614.46-91.85,614.45,91.85,614.45,91.85l2.88-142.51c-139.9-75.51-384-237.5-617.33-237.5s-477.43,162-617.34,237.5"/>
    <path class="cls-31" d="m210.25,973.15l2.9,142.52s379.34-91.87,614.47-91.87,614.44,91.87,614.44,91.87l2.9-142.52c-.2-.1-.39-.2-.59-.33l-2.31,120.14s-379.3-98.35-614.44-98.35-614.47,98.35-614.47,98.35l-2.31-120.14c-.2.13-.39.23-.59.33"/>
    <path class="cls-31" d="m210.25,973.15l1.6,78.47c140.14-75.77,383.31-223.62,615.77-223.62s475.6,147.86,615.74,223.62l1.6-78.47c-139.92-75.51-384.03-237.52-617.34-237.52s-477.45,162.01-617.36,237.52"/>
    <path class="cls-29" d="m213.15,1130.61c-3.27,0-6.48-1.07-9.12-3.11-3.59-2.77-5.73-7.01-5.82-11.54l-2.88-142.52c-.11-5.61,2.92-10.8,7.85-13.46,20.67-11.15,43.99-24.42,68.68-38.46,140.64-79.98,353.17-200.84,555.75-200.84s415.1,120.86,555.74,200.84c24.69,14.04,48.02,27.31,68.68,38.46,4.93,2.66,7.96,7.86,7.85,13.46l-2.89,142.52c-.09,4.53-2.23,8.78-5.82,11.54-3.59,2.77-8.24,3.75-12.64,2.69-3.78-.92-380.31-91.44-610.93-91.44s-607.16,90.52-610.94,91.44c-1.16.28-2.34.42-3.51.42Zm614.46-121.76c204.88,0,521.32,69.91,599.88,88.04l2.33-114.95c-18.85-10.32-39.52-22.07-61.23-34.41-146.15-83.11-346.31-196.93-540.97-196.93s-394.83,113.82-540.98,196.93c-21.72,12.35-42.38,24.1-61.23,34.41l2.32,114.94c78.56-18.12,395-88.03,599.89-88.03Z"/>
    <path class="cls-31" d="m827.6,735.63c-233.31,0-477.42,162.01-617.34,237.52,0,0-16.65,8.88-7.89,27.66,5.56,11.93,8.97,24.88,8.97,24.88,140.08-75.74,383.56-236.9,616.27-236.9h-.01c232.72,0,476.2,161.16,616.27,236.9,0,0,3.41-12.95,8.97-24.88,8.76-18.78-7.89-27.66-7.89-27.66-139.91-75.51-384.03-237.52-617.33-237.52h-.01Z"/>
    <g class="cls-7">
      <path class="cls-9" d="m201.89,999.63c3.03-5.92,8.4-8.78,8.4-8.78,139.91-75.51,384.03-237.52,617.33-237.52s477.42,162.01,617.33,237.52c0,0,5.37,2.86,8.4,8.78,7.55-17.96-8.4-26.48-8.4-26.48-139.91-75.51-384.03-237.52-617.33-237.52s-477.42,162.01-617.33,237.52c0,0-15.95,8.52-8.4,26.48"/>
    </g>
    <path class="cls-32" d="m202.38,1000.8c5.56,11.94,8.98,24.89,8.98,24.89,140.08-75.74,383.54-236.9,616.26-236.9,116.38,0,235.39,40.31,342.88,90.05,107.45,49.74,203.32,108.98,273.38,146.85,0,0,3.42-12.95,8.98-24.89,4.26-9.17,2.48-15.97-.45-20.53-5.31,11.61-8.53,23.85-8.53,23.85-70.05-37.87-165.92-97.08-273.38-146.85-107.49-49.78-226.5-90.05-342.88-90.05-232.72,0-476.18,161.17-616.26,236.9,0,0-3.22-12.23-8.53-23.85-2.96,4.55-4.72,11.35-.45,20.53"/>
    <path class="cls-29" d="m211.35,1038.15c-1.68,0-3.37-.34-4.95-1.03-3.5-1.52-6.12-4.56-7.09-8.25-.03-.12-3.22-12.08-8.21-22.79-10.09-21.63,2.44-38.12,13.32-43.92,20.65-11.14,44-24.42,68.73-38.48,140.41-79.84,352.59-200.5,554.47-200.5h.01c201.88,0,414.07,120.66,554.48,200.51,24.72,14.06,48.07,27.33,68.77,38.51,10.83,5.78,23.35,22.26,13.26,43.89-4.99,10.71-8.18,22.67-8.21,22.79-.98,3.69-3.59,6.74-7.09,8.25-3.51,1.52-7.51,1.34-10.87-.47-20.65-11.16-43.71-24.28-68.13-38.16-138.13-78.54-346.9-197.22-542.21-197.24-195.31,0-395.81,114-542.21,197.23-24.42,13.89-47.49,27-68.14,38.17-1.84,1-3.87,1.5-5.92,1.5Zm616.25-290.06c-195.29,0-395.77,114-542.16,197.25-24.85,14.13-48.32,27.47-69.26,38.78-6.14,3.65-3.42,9.5-2.52,11.42,1.89,4.06,3.55,8.2,4.93,11.99,16.93-9.35,35.3-19.79,54.5-30.71,140.41-79.83,352.62-200.47,554.5-200.49.03.01,0,0,.02,0h0c201.88,0,414.09,120.65,554.5,200.49,19.2,10.92,37.56,21.36,54.5,30.7,1.38-3.78,3.04-7.92,4.93-11.99.9-1.92,3.63-7.78-2.68-11.51-20.78-11.21-44.24-24.56-69.09-38.68-146.39-83.25-346.88-197.25-542.17-197.25h-.01Z"/>
    <path class="cls-27" d="m794.68,912.64c0,18.18,14.75,32.91,32.94,32.91s32.93-14.73,32.93-32.91-14.74-32.92-32.93-32.92-32.94,14.74-32.94,32.92"/>
    <path class="cls-29" d="m827.62,954.82c-23.27,0-42.21-18.92-42.21-42.19s18.93-42.19,42.21-42.19,42.2,18.93,42.2,42.19-18.93,42.19-42.2,42.19Zm0-65.83c-13.05,0-23.67,10.61-23.67,23.64s10.62,23.64,23.67,23.64,23.66-10.6,23.66-23.64-10.62-23.64-23.66-23.64Z"/>
    <path class="cls-27" d="m1017.66,941.99c0,15.3,12.41,27.71,27.72,27.71s27.72-12.41,27.72-27.71-12.41-27.7-27.72-27.7-27.72,12.41-27.72,27.7"/>
    <path class="cls-29" d="m1045.38,978.97c-20.4,0-36.99-16.59-36.99-36.98s16.6-36.98,36.99-36.98,36.99,16.59,36.99,36.98-16.59,36.98-36.99,36.98Zm0-55.41c-10.18,0-18.46,8.27-18.46,18.43s8.28,18.43,18.46,18.43,18.45-8.27,18.45-18.43-8.28-18.43-18.45-18.43Z"/>
    <path class="cls-27" d="m1208.08,998.98c0,12.42,10.08,22.5,22.51,22.5s22.51-10.07,22.51-22.5-10.08-22.5-22.51-22.5-22.51,10.07-22.51,22.5"/>
    <path class="cls-29" d="m1230.59,1030.75c-17.52,0-31.78-14.25-31.78-31.77s14.26-31.77,31.78-31.77,31.78,14.25,31.78,31.77-14.26,31.77-31.78,31.77Zm0-44.99c-7.3,0-13.24,5.93-13.24,13.22s5.94,13.22,13.24,13.22,13.24-5.93,13.24-13.22-5.94-13.22-13.24-13.22Z"/>
    <path class="cls-27" d="m1375.71,1054.35c0,9.55,7.74,17.29,17.3,17.29s17.3-7.74,17.3-17.29-7.74-17.29-17.3-17.29-17.3,7.74-17.3,17.29"/>
    <path class="cls-29" d="m1393.01,1078.59c-13.37,0-24.25-10.87-24.25-24.24s10.88-24.24,24.25-24.24,24.25,10.88,24.25,24.24-10.88,24.24-24.25,24.24Zm0-34.57c-5.71,0-10.35,4.63-10.35,10.33s4.64,10.33,10.35,10.33,10.35-4.63,10.35-10.33-4.64-10.33-10.35-10.33Z"/>
    <path class="cls-27" d="m860.55,912.64c0,18.18-14.74,32.91-32.93,32.91s-32.94-14.73-32.94-32.91,14.75-32.92,32.94-32.92,32.93,14.74,32.93,32.92"/>
    <path class="cls-29" d="m827.62,954.82c-23.27,0-42.21-18.92-42.21-42.19s18.93-42.19,42.21-42.19,42.2,18.93,42.2,42.19-18.93,42.19-42.2,42.19Zm0-65.83c-13.05,0-23.67,10.61-23.67,23.64s10.62,23.64,23.67,23.64,23.66-10.6,23.66-23.64-10.62-23.64-23.66-23.64Z"/>
    <path class="cls-27" d="m637.58,941.99c0,15.3-12.41,27.71-27.72,27.71s-27.72-12.41-27.72-27.71,12.41-27.7,27.72-27.7,27.72,12.41,27.72,27.7"/>
    <path class="cls-29" d="m609.85,978.97c-20.4,0-36.99-16.59-36.99-36.98s16.59-36.98,36.99-36.98,36.99,16.59,36.99,36.98-16.6,36.98-36.99,36.98Zm0-55.41c-10.17,0-18.45,8.27-18.45,18.43s8.28,18.43,18.45,18.43,18.46-8.27,18.46-18.43-8.28-18.43-18.46-18.43Z"/>
    <path class="cls-27" d="m447.16,998.98c0,12.42-10.08,22.5-22.51,22.5s-22.51-10.07-22.51-22.5,10.08-22.5,22.51-22.5,22.51,10.07,22.51,22.5"/>
    <path class="cls-29" d="m424.65,1030.75c-17.52,0-31.78-14.25-31.78-31.77s14.26-31.77,31.78-31.77,31.78,14.25,31.78,31.77-14.26,31.77-31.78,31.77Zm0-44.99c-7.3,0-13.24,5.93-13.24,13.22s5.94,13.22,13.24,13.22,13.24-5.93,13.24-13.22-5.94-13.22-13.24-13.22Z"/>
    <path class="cls-27" d="m279.52,1054.35c0,9.55-7.74,17.29-17.3,17.29s-17.3-7.74-17.3-17.29,7.75-17.29,17.3-17.29,17.3,7.74,17.3,17.29"/>
    <path class="cls-29" d="m262.22,1078.59c-13.37,0-24.25-10.87-24.25-24.24s10.88-24.24,24.25-24.24,24.25,10.88,24.25,24.24-10.88,24.24-24.25,24.24Zm0-34.57c-5.71,0-10.35,4.63-10.35,10.33s4.64,10.33,10.35,10.33,10.35-4.63,10.35-10.33-4.64-10.33-10.35-10.33Z"/>
    <path class="cls-9" d="m606.06,2172.43s-136.25-10.38-193.61,30.88c-60.95,43.85.46,94.59.46,94.59,0,0,109.74-23.94,201.89-20.53l-8.74-104.95Z"/>
    <path class="cls-17" d="m412.9,2297.92s109.77-23.95,201.9-20.53l-3.3-39.87c-64.05-1.95-135.84,8.95-173.07,15.65-19.8,3.56-39.87-6.4-48.1-24.74-.08-.18-.16-.36-.24-.53-18.04,36.25,22.81,70.03,22.81,70.03"/>
    <path class="cls-9" d="m1048.12,2172.43s136.25-10.38,193.6,30.88c60.95,43.85-.46,94.59-.46,94.59,0,0-109.74-23.94-201.89-20.53l8.74-104.95Z"/>
    <path class="cls-17" d="m1236.03,2297.92s-109.77-23.95-201.9-20.53l3.31-39.87c64.04-1.95,135.83,8.95,173.07,15.65,19.8,3.56,39.87-6.4,48.1-24.74.08-.18.16-.36.24-.53,18.03,36.25-22.81,70.03-22.81,70.03"/>
    <path class="cls-11" d="m408.99,2314.07l-5.6-4.63c-1.39-1.15-34.02-28.53-32.82-64.25.69-20.5,11.84-38.67,33.16-54.01,61.07-43.95,197.68-34.09,203.47-33.65l12.7.97,11.19,134.46-16.84-.62c-89.23-3.29-197.07,19.96-198.15,20.19l-7.1,1.55Zm158.98-127.83c-42.86,0-112.06,4.23-146.79,29.22-13.36,9.61-20.34,19.92-20.73,30.63-.51,13.82,9.68,27.77,17.07,35.59,25.11-5.05,105.63-19.72,181.01-19.58l-6.28-75.41c-6.29-.24-14.62-.46-24.28-.46Z"/>
    <path class="cls-11" d="m1245.18,2314.07l-7.1-1.55c-1.08-.24-109.02-23.5-198.15-20.19l-16.85.62,11.2-134.46,12.7-.97c5.78-.44,142.39-10.3,203.46,33.65,21.32,15.34,32.47,33.51,33.16,54.01,1.19,35.72-31.43,63.11-32.82,64.25l-5.6,4.63Zm-187.03-51.98c74.65,0,153.67,14.6,178.51,19.59,7.37-7.8,17.58-21.76,17.07-35.59-.4-10.71-7.37-21.02-20.73-30.63-42.56-30.62-136.88-30.08-171.07-28.77l-6.28,75.41c.84,0,1.67,0,2.51,0Z"/>
    <path class="cls-9" d="m597.25,2131.86v193.89c0,35.98,28.37,65.42,63,65.42h344.03c34.67,0,62.99-29.44,62.99-65.42v-193.89c0-35.94-28.32-65.38-62.99-65.38h-344.03c-27.67,0-51.35,18.79-59.74,44.7-2.09,6.5-3.25,13.45-3.25,20.68"/>
    <path class="cls-17" d="m597.25,2131.86v193.89c0,35.98,28.37,65.42,63,65.42h344.03c34.67,0,62.99-29.44,62.99-65.42v-65.26c-59.35,34.1-176.95,85.3-294.96,43.05-57.65-20.66-123.76-91.44-123.76-91.44,0,0-2.54,74.27-13.16,73.1-29.52-3.26-29.3-153.53-34.88-174.02-2.09,6.5-3.25,13.45-3.25,20.68"/>
    <path class="cls-11" d="m1010.75,2406.1h-356.95c-39.42,0-71.48-32.05-71.48-71.45v-211.66c0-39.4,32.07-71.46,71.48-71.46h356.95c39.42,0,71.48,32.06,71.48,71.46v211.66c0,39.4-32.07,71.45-71.48,71.45Zm-356.95-324.67c-22.93,0-41.59,18.64-41.59,41.55v211.66c0,22.91,18.66,41.55,41.59,41.55h356.95c22.93,0,41.59-18.64,41.59-41.55v-211.66c0-22.91-18.66-41.55-41.59-41.55h-356.95Z"/>
    <path class="cls-21" d="m656.06,2228.82c0,31.14,24.32,56.38,54.33,56.38s54.32-25.24,54.32-56.38-24.32-56.38-54.32-56.38-54.33,25.24-54.33,56.38"/>
    <path class="cls-9" d="m656.05,2228.83c0,3.84.36,7.57,1.07,11.19,5.02-25.82,26.98-45.25,53.28-45.25s48.26,19.43,53.24,45.25c.71-3.62,1.07-7.35,1.07-11.19,0-31.14-24.31-56.41-54.31-56.41s-54.35,25.27-54.35,56.41"/>
    <path class="cls-30" d="m656.06,2228.8c0,31.16,24.34,56.38,54.33,56.38s54.32-25.22,54.32-56.38c0-5.22-.7-10.32-1.97-15.1-6.38,23.77-27.43,41.24-52.35,41.24s-45.97-17.47-52.35-41.24c-1.28,4.78-1.97,9.88-1.97,15.1"/>
    <path class="cls-11" d="m710.39,2297.66c-36.82,0-66.78-30.88-66.78-68.84s29.96-68.84,66.78-68.84,66.78,30.88,66.78,68.84-29.96,68.84-66.78,68.84Zm0-112.77c-23.09,0-41.88,19.7-41.88,43.92s18.79,43.92,41.88,43.92,41.87-19.7,41.87-43.92-18.78-43.92-41.87-43.92Z"/>
    <path class="cls-11" d="m882.34,2406.1c-8.25,0-14.94-6.7-14.94-14.95v-99.24c0-29,13.38-56.76,35.78-74.27l8.73-6.82c15.21-11.88,24.29-30.83,24.29-50.69v-93.64c0-8.26,6.69-14.95,14.94-14.95s14.94,6.7,14.94,14.95v93.64c0,29-13.38,56.77-35.78,74.27l-8.73,6.82c-15.21,11.88-24.29,30.84-24.29,50.7v99.24c0,8.26-6.69,14.95-14.94,14.95Z"/>
    <path class="cls-29" d="m133.12,2085.71l-24.81-12.57c24.52-48.44,65.23-77.22,117.72-83.23,81.54-9.34,170.27,37.66,200.41,73.71l-21.33,17.85c-26.16-31.28-107.71-71.75-175.92-63.92-43.37,4.96-75.69,27.89-96.07,68.16Z"/>
    <path class="cls-13" d="m744.65,1915.77c0,45.74,37.1,82.82,82.87,82.82s82.87-37.08,82.87-82.82-37.1-82.81-82.87-82.81-82.87,37.08-82.87,82.81"/>
    <path class="cls-25" d="m744.66,1915.76c0,45.76,37.09,82.82,82.87,82.82s82.87-37.06,82.87-82.82c0-3.11-.16-6.18-.51-9.17-4.57,41.43-39.72,73.65-82.36,73.65s-77.79-32.22-82.35-73.65c-.36,2.99-.52,6.06-.52,9.17"/>
    <path class="cls-9" d="m744.66,1915.76c0,2.79.12,5.51.43,8.22,4.25-41.74,39.53-74.36,82.44-74.36s78.19,32.62,82.44,74.36c.32-2.72.43-5.43.43-8.22,0-45.71-37.12-82.82-82.87-82.82s-82.87,37.1-82.87,82.82"/>
    <path class="cls-25" d="m771.07,1907.37c0,26.52,25.27,48.01,56.45,48.01s56.45-21.5,56.45-48.01-25.27-48.01-56.45-48.01-56.45,21.5-56.45,48.01"/>
    <path class="cls-29" d="m827.52,2012.5c-53.36,0-96.77-43.39-96.77-96.73s43.41-96.73,96.77-96.73,96.77,43.39,96.77,96.73-43.41,96.73-96.77,96.73Zm0-165.63c-38.03,0-68.97,30.91-68.97,68.9s30.94,68.91,68.97,68.91,68.96-30.91,68.96-68.91-30.94-68.9-68.96-68.9Z"/>
    <path class="cls-17" d="m790.38,1915.77c0,20.5,16.63,37.12,37.14,37.12s37.14-16.62,37.14-37.12-16.63-37.11-37.14-37.11-37.14,16.62-37.14,37.11"/>
    <path class="cls-29" d="m827.52,1962.86c-25.97,0-47.1-21.12-47.1-47.08s21.13-47.08,47.1-47.08,47.1,21.12,47.1,47.08-21.13,47.08-47.1,47.08Zm0-74.23c-14.99,0-27.18,12.18-27.18,27.14s12.19,27.14,27.18,27.14,27.18-12.18,27.18-27.14-12.19-27.14-27.18-27.14Z"/>
    <path class="cls-28" d="m876.49,2244.97c70.95,320.22,354.36,529.83,633,468.18,278.64-61.66,447.02-371.24,376.06-691.47-70.95-320.23-354.36-529.84-633-468.18-278.65,61.66-447.01,371.24-376.06,691.47"/>
    <g class="cls-5">
      <path class="cls-9" d="m924.26,1921.74c7.64-18.5,16.27-36.61,25.84-54.2,68.52-126.01,177.43-211.2,306.68-239.76,30.86-6.84,62.44-10.29,93.94-10.29,202.4,0,389,139.39,478.95,345.19-76.08-224.95-268.53-381.96-478.84-381.96-30.21,0-60.5,3.31-90.06,9.88-123.85,27.38-228.25,109-293.96,229.81-17.52,32.2-31.73,66.12-42.56,101.33"/>
    </g>
    <path class="cls-23" d="m900.58,2151.97c2.4,28.22,6.73,56.51,13,84.81,57.69,260.24,266.97,449.15,497.65,449.15,30.17,0,60.46-3.31,90.03-9.84,123.89-27.42,228.28-109.04,293.99-229.85,48.57-89.37,71.79-192.17,68.29-297.87-94.63,162.89-275.25,272.99-482.52,272.99s-385.2-108.47-480.43-269.39"/>
    <path class="cls-29" d="m1411.63,2738.81c-250.94,0-485.67-201.47-549.73-490.6h0c-35.09-158.4-14.35-319.31,58.4-453.08,73.13-134.46,189.98-225.45,329.03-256.23,286.25-63.32,578.2,151.78,650.82,479.54,35.1,158.4,14.36,319.31-58.4,453.08-73.13,134.46-189.98,225.46-329.03,256.23-33.74,7.46-67.56,11.06-101.09,11.06Zm-520.55-497.08c69.06,311.67,345.03,516.59,615.19,456.81,130.48-28.87,240.3-114.57,309.23-241.32,69.3-127.43,89-280.96,55.47-432.31-69.05-311.67-345.03-516.61-615.18-456.81-130.48,28.87-240.3,114.58-309.23,241.32-69.3,127.42-88.99,280.97-55.47,432.31h0Z"/>
    <path class="cls-23" d="m959.88,2226.52c60.75,274.19,300.99,454.2,536.6,402.07,235.6-52.14,377.34-316.67,316.59-590.87-60.75-274.19-300.99-454.19-536.59-402.06-235.6,52.13-377.35,316.67-316.6,590.86"/>
    <g class="cls-5">
      <path class="cls-9" d="m986.03,2028.56c10.26-36.23,24.21-71.07,41.85-103.96,60.47-112.79,156.7-188.85,270.98-214.15,26.92-5.94,54.53-8.97,82.05-8.97,103.92,0,203.28,41.93,284.23,113.14-80.06-94.35-190.17-152.36-306.56-152.36-24.93,0-49.96,2.74-74.4,8.15-103.67,22.92-190.92,91.9-245.73,194.22-27.03,50.43-44.62,105.95-52.42,163.93"/>
    </g>
    <path class="cls-34" d="m989.31,2191.63c1.57,9.07,3.34,18.15,5.34,27.19,49.18,222.01,225.72,383.17,419.74,383.17,24.93,0,49.96-2.74,74.4-8.15,181.06-40.08,301.61-219.31,302.67-426.16-59.51,131.58-167.31,230.2-304.78,260.63-28.74,6.33-58.16,9.57-87.5,9.57-162.68,0-314.89-96.34-409.87-246.25"/>
    <path class="cls-8" d="m1414.74,2652.48c-213.74,0-414.29-173.76-469.45-422.73-30.15-136.1-12.9-274.25,48.59-389,61.89-115.5,161.11-193.52,279.38-219.69,243.27-53.84,491.97,131.63,554.41,413.42,30.15,136.1,12.9,274.26-48.58,389.01-61.89,115.5-161.1,193.53-279.37,219.7-28.35,6.27-56.78,9.3-84.97,9.3Zm-440.27-429.2c58.87,265.71,291.58,440.97,518.78,390.7,109.63-24.26,201.78-96.93,259.49-204.63,58.11-108.45,74.35-239.28,45.74-368.4-58.87-265.7-291.59-440.96-518.77-390.69-109.63,24.26-201.78,96.93-259.49,204.62-58.11,108.45-74.36,239.28-45.75,368.4Z"/>
    <path class="cls-29" d="m1414.74,2652.48c-213.74,0-414.29-173.76-469.45-422.73-30.15-136.1-12.9-274.25,48.59-389,61.89-115.5,161.11-193.52,279.38-219.69,243.27-53.84,491.97,131.63,554.41,413.42,30.15,136.1,12.9,274.26-48.58,389.01-61.89,115.5-161.1,193.53-279.37,219.7-28.35,6.27-56.78,9.3-84.97,9.3Zm-440.27-429.2c58.87,265.71,291.58,440.97,518.78,390.7,109.63-24.26,201.78-96.93,259.49-204.63,58.11-108.45,74.35-239.28,45.74-368.4-58.87-265.7-291.59-440.96-518.77-390.69-109.63,24.26-201.78,96.93-259.49,204.62-58.11,108.45-74.36,239.28-45.75,368.4Z"/>
    <path class="cls-29" d="m1510.38,2628.9l-27.8-.63c.14-6.36,11.76-639.62-217.68-984.91l23.15-15.41c122.68,184.62,176.58,447.12,200.19,634.82,25.51,202.78,22.17,364.52,22.13,366.13Z"/>
    <path class="cls-29" d="m960.24,2241.47h-.36c-8.25,0-14.94-6.7-14.94-14.96,0-8.26,6.69-14.95,14.94-14.95.15-.08.26,0,.36,0,422.11,0,842.54-185.63,846.74-187.5,7.54-3.36,16.37.02,19.74,7.56,3.36,7.54-.02,16.38-7.55,19.75-4.25,1.9-430.32,190.1-858.93,190.1Z"/>
    <path class="cls-29" d="m1316.91,1978.47c-30.77,24.41-34.46,65.78-9.2,95.91,25.13,30.02,67.85,34.82,98.41,10.51,30.61-24.32,35.25-66.87,10.06-96.78-25.35-30.1-68.63-34.02-99.27-9.65m15.35,76.62c-12.66-15.01-10.89-39.15,4.05-52.07,15.49-13.37,42.13-11.29,55.39,4.46,12.69,15.1,10.55,39.3-4.47,52.14-15.61,13.45-41.67,11.21-54.97-4.53m-15.35-76.62c-30.77,24.41-34.46,65.78-9.2,95.91,25.13,30.02,67.85,34.82,98.41,10.51,30.61-24.32,35.25-66.87,10.06-96.78-25.35-30.1-68.63-34.02-99.27-9.65m15.35,76.62c-12.66-15.01-10.89-39.15,4.05-52.07,15.49-13.37,42.13-11.29,55.39,4.46,12.69,15.1,10.55,39.3-4.47,52.14-15.61,13.45-41.67,11.21-54.97-4.53m-15.35-76.62c-30.77,24.41-34.46,65.78-9.2,95.91,25.13,30.02,67.85,34.82,98.41,10.51,30.61-24.32,35.25-66.87,10.06-96.78-25.35-30.1-68.63-34.02-99.27-9.65m15.35,76.62c-12.66-15.01-10.89-39.15,4.05-52.07,15.49-13.37,42.13-11.29,55.39,4.46,12.69,15.1,10.55,39.3-4.47,52.14-15.61,13.45-41.67,11.21-54.97-4.53m-15.35-76.62c-30.77,24.41-34.46,65.78-9.2,95.91,25.13,30.02,67.85,34.82,98.41,10.51,30.61-24.32,35.25-66.87,10.06-96.78-25.35-30.1-68.63-34.02-99.27-9.65m15.35,76.62c-12.66-15.01-10.89-39.15,4.05-52.07,15.49-13.37,42.13-11.29,55.39,4.46,12.69,15.1,10.55,39.3-4.47,52.14-15.61,13.45-41.67,11.21-54.97-4.53m-15.35-76.62c-30.77,24.41-34.46,65.78-9.2,95.91,25.13,30.02,67.85,34.82,98.41,10.51,30.61-24.32,35.25-66.87,10.06-96.78-25.35-30.1-68.63-34.02-99.27-9.65m15.35,76.62c-12.66-15.01-10.89-39.15,4.05-52.07,15.49-13.37,42.13-11.29,55.39,4.46,12.69,15.1,10.55,39.3-4.47,52.14-15.61,13.45-41.67,11.21-54.97-4.53m-15.35-76.62c-30.77,24.41-34.46,65.78-9.2,95.91,25.13,30.02,67.85,34.82,98.41,10.51,30.61-24.32,35.25-66.87,10.06-96.78-25.35-30.1-68.63-34.02-99.27-9.65m15.35,76.62c-12.66-15.01-10.89-39.15,4.05-52.07,15.49-13.37,42.13-11.29,55.39,4.46,12.69,15.1,10.55,39.3-4.47,52.14-15.61,13.45-41.67,11.21-54.97-4.53m-15.27,168.89c-19.28,25.66-18.87,55.46-.68,82.52,16.31,24.28,34.62,47.37,51.76,71.03,9.16,12.65,19.41,11.89,30.81,2.57,15.1-12.39,30.48-24.43,45.93-36.39,13.99-10.88,26.45-27.98,47.08-13.27,3.55,2.54,10.09,1.06,13.29-3.06,15.81-20.35,26.12-6.17,37.5,5.18,16.12,16.04,34.3,28.86,54.4,38.3,17.67,8.31,27.47.45,25.37-20.29-2.66-26.91-10.35-52.29-21.86-76.07-2.42-4.97-5.89-14.97-5.78-15.09,30.25-13.77,12.16-62.04,47.3-72.26,4.96-1.46,9.06-6.79,13.48-10.3,57.53-45.87,55.68-33.5,11.9-92.65-8.66-11.73-16.76-24.2-26.5-35-21.86-24.24-49.92-31.47-79.41-18.93-15.28,6.5-19.87,3-27.99-9.03-62.38-92.37-157.9-153.96-270.94-158.54-49.8-2.02-51.21-1.24-57,45.38-13.51,108.26,36.24,207,107.65,284.68,9.8,10.69,14.85,16.31,3.69,31.22m253.84-137.75c-2.71-6.85-12.58-13.55-5.95-21.62,6.43-7.91,17.11-8.5,26.93-7.21,10.6,1.35,20.17,5.49,26.95,14.46,11.75,15.51,22.82,31.68,35.14,46.65,7.99,9.72,5.14,14.89-3.69,21.28-14.35,10.45-28.06,21.97-43.69,34.31-12.26-30.8-24.51-59.21-35.68-87.87m14.87,239.68c-34.24-22.4-65.7-66.4-75.1-106.21,34.68,21.75,66.74,66.01,75.1,106.21m-105.75-38.35c-63.14-40.86-116.92-88.11-167.56-145.07-54.51-61.29-82-145.88-74.92-226.76,1.67-19.61,9.83-23.65,29.38-22.39,43.99,2.85,100.92,17.32,136.48,43,95.45,68.94,145.38,160.72,178.55,274.53,1.87,6.42,3.2,13.14-4,17.48-8.55,5.21-11.06-3.95-15.05-7.71-15.93-14.85-32.96-28.52-52.47-38.27-10.19-5.12-21.01-15.52-33.15-5.55-10.94,8.95-4.75,21.44-2.64,32.25,4.28,21.8,12.44,42.4,21.7,62.5,2.53,5.51,11.73,11.39,2.86,19.18-7.57,6.61-13.42.55-19.18-3.18m-139.51-1.67c-7.03-15.12-6.74-29.97,2.27-44.32,4.44-7.01,8.7-10.91,16.97-3.43,25.64,23.36,53.77,43.51,82.55,64.59-55.89,49.28-55.37,48.75-96.18-8.9-1.85-2.64-4.27-5.07-5.62-7.95m-23.53-307.41c-30.77,24.41-34.46,65.78-9.2,95.91,25.13,30.02,67.85,34.82,98.41,10.51,30.61-24.32,35.25-66.87,10.06-96.78-25.35-30.1-68.63-34.02-99.27-9.65m15.35,76.62c-12.66-15.01-10.89-39.15,4.05-52.07,15.49-13.37,42.13-11.29,55.39,4.46,12.69,15.1,10.55,39.3-4.47,52.14-15.61,13.45-41.67,11.21-54.97-4.53m-15.35-76.62c-30.77,24.41-34.46,65.78-9.2,95.91,25.13,30.02,67.85,34.82,98.41,10.51,30.61-24.32,35.25-66.87,10.06-96.78-25.35-30.1-68.63-34.02-99.27-9.65m15.35,76.62c-12.66-15.01-10.89-39.15,4.05-52.07,15.49-13.37,42.13-11.29,55.39,4.46,12.69,15.1,10.55,39.3-4.47,52.14-15.61,13.45-41.67,11.21-54.97-4.53m-15.35-76.62c-30.77,24.41-34.46,65.78-9.2,95.91,25.13,30.02,67.85,34.82,98.41,10.51,30.61-24.32,35.25-66.87,10.06-96.78-25.35-30.1-68.63-34.02-99.27-9.65m15.35,76.62c-12.66-15.01-10.89-39.15,4.05-52.07,15.49-13.37,42.13-11.29,55.39,4.46,12.69,15.1,10.55,39.3-4.47,52.14-15.61,13.45-41.67,11.21-54.97-4.53m-15.35-76.62c-30.77,24.41-34.46,65.78-9.2,95.91,25.13,30.02,67.85,34.82,98.41,10.51,30.61-24.32,35.25-66.87,10.06-96.78-25.35-30.1-68.63-34.02-99.27-9.65m15.35,76.62c-12.66-15.01-10.89-39.15,4.05-52.07,15.49-13.37,42.13-11.29,55.39,4.46,12.69,15.1,10.55,39.3-4.47,52.14-15.61,13.45-41.67,11.21-54.97-4.53m-15.35-76.62c-30.77,24.41-34.46,65.78-9.2,95.91,25.13,30.02,67.85,34.82,98.41,10.51,30.61-24.32,35.25-66.87,10.06-96.78-25.35-30.1-68.63-34.02-99.27-9.65m15.35,76.62c-12.66-15.01-10.89-39.15,4.05-52.07,15.49-13.37,42.13-11.29,55.39,4.46,12.69,15.1,10.55,39.3-4.47,52.14-15.61,13.45-41.67,11.21-54.97-4.53m-15.35-76.62c-30.77,24.41-34.46,65.78-9.2,95.91,25.13,30.02,67.85,34.82,98.41,10.51,30.61-24.32,35.25-66.87,10.06-96.78-25.35-30.1-68.63-34.02-99.27-9.65m15.35,76.62c-12.66-15.01-10.89-39.15,4.05-52.07,15.49-13.37,42.13-11.29,55.39,4.46,12.69,15.1,10.55,39.3-4.47,52.14-15.61,13.45-41.67,11.21-54.97-4.53m-15.35-76.62c-30.77,24.41-34.46,65.78-9.2,95.91,25.13,30.02,67.85,34.82,98.41,10.51,30.61-24.32,35.25-66.87,10.06-96.78-25.35-30.1-68.63-34.02-99.27-9.65m15.35,76.62c-12.66-15.01-10.89-39.15,4.05-52.07,15.49-13.37,42.13-11.29,55.39,4.46,12.69,15.1,10.55,39.3-4.47,52.14-15.61,13.45-41.67,11.21-54.97-4.53"/>
    <path class="cls-26" d="m1585.69,2325.91c-8.36-40.2-40.42-84.46-75.1-106.21,9.4,39.81,40.85,83.81,75.1,106.21"/>
    <path class="cls-26" d="m1570.82,2086.23c11.17,28.67,23.42,57.07,35.68,87.87,15.63-12.35,29.34-23.86,43.69-34.31,8.83-6.39,11.68-11.57,3.69-21.28-12.31-14.96-23.39-31.14-35.13-46.65-6.77-8.96-16.34-13.1-26.95-14.46-9.82-1.28-20.49-.7-26.93,7.22-6.63,8.07,3.24,14.76,5.95,21.61"/>
    <path class="cls-9" d="m1237.47,1915.73c-7.09,80.89,20.41,165.47,74.92,226.76,50.64,56.97,104.42,104.22,167.56,145.08,5.76,3.74,11.61,9.79,19.18,3.18,8.87-7.79-.33-13.66-2.86-19.18-9.26-20.1-17.42-40.7-21.7-62.5-2.11-10.81-8.3-23.3,2.64-32.25,12.14-9.96,22.96.43,33.15,5.55,19.51,9.75,36.55,23.43,52.48,38.28,3.99,3.75,6.5,12.92,15.05,7.71,7.21-4.35,5.87-11.07,4-17.48-33.17-113.81-83.1-205.59-178.55-274.53-35.55-25.67-92.49-40.15-136.48-43-19.55-1.26-27.71,2.79-29.38,22.39m70.24,158.66c-25.26-30.13-21.57-71.5,9.2-95.91,30.63-24.38,73.92-20.46,99.27,9.65,25.2,29.91,20.55,72.46-10.06,96.78-30.56,24.31-73.28,19.51-98.41-10.51"/>
    <path class="cls-26" d="m1340.43,2285.89c1.35,2.88,3.76,5.31,5.62,7.95,40.81,57.65,40.29,58.17,96.18,8.89-28.78-21.08-56.91-41.23-82.55-64.59-8.27-7.48-12.53-3.59-16.97,3.43-9.02,14.35-9.31,29.2-2.27,44.32"/>
    <path class="cls-29" d="m1316.91,1978.47c-30.77,24.41-34.46,65.78-9.2,95.91,25.13,30.02,67.85,34.82,98.41,10.51,30.61-24.32,35.25-66.87,10.06-96.78-25.35-30.1-68.63-34.02-99.27-9.65m15.35,76.62c-12.66-15.01-10.89-39.15,4.05-52.07,15.49-13.37,42.13-11.29,55.39,4.46,12.69,15.1,10.55,39.3-4.47,52.14-15.61,13.45-41.67,11.21-54.97-4.53"/>
    <path class="cls-29" d="m1316.91,1978.47c-30.77,24.41-34.46,65.78-9.2,95.91,25.13,30.02,67.85,34.82,98.41,10.51,30.61-24.32,35.25-66.87,10.06-96.78-25.35-30.1-68.63-34.02-99.27-9.65m15.35,76.62c-12.66-15.01-10.89-39.15,4.05-52.07,15.49-13.37,42.13-11.29,55.39,4.46,12.69,15.1,10.55,39.3-4.47,52.14-15.61,13.45-41.67,11.21-54.97-4.53"/>
    <path class="cls-33" d="m1332.26,2055.1c13.3,15.74,39.37,17.98,54.97,4.53,15.01-12.84,17.15-37.04,4.47-52.14-13.26-15.75-39.9-17.82-55.39-4.46-14.94,12.92-16.72,37.06-4.05,52.07"/>
  </g>
</svg>