<?xml version="1.0" encoding="UTF-8"?>
<svg id="Layer_1" data-name="Layer 1" xmlns="http://www.w3.org/2000/svg" viewBox="0 0 1845.78 3154.85">
  <defs>
    <style>
      .cls-1 {
        fill: #0aa9ef;
      }

      .cls-2 {
        fill: #fff;
      }

      .cls-3 {
        fill: #111a28;
      }

      .cls-4 {
        fill: #fcd629;
      }

      .cls-5 {
        opacity: .35;
      }

      .cls-5, .cls-6, .cls-7, .cls-8, .cls-9 {
        fill: none;
      }

      .cls-6 {
        opacity: .4;
      }

      .cls-10 {
        fill: #ffda00;
      }

      .cls-11 {
        fill: #421861;
      }

      .cls-7 {
        opacity: .5;
      }

      .cls-12 {
        fill: #ec0411;
      }

      .cls-8 {
        opacity: .3;
      }

      .cls-13 {
        fill: #371a45;
      }

      .cls-9 {
        opacity: .25;
      }
    </style>
  </defs>
  <path class="cls-12" d="m374.65,1620.36c-88.9,114.34-88.56,556.27-119.76,883.74-18.8,197.26-103.93,336.43-71.84,384.24,68.81,102.51,255.05-28.7,600.79-28.7h-.13c345.74,0,501.04,135.59,569.85,33.07,29.28-43.62-32.52-147.94-41.53-320.22-17.27-330.02-27.94-818.62-146.29-970.55l-791.09,18.42Z"/>
  <g class="cls-7">
    <path class="cls-2" d="m1353.56,2892.71c-68.8,102.51-224.07-33.02-569.76-33.05-345.7,0-531.94,131.21-600.74,28.67-32.09-47.79,53.02-186.97,71.84-384.22,22.74-238.46,28.71-537.59,64.61-726.76-16.16,197.25-6.39,493.73-30.8,692.33-29.59,240.77-97.01,343.26-76.75,379.82,65.01,117.28,242.42-32.75,571.07-32.78,328.61,0,476.26,154.84,541.67,37.79,27.82-49.83-26.95-112.28-35.53-309.03-8.58-196.9-19.38-499.96-40.04-715.06,42.37,215.72,51.1,516.09,62.91,742.07,9,172.31,70.8,276.59,41.52,320.23Z"/>
  </g>
  <g class="cls-9">
    <path class="cls-13" d="m418.11,1691.63c-79.1,101.73-78.79,494.91-106.55,786.26-16.72,175.5-92.47,299.32-63.91,341.86,61.22,91.21,226.92-25.54,534.53-25.54h-.12c307.61,0,445.77,120.63,506.99,29.43,26.05-38.81-28.93-131.62-36.95-284.9-15.36-293.62-24.86-728.32-130.15-863.5"/>
  </g>
  <path class="cls-13" d="m1275.7,2946.36c-36.26,0-80.19-10.42-132.79-22.91-86.12-20.43-204.06-48.42-359.12-48.43-150.72,0-269.27,24.89-364.52,44.88-123.29,25.88-204.74,42.97-249.01-22.99-20.65-30.77-5.7-80.57,16.94-155.94,19.35-64.44,43.43-144.63,52.36-238.33,8.11-85.15,14.19-179.72,20.08-271.19,17.6-273.73,34.23-532.28,102.86-620.54,5.22-6.71,14.89-7.92,21.6-2.7,6.71,5.22,7.92,14.89,2.7,21.6-62.82,80.79-79.91,346.58-96.44,603.62-5.9,91.69-11.99,186.51-20.15,272.13-9.22,96.73-33.78,178.53-53.52,244.26-17.92,59.69-33.41,111.24-20.86,129.93,31.31,46.66,92.58,36.16,217.13,10.02,96.63-20.28,216.88-45.52,370.75-45.53h0s.09,0,.13,0c158.63.02,278.59,28.48,366.18,49.26,110.34,26.18,160.41,35.85,190.76-9.37,11.55-17.21,1.85-56.95-10.44-107.26-13.06-53.49-29.31-120.06-33.68-203.58-1.78-33.96-3.48-69.6-5.25-106.38-15.43-322.14-34.63-723.05-137.82-855.52-5.22-6.71-4.02-16.38,2.69-21.6,6.7-5.21,16.38-4.02,21.6,2.69,109.18,140.16,128.64,546.48,144.28,872.96,1.76,36.73,3.46,72.33,5.24,106.25,4.22,80.63,20.09,145.64,32.85,197.88,15.18,62.17,25.21,103.24,6.09,131.72-22.39,33.36-52.22,45.07-90.64,45.07Z"/>
  <path class="cls-2" d="m1147.06,1620.35s134.19,282.48,293.73,345.88c112.49,44.7,254.99,46.71,254.99,46.71v242.49s-181.59,62.31-331.73,17.76c-124.56-36.96-186.84-180.61-186.84-180.61"/>
  <g class="cls-5">
    <path class="cls-13" d="m1695.78,2010.78v242.5s-181.58,62.3-331.73,17.78c-124.56-36.98-186.86-180.62-186.86-180.62l31.8-124.68s36.39,154.04,152.37,212.56c179.01,90.35,211.29-62.18,211.29-62.18l54.52-110.01c40.79,4.27,68.61,4.66,68.61,4.66Z"/>
  </g>
  <path class="cls-13" d="m1485.94,2304.74c-41.45,0-84.85-4.52-126.27-16.8-129.95-38.56-193.93-183.11-196.58-189.25-3.38-7.8.2-16.86,8-20.24,7.8-3.37,16.86.2,20.24,8,.59,1.36,61.08,137.55,177.1,171.98,123.71,36.7,271.89-2.31,311.96-14.3v-216.3c-40.2-1.83-151.81-10.15-245.29-47.29-163.29-64.88-296.36-341.82-301.95-353.58-3.65-7.68-.38-16.86,7.3-20.51,7.68-3.65,16.86-.38,20.51,7.29,1.32,2.77,133.47,277.77,285.51,338.18,108.46,43.1,248.13,45.61,249.53,45.62l15.17.22v268.65s-10.39,3.57-10.39,3.57c-5.55,1.9-103.06,34.76-214.84,34.76Z"/>
  <circle class="cls-4" cx="1667.96" cy="1117.99" r="45.42"/>
  <path class="cls-4" d="m1713.38,1118c0,7.58-1.85,14.74-5.16,21.05-7.58,14.47-22.74,24.36-40.25,24.36s-32.67-9.89-40.25-24.36c-3.31-6.31-5.16-13.47-5.16-21.05,0-25.09,20.32-45.41,45.41-45.41s45.41,20.32,45.41,45.41Z"/>
  <g class="cls-5">
    <path class="cls-13" d="m1708.22,1139.05c-7.58,14.47-22.74,24.36-40.25,24.36s-32.67-9.89-40.25-24.36c7.58-14.47,22.74-24.36,40.25-24.36s32.67,9.89,40.25,24.36Z"/>
  </g>
  <path class="cls-13" d="m1667.96,1176.32c-32.16,0-58.33-26.17-58.33-58.33s26.16-58.33,58.33-58.33,58.33,26.17,58.33,58.33-26.17,58.33-58.33,58.33Zm0-90.84c-17.92,0-32.5,14.58-32.5,32.5s14.58,32.5,32.5,32.5,32.5-14.58,32.5-32.5-14.58-32.5-32.5-32.5Z"/>
  <path class="cls-2" d="m328.24,2061.53c.35.35.7.7,1.01,1.05,196.07,200.32,80.52,410.92-71.88,379.83-152.63-31.13-106.2-175.93-106.2-175.93-387.31-246.56,177.06-550.07,177.06-550.07,106.63-58.86,216.37-96.07,216.37-96.07l-68.92,210.68-54.73,167.4c-73.98,32.1-92.72,63.11-92.72,63.11Z"/>
  <g class="cls-5">
    <path class="cls-13" d="m437.29,1862.22l-16.33,136.2c-73.98,32.1-92.72,63.11-92.72,63.11.35.35.7.7,1.01,1.05-19.83-16.36-46.44-35.06-74.37-45.54,0,0,51.5-28.28,68.68-48.5,74.1-87.22,55.02-138.99,124.68-130.1,10.95,1.4-3.72,8.81-10.96,23.78Z"/>
  </g>
  <path class="cls-13" d="m286.76,2460.8c-10.68,0-21.53-1.08-32.44-3.31-50.13-10.22-85.91-33.1-106.35-68.02-25.68-43.85-19.24-93.88-14.43-116.1C42.17,2212.6-2.71,2142.72.13,2065.55c7.05-191.8,308.01-355.82,320.81-362.71,106.47-58.75,217.61-96.68,218.72-97.06,8.05-2.72,16.79,1.58,19.52,9.64,2.73,8.05-1.58,16.79-9.63,19.52-1.08.37-109.74,37.47-213.88,94.94-3.12,1.68-298.41,162.61-304.78,336.83-2.49,68.06,40.76,130.91,128.56,186.8l10.02,6.38-3.63,11.31c-.17.54-17.76,57.76,8.81,102.92,15.85,26.94,44.73,44.85,85.82,53.23,56.54,11.51,109.15-13.6,137.35-65.56,35.11-64.7,32.39-174.72-80.56-289.45l-8.4-8.53,6.2-10.24c1.92-3.17,20.61-31.84,85.31-62.65,7.66-3.66,16.86-.4,20.51,7.28,3.65,7.67.4,16.86-7.28,20.51-35.65,16.98-55.12,32.84-64.63,42.23,114.99,123.17,115.18,243.14,75.89,315.53-28.96,53.36-81.04,84.35-138.12,84.35Z"/>
  <path class="cls-13" d="m157.62,2254.4c5.99,3.63,12.22,7.6,18.32,11.49l18.47,11.79,18.66,11.75c6.26,3.94,12.62,7.74,19.13,11.68-7.61-.17-15.15-1.23-22.64-2.49-7.47-1.35-14.85-3.06-22.12-5.07-7.22-2.12-14.52-4.14-21.59-6.69-7.14-2.49-14.08-5.08-21.11-8.3l12.88-24.17Z"/>
  <g class="cls-8">
    <path class="cls-11" d="m257.37,2442.42c-150.82-30.75-107.25-172.54-106.24-175.91l.05-.05s26.19,140.36,162.53,101.86c87.19-24.67,79.81-147.55,63.17-232.9,1.48-3.37,2.67-6.87,3.64-10.42h.05c120.34,179.04,13.37,345.26-123.2,317.42Z"/>
  </g>
  <path class="cls-13" d="m49.3,2186.05c-6.36,0-11.53-5.15-11.54-11.51-.11-43.14,35.79-87.89,91.45-114,63.26-29.68,159.38-37.57,239.47,29.32,4.89,4.09,5.55,11.37,1.46,16.26-4.08,4.89-11.36,5.55-16.26,1.46-71.76-59.93-158.04-52.8-214.86-26.14-47.57,22.32-78.25,58.84-78.17,93.04.02,6.38-5.14,11.56-11.51,11.57h-.03Z"/>
  <path class="cls-13" d="m324.27,2072.32c-4.88-5.18-10.38-10.52-15.79-15.61-5.46-5.12-11.07-10.13-16.8-15-11.51-9.68-23.51-18.85-36.79-26.46,14.95,3.36,29.63,8.73,43.95,14.79,7.15,3.07,14.24,6.31,21.26,9.73,7.06,3.47,13.88,6.93,21.01,10.95l-16.83,21.61Z"/>
  <path class="cls-2" d="m1313.08,3050.01c-.27,2.42-.58,4.77-1.04,7.08-12.47,70.3-98.81,95.39-254.23,76.07-70.42-8.77-167.69-19.16-193.36-72.61-51.22-106.67,1.04-349.51-5-487.84v-.23s-28.28,3.35-63.38,3.35-63.38-3.35-63.38-3.35c-.04,1.12-.08,2.27-.12,3.39-5.23,138.45,45.91,378.79-4.93,484.69-25.67,53.45-122.94,63.84-193.36,72.61-155.61,19.32-241.96-5.81-254.31-76.3-.39-2.23-.73-4.5-.96-6.85-8.97-85.89,116.67-125.79,116.67-125.79,0,0-27.4-209.25-45.44-373.75-8.47-77.31-9.66-163.11-6-251.42,1.96-46.94,5.27-94.58,9.62-142.07,10.77-118.82,27.82-236.46,45.37-338.81,1.69-9.89,3.39-19.66,5.08-29.24,4.42-24.97,8.85-48.87,13.16-71.49,15.81-83.04,30.32-148.91,38.94-186.55,5.16-22.47,8.23-34.9,8.23-34.9h662.77s2.73,11.08,7.35,31.24c7.97,34.44,21.51,95.47,36.59,173.16,5.66,29.4,11.58,61.22,17.55,94.85,2.81,16.05,5.62,32.48,8.43,49.33,15.89,95.89,31.01,203.56,40.9,312.22,4.31,47.41,7.66,95.01,9.58,141.87,3.69,88.46,2.54,174.39-5.96,251.81-18.09,164.5-45.44,373.75-45.44,373.75,0,0,125.64,39.9,116.67,125.79Z"/>
  <g class="cls-5">
    <path class="cls-13" d="m574.95,2508.82s117,18.82,207.36,18.82,234.99-18.82,234.99-18.82c0,0-86.83,66.53-225.27,63.67-141.91-2.94-217.07-63.67-217.07-63.67Z"/>
  </g>
  <path class="cls-13" d="m1219.43,1954.06c9.27,39.73,16.6,79.82,22.8,120.1,6.29,40.27,11.04,80.78,14.83,121.4,7.72,81.23,10.78,163.06,8.37,245.01-1.4,40.9-4.43,82.12-9.32,122.7l-15.03,120.96-29.41,241.99-10.6-16.67c6.85,2.28,12.6,4.58,18.71,7.17,6,2.56,11.91,5.32,17.75,8.26,11.64,5.93,22.98,12.62,33.79,20.42,10.82,7.75,21.05,16.76,30.2,27.18,8.98,10.56,16.92,22.73,21.79,36.59,4.85,13.81,6.7,29.02,4.92,43.46-.95,7.32-2.28,14.07-4.55,21.14-2.36,6.94-5.31,13.78-9.24,20.1-7.77,12.69-18.6,23.24-30.46,31-11.84,7.96-24.62,13.31-37.4,17.43-25.68,8.1-51.63,10.98-77.2,12.1-25.6,1.04-50.96,0-76.09-2.11-12.58-1-25.07-2.43-37.54-3.91l-37.01-4.72c-24.82-3.42-49.87-7.45-74.87-14.25-12.5-3.39-24.98-7.57-37.27-13.04-12.25-5.54-24.4-12.5-35.32-22.14-5.41-4.89-10.44-10.45-14.73-16.73-2.17-3.13-4.03-6.48-5.78-9.91l-4.13-9.42c-5.01-12.58-8.78-25.37-11.43-38.15-10.33-51.22-9.6-101.86-7.76-151.8,2.12-49.98,6.62-99.47,10.56-148.71,1.97-24.62,3.83-49.18,5.1-73.64.61-12.22,1.11-24.43,1.29-36.56.27-12.32.05-23.76-.37-36.87l17.2,15.28c-11.18,1.23-21.76,1.99-32.65,2.58-10.82.57-21.66.86-32.53.88-10.87-.01-21.71-.31-32.53-.88-10.89-.58-21.46-1.35-32.65-2.58l17.19-14.71c-1.79,48.2,2.2,97.28,6.03,146.5,3.93,49.25,8.45,98.73,10.55,148.72,1.82,49.95,2.54,100.58-7.78,151.8-2.68,12.78-6.41,25.57-11.43,38.15l-4.13,9.42c-1.75,3.43-3.61,6.77-5.78,9.9-4.28,6.28-9.32,11.84-14.73,16.73-10.92,9.64-23.07,16.59-35.32,22.14-12.29,5.47-24.78,9.65-37.27,13.04-25,6.8-50.06,10.83-74.88,14.25l-37.01,4.72c-12.48,1.48-24.97,2.92-37.55,3.91-25.13,2.1-50.48,3.14-76.09,2.1-25.57-1.13-51.52-4.01-77.2-12.11-12.78-4.13-25.57-9.47-37.4-17.44-11.86-7.77-22.68-18.32-30.45-31.01-3.91-6.33-6.87-13.16-9.24-20.1-2.23-7.03-3.63-13.95-4.54-21.12-1.78-14.48.08-29.67,4.94-43.48,4.88-13.86,12.83-26.03,21.81-36.58,9.15-10.42,19.39-19.42,30.21-27.17,10.81-7.8,22.15-14.49,33.8-20.42,5.83-2.94,11.74-5.7,17.75-8.26,6.11-2.59,11.86-4.89,18.71-7.16l-10.6,16.67-31.92-262.37-7.98-65.59c-2.54-21.93-5.66-43.54-7.45-65.89-4.06-44.38-6.08-88.84-6.1-133.2-.15-44.37,1.12-88.68,3.28-132.89,2.49-44.19,4.81-88.4,9.26-132.39,4.04-44.03,9.72-87.9,16.96-131.48,7.39-43.56,16.19-86.9,28.48-129.56.79-2.74,3.65-4.33,6.4-3.54,2.33.67,3.82,2.85,3.73,5.16-1.57,44.27-5.5,88.04-9.67,131.74-4.35,43.67-8.53,87.29-13.19,130.85-4.24,43.6-8.38,87.2-10.88,130.89-2.79,43.68-3.61,87.41-3.59,131.06.02,43.66,2.02,87.24,5.97,130.5,1.7,21.54,4.87,43.52,7.39,65.31l7.97,65.48,31.86,261.92,1.54,12.63-12.14,4.04c-4.9,1.63-10.67,3.88-15.95,6.14-5.38,2.3-10.69,4.78-15.91,7.4-10.41,5.3-20.44,11.24-29.71,17.93-9.3,6.65-17.72,14.16-24.92,22.33-7.01,8.26-12.76,17.23-16.1,26.77-3.28,9.53-4.59,19.53-3.36,29.65.65,5.1,1.72,10.35,3.24,15.12,1.65,4.75,3.61,9.35,6.22,13.56,10.24,16.99,29.42,28.44,50.95,35.18,21.6,6.86,45.3,9.66,69.1,10.68,23.87.98,48.08,0,72.27-2.02,12.1-.95,24.2-2.35,36.31-3.78l36.65-4.67c24.2-3.32,48.14-7.23,70.93-13.44,22.6-6.18,44.75-14.81,60.2-28.44,3.77-3.42,7.06-7.11,9.76-11.05,1.37-1.96,2.49-4.03,3.58-6.11l3.31-7.59c4.13-10.4,7.42-21.44,9.81-32.89,9.36-46.06,8.99-95.34,7.13-144.11-2.05-48.95-6.53-98.11-10.48-147.55-3.82-49.43-7.96-99.27-6.1-150.1l.6-16.54,16.59,1.83c9.85,1.08,20.39,1.87,30.64,2.4,10.31.54,20.64.82,30.92.84,10.29-.02,20.61-.29,30.92-.84,10.24-.54,20.78-1.32,30.64-2.4l16.61-1.83.6,17.11c.41,11.63.65,24.94.36,37.37-.19,12.61-.7,25.14-1.32,37.64-1.3,24.98-3.18,49.79-5.16,74.52-3.96,49.44-8.42,98.59-10.49,147.55-1.89,48.77-2.25,98.06,7.12,144.11,2.37,11.46,5.68,22.49,9.81,32.89l3.31,7.59c1.09,2.08,2.21,4.15,3.58,6.11,2.7,3.94,5.99,7.63,9.76,11.05,15.45,13.63,37.6,22.26,60.2,28.44,22.79,6.21,46.73,10.12,70.93,13.44l36.65,4.67c12.1,1.43,24.21,2.83,36.31,3.78,24.19,2.03,48.4,3,72.27,2.02,23.8-1.01,47.5-3.82,69.1-10.67,21.54-6.73,40.71-18.19,50.96-35.17,2.63-4.2,4.57-8.81,6.22-13.56,1.54-4.72,2.59-10.15,3.24-15.1,1.24-10.15-.06-20.13-3.34-29.67-3.33-9.54-9.08-18.51-16.08-26.77-7.19-8.17-15.61-15.69-24.91-22.34-9.27-6.69-19.29-12.63-29.7-17.93-5.22-2.63-10.53-5.11-15.91-7.41-5.28-2.26-11.05-4.51-15.94-6.14l-12.14-4.04,1.54-12.63,29.36-241.58,14.36-120.83c4.59-40.05,6.87-79.92,7.85-120.17,1.1-40.18.58-80.47-.77-120.75-1.15-40.29-3.16-80.61-5.84-120.91-1.26-20.15-2.66-40.32-4.18-60.48l-4.41-60.54c-3.03-40.38-6.09-80.82-8.24-121.47-.16-2.84,2.02-5.27,4.86-5.42,2.53-.14,4.74,1.59,5.3,3.97Z"/>
  <path class="cls-13" d="m1127.41,1511.38H464.66c-8.5,0-15.39-6.89-15.39-15.39s6.89-15.39,15.39-15.39h662.76c8.5,0,15.39,6.89,15.39,15.39s-6.89,15.39-15.39,15.39Z"/>
  <g class="cls-5">
    <path class="cls-13" d="m727.64,3060.57c-25.67,53.45-122.94,63.82-193.33,72.59-155.63,19.35-241.99-5.79-254.31-76.31,127.4,48.28,351.99,20.71,390.39-40.55,49.73-79.33,57.79-158.61-19.55-257.45-77.3-98.8-83.29-254.75-83.29-254.75,36.96,25.96,112.97,54.15,165.02,71.76-5.21,138.44,45.93,378.8-4.92,484.7Z"/>
  </g>
  <g class="cls-5">
    <path class="cls-13" d="m1312.03,3057.09c-12.44,70.31-98.8,95.41-254.22,76.06-70.4-8.76-167.71-19.14-193.38-72.59-51.22-106.69,1.07-349.53-5-487.85,43.07-12.86,122.81-39.15,164.81-68.62,0,0,21.16,119.7-68.91,246.48-72.67,102.31-77.96,183.7-28.23,262.99,35.26,56.26,244.88,79.37,384.93,43.53Z"/>
  </g>
  <path class="cls-13" d="m1061.94,2821.71c-55.11,0-126.31-10.29-217.12-39.9-8.08-2.64-12.5-11.33-9.86-19.41,2.64-8.08,11.32-12.5,19.41-9.86,268.4,87.55,350.41-2.69,351.21-3.61,5.52-6.37,15.2-7.2,21.63-1.76,6.44,5.44,7.37,14.98,2,21.48-2.53,3.07-45.79,53.06-167.27,53.06Z"/>
  <path class="cls-13" d="m516.32,2828.25c-57.78,0-113.31-10.33-148.88-41.7-6.38-5.62-6.99-15.35-1.37-21.72,5.62-6.38,15.35-6.99,21.72-1.37,89.16,78.61,348.11-2.3,350.72-3.12,8.1-2.57,16.76,1.91,19.33,10.01s-1.91,16.75-10.01,19.33c-7.37,2.34-123.35,38.57-231.5,38.57Z"/>
  <path class="cls-13" d="m730.21,2587.68c-8.37-1.26-15.67-2.87-23.32-4.78-7.52-1.96-14.98-4.09-22.32-6.54-14.72-4.79-29.11-10.54-43.06-17.19-7.01-3.22-13.88-6.8-20.68-10.43-6.67-3.94-13.45-7.58-19.91-11.83-13.16-7.96-25.19-18.18-34.1-31.75-.42-.64-.24-1.49.4-1.91.31-.21.68-.27,1.02-.2h.05c15.99,3.13,29.23,9.15,42.72,15,13.35,6,27.04,11.16,40.8,15.97,6.88,2.42,13.84,4.59,20.74,6.86l20.93,6.13c7.01,1.89,14,3.77,21.02,5.5,6.91,1.68,14.23,3.43,20.63,4.78l.55.12c8.31,1.76,13.63,9.92,11.87,18.24-1.69,8-9.36,13.21-17.34,12.03Z"/>
  <path class="cls-13" d="m856.64,2557.3c6.4-1.35,13.72-3.09,20.63-4.78,7.01-1.73,14.01-3.61,21.02-5.5l20.92-6.13c6.9-2.28,13.86-4.44,20.74-6.86,13.76-4.81,27.45-9.97,40.8-15.97,13.49-5.85,26.73-11.86,42.72-14.99h.05c.75-.15,1.47.33,1.62,1.08.07.37-.01.73-.2,1.02-8.91,13.57-20.94,23.79-34.1,31.75-6.46,4.25-13.24,7.89-19.91,11.83-6.8,3.63-13.67,7.21-20.68,10.43-13.95,6.66-28.34,12.4-43.06,17.19-7.34,2.45-14.8,4.58-22.32,6.54-7.64,1.91-14.95,3.52-23.32,4.78-8.4,1.26-16.24-4.53-17.5-12.93-1.21-8.08,4.1-15.64,11.99-17.33l.59-.13Z"/>
  <path class="cls-13" d="m393.07,2909.06c10.27-1.86,19.72-3,29.59-3.8,9.78-.82,19.56-1.31,29.36-1.36,9.8-.14,19.6,0,29.4.71,9.8.43,19.59,1.6,29.34,2.79,19.52,2.73,38.82,7.25,57.64,13.36,18.67,6.44,36.81,16.19,50.22,31.25.49.55.44,1.4-.11,1.89-.33.29-.75.39-1.15.31h-.06c-19.55-4-36.79-8.68-54.66-12.86-17.95-3.66-36.17-5.74-54.49-6.91-9.21-.22-18.37-.71-27.59-.6-4.6-.07-9.2.04-13.81.23-4.6.11-9.21.17-13.81.48-9.2.47-18.41,1.05-27.57,1.91-9.08.77-18.53,1.79-27.04,2.92l-.51.07c-8.42,1.12-16.16-4.8-17.28-13.23-1.09-8.17,4.49-15.71,12.52-17.17Z"/>
  <path class="cls-13" d="m1193.8,2939.39c-8.5-1.13-17.96-2.15-27.04-2.92-9.16-.86-18.37-1.44-27.57-1.91-4.6-.31-9.21-.36-13.81-.48-4.61-.2-9.21-.3-13.81-.23-9.22-.11-18.38.37-27.59.6-18.32,1.17-36.54,3.25-54.49,6.91-17.86,4.17-35.1,8.86-54.66,12.84h-.06c-.73.16-1.43-.31-1.58-1.03-.09-.43.04-.85.31-1.16,13.41-15.07,31.55-24.81,50.22-31.25,18.81-6.11,38.12-10.62,57.64-13.36,9.75-1.18,19.54-2.36,29.34-2.79,9.8-.71,19.61-.86,29.4-.71,9.8.05,19.59.55,29.36,1.36,9.87.8,19.32,1.94,29.59,3.8,8.36,1.51,13.92,9.51,12.41,17.88-1.47,8.12-9.04,13.59-17.13,12.52l-.54-.07Z"/>
  <g>
    <g class="cls-5">
      <path class="cls-13" d="m793.26,2234.96c3.89,5.97,7.68,11.83,11.32,17.57-3.67-5.75-7.46-11.64-11.32-17.57Z"/>
    </g>
    <g class="cls-5">
      <path class="cls-13" d="m1247.82,2298.66c-28.78,3.19-62.45,5.66-96.16,5.35-2.58,0-5.2-.04-7.77-.12-2.69-.04-5.46-.15-8.2-.27-1.85,0-3.69-.08-5.43-.15-2.19-.12-4.31-.27-6.43-.38-2.73-.15-5.46-.35-8.16-.54h-.19c-2.65-.23-5.39-.42-8.08-.73-1.77-.15-3.54-.35-5.27-.54-1.5-.12-3-.31-4.46-.5-2.31-.23-4.66-.58-6.93-.85-2.15-.35-4.27-.65-6.39-1-.39-.04-.85-.12-1.23-.23-2.5-.31-4.93-.77-7.35-1.23-2.46-.42-4.85-.92-7.2-1.42-.23-.04-.39-.08-.62-.12-1.31-.31-2.66-.62-4-.92-1.46-.31-2.92-.69-4.35-1.04h-.08c-.77-.23-1.58-.42-2.31-.65v29.63c0,40.94-33.55,74.46-74.5,74.46h-406.61c-40.9,0-74.46-33.52-74.46-74.46v-23.66c-51.1,7.77-110.24,4.85-157.42-.23,1.96-46.94,5.27-94.58,9.62-142.07,43.75,1.77,99.51,2.46,147.8-1.73v-53.14c0-40.94,33.55-74.38,74.46-74.38h406.61c24.09,0,45.64,11.58,59.26,29.48,9.54,12.51,15.24,28.09,15.24,44.91v49.79c8.62,1.27,17.62,2.31,26.97,3.16,50.25,4.58,109.01,3.66,154.03,1.73,4.31,47.41,7.66,95.01,9.58,141.87Z"/>
    </g>
    <path class="cls-2" d="m573.74,2238.25c-57.63,23.33-146.82,18.45-207.62,11.09-36.47-4.41-62.07-38.07-56.7-74.41h0c4.9-33.16,34.09-57.28,67.58-55.71,56.87,2.66,142.18,3.91,196.21-8.07"/>
    <g class="cls-5">
      <path class="cls-13" d="m573.73,2238.25c-57.64,23.32-146.8,18.43-207.63,11.08-36.44-4.43-62.07-38.06-56.68-74.42,1.04-6.97,3.12-13.54,6.12-19.55,9.47,18.93,27.94,32.94,50.56,35.67,60.76,7.39,149.76,12.24,207.4-11l.23,58.22Z"/>
    </g>
    <path class="cls-13" d="m459.16,2270.81c-33.35,0-66.5-2.75-94.9-6.19-21.77-2.63-41.08-13.69-54.39-31.12-13.33-17.47-18.9-39.07-15.69-60.81,6.09-41.19,41.98-70.69,83.52-68.83,59.27,2.78,140.71,3.69,192.16-7.72,8.09-1.8,28.17-1.85,40,36.21,12.02,38.65,10.68,103.56-30.36,120.18-33.81,13.69-77.24,18.29-120.35,18.29Zm-85.28-136.26c-24.64,0-45.59,17.95-49.24,42.64-1.99,13.46,1.46,26.83,9.71,37.64,8.22,10.78,20.16,17.61,33.61,19.24,86.94,10.52,157.96,6.94,200-10.08h0c12.41-5.02,16-25.13,16.97-33.54,3.41-29.57-5.57-56.97-11.22-63.65-54.8,11.51-137.34,10.62-197.43,7.81-.8-.04-1.6-.06-2.39-.06Z"/>
    <path class="cls-2" d="m1222.17,2249.33c-28.53,3.46-63.35,6.37-98.2,6.04-2.4,0-4.77-.04-7.17-.11-2.51-.04-5.06-.11-7.57-.22-1.71-.04-3.38-.11-5.02-.18-2-.11-3.97-.22-5.93-.33-2.51-.15-5.02-.33-7.5-.51h-.18c-2.47-.18-4.99-.4-7.46-.66-1.64-.15-3.27-.33-4.88-.51-1.38-.11-2.77-.29-4.11-.44-2.15-.25-4.29-.55-6.37-.84-2-.29-3.97-.58-5.89-.91-.4-.04-.8-.07-1.16-.18-2.29-.33-4.55-.73-6.77-1.16-2.26-.4-4.48-.84-6.66-1.31-.18-.04-.36-.07-.55-.11-1.24-.29-2.47-.55-3.68-.84-1.35-.29-2.69-.62-4.04-.98h-.04c-4.11-1.02-8.15-2.18-12.08-3.42-2.11-.65-4.22-1.38-6.3-2.11-2.07-.73-4.11-1.53-6.08-2.33l.25-61.02.29-66.08c13.83,3.09,29.73,5.28,46.65,6.8,49.19,4.48,107.23,3.24,149.54,1.27,1.02-.04,2.04-.07,3.09-.07,32.16,0,59.74,23.65,64.47,55.78,5.38,36.35-20.23,70-56.69,74.41Z"/>
    <g class="cls-5">
      <path class="cls-13" d="m1222.15,2249.33c-28.51,3.46-63.34,6.35-98.2,6.04-2.39,0-4.77-.04-7.16-.12-2.5-.04-5.04-.12-7.58-.23-1.69,0-3.39-.08-5-.15-2-.12-3.96-.23-5.93-.35-2.5-.15-5.04-.31-7.5-.5h-.19c-2.46-.19-4.96-.39-7.46-.65-1.62-.15-3.27-.35-4.85-.5-1.38-.12-2.77-.31-4.12-.46-2.15-.23-4.31-.54-6.39-.81-2-.31-3.96-.58-5.89-.92-.38-.04-.81-.08-1.15-.19-2.31-.31-4.54-.73-6.77-1.15-2.27-.39-4.46-.85-6.66-1.31-.19-.04-.35-.08-.54-.12-1.23-.27-2.46-.54-3.69-.85-1.35-.27-2.69-.62-4.04-.96h-.04c-4.08-1.04-8.12-2.19-12.04-3.42-2.12-.65-4.23-1.39-6.31-2.12-2.08-.73-4.12-1.54-6.08-2.31l.27-58.18c1.89.77,3.81,1.54,5.81,2.23,2.08.73,4.19,1.46,6.31,2.12,3.92,1.23,7.97,2.39,12.04,3.42h.04c1.35.35,2.69.69,4.04.96,1.23.31,2.46.54,3.69.85.19.04.35.08.54.12,2.19.46,4.39.89,6.66,1.31,2.23.42,4.46.81,6.77,1.15.35.12.77.15,1.15.19,1.92.31,3.89.62,5.89.88,2.08.31,4.23.58,6.39.85,1.35.15,2.73.35,4.12.42,1.58.19,3.23.38,4.85.54,2.5.23,5,.46,7.46.65h.19c2.46.15,5,.35,7.5.5,1.96.12,3.93.23,5.93.31,1.62.08,3.31.15,5,.19,2.54.12,5.08.19,7.58.23,2.39.08,4.77.12,7.16.12,34.86.31,69.69-2.58,98.2-6.04,22.63-2.77,41.13-16.78,50.6-35.71,3,6,5.12,12.58,6.12,19.55,5.39,36.36-20.24,70.03-56.72,74.42Z"/>
    </g>
    <path class="cls-13" d="m1129.13,2270.81c-43.12,0-86.54-4.6-120.35-18.29-41.04-16.61-42.38-81.53-30.36-120.17,11.84-38.08,31.93-38.01,40-36.21,51.45,11.41,132.89,10.51,192.15,7.72,41.55-1.88,77.44,27.64,83.53,68.83,3.21,21.75-2.36,43.35-15.69,60.82-13.31,17.44-32.62,28.49-54.39,31.12-28.39,3.44-61.55,6.19-94.9,6.19Zm-114.55-144.02c-5.65,6.68-14.63,34.07-11.22,63.65.97,8.41,4.56,28.52,16.97,33.54h0c42.04,17.02,113.06,20.6,200,10.08,13.45-1.63,25.39-8.46,33.61-19.24,8.25-10.81,11.69-24.18,9.7-37.64-3.76-25.48-26-43.88-51.63-42.58-60.09,2.81-142.64,3.7-197.43-7.81Z"/>
    <path class="cls-2" d="m1036.82,2069.15v203.67c0,37.79-30.93,68.72-68.72,68.72h-375.1c-37.74,0-68.67-30.93-68.67-68.72v-203.67c0-37.79,30.93-68.67,68.67-68.67h375.1c22.25,0,42.11,10.72,54.7,27.22,8.79,11.53,14.02,25.9,14.02,41.45Z"/>
    <g class="cls-5">
      <path class="cls-13" d="m1036.82,2069.15v203.68c0,37.77-30.93,68.69-68.73,68.69h-375.09c-37.76,0-68.66-30.9-68.66-68.66v-76.23c40.18,78.13,176.72,108.85,289.05,97.48,25.09-2.54,43.04-26.38,37.05-50.88-1.79-7.31-2.75-15.06-2.75-23.09,0-44.43,29.43-80.45,65.75-80.45s63.86,33.69,65.71,76.12c45.01-58.83,47.45-137.57,43.66-188.11,8.77,11.53,14.01,25.91,14.01,41.44Z"/>
    </g>
    <path class="cls-13" d="m964.17,2356.92h-367.2c-48.54,0-88.03-39.49-88.03-88.03v-195.79c0-48.54,39.49-88.03,88.03-88.03h367.2c48.54,0,88.03,39.49,88.03,88.03v195.79c0,48.54-39.49,88.03-88.03,88.03Zm-367.2-341.07c-31.56,0-57.25,25.68-57.25,57.25v195.79c0,31.56,25.68,57.25,57.25,57.25h367.2c31.56,0,57.25-25.68,57.25-57.25v-195.79c0-31.56-25.68-57.25-57.25-57.25h-367.2Z"/>
    <circle class="cls-1" cx="913.46" cy="2171" r="59.23" transform="translate(-1267.58 1281.78) rotate(-45)"/>
    <path class="cls-2" d="m972.7,2171.02c0,3.22-.24,6.36-.77,9.44-4.51-28.24-28.98-49.81-58.47-49.81s-53.97,21.57-58.47,49.81c-.52-3.08-.77-6.22-.77-9.44,0-32.71,26.53-59.24,59.24-59.24s59.24,26.53,59.24,59.24Z"/>
    <g class="cls-5">
      <path class="cls-13" d="m972.67,2170.99c0,32.71-26.51,59.22-59.22,59.22s-59.22-26.51-59.22-59.22c0-7.57,1.42-14.78,4.06-21.43,8.53,22.09,30.02,37.74,55.16,37.74s46.63-15.64,55.16-37.74c2.64,6.65,4.06,13.87,4.06,21.43Z"/>
    </g>
    <path class="cls-13" d="m913.46,2241.77c-39.03,0-70.78-31.75-70.78-70.78s31.75-70.77,70.78-70.77,70.77,31.75,70.77,70.77-31.75,70.78-70.77,70.78Zm0-118.46c-26.3,0-47.69,21.39-47.69,47.69s21.39,47.69,47.69,47.69,47.69-21.39,47.69-47.69-21.39-47.69-47.69-47.69Z"/>
    <path class="cls-13" d="m745.6,2356.92c-8.5,0-15.39-6.89-15.39-15.39v-110.44c0-16.98-8.1-33.22-21.67-43.43l-19.41-14.62c-21.25-16-33.93-41.42-33.93-68.02v-104.56c0-8.5,6.89-15.39,15.39-15.39s15.39,6.89,15.39,15.39v104.56c0,16.98,8.1,33.22,21.67,43.43l19.42,14.62c21.25,16,33.94,41.43,33.94,68.02v110.44c0,8.5-6.89,15.39-15.39,15.39Z"/>
  </g>
  <path class="cls-4" d="m1695.79,1495.98v1615.67c0,15.35-12.47,27.82-27.82,27.82s-27.82-12.47-27.82-27.82v-1615.67h55.64Z"/>
  <path class="cls-13" d="m1667.96,3154.85c-23.83,0-43.21-19.38-43.21-43.21v-1631.04h86.42v1631.04c0,23.83-19.38,43.21-43.21,43.21Zm-12.43-1643.47v1600.26c0,6.85,5.58,12.43,12.43,12.43s12.43-5.58,12.43-12.43v-1600.26h-24.86Z"/>
  <g class="cls-5">
    <rect class="cls-13" x="1640.15" y="1495.98" width="55.64" height="62.34"/>
  </g>
  <path class="cls-12" d="m1636.06,1508.51h63.81c25.25,0,48-15.44,57.07-39,3.66-9.51,8.49-20.54,14.86-32.85,24.37-47.09,75.06-133.48,53.16-195.75-16.53-46.99-77.2-76.33-118.1-91.22-25.11-9.14-52.7-9.14-77.8,0-40.9,14.88-101.57,44.22-118.1,91.22-21.9,62.27,28.8,148.66,53.16,195.75,6.37,12.31,11.2,23.34,14.86,32.85,9.07,23.56,31.82,39,57.07,39h0Z"/>
  <g class="cls-7">
    <path class="cls-2" d="m1829.05,1293.04c-.88-5.62-2.19-11.12-4.08-16.43-16.55-47.02-77.19-76.34-118.09-91.23-25.13-9.12-52.72-9.12-77.8,0-40.9,14.89-101.59,44.21-118.09,91.23-1.89,5.31-3.19,10.81-4.08,16.43-2.39-18.28-1.58-36.02,4.08-52.14,16.51-46.98,77.19-76.34,118.09-91.2,25.09-9.16,52.68-9.16,77.8,0,40.9,14.85,101.55,44.21,118.09,91.2,5.66,16.12,6.46,33.86,4.08,52.14Z"/>
  </g>
  <path class="cls-13" d="m1699.87,1523.9h-63.81c-31.48,0-60.19-19.64-71.43-48.86-3.91-10.16-8.67-20.69-14.17-31.3-2.06-3.98-4.32-8.26-6.7-12.77-27.71-52.51-69.58-131.86-47.31-195.16,18.08-51.4,79.23-83.06,127.35-100.57,28.48-10.37,59.85-10.37,88.33,0,48.12,17.51,109.27,49.17,127.35,100.57,22.26,63.3-19.61,142.65-47.31,195.16-2.38,4.51-4.64,8.78-6.7,12.77-5.48,10.59-10.25,21.13-14.17,31.3-11.25,29.23-39.95,48.86-71.43,48.86Zm-31.91-365.66c-11.39,0-22.79,1.97-33.64,5.92-34.28,12.48-94.01,39.7-108.84,81.86-17.8,50.61,21.83,125.71,45.5,170.57,2.42,4.59,4.72,8.94,6.81,12.99,6.01,11.61,11.24,23.18,15.56,34.4,6.71,17.43,23.87,29.14,42.7,29.14h63.81c18.84,0,36-11.71,42.7-29.14,4.32-11.23,9.56-22.8,15.56-34.4,2.1-4.05,4.39-8.4,6.81-12.99,23.67-44.87,63.3-119.97,45.5-170.58-14.83-42.16-74.56-69.38-108.84-81.86-10.85-3.95-22.24-5.92-33.64-5.92Z"/>
  <path class="cls-13" d="m1699.87,1523.88h-63.8c-31.51,0-60.21-19.63-71.43-48.85-4.05-10.42-8.83-20.97-14.19-31.29-2.05-3.97-4.29-8.21-6.66-12.7-27.72-52.53-69.6-131.92-47.34-195.24,16.97-48.31,72.41-78.98,115.94-96.21,3.83-1.56,7.73-3.03,11.47-4.37,28.39-10.36,59.77-10.37,88.27.03,3.67,1.31,7.57,2.78,11.56,4.41,43.34,17.15,98.77,47.81,115.79,96.14,22.29,63.38-19.67,142.81-47.44,195.38-2.34,4.44-4.56,8.64-6.6,12.56-5.52,10.72-10.29,21.25-14.15,31.3-11.27,29.22-39.97,48.85-71.43,48.85Zm-31.93-365.64c-11.39,0-22.77,1.98-33.59,5.93-3.42,1.23-6.91,2.53-10.46,3.98-53.26,21.08-88.15,48.71-98.39,77.85-17.81,50.64,21.84,125.78,45.52,170.67,2.4,4.56,4.68,8.87,6.77,12.9,5.86,11.29,11.1,22.86,15.57,34.36,6.71,17.47,23.87,29.17,42.72,29.17h63.8c18.82,0,35.99-11.71,42.7-29.13,4.27-11.09,9.49-22.66,15.53-34.38v-.03c2.08-3.99,4.34-8.26,6.72-12.77,23.73-44.92,63.44-120.1,45.62-170.78-10.27-29.16-45.16-56.79-98.23-77.79-3.71-1.52-7.2-2.82-10.53-4.02-10.9-3.97-22.33-5.96-33.74-5.96Z"/>
  <path class="cls-4" d="m1771.79,1436.65c-6.35,12.31-11.2,23.36-14.85,32.86-9.08,23.55-31.82,38.98-57.07,38.98h-63.8c-25.24,0-48.02-15.43-57.07-38.98-3.69-9.5-8.5-20.55-14.89-32.86-24.36-47.06-75.03-133.49-53.14-195.74,15.08-42.94,67.03-71.15,107.09-87-21.63,26.82-62.41,86.31-53.6,144.18,6.73,44.25,48.1,131.68,59.18,154.57,1.65,3.42,5.12,5.58,8.97,5.58h.04c5.66,0,10.2-4.69,9.93-10.35-2.08-49.22-8.89-258.85,25.4-305.03,34.28,46.18,27.47,255.81,25.4,305.03-.27,5.66,4.27,10.35,9.93,10.35,3.85,0,7.31-2.16,8.97-5.58,11.08-22.89,52.49-110.32,59.22-154.57,8.81-57.87-31.98-117.36-53.6-144.18,40.06,15.85,91.97,44.06,107.09,87,21.89,62.26-28.78,148.68-53.18,195.74Z"/>
  <g class="cls-5">
    <path class="cls-13" d="m1771.79,1436.65c-6.35,12.31-11.2,23.36-14.85,32.86-9.08,23.55-31.82,38.98-57.07,38.98h-63.8c-25.24,0-48.02-15.43-57.07-38.98-3.69-9.5-8.5-20.55-14.89-32.86-24.36-47.06-75.03-133.49-53.14-195.74,3-8.54,7.47-16.55,13.05-23.93-19.82,57.03,26.51,136.06,48.79,179.12,5.85,11.27,10.27,21.39,13.62,30.09,8.31,21.59,29.17,35.71,52.29,35.71h58.49c23.13,0,43.94-14.12,52.29-35.71,3.35-8.7,7.77-18.82,13.58-30.09,22.32-43.06,68.61-122.02,48.87-179.04,5.54,7.39,10,15.31,13.01,23.86,21.89,62.26-28.78,148.68-53.18,195.74Z"/>
  </g>
  <path class="cls-13" d="m1699.87,1518.82h-63.8c-29.43,0-56.23-18.33-66.71-45.61-4.12-10.61-8.98-21.32-14.42-31.81-2.06-3.98-4.3-8.23-6.68-12.73-27.3-51.76-68.57-129.97-47.04-191.2,16.34-46.5,70.48-76.34,113.03-93.18,4.36-1.72,9.34-.3,12.12,3.48,2.78,3.78,2.67,8.95-.28,12.61-18.25,22.63-59.79,81.2-51.43,136.14,5.07,33.33,32.99,99.27,57.66,150.38-3.42-78.5-7.15-263.76,27.34-310.21,1.95-2.62,5.02-4.17,8.29-4.17s6.35,1.55,8.29,4.17c34.46,46.4,30.77,231.32,27.48,310.25,12.26-25.8,51.18-108.75,57.52-150.42,8.36-54.94-33.18-113.51-51.43-136.14-2.94-3.65-3.06-8.83-.28-12.61,2.78-3.78,7.77-5.2,12.12-3.48,42.52,16.83,96.65,46.65,113.03,93.17,21.55,61.29-19.78,139.55-47.14,191.34-2.35,4.44-4.57,8.65-6.61,12.58-5.61,10.89-10.45,21.6-14.39,31.83-10.52,27.28-37.33,45.6-66.71,45.6Zm-112.81-339.31c-28.98,15.53-56.55,36.94-66.34,64.81-18.54,52.72,21.75,129.08,45.82,174.71,2.4,4.55,4.67,8.85,6.75,12.86,5.78,11.14,10.94,22.53,15.34,33.87,7.45,19.39,26.5,32.4,47.44,32.4h63.8c20.9,0,39.96-13.01,47.43-32.37,4.2-10.93,9.35-22.33,15.31-33.88,0,0,0-.01,0-.02,2.06-3.98,4.31-8.24,6.69-12.74,24.11-45.65,64.47-122.06,45.92-174.82-9.82-27.88-37.38-49.29-66.34-64.81,20.44,32.54,39.49,76.3,32.81,120.12-6.86,45.07-47.76,131.96-60.13,157.52-3.39,7.03-10.4,11.41-18.26,11.41-5.53,0-10.89-2.29-14.69-6.29-3.79-3.98-5.81-9.4-5.55-14.89,4.31-102.15,2.4-228.62-15.08-280.99-17.48,52.38-19.39,178.85-15.07,281.05.26,5.43-1.77,10.85-5.56,14.83-3.81,3.99-9.16,6.28-14.69,6.28-7.91,0-14.9-4.37-18.31-11.41-12.36-25.53-53.22-112.37-60.09-157.51-6.67-43.83,12.37-87.59,32.81-120.13Z"/>
  <path class="cls-2" d="m1602.61,2118.28s-46.29,18.5-56.3-7.35-20.34-133.28-1.25-148.15c43.17-33.61,102.6,27.21,102.6,27.21l-45.04,128.28Z"/>
  <path class="cls-2" d="m1647.65,1989.98l-8.89,25.28-36.17,103.01s-26.43,10.58-43.67,4.54c-5.58-1.92-10.16-5.58-12.62-11.89-10-25.82-20.32-133.29-1.23-148.15,43.14-33.59,102.59,27.2,102.59,27.2Z"/>
  <g class="cls-5">
    <path class="cls-13" d="m1638.77,2015.26l-36.17,103.01s-26.43,10.58-43.67,4.54c-5.77-41.75-7.39-101.2,6.47-111.97,23.74-18.51,52.37-8.43,73.38,4.43Z"/>
  </g>
  <path class="cls-13" d="m1571.37,2140.03c-6.96,0-14.03-1.01-20.37-3.77-8.96-3.9-15.54-10.73-19.04-19.77-8.06-20.82-26.91-142.06,3.65-165.85,53.4-41.57,120.24,25.72,123.06,28.6l6.68,6.84-50.53,143.9-6.49,2.59c-2.51,1.01-19.37,7.46-36.95,7.46Zm31.24-21.76h.05-.05Zm-47.65-143.69c-9.76,13.96-4.27,105.02,5.7,130.79.53,1.36,1.19,2.04,2.6,2.66,6.03,2.64,18.06.77,27.3-1.91l39.2-111.65c-14.75-12.66-50.11-38.46-74.81-19.88Z"/>
  <g class="cls-5">
    <path class="cls-13" d="m1695.79,2042.85v281.17c-16.24,5.08-35.59,7.08-55.64,2.73v-270.12c20.55-10.43,41.79-14.62,55.64-13.78Z"/>
  </g>
  <path class="cls-2" d="m1707.71,1968.73c-21.03-12.36-125.91,12.41-128.45,102.6-2.14,75.93-23.36,130.96,23.9,162.58,39.21,26.24,65.69,45.95,92.63,32.6,26.94-13.35,145.38-219.37,11.93-297.78Z"/>
  <g class="cls-5">
    <path class="cls-13" d="m1769.94,2086.72c-1.62,82.81-56.83,171.16-74.15,179.78-26.94,13.35-53.41-6.35-92.62-32.59-33.44-22.4-32.63-56.45-28.51-101.35,3.35,17.32,11.47,31.75,28.51,43.14,39.21,26.24,56.22,35.09,83.89,23.28,32.05-13.7,67.26-59.33,82.88-112.24Z"/>
  </g>
  <path class="cls-13" d="m1677.78,2286.31c-24.24,0-48.19-16.1-76.6-35.2l-6.58-4.42c-43.49-29.1-39.24-73.81-34.31-125.57,1.52-15.94,3.08-32.43,3.59-50.24,1.23-43.67,24.15-80.04,64.51-102.39,31.56-17.47,69.83-23.2,87.12-13.04h0c47.77,28.07,71.89,74.74,69.74,134.97-2.95,82.97-56.53,176.95-82.63,189.88-8.43,4.18-16.65,6.02-24.84,6.02Zm14.8-305.26c-11.65,0-33.3,4.28-54.3,17.32-19.3,11.99-42.54,34.45-43.64,73.39-.53,18.83-2.22,36.6-3.71,52.28-5.02,52.8-6.24,78.98,20.79,97.07l6.64,4.45c34.96,23.5,53.99,35.37,70.6,27.15,12.8-7.95,66.55-93.51,65.64-171.64-.52-44.69-18.88-78-54.57-99.02-1.42-.63-3.99-1.01-7.44-1.01Zm7.5,1.03h.05-.05Zm-.16-.09h0,0Z"/>
  <path class="cls-12" d="m1295.99,1851.03c-33.05,7.39-67.07,3.23-98.66-6.46-16.35-5-32.01-11.47-46.6-18.55-52.26-25.44-90.12-58.91-91.97-61.64l112.59-63.99,45.91-26.09c4.73,13.39,12.31,31.75,20.97,51.52,24.63,56.6,57.76,125.21,57.76,125.21Z"/>
  <path class="cls-13" d="m1260.55,1870.24c-107.27,0-209.29-89.39-214.59-97.34l-9.17-13.75,188.82-107.33,6.14,17.31c17.86,50.33,77.51,173.96,78.11,175.21l8.44,17.47-18.94,4.24c-12.9,2.89-25.9,4.19-38.81,4.19Zm-175.41-103.17c33.13,25.96,113.07,77.66,188,71.84-15.42-32.43-46.71-99.16-63.91-142.37l-124.09,70.53Z"/>
  <path class="cls-12" d="m472.11,1764.38c-1.31,2-28.51,13.28-67.8,24.55-9.47,2.73-19.62,5.43-30.28,8-56.03,13.54-126.1,23.47-182.35,10.89,0,0,6.27-6.46,16.08-17.01,25.82-27.86,76.34-84.12,102.59-125.71,6.46-10.27,11.43-19.62,14.2-27.47l92.93,79.81,54.64,46.94Z"/>
  <path class="cls-13" d="m249.6,1828.99c-20.99,0-41.79-1.78-61.27-6.14l-26.77-5.99,19.06-19.72c.06-.06,6.21-6.43,15.84-16.81,61.96-66.74,104.42-122.02,113.59-147.86l7.5-21.15,174.93,150.26-7.56,11.34c-9.77,14.65-107.92,39.16-108.91,39.39-35.32,8.46-81.29,16.69-126.42,16.69Zm-26.68-31.93c79.52,7.15,178.43-21.4,220.69-36.89l-113.82-97.77c-23.01,40.9-73.64,98.64-106.87,134.66Zm240.21-45.07h0Z"/>
  <g class="cls-5">
    <path class="cls-13" d="m1238.23,1725.82c-.96,2.15-2,4.31-3.08,6.43-12.51,24.43-28.21,45.29-46.25,62.99-11.81,11.54-24.63,21.78-38.17,30.78-79,52.52-183.78,63.76-266.93,58.49-71.96-4.62-95.7-51.68-103.24-88.31.04,0,0-.04,0-.04v-.04c-1.15-5.81-1.92-11.35-2.46-16.43-1.54-15.93-.38-27.17-.38-27.17,0,0,1-.77,2.85-2.19h.04c27.36-21.59,243.07-190.01,321.42-218.52,10.7-3.89,21.74-5.31,32.75-4.58,7.97,34.44,21.51,95.47,36.59,173.16l45.91-26.09c4.73,13.39,12.31,31.75,20.97,51.52Z"/>
  </g>
  <g class="cls-5">
    <path class="cls-13" d="m783.02,1779.77c-.5,5.04-1.27,10.54-2.42,16.35t-.04.08c-7.54,36.63-31.28,83.69-103.24,88.31-87.12,5.54-198.01-7.08-278.09-66.34-8.81-6.46-17.24-13.54-25.2-21.24-18.82-18.05-35.13-39.48-48.06-64.68-11.43-22.32-16.12-45.17-15.62-67.15,6.46-10.27,11.43-19.62,14.2-27.47l92.93,79.81c15.81-83.04,30.32-148.91,38.94-186.55.92.27,1.81.58,2.73.92,78.34,28.51,294.06,196.94,321.42,218.52h.04c1.85,1.42,2.85,2.19,2.85,2.19,0,0,1.19,11.27-.42,27.24Z"/>
  </g>
  <path class="cls-2" d="m1235.37,1681.88c-67.42,131.6-228.91,157.65-346.55,150.15-70.99-4.54-94.43-51.02-101.82-87.16-1.15-5.73-1.92-11.2-2.42-16.2-1.54-15.7-.38-26.78-.38-26.78,0,0,.96-.77,2.81-2.19,26.82-21.13,239.73-187.39,317.03-215.52,40.52-14.74,86.16,6.7,115.63,45.02,30.59,39.83,43.75,97.89,15.7,152.69Z"/>
  <g class="cls-5">
    <path class="cls-13" d="m1235.39,1681.88c-67.42,131.6-228.91,157.65-346.55,150.15-70.99-4.54-94.43-51.02-101.82-87.16-1.15-5.73-1.92-11.2-2.42-16.2-1.54-15.7-.38-26.78-.38-26.78,0,0,.81-.65,2.42-1.89.12.69.23,1.38.39,2.08,7.39,36.13,30.82,82.62,101.82,87.16,117.63,7.5,279.13-18.55,346.55-150.15,7.08-13.81,11.54-27.86,13.74-41.75,4.23,27.09.73,56.26-13.74,84.54Z"/>
  </g>
  <path class="cls-13" d="m925.76,1848.57c-14.31,0-27.11-.51-37.88-1.2-38.12-2.43-67.99-16.16-88.77-40.79-36.41-43.15-30.48-103.75-30.21-106.31l.68-6.44,5.08-4.02c9.77-7.72,240.2-189.57,324.15-220.1,41.73-15.18,89.99.7,125.95,41.44,44.34,50.24,53.89,120,24.32,177.73-70.53,137.7-229.3,159.68-323.31,159.68Zm-126.55-138.9c-.28,14.46,1.43,51.14,23.54,77.21,15.17,17.88,37.73,27.9,67.08,29.77,75.46,4.82,258.87.64,331.83-141.8,28.86-56.35,7.26-112.43-20.01-143.32-26.98-30.57-63.22-43.47-92.35-32.88-72.51,26.37-274.26,182.95-310.11,211.02Z"/>
  <path class="cls-2" d="m789.45,1728.75c-.5,4.96-1.27,10.39-2.42,16.12-7.43,36.13-30.82,82.62-101.85,87.16-117.59,7.5-279.09-18.55-346.51-150.15-30.63-59.8-12.16-123.44,24.47-163.08,29.28-31.67,70.19-47.98,106.86-34.63,77.31,28.13,290.21,194.4,317.03,215.52,1.85,1.42,2.81,2.19,2.81,2.19,0,0,1.19,11.12-.39,26.86Z"/>
  <g class="cls-5">
    <path class="cls-13" d="m789.45,1728.75c-.5,4.96-1.27,10.39-2.42,16.12-7.43,36.13-30.82,82.62-101.85,87.16-117.59,7.5-279.09-18.55-346.51-150.15-14.58-28.44-18.05-57.76-13.7-84.96,2.23,13.78,6.66,27.7,13.7,41.44,67.42,131.6,228.91,157.65,346.51,150.15,71.03-4.54,94.43-51.02,101.85-87.16.12-.5.19-1,.27-1.46,1.69,1.31,2.54,2,2.54,2,0,0,1.19,11.12-.39,26.86Z"/>
  </g>
  <path class="cls-13" d="m648.28,1848.57c-94.01,0-252.78-21.98-323.31-159.68-29.57-57.72-20.02-127.48,24.32-177.72,35.95-40.74,84.21-56.62,125.95-41.44,83.95,30.53,314.38,212.37,324.15,220.1l5.08,4.02.68,6.44c.27,2.56,6.2,63.16-30.21,106.31-20.79,24.63-50.65,38.35-88.77,40.79-10.77.69-23.58,1.2-37.88,1.2Zm-204.78-353.57c-24.23,0-50.41,13.06-71.13,36.53-27.27,30.9-48.87,86.97-20.01,143.32,72.96,142.44,256.37,146.61,331.83,141.8,29.35-1.87,51.92-11.89,67.08-29.77,22.11-26.07,23.82-62.75,23.54-77.21-35.84-28.07-237.6-184.65-310.11-211.02-6.76-2.46-13.9-3.65-21.22-3.65Z"/>
  <g>
    <g>
      <path class="cls-2" d="m1339.84,1267.27h0c-6.17.46-11.55-4.17-12.01-10.34l-24.05-322c-.46-6.17,4.17-11.55,10.34-12.01h0c64.77-4.84,121.2,43.75,126.04,108.52l8.2,109.8c4.84,64.77-43.75,121.2-108.52,126.04Z"/>
      <path class="cls-13" d="m1338.99,1270.07c-7.24,0-13.38-5.6-13.93-12.94l-24.05-322c-.28-3.72.91-7.33,3.34-10.16s5.83-4.54,9.55-4.82c66.11-4.95,124.06,44.88,129,111.07l8.2,109.8c2.4,32.06-7.84,63.14-28.82,87.5-20.98,24.37-50.19,39.1-82.25,41.5h0c-.35.03-.7.04-1.05.04Zm-16.04-344.73c-2.86,0-5.73.11-8.63.32-2.25.17-4.3,1.2-5.77,2.91-1.47,1.71-2.19,3.89-2.02,6.14l24.05,322c.35,4.64,4.42,8.11,9.05,7.79h0c30.59-2.29,58.46-16.35,78.47-39.59,20.01-23.24,29.78-52.89,27.49-83.48l-8.2-109.8c-4.5-60.25-54.98-106.29-114.45-106.29Z"/>
    </g>
    <g class="cls-5">
      <path class="cls-13" d="m1444.51,1089.74l3.86,51.5c4.83,64.75-43.75,121.19-108.54,126.05-6.17.47-11.55-4.2-12.02-10.37l-6.42-85.6c2.02,3.77,6.13,6.18,10.67,5.87l7.63-.59c51.19-3.81,92.29-39.88,104.82-86.87Z"/>
    </g>
    <path class="cls-13" d="m1338.96,1282.69c-6.36,0-12.45-2.25-17.32-6.45-5.38-4.64-8.64-11.09-9.17-18.18l-24.05-322c-.53-7.09,1.73-13.95,6.37-19.34,4.64-5.38,11.09-8.64,18.18-9.17,73.13-5.46,137.07,49.59,142.54,122.72l8.2,109.8c2.65,35.43-8.66,69.76-31.84,96.68-23.18,26.92-55.45,43.21-90.88,45.85h0c-.68.05-1.35.08-2.02.08Zm-.26-30.77h-.01.01Zm-19.27-313.89l23.42,313.5c25.59-2.94,48.78-15.21,65.68-34.84,17.81-20.69,26.5-47.08,24.47-74.3l-8.2-109.8c-4.09-54.8-50.89-96.29-105.37-94.55Z"/>
    <g>
      <path class="cls-2" d="m251.25,1002.3h0c6.17-.46,11.55,4.17,12.01,10.34l24.05,322c.46,6.17-4.17,11.55-10.34,12.01h0c-64.77,4.84-121.2-43.75-126.04-108.52l-8.2-109.8c-4.84-64.77,43.75-121.2,108.52-126.04Z"/>
      <path class="cls-13" d="m268.03,1349.76c-28.79,0-56.31-10.19-78.35-29.16-24.37-20.98-39.1-50.19-41.5-82.25l-8.2-109.8c-2.4-32.06,7.84-63.14,28.82-87.5,20.98-24.37,50.19-39.1,82.25-41.5h0c7.66-.63,14.4,5.21,14.98,12.9l24.05,322c.28,3.72-.91,7.33-3.34,10.16-2.44,2.83-5.83,4.54-9.55,4.82-3.06.23-6.12.34-9.15.34Zm-16.57-344.71c-30.59,2.29-58.46,16.35-78.47,39.59-20.01,23.25-29.78,52.9-27.5,83.49l8.2,109.8c2.29,30.59,16.35,58.46,39.59,78.47,23.25,20.01,52.9,29.78,83.49,27.5,2.25-.17,4.3-1.2,5.77-2.91,1.47-1.71,2.19-3.89,2.02-6.14l-24.05-322c-.35-4.64-4.38-8.11-9.05-7.79h0Z"/>
    </g>
    <g class="cls-5">
      <path class="cls-13" d="m280.67,1245.32l6.66,89.33c.47,6.17-4.2,11.55-10.37,12.02-34,2.52-65.73-9.65-88.88-31.18-20.91-19.45-34.83-46.57-37.13-77.32l-3.46-46.27c21.42,39.22,64.5,64.44,111.99,60.9l11.75-.88c4.29-.33,7.76-2.97,9.45-6.6Z"/>
    </g>
    <path class="cls-13" d="m268.12,1362.38c-68.88,0-127.32-53.32-132.53-123.09l-8.2-109.8c-2.65-35.43,8.66-69.76,31.84-96.68,23.18-26.92,55.45-43.21,90.88-45.85h0c14.62-1.06,27.41,9.92,28.5,24.55l24.05,322c.53,7.09-1.73,13.96-6.37,19.34-4.64,5.38-11.09,8.64-18.18,9.17-3.35.25-6.69.37-10,.37Zm-19.89-344.34c-25.59,2.94-48.78,15.21-65.68,34.84-17.81,20.69-26.5,47.08-24.47,74.3l8.2,109.8c2.03,27.23,14.55,52.03,35.24,69.85,19.63,16.9,44.42,25.57,70.13,24.7l-23.42-313.5Z"/>
    <g class="cls-5">
      <path class="cls-13" d="m1219.69,1529.19c-100.73,133.65-267.45,199.07-433.06,196.42-163.96-2.62-326.82-71.97-423.49-206.81,29.28-31.67,70.19-47.98,106.86-34.63,77.31,28.13,290.21,194.4,317.03,215.52,26.82-21.13,239.73-187.39,317.03-215.52,40.52-14.74,86.16,6.7,115.63,45.02Z"/>
    </g>
    <g>
      <circle class="cls-2" cx="795.61" cy="1134.78" r="550.25"/>
      <path class="cls-13" d="m795.55,1687.79c-146.96,0-285.24-56.98-389.59-160.58-104.82-104.08-162.84-242.74-163.37-390.46-.52-147.71,56.5-286.79,160.58-391.62,104.08-104.82,242.75-162.84,390.46-163.37.65,0,1.35,0,2,0,304.04,0,551.89,246.76,552.98,551.04.52,147.71-56.5,286.79-160.58,391.62-104.08,104.82-242.75,162.84-390.46,163.37-.68,0-1.36,0-2.03,0Zm.09-1100.5c-.66,0-1.32,0-1.98,0-146.24.52-283.52,57.96-386.56,161.73-103.04,103.78-159.49,241.46-158.97,387.7.52,146.24,57.96,283.52,161.73,386.56,103.78,103.04,241.65,159.6,387.7,158.97,146.24-.52,283.52-57.96,386.56-161.73,103.04-103.77,159.49-241.46,158.97-387.7h0c-1.08-301.22-246.48-545.53-547.45-545.53Z"/>
    </g>
    <g class="cls-5">
      <path class="cls-13" d="m1340.32,1056.67c3.59,24.87,5.46,50.29,5.56,76.16,1.04,303.88-244.42,551.11-548.3,552.22-303.88,1.04-551.11-244.42-552.22-548.3-.04-8.74.14-17.49.52-26.1,38.05,267.72,268.62,473.13,546.67,472.14,295.14-1.08,535.14-234.29,547.78-526.12Z"/>
    </g>
    <path class="cls-13" d="m795.55,1700.42c-150.32,0-291.76-58.28-398.48-164.25-107.21-106.45-166.56-248.29-167.1-399.38-1.11-311.89,251.73-566.55,563.62-567.66.66,0,1.38,0,2.05,0,310.98,0,564.5,252.4,565.61,563.62.54,151.09-57.79,293.34-164.24,400.56-106.45,107.22-248.29,166.56-399.38,167.1-.69,0-1.39,0-2.08,0Zm.09-1100.5c-.65,0-1.29,0-1.94,0-294.92,1.05-534,241.85-532.95,536.77.51,142.87,56.62,276.98,158.01,377.64,101.38,100.66,235.92,155.96,378.76,155.31,142.87-.51,276.98-56.62,377.64-158.01,100.66-101.38,155.82-235.89,155.31-378.76h0c-1.05-294.27-240.8-532.95-534.83-532.95Z"/>
    <path class="cls-13" d="m1344.15,1146.96c2.01,107.66-31.07,208.26-89.29,292.07-43.65,62.83-225.82,174.78-453.23,181.07-210.86,5.83-404.84-103.02-450.81-164.19-61.31-81.58-98.13-180.88-100.14-288.53-5.32-284.89,237.24-407.57,539.21-413.21,301.97-5.64,548.94,107.89,554.26,392.78Z"/>
    <path class="cls-13" d="m784.95,1635.72c-211.91,0-399.3-107.85-446.43-170.56-65.52-87.18-101.21-190.05-103.22-297.49-2.62-140.14,51.57-249.26,161.06-324.31,95.4-65.39,231.38-101.56,393.25-104.58,161.9-3.03,299.11,28.03,396.88,89.82,112.21,70.91,170.44,177.92,173.06,318.07h0c2.01,107.44-29.82,211.58-92.04,301.14-43.17,62.15-224.02,180.99-465.45,187.67-5.72.16-11.42.24-17.11.24Zm26.18-866.36c-6.94,0-13.91.06-20.95.2-159.76,2.99-530.64,47.69-524.11,397.53,1.89,100.93,35.45,197.6,97.05,279.57,43.72,58.18,232.63,163.78,438.08,158.05,227.62-6.3,402.19-118.58,441.02-174.47,58.5-84.21,88.43-182.08,86.55-283h0c-2.41-129.14-55.82-227.59-158.72-292.62-88.49-55.92-212.25-85.26-358.91-85.26Z"/>
    <g class="cls-6">
      <ellipse class="cls-4" cx="1165.74" cy="1111.57" rx="97.38" ry="70.56" transform="translate(-117.93 2084.58) rotate(-80.8)"/>
    </g>
    <g class="cls-6">
      <ellipse class="cls-4" cx="1082.92" cy="1306.05" rx="44.7" ry="38.36" transform="translate(-484.3 1955.89) rotate(-72.86)"/>
    </g>
    <g class="cls-5">
      <path class="cls-3" d="m1232.85,883.16c68.03,62.53,109.14,149.35,111.29,263.78,2.01,107.68-31.09,208.27-89.27,292.09-43.66,62.83-225.85,174.77-453.26,181.09-80.3,2.24-158.12-12.17-226.29-34.28,279.37-13.72,501.26-151.08,555.39-229.02,73.9-106.37,115.88-234.07,113.31-370.68-.66-36.51-4.52-70.81-11.18-102.98Z"/>
    </g>
    <path class="cls-13" d="m287.33,939.07c-3.57,0-7.16-1.24-10.07-3.76-6.05-5.25-7.02-14.18-2.45-20.57,94.15-143.87,280.23-228.84,510.66-233.15,229.06-4.22,418.18,71.14,519.07,206.9,4.31,5.52,4.45,13.48-.13,19.15-5.32,6.6-14.94,7.69-21.56,2.39l-1.56-1.25-1.26-1.66c-94.83-127.85-274.98-198.71-493.99-194.75-220.31,4.12-397.36,84.18-485.75,219.65l-1.32,1.75c-3.04,3.51-7.33,5.31-11.64,5.31Zm-.54-15.87l.55.47-.55-.47Z"/>
    <g class="cls-6">
      <path class="cls-4" d="m376.63,1334.57s-93.49-279.4,55.89-394.22c149.37-114.83,367.3-118.44,362.46-104.37,0,0-240.16,62.91-330.99,255.39-70.04,148.43-87.36,243.2-87.36,243.2Z"/>
    </g>
  </g>
  <path class="cls-4" d="m930.84,597.72l-35.95-325.34c23.11-5.32,42.02-23.85,46.61-48.65,6.17-33.33-15.85-65.34-49.18-71.51-33.33-6.17-65.34,15.85-71.51,49.18-4.72,25.52,7.1,50.26,27.85,63.22l-140.18,291.22"/>
  <g class="cls-5">
    <path class="cls-13" d="m930.84,597.72l-35.95-325.34c23.11-5.32,42.02-23.85,46.61-48.65,6.17-33.33-15.85-65.34-49.18-71.51-33.33-6.17-65.34,15.85-71.51,49.18-4.72,25.52,7.1,50.26,27.85,63.22l-140.18,291.22"/>
  </g>
  <path class="cls-13" d="m930.82,613.12c-7.74,0-14.41-5.83-15.28-13.7l-37.46-338.96,13.35-3.07c17.88-4.12,31.59-18.42,34.92-36.45,2.23-12.08-.37-24.3-7.33-34.42-6.96-10.12-17.44-16.92-29.52-19.16-24.91-4.61-48.96,11.91-53.57,36.85-3.46,18.69,4.73,37.29,20.87,47.37l11.69,7.3-146.16,303.64c-3.69,7.66-12.9,10.88-20.54,7.19-7.66-3.69-10.88-12.89-7.19-20.54l134.74-279.92c-19.43-17.66-28.59-44.09-23.68-70.64,7.7-41.62,47.81-69.21,89.44-61.52,20.16,3.73,37.66,15.09,49.28,31.98,11.62,16.89,15.96,37.3,12.23,57.46-4.71,25.48-21.83,46.5-45.08,56.53l34.59,312.98c.93,8.45-5.16,16.05-13.61,16.99-.57.06-1.14.1-1.71.1Z"/>
  <path class="cls-4" d="m1187.6,701.11l63.51-321.1c23.64,1.87,47.24-10.12,59.08-32.39,15.9-29.93,4.52-67.09-25.41-82.98-29.93-15.9-67.09-4.52-82.98,25.41-12.17,22.92-8.34,50.07,7.56,68.67l-221.24,235.61"/>
  <g class="cls-5">
    <path class="cls-13" d="m1187.6,701.11l63.51-321.1c23.64,1.87,47.24-10.12,59.08-32.39,15.9-29.93,4.52-67.09-25.41-82.98-29.93-15.9-67.09-4.52-82.98,25.41-12.17,22.92-8.34,50.07,7.56,68.67l-221.24,235.61"/>
  </g>
  <path class="cls-13" d="m1187.62,716.51c-.99,0-1.99-.1-3-.3-8.34-1.65-13.76-9.75-12.11-18.09l66.17-334.54,13.66,1.08c18.26,1.44,35.67-8.07,44.27-24.27,11.89-22.39,3.35-50.28-19.04-62.17-10.85-5.76-23.29-6.95-35.03-3.36-11.74,3.6-21.38,11.55-27.14,22.39-8.92,16.79-6.69,36.99,5.67,51.45l8.96,10.48-230.68,245.66c-5.82,6.2-15.56,6.5-21.76.68-6.2-5.82-6.5-15.56-.68-21.76l212.66-226.47c-13.22-22.68-14.02-50.64-1.35-74.49,9.62-18.11,25.71-31.39,45.32-37.39,19.6-6,40.38-4.01,58.48,5.61,37.38,19.85,51.64,66.42,31.78,103.8-12.15,22.88-34.8,37.79-59.99,40.36l-61.1,308.9c-1.45,7.33-7.88,12.41-15.08,12.41Z"/>
  <path class="cls-4" d="m1464.49,400.11c-8.49,30.13-38.05,48.62-68.21,44.05l-162.37,330.14-16.09-1.47c-96.21-8.65-191.11-26.41-283.52-52.98-92.38-26.53-182.24-61.87-268.33-105.65l18.23-370.49c-29.5-11.12-46.08-43.14-37.39-74.04,5.49-19.32,19.59-33.87,36.98-40.62,11.96-4.62,25.46-5.55,38.77-1.82,32.59,9.22,51.59,43.09,42.4,75.71-4.99,17.67-17.19,31.32-32.54,38.69l31.4,137.52c10.12,44.36,50.81,66.91,89.05,62.31,22.98-2.71,45.05-15.26,59.16-38.71l166.27-277.13c-19.47-14.81-28.99-40.51-21.93-65.5,9.19-32.63,43.09-51.62,75.71-42.44,32.63,9.22,51.62,43.12,42.4,75.75-6.82,24.25-27.36,40.98-50.87,44.17l5.99,327.25c1.33,73.25,91.6,107.14,140.79,52.84l87.01-96.04c-11.85-14.9-16.6-35.1-11.06-54.81,9.22-32.63,43.12-51.62,75.71-42.44,32.63,9.19,51.62,43.09,42.44,75.71Z"/>
  <g class="cls-5">
    <path class="cls-13" d="m1129.99,690.57c112.14-10.5,234.15-181.09,234.15-181.09l-130.21,264.82-16.12-1.46c-96.2-8.66-191.09-26.44-283.52-52.99-92.35-26.55-182.24-61.87-268.32-105.66l.96-19.55c199.14,80.99,350.57,106.47,463.06,95.93Z"/>
  </g>
  <g class="cls-7">
    <path class="cls-2" d="m857.67,440.73c21.24-3.77,41.25-16.16,54.37-37.98l166.27-277.13c-19.51-14.81-29.01-40.52-21.93-65.49,8.97-31.94,41.63-50.83,73.61-42.98-20.74,5.12-38.25,20.93-44.41,42.98-7.08,24.97,2.42,50.68,21.9,65.49l-166.27,277.13c-14.08,23.47-36.17,36.02-59.14,38.71-8.12,1-16.35.73-24.4-.73Z"/>
  </g>
  <g class="cls-7">
    <path class="cls-2" d="m852.87,441.47l-.54,14.03-41.07,2.88c-38.82,2.72-73.19-24.85-78.98-63.33l-25.47-170.01s34.67-10.45,28.11-49.68c-6.64-39.7-55.88-33.92-55.88-33.92l4.75-12.39c11.96-4.62,25.46-5.55,38.77-1.82,32.59,9.22,51.59,43.09,42.4,75.71-4.99,17.67-17.19,31.32-32.54,38.69l31.4,137.52c10.12,44.36,50.81,66.91,89.05,62.31Z"/>
  </g>
  <g class="cls-7">
    <path class="cls-2" d="m1154.08,520.64l-6.94,11.79,32.16,23.95c30.4,22.64,73.07,18.1,98.04-10.41l110.25-126s-22.93-26.8,3.07-55.51c26.31-29.06,63.65,1.57,63.65,1.57l2.62-12.65c-7.37-10.08-17.96-17.93-30.83-21.87-31.57-9.57-64.95,8.21-74.57,39.78-5.2,17.11-2.37,34.72,6.34,48.82l-98.04,96.24c-31.62,31.04-76.83,28.15-105.76,4.28Z"/>
  </g>
  <path class="cls-4" d="m765.56,200.56l-12.11-52.99c11.72,14.35,16.74,33.78,12.11,52.99Z"/>
  <path class="cls-13" d="m1243.07,790.56l-26.64-2.39c-195.19-17.51-382.74-71.42-557.43-160.24l-8.89-4.52,18.2-370.18c-30.24-17.05-45.97-53.48-36.32-87.74,5.56-19.74,18.48-36.12,36.36-46.15,17.88-10.02,38.61-12.48,58.34-6.91,19.74,5.56,36.12,18.48,46.15,36.36,10.02,17.89,12.48,38.61,6.91,58.34-4.83,17.13-15.44,31.94-29.84,42.03l28.89,126.57c7.26,31.8,32.42,46.73,53.54,50.1,21.13,3.37,49.67-3.01,66.45-30.98l159.83-266.39c-17.73-19.36-24.43-46.52-17.1-72.51,11.48-40.74,53.97-64.54,94.7-53.06,40.74,11.48,64.54,53.97,53.06,94.7-7.03,24.94-26,44.31-50.07,52.16l5.75,314.83c.6,32.8,22.33,52.56,42.47,60.12,20.13,7.55,49.5,6.96,71.53-17.35l79.01-87.22c-9.46-17.44-11.92-38.12-6.46-57.48,11.48-40.73,53.97-64.55,94.7-53.06,40.74,11.48,64.54,53.97,53.06,94.7h0c-9.41,33.4-39.98,55.9-73.76,55.93l-162.47,330.33Zm-561.23-185.59c168.65,84.37,349.37,135.67,537.34,152.54l5.59.5,162.69-330.77,11.15,1.69c22.82,3.47,44.79-10.72,51.07-32.98h0c3.33-11.82,1.86-24.23-4.14-34.95-6-10.71-15.82-18.45-27.64-21.78-24.42-6.86-49.85,7.38-56.73,31.78-3.99,14.16-.9,29.52,8.28,41.08l8.12,10.23-95.75,105.7c-27.09,29.9-67.38,39.68-105.16,25.5-37.78-14.17-61.7-48.03-62.44-88.38l-6.23-340.96,13.58-1.84c18.18-2.46,33.15-15.45,38.12-33.1,6.88-24.4-7.38-49.85-31.78-56.73-11.82-3.33-24.23-1.86-34.95,4.14-10.71,6-18.45,15.82-21.78,27.64-5.16,18.3,1.3,37.57,16.44,49.08l10.98,8.34-173.38,288.97c-20.64,34.4-58.07,51.84-97.69,45.54-39.62-6.31-69.78-34.53-78.71-73.64l-34.13-149.51,11.08-5.32c11.92-5.72,20.8-16.28,24.38-28.97,6.88-24.4-7.38-49.85-31.78-56.73-24.42-6.86-49.85,7.38-56.73,31.78-6.42,22.77,5.88,47.14,27.99,55.46l10.5,3.96-18.28,371.71Zm782.64-204.85h.05-.05Z"/>
  <polygon class="cls-12" points="962.2 611.5 933.05 517.4 1011.73 458.12 1040.88 552.22 962.2 611.5"/>
  <g class="cls-6">
    <polygon class="cls-2" points="933.05 517.4 1011.73 458.12 986.98 533.41 933.05 517.4"/>
  </g>
  <path class="cls-13" d="m953.98,636.97l-38.84-125.35,104.81-78.97,38.84,125.35-104.81,78.97Zm-3.02-113.79l19.47,62.85,52.55-39.6-19.47-62.85-52.55,39.59Z"/>
  <path class="cls-10" d="m813.05,1748.9l9.98,34.41c2.25,7.75,9.23,13.17,17.29,13.42l35.81,1.14c18.03.57,24.79,23.89,9.87,34.02l-29.64,20.12c-6.67,4.53-9.67,12.85-7.42,20.59l9.98,34.41c5.03,17.33-15.06,30.96-29.31,19.9l-28.3-21.97c-6.37-4.95-15.21-5.23-21.88-.7l-29.64,20.12c-14.92,10.13-34.1-4.75-27.98-21.72l12.15-33.7c2.74-7.59.27-16.08-6.1-21.03l-28.3-21.97c-14.25-11.06-6.02-33.9,12.01-33.32l35.81,1.14c8.06.26,15.38-4.71,18.11-12.3l12.15-33.7c6.12-16.97,30.38-16.2,35.4,1.13Z"/>
  <path class="cls-10" d="m813.05,1748.9l9.98,34.41c2.25,7.75,9.23,13.17,17.29,13.42l35.81,1.14c18.03.57,24.79,23.89,9.87,34.02l-29.64,20.12c-6.67,4.53-9.67,12.85-7.42,20.59l9.98,34.41c5.03,17.33-15.06,30.96-29.31,19.9l-28.3-21.97c-6.37-4.95-15.21-5.23-21.88-.7l-29.64,20.12c-14.92,10.13-34.1-4.75-27.98-21.72l12.15-33.7c2.74-7.59.27-16.08-6.1-21.03l-28.3-21.97c-14.25-11.06-6.02-33.9,12.01-33.32l35.81,1.14c8.06.26,15.38-4.71,18.11-12.3l12.15-33.7c6.12-16.97,30.38-16.2,35.4,1.13Z"/>
  <g class="cls-5">
    <path class="cls-13" d="m813.05,1748.9l9.98,34.41c2.25,7.75,9.23,13.17,17.29,13.42l35.81,1.14c18.03.57,24.79,23.89,9.87,34.02l-29.64,20.12c-6.67,4.53-9.67,12.85-7.42,20.59l9.98,34.41c5.03,17.33-15.06,30.96-29.31,19.9l-28.3-21.97c-6.37-4.95-15.21-5.23-21.88-.7l-29.64,20.12c-14.92,10.13-34.1-4.75-27.98-21.72l12.15-33.7c2.74-7.59.27-16.08-6.1-21.03l-28.3-21.97c-14.25-11.06-6.02-33.9,12.01-33.32l35.81,1.14c8.06.26,15.38-4.71,18.11-12.3l12.15-33.7c6.12-16.97,30.38-16.2,35.4,1.13Z"/>
  </g>
  <path class="cls-10" d="m803.5,1755.87l11.19,38.58c1.08,3.74,4.45,6.35,8.34,6.48l40.15,1.28c8.7.28,11.96,11.53,4.76,16.42l-33.24,22.57c-3.22,2.19-4.67,6.2-3.58,9.94l11.19,38.58c2.42,8.36-7.26,14.94-14.14,9.6l-31.73-24.64c-3.07-2.39-7.34-2.52-10.56-.34l-33.24,22.57c-7.2,4.89-16.45-2.29-13.5-10.48l13.62-37.79c1.32-3.66.13-7.76-2.94-10.15l-31.73-24.64c-6.88-5.34-2.9-16.36,5.8-16.08l40.15,1.28c3.89.12,7.42-2.27,8.74-5.93l13.62-37.79c2.95-8.19,14.66-7.82,17.08.54Z"/>
  <g class="cls-6">
    <path class="cls-2" d="m862.87,1817.35l-41.15-1.29c-3.14-.1-5.91-2.11-6.96-5.07l-12.66-35.48c-2.33-6.52-11.43-6.84-14.21-.5l-15.2,34.69c-1.26,2.86-4.13,4.68-7.25,4.58l-42.16-1.36c-7.77-.25-10.52-11.11-3.46-14.34,1.2-.55,2.59-.85,4.12-.8l40.13,1.27c3.89.12,7.43-2.27,8.73-5.93l13.62-37.79c2.96-8.2,14.66-7.81,17.09.54l11.2,38.59c1.08,3.73,4.46,6.35,8.35,6.46l40.13,1.27c1.53.05,2.9.44,4.06,1.07,6.83,3.69,3.38,14.33-4.37,14.08Z"/>
  </g>
  <path class="cls-13" d="m841,1946.34c-7.31,0-14.59-2.43-20.82-7.27l-28.3-21.97c-1.11-.86-2.63-.91-3.8-.12l-29.63,20.12c-12.42,8.43-28.11,7.93-39.97-1.27-11.86-9.2-16.23-24.28-11.14-38.4l12.15-33.7c.48-1.32.05-2.79-1.05-3.65l-28.3-21.97c-11.86-9.2-16.23-24.28-11.14-38.4,5.09-14.13,17.95-22.97,33.08-22.46l35.81,1.14c1.38-.03,2.67-.82,3.14-2.13l12.15-33.7c5.09-14.12,18.07-22.95,33.08-22.46,15,.48,27.4,10.1,31.58,24.52l9.98,34.41c.39,1.35,1.6,2.28,3,2.33l35.8,1.14c15,.48,27.4,10.1,31.58,24.52,4.18,14.42-1.14,29.18-13.56,37.62l-29.63,20.12c-1.16.79-1.68,2.22-1.29,3.57l9.98,34.41c4.18,14.42-1.14,29.18-13.56,37.61-5.9,4-12.53,6-19.15,6Zm-51.1-60.72c7.37,0,14.72,2.4,20.86,7.17l28.3,21.97c.51.39,1.86,1.44,3.8.12,1.94-1.32,1.47-2.96,1.29-3.57l-9.98-34.41c-4.12-14.19,1.33-29.31,13.56-37.61l29.63-20.12c.53-.36,1.94-1.32,1.29-3.57-.65-2.25-2.36-2.31-3-2.33l-35.81-1.14c-14.78-.47-27.47-10.33-31.58-24.52l-9.98-34.41c-.18-.62-.65-2.25-3-2.33-2.41-.05-2.92,1.53-3.14,2.13l-12.15,33.7c-5.02,13.91-18.31,22.91-33.09,22.46l-35.8-1.14c-.65-.02-2.34-.07-3.14,2.13-.8,2.21.55,3.25,1.06,3.65l28.3,21.97c11.68,9.06,16.15,24.49,11.14,38.4l-12.15,33.7c-.22.6-.8,2.21,1.06,3.65,1.85,1.43,3.27.48,3.8.12l29.64-20.12c5.8-3.94,12.47-5.89,19.11-5.89Z"/>
  <g class="cls-7">
    <path class="cls-2" d="m1731.65,1226.22s17.08,24.07,16.02,62.65c-.68,24.93-14.72,48.45-19.38,45.86-5.26-2.93-1.36-22.37-5.08-73.63-1.42-19.6-10.27-64.3,8.44-34.87Z"/>
  </g>
  <g class="cls-7">
    <path class="cls-2" d="m1606.7,1226.22s-17.08,24.07-16.02,62.65c.68,24.93,14.72,48.45,19.38,45.86,5.26-2.93,1.36-22.37,5.08-73.63,1.42-19.6,10.27-64.3-8.44-34.87Z"/>
  </g>
</svg>