<?xml version="1.0" encoding="UTF-8"?>
<svg id="Layer_1" data-name="Layer 1" xmlns="http://www.w3.org/2000/svg" viewBox="0 0 2957.92 2786.44">
  <defs>
    <style>
      .cls-1 {
        fill: #fff;
      }

      .cls-2 {
        fill: #121a27;
      }

      .cls-3 {
        opacity: .4;
      }

      .cls-3, .cls-4, .cls-5, .cls-6, .cls-7 {
        fill: none;
      }

      .cls-8 {
        fill: #ff4747;
      }

      .cls-9 {
        fill: #06b3ff;
      }

      .cls-10 {
        fill: #fff647;
      }

      .cls-4 {
        opacity: .6;
      }

      .cls-5 {
        opacity: .5;
      }

      .cls-11 {
        fill: #371b45;
      }

      .cls-6 {
        opacity: .2;
      }

      .cls-12 {
        fill: #090069;
      }

      .cls-7 {
        opacity: .25;
      }

      .cls-13 {
        fill: #65dcfc;
      }

      .cls-14 {
        fill: #ff8138;
      }

      .cls-15 {
        fill: #39a1ff;
      }
    </style>
  </defs>
  <g>
    <path class="cls-1" d="m2122.98,643.55l95.22,757.08h107.8c18.9,0,34.88-11.52,41.76-27.63,2.91-6.81,4.21-14.37,3.41-22.3l-65.86-651.44c-2.11-21.31-18.96-38.29-40.33-40.52l-142-15.18Z"/>
    <path class="cls-11" d="m2325.99,1416.1h-107.79c-8.55,0-15.49-6.93-15.49-15.49s6.93-15.49,15.49-15.49h107.79c8.56,0,16.43-3.5,22.17-9.84,5.74-6.35,8.43-14.54,7.57-23.05l-65.81-651.4c-1.41-13.99-12.58-25.23-26.57-26.72l-142.01-15.14c-8.51-.91-14.67-8.54-13.76-17.04.9-8.51,8.62-14.66,17.04-13.76l142.01,15.14c28.48,3.03,51.24,25.92,54.11,54.41l65.81,651.4c1.73,17.09-3.89,34.2-15.41,46.94-11.52,12.74-27.97,20.05-45.15,20.05Z"/>
    <path class="cls-1" d="m2366.12,1113.74l7.29,69.7c1.96,18.77-11.69,35.57-30.46,37.49l-94.92,9.71"/>
    <path class="cls-11" d="m2248,1246.13c-7.85,0-14.58-5.94-15.39-13.92-.87-8.51,5.33-16.11,13.83-16.98l94.92-9.71c4.96-.51,9.42-2.92,12.56-6.78,3.14-3.87,4.59-8.73,4.07-13.69l-7.29-69.7c-.89-8.51,5.29-16.12,13.79-17.01,8.52-.91,16.12,5.29,17.02,13.8l7.29,69.7c1.38,13.2-2.47,26.14-10.84,36.44-8.37,10.3-20.25,16.72-33.45,18.07l-94.92,9.71c-.54.06-1.07.08-1.6.08Z"/>
    <path class="cls-1" d="m813.89,1145.93c23.6,0,58.79-17.97,72.61-25.52,3.47-1.92,5.58-3.16,5.82-3.28-.93,1.98-20.69,42.44-9.23,68.96h.06c4.77,11.15,15.12,19.82,34.76,22.12,67.41,7.68,59.17-118.02,282.2-111.83,138.59,3.84,191.44,20.44,211.57,32.46,12.33,7.37,12.45,13.01,12.45,13.01l7.25,197.2s-142.49-125.46-233.88-48.01c-78.93,66.85-101.23,216.9-92.93,316.4,1.36,15.74,3.41,30.23,6.2,42.93,20.14,92.93,500.28-17.04,500.28-17.04l126.2-32.77c2.54-.62,3.9-.99,3.9-.99l108.98-28.31,269.62-70.07,7.68-1.98,121.74,7.55s8.73-231.45-10.47-388.57c-.62-4.77-1.24-9.54-1.86-14.25-.06-.12-.06-.19-.06-.31,0,0,.19.12.56.25,2.11,1.05,10.22,4.96,22.43,9.66q0,.06.06.06c.56.19,1.12.43,1.67.62.19.06.43.19.68.25,19.76,7.5,49.25,16.73,81.53,20.14,56.94,5.95,122.67-6.07,159.47-77.44,16.85-32.65,17.22-67.1,5.14-100.99v-.06c-40.89-115.48-225.2-224.64-387.89-236.6l-604.36,66.1s-475,14.75-662.91,170.5c-50.18,41.63-78.56,74.53-92.5,100.43-38.35,71.12,31.29,89.4,53.22,89.4Z"/>
    <ellipse class="cls-9" cx="1556.84" cy="1188.29" rx="43.37" ry="46.47"/>
    <path class="cls-11" d="m1228.19,1703.06c-48.04,0-88.04-5.4-110.36-19.59-12.11-7.7-19.58-17.73-22.2-29.83-22.19-102.41-2.24-294.68,91.86-374.43,76-64.4,178.91-6.89,227.2,27.29l-5.89-160.78c-5.49-5.39-39.18-29.14-209.14-33.86-135.05-3.75-179.75,41.96-212.35,75.34-20.09,20.58-39.08,40-71.14,36.34-26.91-3.1-39.5-16.57-45.32-27.33-8.07-14.92-7.85-32.79-4.93-48.42-16.45,7.1-35.93,13.63-52.02,13.63-23.12,0-64.36-12.64-76.59-46.56-15.48-42.94,19.17-98.77,105.94-170.69,189.83-157.34,652.7-173.48,672.3-174.09,8.59-.23,15.7,6.45,15.96,15,.27,8.55-6.45,15.7-15,15.96-4.7.15-471.85,16.42-653.51,166.98-101.26,83.93-101.26,123.3-96.57,136.33,7.09,19.66,37.7,26.08,47.45,26.08,21,0,58.05-19.3,70.56-26.73,5.91-3.51,13.43-2.71,18.47,1.98,5.03,4.69,6.38,12.13,3.29,18.28-4.87,9.8-16.85,41.45-8.12,57.53,1.25,2.32,5.08,9.36,21.59,11.26,16.25,1.88,26.21-7.51,45.44-27.2,34.53-35.36,86.79-88.73,235.37-84.67,206.82,5.74,238.59,40.38,239.12,60.51l7.22,197.06c.22,6.18-3.25,11.91-8.84,14.56s-12.23,1.72-16.87-2.37c-1.33-1.16-133.57-115.68-213.62-47.82-87.87,74.46-99.69,260.83-81.62,344.24.3,1.38,1.21,5.59,8.54,10.24,65.72,41.77,363.82-14.06,473.14-39.1l626.5-124.28c1.49-51.22,5.85-252.09-12.66-388.24-.78-5.71,1.68-11.37,6.37-14.71,4.7-3.34,10.85-3.79,15.99-1.18,7.28,3.68,179.25,88.83,245.62-39.76,18.06-34.98,15.47-73.7-7.7-115.07-55.82-99.69-218.41-189.42-362.44-200.02-8.53-.63-14.94-8.05-14.31-16.58.62-8.53,7.94-14.95,16.58-14.31,155.79,11.46,325.86,106.25,387.2,215.78,28.16,50.3,31,100.24,8.2,144.42-33.59,65.09-94.67,94.67-176.56,85.54-33.97-3.79-64.59-13.48-84.97-21.29,17.35,158.21,9.32,376.52,9.23,378.83-.27,7.17-5.43,13.21-12.47,14.6l-638.12,126.58c-30.71,7.04-243.5,54.53-385.87,54.54Zm180.49-560.67c0,.1,0,.2,0,.29v-.29Z"/>
    <g>
      <path class="cls-1" d="m2202.78,477.7c4.38,259.67-207.83,473.86-473.95,478.35-39.22.66-77.43-3.29-114.06-11.34h-.15c-211.91-46.39-371.81-229.42-375.55-450.75-1.45-86.23,20.97-167.45,61.29-237.61l.05-.05c81.14-141.21,234.83-237.75,412.56-240.74,266.13-4.49,485.44,202.42,489.82,462.15Z"/>
      <g class="cls-7">
        <path class="cls-11" d="m2202.78,477.7c4.38,259.67-207.83,473.86-473.95,478.35-39.22.66-77.43-3.29-114.06-11.34h-.15c-55.44-12.12-107.32-33.6-153.75-62.75,10.37,3.03,20.9,5.69,31.52,8.04h.15c36.63,8.05,74.84,12,114.06,11.34,266.13-4.49,478.33-218.68,473.95-478.35-2.76-163.43-90.59-305.92-221.64-388,195.98,56.88,340.33,232.53,343.87,442.72Z"/>
      </g>
      <path class="cls-11" d="m2072.13,630.79c-68.36,207.01-260.46,340.59-457.37,313.92h-.15c-211.91-46.39-371.81-229.42-375.55-450.75-1.45-86.23,20.97-167.45,61.29-237.61l.05-.05c154.81-183.49,533.58-220.85,734.34,125.39l37.39,249.1Z"/>
      <path class="cls-2" d="m2072.13,630.79c-68.36,207.01-260.46,340.59-457.37,313.92h-.15c-74.35-16.29-142.27-49.37-199.31-95.07,13.5,4.42,27.34,8.16,41.38,11.23h.15c33.21,7.28,67.86,10.88,103.41,10.28,241.3-4.07,433.72-198.26,429.75-433.73-1.01-60.12-14.73-117.13-38.62-168.61,30.06,31.86,58.11,69.33,83.36,112.88l37.39,249.1Z"/>
      <path class="cls-11" d="m1720.42,971.61c-36.51,0-72.83-3.89-108.12-11.59-.34-.05-.67-.11-1-.18-224.49-49.15-383.93-240.62-387.72-465.62-1.45-86.02,20.46-170.94,63.35-245.58.12-.21.24-.42.38-.62C1373.76,98.03,1536.7,3.04,1712.7.07c132.77-2.21,258.48,46.14,353.96,136.21,95.58,90.18,149.42,211.34,151.61,341.16,2.19,129.8-47.54,252.69-140.02,346.03-92.38,93.24-216.38,145.83-349.16,148.06-2.89.05-5.78.07-8.67.07Zm-103.33-42.21c.34.05.68.11,1,.18,36,7.92,73.14,11.63,110.48,10.98,124.64-2.1,241.02-51.43,327.68-138.89,86.56-87.36,133.1-202.32,131.05-323.71-2.05-121.41-52.44-234.75-141.89-319.15-89.56-84.5-207.56-129.86-332.17-127.77-165.39,2.79-318.42,92.06-399.39,232.97-.12.21-.24.41-.37.61-39.89,69.66-60.27,148.85-58.92,229.07,3.54,210.3,152.59,389.35,362.54,435.71Z"/>
      <path class="cls-11" d="m2110.52,658.48c-7.77,0-14.47-5.84-15.37-13.75l-33.12-291.94c-107.45-224.95-346.98-313.09-528.72-283.85-8.43,1.37-16.39-4.38-17.75-12.83-1.36-8.44,4.38-16.39,12.83-17.75,102.09-16.44,212.78.99,311.71,49.03,111.15,53.97,197.95,141.97,251.03,254.48.72,1.54,1.19,3.18,1.38,4.86l33.42,294.5c.96,8.5-5.15,16.17-13.64,17.14-.6.07-1.19.1-1.77.1Z"/>
      <g>
        <ellipse class="cls-1" cx="2120.42" cy="491.33" rx="122.58" ry="152.26" transform="translate(-7.98 35.83) rotate(-.97)"/>
        <g class="cls-7">
          <path class="cls-11" d="m2242.98,489.26c1.42,84.06-52.29,153.16-119.99,154.3-66.62,1.12-121.92-64.02-124.96-146.19,22.26,25.18,52.04,40.31,84.45,39.77,67.71-1.14,121.41-70.24,119.99-154.3-.02-1.34-.05-2.68-.17-3.97,24.36,27.36,39.94,66.59,40.68,110.4Z"/>
        </g>
        <path class="cls-11" d="m2121.26,659.06c-36.78,0-71.36-17.24-97.59-48.71-25.88-31.07-40.55-72.51-41.3-116.69-.75-44.18,12.51-86.1,37.34-118.02,25.6-32.92,60.36-51.4,97.87-52.03.65-.01,1.3-.02,1.94-.02,75.25,0,137.39,73.71,138.94,165.41h0c1.56,92.48-59.11,168.77-135.22,170.05-.66.01-1.33.02-1.99.02Zm-1.71-304.5c-.48,0-.95,0-1.44.01-27.95.47-54.21,14.7-73.94,40.07-20.5,26.36-31.45,61.34-30.82,98.48.62,37.14,12.74,71.73,34.12,97.39,20.57,24.69,47.32,37.89,75.25,37.55,59.04-.99,106.04-63.16,104.77-138.55h0c-1.26-74.79-49.55-134.95-107.95-134.95Z"/>
        <path class="cls-11" d="m2153.79,636.58c-55.06,0-100.75-65.15-102.11-146.03-.65-38.69,8.75-75.38,26.46-103.31,18.57-29.27,44.09-45.64,71.84-46.11.39,0,.79-.01,1.18-.01,55.06,0,100.75,65.15,102.11,146.03.65,38.69-8.75,75.38-26.46,103.31-18.57,29.27-44.09,45.64-71.84,46.11-.39,0-.79.01-1.18.01Zm-2.6-274.81c-.29,0-.58,0-.86,0-20.58.35-40.02,13.32-54.76,36.53-15.58,24.56-23.84,57.19-23.25,91.9,1.17,69.61,37.62,125.73,81.43,125.73.29,0,.58,0,.86,0,20.58-.35,40.02-13.32,54.76-36.53,15.58-24.56,23.84-57.19,23.25-91.9-1.17-69.61-37.62-125.73-81.43-125.73Z"/>
      </g>
      <g class="cls-5">
        <path class="cls-1" d="m1630.06,212.25c-192.64,98.17-268.81,264.09-251.65,484.3-98.59-247.9-94.38-447.09,251.65-484.3Z"/>
      </g>
      <g class="cls-5">
        <path class="cls-1" d="m1863.18,618.12c-7.09,27.61-19.32,66.21-38.55,100.78-10.47,18.83-1.83,42.59,18.15,50.66l10.39,4.19c15.32,6.18,32.89,1.15,42.64-12.19,28.85-39.46,43.15-84.93,38.06-138.43-1.34-14.12-11.26-25.96-24.76-30.31h0c-19.75-6.37-40.78,5.2-45.94,25.3Z"/>
      </g>
      <g class="cls-5">
        <circle class="cls-1" cx="1882.57" cy="486.26" r="41.54" transform="translate(579.02 1928.92) rotate(-62.38)"/>
      </g>
    </g>
    <path class="cls-11" d="m2194.97,1256.96c-45.92-101.88-143.02-204.53-263.77-166.7-70,21.48-113.03,84.08-115.39,156.27-.77,30.14-.08,104.07-.3,135.11-.54,20.33-30.34,20.58-30.98,0,0,0,0-90.64,0-90.64v-22.66c-1.85-56.38,14.11-115.47,54.49-156.59,56.92-59.74,152.15-77.69,227.09-43.45,71.53,35.91,113.56,113.31,128.87,188.65h0Z"/>
    <path class="cls-11" d="m2098.94,1221.33c20.15,90.01,30.35,181.79,34.55,273.78.11,6.9-4.89,12.69-11.49,13.79-.04.1-331.61,87.74-331.68,87.83-7.72,2.04-15.64-2.28-18.27-9.67-6.11-17.6-9.93-34.21-13-52.24-8.82-53.43-5.52-112.27,25.8-158.6,11.9-16.66,36.64.05,25.71,17.28-8.44,12.57-14.7,26.66-18.67,41.68-11.77,45.92-5.39,96.46,9.23,141.14,0,0-18.49-9.6-18.49-9.6,0,0,331.45-87.77,331.45-87.77l-11.45,16.52c-8.57-45.12-10.76-90.82-10.27-136.66.19-45.91,1.43-91.72,6.58-137.49h0Z"/>
    <path class="cls-11" d="m1779.32,1572.17c-.52,0-1.05-.03-1.59-.08-8.51-.87-14.71-8.47-13.84-16.98,10.16-99.94,61.77-168.46,141.59-187.99,82.29-20.14,175.85,16.68,222.41,87.56,4.7,7.15,2.71,16.75-4.44,21.45-7.15,4.7-16.75,2.71-21.45-4.44-38.96-59.31-120.23-91.33-189.16-74.48-67.29,16.46-109.25,73.65-118.13,161.03-.81,7.98-7.54,13.92-15.39,13.92Z"/>
    <path class="cls-11" d="m1549.1,1462.18l-128.91-112.43c-6.47-5.65-7.14-15.47-1.5-21.94,6.23-7.3,17.99-7.01,23.89.54,0,0,106.52,133.84,106.52,133.84h0Z"/>
    <path class="cls-11" d="m1358.61,1703.16c-.83,0-1.67-.07-2.5-.2-8.44-1.37-14.17-9.33-12.8-17.78l32.52-199.93c1.37-8.44,9.36-14.17,17.77-12.8,8.44,1.37,14.17,9.33,12.8,17.78l-32.52,199.93c-1.24,7.6-7.81,13-15.27,13Z"/>
    <path class="cls-11" d="m1376.05,1484.16l35.72-83.55-5.58,90.69c-3.02,24.29-38.35,15.91-30.14-7.14h0Z"/>
    <path class="cls-11" d="m1408.7,1142.84l6.6-135.25,24.31,133.21c1.55,8.47-4.07,16.59-12.54,18.14-9.72,1.91-18.96-6.24-18.37-16.1h0Z"/>
    <path class="cls-11" d="m1126.94,1115.19c-3.86,0-7.73-1.44-10.73-4.32-86.23-82.89-61-253.23-59.88-260.45,1.31-8.45,9.19-14.24,17.67-12.93,8.45,1.3,14.25,9.21,12.95,17.66-.25,1.61-23.85,161.69,50.73,233.38,6.17,5.93,6.36,15.73.43,21.9-3.04,3.16-7.1,4.76-11.17,4.76Z"/>
    <path class="cls-11" d="m2439.68,962.67c-37.68-40.81-81.99-99.93-140.73-97.26-56.28,5.12-116.59,39.82-136.55,93.96-3.48,10.17-4.89,20.97-2.75,29.11,2.39,8.23,6.17,12.11,15.19,14.96,20.65,6.27,45.42-2.19,66.59-7.24,24.64-5.11,48.94-9.9,72.79-19.96-13.62,23.93-38.64,39.33-63.11,50.58-12.67,5.35-26.49,7.27-40.48,8.64-14,1.38-28.65,2.2-44.57-2.31-38.11-10.23-44.96-52.03-32.98-83.77,25.21-67.88,95.2-108.61,164.35-114.91,75.34-4.38,135.97,54.82,142.24,128.2h0Z"/>
    <path class="cls-11" d="m2205.11,1129.2c-7.44,0-14.8-1.53-21.74-4.66-18.19-8.22-48.41-34.38-46.38-117.32.21-8.42,7.1-15.11,15.48-15.11.13,0,.25,0,.39,0,8.55.21,15.31,7.31,15.1,15.86-1.15,46.83,9.38,79.85,28.16,88.33,9.4,4.24,20.8,1.41,30.49-7.57,13.57-12.57,24.96-39.59,12.37-74.37-2.91-8.04,1.25-16.92,9.29-19.84,8.02-2.91,16.92,1.25,19.83,9.29,17.76,49.03.09,88.63-20.44,107.64-12.56,11.63-27.69,17.74-42.54,17.74Z"/>
    <path class="cls-11" d="m2409.87,918.15c-6.53,0-12.61-4.17-14.73-10.72-2.63-8.14,1.83-16.87,9.97-19.51,43.4-14.06,68.44-9.21,71.16-8.61,8.35,1.84,13.63,10.11,11.79,18.46-1.83,8.3-9.99,13.56-18.29,11.82-.72-.13-20.31-3.47-55.11,7.8-1.58.51-3.19.76-4.78.76Z"/>
    <path class="cls-11" d="m2144.41,1066.3l-67.67-58.71,83.62,32.16c22.31,10.17,3.51,41.48-15.95,26.56h0Z"/>
    <path class="cls-11" d="m1544.92,1367.07c-38.98,0-72.63-29.01-77.85-68.19l-22.56-169.42c-2.86-21.45,1.93-43.36,13.49-61.67l10.4-16.48c13.25-21,35.93-34.69,60.67-36.64l379.67-29.91c28.88-2.3,55.25,17.42,61.21,45.83l7.17,34.2c1.76,8.37-3.6,16.58-11.98,18.34-8.33,1.75-16.58-3.6-18.34-11.98l-7.18-34.2c-2.77-13.21-15.03-22.36-28.46-21.31l-379.67,29.92c-15.05,1.19-28.85,9.52-36.9,22.29l-10.4,16.48c-7.7,12.19-10.88,26.77-8.98,41.05l22.56,169.42c3.31,24.85,25.53,42.96,50.5,41.19l250.66-17.55c8.66-.58,15.94,5.83,16.53,14.37.6,8.53-5.83,15.93-14.37,16.53l-250.67,17.55c-1.85.13-3.68.19-5.51.19Z"/>
    <path class="cls-11" d="m1460.87,1150.42c-.19,0-.38,0-.57,0-8.55-.31-15.23-7.49-14.92-16.04,1.66-45.67,39.5-60.32,59.28-61.69,3.15-.28,343.51-30.2,375.25-34.73,18.16-2.59,29.4,3.44,35.64,8.96,13.96,12.34,14.01,31.19,13.97,33.3-.16,8.55-7.08,15.43-15.78,15.19-8.5-.16-15.27-7.14-15.2-15.61-.03-2.22-.93-7.46-3.57-9.73-2.47-2.11-7.18-1.95-10.68-1.45-32.57,4.65-363.15,33.71-377.21,34.95-5.09.44-29.73,3.98-30.75,31.93-.3,8.36-7.17,14.93-15.47,14.93Z"/>
    <path class="cls-11" d="m1655.18,1351.44c-6.4,0-11.83-4.93-12.34-11.42l-6.77-85.81c-1.94-24.52,13.05-46.95,36.44-54.56l34.55-11.24c12.39-4.03,20.37-15.91,19.4-28.89l-6.18-83.91c-.5-6.83,4.62-12.77,11.45-13.27,6.71-.49,12.77,4.62,13.27,11.45l6.18,83.9c1.8,24.39-13.19,46.72-36.46,54.28l-34.55,11.24c-12.45,4.05-20.43,15.99-19.39,29.04l6.77,85.81c.54,6.82-4.56,12.79-11.38,13.33-.33.02-.66.04-.99.04Z"/>
    <path class="cls-11" d="m1556.84,1247.15c-30.75,0-55.76-26.4-55.76-58.86s25.01-58.86,55.76-58.86,55.76,26.4,55.76,58.86-25.01,58.86-55.76,58.86Zm0-92.93c-17.08,0-30.98,15.29-30.98,34.07s13.9,34.08,30.98,34.08,30.98-15.29,30.98-34.08-13.9-34.07-30.98-34.07Z"/>
    <path class="cls-1" d="m1466.77,1179.31s-11.4.74-26.17.58c-8.96-.1-16.19,7.34-15.91,16.3l1.98,62.29c.26,8.29,6.87,14.97,15.17,15.29,11.5.44,27.15.35,37.18-2.53l-12.24-91.93Z"/>
    <path class="cls-11" d="m1451.74,1289.46c-3.33,0-6.83-.07-10.5-.21-16.33-.62-29.53-13.92-30.05-30.27l-1.98-62.3c-.27-8.49,2.98-16.84,8.93-22.91,5.93-6.05,14.17-9.34,22.62-9.37,13.98.17,24.89-.54,25-.54,8.21-.49,15.28,5.34,16.35,13.41l12.24,91.94c1.02,7.61-3.7,14.81-11.08,16.93-7.71,2.21-18.29,3.33-31.54,3.33Zm-11.31-94.08l1.72,62.61c7.32.43,13.94.46,19.49.17l-8.37-62.84c-3.79.08-8.15.11-12.85.06Z"/>
    <g class="cls-7">
      <path class="cls-11" d="m1779.3,952.64s303.29,41.53,426.85-210.42l-67.17-22.72s-77.86,197.8-359.69,233.13Z"/>
    </g>
    <path class="cls-11" d="m2184.68,919.99c10.47-11.71,19.64-20.2,21.25-21.68-9.98,6.88-16.85,14.25-21.25,21.68Z"/>
    <g class="cls-7">
      <path class="cls-11" d="m2167.58,1007.59c42,17.53,48.45,15.36,48.94,13.01,2.23,10.66,12.02,68.46-38.6,67.53,0,0,11.09,43.43,38.6,23.98,7.74-5.51,14.56-7.81,20.32-8.18.19-.06.31-.06.5-.06,13.51-.74,21.37,8.36,22.43,9.66q0,.06.06.06c.06.06.06.12.06.12,0,0,.56.19,1.61.5.19.06.43.19.68.25,8.61,2.73,41.08,12.64,81.53,20.14,56.94,5.95,122.67-6.07,159.47-77.44,16.85-32.65,17.22-67.1,5.14-100.99-.56,3.35-16.36,95.84-121.8,96.83-107.43,1.05-55.76-71.25-55.76-71.25,0,0-35.38-52.66-82.77-15.49-39.71,31.23-86.36-7.5-63.32-46.28-24.22,27.07-55.51,71.56-17.1,87.6Z"/>
    </g>
    <g class="cls-7">
      <path class="cls-11" d="m813.89,1145.93c23.6,0,58.79-17.97,72.61-25.52,23.73-36.3,28.62-69.45,28.62-69.45-107.49,71.93-145.16,23.11-154.45,5.58-38.35,71.12,31.29,89.4,53.22,89.4Z"/>
    </g>
    <g class="cls-7">
      <path class="cls-11" d="m883.16,1186.08c4.77,11.15,15.12,19.82,34.76,22.12,67.41,7.68,59.17-118.02,282.2-111.83,138.59,3.84,191.44,20.44,211.57,32.46,7.99-3.1,13.01-5.08,13.01-5.08l-9.42-72.8-6.63-74.72s-335.05-22.86-407.84,84.01c-72.8,106.87-69.02,118.46-117.65,125.83Z"/>
    </g>
    <g class="cls-7">
      <path class="cls-11" d="m2114.55,1339.04l12.89,160.15,121.74,7.55s8.73-231.45-10.47-388.57c-2.54,1.49-34.76,20.69-55.08-4.46-21.19-26.08-26.33-63.26-26.33-63.26l-25.9-10.04s19.7,74.59,18.15,123.6c-1.55,49.07-35,175.02-35,175.02Z"/>
    </g>
    <g class="cls-7">
      <path class="cls-11" d="m1850.13,1571.25l269.62-70.07c2.54-54.09,4.89-170.81-17.9-231.34l-.8-13.2s-4.71-55.94-38.78-107.61c0,0,19.45,209.4-74.41,231.71h-35.87s83.45,109.72-63.19,170.81c-14.99,6.26-27.82,12.89-38.66,19.7Z"/>
    </g>
    <g class="cls-7">
      <path class="cls-11" d="m1566.94,1392.45c86.74,17.1,233.07,0,233.07,0l-7.74-131.59,16.36-74.53c-39.96,50.68-134.5,132.64-318.38,110.9,0,0-10.04,78.25,76.7,95.22Z"/>
    </g>
    <g class="cls-7">
      <path class="cls-11" d="m1104.58,1607.43c1.36,15.74,3.41,30.23,6.2,42.93,20.14,92.93,500.28-17.04,500.28-17.04l126.2-32.77c-30.48,6.94-230.59,43.86-333.56-165.79,0,0-77.63-127.19-90.02-19.27-12.39,107.86-72.98,244.16-186.73,199.24-7.74-3.04-15.18-5.51-22.37-7.31Z"/>
    </g>
    <g class="cls-7">
      <path class="cls-11" d="m2242.98,1106.72l6.81,293.91h76.2c18.9,0,34.88-11.52,41.76-27.63-61.4-25.71-70.07-151.66-70.07-151.66-43.37-45.41,46.47-79.49,46.47-79.49l-40.27-12.39-60.9-22.74Z"/>
    </g>
  </g>
  <g>
    <path class="cls-1" d="m2179.52,2329.8l-.53,34.86c-.23,14.99-11.33,27.58-26.17,29.69l-61.08,8.67c-15.56,2.21-30.25-7.79-33.9-23.08l-5.34-22.38"/>
    <path class="cls-11" d="m2087.32,2417.52c-20.41,0-38.4-13.85-43.28-34.28l-5.34-22.38c-1.82-7.62,2.89-15.27,10.5-17.09,7.61-1.82,15.27,2.89,17.09,10.5l5.34,22.38c1.96,8.22,9.78,13.55,18.12,12.33l61.08-8.67c7.98-1.13,13.86-7.8,13.98-15.86l.54-34.86c.12-7.76,6.45-13.96,14.17-13.96.07,0,.15,0,.22,0,7.83.12,14.08,6.57,13.96,14.4l-.54,34.86c-.34,22.1-16.47,40.4-38.35,43.51l-61.08,8.67c-2.15.31-4.3.45-6.41.45Z"/>
    <g>
      <path class="cls-14" d="m21.74,2377.03c3.87,5.92,10.26,10.25,18.69,10.96,98.23,8.52,255.6,30.34,396.54,86.39,302.83,120.45,547.97-73.06,472.03-334.73-22.99-79.26-65.58-140.35-120.06-178.93-121.78-86.57-302.85-60.84-455.79,124.82-108.81,132.03-225.81,212.07-302.84,255.28-14.27,7.96-16.06,24.93-8.57,36.21Z"/>
      <path class="cls-12" d="m618.05,2528.66c-59.67,0-123.25-12.6-187.51-38.15-136.39-54.24-288.23-76.29-391.59-85.25-19.02-1.65-33.92-14.78-37.94-33.45-4.02-18.68,4.14-36.79,20.81-46.13,77.17-43.26,191.51-121.95,297.94-251.15,112.16-136.15,249.26-199.24,376.12-173.05,109.59,22.61,193.35,107.66,229.8,233.32h0c35.06,120.93,6.9,234.12-77.26,310.55-60.72,55.14-141.16,83.31-230.37,83.31Zm20.8-598.3c-99.51,0-203.62,58.54-292.33,166.22-109.85,133.34-227.98,214.63-307.74,259.34-4.44,2.49-4.33,6.45-3.87,8.58.46,2.13,1.99,5.78,7.04,6.22,105.68,9.15,261.1,31.78,401.41,87.57,147.73,58.74,290.44,44.31,381.76-38.61,73.98-67.19,98.5-167.5,67.27-275.22-32.74-112.92-106.91-189.1-203.5-209.03-16.47-3.4-33.19-5.08-50.03-5.08Z"/>
      <path class="cls-10" d="m795.02,2169.47c-35.26-132.98-182.67-170.44-304.32-34.76-50.37,56.17-103.23,93.26-143.47,116.3-17.43,9.98-11.18,36.28,9.31,39.03,51.24,6.87,120.37,20.26,182.86,46.14,158.55,65.65,291.58-31.05,255.61-166.7Z"/>
      <path class="cls-1" d="m760.47,2182c-17.05-64.28-88.3-82.39-147.11-16.81-24.35,27.15-49.9,45.08-69.35,56.22-8.43,4.82-5.4,17.54,4.5,18.87,24.77,3.32,58.19,9.79,88.4,22.3,76.64,31.74,140.95-15.01,123.56-80.58Z"/>
      <path class="cls-1" d="m809.91,2063.07l27,142.36,18.85,99.33c12.11,63.76,70.65,107.89,135.24,102.04l60.87-5.51,60.46-5.47-55.17-239.48-59.19-256.85-45.54,8.42-41.57,7.68c-68.72,12.73-113.99,78.88-100.95,147.49Z"/>
      <path class="cls-12" d="m979.35,2423.98c-68.08,0-126.99-47.98-139.93-116.14l-45.86-241.66c-7.13-37.58.84-75.65,22.44-107.22,21.6-31.56,54.2-52.78,91.81-59.74l87.11-16.13c8.74-1.64,17.26,3.95,19.26,12.64l114.38,496.35c1.08,4.69.08,9.62-2.74,13.51-2.83,3.9-7.2,6.38-11.99,6.82l-121.32,10.98c-4.42.4-8.81.6-13.16.6Zm5.95-505.22l-71.43,13.23c-28.83,5.34-53.82,21.6-70.38,45.8-16.56,24.2-22.67,53.39-17.2,82.19l45.86,241.66c10.55,55.59,60.97,93.65,117.36,88.57l102.3-9.26-106.51-462.19Z"/>
      <path class="cls-8" d="m699.88,1715.84c40.73,1.47,85.07,8.07,125.09,24.95,107.23,45.15,176.37,173.37,176.37,173.37l244.33-168.93s-44.34-45.26-125.11-81.59c-96.05-43.24-243.67-73.86-429.54-.83-8.93,3.48-14.27,10.08-16.45,17.49-4.52,15.66,5.11,34.81,25.3,35.55Z"/>
      <g class="cls-4">
        <path class="cls-1" d="m673.72,1684.59c205.61-47.77,377.28-19.35,495.28,19.46,17.82,5.83,34.38,11.94,49.69,18.05-21.06-16.31-54.24-38.71-98.12-58.47-96.05-43.24-243.67-73.86-429.54-.83-8.93,3.48-14.27,10.08-16.45,17.49-.43,1.4-.7,2.84-.86,4.29Z"/>
      </g>
      <g class="cls-6">
        <path class="cls-12" d="m699.9,1715.85c40.73,1.47,85.07,8.07,125.09,24.95,107.23,45.15,176.37,173.37,176.37,173.37l244.33-168.93s-44.34-45.26-125.11-81.59c-24.31,6.29-45.12,16.48-64.07,30.5-36.79,27.23-84.02,36.46-127.38,21.81-28.78-9.72-64.06-18.98-102.5-23.27-67.86-7.55-118.78-4.24-152.04-12.38-4.52,15.66,5.11,34.81,25.3,35.55Z"/>
      </g>
      <path class="cls-8" d="m890.6,2746.37c2.72,12.67,13.54,23.59,29.65,22.65,381.96-21.79,488.51-319.27,488.51-319.27l-304.53-53.38s-3.71,58.24-25.95,123.76c-13.69,40.11-34.29,82.98-65.28,116.9-30.54,33.37-69.55,58.89-107.44,78.04-13.18,6.68-17.49,19.7-14.97,31.3Z"/>
      <g class="cls-6">
        <path class="cls-12" d="m890.6,2746.37c2.72,12.67,13.54,23.59,29.65,22.65,381.96-21.79,488.51-319.27,488.51-319.27l-304.53-53.38s-3.71,58.24-25.95,123.76c8.49,5.27,18.07,10.47,28.77,15.3,36.09,16.28,46.45,62.67,20.57,92.63-38.68,44.79-109.77,97.45-237.02,118.31Z"/>
      </g>
      <path class="cls-12" d="m1001.34,1930.81c-1.3,0-2.6-.15-3.89-.46-4.6-1.11-8.52-4.12-10.77-8.29-.66-1.22-67.75-123.62-168.15-165.92-33.31-14.03-73.43-21.99-119.25-23.66-21.39-.78-38.18-15.48-41.78-36.58-3.62-21.2,7.4-40.73,27.42-48.6,181.76-71.42,327.53-44.44,417.8-9.23,98.12,38.27,152.62,93.16,154.89,95.48,3.44,3.51,5.16,8.35,4.69,13.24-.47,4.89-3.07,9.32-7.11,12.12l-244.37,168.94c-2.81,1.94-6.12,2.96-9.47,2.96Zm-90.18-295.57c-69.46,0-140.99,14.36-214.06,43.07-7.66,3.01-7.11,9.93-6.77,11.98.44,2.58,2.31,8.6,10.16,8.89,49.86,1.82,93.93,10.65,130.97,26.25,89.4,37.66,152.31,127.89,175.16,164.81l212.21-146.71c-21.67-17.95-66.19-50.46-129.66-74.99-57.48-22.21-116.95-33.31-178.01-33.31Z"/>
      <path class="cls-12" d="m918.39,2786.44c-21.08,0-38.64-13.4-44.2-34.09-5.78-21.51,3.69-42.72,23.57-52.76,42.59-21.52,77.05-46.51,102.43-74.27,76.5-83.68,86.66-228.58,86.75-230.04.32-4.91,2.71-9.47,6.58-12.52,3.88-3.04,8.87-4.3,13.71-3.45l304.54,53.36c5.03.88,9.42,3.94,11.99,8.36,2.57,4.42,3.06,9.75,1.33,14.56-1.14,3.18-28.77,78.79-104.87,157.66-70.01,72.58-196.07,161.52-398.97,173.11-.96.06-1.92.08-2.87.08Zm201.25-369.76c-5.53,44.86-25.73,157.53-93.85,232.03-28.22,30.87-66.03,58.4-112.38,81.82-7.29,3.68-6.43,10.19-5.73,12.82.56,2.09,2.99,8.92,11.61,8.39,310.2-17.72,433.65-224.21,464.79-288.73l-264.43-46.33Z"/>
      <path class="cls-1" d="m951.47,1972.59l42.43,197.82,39.72,185.38c3.51,16.41,9.74,31.73,18.26,45.48,2.41,3.93,5.06,7.79,7.85,11.51,21.36,28.19,52.81,48.21,89.03,54.89,227.47,41.84,819.67,110.29,1324.17-180.14,0,0,.06.01.12-.03,160.41-92.39,311.93-221.04,440.04-398.42,54.63-75.65,26.88-182.12-57.3-222.23-114.13-54.37-287.66-123.11-498.2-162.36-375.61-69.99-868.85-45.84-1352.37,322.67-26.82,20.47-45.13,49.16-52.78,80.74-5.14,20.86-5.65,42.92-.96,64.69Z"/>
      <path class="cls-8" d="m2472.92,2287.55s.06.01.12-.03c160.41-92.39,311.93-221.04,440.04-398.42,54.63-75.65,26.88-182.12-57.3-222.23-114.13-54.37-287.66-123.11-498.2-162.36,0,0,245.18,423.67,115.34,783.05Z"/>
      <g class="cls-3">
        <path class="cls-1" d="m2357.58,1504.5s14.68,25.4,35,69.04c205.69,39.55,375.25,106.87,487.45,160.3,25.54,12.18,45.95,30.48,60.35,52.18-5.41-49.49-35.29-95.71-84.6-119.16-114.13-54.37-287.66-123.11-498.2-162.36Z"/>
      </g>
      <g class="cls-6">
        <path class="cls-12" d="m836.91,2205.43l18.85,99.33c12.11,63.76,70.65,107.89,135.24,102.04l60.87-5.51c2.41,3.93,5.06,7.79,7.85,11.51,17.1-3.5,34.04-7.71,50.46-12.76,9.2,8.85,20.88,15.76,36.14,20.26,228.66,67.07,1212.43,155.38,1763.8-552.14,27.46-35.26,32.42-78.76,20.7-117.03-119.82,132.27-253.99,234.29-394.59,312.61-.05-.01-.11-.02-.11-.02-71.41,39.75-144.47,73.32-218.1,101.64-22.82,8.77-44.5-14.62-34.05-36.72,9.43-20,16.46-41.48,20.69-64.21,27.18-145.98-72.06-286.2-220.26-307.85-135.24-19.81-264.85,69.69-294.17,203.22-18.77,85.19,5.97,169.11,58.85,229.55,31.26,35.74,8.45,82.2-36.56,97.29-133.66,44.78-306.8,51.3-452.22,45.73-54.99-2.11-95.64-53.5-83.46-107.17,15.69-69.14-6.23-116.43-6.23-116.43l-213.45,47.57-63.27,14.09-156.99,35.01Z"/>
      </g>
      <circle class="cls-15" cx="2060.1" cy="1943.63" r="262.55"/>
      <g class="cls-6">
        <path class="cls-12" d="m1802.02,1895.57c-26.54,142.56,67.45,279.63,210.01,306.17,142.55,26.54,279.64-67.51,306.18-210.07,15.26-81.96-9.34-162.08-60.08-220.47,33.43,50.48,48,114.52,35.8,180.09-24.27,130.36-145.26,217.13-270.16,193.87-124.95-23.26-206.56-147.75-182.29-278.11,12.87-69.15,52.93-126.05,106.33-160.76-73.46,34.8-129.77,103.24-145.79,189.28Z"/>
      </g>
      <path class="cls-12" d="m1575.49,2522.69c-182.75,0-335.88-21.35-429.76-38.62-64.29-11.84-114.69-60.82-128.41-124.78l-82.14-383.21h0c-13.02-60.81,10.5-124.46,59.93-162.17,222.92-169.9,466.4-280.55,723.68-328.9,206.56-38.81,422.5-37.77,641.85,3.1,215.49,40.18,392.1,111.2,502.31,163.7,44.79,21.34,77.51,61.11,89.79,109.11,12.21,47.73,2.68,98-26.14,137.91-120.34,166.64-270.14,302.26-445.22,403.11h0c-.28.16-.57.31-.85.46-302.57,173.94-635.89,220.29-905.01,220.29Zm-607.73-553.59l82.14,383.21c10.88,50.74,50.86,89.6,101.86,99,228.62,42.05,814.22,108.85,1312.85-178.19.28-.16.57-.32.86-.46,170.65-98.43,316.71-230.76,434.1-393.31,23.02-31.88,30.63-72.03,20.88-110.16-9.82-38.4-36.01-70.21-71.84-87.29-108.42-51.65-282.14-121.51-494.09-161.03-490.54-91.4-941.1,16.11-1339.22,319.54-39.22,29.92-57.89,80.43-47.55,128.69h0Z"/>
      <path class="cls-12" d="m2472.88,2304.2c-.99,0-1.97-.09-2.94-.26-4.82-.88-9.01-3.83-11.46-8.08-2.45-4.25-2.9-9.36-1.23-13.97,125.64-347.77-111.68-764.88-114.09-769.06-3.26-5.63-2.93-12.64.82-17.96,3.75-5.31,10.29-7.94,16.65-6.76,215.49,40.18,392.1,111.2,502.31,163.7,44.79,21.34,77.51,61.11,89.79,109.11,12.21,47.73,2.68,98-26.14,137.91-120.34,166.64-270.14,302.26-445.22,403.1h0c-2.57,1.47-5.52,2.26-8.47,2.26Zm-84.06-776.61c21.61,42.43,59.95,124.7,91.07,228.89,38.74,129.64,72,316.52,22.28,494.24,154.97-95.84,288.51-220.61,397.4-371.39,23.02-31.88,30.63-72.03,20.88-110.16-9.82-38.4-36.01-70.21-71.84-87.29-102.5-48.83-263.41-113.95-459.79-154.31Z"/>
      <path class="cls-12" d="m2060.69,2222.92c-17.17,0-34.45-1.58-51.69-4.79-151.35-28.18-251.57-174.24-223.39-325.59h0c28.18-151.36,174.29-251.58,325.59-223.38,73.32,13.65,136.93,55.04,179.13,116.53,42.19,61.5,57.91,135.74,44.26,209.06-13.65,73.32-55.03,136.93-116.53,179.12-47.04,32.27-101.54,49.06-157.37,49.06Zm-242.32-324.29c-24.81,133.29,63.44,261.92,196.73,286.74,64.56,12.02,129.96-1.82,184.12-38.98,54.16-37.16,90.6-93.18,102.62-157.75,12.02-64.57-1.82-129.95-38.97-184.11-37.16-54.16-93.18-90.61-157.75-102.63-133.31-24.83-261.93,63.44-286.74,196.73h0Z"/>
      <circle class="cls-13" cx="2060.1" cy="1943.63" r="164.81"/>
      <g class="cls-6">
        <path class="cls-12" d="m1906.3,2002.87c.46-5.85,1.22-11.76,2.32-17.67,16.67-89.52,102.69-148.54,192.15-131.88,58.39,10.87,103.75,51.24,123.68,102.8,6.4-82.86-50.59-158.91-134.2-174.48-89.46-16.66-175.48,42.36-192.14,131.82-5.8,31.13-2.43,61.85,8.19,89.41Z"/>
      </g>
      <path class="cls-12" d="m2060.49,2125.15c-11.16,0-22.39-1.03-33.59-3.12-47.66-8.87-89-35.77-116.42-75.74-27.42-39.97-37.63-88.22-28.76-135.87h0c8.87-47.65,35.77-88.99,75.73-116.42,39.97-27.42,88.22-37.64,135.87-28.77,47.66,8.87,89,35.77,116.42,75.74,27.42,39.97,37.64,88.22,28.76,135.87-8.87,47.65-35.77,88.99-75.73,116.42-30.57,20.97-65.99,31.88-102.28,31.88Zm-.7-329.7c-29.62,0-58.54,8.9-83.5,26.03-32.63,22.39-54.58,56.14-61.83,95.04h0c-14.95,80.31,38.22,157.81,118.53,172.76,38.92,7.26,78.3-1.09,110.93-23.48,32.63-22.39,54.59-56.14,61.83-95.04,14.95-80.31-38.22-157.81-118.53-172.76-9.15-1.7-18.33-2.54-27.43-2.54Zm-161.7,118.02h.05-.05Z"/>
      <g>
        <path class="cls-8" d="m1223.23,2063.06c-105.57-22.02-285.26-24.55-465.06,133.29-19.11,16.77-10.42,48.36,14.56,53.09,99.26,18.82,309.89,38.4,472.73-86.09,38.41-29.37,25.1-90.42-22.23-100.29Z"/>
        <g class="cls-4">
          <path class="cls-1" d="m772.7,2249.44c3.75.7,7.67,1.43,11.82,2.14-3.41-10.8-.94-23.47,8.95-32.14,179.45-157.54,358.86-155.32,464.52-133.36-7.62-11.18-19.38-19.82-34.77-23.03-105.54-21.99-285.23-24.55-465.08,133.31-19.06,16.78-10.38,48.38,14.56,53.08Z"/>
        </g>
        <g class="cls-6">
          <path class="cls-12" d="m748.26,2214.16c-2.58,15.39,6.95,31.96,24.44,35.27,99.28,18.83,309.94,38.4,472.74-86.09,38.41-29.34,25.11-90.4-22.21-100.3-13.14-2.73-27.42-5.16-42.66-7.03,76.99,13.32,71.79,60.37,21.6,79.17-172.54,64.63-334.66,74.74-453.9,78.97Z"/>
        </g>
        <path class="cls-12" d="m919.54,2280.86c-58.34,0-110.55-6.89-150.04-14.38-18.14-3.44-32.44-16.68-37.32-34.55-4.87-17.83.71-36.46,14.55-48.61,190.09-166.86,382.35-157.61,480.04-137.23h0c28.43,5.93,50.1,27.23,56.55,55.58,6.52,28.67-3.96,57.59-27.33,75.46-106.47,81.39-231.4,103.73-336.44,103.73Zm197.89-211.47c-100.9,0-224.05,31.34-347.83,139.99-5.56,4.89-4.63,11.02-3.97,13.42.66,2.43,2.99,8.22,10.33,9.61,104.92,19.9,304.07,35.59,458.97-82.83,12.66-9.68,18.11-24.71,14.58-40.22-3.45-15.19-14.6-26.15-29.82-29.32h0c-30.25-6.31-64.72-10.65-102.26-10.65Z"/>
      </g>
      <ellipse class="cls-1" cx="2125.81" cy="1970.25" rx="53.33" ry="37.89" transform="translate(-200.25 3699.52) rotate(-79.45)"/>
    </g>
  </g>
</svg>