<?xml version="1.0" encoding="UTF-8"?>
<svg id="Layer_1" data-name="Layer 1" xmlns="http://www.w3.org/2000/svg" viewBox="0 0 1925.39 3299.6">
  <defs>
    <style>
      .cls-1 {
        fill: #fff;
      }

      .cls-2 {
        opacity: .6;
      }

      .cls-2, .cls-3, .cls-4 {
        fill: none;
      }

      .cls-5 {
        fill: #220f2d;
      }

      .cls-3 {
        opacity: .5;
      }

      .cls-4 {
        opacity: .2;
      }

      .cls-6 {
        fill: #371a45;
      }

      .cls-7 {
        fill: #eb1c24;
      }

      .cls-8 {
        fill: #ff0068;
      }
    </style>
  </defs>
  <g>
    <path class="cls-1" d="m701.04,2070.24c-141.95,33.42-260.65-4.92-342.85-155.96,120.03,2.65,206.58-47.52,263.93-143.75l-17.58-52.51c25.21-25.02,63.16-57.38,115.19-85.5,52.06-28.12,99.95-42.13,134.7-49.5-44.44-29.49-114.22-83.77-174.76-172.37-62.21-91.05-87.27-178.25-98.23-230.96-24.88-376.93,151.76-506.45,341.03-620.47l55.57-153.7c-64.19-5.75-110.27-43.39-109.55-163.33,23.44-87.96,67.93-127.09,119.27-150.31,100.09-86.76,201.8-108.69,306.56-8.86,167.89-75.6,296.22-42.22,370.1,141.11,86.25-15.28,163.06-4.82,186.84,150.22,70.08,48.09,78.89,122.64,24.31,224.56-50.72,58.33-112.23,80.52-184.48,66.76l-7.32,51.89c67.11,106.46,113.91,211.41,108.63,312.49,39.39,55.48,62.22,117.6,52.02,192.97-13.4,70.29-46.04,120.16-112.5,134.17l-191.91,204.11c117.6-4.94,213.15,14.33,267.13,79.22l10.61,837.5c-21.97,58.68-61.47,97.33-134.2,98.05-7.42,94.82-14.84,189.64-22.26,284.45-16.04,6.88-32.08,13.75-48.12,20.62-14.33,118.12-28.67,236.25-43,354.38-116.81,42.27-255.27,47.83-403.92,36.13l-48.08-38.14c-145.31,37.77-283.28,63.39-381.72,23.54-41.7-70.11-23.36-124.38,29.55-169.54l6.06-215.56-93.28-24.43-16.26-32.09,17.95-147.73,20.54-597.47Z"/>
    <path class="cls-7" d="m867.4,1578.04c-66.19,79.62-79.08,169.97-59.63,266.83l-70.88,10.32c-35.39-8.59-83.78,861.59-52.45,872.06,6.25,2.09-21.89,88.2-21.89,88.2l16.26,32.09,447.3,8c170.21,47.4,351.48,38.01,538.33,0,11.42-201.75,1.33-381.54-34.32-535.24l-90.75,35.24-13.25,26.67c-272.67,48.95-509.4,40.11-617.85-175,5.24-93.87,39.85-153.12,124.52-153.33,2.9-68.95,30.96-102.59,72.97-116.67l82.03,100,264.15-50c-26.32-171.29,31.61-299.34,175.39-383.33l-87.29-42.56-115.59,65.89c-18.34,37.39-37.14,83.43-51.67,137.5-9.07,33.78-15.05,65.37-18.96,93.96-152.67-4.6-305.35-9.19-458.02-13.79-8.78-82.52,14.24-157.06,51.8-227.95l-80.2-38.88Z"/>
    <path class="cls-7" d="m1526.11,2382.2c68.69-163.49,10.68-289.32-98.33-400l-240,55-82.03-100c-47.01,23.65-76.13,59.32-72.97,116.67-59.16,2.44-96.66,41.14-118.63,105.83,12.61,159.62,141.17,223.68,317.4,248.45l294.56-25.95Z"/>
    <path class="cls-7" d="m358.19,1914.28c-201.98-345.66-200.64-507-87.5-566.98,18.9-59.87,43.56-96.91,80.38-85.89l47.11,105.38c102.41-51.34,158.48-11.09,188.75,80.16-22.74,20.59-55.48,15.74-92.66-.43l-46.5,74.9,68.97,26.99,52.71-74.51c92.35,44.87,60.55,107.18,1.89,173.26l50.8,108.4c-52.67,96.15-126.27,166.66-263.93,158.75Z"/>
    <path class="cls-1" d="m807.78,2069.56v121.25h106.37c-3.18-38.28,12.92-76.8,55.44-115.65l-153.48-2.95"/>
    <g class="cls-4">
      <path class="cls-6" d="m906.11,173.87c3.7,57.47,24.84,92.48,60.83,108.33l44.07,60.83-26.57,66.48c-46.35-1.36-84.32-35.02-115.94-93.15,3.86-58.96,9.54-115.52,37.61-142.5Z"/>
    </g>
    <g class="cls-4">
      <path class="cls-6" d="m976.11,288.03c99.87,37.45,185.49,33.37,253.33-22.5l13.92,66.05-108.76,46.45c-75.71-13.52-129.55-42.79-158.49-90Z"/>
    </g>
    <g class="cls-4">
      <path class="cls-6" d="m1229.44,265.53c82.38,101.48,207.14,153.9,392.5,127.5-65.66,50.11-137.2,81.41-222.5,68.75-100.21-32.07-162.56-93.13-170-196.25Z"/>
    </g>
    <g class="cls-4">
      <path class="cls-6" d="m1614.95,393.98c34.09,88.63,93.73,144.94,188,157.45-53.56,28.01-105.47,30.09-155.35,0-65.45-49.08-94.21-100.45-32.65-157.45Z"/>
    </g>
    <g class="cls-4">
      <path class="cls-6" d="m1796.94,559.23c-43.29,49.22-29.77,72.32,32.5,73.03-39.29,24.99-83.86,34.98-132.1,34.52l23.77-88.12,75.83-19.43Z"/>
    </g>
    <g class="cls-4">
      <path class="cls-6" d="m1011.01,343.03l-34.9,87.5c274.98,1.19,523.12,56.45,715,225l30-76.88c-72.76-7.95-122.59-53.04-145.68-141.46-142.35,61.57-256.06,35.61-332.06-105.62-54.55,51.97-126.88,66.56-232.36,11.45Z"/>
    </g>
    <g class="cls-4">
      <path d="m1268.48,60.79c-17.61,18.89-23.57,47.83-22.2,83.08l48.05-60.83s-30.15-21.16-25.86-22.25Z"/>
    </g>
    <g class="cls-4">
      <path d="m810.74,632.26c540.25-212.28,784.15,134.1,764.69,388.03-73.37-338.86-313.89-484.79-764.69-388.03Z"/>
    </g>
    <g class="cls-4">
      <path d="m1853.19,1165.53l-7.31.43c-73.69,94.26-150.4,110.05-231.44,13.73,11.11,84.13,49.83,143.7,117.5,177.5,72.93-19.05,116.26-78.93,121.25-191.67Z"/>
    </g>
    <g class="cls-4">
      <path d="m1532.78,1133.03c24.88,40.83,53.31,55.22,87.5,26.67-5.93,80.17,18.36,146.58,76.67,197.5-99.58-9.98-199-20.2-164.17-224.17Z"/>
    </g>
    <g class="cls-4">
      <path d="m1709.67,1380.89c-58.65,67.24-130.24,103.73-215.22,108.39-349.77,231.62-551.35,166.13-711.67,17.92,356.58,142.85,602.3,54.77,757.26-222.41l169.63,96.1Z"/>
    </g>
    <g class="cls-4">
      <path class="cls-6" d="m936.94,1844.84c-3.97-53.71,7.87-105.9,32.64-156.84,100.48,34.1,249.58,29.39,406.11,18.75l55.67-83.53c-174.31,44.41-340.5,63.18-478.79-6.34-43.48,62.77-61.86,137.2-57.31,222.29l41.68,5.66Z"/>
    </g>
    <g class="cls-4">
      <path class="cls-6" d="m836.56,1587.15c13.92,56.85,44.17,80.81,85.14,100.85l27.04-65.46-112.18-35.39Z"/>
    </g>
    <g class="cls-4">
      <path d="m1385.69,1706.78c41.05-1.83,103.23-20.5,169.14-42.15l72.49-69.67-87.29-33.66-115.59,65.89-38.75,79.58Z"/>
    </g>
    <g class="cls-4">
      <path class="cls-6" d="m1464.44,2007.17c3.21-39.87,14.73-114.4,63.29-191.43,21.09-33.46,44.39-59.82,65.71-80.06,17.48-16.59,46.09-12.9,58.3,7.88,111.07,189.05,57.49,449.67-96.92,605.94,108.57-37.16,181.15-151.42,206.28-367.33,4.75-154.24-33.56-284.22-126.67-383.33-28.5,18.34-129.17,88.03-166.32,221.97-22.36,80.63-12.05,149.72-3.68,186.36Z"/>
    </g>
    <g class="cls-4">
      <path class="cls-6" d="m914.15,2159.67c134.12,159.56,336.28,197.8,625.89,80.83l-13.92,141.67c-187.85,61.73-373.62,42.6-556.52-87.23-43.6-18.73-63.53-62.29-55.44-135.27Z"/>
    </g>
    <g class="cls-4">
      <path class="cls-6" d="m1092.78,1958.39c-35.17,54.84-34.96,105.44,11.67,147.95-45.3-27.39-97.05-28.29-150.83-20.83l75.42-31.68c5.68-53.33,22.1-91.82,63.75-95.43Z"/>
    </g>
    <g class="cls-4">
      <path class="cls-6" d="m1627.32,1594.94c41.53,7.5,80.19,20.69,112.62,46.27h21.56c32.16,217.75,19.56,538.2,0,879.3-16.81,41.97-51.01,53.75-91.28,55l-42.9-263.14,56.25-62.28c113.76-258.21,100.53-507.88-56.25-655.15Z"/>
    </g>
    <g class="cls-4">
      <path class="cls-6" d="m262.78,1363.21c-21.29,141.29,36.58,301.15,135.4,470.63,86.17,13.43,155.65-30.41,223.95-78.33-41.91,84.78-104.11,153.69-247.95,158.75-160.31-236.98-255.14-445.63-111.4-551.05Z"/>
    </g>
    <g class="cls-4">
      <path class="cls-6" d="m839.81,1598.84c-88.2,10.6-164.72,42.95-217.68,119.16,111.31-41.35,168.36-8.23,160.65,113.76"/>
    </g>
    <g class="cls-4">
      <path class="cls-6" d="m464.44,1903.01c140.72,117.95,239.21,122.56,272.45-47.85l-36.58,223.25-189.68-13.88-143.7-137.24,97.5-24.28Z"/>
    </g>
    <g class="cls-4">
      <path class="cls-6" d="m692.78,2658.84l15.6,92.1c3.52,20.78,21.31,36.12,42.38,36.55l283.65,5.74c5.08-1.35,11.4-3.84,17.45-8.62,20.25-16.02,19.44-43.51,19.26-47.44-14.03-16.04-28.06-32.07-42.08-48.11,80.19,28.88,128.19,75.66,97.08,166.44l-433.33-4.34-33.33-28.99,33.33-163.33Z"/>
    </g>
    <g class="cls-4">
      <path class="cls-6" d="m831.94,2325.53c165.32,207.6,339.49,182.01,502.5,90.5-44.86,65.94-102.99,121.25-225,125.42-128.98-16.21-219.92-90.57-277.5-215.93Z"/>
    </g>
    <g class="cls-4">
      <path d="m878.19,2443.03c171.94,175.53,335.44,174.96,491.25,13.75,110.63-11.01,197.27-42.71,266.9-89.06l-6.22-47.43c-72.12,56.13-168.75,80.06-279.01,86.11-99.1,165.36-260.41,167.97-472.92,36.62Z"/>
    </g>
    <g class="cls-4">
      <path class="cls-6" d="m1391.17,2632.29c-120.68,53.6-244.91,107.06-183.39,183.22,86.05,48.2,265.22,43.89,443.64,40-94.29,30.31-202.58,55.37-525.31,0,12.4-22.81,8.49-75.35,8.49-75.35l-63.49-94.65c112.46,22.64,218.58.91,320.06-53.22Z"/>
    </g>
    <g class="cls-4">
      <path class="cls-6" d="m962.78,2871.94c14.63,104.39.29,196.4-37.08,278.57-161.05-26.73-205.87,12.11-212.5,72.5,105.84,73.59,240.82,66.76,392.55,13.69-7.88-59.55,10.45-100.47,53.7-123.69,17.57-69.2,2.55-159.37-24.84-257.5l-171.82,16.43Z"/>
    </g>
    <g class="cls-4">
      <path class="cls-6" d="m1257.27,2887.66c13.47,59.15,12.22,137.48,8.42,219.12-14.45,3.49-27.84,7.56-39.53,12.55-10.27,4.38-43.9,22.93-45.95,48.86-1.61,20.42,17.29,37.14,25.07,44.01,63.52,56.18,310.71,29.26,351.67,24.58-74.18,30.27-187.71,44.47-336.25,44.36-62.61,1.32-99.94-35.17-113.75-106.86l52.5-61.25c13.39-78.84.07-161.21-33.33-246.25l131.16,20.88Z"/>
    </g>
    <g class="cls-4">
      <path d="m397.83,1529.28c2.86-78.75,38.81-108.33,107.86-88.75-41.29,16.95-60.4,47.59-62.5,88.75"/>
    </g>
    <g class="cls-2">
      <path class="cls-1" d="m644.44,1020.29c43.34-328.92,311.71-411.66,521.29-350.06-218.21,29.24-382.82,163.92-521.29,350.06Z"/>
    </g>
    <g class="cls-2">
      <circle class="cls-1" cx="1396.18" cy="1231.89" r="66.36" transform="translate(-462.15 1348.06) rotate(-45)"/>
    </g>
    <g class="cls-2">
      <path class="cls-1" d="m1064.36,1539.2c-17.69,0-33.43-12.57-36.81-30.58-3.82-20.36,9.58-39.96,29.93-43.78,114.8-21.56,175.91-45.46,234.53-130.12,11.79-17.02,35.15-21.28,52.18-9.48,17.03,11.79,21.27,35.15,9.48,52.18-72.74,105.05-152.15,136.68-282.34,161.13-2.34.44-4.67.65-6.96.65Z"/>
    </g>
    <g class="cls-2">
      <path class="cls-1" d="m1396.18,1989.44c-10.37-139.99,53.69-213.64,110.33-293.91-43.28,104.3-68.24,203.43-54.58,291.67l-55.75,2.24Z"/>
    </g>
    <g class="cls-2">
      <path class="cls-1" d="m1184.44,2050.53l235-30c67.76,56.73,102.1,134.19,128.33,216.67.4-96-25.59-182.7-113-247.76l-250.33,61.09Z"/>
    </g>
    <g class="cls-2">
      <path class="cls-1" d="m1246.22,1872.2l-475.11,11.67c-27.89,86.5-55.18,328.74-82.55,549.63l48.34-578.31,509.32,17.02Z"/>
    </g>
    <g class="cls-2">
      <path class="cls-1" d="m844.44,2575.53c190.84,83.52,375.01,104.99,550.62,46.67-64.28,54.31-158.34,73.54-276.87,63.93-97.12-8.07-188.16-45.95-273.75-110.6Z"/>
    </g>
    <g class="cls-2">
      <path class="cls-1" d="m1636.34,2390.53c8.58,161.56,8.58,316.67,0,465.33l32.58-.33c2.16-166.16-6.46-323.08-32.58-465Z"/>
    </g>
    <g class="cls-2">
      <path class="cls-1" d="m817.78,1831.78c-5.75-60.72,5.02-125.88,27.5-194.18-25.17,47.93-45.73,105.04-50.23,194.18h22.73Z"/>
    </g>
    <g class="cls-2">
      <path class="cls-1" d="m590.69,1485.93c24.81,69.74,3.37,122.13-53.75,161.15l91.15-59.89"/>
    </g>
    <g class="cls-2">
      <path class="cls-1" d="m393.19,1428.88c38.81-64.45,99.52-76.71,189.33-19.6-17.67-40.48-58.3-63.16-115.58-72.92-55.2,8.18-79.78,39.03-73.75,92.52Z"/>
    </g>
    <g class="cls-4">
      <polygon class="cls-6" points="814.44 2224.46 917.51 2224.46 914.15 2190.8 807.78 2190.8 814.44 2224.46"/>
    </g>
    <path class="cls-6" d="m1731.94,1372.2c-71.49,0-127.5-84.56-127.5-192.5s56.01-192.5,127.5-192.5,127.5,84.56,127.5,192.5-56.01,192.5-127.5,192.5Zm0-355c-52.85,0-97.5,74.41-97.5,162.5s44.65,162.5,97.5,162.5,97.5-74.41,97.5-162.5-44.65-162.5-97.5-162.5Z"/>
    <path class="cls-6" d="m1690.92,1378.28c-30.92,0-67.52-6.58-101.99-29.2-31.45-20.64-52.57-47.72-58.89-64.15-34.6-89.98-25.71-177.54,26.43-260.27,19.95-31.66,53.21-49.87,98.86-54.15,1-.1,1.78-.16,2.3-.23,67.82-9.6,118.43,26.37,132.32,37.63l-18.89,23.3c-11.51-9.33-53.4-39.17-109.22-31.23-.84.12-2.09.24-3.71.4-13.38,1.25-54.09,5.06-76.28,40.27-46.82,74.29-54.83,152.85-23.81,233.51,3.15,8.19,18.87,31.15,47.35,49.84,58.61,38.47,125.78,21.36,144.97,15.2l9.17,28.56c-11.32,3.63-36.99,10.52-68.61,10.52Z"/>
    <path class="cls-6" d="m1075.24,1593.78c-282.57,0-512.45-229.88-512.45-512.45s229.88-512.45,512.45-512.45c127.82,0,250.25,47.34,344.74,133.3,93.85,85.38,152.5,201.64,165.14,327.35l-29.85,3c-24.85-247.22-231.22-433.65-480.03-433.65-266.02,0-482.45,216.43-482.45,482.45s216.43,482.45,482.45,482.45c199.68,0,375.98-120.07,449.14-305.89l27.91,10.99c-37.29,94.7-101.36,175.54-185.3,233.77-85.93,59.62-186.82,91.13-291.76,91.13Z"/>
    <path class="cls-6" d="m1115.14,1655.54c-82.51,0-161.87-18.34-235.89-54.53-.11-.05-.21-.11-.32-.16-.02,0-.04-.02-.07-.03l-.34-.17c-184.19-90.48-304.86-277.24-314.92-487.39-.14-1.84-.26-4.15-.31-6.4-.03-.22-.06-.8-.06-1.31-.14-3.57-.25-7.35-.3-11.14-.1-2.71-.15-5.73-.15-8.76v-4.3c0-2.89.05-5.84.1-8.72v-.28s.44-13.24.44-13.24c.1-2.37.19-4.72.33-7.07.14-3.09.34-6.39.58-9.7,0-.23.02-.46.03-.63.29-4.06.63-8.06.97-12.08.03-.89.12-1.77.25-2.63.05-.54.11-1.08.19-1.63.35-3.75.75-7.5,1.2-11.2.29-2.49.59-4.97.94-7.46.07-.74.17-1.48.29-2.22.05-.37.1-.73.16-1.09.02-.25.05-.41.09-.66l.22-1.56c.11-.8.22-1.6.34-2.38.32-2.28.72-4.81,1.12-7.37l.17-1.09c.04-.23.08-.46.12-.69l.06-.3c24.62-152.19,109.7-289.58,233.44-376.94,1.1-.83,2.46-1.84,3.87-2.8,45.61-31.7,95.56-56.13,148.34-72.52l8.9,28.65c-49.84,15.47-97.02,38.55-140.24,68.59-1.17.8-2.16,1.54-3.15,2.29-.11.08-.3.21-.41.3-117.22,82.75-197.83,213-221.14,357.34-.03.21-.07.42-.11.63l-.2,1.22c-.38,2.39-.75,4.75-1.09,7.14l-.52,3.62c-.05.41-.11.81-.17,1.2-.03.27-.05.4-.09.67l-.12.86c-.02.21-.07.67-.1.88-.33,2.39-.62,4.79-.91,7.23-.44,3.61-.83,7.23-1.16,10.83-.03.36-.08.72-.14,1.07l-.04.55c-.03.36-.07.71-.12,1.06,0,.15-.02.29-.03.44-.34,3.97-.67,7.85-.95,11.77,0,.25-.02.51-.03.7-.24,3.14-.43,6.28-.57,9.43-.14,2.38-.23,4.53-.31,6.68l-.43,12.52v.07c-.04,2.98-.09,5.74-.09,8.45v4.3c0,2.68.05,5.35.14,8.02.06,3.83.15,7.34.3,10.81,0,.21.01.41.01.62v.03c.03.49.05.94.05,1.37.04,1.38.12,3.17.26,4.92,9.56,199.64,123.78,376.6,298.13,462.28.42.19.82.39,1.22.61,69.74,34,144.52,51.25,222.24,51.25,198.07,0,376.73-113.86,466.27-297.14l26.95,13.17c-94.61,193.66-283.61,313.96-493.23,313.96Z"/>
    <path class="cls-6" d="m1629.46,989.46c-35.46-207.81-185.82-376.27-383.05-429.18l7.77-28.97c208.52,55.94,367.43,233.79,404.85,453.11l-29.57,5.05Z"/>
    <polygon class="cls-6" points="1613.44 1249.29 1613.44 1249.23 1643.44 1249.23 1613.44 1249.29"/>
    <path class="cls-6" d="m1191.09,1679.63c-109.68,0-217.63-27.25-312.22-78.81-.21-.1-.42-.21-.63-.33-186.16-101.79-303.78-283.9-314.63-487.16-.15-2.23-.25-4.69-.36-7.16,0-.21-.01-.42-.01-.64-.14-3.57-.25-7.35-.3-11.14-.1-2.71-.15-5.73-.15-8.76v-4.3c0-2.89.05-5.84.1-8.72v-.28c0-1.77.05-3.53.11-5.24,0-.61.04-1.61.1-2.61.06-2.88.2-5.75.34-8.58v-.41c0-.23,0-.47.02-.71.21-4.42.47-8.8.84-13.23.23-3.83.57-7.92.97-12.03.03-.87.12-1.74.26-2.59.72-7.51,1.47-14.14,2.32-20.21.08-.84.2-1.67.33-2.51l.72-5.13c.36-2.54.76-5.07,1.16-7.63l.17-1.09c24.49-149.64,107.34-283.75,233.3-377.7,1.33-1,2.62-1.95,3.95-2.86,33.91-24.88,70.48-46.47,108.72-64.17l12.6,27.23c-36.5,16.9-71.42,37.51-103.77,61.28-.15.11-.3.21-.45.32-1.04.7-2.03,1.45-3.02,2.2-119.79,89.34-198.49,216.63-221.71,358.47l-.16,1.02c-.38,2.39-.75,4.75-1.09,7.14l-.9,6.36c-.02.21-.07.67-.1.88-.83,5.9-1.57,12.4-2.27,19.88-.03.29-.06.59-.11.87-.01.21-.03.42-.05.62-.38,3.92-.72,7.83-.95,11.8-.35,4.29-.59,8.21-.77,12.16v.44c0,.26,0,.51-.02.77-.14,2.72-.29,5.5-.33,8.28,0,.23-.01.47-.03.71-.03.49-.07,1.02-.07,1.54-.05,1.88-.1,3.32-.1,4.75v.55c-.05,2.98-.1,5.74-.1,8.45v4.3c0,2.68.05,5.35.14,8.02.06,3.83.15,7.34.3,10.81,0,.21.01.41.01.62.08,2.05.18,4.28.32,6.46,10.3,192.91,121.99,365.71,298.84,462.5.21.11.42.21.62.33h0c90.24,49.24,193.31,75.26,298.07,75.26,220.02,0,421.79-114.03,526.57-297.59.42-.71.69-1.12.91-1.57l26.83,13.42c-.58,1.15-1.21,2.25-1.86,3.32-109.93,192.6-321.69,312.42-552.45,312.42Z"/>
    <path class="cls-6" d="m1787.98,1043.11c-7.79-107.8-47.81-210.71-115.75-297.63-2.15-2.6-3.44-5.93-3.44-9.56h30-15l.05-14.95c4.61,0,8.97,2.12,11.81,5.76,71.75,91.68,114.02,200.33,122.25,314.21l-29.92,2.16Z"/>
    <path class="cls-6" d="m1683.86,751c-3.11,0-6.21-.97-8.82-2.87-245.48-178.45-483.56-233.82-749.27-174.26-5.44,1.22-11.1-.68-14.71-4.93-3.61-4.25-4.56-10.15-2.48-15.32l54.16-134.37c-53.79-7.85-94.35-50.18-106.05-113.04-15.55-83.57,24.05-193.48,147.74-237.32,7.81-2.77,16.38,1.32,19.15,9.13,2.77,7.81-1.32,16.38-9.13,19.15-107.1,37.96-141.57,132.13-128.28,203.55,8.28,44.49,38.3,91.42,97.85,89.81,5.02-.21,9.84,2.28,12.73,6.43,2.89,4.16,3.49,9.48,1.6,14.17l-51.45,127.63c116.38-22.84,226.4-23.68,335.49-2.62,131.36,25.35,258.18,81.39,386.93,171.09,2.98-40.34,15.62-83.13,38.29-129.9,3.61-7.46,12.59-10.58,20.04-6.95,7.46,3.61,10.57,12.58,6.96,20.04-26.03,53.7-37.72,101.1-35.76,144.9.26,5.76-2.81,11.15-7.88,13.88-2.23,1.2-4.67,1.79-7.1,1.79Z"/>
    <path class="cls-6" d="m1807.78,545.53c-11.29,28.1-43.58,34.94-70.35,40.19-72.41,11.89-142.88-38.45-167.47-105.3-4.9-13.2-8.34-26.85-10.3-40.67l29.57-5.1c5.28,22.97,14.27,44.98,27.72,64.24,25.94,38.2,70.83,63.62,117.59,60.15,26.39-.73,44.84-14.28,73.25-13.51h0Z"/>
    <path class="cls-6" d="m1627.78,378.87c2.7,15.36-2.04,27.83-11.48,38.5,0,0-13.86,12.75-13.86,12.75l-14.84,11.63c-106.93,78.68-261.02,51.56-333.68-59.41-25.87-40.57-48.8-92.63-29.48-140.14,18.87,40.65,26.53,86.32,55.54,121.54,70.33,93.65,208.25,110,299.97,38.65,0,0,12.42-10.28,12.42-10.28,10.05-8.45,20.35-12.29,35.4-13.24h0Z"/>
    <path class="cls-6" d="m1253.42,351.22c-95.69,55.66-201.23,56.32-273.71-36.43-8.51-11.72-14.72-24.68-16.93-39.26,6.79,3.65,12.42,7.84,17.58,12.28,15.41,12.38,27.98,27.53,44.09,38.95,66.3,50.89,145.36,33.23,214.71-1.93,0,0,14.26,26.39,14.26,26.39h0Z"/>
    <rect class="cls-6" x="958.44" y="353.56" width="78.58" height="30" transform="translate(313.44 1182.84) rotate(-70.23)"/>
    <path class="cls-6" d="m1730.49,685.3c-14.36,0-28.74-1.64-42.88-5.03-2.25-.54-4.34-1.59-6.12-3.07-115.77-96.68-253.6-163.68-398.61-193.75-104.48-21.67-211.56-24.49-318.25-8.39-8.19,1.22-15.84-4.4-17.07-12.6-1.24-8.19,4.4-15.83,12.59-17.07,110.2-16.62,220.83-13.71,328.82,8.69,148.66,30.83,289.99,99.19,408.96,197.79,64.05,13.77,136.39-16.29,173.17-72.38,38.46-58.65,30.45-132.24-21.99-201.89-4.98-6.62-3.65-16.03,2.96-21.01,6.62-4.99,16.02-3.66,21.01,2.96,60.5,80.37,68.92,166.53,23.1,236.4-36.71,55.97-100.86,89.36-165.71,89.37Z"/>
    <path class="cls-6" d="m1837.78,467.09c-10.52-31.75-1.18-62.98-3.09-95.06-.54-58.79-27.09-115.61-82.83-138.54-26.14-11.51-56.02-15.64-85.87-14.71l-3.09-29.84c119.22-18.27,210.43,62.17,204.77,183-1.68,33.84-4.07,70.2-29.89,95.15h0Z"/>
    <path class="cls-6" d="m1674.44,293.87c-14.2-19.14-14.82-41.74-20.97-63.59-7.07-26.53-18.43-52.14-33.86-74.49-67.55-102.83-220.23-129.43-315.72-50.44,0,0-13.36,12.03-13.36,12.03-8.83,8.59-15.24,18.62-25.41,26.09-4.89,4.07-10.59,7.72-18.83,10.39-1.45-8.19-.35-15.41,1.55-22.2,7.29-19.43,23.56-33.33,37.97-47.55,107.04-95.25,283.66-65.02,356.89,56.62,16.27,25.83,27.49,54.28,34.09,83.71,4.99,23.29,10.4,46.71-2.34,69.43h0Z"/>
    <path class="cls-6" d="m987.78,155.53c-7.39-18.13-3.84-36.77,3.82-53.64,14.37-33.54,39.14-64.29,72.1-81.6,82.98-45.4,190.14-9.83,248.19,59.36,0,0-22.04,20.35-22.04,20.35-22.86-22.01-48.88-40.54-77.94-51.85-56.21-23.37-126.75-18.82-169.87,26.92-10.6,10.99-19.73,23.8-26.79,37.91-6.91,14.32-13.59,28.16-27.46,42.55h0Z"/>
    <path class="cls-6" d="m1554.45,2370.54c-5.99,0-11.65-3.61-13.97-9.53-3.02-7.71.78-16.42,8.49-19.44,96.97-38.01,145.21-126.16,168.61-193.42,29.72-85.44,37.93-191.68,22.52-291.48-25.29-163.81-104.21-273.87-201.07-280.4-8.27-.56-14.51-7.71-13.96-15.97.55-8.27,7.65-14.63,15.97-13.96,111.42,7.5,201.19,127.52,228.71,305.75,16.37,106.03,7.9,214.67-23.84,305.92-36.52,104.98-100.83,178.11-185.99,211.49-1.8.7-3.65,1.04-5.47,1.04Z"/>
    <path class="cls-6" d="m1442.9,2005.78c-31.71-247.34,71.2-352.75,176.05-423.26l16.74,24.89c-102.14,68.68-192.59,164.02-163.04,394.55l-29.76,3.82Z"/>
    <path class="cls-6" d="m1366.1,1867.75l-29.98-1.1c4.95-134.45,48.74-202.92,93.17-261.54l23.91,18.12c-43.25,57.06-82.46,118.7-87.09,244.52Z"/>
    <path class="cls-6" d="m1442.35,2905.63c-89.81,0-195-11.64-316.81-34.93-116.28,13.14-257.16,13.07-430.57-.2-.83-.06-1.66-.2-2.47-.4-20.92-5.2-36.64-19.25-46.73-41.75-1.89-4.22-1.73-9.08.43-13.16,22.36-42.2,20.54-169.93,18.77-293.44-.18-12.59-.36-25.18-.52-37.69-2.41-177.01,22.85-408.04,47.88-610.69,3.16-25.61,24.99-44.41,50.81-43.46l689.28,22.31-.97,29.98-689.27-22.31c-10.12-.26-18.82,7.05-20.07,17.16-24.9,201.65-50.04,431.41-47.66,606.63.16,12.51.34,25.08.52,37.65,1.82,127.02,3.54,247.32-18.85,300.66,5.71,10.02,12.98,16.04,22.5,18.71,171.99,13.12,311.29,13.11,425.79-.05,1.51-.17,3.04-.12,4.54.17,234.95,45.12,405.58,46.51,521.03,4.2,8.4-164.42,12.92-393.17-36.72-527.41l28.14-10.41c40.55,109.65,52.28,279.01,38.03,549.14-.31,5.85-4,11-9.45,13.15-60.82,24.1-136.28,36.15-227.62,36.15Z"/>
    <path class="cls-6" d="m781.18,1846.28c-8.83-93.63,8.29-174.96,50.91-242.42-67.42,19.24-142.07,50.7-216.48,124.8l-21.17-21.26c95.05-94.65,189.62-123.54,270.81-143.19,6.29-1.5,12.82,1.15,16.25,6.63,3.42,5.47,2.96,12.53-1.16,17.51-56.38,68.18-79.05,151.63-69.29,255.12l-29.87,2.81Z"/>
    <path class="cls-6" d="m886.45,1848.04c-15.43-71.56.25-149.48,47.94-238.22l26.43,14.2c-44.17,82.19-58.91,153.4-45.04,217.69l-29.33,6.33Z"/>
    <path class="cls-6" d="m1298.58,2422.95c-131.21,0-236.93-31.95-324.34-96.74-81.19-52.31-90.62-133.94-73.98-188.02,17.35-56.41,62.14-93.77,116.55-98.79-1.01-45.67,16.19-78.83,52.3-101.09,17.3-10.68,39.22-10.14,55.83,1.34,28.78,19.9,52.57,46.91,70.84,80.41l228.74-50.84c4.02-.88,8.23-.09,11.65,2.21,119.79,80.83,166.65,258.96,109,414.32-1.79,4.81-5.92,8.38-10.94,9.45-86.7,18.45-164.89,27.74-235.65,27.74Zm-269.07-354.13c-46.6,0-85.88,30.42-100.57,78.19-13.57,44.13-5.5,111.01,61.94,154.23.29.19.57.38.85.59,125.72,93.39,293.69,114.34,528.1,65.76,47.86-138.54,7.62-294.06-95.2-367.65l-233.58,51.91c-6.77,1.47-13.66-1.81-16.71-8.02-16.84-34.23-38.57-60.23-66.43-79.5-6.82-4.71-15.85-4.9-23.03-.48-30.21,18.62-41.67,45.89-37.16,88.44.45,4.3-.97,8.58-3.9,11.76-2.93,3.17-7.05,4.9-11.42,4.81-.96-.02-1.92-.04-2.87-.04Z"/>
    <path class="cls-6" d="m367.42,1929.28l-.95-29.98c109.67-3.47,184.58-41.13,235.72-118.52,5.76-8.71,6.52-20.04,1.99-29.58l-49.53-104.23,27.09-12.88,49.53,104.23c9.02,18.96,7.46,41.57-4.06,59-56.2,85.04-141.19,128.21-259.8,131.95Z"/>
    <path class="cls-6" d="m710.47,2082.68c-159.79,68.6-282.91-27.89-368.47-157.78-70.2-129.38-217.01-385.95-151.09-530.3,15.66-27.13,34.57-57.18,68.26-63.16,30.44-3.97,48.24,26.41,51.3,52.15,3.03,16.97,2.22,34.49-14.78,48.19-19.66-22.61-11.09-39.7-21.43-60.1-14.64-29.8-52.45,32.42-56.29,46.87-7.72,23.17-9.42,47.66-7.75,72.15,7.04,88.75,43.96,172.14,81.21,253.01,24.57,52.65,57.37,113.39,82.95,159.95,36.65,54.97,80.21,108.8,137.96,141.27,57.25,32.8,125.66,34.35,186.8,9.97,0,0,11.32,27.78,11.32,27.78h0Z"/>
    <path class="cls-6" d="m263.37,1350.14c3-30.05,9.95-59.78,29.99-84.54,18.26-23.19,51.65-31.75,75.8-11.72,30.49,25.02,37.87,67.25,40.4,103.85,0,0,.5,10.62.5,10.62-.32,25.15,2.18,50.2-14.37,72.18-11.73-22.49-7.94-46.63-10.84-70.6-3.33-27.24-8.72-57.45-24.28-79.72-24.35-35.57-49.2-1.08-58.38,26.97-4.08,11.54-6.87,23.91-9.04,36.53l-29.79-3.57h0Z"/>
    <path class="cls-6" d="m531.94,1658.03c3.52-16.09,11.63-17.7,23.02-23.27,16.43-8.33,32.68-19.02,43.52-33.47,21.69-27.03,18.33-92.31-14.19-109.56-4.26-2.23-7.15-1.3-10.3,3.02-10.19,12.71-17.08,27.71-21.4,43.37-7.7,22.79-37.5,33.5-57.5,19.61-6.08-3.54-17.02-10.2-23.18-13.81-14.21-9.59-29.85-11.52-45.22-3.97-4.66,2.18-9.7,3.62-15.16,4.26-5.53.51-11.38.41-18.34-1.82,7.92-24.88,33.51-35.51,57.8-34.92,11.77,0,26.15,5.2,35.41,10.86,6.38,3.42,17.53,9.43,23.77,12.78.52.29,2.06,1.13,2.49,1.25,3.9,1.65,8.4-1.39,9.63-5.18l1.85-6.69c6.61-20.46,15.58-39.67,31.78-54.66,23.6-19.42,55.07-2.65,69.19,18.8,20.44,30.24,23.26,68.42,13.36,102.67-9.77,34.35-41.38,57.38-72.42,70.87-12.04,5.26-20.9,10.44-34.11-.15h0Z"/>
    <path class="cls-6" d="m437.79,1532.11c-23.58-23.1,22.68-84.33,23.15-84.94,12.94-16.7,36.8-20.62,54.3-8.92,8.54,5.71,19.49,10.53,33.48,14.72,10.05,3.02,20.65-1.96,24.17-11.3,4.06-10.79,16.4-43.64-73.13-84.07-21.35-9.65-46.24-7.94-64.93,4.46-9.42,6.25-17.91,14.12-25.21,23.38l-23.55-18.57c9.28-11.76,20.1-21.79,32.19-29.8,27.22-18.05,63.18-20.65,93.86-6.8,76.41,34.51,106.31,75.54,88.86,121.97-9.04,24.05-35.76,36.98-60.85,29.49-16.9-5.06-30.5-11.12-41.56-18.53-4.46-2.98-10.56-1.94-13.89,2.36-14.06,18.15-24.35,42.65-23.62,49.01-.06-.52-.58-2.23-2.25-3.87l-21,21.43Z"/>
    <path class="cls-6" d="m831.94,2575.53c27.28.94,47.52,17.74,70.5,29.61,21.91,11.65,44.57,21.84,67.74,30.72,115.11,42.69,246.92,57.94,364.19,15.32,23.76-8.76,45.35-21.59,70.07-28.15-14.8,22.69-39.02,35.19-63.09,45.44-120.88,50.47-261.02,40.87-381.44-6.14-24.24-9.52-47.8-20.78-70.44-33.66-23.12-13.7-47.55-25.36-57.53-53.14h0Z"/>
    <path class="cls-6" d="m1026.99,2653.97c41.72,17.38,79.14,48.51,99.78,89.17,6.91,13.36,11.26,28.19,10.17,43.65-10.12-11.66-17.76-22.99-25.91-33.93-12.15-16.36-26.94-30.05-43.32-41.84-16.49-11.72-34.26-21.05-52.72-29.55l12-27.49h0Z"/>
    <path class="cls-6" d="m778.94,3096.45l-28.51-9.34c18.81-57.43,18.66-130.67-.44-223.9l29.39-6.03c20.18,98.48,20.03,176.74-.44,239.26Z"/>
    <path class="cls-6" d="m911.94,3119.28c-56.1-1.11-118.57-36.97-166.97,3.7-21.36,18.52-28.77,52.58-27.13,83.11.27,7.73.31,13.95,6.71,20.13,4.24,4.72,13.07,9.79,19.89,13.49,29.16,17.67,65.01,19.69,99.03,20.85,76.93.89,154.52-10.82,230.39-24.28,15.34-2.75,30.7-5.62,45.89-8.8l7.03,29.17c-61.5,16.67-123.85,28.91-187.43,36.57-63.53,6.45-150.79,13.95-208.9-17.73-21-11.41-44.6-27.07-48.49-54.06-6.15-53.19,10.88-116.4,64.51-139.5,53.19-22.36,129.11-8.69,165.47,37.35h0Z"/>
    <path class="cls-6" d="m1627.87,2874.78c-17.78,106.1-33.79,211.92-39.44,318.91,1.12,46.09-31.46,80.79-75.69,88.52-102.28,17.32-206.65,20.69-310.02,14.56-61.64-1.34-119.54-49.47-113.06-114.89,0,0,1.19-10.09,1.19-10.09,1.6-6.05,3.45-14.23,6.34-19.76,1.83-5.8,7.24-12.89,10.49-18.05,0,0,6.9-7.72,6.9-7.72,31.68-31.79,80.42-39.21,123.51-35.8,11.87,2.04,23.56,6.76,33.02,18.42-6.53,4.18-12.41,6.3-18.1,7.75-18.65,5-37.48,1.15-56.14,4.73-23.67,3.81-48.46,12.49-63.49,32.08-17.06,24.14-13.47,59.63,7.03,80.72,15.7,17.25,40.49,26.44,64.19,26.83,0,0,16.85.71,16.85.71,89.64,2.97,179.63-.41,268.28-14.07,7.49-1.36,22.06-3.11,29.14-6.27,18.7-7.23,31.25-22.61,31.92-41.11,0,0,.51-8.61.51-8.61,6.64-108.65,24.7-216.59,47.11-322.47,0,0,29.47,5.63,29.47,5.63h0Z"/>
    <path class="cls-6" d="m1170.42,3120.65l-29.07-7.41c19.59-76.83,10.35-156.89-29.09-251.96l27.71-11.49c42.05,101.36,51.72,187.43,30.45,270.86Z"/>
    <path class="cls-6" d="m1683.85,2591.09c-5.29,0-10.69-.2-16.21-.59l2.12-29.92c58.92,4.15,99.23-17.32,123.32-65.73,6.34-12.74,9.69-27.47,9.69-42.6v-772.96c0-20.74-10.38-39.95-27.77-51.4-81.57-53.71-148.34-53.71-202.89-46.63l-3.86-29.75c60.03-7.78,133.48-7.79,223.24,51.32,25.84,17.01,41.27,45.6,41.27,76.46v772.96c0,19.74-4.44,39.09-12.84,55.97-27.4,55.04-73.14,82.87-136.09,82.87Z"/>
    <path class="cls-6" d="m1689.12,1670.06l-11.09-27.87c40.65-16.19,83.43-21.59,130.72-16.57l-3.17,29.83c-42.34-4.51-80.44.26-116.46,14.6Z"/>
    <path class="cls-6" d="m1111.58,2556.61c-36.16,0-72.87-7.09-108.82-21.7-73.27-29.79-134.49-88.5-172.4-165.31-42.1-85.3-54.45-189.9-35.71-302.5,1.2-7.24,7.46-12.54,14.8-12.54h161.09s0,30,0,30h-148.26c-35.2,239.69,80.42,377.28,191.78,422.56,117.83,47.9,245.3,5.01,324.73-109.26l24.63,17.12c-63.74,91.7-155.87,141.63-251.85,141.64Z"/>
    <rect class="cls-6" x="801.62" y="2175.81" width="106.78" height="30"/>
    <g>
      <g>
        <path class="cls-1" d="m638.29,1334.53c40,90.81,103.2,172.08,186.71,234.46,17.03,12.71,34.84,24.63,53.49,35.68,9.05,5.4,18.38,10.57,27.87,15.61,28.67,15.02,58.02,27.51,87.82,37.53,25.67,8.7,51.69,15.54,77.81,20.64,31.54,6.18,63.3,9.72,94.97,10.82,11.55.36,23.07.42,34.57.18,210.48-4.86,412.51-118.58,518.78-314.95,156.61-289.23,46.06-648.13-246.82-801.65-56.43-29.53-115.54-49.39-175.29-59.93-6.97-1.3-14.01-2.4-21.06-3.36-18.84-2.68-37.7-4.47-56.54-5.35-43.57-2.04-87.04.67-129.56,7.84-42.52,7.12-84.21,18.75-124.18,34.59-12.71,5.03-25.26,10.48-37.64,16.38-18.55,8.86-36.66,18.6-54.3,29.38-87.98,53.4-163.24,129.85-215.39,226.21-90.1,166.37-91.77,355.77-21.24,515.9Z"/>
        <path class="cls-6" d="m1187.72,1691.29c-6.96,0-13.93-.11-20.83-.33-32.1-1.11-64.14-4.77-95.24-10.85-26.55-5.18-52.8-12.15-78.03-20.7-30.1-10.13-59.73-22.79-88.06-37.64-10.43-5.54-19.58-10.66-27.95-15.66-18.31-10.84-36.36-22.89-53.63-35.78-81.58-60.93-146.33-142.24-187.24-235.13-73.79-167.55-66.03-356.13,21.3-517.39,50.48-93.29,125.17-171.73,216-226.85,17.17-10.49,35.49-20.41,54.45-29.46,12.17-5.81,24.87-11.34,37.74-16.43,40.09-15.9,81.98-27.57,124.52-34.69,42.92-7.24,86.63-9.89,129.92-7.86,18.79.88,37.87,2.69,56.7,5.37,7.39,1,14.5,2.13,21.13,3.37,60.98,10.76,120.12,30.98,175.76,60.1,142.63,74.76,246.79,199.96,293.3,352.54,46.14,151.37,29.88,311.68-45.77,451.41-102.71,189.78-302.05,310.8-520.23,315.84-4.59.1-9.21.15-13.83.15Zm-547.89-357.45c40.68,92.36,105.06,173.2,186.17,233.79,17.18,12.82,35.12,24.79,53.34,35.58,8.33,4.97,17.42,10.06,27.8,15.57,28.16,14.76,57.62,27.35,87.56,37.43,25.09,8.51,51.19,15.43,77.6,20.58,30.93,6.05,62.79,9.69,94.7,10.8,11.42.35,23.02.41,34.48.18,216.97-5.01,415.2-125.35,517.33-314.07,75.22-138.92,91.39-298.31,45.51-448.81-46.24-151.71-149.81-276.2-291.63-350.53-55.33-28.96-114.15-49.07-174.8-59.77-6.59-1.23-13.65-2.35-20.99-3.34-18.74-2.67-37.71-4.46-56.39-5.34-43.06-2.02-86.51.62-129.2,7.82-42.3,7.08-83.96,18.69-123.83,34.5-12.81,5.07-25.43,10.56-37.53,16.33-18.86,9.01-37.08,18.87-54.15,29.3-90.31,54.81-164.59,132.82-214.78,225.58-86.83,160.34-94.55,347.83-21.18,514.41Z"/>
      </g>
      <g class="cls-4">
        <path class="cls-6" d="m1720.3,1374.49c-106.26,196.39-308.32,310.12-518.79,314.95-11.5.26-23.02.2-34.55-.17-31.67-1.08-63.43-4.66-94.97-10.81-26.12-5.12-52.16-11.94-77.81-20.64-29.82-10.02-59.15-22.5-87.85-37.53-9.46-5.07-18.79-10.22-27.86-15.6-18.64-11.06-36.43-23.01-53.47-35.71-83.5-62.38-146.73-143.62-186.72-234.46-21.98-49.88-36.96-102.65-44.43-156.65,40.17,85.8,101.38,162.48,181.04,221.99,17.02,12.75,34.83,24.65,53.48,35.71,9.04,5.4,18.36,10.54,27.86,15.6,28.7,15.03,58.03,27.51,87.81,37.54,25.68,8.68,51.68,15.52,77.81,20.64,31.54,6.15,63.33,9.71,94.97,10.81,11.57.36,23.09.42,34.59.16,210.47-4.83,412.5-118.55,518.79-314.95,62.04-114.55,82.11-240.03,65.6-359.32,76.31,162.74,76.96,357.74-15.49,528.45Z"/>
      </g>
      <path class="cls-6" d="m1187.72,1702.62c-7.08,0-14.16-.11-21.18-.33-32.74-1.13-65.38-4.85-97.07-11.06-27.04-5.28-53.78-12.37-79.49-21.08-30.64-10.32-60.83-23.21-89.68-38.34-10.65-5.66-19.96-10.87-28.49-15.96-18.63-11.04-37.01-23.3-54.6-36.43-83.15-62.1-149.13-144.97-190.83-239.64h0c-75.22-170.78-67.31-362.99,21.7-527.35,51.44-95.05,127.54-174.98,220.08-231.14,17.47-10.67,36.14-20.77,55.45-30,12.4-5.92,25.34-11.55,38.46-16.74,40.82-16.19,83.49-28.08,126.81-35.33,43.71-7.37,88.23-10.04,132.32-8.01,19.15.9,38.59,2.74,57.77,5.47,7.5,1.01,14.79,2.17,21.61,3.44,62.02,10.94,122.27,31.54,178.94,61.2,145.34,76.18,251.48,203.77,298.88,359.28,47.03,154.29,30.46,317.7-46.65,460.1-104.64,193.34-307.7,316.64-529.93,321.77-4.68.1-9.39.15-14.1.15Zm-537.51-373.34c39.9,90.57,103.03,169.85,182.58,229.27,16.85,12.58,34.46,24.32,52.33,34.91,8.2,4.89,17.13,9.89,27.33,15.31,27.58,14.45,56.49,26.81,85.86,36.69,24.63,8.35,50.24,15.14,76.15,20.2,30.34,5.94,61.61,9.5,92.93,10.59,11.19.35,22.59.41,33.85.18,212.89-4.92,407.4-122.98,507.6-308.13,73.77-136.24,89.62-292.54,44.64-440.11-45.35-148.79-146.94-270.89-286.05-343.8-54.29-28.41-112-48.14-171.51-58.65-6.51-1.21-13.38-2.3-20.54-3.27-18.47-2.63-37.08-4.39-55.41-5.25-42.24-1.98-84.89.61-126.78,7.68-41.53,6.95-82.41,18.34-121.54,33.86-12.58,4.98-24.96,10.37-36.83,16.03-18.5,8.84-36.38,18.51-53.12,28.74-88.63,53.79-161.48,130.3-210.73,221.29-85.15,157.24-92.72,341.1-20.77,504.46h0Z"/>
      <path class="cls-6" d="m1187.72,1706.4c-7.12,0-14.24-.11-21.3-.33-32.95-1.15-65.79-4.89-97.67-11.13-27.2-5.31-54.11-12.45-79.98-21.22-30.83-10.37-61.19-23.35-90.22-38.56-10.73-5.7-20.08-10.94-28.67-16.06-18.73-11.09-37.22-23.43-54.93-36.64-83.67-62.5-150.07-145.88-192.03-241.15h0c-75.69-171.85-67.73-365.27,21.84-530.67,51.76-95.64,128.33-176.06,221.44-232.57,17.57-10.74,36.35-20.9,55.78-30.18,12.48-5.96,25.5-11.63,38.7-16.85,41.07-16.28,83.99-28.25,127.58-35.54,43.96-7.42,88.76-10.15,133.12-8.05,19.27.9,38.83,2.75,58.12,5.5,7.53,1.02,14.89,2.19,21.77,3.47,62.37,11.01,122.98,31.73,180,61.57,146.25,76.66,253.05,205.04,300.74,361.52,47.33,155.27,30.66,319.7-46.94,463-105.28,194.53-309.58,318.58-533.17,323.75-4.72.1-9.45.15-14.19.15Zm-534.06-378.64c39.63,89.98,102.35,168.74,181.39,227.77,16.74,12.5,34.24,24.17,51.99,34.68,8.15,4.86,17.03,9.83,27.18,15.23,27.38,14.35,56.11,26.63,85.3,36.45,24.48,8.3,49.93,15.05,75.67,20.07,30.15,5.91,61.21,9.45,92.34,10.53,11.11.35,22.45.4,33.64.18,211.53-4.88,404.8-122.2,504.36-306.15,73.29-135.34,89.03-290.62,44.35-437.22-45.06-147.81-145.98-269.12-284.19-341.56-53.95-28.23-111.29-47.84-170.41-58.27-6.48-1.21-13.29-2.29-20.39-3.25-18.38-2.61-36.87-4.37-55.08-5.22-41.97-1.95-84.35.61-125.98,7.63-41.27,6.91-81.9,18.23-120.78,33.65-12.5,4.95-24.81,10.3-36.59,15.93-18.39,8.78-36.15,18.39-52.78,28.55-88.06,53.45-160.45,129.47-209.37,219.87-84.59,156.21-92.11,338.86-20.64,501.14h0Z"/>
      <path class="cls-6" d="m717.22,1464.79c329.56,271.08,822.34,138.4,884.57-276.96,42.34-282.59-205.53-540.8-483.34-562.69-202.19-15.93-406.93,55.73-518.74,358.4,0,0-28.53,141.46,2.29,239.79,30.82,98.33,77.64,188.78,77.64,188.78l37.59,52.7Z"/>
      <path class="cls-5" d="m1601.77,1187.82c-62.22,415.36-555.01,548.03-884.56,276.98l-7.61-10.69c380.2,100.13,785.29-95.84,856.12-514.67,34.56,76.29,49.09,161.18,36.04,248.38Z"/>
      <path class="cls-6" d="m1102.91,1683.82c-36.98,0-74.32-3.12-111.56-9.44l-2.54-.64c-30.86-10.39-61.23-23.36-90.26-38.58-10.73-5.7-20.08-10.94-28.67-16.06-18.73-11.09-37.22-23.43-54.93-36.64-83.67-62.5-150.07-145.88-192.03-241.15h0c-75.69-171.85-67.73-365.27,21.84-530.67,51.76-95.64,128.33-176.06,221.44-232.57l1.47-.89,1.63-.58c74.98-26.6,160.15-36.37,253.14-29.04,167.39,13.19,332.05,102.48,440.46,238.84,97.66,122.84,139.6,269.47,118.11,412.89-23.4,156.07-99.98,285.07-221.47,373.06-100.56,72.82-226.33,111.49-356.64,111.49Zm-104.63-42.35c159.19,26.75,320.05-8.36,441.56-96.35,114.01-82.57,185.92-203.88,207.95-350.83,20.1-134.1-19.39-271.54-111.18-387-102.72-129.2-258.53-213.78-416.8-226.25-87.58-6.9-167.53,2.07-237.65,26.64-87.35,53.37-159.21,129.05-207.85,218.95-84.59,156.21-92.11,338.86-20.64,501.14,39.63,89.98,102.35,168.74,181.39,227.77,16.74,12.5,34.24,24.17,51.99,34.68,8.15,4.86,17.03,9.83,27.18,15.23,26.99,14.15,55.29,26.27,84.05,36.03Z"/>
      <path class="cls-6" d="m1103.05,1616.44c-137.89,0-277.49-49.59-392.18-143.93l-1.02-.84-39.09-54.98c-.47-.91-47.58-92.36-78.3-190.39-31.23-99.63-3.73-238.87-2.55-244.75l.42-1.49c96.84-262.15,274.79-384.89,528.9-364.9,147.58,11.63,292.77,90.37,388.38,210.62,86.02,108.19,122.98,237.29,104.06,363.52-27.44,183.14-140.42,325.56-309.99,390.71-63.69,24.47-130.96,36.43-198.64,36.43Zm-378.46-158.54c165.31,135.4,383.57,175.06,569.92,103.45,162.65-62.5,271.04-199.19,297.39-375,18.08-120.68-17.41-244.31-99.94-348.12-92.22-115.99-232.15-191.93-374.3-203.13-243.87-19.29-414.87,98.92-508.29,351.14-2.12,11.06-26.39,142.97,2.17,234.08,28.89,92.19,72.51,178.44,76.66,186.56l36.39,51.02Z"/>
      <path class="cls-1" d="m1869.78,1183.95c-3.09,116.92-75.7,213.35-162.2,215.36-86.5,2.01-154.11-91.15-151.02-208.07,0-.73.05-1.51.09-2.25,3.93-115.91,76.21-211.12,162.1-213.11,66.82-1.56,122.37,53.69,142.77,132.79,5.99,23.29,8.95,48.69,8.25,75.28Z"/>
      <g class="cls-4">
        <path class="cls-6" d="m1869.78,1183.95c-3.09,116.92-75.7,213.35-162.2,215.36-86.5,2.01-154.11-91.15-151.02-208.07,0-.73.05-1.51.09-2.25,9.19,11.78,23.68,23.25,43.84,18.8,35.31-7.81,100.32-84.46,100.32-84.46,0,0,69.65-6.81,160.71-14.66,5.99,23.29,8.95,48.69,8.25,75.28Z"/>
      </g>
      <path class="cls-6" d="m1704.79,1416.13c-37.3,0-72.18-15.24-101.05-44.2-42.56-42.71-65.88-108.73-63.96-181.14,3.32-125.55,83.45-229.49,178.62-231.69,38.6-.83,74.54,14.38,104.23,44.16,42.57,42.7,65.88,108.73,63.97,181.15h0c-3.32,125.54-83.45,229.48-178.62,231.69-1.06.02-2.13.04-3.19.04Zm16.74-423.48c-.79,0-1.57,0-2.35.02-77.55,1.8-142.96,91.07-145.81,199-1.65,62.33,18.6,120.85,54.17,156.53,23.04,23.11,50.62,34.88,79.66,34.3,77.55-1.81,142.96-91.07,145.81-199,1.65-62.33-18.61-120.85-54.17-156.54-22.42-22.49-49.1-34.32-77.3-34.32Zm148.27,191.3h.05-.05Z"/>
      <ellipse class="cls-1" cx="1763.86" cy="1202.03" rx="172.96" ry="117.9" transform="translate(417.97 2858.73) rotate(-85.18)"/>
      <g class="cls-4">
        <path class="cls-6" d="m1758.59,1374.62c65.34-2.02,120.62-80.93,123.52-176.27.34-10.35-.02-20.47-.9-30.27-19.14,65.21-63.92,112.4-114.71,113.93-57.36,1.72-103.57-55.44-112.67-133.14-4.75,17.87-7.62,37-8.24,56.83-2.9,95.35,47.7,170.95,113.01,168.93Z"/>
      </g>
      <path class="cls-6" d="m1756,1391.46c-27.56,0-53.47-11.37-75.12-33-34.48-34.46-53.95-91.76-52.08-153.27,3.21-105.63,64.61-190.21,139.78-192.54,28.68-.85,55.78,10.51,78.24,32.95,34.48,34.46,53.95,91.76,52.08,153.27-3.21,105.63-64.61,190.2-139.77,192.54-1.04.03-2.09.04-3.12.04Zm15.62-345.26c-.67,0-1.33,0-2,.03-55.54,1.72-104.65,74.99-107.24,159.99-1.59,52.42,14.2,100.45,42.25,128.48,15.74,15.73,34.2,23.75,53.45,23.13,55.54-1.72,104.65-74.99,107.24-159.99,1.59-52.42-14.2-100.45-42.25-128.48-15.19-15.19-32.94-23.17-51.45-23.17Z"/>
      <g class="cls-3">
        <path class="cls-1" d="m1254.12,745.87s-268.96-4.25-428.9,136.03c-.17.15-.34.3-.5.44-33.64,29.55-58.58,67.53-72.49,109.74-18.41,55.83-22.8,96.93-25.26,133.26-7.42,110.49,10.07,163.57,10.07,163.57-59.82-62.35-91.29-130.87-86.04-222.96.54-9.08,1.44-18.42,2.67-27.98.28-2.2.6-4.38.96-6.57-.05-.02-.02-.07.04-.13,3.87-19.2,9.92-44.23,19.14-71.92,27.75-83.52,84.07-191.21,195.52-235.87,208.38-83.51,394.8,11.41,384.79,22.38Z"/>
      </g>
      <g class="cls-3">
        <ellipse class="cls-1" cx="1411.34" cy="1039.28" rx="80.39" ry="92.35" transform="translate(-183.25 311.77) rotate(-11.84)"/>
      </g>
      <g class="cls-3">
        <ellipse class="cls-1" cx="1444.37" cy="1203.78" rx="33.18" ry="38.15" transform="translate(-291.05 480.18) rotate(-17.17)"/>
      </g>
    </g>
  </g>
  <g>
    <path class="cls-1" d="m398.05,722.9c22.76-37.25,33.99-81.96,29.19-128.73-11.66-113.53-113.14-196.12-226.68-184.46-113.53,11.66-196.12,113.14-184.46,226.68,11.66,113.53,113.14,196.12,226.68,184.46,31.58-3.24,60.75-13.45,86.18-28.92l95.63,21.45-26.54-90.47Z"/>
    <g class="cls-3">
      <path class="cls-1" d="m204.62,449.24c106.06-10.89,201.58,60.47,223.2,162.46.03-7.29-.29-14.64-1.05-22.05-11.66-113.53-113.14-196.12-226.68-184.46-113.53,11.66-196.12,113.14-184.46,226.68.76,7.44,1.94,14.74,3.45,21.9.4-104.3,79.45-193.64,185.54-204.53Z"/>
    </g>
    <path class="cls-6" d="m221.5,836.94c-112.14,0-208.63-85.1-220.33-199.02-12.48-121.58,76.28-230.65,197.86-243.13,121.52-12.5,230.64,76.27,243.13,197.85,4.77,46.42-4.87,92.01-27.88,132.3l24.7,84.22c1.49,5.1.18,10.61-3.45,14.48-3.63,3.87-9.05,5.53-14.23,4.38l-89.84-20.15c-26.84,15.34-56.13,24.73-87.16,27.91-7.65.79-15.27,1.17-22.8,1.17Zm.31-413.33c-6.52,0-13.09.33-19.72,1.01-105.12,10.79-181.87,105.1-171.07,210.22,10.79,105.12,105.04,181.86,210.23,171.07,28.61-2.93,55.5-11.96,79.91-26.81,3.31-2.02,7.29-2.66,11.08-1.83l70.79,15.88-19.37-66.04c-1.19-4.06-.61-8.44,1.6-12.05,22.02-36.04,31.38-77.31,27.06-119.38-10.11-98.5-93.55-172.08-190.51-172.08Z"/>
    <g class="cls-4">
      <path class="cls-6" d="m399.21,720.91c-56.6,47.88-134.58,68.84-212.02,49.57-85.88-21.37-149.15-86.77-171.91-166.13-.54,10.52-.3,21.22.81,32.03,11.66,113.53,113.14,196.12,226.68,184.46,31.58-3.24,60.75-13.45,86.18-28.92l95.63,21.45-26.54-90.47c.4-.65.77-1.33,1.16-1.98Z"/>
    </g>
    <path class="cls-8" d="m287.74,557.24h0c-17.88-17.88-46.88-14.68-64.76,3.2l-2.78,2.78-2.78-2.78c-17.88-17.88-46.88-21.09-64.76-3.2h0c-17.88,17.88-17.88,46.88,0,64.76l2.78,2.78,56.23,56.23c4.71,4.71,12.36,4.71,17.07,0l56.23-56.23,2.78-2.78c17.88-17.88,17.88-46.88,0-64.76Z"/>
  </g>
</svg>