<?xml version="1.0" encoding="utf-8"?>
<!-- Generator: Adobe Illustrator 27.9.2, SVG Export Plug-In . SVG Version: 6.00 Build 0)  -->
<svg version="1.1"
	 id="svg2" xmlns:inkscape="http://www.inkscape.org/namespaces/inkscape" xmlns:svg="http://www.w3.org/2000/svg" xmlns:sodipodi="http://sodipodi.sourceforge.net/DTD/sodipodi-0.dtd"
	 xmlns="http://www.w3.org/2000/svg" xmlns:xlink="http://www.w3.org/1999/xlink" x="0px" y="0px" viewBox="0 0 5333.3 5333.3"
	 style="enable-background:new 0 0 5333.3 5333.3;" xml:space="preserve">
<style type="text/css">
	.st0{fill:#FFBBBA;}
	.st1{fill:#FFFFFF;}
	.st2{fill:#D7D1DA;}
	.st3{fill:#371A45;}
	.st4{fill:#B7ACBC;}
	.st5{fill:#22A7F0;}
	.st6{fill:#1C7AEA;}
	.st7{fill:#D8D8D8;}
	.st8{fill:#92919C;}
	.st9{fill:#2A1A3B;}
	.st10{fill:#9B8DA2;}
	.st11{fill:#958D9D;}
	.st12{fill:#AD825A;}
	.st13{fill:#E2AF76;}
	.st14{fill:#F1D7BB;}
	.st15{fill:#C68659;}
	.st16{fill:#54504D;}
	.st17{fill:#44413F;}
	.st18{fill:#EED9FF;}
	.st19{fill:#ECECEC;}
	.st20{fill:#E3C3AC;}
	.st21{fill:#AAA8A6;}
	.st22{fill:#A2A09F;}
</style>
<sodipodi:namedview  bordercolor="#000000" borderopacity="0.25" id="namedview4" inkscape:deskcolor="#d1d1d1" inkscape:pagecheckerboard="0" inkscape:pageopacity="0.0" inkscape:showpageshadow="2" pagecolor="#ffffff">
	</sodipodi:namedview>
<g id="g8" transform="matrix(1.3333333,0,0,-1.3333333,0,5333.3333)" inkscape:groupmode="layer" inkscape:label="ink_ext_XXXXXX">
	<g id="g10" transform="scale(0.1)">
		<path id="path14" class="st0" d="M18620.3,520c-7576,0-13717.6,656.6-13717.6,1466.5c0,324.5,986.4,624.5,2655.7,867.3
			c46.9-223.6,143.9-427.2,267.2-585.6c357.7-459.8,798.7-459.8,1977-459.8c279.1,0,575.5-6.2,862.2-12.3
			c301.3-6.4,575.4-11.4,822.2-11.4c775.1,0,1282.5,49,1523.3,257.2c258.3,222.8,389.1,700.9,548.9,1307.9
			c1566.1,66.5,3273.5,103,5061.1,103c294.1,0,585.6-0.9,875-2.9c594.5-759.6,1573.6-1357.2,2873.2-1357.1
			c856.7,0,1852.7,259.7,2969.1,904.2c0,0,507.3-843.5,1360.4-843.3c66.5,0,135.2,5.2,205.9,16.2c573.2,89.5,964,336.2,1079.7,888.2
			c2679.4-267.6,4354.4-648.8,4354.4-1071.6C32338,1176.5,26196.4,520,18620.3,520"/>
		<path id="path16" class="st1" d="M23807,19712.4l-258.5-1259.8l-131.7-642.2L21143.9,6740.6c0,0,763.4-112.3,1799.5-180.6
			c202.4-13,415.7-24.8,635.6-33.8c1637.9-66.4,3649.2,25.5,4504.9,760c330.5,283.9,641.6,898.5,908.8,1698.1
			c767,2293.3,1176.9,6107.9,672.8,7990.9c-16.2,61.1-37.8,121.4-65,179.7c-481.1,1066-2586.9,1792.4-4121.7,2190.6
			c-180.4,47.4-353.8,90.1-515.2,127.7C24282.1,19633.3,23807,19712.4,23807,19712.4"/>
		<path id="path18" class="st2" d="M24389.5,6787.4c-180,0-359.8,2.5-537.8,7.2c9,300.4,43.9,675.6,155.7,838.9
			c40.9,54.7,83.2,113.2,126.9,175.2c176.9,146,341.5,300,492.5,460.5c352.4-213.4,1008.8-396.3,1631.7-396.3
			c81.9,0,163.4,3.2,243.3,10c502.6,41.9,899.2,221.2,1147,518.7c65.8,79,131,189.5,194.2,320.4c39-2.3,77.8-3.3,116.3-3.3
			c246.1,0,478.1,44.9,694,119.2c-227.8-633-482.8-1112.5-750.1-1342c-408.1-350.4-1148.6-542.8-2005.6-635.7
			c-6.1,0.1-12.2,0.1-18.3,0.1c-160.2,0-329.8-16.7-499.8-43.9C25055.6,6796.2,24722.2,6787.4,24389.5,6787.4 M29261.6,17201.7
			c-967.8,146.4-1966,393.5-2744.3,459c-4,123.4-8.9,245.7-14.6,365.1c428.6,56.5,853.5,138.6,1272.3,246.1
			C28445.1,17964.1,28998.6,17605,29261.6,17201.7"/>
		<path id="path20" class="st3" d="M21474.2,6974.7c1649.7-210,5303.5-445,6428.8,521.2c1189.7,1021.4,2139.9,7000.2,1495.3,9407.8
			c-346.1,1293.1-3777.6,2190.2-5374.4,2489L21474.2,6974.7 M24389.6,6231.6c-1651.2,0-3168.4,217.5-3286.4,234.8l-290,42.6
			l2776.2,13520.4l263.1-43.8c55.6-9.3,1377.8-232.3,2784.1-687.2c1957-633.1,3066.2-1390.7,3296.6-2251.4
			c324.4-1211.5,304.9-3319.5-50.7-5501.5c-137-840.1-658.4-3645.1-1618.7-4469.6C27488.1,6409.7,25884,6231.6,24389.6,6231.6"/>
		<path id="path22" class="st3" d="M26390.3,17808.9c829.9-17.4,1653.1-65.8,2474.2-200c276.3-47.9,553.1-103.5,834.8-196
			c145.5-47.8,224.6-204.3,176.9-349.7c-49.6-154-224.6-232.7-372.8-168.2c-730.1,292-1542,418.1-2322.5,533.1
			c-268,36.8-538.7,70.1-806.4,95.8C26195.3,17544.7,26208.9,17807.3,26390.3,17808.9"/>
		<path id="path24" class="st1" d="M28112.1,11764.8c-305.5,347.9-2825.9,679.9-3196.2,376.3
			c-370.3-303.8-995.7-2919.9-243.9-3565.6c382.1-328.2,2122.1-767.4,2764.1,3.3C27835.9,9058.7,28417.6,11416.9,28112.1,11764.8"/>
		<path id="path26" class="st2" d="M26256.6,8426.5c-502.4,0-1009.9,145.1-1269.1,274.7c101.4,137.5,193.2,278.9,275,423.4
			c40.3-65,87.2-121.4,141.2-167.9c214.9-184.4,860-404.3,1497.6-423.8c-149.4-60.1-310.7-87.1-445.5-98.3
			C26389.9,8429.2,26323.3,8426.5,26256.6,8426.5"/>
		<path id="path28" class="st3" d="M27907.9,11578.2h0.7H27907.9 M25089.1,11924.6c-152.8-154.8-518.4-1295.4-492.4-2261.7
			c11.7-434.3,102.5-745.8,255.6-877.4c181.3-155.7,928.1-407.1,1603.6-350.8c245,20.4,577.1,92.8,767.5,321.3
			c339.1,407.1,828.1,2467.9,675.2,2830.1C27575.1,11844.5,25416.1,12106.4,25089.1,11924.6 M26258.5,7872.9
			c-714.8,0-1474.2,240.9-1766.9,492.5c-306.2,262.9-457.4,749-449.5,1444.6c10.1,901.6,323.8,2237.8,698.3,2545
			c301,247,1162.4,200,1832.1,117.1c434.3-53.9,1473.9-212.6,1747.7-524.5c77.5-88.3,313.1-356.5-11.4-1787.5
			c-139.1-612.6-395.2-1440.8-659.9-1758.4c-247.8-297.4-644.4-476.7-1147-518.7C26421.9,7876.1,26340.4,7872.9,26258.5,7872.9"/>
		<path id="path30" class="st1" d="M18505,7017.5c0,0-2826.7-55.3-3985.3-1012.5c-1159.3-957.2-1185-3317.4-1690.2-3753.4
			c-328.8-284.6-1800.3-166.2-3026.7-166.2c-1134.4,0-1484,0-1758.7,353c-137.8,177.2-263.7,478.2-235.3,802.8
			c15.3,175.7,76.2,357.8,203.5,531.6c399.4,543.2,1081.8,650.6,1081.8,650.6s-85.7,2733.2,908.8,4475.3
			c674.2,1180.8,1661.2,2006.5,2382.4,2497.2c539.1,366.8,930.3,546.2,930.3,546.2L18505,7017.5"/>
		<path id="path32" class="st2" d="M11472.4,2338.7c-274.5,0-555.8,6-795.9,11c-289.5,6.1-588.9,12.5-873.8,12.5
			c-1113,0-1355.1,8.2-1540.1,246.1c-68.9,88.5-149.2,243.7-173.9,426.3c267-116.5,783.9-239,1776.5-239c383.8,0,713-7,997.7-7
			c1118.6,0,1552.6,108.6,1951.4,1179.5c501.2,1343.4,634.7,1686.1,907.4,2848.2c315.9,1346.2-1534.3,2002.9-1379.7,4209.3
			c115.5,83.3,225.8,158.9,328.9,226.4c315.7-2225.1,2204.3-3530.3,2474.8-3706.6c319.5-208.4,649.9-392.2,989.3-551.1
			c-671-159.4-1340.8-403.2-1791.9-775.8c-768.7-634.8-1067-1768.5-1306.5-2679.4c-118.5-450.7-253-961.6-388.1-1078.2
			C12530.6,2361.9,12014.8,2338.7,11472.4,2338.7"/>
		<path id="path34" class="st3" d="M11487,1784.7c-246.9,0-520.9,5-822.2,11.4c-286.7,6.1-583.1,12.3-862.2,12.3
			c-1178.3,0-1619.4,0-1977,459.8c-312.8,402.2-457.6,1095.8-36.5,1668.9c308.7,420.1,754.9,616,1026.1,701.2
			c2,702.2,82,2882.6,947.1,4397.9c1208.4,2117.1,3347.1,3116.3,3437.5,3157.7c139.1,63.8,303.3,2.8,367.1-136.2
			c63.7-139,2.8-303.4-136.3-367.1c-20.3-9.4-2069.7-970.6-3187.5-2928.9c-944.9-1655.3-873.1-4302.7-872.3-4329.3
			c4.4-139.6-95.8-260.5-233.7-282.2c-4.6-0.8-578.1-100.5-902-541.1c-288.7-392.9-108.3-826.5,27.3-1000.9
			c185-237.8,427.1-246.1,1540.1-246.1c285,0,584.4-6.4,873.8-12.5c714.4-15.3,1794.5-38,1972,111.2
			c135.1,116.7,269.6,627.5,388.1,1078.2c239.6,910.9,537.8,2044.6,1306.5,2679.4c1219.3,1007,4036.8,1073.3,4156.1,1075.7
			c150,3.6,279.2-118.4,282.3-271.3c2.9-152.9-118.5-279.2-271.4-282.3c-27.2-0.5-2743.6-64.9-3814.5-949.1
			c-631.1-521.1-904.1-1559.2-1123.6-2393.4c-165.6-629.9-296.5-1127.5-561.7-1356.3C12769.5,1833.6,12262.1,1784.7,11487,1784.7"/>
		<path id="path36" class="st1" d="M25971.7,12703.4c-74.7-500.4-164.7-986.3-270.6-1445.9c-130.2-564.7-285.2-1088.7-466.5-1551
			c-1090.1-2781.7-6027.1-4478.9-9937.6-1929c-416.6,272.1-1536.5,1141.3-2083.4,2515.9c-248.5,625-379.3,1355.2-271.3,2180.9
			c34.6,259.6,92,528.1,176.5,805.6c832.6,2729.8,2813.5,3373.6,4234.4,6199.5l8657.3,577.2
			C26332.3,18379.6,26364.8,15340.5,25971.7,12703.4"/>
		<path id="path38" class="st2" d="M19267.4,9504.4c-1.3,0-2.7,0-4,0c-1115.8,8.4-3931.5,88-5691.2,659.4
			c-276.6,593.9-447,1301.5-372.4,2113.6c54.4-9.7,109.2-19.1,164.2-27.7c-178.1-1433.5,38.5-1784.3,281.4-1929.8
			c344.7-206.7,3249.9-440.9,4952.2-562.2c218.2-25.6,419.5-35.3,561-38.8c2.3-0.1,4.5-0.1,6.8-0.1l0,0l0,0h0.1
			c138.3,0,254.2,102.1,273.8,236.6c0,0.1,0,0.4,0.1,0.7c0,0,0,0.1,0,0.3c1.6,10.9,2.5,22,2.8,33.2
			c17.7,486.8,49.4,930.4,89.5,1330.3c585.4-135.2,1370.4-198.3,2192.8-198.3c904.2,0,1853.3,76.2,2631,216.7
			c457.4,82.6,855.8,187.4,1150.6,312c-38.5-183.4-79.5-363.7-123.2-539.4c-1030.6-428.3-2311.9-543-3388.4-543
			c-1242.2-0.1-2211.8,152.6-2211.8,152.6l-25-742.1C19748.7,9714.1,19532.1,9504.4,19267.4,9504.4 M22059.7,12824
			c-1010.3,0-1848.3,107.8-2273.8,175.3c59.9,284,118.5,513.4,168.3,688.2c1206.3,572.2,2084.8,1109.7,2253.6,1214.8l0,0l0,0
			c18.6,11.9,28.8,18,29.7,18.6c0.1,0,0,0,0.1,0c-1569.6-1218.1-1001.7-1871.7,122.1-2093.7l0,0
			C22258.4,12825,22158.2,12824,22059.7,12824"/>
		<path id="path40" class="st2" d="M18089,6933.7c-926.4,181.4-1823,542.2-2641.1,1075.6c-94.6,61.7-410.5,277.7-777.5,635.7
			c984.7-588.9,2026-918.7,3049.3-1038.3l-122.2-50C17812.1,7382.5,17966.5,7173.6,18089,6933.7"/>
		<path id="path42" class="st3" d="M19498.4,6242.8c-1523.8,0-3033.3,442.1-4352.8,1302.5c-347.1,226.3-3359.5,2311.6-2291.5,5815.3
			c471.4,1546.6,1294.7,2446.5,2166.2,3399.2c715.6,782.1,1455.6,1591.1,2085.3,2844.3c68.6,136.6,235.1,191.5,371.8,122.9
			c136.6-68.6,191.8-235.1,123-371.6c-664.3-1321.7-1430.5-2159.3-2171.6-2969.3c-864-944.5-1610.1-1760.2-2045.1-3186.9
			c-950-3116.7,1752.9-4986.9,2064.2-5189.9c1880.3-1226.1,4174.9-1539.9,6295.1-861.2c1569.1,502.2,2777.9,1496.5,3233.7,2659.5
			c1114.1,2842.9,1195.2,7938.2,761.6,10196.8c-28.8,150.2,69.5,295.3,219.7,324.1c150.2,29.3,295.3-69.5,324.1-219.8
			c445.8-2322.8,359.9-7569.3-789.8-10503.2c-515.9-1316.5-1854.3-2432.4-3580.3-2984.8
			C21121.1,6367.6,20307.6,6242.8,19498.4,6242.8"/>
		<path id="path44" class="st1" d="M28018.9,3393.5c-13.8-791.8-436.7-1117.8-1115-1223.7c-976.6-152.9-1566.3,827.1-1566.3,827.1
			c-3190.8-1841.8-5396.5-541.9-6184.2,984.9c-465.1,900.4-620.1,1712.3-834,2374c-56.7,175.1-117.6,340.4-189.7,493.5
			c-0.7,1.3-0.7,2.1-0.7,2.1c-128.7,274.7-292.8,511.4-531.6,705.2l7996.3,3269c-359.3-1287.3-1089.5-2527.6-1586.4-3192.1
			c-200.7-293.5-153.7-1269.4-153.7-1269.4s1805.8,778.7,2613.6,384.9c604.2-294.9,1326-1673.6,1508.1-2808
			C28007.9,3737.6,28022.5,3555.5,28018.9,3393.5"/>
		<path id="path46" class="st2" d="M22368.5,2092.7c-1591.7-0.1-2703,896.5-3215.1,1889.2c-465.1,900.4-620.1,1712.3-834,2374
			c357.2-839.6,1226.5-2518.7,2692.4-3192.1c488.7-224.3,992.6-314.6,1486.6-314.6c2009.6,0,3860.4,1491.9,3903.7,1526.4
			c-24.2-45.7-619.4-1199.4,81.8-1668.7c117.7-78.6,252.3-116.1,393.9-116.1c397,0,849.4,294.5,1141.2,802.7
			c-13.8-791.8-436.7-1117.8-1115-1223.7c-70.6-11-139.4-16.2-205.9-16.2c-853.1,0-1360.4,843.3-1360.4,843.3
			C24221.2,2352.5,23225.2,2092.7,22368.5,2092.7"/>
		<path id="path48" class="st3" d="M17684.5,7664c653.5-383.8,888.2-1171.4,1092-1845.4c130.1-431.2,259.2-855,431.7-1267.1
			c78.6-191.8,177.6-407.3,278.5-587.7c580.5-1026.2,1755.5-1622,2922.7-1594c986.5,15.3,1937.8,376.3,2790.1,866.8
			c127.4,73.5,289.1,34.2,369-87.1c21.5-33.8,53.6-79.6,81.1-114.7c189-245.9,455.2-468.6,748.2-556.8l60.8-18.8l62-10.8
			c56.7-13.4,129.1-14.6,187.1-17.3c393,22.7,829.1,151.8,967,548.3c165.1,539.3-3.1,1164.6-172,1696.1
			c-191.9,555.4-677.6,1652.9-1250.3,1859.8c-679.7,170.2-1648.7-174.3-2294-427.9c-172.4-76.3-376.9,55.9-381,243
			c-10.6,328.6-7.8,642.9,42.7,969.8c22.4,142.7,67.2,335.5,164,476.2c103.9,140,201.7,282.6,297.2,428
			c533.5,827.5,977.5,1735.5,1246,2675.4c40.6,148.3,194.8,235.2,342.7,193.1c147.1-41.8,232.4-194.8,190.7-341.9
			c-230.8-811.7-577.5-1574-989.4-2296c-194.8-336.7-404.9-668-636.8-980.8c-129.3-327-106.8-744-104.1-1097.1l-386.1,240.8
			c211.3,88.4,413,161.4,623.9,230.1c765.8,233.1,1911.1,558.8,2559-94.6c826.9-790,1653.3-2843.7,1268-3962.4
			c-178.5-525.1-690.3-810.3-1199-885.9c-182.4-32-388.5-38.1-573.1-1.9c-561.9,102.5-1018.4,487.1-1322.6,950.7l375.6-97
			c-409.1-236.2-839.1-442.6-1289.7-603.2c-1915.7-719.4-4075.1-308.2-5187.1,1522.9c-121.6,201.2-229.9,432.3-325.6,647.3
			c-284.7,630-445.3,1348.5-623.3,1990.7c-117.2,428.2-263.6,805.2-540.3,1134C17407.7,7564,17544.4,7745.1,17684.5,7664"/>
		<path id="path50" class="st3" d="M14479.1,5693.6c-20.7,0-41.9,2.4-63,7.3c-3016.8,702.9-4226.2,3577-4276.1,3699.1
			c-58.1,141.5,9.7,303.1,151.2,361.1c141.5,57.9,302.9-9.7,361-150.9c11.3-27.2,1156.4-2733.3,3889.6-3370
			c148.9-34.8,241.4-183.7,206.8-332.5C14718.8,5780,14604.9,5693.6,14479.1,5693.6"/>
		<path id="path52" class="st3" d="M21375.9,1941c-107.6,0-210,63.2-254.8,168.6c-59.9,140.4,5.3,302.7,145.5,362.9
			c94,40.6,2299.4,1025.7,2310.6,3892.8c0.5,152.4,124.4,275.7,276.9,275.7h1.1c152.9-0.5,276.3-125,275.8-277.9
			c-12.7-3240.7-2539.1-4353.8-2646.6-4399.6C21448.9,1948.2,21412,1941,21375.9,1941"/>
		<path id="path54" class="st1" d="M19165.3,9995.8c0,0-5007.6,339.8-5377.3,561.3c-208.2,125.3-240.1,627.8-193.1,1231.3
			c89.3,1134.4,458.3,2622.5,458.3,2622.5l4643.4,126l90.7-1695l105.2-791L19165.3,9995.8"/>
		<path id="path56" class="st2" d="M17321.5,10411c-870.5,71.1-1681.2,146.5-2295.6,215.7l53.5,676
			c248.9,59.1,419.3,181.4,535.8,320c90.9-143.9,220.2-230.1,360.7-239.3c1.9-0.1,3.7-0.3,5.7-0.4l596.2-29.9
			c6.6-0.4,13.1-0.5,19.6-0.5c256.7,0,475.7,253.1,543,607.9c50.3-73.8,119.6-138.4,213.7-161.3
			C17292.3,11304.2,17248.1,10727,17321.5,10411 M14613.3,10676.1c-348,44.7-589.2,85.5-679.7,118.7
			c-22.2,31.7-106.3,194.4-74.3,798.3c223.4-146.3,502.2-281.4,801.6-315.2L14613.3,10676.1"/>
		<path id="path58" class="st3" d="M19165.4,9718.7c-6.2,0-12.5,0.3-18.7,0.7c-1525.7,103.5-5115.7,369.2-5501.2,600.4
			c-264.7,158.5-498.1,560.8-223.8,2341.4c141.6,920,353.8,1779.9,362.9,1816.2c30,120.8,136.7,206.7,261.2,210.1l4643.7,126.4
			c2.5,0.1,5.2,0.1,7.7,0.1c149.4,0,272.5-119.1,276.6-269.4c4.1-152.8-116.4-280-269.3-284.2l-4430.8-120.6
			c-68.5-296.8-196-878.2-292.5-1484.5c-238.6-1499.9-79.2-1815-47.5-1860.5c331.7-121.8,2679.8-342.4,4912.7-499.6l-333.4,2510.3
			c-20,151.6,86.4,290.7,238,310.8c150.9,20.2,290.8-86.4,311-238l378-2846.4c10.9-82.3-15.7-165.1-72.6-225.8
			C19314.8,9750.2,19241.6,9718.7,19165.4,9718.7"/>
		<path id="path60" class="st1" d="M15002.8,12967.9l-205.1-2593.7L15002.8,12967.9"/>
		<path id="path62" class="st3" d="M14797.9,10166.7c-5.4,0-11,0.1-16.6,0.5c-114.3,9-199.6,109.1-190.6,223.5l205.1,2593.5
			c9,114.3,108.2,200,223.4,190.6c114.4-9,199.7-109,190.6-223.4l-205.1-2593.5C14996,10249.1,14905.1,10166.7,14797.9,10166.7"/>
		<path id="path64" class="st4" d="M19063.5,12865.9l-1.6,12.5c-18.4,139.2-138,240.5-274.3,240.5c-4.9,0-10-0.1-15-0.5l-2.5,47.5
			c181.8,73.8,360.2,149.2,533.7,225.1c-30.7-130.7-62.4-275.4-93.8-434.3C19162.3,12932.5,19112.4,12902.6,19063.5,12865.9"/>
		<path id="path66" class="st2" d="M17951.2,12077.2c15.4,102.6,32.5,209.6,51.5,320.8c31.2,183.2,63.6,353,96.2,509.7
			c228.2,82.8,452.1,169.2,671,258.1l2.5-47.5c-7.2-0.3-14.3-1.1-21.6-2c-151.6-20.2-258-159.3-238-310.8l52.8-397.8
			c-43.1,21.1-87.2,32.4-132.1,32.4c-97.6,0-199.1-53.2-303.9-174.1C18067,12193.6,18007.5,12131,17951.2,12077.2"/>
		<path id="path68" class="st4" d="M18846.3,10295.1c-49.1,3.5-98.2,7-147.5,10.5c-413.6,47.5-764.5,137.2-838.8,226.3
			c-42.9,125.7-37.8,681.8,91.2,1545.3c56.3,53.8,115.7,116.4,178.5,188.7c104.9,120.9,206.4,174.1,303.9,174.1
			c44.9,0,88.9-11.3,132.1-32.4L18846.3,10295.1"/>
		<path id="path70" class="st3" d="M18900.6,10286.2c-68.2,5.3-135.8,11.8-201.7,19.4c49.2-3.5,98.3-7,147.5-10.5l-280.6,2112.6
			l-52.8,397.8c-20,151.6,86.4,290.7,238,310.8c7.3,0.9,14.5,1.7,21.6,2c5,0.4,10.1,0.5,15,0.5c136.3,0,255.9-101.3,274.3-240.5
			l1.6-12.5c-102.9-77.1-201.7-184.5-266-332.7c-40.9-94.1-67.3-204.7-72.5-334.9c-11.5-308.4,124.9-510.6,274.3-638.7
			C18957.5,11176.3,18923,10752.1,18900.6,10286.2"/>
		<path id="path72" class="st3" d="M17860.1,10531.9c86.1-103.3,544.3-207.3,1040.5-245.7c98.6,2044.1,429.2,3287.5,589.7,3784.7
			c-374.9,159.3-837,269.2-983.9,126.2c-98.2-97.7-319.5-720.4-503.7-1799.2C17824.1,11351.9,17812.1,10672.6,17860.1,10531.9
			 M19165.5,9718.7c-2.4,0-4.6,0-6.9,0.1c-460.4,11.3-1556.7,88.7-1793.8,564.3c-189.1,379.5-2.4,1648.7,86.7,2176.7
			c111.9,663.1,347.6,1822,669.1,2134.5c534.9,519.5,1629.7-22,1843.8-135.9c125.7-66.9,180.1-218.1,126.1-349.6
			c-7.8-19.4-548.7-1378.7-648.5-4123.3C19436.7,9836.3,19314,9718.7,19165.5,9718.7"/>
		<path id="path74" class="st1" d="M19361.2,11362.9c0,0-661.1,171.3-636,835.5c27.7,736.7,758.4,854.1,758.4,854.1
			s3551.9-734.1,6392.6,429.5c0,0,930-1033.9-97-1691.7C24752,11132.5,21032.9,10901.8,19361.2,11362.9"/>
		<path id="path76" class="st4" d="M21724.6,11121.5c-822.5,0-1607.4,63-2192.8,198.3c0,0.1,0,0,0,0.1
			c585.4-135.2,1370.5-198.3,2193-198.3c904.2,0,1853.1,76.2,2630.8,216.6C23577.9,11197.7,22628.8,11121.5,21724.6,11121.5"/>
		<path id="path78" class="st3" d="M18999.3,11559.6c-149.4,128.1-285.9,330.2-274.3,638.7c5.2,130.2,31.6,240.8,72.5,334.9
			c-40.7-94.1-67.4-204.8-72.3-334.7C18713.5,11889.9,18849.9,11687.7,18999.3,11559.6L18999.3,11559.6"/>
		<path id="path80" class="st3" d="M19531.7,11319.8c-58.9,13.5-115.9,27.9-170.5,43c0,0-189.5,49.2-361.8,196.8v0.1
			c172.3-147.7,361.8-196.8,361.8-196.8C19415.8,11347.9,19472.9,11333.6,19531.7,11319.8
			C19531.7,11319.8,19531.7,11319.9,19531.7,11319.8"/>
		<path id="path82" class="st2" d="M26260,12506.2c-0.1,0-0.1,0-0.3,0c5.2,69.7,1.7,138.7-8.1,205.9c0,0.3,0,0.3,0,0.5
			C26261.6,12645.1,26265.1,12576,26260,12506.2"/>
		<path id="path84" class="st3" d="M26168.7,12188.7c0,0.3,0.1,0.5,0.1,0.8c55.3,104.6,83,211.6,90.9,316.7c0.1,0,0.1,0,0.3,0
			C26252,12400.7,26224.3,12293.5,26168.7,12188.7"/>
		<path id="path86" class="st3" d="M25903.6,11879.2c123,98.3,208.6,203.2,265.2,310.3c0-0.3-0.1-0.5-0.1-0.8
			C26112,12081.9,26026.5,11977.3,25903.6,11879.2 M26251.6,12712c-7.3,49.6-18.2,98.5-31.5,145.7l0,0
			c13.4-47.1,24.2-95.7,31.5-145.2C26251.6,12712.3,26251.6,12712.3,26251.6,12712"/>
		<path id="path88" class="st2" d="M21724.7,11121.6c-822.5,0-1607.5,63-2193,198.3c-58.8,13.7-115.9,28-170.5,43
			c0,0-189.5,49.1-361.8,196.8c-149.4,127.9-285.9,330.2-274.2,638.7c4.9,129.9,31.6,240.6,72.3,334.7c8.8,19.9,18,39,27.9,57.5
			c139.1-422.2,596.7-541.2,596.7-541.2c598.2-164.8,1458.8-241.3,2363.9-241.3c1624.9,0,3394.5,246.1,4054.2,668.4
			c184.1,117.6,305.1,247.7,380,381.3c13.3-47.2,24.2-96.1,31.5-145.7c9.8-67.2,13.3-136.2,8.1-205.9
			c-8-105.1-35.6-212.1-90.9-316.7c-56.5-107.1-142.1-212-265.2-310.3c-37.8-30.3-79.2-59.7-124.4-88.7
			c-292.5-187.5-803.9-340.3-1423.7-452.3C23577.8,11197.8,22628.9,11121.6,21724.7,11121.6"/>
		<path id="path90" class="st3" d="M19486,12769.8c-125.8-33-468.4-161.7-484.2-581.7c-15.9-421.3,385.2-545,431.1-557.7
			l-71.7-267.4l73.5,266.9c1604-442.4,5251.5-210.6,6195,393.5c210.5,135,325,288.3,350.1,468.6c32.1,232.5-89.7,487.8-198.4,655.5
			C23103.5,12139.1,19967.7,12677.7,19486,12769.8L19486,12769.8z M21752.2,10847.8c-957.6,0-1859.8,81.9-2462.5,247.7
			c-303.8,79.6-867.6,413.7-841.1,1113.4c28.7,762.1,660.8,1063.9,991,1117c33,5.3,67,4.5,99.8-2.3c34.8-7,3505-702.4,6231.7,414.6
			c108,44.3,232.5,15.9,310.8-71c21.9-24.4,534.1-602.4,446.9-1247.6c-47-347.2-249-637.5-600.4-862.6
			C25196.1,11088,23393.1,10847.9,21752.2,10847.8"/>
		<path id="path92" class="st5" d="M17021.9,12133.8c-18.4-366.2-214.1-653.7-437.2-642.5l-596.2,30l66.5,1325l596.2-30
			C16874.3,12805.1,17040.2,12499.4,17021.9,12133.8"/>
		<path id="path94" class="st6" d="M17020.4,12114.4c-23.9-356.9-216.6-634.2-435.7-623.1l-596.2,30l66.5,1325l241-12.1l-37-737.8
			l596.2-30C16912.8,12063.5,16969,12080.5,17020.4,12114.4"/>
		<path id="path96" class="st3" d="M17021.9,12133.8h0.7H17021.9 M16133.7,11652.5l457.9-23c1.9-0.1,3.6-0.1,5.4-0.1
			c124.2,0,271.7,215.3,286.7,511.2c15,300-114,531-239.4,537.4l-457.9,23L16133.7,11652.5 M16597.5,11352.5c-6.5,0-13,0.1-19.6,0.5
			l-596.2,29.9c-36.8,1.9-71.1,18.2-95.7,45.4c-24.7,27.2-37.6,63.2-35.7,99.8l66.6,1325c3.8,76.3,70.6,135.4,145.2,131.4l596.2-30
			c303.9-15.3,524.4-378.9,502-827.7C17138,11687.4,16892.8,11352.5,16597.5,11352.5"/>
		<path id="path98" class="st5" d="M16425.6,12163.5c-18.3-365.9-213.9-653.4-437.1-642.2c-223,11.1-388.9,316.9-370.4,682.7
			c18.3,365.9,213.9,653.5,437.1,642.2C16278.1,12835.1,16444,12529.4,16425.6,12163.5"/>
		<path id="path100" class="st6" d="M16425.7,12163.5c-18.4-366.2-213.9-653.7-437.2-642.5c-222.8,11.3-388.6,316.9-370.3,683.1
			c1.2,22.3,3.1,44.1,5.6,65.4c55.2-218.5,184.1-372.8,341.2-380.8c209.8-10.5,395,242.6,431.6,576.5
			C16420.5,12374,16431,12271.3,16425.7,12163.5"/>
		<path id="path102" class="st3" d="M16042.9,12708.2c-124.4,0-271.8-215.3-286.7-511.1c-7.4-149.7,21.1-296.1,78.2-401.5
			c45.5-83.6,104.1-133.3,161.1-136c125.2-6.5,276.7,210.9,291.9,510.9c7.4,149.8-21,296.1-78.2,401.5
			c-45.4,83.7-104.1,133.3-161,136.2C16046.4,12708.2,16044.7,12708.2,16042.9,12708.2 M16001.4,11382.5c-6.6,0-13.1,0.1-19.8,0.5
			c-155.5,7.7-298,110-390.5,280.4c-81.9,151-121.4,345.3-111.4,547.4c22.6,449.1,276.5,788.6,582.3,773.6
			c155.7-7.8,298-110.2,390.5-280.6c82-151,121.6-345.3,111.4-547.4C16541.7,11717.3,16296.4,11382.5,16001.4,11382.5"/>
		<path id="path104" class="st1" d="M35098.5,26732.6c0,0,1613.8-1807.2,1626.8-2286.7c24.3-889-2155-4906.6-3764.2-5413
			c-630-198.3-3879,999.8-3879,999.8L35098.5,26732.6"/>
		<path id="path106" class="st2" d="M32763.1,19275.4c-306.7,0-992.5,165.5-1785.5,404.4c765.3,499.2,1476,1102.3,2110.3,1805.2
			c4.8,4.6,9.3,9.4,13.8,14.3c38,42.2,75.5,84.7,112.8,127.5c545.8-611.9,1062.4-772.7,1386.2-804.2
			c-569.4-752.8-1186.1-1366-1720-1534C32852.2,19279.7,32812.6,19275.4,32763.1,19275.4"/>
		<path id="path108" class="st7" d="M24184.7,27031.4l-18.1-34.6l-13.1,28.5L24184.7,27031.4z"/>
		<path id="path110" class="st7" d="M24153.5,27025.3l-30.8-5.6l17.9,34.6L24153.5,27025.3z"/>
		<path id="path112" class="st1" d="M15702,26990c0,0-2846.6,1971.7-3046,2601.4c-199,627.4-10,1634.2,339.4,2656.7l-0.3,0.9
			c544.6,1596.3,1477.9,3233.1,1930.1,3532.4c399.9,264.6,2806.3-18.1,2806.3-18.1l-989.8-4278.7L15702,26990"/>
		<path id="path114" class="st7" d="M15702,26990c0,0-2846.6,1971.7-3046,2601.4c-199,627.4-10,1634.2,339.4,2656.7
			c17.9-47.8,611.3-1536.7,3740.7-764.8c1.7,0.5,4,0.8,5.6,1.3L15702,26990"/>
		<path id="path116" class="st3" d="M29547.5,20149.6c1436.6-509,3024.8-957.9,3333.2-860.8
			c1480.5,465.9,3598.4,4356.4,3576.8,5149.9c-20.2,223.4-687,1111.8-1361.1,1890.4L29547.5,20149.6 M32787.2,18746.8
			c-914.3,0-3093.6,774.8-3797.6,1034.4l-370.7,136.6l6480.2,7216.7l199.3-223.4c504.9-565.4,1680.7-1936.6,1695-2457.9
			c26.9-988.5-2191.4-5122-3951.8-5675.9C32975,18756.4,32888.8,18746.8,32787.2,18746.8"/>
		<path id="path118" class="st3" d="M15749.8,35626.4c-341.9,0-594.1-21-678.1-69.3c-660.7-437.3-2629.2-4405.5-2160.2-5884.9
			c97.6-307.9,1377.5-1350.6,2619.2-2234.3l1871.7,8091.6C16817.4,35589.2,16204.3,35626.4,15749.8,35626.4 M15874.4,26544.7
			l-324.8,224.8c-685.5,474.8-2938.4,2075.4-3149.3,2740.6c-557.6,1759.2,1552.1,5949.2,2376.8,6494.9
			c434.9,287.7,2232.8,112.7,2985.6,24.2l297.3-34.9L15874.4,26544.7"/>
		<path id="path120" class="st1" d="M34412.1,23861.4c-2676.2-5146.9-9018.1-7149.8-14165-4473.6s-7149.7,9018.1-4473.4,14165
			c2676.2,5147,9018.1,7149.8,14165,4473.6C35085.5,35350.2,37088.3,29008.3,34412.1,23861.4"/>
		<path id="path122" class="st2" d="M25717.7,18492.8c-125.6,336.2-282.7,650.9-479.1,919.4c163.8-7,328-10.5,491.6-10.5
			c2169.8,0,4315.8,607.2,6116.3,1613.4C30133,19513.9,27965.6,18633.9,25717.7,18492.8 M21003.6,19323.8
			c-213.2,92.9-424.2,193.6-633,302.2c-343.4,178.5-673.3,374.5-988.7,586.2c-168.7,587-367.9,1183.8-594.5,1777.4
			c618-551.6,1307.6-1035.2,2068.4-1430.9c429-223.1,867.7-411.4,1313.7-567.4C21795,19820.9,21410.7,19590.7,21003.6,19323.8
			 M15295.7,27786.7c-139.1,140.3-280,273.8-423.3,400.6c-9.4,179.3-14.1,359.4-14.1,539.5c0.1,363.5,19.6,728.2,58.9,1092.4
			C14986.6,29143,15113,28460.9,15295.7,27786.7"/>
		<path id="path124" class="st3" d="M25109.8,38941.7c-3699.8,0-7276.8-2009.3-9098.3-5512.4
			c-2603.8-5007.5-648.2-11199.8,4359.3-13803.6c1504.3-782.1,3116.3-1153,4705.2-1153.1c3699.8-0.3,7276.8,2009.3,9098.3,5512.5
			c1261.4,2425.6,1502.6,5197.4,679.3,7804.5c-823.4,2607.2-2612.8,4737.7-5038.6,5998.9
			C28310.7,38570.9,26698.6,38941.7,25109.8,38941.7 M25075,17936.7c-1672.3,0-3368.1,390.1-4951.5,1213.4
			c-5269.8,2740.2-7327.9,9256.8-4587.7,14526.5c2740.2,5269.9,9256.9,7327.8,14526.4,4587.7
			c2552.9-1327.4,4436-3569.5,5302.4-6313.1c866.6-2743.6,612.7-5660.6-714.7-8213.4C32733.1,20051.5,28968.2,17936.7,25075,17936.7
			"/>
		<path id="path126" class="st3" d="M25109.8,38941.7c-3699.8,0-7276.8-2009.3-9098.3-5512.4
			c-2603.8-5007.5-648.2-11199.8,4359.3-13803.6c1504.3-782.1,3116.3-1153,4705.2-1153.1c3699.8-0.3,7276.8,2009.3,9098.3,5512.5
			c1261.4,2425.6,1502.6,5197.4,679.3,7804.5c-823.4,2607.2-2612.8,4737.7-5038.6,5998.9
			C28310.7,38570.9,26698.6,38941.7,25109.8,38941.7 M25075,17936.7c-1672.3,0-3368.1,390.1-4951.5,1213.4
			c-5269.8,2740.2-7327.9,9256.8-4587.7,14526.5c2740.2,5269.9,9256.9,7327.8,14526.4,4587.7
			c2552.9-1327.4,4436-3569.5,5302.4-6313.1c866.6-2743.6,612.7-5660.6-714.7-8213.4C32733.1,20051.5,28968.2,17936.7,25075,17936.7
			"/>
		<path id="path128" class="st3" d="M25109.8,38941.7c-3699.8,0-7276.8-2009.3-9098.3-5512.4
			c-2603.8-5007.5-648.2-11199.8,4359.3-13803.6c1504.3-782.1,3116.3-1153,4705.2-1153.1c3699.8-0.3,7276.8,2009.3,9098.3,5512.5
			c1261.4,2425.6,1502.6,5197.4,679.3,7804.5c-823.4,2607.2-2612.8,4737.7-5038.6,5998.9
			C28310.7,38570.9,26698.6,38941.7,25109.8,38941.7 M25075,17936.7c-1672.3,0-3368.1,390.1-4951.5,1213.4
			c-5269.8,2740.2-7327.9,9256.8-4587.7,14526.5c2740.2,5269.9,9256.9,7327.8,14526.4,4587.7
			c2552.9-1327.4,4436-3569.5,5302.4-6313.1c866.6-2743.6,612.7-5660.6-714.7-8213.4C32733.1,20051.5,28968.2,17936.7,25075,17936.7
			"/>
		<path id="path130" class="st3" d="M15115.3,30999c-1047.6-4542.7,1113.1-9219.2,5255.3-11373
			c4141.8-2153.4,9210.7-1236.8,12328.8,2228.8c5,5.7,10.2,11.1,15.5,16.3c569.5,636,1060.3,1347.3,1459,2114.1
			c176.5,339.5,335,690.6,470.9,1043.6c1881,4864.6-195.6,10349.9-4830.2,12759.7c-4633,2409.1-10315.1,959.5-13217.1-3372
			c-210.9-312.6-407.9-644.5-586.2-987.3c-399.2-768.1-699.2-1578.2-891.8-2408.5C15118.5,31013.5,15117.1,31006.2,15115.3,30999
			 M25094.1,17933.3c-1689.2,0-3393.7,396.8-4970.7,1216.9c-4354.2,2264.1-6628.1,7177.3-5534.2,11953.2c1.1,6.5,2.3,13,3.8,19.5
			c202.4,880.8,519.6,1739.9,942.6,2553.6c187.7,360.9,395.2,710.5,617,1039.1c1464.6,2186.2,3681.2,3756.1,6241,4419.5
			c2578.8,668.5,5302.4,359.3,7668.3-870.9c4877.2-2536.1,7062.3-8309,5083-13428.4c-142.9-371.2-309.8-740.9-495.5-1097.9
			c-422.5-812.5-943.3-1565.6-1547.9-2238.6c-4.5-4.9-9-9.7-13.8-14.3C30994.6,19164.8,28068.3,17933.5,25094.1,17933.3"/>
		<path id="path132" class="st3" d="M24120.3,38473c1815.8,0,3657.6-436,5362.7-1322.6c2010.8-1045.6,3651.3-2624.1,4744.8-4564.9
			c417.3-740.7,745.2-1515.6,981-2310.7c-492.1,3147.3-2444,5980.2-5393.7,7514c-2936.2,1526.7-6359.4,1504.3-9211.2,117.9
			C21733.4,38282.8,22921.2,38473,24120.3,38473 M35358.5,26206.2c-12.7,0-25.8,0.9-38.6,2.8c-139.2,20.2-239.2,144.5-228.9,284.8
			c304.5,4176.8-1993.8,8173.1-5855.2,10180.9c-3858.8,2006.5-8448.6,1594.4-11693-1050.1c-108.8-88.9-268.1-78.4-364.5,24
			c-96.4,102.5-97.3,262-2,365.4c3282.5,3563.2,8581.3,4488.7,12886.1,2250.4c4307.3-2239.7,6592.8-7111.4,5557.8-11847.4
			C35592.9,26292.5,35482.6,26206.2,35358.5,26206.2"/>
		<path id="path134" class="st3" d="M34411.4,23861.4c-419.4-806.6-929.1-1537.1-1509.6-2183l-1.2-0.4
			c-3240.8-2282.8-8071.7-3185-12045.1-1119c-3973.5,2066.1-6008.6,6538.5-6001.2,10502.5l-0.4,1.3
			c194.7,846.6,499.8,1683.3,919.4,2490c183.3,352.6,384,690.8,601.2,1012.8c3066,2824.9,8045,3433.4,12377.9,1180.4
			c4333.8-2253.4,6695.2-6680.9,6142.4-10813.6C34755.4,24571,34594.3,24213.3,34411.4,23861.4"/>
		<path id="path136" class="st8" d="M25730.1,19401.7c-163.7,0-327.8,3.5-491.6,10.5c0,0-0.1,0.1-0.3,0.3
			c163.9-7,327.7-10.5,491.3-10.5c2170.6,0,4317.9,607.9,6118.8,1614.7c-0.8-0.5-1.2-1.1-2-1.6
			C30045.9,20008.9,27899.9,19401.7,25730.1,19401.7"/>
		<path id="path138" class="st9" d="M31846.4,21015c0.8,0.5,1.2,1.1,2,1.6c3.8,2.1,7.4,4.2,11.3,6.4c-0.5-0.5-1.2-1.1-1.9-1.6
			C31854.2,21019.3,31850.1,21017,31846.4,21015"/>
		<path id="path140" class="st9" d="M31857.8,21021.4c0.7,0.5,1.3,1.1,1.9,1.6c361.8,202.7,709.8,421.7,1040.9,655l1.2,0.4
			c580.5,646,1090.2,1376.5,1509.6,2183c182.9,351.8,344,709.5,483.4,1071.1c1.7,13.3,3.4,26.7,5.2,40.1c-1.5-13.7-2.8-26.9-5-40.6
			c-139.2-361.4-300.4-719.1-483.2-1070.9c-419.4-806.6-929.1-1537.1-1509.6-2183.2l-1.2-0.4
			C32569,21443.7,32220.4,21224.5,31857.8,21021.4"/>
		<path id="path142" class="st8" d="M22169.6,19991.4c-445.9,155.9-884.7,344.3-1313.7,567.4
			c-760.8,395.6-1450.4,879.3-2068.4,1430.9l0,0c617.8-551.3,1307.5-1035.1,2068-1430.6c429.4-223.1,868.1-411.6,1314.4-567.5
			C22169.7,19991.5,22169.7,19991.5,22169.6,19991.4"/>
		<path id="path144" class="st9" d="M25729.6,19401.9c-163.6,0-327.4,3.5-491.3,10.5c-251.9,344.2-568.5,612.3-966.5,752.9
			c-276.5,97.8-545,142.4-810.7,142.4c-431.1,0-854.6-117.5-1291.3-316.3c-446.2,155.9-885,344.4-1314.4,567.5
			c-760.5,395.5-1450.1,879.3-2068,1430.6c-837.2,2193.1-2049.8,4342.7-3491.5,5796.8c-292.4,1078.4-440.2,2176.8-441.4,3239.5
			c249.5,236.5,507.3,427.5,742.8,578c1004.3-3077.6,3058.1-5928.9,6124.6-7523.3c1759.4-914.9,3667.3-1319.5,5558.3-1319.5
			c293.4,0,586.1,9.7,878.2,28.7c6.4-6.9,13.1-13.8,19.9-20.4c124.8-122.8,290.7-182.8,464.7-182.8c217.4,0,447.3,93.4,625.9,275
			c17,17.3,33,34.9,48.4,53.1c2020.6,302.9,3951.6,1038.6,5583.9,2071.3c-0.5-4.5-0.9-9-1.5-13.4c-1.7-13.4-3.4-26.8-5.2-40.1
			c-139.4-361.5-300.5-719.2-483.4-1071.1c-419.4-806.6-929.1-1537.1-1509.6-2183l-1.2-0.4c-331.1-233.3-679.1-452.3-1040.9-655
			c-3.8-2.1-7.4-4.2-11.3-6.4l0,0C30047.5,20009.8,27900.2,19401.9,25729.6,19401.9"/>
		<path id="path146" class="st10" d="M31337.2,24212.3c-229.9,0-445.8,63.4-626.1,197.1c-581.5,431.6-570,1432.1,25.6,2234.5
			c411.2,554,993,868.7,1505.3,868.7c229.9,0,445.9-63.4,626.1-197.1c581.5-431.6,570-1432-25.6-2234.5
			C32431.5,24527.2,31849.5,24212.3,31337.2,24212.3"/>
		<path id="path148" class="st10" d="M28158.6,22789.8c-258.9,279.2-219.7,752.4,94.2,1071.5c178.5,181.6,408.5,275,625.8,275
			c174,0,339.9-60,464.7-182.8c265.8-261.5,250.1-713.9-25.7-1038.8C28933.9,22857.1,28547,22815.3,28158.6,22789.8"/>
		<path id="path150" class="st11" d="M28643.1,22586.6c-174,0-339.9,60-464.7,182.8c-6.8,6.6-13.5,13.5-19.9,20.4
			c388.5,25.5,775.4,67.3,1158.9,124.9c-15.4-18.2-31.5-35.8-48.4-53.1C29090.4,22680.1,28860.5,22586.6,28643.1,22586.6"/>
		<path id="path152" class="st10" d="M16640.6,29525.6c0,0,833.9,5335.9,4233.3,5945.5c493.3,88.4,991,126.6,1479.9,126.6
			c2879,0,5468.3-1322.7,5299.6-1483.7c0,0-932,210.1-2239.8,210.1c-1547,0-3620.2-293.8-5300.7-1576.5
			C17721.5,30922.3,16640.6,29525.6,16640.6,29525.6"/>
		<path id="path154" class="st1" d="M25337.9,2996.8c0,0,706.4,492.9,1064.7,1380.5"/>
		<path id="path156" class="st3" d="M25179.5,3223.9c462.3,292.1,843.7,718.7,1094.8,1205.1c76.8,155.6,309.9,61.2,256.7-103.7
			c-197.9-597.8-557.4-1141.9-1034.7-1555.6C25175.4,2518,24831.7,3009.7,25179.5,3223.9"/>
		<path id="path158" class="st12" d="M7943.8,32969.3c0,0,900.4-225.2,1349,200.9c448.7,426.2,1263.8,792.6,2101.3,545.9
			s1138.8-953.7,2378.9-663.9c1240.2,290-883.4-1803.7-905.8-1803.7s-4923.4,426.2-4923.4,426.2v878L7943.8,32969.3"/>
		<path id="path160" class="st3" d="M8220.8,31928.5c1530-133,3989.9-346.5,4549.9-394.2c259.1,249.1,854.3,898.1,1050.5,1245.1
			c-926.8-212.5-1420.4,88.1-1856.3,353.2c-207.8,126.5-404.1,245.8-649.1,318c-698.9,205.9-1423.9-93.2-1832.2-481
			c-367.4-349.1-924.2-361.1-1278.7-324.1c10.4-29.1,15.9-60.3,15.9-92.8V31928.5 M12867.1,30971.7c-16.2,0-34.4,0-4947.3,427.2
			c-143.1,12.5-252.8,132.2-252.8,275.8v878c0,83.1,36.5,157.5,94.5,208.2c-75.7,66.2-112.3,171.5-86.3,275.7
			c37,148.1,186.5,238.2,335.3,201.5c210.1-51.8,816.2-128.6,1091.6,132.9c485.1,460.9,1396.9,897.5,2370,610.8
			c314.4-92.6,562-243.3,780.3-376c414.4-252,741.7-451.3,1457.4-283.8c112.5,26.3,455.1,106.3,640.1-124.1
			c117.9-146.7,117.6-346-0.5-592.5c-118.8-247.9-371.5-585.8-750.9-1004.3C13027.6,30971.7,12980.6,30971.7,12867.1,30971.7"/>
		<path id="path162" class="st13" d="M16416.2,32324.4c0,0-2843.6-975.4-3072.4-3810.7c-143.3-1778.1-1618.8-1474.2-2699.1-999.9
			c-283.4,124.1-540.4,260.3-738.3,373.3c-250.6,144-408.1,250.7-408.1,250.7s-156.7,2055.7-3521.5,3948.2
			c0,0,785.3,1334.8,2572.4,749.4c1446.5-473.7,2724.1-1063.6,3864.8-518C13305.8,32743.4,14723.5,34154,16416.2,32324.4"/>
		<path id="path164" class="st14" d="M11404.4,31669.9c-873.2,0-1821,398.2-2855.3,736.7c-321.3,105.2-610.3,148.4-868.1,148.4
			c-557.4,0-969.4-201.7-1248.5-413.8c-13.7,8.2-27.6,16.5-41.3,24.7c216.1,225.2,635.6,540.2,1292.2,540.2
			c230.3,0,489.9-38.8,779.9-133.8c197.9-64.8,395.4-132.7,586.4-198.4c817.2-281.2,1604.1-552,2357.8-552
			c384.1,0,759.6,70.3,1125.9,245.4c158.3,75.7,326.2,176.5,504,283.4c492.9,296.1,1022.1,614.1,1608.1,614.1
			c398.3,0,822.9-146.9,1280.1-547.1c-19.2-9.3-39.2-18.8-59.5-28.8c-427.8,306.1-834.8,420.9-1216.4,420.9
			c-910.9,0-1676.6-654.1-2235.7-921C12088.9,31733.2,11752.5,31670.1,11404.4,31669.9"/>
		<path id="path166" class="st15" d="M10692.3,27723.3c-16.1-72.6-32.3-142.7-47.6-209.6c-283.4,124.1-540.4,260.3-738.3,373.3
			c25.7,451.8-19.9,1279.6-560.4,2014.1c-712.1,966.5-973.5,1048.8-1325.1,1196c417.5,5.4,721.2-241.7,955.9-489
			c256.3-270,430.4-539.9,580.7-480.9c124.6,49.5-45,654.2-1904.7,1888.7C7652.7,32015.9,11345.9,30672.2,10692.3,27723.3"/>
		<path id="path168" class="st3" d="M9753.7,28301.1c610.4-391.7,2048.3-1141,2794.1-783.3c306.7,146.9,476.9,479.9,520.3,1017.9
			c189.4,2349.6,2026.5,3485.3,2857.4,3882c-1130.1,989.2-2060.3,430.4-2888.2-67c-177.7-106.8-345.6-207.7-504-283.4
			c-1085.4-518.7-2250.3-117.9-3483.7,306.6c-191,65.7-388.5,133.7-586.4,198.4c-1116.9,365.7-1780.2-102.2-2072.1-406.4
			C9135.9,30530.9,9657.6,28804.2,9753.7,28301.1 M12072.5,26870.7c-1162.8,0-2545.6,913-2729.7,1038.3
			c-69.1,47-113.3,122.8-120.2,206.1c-3.1,31.5-221.2,1952-3381.8,3729.7c-64.8,36.5-112.3,97.4-131.7,169.2
			c-19.2,71.8-9,148.4,28.7,212.5c8.9,15.3,920.8,1519.4,2897.6,872.1c201.9-66.1,401.4-134.7,594.3-201.1
			c1171.8-403.3,2184-751.5,3064.7-330.6c134.6,64.4,291.5,158.6,457.5,258.4c860.2,516.8,2299.6,1381.9,3867-312.6
			c63.6-68.8,88.1-164.8,65.3-255.6c-22.8-90.8-90.1-163.8-178.6-194.2c-108.7-37.7-2674.8-956-2885.8-3571.8
			c-59.7-741.1-340.2-1236.7-833.4-1472.8C12568.8,26913.9,12325.9,26870.7,12072.5,26870.7"/>
		<path id="path170" class="st13" d="M15484.3,13803.3c0,0-1585.4-179.3-4177.6,106.7c0,0-4700.3-1681.7-6995.7,1108.5v0.7
			c-73.9,89.3-145.2,183.2-213.4,282.2c-2411.7,3486.9,896.5,10691.4,4864.7,13171.2c649.1,405.6,1315.6,685.1,1977.4,800.7
			c401.6,70.7,801.4,81,1194.6,23.2c417-61.7,825.1-196.7,1220.9-393.4c2687.5-1334.7,4841.6-5511.1,5786.9-8859.1
			C20021.3,16929.7,18744.4,14206.9,15484.3,13803.3"/>
		<path id="path172" class="st15" d="M10939.7,29273.2c-90-797.4,131.8-1765.2-1824.4-3041.1
			c-708.1-461.7-1496.9-1445.9-1496.9-1445.9s399,745.4,1156.7,1457.3c1438.6,1351.4,1124.3,1512.8,947,1536.5
			c-249.4,34.1-969.3-139.1-2062.4-1664.1c19.9,42.5,357.3,727.5,933.7,1397.7c298.9,347.1,882.1,714.2,828.1,980.8
			C10070.7,28900.1,10277.9,29157.6,10939.7,29273.2"/>
		<path id="path174" class="st15" d="M4311,16398.1c0,0,2146.9-2578.1,6282.4-922.4C10593.5,15475.7,7282,14477.8,4311,16398.1"/>
		<path id="path176" class="st15" d="M15484.3,13803.3c0,0-1585.4-179.3-4177.6,106.7c0,0-4700.3-1681.7-6995.7,1108.5v0.7
			c0,0,2747.9-1940,6592.1-669.6c0,0,3633.4,831.5,3981,1511.5c0,0-2393.1-392.6-3688,159.4c0,0,4496-297.2,5642.1,2828.6
			c975.2,2659.9-1088.5,5744.7-1088.5,5744.7s-279.5-1632.2-866.3-2682.3c24.4,84.8,914.5,3233.7-1528.2,6991.7
			c2687.5-1334.7,4841.6-5511.1,5786.9-8859.1C20021.3,16929.7,18744.4,14206.9,15484.3,13803.3"/>
		<path id="path178" class="st13" d="M12221.8,19921.5c-107.6-67.8-226.3-108.3-329.7-134.8c-156.6-38.6-297-56.9-438-68.5
			c-231.2-19-462.8-13.5-694.3-12.6c-13.1,0-14.1,5.6-14.1,16.6c-0.4,337-1.3,674.1-1.9,1011.1c0,109.2-0.3,218.1-0.7,327.3
			c0,11.3,0,19,15.3,19.2c195.8,2.1,391.3,11,587,3.5c185.9-7,370.7-23.2,552.1-69.1c124.4-31.2,243.7-75.3,350.1-148.7
			c127-87.9,210.1-205.2,234.9-358.8C12521.9,20263.8,12443.9,20060.8,12221.8,19921.5z M10740.9,22733c-0.3,67.7,0,135.2-0.7,202.8
			c0,11.7,0.9,17.1,15,17.5c216.9,3.8,433.7,14.1,650.3-7.4c152.6-15,303-41.3,445-103.4c103.4-45.3,194.2-107.6,259.3-202.1
			c71.5-103.7,94.5-220.6,87.7-344.4c-11-205.2-119.6-344.9-296.4-437.7c-81.9-43.1-169.5-73.4-266.4-95
			c-161.3-37.4-325.2-50.8-490-56.3c-129-4-258.1,0-387.2,0.3c-12.9,0-15.7,4.2-15.7,16.9
			C10742.1,22060.1,10741.2,22396.6,10740.9,22733"/>
		<path id="path180" class="st3" d="M11630.6,29056.1c-1970.3,0-4296-1737.7-6057.6-4573.1
			c-1764-2839.1-2833.9-6730.5-1247.5-9024.2c2053.4-2969,6840.3-1305.3,6888.3-1288.2l60,21.4l63.4-6.9
			c2525.9-278.6,4100.6-108.2,4116.1-106.4c1340.4,166,2383.4,755.5,3013.3,1704c720,1084.3,865.2,2571,408.9,4186.4
			c-1179.5,4176.7-3887.7,8627.7-6781.5,9053.7C11942.2,29045.1,11787.3,29056.1,11630.6,29056.1 M8256.2,13130.6
			c-1960.5,0-3473.1,692.8-4386.2,2013.1c-1729,2500.1-626.7,6638.8,1232.7,9631.4c934.9,1504.7,2054.2,2753.5,3237,3611.1
			c1311,951,2637.1,1360.4,3835,1184.2c3272.3-481.8,6043.7-5237,7233.8-9451.2c500.8-1773,330.2-3422-480.6-4643
			c-721.9-1087.3-1900.9-1760.7-3409.5-1947.6c-68.4-7.8-1623.3-177.3-4180.2,99.3c-276.6-92.4-1422.7-447.5-2801.3-492.7
			C8442.3,13132.2,8348.7,13130.6,8256.2,13130.6"/>
		<path id="path182" class="st16" d="M13321.3,25581.4c-289.9-296.2-794.3-131.8-906.1,183.8c-113.2,319.3,195.4,998.6-23.2,2141.9
			c-66.1,345.1-180.5,733.2-369.5,1165.7l998.1-434.4c66.1-161.4,143.9-408.8,216.5-695.3
			C13453,27089.6,13623.9,25890.5,13321.3,25581.4"/>
		<path id="path184" class="st17" d="M13321.3,25581.4c-289.9-296.2-794.3-131.8-906.1,183.8c-39.9,113.1-27.1,271.8-3.3,480.6
			c0.7-4.5,2-8.4,3.3-12.2c111.8-315.5,616.2-480.1,906.1-183.7c88.7,89.9,136.8,257,154.2,469
			C13503.8,26090.9,13468.4,25731.1,13321.3,25581.4"/>
		<path id="path186" class="st17" d="M13237,27943.1c-289.7-2.7-589.8-18.1-845-36c-66.1,345.1-180.5,733.2-369.5,1165.7
			l998.1-434.4C13086.7,28477,13164.4,28229.6,13237,27943.1"/>
		<path id="path188" class="st3" d="M12511.3,28558c326.8-1038.7,239.6-1790.6,184-2270.8c-20.7-178.8-42.2-363.7-19-429.4
			c23.4-65.7,105.8-126.2,200.4-147.1c56.4-12.5,163.8-20.7,246.7,64.1c48.8,49.8,148.1,363.9,24.3,1208.6
			c-81.8,557.7-229.9,1128.5-344.4,1447.2L12511.3,28558 M12944.5,25149.5c-61.8,0-124.5,6.8-187.1,20.6
			c-284,62.6-515.1,255.2-602.8,502.8c-66.2,186.7-41.1,403.6-9.3,678.2c63.7,549.6,159.9,1380.3-376.7,2611.2
			c-45.5,104.3-22.6,225.9,58,306.5c80.3,80.6,202,103.7,306.3,58l997.9-434.7c65.8-28.7,118-81.9,145.3-148.4
			c177.3-430.4,826.3-2760.1,243-3356C13367.9,25233,13161.8,25149.5,12944.5,25149.5"/>
		<path id="path190" class="st16" d="M15951.5,24983.1c-118.8-329-665.7-355.3-879-19.2c-194,306.5-334.9,1512.1-1276.9,2764h-0.7
			c-272.5,362.3-612.4,729.3-1041.1,1078.9l1133.6-102.2c174.1-198.6,571.4-629.8,974.9-1146.5
			C15519.1,26716.8,16193.2,25648.8,15951.5,24983.1"/>
		<path id="path192" class="st17" d="M15951.5,24983.1c-118.8-329-665.7-355.3-879-19.2c-194,306.5-334.9,1512.1-1276.9,2764h-0.7
			c-272.5,362.3-612.4,729.3-1041.1,1078.9l143.3-12.9c359.3-210.1,719.8-434.4,947.2-654.9c1.3,0,90.6-173.5,90.6-173.5
			c1125.9-1089.3,1181.8-2335.9,1421.5-2608.4c170.3-193.4,445.9-104.1,636.1,77.1C16012,25270.9,16001,25118.7,15951.5,24983.1"/>
		<path id="path194" class="st17" d="M14862.2,27558c-492.8,102.9-881.7,150.4-1066.7,169.8h-0.7
			c-272.5,362.3-612.4,729.3-1041.1,1078.9l1133.6-102.2C14061.5,28505.9,14458.8,28074.7,14862.2,27558"/>
		<path id="path196" class="st3" d="M13538.1,28457.9c1051.7-1101.7,1410.7-2257.2,1617.8-2923.4c58-186.5,112.8-362.5,150.8-422.5
			c56.3-88.9,167.9-119.2,253.9-109.9c52.2,5.7,114.1,28.4,131,75.1c203.2,559.8-433.5,1673.4-1892.1,3309.3
			c-16.2,18.2-31.6,35.4-46.2,51.9L13538.1,28457.9 M15528.6,24446.7c-280.2,0-544.2,138.8-689.9,369.1
			c-77.2,121.8-133.7,303.3-211.6,554.4c-225.5,725.5-645.3,2076.1-2048.7,3221.7c-94.2,77-127.3,206.4-81.4,319.1
			c45.9,112.7,160.5,182,281.2,171.2l1134-102.1c70.9-6.4,136.6-39.8,183.4-93.3c31.9-36.4,71.3-80.6,116.9-131.7
			c1125.9-1262.9,2370.6-2843.6,1999.3-3866.8c-86.8-239.2-313.5-406.5-591.7-436.8C15589.7,24448.3,15559,24446.7,15528.6,24446.7"
			/>
		<path id="path198" class="st16" d="M8480.1,28193.5c0,0,3487.3,934.1,6147.3-142.9c0,0,261.6,582.1-185.3,1048.5
			c-642.2,670.7-5021.4,822.8-5822.7,69.8C8048.9,28632.7,8480.1,28193.5,8480.1,28193.5"/>
		<path id="path200" class="st17" d="M14627.7,28050.3c-2660.4,1077-6147.3,143.3-6147.3,143.3s-262.8,268-106,640.7
			c45-106,106-167.6,106-167.6s3486.9,934.4,6147.3-142.7c0,0,26.4,59.1,48.2,155.4
			C14759.5,28343.3,14627.7,28050.3,14627.7,28050.3"/>
		<path id="path202" class="st10" d="M14698.1,28337.2C14697.9,28337.4,14698.1,28337.2,14698.1,28337.2c5.2,51.8,7.4,108.4,4,168.2
			c-2.8,51-9.7,104.3-22.2,159C14707.1,28545.6,14708,28432.9,14698.1,28337.2"/>
		<path id="path204" class="st10" d="M14688.1,28264.9c0,0.3,0,0.4-0.1,0.7c4,22.6,7.3,46.6,10,71.8c0.1-0.1,0,0,0.1-0.1
			C14695.4,28311.9,14692,28287.7,14688.1,28264.9"/>
		<path id="path206" class="st18" d="M8324,28603.6c1.9,159.7,71.4,355.3,295.2,565.5c36.9,34.6,81.4,67.4,132.7,98.2
			c0-0.1,0.1-0.1,0.1-0.3c-51.4-30.8-95.7-63.6-132.6-98.2C8395.8,28958.7,8326.2,28763.4,8324,28603.6"/>
		<path id="path208" class="st19" d="M14201.1,29259c-109.6,51.8-244.5,99.3-398.8,142c0.1,0.1,0,0,0,0.1
			C13956.8,29358.4,14091.5,29310.9,14201.1,29259"/>
		<path id="path210" class="st14" d="M9282.4,29471.2L9282.4,29471.2c90.9,23.6,188.5,45,290.8,64.2l0,0
			C9470.8,29516.2,9373.6,29494.9,9282.4,29471.2 M13257.8,29519.7c-572.8,98.3-1275.1,151.3-1962.3,151.3
			c-273.9,0-545.6-8.4-805.8-25.6l0,0c260.1,17.4,532,25.7,805.9,25.7C11982.9,29671.1,12684.9,29618.2,13257.8,29519.7
			L13257.8,29519.7"/>
		<path id="path212" class="st20" d="M9573.2,29535.5L9573.2,29535.5c274.6,51.6,586.2,88,916.5,109.9l0,0
			C10159.5,29623.3,9847.8,29587.1,9573.2,29535.5"/>
		<path id="path214" class="st10" d="M8752.1,29267.1c0,0.1-0.1,0.1-0.1,0.3c134.2,80.6,315.1,148.4,530.4,204l0.1-0.1
			C9067.2,29415.6,8886.3,29347.8,8752.1,29267.1 M13802.3,29401c-161.9,44.9-345.3,84.5-544.6,118.7v0.1
			C13457,29485.7,13640.5,29446,13802.3,29401C13802.3,29401,13802.4,29401.2,13802.3,29401"/>
		<path id="path216" class="st10" d="M14679.9,28664.7c0,0-0.1,0.1-0.1,0.3C14679.7,28664.8,14679.9,28664.7,14679.9,28664.7"/>
		<path id="path218" class="st21" d="M8352.6,28417.9c-17.5,54-29.5,116.4-28.5,185.7c2.1,159.8,71.8,355,295.4,565.3
			c36.9,34.6,81.2,67.4,132.6,98.2c134.2,80.7,315.1,148.5,530.4,204.1c91.2,23.6,188.3,45,290.8,64.2
			c274.6,51.6,586.2,87.9,916.5,109.9c260.1,17.3,531.8,25.6,805.8,25.6c687.2,0,1389.5-53,1962.3-151.3
			c199.2-34.1,382.6-73.8,544.6-118.7c154.4-42.7,289.2-90.3,398.8-142c104.3-49.4,186.2-102.7,240.9-159.9
			c134.7-140.6,205.1-291.7,237.7-434.1c0-0.1,0.1-0.3,0.1-0.3c0-0.1,0-0.3,0-0.3c12.5-54.7,19.4-108,22.2-159
			c-3.2,55.7-11.3,114.3-26.1,174c-21.8-96.4-48.2-155.4-48.2-155.4c-12.2,4.9-24.6,9.8-36.8,14.7c-37.4,68-86.1,135.6-148.9,201.2
			c-345.7,361.3-1775.4,571.9-3146.5,571.9c-1174.9,0-2306.6-154.6-2676.4-502c-50.7-47.8-93.6-94.9-129.5-140.8
			c-6.1-1.6-9.3-2.4-9.3-2.4s-61.1,61.6-106,167.6c-68.8-163.4-56.8-306.7-21.8-416.1C8352.6,28418.1,8352.6,28418.1,8352.6,28417.9
			"/>
		<path id="path220" class="st22" d="M14688,28265.6c-16.2,88.5-46.3,181.2-97,273.1c12.2-4.9,24.6-9.8,36.8-14.7
			c0,0,26.4,59.1,48.2,155.4c14.9-59.7,23-118.3,26.1-174c3.5-59.7,1.2-116.4-4.1-168C14695.3,28312.2,14692,28288.1,14688,28265.6
			 M8352.6,28418.2c-35,109.4-47,252.7,21.8,416.1c45-106,106-167.6,106-167.6s3.2,0.8,9.3,2.4
			C8420.9,28581.2,8377.5,28497,8352.6,28418.2"/>
		<path id="path222" class="st3" d="M11580.4,28849.2c912.6,0,1913.2-105.8,2846.2-427.9c4.4,143.7-30.5,325.7-184.4,486.4
			c-204.7,213.6-1254.8,452.8-2657.9,483.4c-1337.2,28.8-2478.7-145.2-2775.2-423.9c-207.7-195.2-228.7-350.9-199-456.7
			C9065.8,28616.1,10226.1,28849.2,11580.4,28849.2L11580.4,28849.2z M14770.8,27693.8l-247.1,100.1
			c-2540.8,1028.7-5937.8,141.2-5971.9,132.2l-155.9-41.7l-113.2,115.1c-24.8,25.3-242.5,257.5-235.3,613.7
			c5.3,269,134.1,523.9,382.5,757.4c620.5,582.9,2581.1,586.9,3166.6,574c412.6-9,2498.4-82.7,3045.7-654.1
			c569.4-594.3,251.6-1322.8,237.8-1353.5L14770.8,27693.8"/>
		<path id="path224" class="st14" d="M6012.7,16847.9c-41.7,0-87.2,6.2-137,18.8c-851.8,217.1-1549.8,1791.9-1201.8,3810.5
			c301.3,1747.6,1500.4,3103.5,1988.2,3103.5c563.4,0,45.4-1016.9-135.2-3780.5C6406.2,18154.5,6616.4,16847.9,6012.7,16847.9"/>
		<path id="path226" class="st3" d="M12899.5,20225.6c0-686.4-529.2-1215.6-1240.3-1381v-826.9h-926v843.3
			c-719.4,190.3-1281.7,760.9-1339.6,818.8l661.5,661.4c49.6-57.7,562.3-595.3,1157.6-595.3c446.5,0,735.9,223.2,735.9,471.3
			c0,744.2-2447.5,884.7-2447.5,2307c0,686.3,520.9,1215.5,1232.1,1372.6v826.9h926v-843.3c719.5-190.3,1281.7-752.5,1339.6-810.4
			l-653.3-661.5c-57.9,66.1-578.8,578.8-1165.8,578.8c-446.5,0-735.9-206.8-735.9-454.8
			C10443.8,21788.3,12899.5,21647.7,12899.5,20225.6"/>
		<path id="path228" class="st1" d="M26213.9,15140.5l-3976.3-219.4c0,0-10.4-6.2-29.9-18.7
			c-368.8-229.7-4125.7-2523.5-7286.8-2732.5c-2082.6-137.8-4348.7,816-4573.6,1526.8c-141.2,444.4,83.1,954.4,1306.8,1142
			c-26.3,1207.1,1654.9,535.7,2603.1,425.6c0,0,2349.9,1142.1,4841.5,2768.6c2142.8,1398.8,3518.9,2718,5173,2132.5
			C26110.1,19515.4,26213.9,16144.8,26213.9,15140.5"/>
		<path id="path230" class="st2" d="M14508.7,12156.4c-198.7,0-397.5,9-595,25.9c-185,15.8-368.8,38.5-549.6,67.3
			c-54.9,8.6-109.8,18-164.2,27.7c-186.3,33.7-368.7,73.4-546,118.4c-956.5,242.6-1754.2,634.7-2116,1010
			c-95.7,99.1-160.7,197.1-190.5,290.9c-23.8,75-37.3,152-37.2,228.8v0.1c0.3,378.5,327,757.2,1344,913c0,0,46.3-205.6,355-397.9
			c0,0-157,31.9-346.8,31.9c-340.2,0-785.6-102.5-620.7-674.2c195.4-678.7,1935.8-1070.5,3570.1-1070.7
			c380.5,0,754.9,21.2,1103.2,65c1388.4,175.1,5235.9,1923.4,6492.8,2109.6c-168.8-105.1-1047.3-642.6-2253.6-1214.8
			c-207.7-98.5-425.2-198.2-650.5-296.6c-382.4-167.4-787-331.7-1204.7-483.2c-199.1-72.3-401.1-141.6-605-206.9
			c-132.9-42.6-267-83.6-401.1-122.5c-89.5-25.9-179-51-268.8-75c-92.6-24.8-185.3-48.6-278.1-71.1c-90-22-180.1-42.9-270.2-62.6
			c-171.3-37.6-342.6-70.9-513.1-99.5c-94.1-15.8-188.3-30.1-282-42.9c-111-15.1-221.4-28.1-331.3-38.6
			c-76.4-7.4-152.5-13.7-228.4-18.6c-63.3-4.2-126.9-7.4-190.5-9.6C14656.8,12157.6,14582.6,12156.4,14508.7,12156.4"/>
		<path id="path232" class="st3" d="M25937.3,15140.6c-11.9,1406.5-191,3831-1488.2,4638c-559.8,316.1-1229.5,316.1-1832.4,94.9
			c-975.9-363.8-1799.5-1026.2-2675.6-1609.1c-1778.6-1211-3638.6-2284.4-5562.8-3249.2c-49.1-24.4-102.2-32.4-152.9-26
			c-276.6,33.6-528,91-777.6,141.7c-350.3,59.5-1287.7,312.7-1476.4-38c-29.5-58.4-42.9-153.3-40.5-253.5
			c0-138.8-101.9-253.8-234.9-274.5c-388.1-70.5-815.7-148.5-1048.8-446.1c-202-322.4,129.9-589.7,387.8-761.2
			c743.2-472.6,1633.8-725.5,2506.5-852.7c1811.8-261.1,3604.4,331.8,5273.5,992.6c994,393.1,2366.3,1083.4,3348.5,1540.3
			c69.4,35.4,155.4,6.5,188.7-64.2c28.5-60.1,10.1-130.5-40.5-169.5c-998.6-773.5-2119.9-1344.6-3274.7-1841.1
			c-1459.3-607.1-3012.3-1096-4610.7-1087.9c-1282.5,25.1-3166.4,439.2-4106.3,1357.9c-307.4,299-389.3,833.4-132.9,1194.2
			c338.4,469.7,902,593,1424.9,685.1l-234.8-279.6c-23.6,855,677.4,1072.3,1401.2,974.6c513.8-54.7,1017.7-204.7,1510.7-268.1
			l-152.9-26c1890.2,948.3,3741.6,2015.5,5492.3,3208.2c893,595.4,1768.1,1293.8,2804.4,1674.4
			c726.1,272.3,1611.4,261.5,2297.6-140.4c690.8-411.8,1074.1-1142.7,1317-1866.2c340.4-1048.8,437.2-2157.5,443.4-3248.5
			c0.1-152.9-123.6-277.1-276.5-277.3C26061.4,14862.9,25937,14987.3,25937.3,15140.6"/>
		<path id="path234" class="st3" d="M19302.2,13113.2c-15.8,0-31.7,1.3-47.6,4.1c-150.6,26.1-251.6,169.5-225.5,320.1
			c311,1792-867.5,3979-879.4,4000.9c-73.3,134.2-23.9,302.3,110.3,375.6c134.3,73.3,302.3,24,375.6-110
			c52.6-96.1,1283.4-2376.8,939-4361.1C19551.3,13208.1,19434.3,13113.2,19302.2,13113.2"/>
		<path id="path236" class="st1" d="M12948.8,14069.1c-351.2,219.9-1166.5,281-1294.7,769.5"/>
		<path id="path238" class="st3" d="M12875.4,13951.8c-470.9,194.7-1128.5,172.4-1427.7,677.6c-26.7,50.8-48.3,106.7-70.1,160.9
			c-58.1,144.7,12.2,309.2,157,367.2c144.8,58.1,309.2-12.2,367.2-157c33.8-106.6,9.4-176.4,122-275.4
			c162.9-150,409.2-242.4,623.8-339.4c121.4-55.2,247.8-109.8,374.5-199.2c62.5-44.1,77.5-130.5,33.3-192.8
			C13014.2,13934.8,12936.3,13919,12875.4,13951.8"/>
	</g>
</g>
</svg>
