<?xml version="1.0" encoding="UTF-8"?>
<svg id="Layer_1" data-name="Layer 1" xmlns="http://www.w3.org/2000/svg" viewBox="0 0 303.46 408.79">
  <defs>
    <style>
      .cls-1 {
        fill: #fff;
      }

      .cls-2 {
        fill: #111a28;
      }

      .cls-3 {
        fill: #d8d8d8;
      }

      .cls-4 {
        fill: #39005e;
      }

      .cls-5 {
        fill: #e2e2e2;
      }

      .cls-6 {
        opacity: .35;
      }

      .cls-6, .cls-7, .cls-8, .cls-9 {
        fill: none;
      }

      .cls-7 {
        opacity: .7;
      }

      .cls-10 {
        fill: #4599f4;
      }

      .cls-8 {
        opacity: .5;
      }

      .cls-9 {
        opacity: .2;
      }

      .cls-11 {
        fill: #371a45;
      }
    </style>
  </defs>
  <path class="cls-11" d="m274.31,24.89c-.85,1.36-2.57,1.94-4.07,1.37l-4.39-1.7c-1.96-.72-2.85-3.07-1.85-4.91,4.57-8.05,12.9-10.76,21.09-9.78,11.46,1.37,19.39,11.01,18.27,20.34-1.66,13.86-14.29,14.21-17.46,24.37-.58,1.59-2.08,2.68-3.71,2.49l-4.81-.57c-2.12-.25-3.52-2.37-2.89-4.45,3.58-11.19,15.34-13.2,16.34-21.58.57-4.81-1.97-8.83-7.94-9.54-4.24-.51-7,1.41-8.58,3.95Zm10.21,48.57c-.46,3.85-4.02,6.65-7.87,6.19-3.95-.47-6.74-4.03-6.28-7.88.47-3.95,4.03-6.74,7.97-6.27,3.85.46,6.65,4.02,6.18,7.96Z"/>
  <g>
    <g class="cls-9">
      <ellipse class="cls-11" cx="144.3" cy="393.25" rx="96.34" ry="15.55"/>
    </g>
    <g>
      <path class="cls-1" d="m52.52,287.77c.23,1.03.54,2.02.92,2.97,2.33,5.86,7.39,10.31,13.66,11.78,17.48,4.11,54.48,9.1,97.91-6.79,0,0,9.3-85.69-8.72-128.66,0,0-40.2-8.34-94.3,8.44-4.62,1.43-8.41,4.48-10.82,8.43-1.71,2.8-2.73,6.06-2.85,9.49-.79,22.74-1.5,68.81,4.2,94.32Z"/>
      <path class="cls-11" d="m104.02,309.42c17.64,0,38.88-2.66,61.93-11.09.99-.36,1.68-1.25,1.8-2.29.38-3.53,9.17-86.89-8.92-130.02-.35-.84-1.09-1.45-1.98-1.63-1.67-.35-41.51-8.29-95.68,8.51-9.01,2.79-15.28,11.02-15.6,20.46-.85,24.56-1.42,69.56,4.26,95.02,1.85,8.29,8.39,14.91,16.64,16.85,8.7,2.04,21.66,4.2,37.56,4.2Zm58.41-15.69c-41.77,14.83-77.19,10.23-94.71,6.11-6.21-1.46-11.12-6.43-12.52-12.68-5.55-24.86-4.97-69.33-4.13-93.63.25-7.1,4.96-13.28,11.72-15.38,47.13-14.62,83.95-9.86,91.51-8.63,15.44,38.89,9.28,112.1,8.13,124.2Z"/>
      <path class="cls-11" d="m53.09,185s.07-.04.13-.06c.05-.02.12-.05.19-.07.13-.05.27-.1.41-.14.28-.09.58-.17.88-.25.6-.14,1.22-.27,1.85-.36,1.26-.18,2.55-.26,3.84-.19,1.29.06,2.6.22,3.89.54,1.3.28,2.55.76,3.8,1.27l.06.02c.51.21,1.1-.03,1.31-.55.18-.45.02-.95-.36-1.21-1.21-.83-2.48-1.64-3.85-2.26-1.35-.66-2.8-1.15-4.27-1.54-1.48-.39-3.01-.62-4.56-.73-.78-.05-1.56-.06-2.36-.04-.4.02-.8.04-1.2.08-.2.02-.41.04-.62.07l-.32.05c-.11.02-.21.03-.38.07-1.46.44-2.29,1.97-1.85,3.43.44,1.46,1.97,2.29,3.43,1.85Z"/>
    </g>
    <g class="cls-9">
      <path class="cls-11" d="m59.88,293.58c-1.84-.91-3.45-2.16-4.93-3.58,2.33,5.86,7.39,10.31,13.66,11.78,17.48,4.11,54.48,9.1,97.91-6.79,0,0,9.3-85.69-8.72-128.66,0,0-40.2-8.34-94.3,8.44-4.62,1.43-8.41,4.48-10.82,8.43,2.43.21,4.84,1.15,6.57,2.8,4.75,4.5,5.79,11.57,6.54,18.07,1.61,13.78,3.21,27.55,4.82,41.32,1.33,11.4,2.66,22.79,3.99,34.18.5,4.28.84,9.1-1.95,12.38-3,3.52-8.63,3.68-12.78,1.62Z"/>
    </g>
    <path class="cls-1" d="m3,216.35c1.99,4.66,15.96,0,15.96,0,0,0-3.33,9.31-9.31,15.3-1.28,1.28-2.45,2.84-3.32,4.57-3.21,6.31-2.57,14.82,9.97,20.05,15.97,6.65,26.61-5.99,32.6-14.64,0,0,6.66,20.36,27.28,16.5,0,0-4.66,18.09.66,31.4,5.33,13.31,4.66,54.55,4.66,54.55,0,0-3.99,34.59,0,43.24,3.99,8.65,44.8,14.63,62.98,4.66,0,0,34.81,6.65,56.1,1.99,13.18-2.88,14.38-11.89,10.68-18.81-2.26-4.25-6.37-7.71-10.68-8.46,0,0,8.57-82.49,5.95-119.74,0,0,20.66,5.32,32.64-2,11.98-7.31,23.28-32.6,23.28-32.6,0,0,11.31,8.65,20.62-.66,9.31-9.31-18.63-17.29-18.63-17.29,0,0,5.99-3.92,3.33-9.53-2.66-5.62-6.21-.3-14.78-2.07-8.57-1.78-20.41.59-34.6,15.37,0,0-5.04-10.27-19.74-19-11.45-6.82-28.78-12.69-54.17-12.04-28.3.72-55.1,7.09-70.54,18.83-6.95,5.28-11.61,11.66-13.05,19.1,0,0-18.63-5.5-33.93-4.41-15.3,1.08-25.94,11.07-23.94,15.72Z"/>
    <g class="cls-9">
      <path class="cls-11" d="m6.34,236.22c7.13,5.34,16.98,6.98,25.39,4.01,8.27-2.92,14.82-10.17,17.13-18.61.48-1.77,2.55-2.53,4.07-1.49,2.62,1.79,5.33,3.42,8.3,4.49,4.25,1.54,9.16,1.81,12.63-1.54-3.84-5.61-7.66-11.22-11.85-17.27-.17-.34-.34-.68.21-1.48,3.09,4.94,9.65,7.41,15.23,5.73,2.83-.85,5.29-2.73,7.01-5.17,2.54-3.58,1.68-8.58-1.86-11.17-3.16-2.3-6.07-4.92-8.67-7.77,15.45-11.73,42.24-18.1,70.54-18.83,25.39-.65,42.72,5.23,54.17,12.04-37.54,27.38-65.96,28.31-80.39,27.19-6.25-.48-11.47,4.82-10.77,11.05.47,4.18,2.01,8.21,4.8,11.48,5.45,6.42,13.49,10.05,21.51,12.62,22.3,7.12,46.16,7.47,69.56,6.62.61,7.5,1.21,15,1.82,22.52-28.43,8.97-58.77,11.79-89.28,9.39-4.05-.32-5.76,5.07-2.24,7.1,11.19,6.46,24.07,10,36.99,10.01,17.83,0,35.58-6.73,48.93-18.56-.23,17.06-13.41,33.07-30.2,36.73,1.57,11.77,1.4,23.77-.61,35.47-.72,9.7-1.43,19.39-1.37,27.95,13.22,8.64,32.19,6.97,43.87-3.57,3.7,6.91,2.5,15.92-10.68,18.81-21.29,4.66-56.1-1.99-56.1-1.99-18.18,9.98-58.98,3.99-62.98-4.66-3.99-8.65,0-43.24,0-43.24,0,0,.67-41.24-4.66-54.55-5.32-13.31-.66-31.4-.66-31.4-20.62,3.86-27.28-16.5-27.28-16.5-5.98,8.65-16.63,21.29-32.6,14.64-12.54-5.23-13.18-13.74-9.97-20.05Zm102.33,141.12c2.99,5.96,9.65,9.47,16.29,10.06,6.64.59,13.27-1.37,19.34-4.26-.3-9.33-6.47-15.85-4.91-16.38-6.15-20.07-1.77-43.05,9.11-59.29-9.93-1.08-19.74-3.2-29.23-6.3-4.09-1.33-8.34,1.57-8.64,5.86-1.25,17.95-2.5,35.91-3.74,53.87-.39,5.57-.72,11.44,1.78,16.43Z"/>
    </g>
    <path class="cls-11" d="m118.21,399.91c9.73,0,19.52-1.42,26.71-5.05,5.89,1.06,36.39,6.15,56.25,1.8,13.12-2.87,14.67-11.08,14.67-14.77,0-.09,0-.18,0-.27-.15-7.16-5.63-14.48-12.27-16.96,1.19-11.82,6.23-64.27,6.23-100.61,0-4.89-.09-9.49-.3-13.65,6.75,1.23,21.32,2.89,31.11-3.09,10.21-6.23,19.6-23.97,23.02-30.97,5.39,2.8,14.16,4.54,21.4-2.69,2.1-2.1,2.71-4.15,2.71-5.84,0-.66-.1-1.27-.23-1.79-1.6-6.19-11.77-10.68-18-12.89.99-1.5,1.72-3.34,1.72-5.39,0-1.28-.28-2.64-.95-4.06-2.43-5.15-6.36-4.38-9.22-3.81-2.04.4-4.36.86-7.49.22-7.79-1.61-19.97-.43-34.64,13.65-2.28-3.29-6.71-8.65-14.14-13.91-10.59-7.49-29.66-16.26-60.35-15.47-21.39.55-41.44,4.31-56.44,10.58-15.76,6.6-25.74,15.78-29.08,26.7-5.86-1.5-19.88-4.63-32.13-3.77-12.05.85-21.85,7.02-25.3,12.67C.37,212.34,0,213.87,0,215.11c0,.94.21,1.72.47,2.32,1.9,4.44,8.28,4.2,13.61,3.1-1.48,2.88-3.64,6.43-6.37,9.16-2.96,2.96-5.76,7.71-5.76,12.95,0,.91.09,1.84.27,2.78.78,3.95,3.68,9.48,13.03,13.38,16.14,6.72,27.39-4.35,33.09-11.69,3.83,6.91,11.76,14.88,24.36,14.21-.55,3.09-1.17,7.71-1.17,12.85s.66,11.14,2.75,16.37c4.08,10.19,4.48,38.46,4.48,49.23h0v.02c0,2.19-.02,3.66-.02,4.09-.31,2.67-1.78,16.16-1.78,28,0,6.91.5,13.26,2.03,16.57,1.36,2.94,5.17,5.46,11.33,7.49,7.01,2.31,17.41,3.95,27.89,3.95Zm26.27-10.7c-.46,0-.92.12-1.33.34-12.08,6.63-36.62,5.93-51.1,1.16-5.17-1.7-7.56-3.52-8.04-4.56-1.11-2.41-1.53-7.63-1.53-13.9,0-8.9.85-19.89,1.77-27.87.01-.09.02-.18.02-.27,0-.33.03-2.06.03-4.74,0-11.37-.46-39.82-4.88-50.88-1.78-4.46-2.35-9.56-2.35-14.25,0-8.28,1.77-15.32,1.8-15.43.06-.23.09-.46.09-.69,0-.69-.26-1.37-.74-1.89-.64-.69-1.6-1-2.52-.83-17.94,3.35-23.9-13.92-24.15-14.65-.33-.99-1.19-1.72-2.23-1.86-1.03-.15-2.07.3-2.66,1.16-6.46,9.34-15.62,19.34-29.27,13.66-5.62-2.35-8.99-5.58-9.74-9.36-.11-.58-.17-1.16-.17-1.74,0-3.55,2.03-6.89,4.15-9.02,6.35-6.35,9.82-15.92,9.96-16.32.11-.3.16-.62.16-.93,0-.71-.27-1.41-.79-1.93-.74-.75-1.84-1.02-2.84-.69-5.79,1.92-11.56,2.39-12.56,1.5,0-.03,0-.06,0-.11,0-.25.11-.82.65-1.7,2.64-4.33,10.89-9.32,20.97-10.04h0c14.63-1.04,32.77,4.25,32.95,4.31.75.22,1.55.12,2.21-.29.66-.4,1.13-1.07,1.28-1.83,4.54-23.34,43.93-34.74,80.96-35.69,28.96-.75,46.83,7.34,56.72,14.25,10.67,7.45,14.61,15.18,14.65,15.26.4.8,1.17,1.36,2.06,1.5.89.13,1.79-.17,2.41-.81,11.28-11.75,22.06-16.65,32.04-14.58,4.23.87,7.38.25,9.68-.21q2.57-.51,3.16.75c.28.59.4,1.16.4,1.69,0,2.43-2.42,4.14-2.75,4.37-.77.52-1.22,1.39-1.23,2.3,0,.14.01.28.03.43.17,1.06.93,1.93,1.96,2.23,6.88,1.97,17.51,6.62,18.47,10.35.02.09.05.21.05.38,0,.4-.18,1.04-1.09,1.96-7.46,7.46-16.61.71-17,.42-.67-.51-1.54-.68-2.35-.47-.81.21-1.49.77-1.83,1.54-.11.25-11.1,24.59-22.2,31.37-10.83,6.62-30.32,1.73-30.51,1.68-.86-.22-1.77-.01-2.45.55-.63.53-.99,1.3-.99,2.12,0,.07,0,.13,0,.2.34,4.84.49,10.47.49,16.61,0,40.22-6.35,101.94-6.43,102.65,0,.1-.01.19-.02.28,0,1.32.95,2.48,2.28,2.72,5.14.91,10.1,6.9,10.22,12.32,0,.06,0,.13,0,.19,0,5.85-5.6,8.31-10.33,9.34-20.48,4.48-54.65-1.94-54.99-2.01-.17-.03-.34-.05-.52-.05Zm-2.96-13.25c.11,0,.23,0,.34-.02,1.25-.15,2.24-1.14,2.4-2.39.02-.18,2.36-18.29,6.55-26.94.32-.65.36-1.41.13-2.09-.05-.13-4.58-13.51-4.31-21.18.05-1.3-.83-2.46-2.09-2.78-1.26-.31-2.58.3-3.15,1.48-.52,1.06-12.51,26.36-2.43,52.17.42,1.07,1.44,1.76,2.57,1.76Zm3.84-30.72c-1.84,4.18-3.29,9.74-4.37,14.78-1.23-9.39.04-18.15,1.66-24.63.97,4.27,2.13,8.07,2.71,9.85Z"/>
    <path class="cls-11" d="m76.64,260.85l.34-.07.24-.07.47-.14.85-.31c.55-.21,1.06-.46,1.59-.69l1.48-.79c.48-.28.93-.59,1.4-.88.48-.28.9-.62,1.34-.94.43-.33.88-.64,1.29-.99l1.21-1.06c.4-.35.81-.7,1.17-1.09l1.12-1.14c.37-.38.75-.75,1.08-1.16.67-.81,1.37-1.6,2.02-2.42l1.84-2.54c.32-.42.59-.86.86-1.3l.82-1.32c1.15-1.73,2.02-3.6,3.01-5.4.49-.91.86-1.86,1.29-2.79.41-.94.85-1.86,1.25-2.8.71-1.91,1.47-3.8,2.14-5.72l1.83-5.8c.28-.88-.21-1.82-1.09-2.1-.86-.27-1.77.18-2.07,1.02l-.03.09-2.03,5.55c-.74,1.82-1.54,3.61-2.31,5.41-.42.88-.88,1.75-1.31,2.62-.45.86-.85,1.76-1.35,2.59-1.01,1.66-1.91,3.38-3.05,4.94l-.82,1.19c-.27.4-.54.8-.85,1.16l-1.78,2.24c-.62.72-1.28,1.4-1.92,2.1-.31.36-.66.67-1,.99l-1.03.96c-.33.33-.7.61-1.06.9l-1.08.87c-.37.28-.75.52-1.13.78-.38.25-.75.53-1.14.73-.39.22-.78.45-1.17.66l-1.19.57c-.4.15-.8.32-1.18.45l-.57.18-.25.06-.12.03s-.02,0-.03,0l-.43.12c-1.45.43-2.29,1.95-1.86,3.4.41,1.39,1.83,2.22,3.23,1.91Z"/>
    <path class="cls-11" d="m209.25,246.59c-.76-4.59-1.66-9.04-2.67-13.51-1.01-4.46-2.14-8.89-3.38-13.29-1.23-4.4-2.65-8.76-4.17-13.08-1.54-4.31-3.29-8.56-5.22-12.73-.37-.8-1.31-1.15-2.11-.78-.78.36-1.13,1.26-.81,2.04v.03c1.71,4.14,3.24,8.34,4.57,12.62,1.3,4.29,2.51,8.61,3.53,12.98,1.03,4.37,1.95,8.77,2.75,13.18.8,4.4,1.51,8.88,2.03,13.26v.05c.19,1.51,1.56,2.59,3.08,2.41,1.51-.18,2.59-1.56,2.41-3.07,0-.04-.01-.08-.02-.12Z"/>
    <path class="cls-4" d="m207.93,238.49c-1.22-4.51-2.55-8.97-4-13.38-.27-.84-1.18-1.29-2.01-1.02-.75.25-1.19,1-1.08,1.76.68,4.54,1.23,9.09,1.66,13.63.14,1.52,1.5,2.64,3.02,2.5,1.52-.14,2.64-1.5,2.5-3.02-.01-.15-.04-.3-.08-.45v-.02Z"/>
    <path class="cls-11" d="m241.91,245.07c.17-4.64.07-9.33-.5-13.99-.58-4.66-1.57-9.33-3.23-13.81-1.64-4.49-3.96-8.8-7.05-12.59-1.55-1.89-3.28-3.64-5.22-5.18-.96-.78-1.99-1.49-3.06-2.15-.53-.33-1.09-.64-1.66-.93-.29-.15-.58-.29-.88-.43l-.47-.2-.25-.1-.32-.12h0s-.28-.1-.28-.1c-1.37-.48-2.87.25-3.35,1.62-.26.76-.15,1.58.23,2.22.12.2.29.56.44.85l.44.95c.29.64.57,1.3.84,1.96.54,1.33,1.04,2.68,1.51,4.05.47,1.37.9,2.76,1.31,4.17.41,1.4.78,2.82,1.13,4.24h0c.17.71.88,1.13,1.57.96.63-.16,1.03-.74.98-1.36-.12-1.5-.26-2.99-.43-4.49-.18-1.5-.38-3-.63-4.49-.25-1.5-.53-3-.87-4.49-.17-.75-.35-1.5-.55-2.25l-.32-1.14c-.12-.4-.22-.73-.39-1.21l-3.4,3.75.22.09.31.13c.21.09.43.2.64.31.43.23.87.46,1.3.73.85.53,1.7,1.1,2.49,1.75,1.61,1.27,3.07,2.76,4.39,4.37,2.64,3.23,4.68,6.99,6.14,11,1.48,4,2.39,8.26,2.93,12.57.53,4.32.63,8.72.47,13.12h0c-.06,1.54,1.13,2.82,2.66,2.87,1.52.06,2.8-1.13,2.86-2.66Z"/>
    <path class="cls-11" d="m68.58,261.23c.86,0,1.7-.4,2.24-1.14,11.84-16.37,8.94-31.12,4.42-40.61-4.81-10.1-12.3-16.31-12.61-16.57-1.18-.97-2.92-.79-3.88.38-.97,1.18-.8,2.91.38,3.88.1.08,6.96,5.82,11.21,14.85,5.55,11.79,4.2,23.51-3.99,34.84-.89,1.24-.62,2.96.62,3.85.49.35,1.05.52,1.61.52Z"/>
    <path class="cls-11" d="m51.31,242.98c.29-.71.48-1.3.69-1.94.2-.63.4-1.25.57-1.88.36-1.25.68-2.51.97-3.77.57-2.52,1-5.04,1.31-7.57.04-.36-.21-.68-.57-.72-.29-.04-.57.13-.68.39h0c-.98,2.31-2.06,4.54-3.25,6.7-.59,1.08-1.22,2.14-1.86,3.17-.32.52-.65,1.02-.99,1.52-.33.48-.69,1.01-1.01,1.4-.97,1.2-.78,2.96.43,3.93,1.2.97,2.96.78,3.93-.43.17-.22.31-.45.41-.69l.05-.12Z"/>
    <path class="cls-11" d="m16.21,216.21c0,.25.01.36.02.52l.04.43c.03.28.07.56.12.83.1.55.22,1.08.37,1.61.3,1.05.7,2.08,1.22,3.05,1.03,1.95,2.56,3.67,4.4,4.83.92.58,1.89,1.02,2.88,1.37.99.31,1.99.55,2.99.66,1.99.26,3.95.16,5.84-.1.48-.07.81-.51.75-.99-.06-.43-.42-.74-.84-.76h0c-1.8-.06-3.57-.29-5.19-.79-.82-.23-1.58-.58-2.31-.94-.71-.4-1.36-.85-1.93-1.37-1.14-1.04-1.93-2.34-2.39-3.77-.23-.71-.38-1.46-.46-2.22-.04-.38-.06-.76-.06-1.13,0-.19,0-.37.02-.55l.02-.26c0-.07.02-.19.03-.17.08-1.52-1.09-2.82-2.62-2.9-1.52-.08-2.82,1.09-2.9,2.62Z"/>
    <path class="cls-11" d="m147.08,392.87c1.47-3.63,2.22-7.81,1.52-12.02-.36-2.09-1.08-4.16-2.19-6.03-.56-.93-1.21-1.81-1.98-2.64-.41-.42-.75-.8-1.4-1.27-.47-.33-.9-.59-1.34-.85-3.51-2-7.34-3.14-11.22-3.46-3.88-.33-7.77.22-11.3,1.53-.54.2-.82.81-.62,1.35.17.46.63.73,1.09.68h.01c3.49-.37,6.94-.24,10.19.53,1.63.38,3.21.9,4.72,1.56,1.5.67,2.96,1.45,4.25,2.36.32.23.64.47.89.68.07.07.35.35.54.6.43.53.82,1.14,1.15,1.77.66,1.28,1.11,2.68,1.33,4.14.45,2.94,0,6.1-.86,9.27v.04c-.41,1.47.45,2.99,1.93,3.39,1.37.37,2.77-.35,3.29-1.63Z"/>
    <path class="cls-11" d="m201.25,364.02c-.19-.04-.32-.05-.46-.08-.14-.02-.28-.04-.41-.05-.27-.03-.53-.06-.79-.08-.52-.05-1.03-.07-1.55-.09-1.02-.03-2.04-.01-3.05.04-2.02.11-4.02.42-5.97.89-.98.21-1.93.54-2.88.83-.93.37-1.87.68-2.76,1.13-1.82.8-3.49,1.89-5.08,3.01-.45.31-.55.93-.24,1.37.28.4.81.53,1.24.32l.06-.03c1.64-.8,3.28-1.54,5.03-2,.85-.28,1.74-.42,2.6-.62.89-.12,1.76-.28,2.65-.33,1.76-.15,3.54-.14,5.28.04.87.09,1.74.21,2.59.38.42.09.85.17,1.25.28.21.05.41.1.6.16.1.03.2.05.29.08.09.03.19.06.23.08,1.38.7,3.07.14,3.77-1.25.7-1.39.14-3.07-1.25-3.77-.23-.11-.46-.19-.7-.24l-.46-.09Z"/>
    <path class="cls-11" d="m111.61,353.39c14.51,0,25.88-2.31,26.66-2.47,1.49-.31,2.45-1.77,2.14-3.26-.31-1.49-1.77-2.45-3.26-2.14-.31.06-30.78,6.24-55.02-1.84-1.45-.48-3.01.3-3.49,1.74-.48,1.45.3,3.01,1.74,3.49,10.32,3.44,21.48,4.48,31.23,4.48Z"/>
    <path class="cls-11" d="m175.27,354.2c14.76,0,27.13-3.86,27.96-4.13,1.45-.46,2.25-2.02,1.79-3.47-.46-1.45-2.01-2.25-3.47-1.79h0c-.31.1-30.98,9.64-51.91-1.83-1.34-.73-3.01-.24-3.75,1.09-.73,1.34-.24,3.01,1.09,3.75,8.86,4.86,19.04,6.37,28.28,6.37Z"/>
    <path class="cls-11" d="m143.86,325.99c1.12,0,2.18-.69,2.59-1.81l5.94-16.19c.52-1.43-.21-3.02-1.64-3.54-1.43-.52-3.02.21-3.54,1.64l-5.94,16.19c-.52,1.43.21,3.02,1.64,3.54.31.11.63.17.95.17Z"/>
    <path class="cls-11" d="m192.42,291.33c-1.2.79-2.56,1.58-3.88,2.31-1.34.72-2.69,1.43-4.07,2.08-2.74,1.32-5.57,2.45-8.42,3.47-.71.26-1.43.5-2.15.72-.72.23-1.44.46-2.17.66-1.45.44-2.91.82-4.38,1.17-2.94.69-5.92,1.23-8.91,1.6-1.5.21-3,.29-4.5.44-1.51.07-3.01.2-4.52.19-.76,0-1.51.03-2.27.01l-2.27-.04c-.76,0-1.51-.07-2.27-.11-.75-.06-1.51-.08-2.27-.15-6.04-.51-12.05-1.61-18.05-3.06h0c-.72-.18-1.44.26-1.61.98-.15.64.18,1.28.76,1.54,5.82,2.56,12.04,4.26,18.4,5.18,3.18.4,6.4.7,9.62.66,1.61.03,3.22-.08,4.83-.14,1.61-.12,3.21-.26,4.81-.5,3.19-.44,6.37-1.02,9.47-1.89,1.55-.43,3.09-.88,4.61-1.41.76-.25,1.51-.54,2.26-.83.75-.28,1.5-.58,2.24-.9,2.97-1.23,5.83-2.68,8.59-4.31,1.37-.83,2.73-1.69,4.03-2.62,1.32-.94,2.56-1.9,3.81-3.03.54-.48.58-1.31.1-1.85-.44-.49-1.16-.57-1.7-.22l-.06.04Z"/>
    <path class="cls-1" d="m81.06,256.04c3.35.27,6.56.38,9.6.38,16.09,0,27.35-3.18,27.96-3.36,3.66-1.06,5.77-4.88,4.71-8.55-1.06-3.66-4.88-5.76-8.53-4.71-.21.06-8.55,2.37-20.74,2.76-4.79,7.51-9.58,11.44-12.99,13.48Z"/>
    <path class="cls-11" d="m90.66,259.18c16.65,0,28.25-3.33,28.73-3.47,2.47-.72,4.53-2.36,5.77-4.61,1.25-2.26,1.54-4.87.82-7.35-1.47-5.1-6.83-8.06-11.94-6.6-.08.02-8.13,2.27-20.07,2.65-.91.03-1.75.51-2.24,1.27-4.59,7.19-9.1,10.82-12.08,12.6-1.03.61-1.55,1.83-1.27,3,.27,1.17,1.27,2.03,2.47,2.12,3.21.26,6.51.39,9.82.39Zm26.04-16.89c1.79,0,3.45,1.18,3.98,2.99.31,1.07.18,2.18-.35,3.15-.53.97-1.41,1.67-2.48,1.98-.12.03-11.32,3.25-27.19,3.25-.68,0-1.35,0-2.03-.02,2.19-2.1,4.57-4.84,6.95-8.38,11.86-.54,19.9-2.79,19.98-2.81.38-.11.76-.16,1.14-.16Z"/>
    <path class="cls-11" d="m200.04,224.02c-.23.76-.32,1.78-.14,2.65l.07.32.04.15.06.21.12.41c.16.55.31,1.1.45,1.65l.87,3.31c.29,1.1.55,2.21.8,3.33.25,1.11.51,2.22.73,3.34l.03.13c.23,1.15,1.35,1.89,2.5,1.66.04,0,.09-.02.13-.03l1.67-.45.83-.23.42-.11c.15-.04.34-.12.5-.18,1.36-.5,2.61-1.31,3.58-2.38,1.98-2.1,2.8-5.19,2.18-7.98-.3-1.39-.93-2.72-1.84-3.82-.92-1.1-2.09-1.96-3.39-2.54-1.3-.57-2.73-.88-4.2-.89-.36.03-.74.01-1.09.06-.37.05-.63.06-1.22.19-1.05.22-2.16.69-3.1,1.21Zm4.69,2.91c.14.26.1.46.13.41-.05,0,.23-.12.4-.2.19-.08.36-.13.55-.18.74-.17,1.55-.11,2.29.17.74.29,1.37.8,1.87,1.4.49.61.82,1.34.99,2.11.34,1.54-.19,3.2-1.28,4.3-.53.56-1.21.97-1.94,1.19-.1.03-.16.06-.28.09l-.39.09-.78.17-1.55.35,2.66,1.76-.55-3.44-.57-3.44-.59-3.44-.31-1.72-.07-.43-.04-.22v-.05s-.02-.04,0,0c0,.03.01.07.02.11.05.31-.18.78-.54.97Z"/>
    <path class="cls-11" d="m266.67,192.78c-.11-.13-.17-.2-.24-.27-.07-.08-.14-.15-.21-.21-.14-.13-.27-.26-.41-.38-.27-.24-.55-.47-.83-.68-.56-.43-1.15-.81-1.76-1.16-1.22-.69-2.54-1.2-3.9-1.48-1.35-.29-2.75-.37-4.08-.18-.67.05-1.31.23-1.95.39-.63.16-1.22.43-1.82.65-.56.2-.85.81-.65,1.37.17.47.63.76,1.11.71l.19-.02c.55-.05,1.07-.16,1.61-.16.53,0,1.05-.02,1.56.07,1.02.1,1.98.41,2.86.84.88.42,1.68.98,2.38,1.65.35.34.68.69.97,1.06.15.19.29.37.42.56.07.09.12.19.18.28.03.05.05.09.07.13.02.04.05.09.03.08.89,1.23,2.62,1.51,3.85.62,1.23-.89,1.51-2.62.62-3.85Z"/>
    <g class="cls-9">
      <path class="cls-11" d="m198.63,209.59c5.09,5.69,11.54,10.16,18.65,12.93,3.64,1.42,7.68,2.39,11.44,1.31s6.95-4.85,6.48-8.79c5.31-1.28,10.06-4.59,13.26-9.01,2.42-3.34,6.79-4.56,10.6-3,8.05,3.29,16.92,4.6,25.57,3.68-1.5,4.08-4.97,7.38-9.11,8.68-4.14,1.3-8.88.58-12.44-1.91-3.38,11.55-11.37,21.68-21.82,27.64-10.45,5.97-23.24,7.7-34.84,4.18-3.13-11.89-5.65-23.93-7.79-35.72Z"/>
    </g>
    <g>
      <rect class="cls-1" x="114.59" y="208.91" width="88.1" height="58.71" rx="8.79" ry="8.79" transform="translate(-30.95 23.81) rotate(-7.82)"/>
      <path class="cls-11" d="m126.5,274.98c.52,0,1.05-.04,1.58-.11l69.86-9.6c6.31-.87,10.74-6.71,9.87-13.01l-5.6-40.75c-.87-6.31-6.7-10.73-13.01-9.87l-69.86,9.6c-6.31.87-10.74,6.71-9.87,13.01l5.6,40.75c.79,5.78,5.76,9.98,11.43,9.98Zm64.28-67.93c2.96,0,5.56,2.19,5.97,5.21l5.6,40.75c.45,3.29-1.86,6.34-5.15,6.8l-69.86,9.6h0c-3.29.46-6.34-1.86-6.8-5.15l-5.6-40.75c-.45-3.29,1.86-6.34,5.15-6.8l69.86-9.6c.28-.04.55-.06.82-.06Z"/>
      <path class="cls-11" d="m139.22,273.23c.53,0,1.06-.04,1.6-.11l57.12-7.85c6.31-.87,10.74-6.71,9.87-13.01l-5.6-40.75c-.87-6.31-6.7-10.73-13.01-9.87l-57.12,7.85c-6.31.87-10.74,6.71-9.87,13.01l5.6,40.75c.42,3.06,2,5.77,4.46,7.63,2.03,1.54,4.45,2.35,6.96,2.35Zm51.55-66.18c2.96,0,5.56,2.19,5.97,5.21l5.6,40.75c.45,3.29-1.86,6.34-5.15,6.8l-57.12,7.85h0c-1.6.22-3.18-.2-4.46-1.17-1.28-.97-2.11-2.39-2.33-3.98l-5.6-40.75c-.45-3.29,1.86-6.34,5.15-6.8l57.12-7.85c.28-.04.55-.06.82-.06Z"/>
      <circle class="cls-10" cx="146.83" cy="234.24" r="9.46"/>
      <g class="cls-7">
        <path class="cls-1" d="m145.92,230.07c-3.73,0-6.94,2.16-8.49,5.3-.04-.37-.07-.75-.07-1.13,0-5.23,4.24-9.46,9.46-9.46s9.46,4.24,9.46,9.46c0,1.5-.36,2.91-.98,4.16-.56-4.69-4.55-8.33-9.39-8.33Z"/>
      </g>
      <path class="cls-11" d="m146.83,246.46c6.74,0,12.22-5.48,12.22-12.22s-5.48-12.22-12.22-12.22-12.22,5.48-12.22,12.22,5.48,12.22,12.22,12.22Zm0-18.92c3.7,0,6.7,3.01,6.7,6.7s-3.01,6.7-6.7,6.7-6.7-3.01-6.7-6.7,3.01-6.7,6.7-6.7Z"/>
      <path class="cls-11" d="m171.86,267.25c.11,0,.22,0,.33-.02,1.51-.18,2.59-1.56,2.41-3.07l-2.15-17.9c-.22-1.82.48-3.61,1.87-4.8l4.15-3.56c2.76-2.37,4.17-5.94,3.77-9.56l-2.53-22.53c-.17-1.51-1.54-2.6-3.05-2.43-1.51.17-2.6,1.54-2.43,3.05l2.53,22.53c.2,1.8-.5,3.58-1.87,4.76l-4.15,3.56c-2.79,2.39-4.19,6-3.76,9.65l2.15,17.9c.17,1.4,1.36,2.43,2.74,2.43Z"/>
    </g>
    <g class="cls-9">
      <path class="cls-11" d="m113.11,217.39c1.67,6.24.61,12.84.87,19.3.26,6.45,2.42,13.6,8.14,16.6,3.95,2.07,8.67,1.69,13.11,1.24,22.56-2.29,45.06-5.05,67.5-8.31,3.48,3.87,1.62,10.45-2.44,13.71-4.05,3.25-9.49,4.06-14.64,4.76-17.69,2.39-35.38,4.77-53.07,7.16-3.09.42-6.43.79-9.13-.76-3.06-1.75-4.37-5.42-5.33-8.81-4.12-14.64-5.98-29.92-5.01-44.88Z"/>
    </g>
    <g class="cls-9">
      <path class="cls-11" d="m18.97,216.75c-.08,4.44,2.7,8.8,6.75,10.61,4.05,1.81,9.15.97,12.41-2.06,1.65-1.53,2.87-3.94,2.01-6.02-.65-1.57-2.28-2.49-3.86-3.12-5.63-2.23-12.14-2.16-17.31.59Z"/>
    </g>
    <g>
      <path class="cls-1" d="m47.69,79.35s-19.52,9.52-21.26,13.45c-3.22,7.29,1.23,48.03,12.86,57.69,4.55,3.78,35.58,4.87,35.58,4.87l-27.18-76.01Z"/>
      <path class="cls-5" d="m74.87,155.36s-31.02-1.09-35.58-4.87c-4.54-3.77-7.99-12.28-10.31-21.69.37.27,12.05,8.63,31.92-12.35.01-.01.03-.02.04-.04l13.92,38.94Z"/>
      <polygon class="cls-3" points="139.26 113.91 139.29 114.26 139.5 114.07 139.26 113.91"/>
      <polygon class="cls-3" points="139.5 114.07 139.73 114.22 139.7 113.87 139.5 114.07"/>
      <path class="cls-1" d="m209.5,143.04s30.31-6.7,34.1-11.25c3.78-4.53,5.63-13.53,6.2-23.2h0c.9-15.1-1.29-31.85-4.03-35.86-2.42-3.55-23.35-9.37-23.35-9.37l-6.31,38.86-6.63,40.82Z"/>
      <path class="cls-3" d="m209.5,143.04s30.31-6.7,34.1-11.25c3.78-4.53,5.63-13.53,6.2-23.2-.31.34-10.29,10.68-33.63-6.35-.01-.01-.03-.02-.04-.03l-6.63,40.82Z"/>
      <path class="cls-11" d="m74.87,158.12c.88,0,1.71-.42,2.23-1.13.54-.74.68-1.7.37-2.56l-27.18-76.01c-.26-.74-.83-1.33-1.56-1.63s-1.55-.27-2.25.07c-6.14,2.99-20.64,10.43-22.57,14.82-3.6,8.17.81,50.28,13.62,60.92,4.9,4.07,29.74,5.24,37.24,5.5.03,0,.06,0,.1,0Zm-28.73-74.91l24.75,69.22c-13.43-.66-27.69-2.28-29.84-4.06-4.48-3.72-8.61-14.22-11.05-28.09-2.36-13.41-2.13-23.93-1.06-26.36.99-1.74,9.21-6.64,17.18-10.71Z"/>
      <path class="cls-11" d="m209.5,145.8c.2,0,.4-.02.6-.07,7.33-1.62,31.55-7.28,35.63-12.17,10.67-12.79,7.37-55.01,2.34-62.38-2.7-3.96-18.3-8.65-24.89-10.48-.75-.21-1.57-.09-2.23.33-.66.42-1.11,1.11-1.24,1.88l-12.94,79.68c-.15.9.16,1.82.83,2.45.52.49,1.2.75,1.9.75Zm15.16-78.93c8.58,2.55,17.55,5.89,18.87,7.45,1.47,2.16,3.61,12.46,3.72,26.08.12,14.08-2.04,25.16-5.77,29.62-1.79,2.14-15.52,6.32-28.6,9.41l11.78-72.56Z"/>
      <circle class="cls-1" cx="137.41" cy="96.92" r="94.16"/>
      <path class="cls-3" d="m43.64,105.5c4.74,51.79,50.56,89.93,102.35,85.19,51.79-4.74,89.93-50.56,85.19-102.35-.5-5.47-1.46-10.79-2.84-15.91-3.57,44.84-38.97,81.94-85.29,86.18-46.32,4.24-87.86-25.82-99.51-69.27-.43,5.29-.4,10.69.1,16.16Z"/>
      <path class="cls-11" d="m137.24,193.35c2.97,0,5.96-.14,8.96-.41,25.65-2.35,48.85-14.54,65.32-34.34,16.48-19.8,24.26-44.82,21.91-70.47-2.35-25.65-14.54-48.85-34.34-65.32C179.3,6.34,154.27-1.44,128.63.9c-25.65,2.35-48.85,14.54-65.32,34.34-16.48,19.8-24.26,44.82-21.91,70.47,2.35,25.65,14.54,48.85,34.34,65.32,17.48,14.55,39.05,22.32,61.51,22.32Zm.33-188.34c21.42,0,41.97,7.4,58.63,21.27,18.87,15.7,30.49,37.81,32.73,62.26,2.24,24.44-5.18,48.3-20.88,67.16-15.7,18.87-37.81,30.49-62.26,32.72-24.45,2.24-48.3-5.18-67.16-20.88-18.87-15.7-30.49-37.81-32.73-62.26l-2.25.21,2.25-.21c-2.24-24.45,5.18-48.3,20.88-67.16,15.7-18.87,37.81-30.49,62.26-32.72,2.85-.26,5.7-.39,8.54-.39Z"/>
      <path class="cls-11" d="m137.24,193.35c2.97,0,5.96-.14,8.96-.41,25.65-2.35,48.85-14.54,65.32-34.34,16.48-19.8,24.26-44.82,21.91-70.47-2.35-25.65-14.54-48.85-34.34-65.32C179.3,6.34,154.27-1.44,128.63.9c-25.65,2.35-48.85,14.54-65.32,34.34-16.48,19.8-24.26,44.82-21.91,70.47,2.35,25.65,14.54,48.85,34.34,65.32,17.48,14.55,39.05,22.32,61.51,22.32Zm.33-188.34c21.42,0,41.97,7.4,58.63,21.27,18.87,15.7,30.49,37.81,32.73,62.26,2.24,24.44-5.18,48.3-20.88,67.16-15.7,18.87-37.81,30.49-62.26,32.72-24.45,2.24-48.3-5.18-67.16-20.88-18.87-15.7-30.49-37.81-32.73-62.26l-2.25.21,2.25-.21c-2.24-24.45,5.18-48.3,20.88-67.16,15.7-18.87,37.81-30.49,62.26-32.72,2.85-.26,5.7-.39,8.54-.39Z"/>
      <path class="cls-11" d="m137.24,193.35c2.97,0,5.96-.14,8.96-.41,25.65-2.35,48.85-14.54,65.32-34.34,16.48-19.8,24.26-44.82,21.91-70.47-2.35-25.65-14.54-48.85-34.34-65.32C179.3,6.34,154.27-1.44,128.63.9c-25.65,2.35-48.85,14.54-65.32,34.34-16.48,19.8-24.26,44.82-21.91,70.47,2.35,25.65,14.54,48.85,34.34,65.32,17.48,14.55,39.05,22.32,61.51,22.32Zm.33-188.34c21.42,0,41.97,7.4,58.63,21.27,18.87,15.7,30.49,37.81,32.73,62.26,2.24,24.44-5.18,48.3-20.88,67.16-15.7,18.87-37.81,30.49-62.26,32.72-24.45,2.24-48.3-5.18-67.16-20.88-18.87-15.7-30.49-37.81-32.73-62.26l-2.25.21,2.25-.21c-2.24-24.45,5.18-48.3,20.88-67.16,15.7-18.87,37.81-30.49,62.26-32.72,2.85-.26,5.7-.39,8.54-.39Z"/>
      <path class="cls-11" d="m137.35,193.84c2.95,0,5.91-.13,8.9-.41,43.97-4.02,79.64-37.19,86.8-80.69.01-.06.03-.12.04-.18,1.31-8.03,1.6-16.26.85-24.48-.33-3.64-.87-7.26-1.6-10.75C222.43,28.98,177.82-4.09,128.58.41,79.33,4.92,41.47,45.55,40.51,94.92c-.07,3.58.06,7.22.39,10.83h0c.75,8.2,2.52,16.25,5.27,23.91.02.06.04.12.07.18,13.93,38.66,50.59,64,91.11,64Zm90.27-82.12c-6.7,41.08-40.37,72.42-81.88,76.21-41.51,3.8-80.31-20.91-94.36-60.09-.02-.07-.05-.14-.08-.2-2.55-7.18-4.21-14.71-4.91-22.4h0c-.31-3.4-.43-6.84-.36-10.22.9-46.56,36.61-84.88,83.06-89.13,46.44-4.25,88.5,26.94,97.84,72.55.69,3.3,1.19,6.71,1.51,10.14.7,7.69.44,15.4-.77,22.91-.02.07-.03.15-.04.22Zm-183.97-6.22h0,0Z"/>
      <path class="cls-11" d="m44.66,82.87c.96,0,1.84-.61,2.15-1.56,11.67-35.74,44.34-61.14,83.25-64.7,38.88-3.56,75.62,15.47,93.59,48.47.57,1.04,1.84,1.47,2.92.98,1.08-.49,1.6-1.73,1.18-2.85C212.64,22.57,171.87-3.05,128.63.9c-43.28,3.96-78.72,36.58-86.19,79.32-.2,1.17.53,2.3,1.68,2.58.18.05.37.07.55.07ZM139.35,11.67c-3.21,0-6.45.15-9.7.44-29.22,2.67-55.09,17.14-71.89,38.95,14.62-25.31,40.93-42.88,71.28-45.65,30.33-2.78,59.39,9.72,78.36,31.95-18.2-16.34-42.39-25.68-68.05-25.68Z"/>
      <path class="cls-11" d="m43.65,105.5c.74,8.12,2.49,15.91,5.12,23.24,0,0,0,0,0,0,19.14,29.94,56.16,53.82,96.14,50.16,39.98-3.66,72.04-33.86,85.44-66.77,0,0,0,0,0,0,1.26-7.69,1.57-15.66.82-23.78-.32-3.55-.84-7.04-1.55-10.44-15.85-33.84-55.1-55.79-98.69-51.8-43.61,3.99-78.22,32.71-87.66,68.88-.07,3.47.05,6.99.38,10.53Z"/>
      <g class="cls-6">
        <path class="cls-2" d="m43.65,105.51c.74,8.12,2.49,15.91,5.12,23.24,0,0,0,0,0,0,19.14,29.94,56.16,53.82,96.14,50.16,39.98-3.66,72.04-33.86,85.44-66.77,0,0,0,0,0,0,.75-4.58,1.16-9.26,1.22-14.02-18.86,25.54-47.86,45.52-81.89,48.64-43.36,3.97-83.67-20.47-106.28-52.24-.05.16-.09.31-.13.47-.07,3.47.05,6.99.38,10.53Z"/>
      </g>
      <path class="cls-11" d="m136.82,181.54c2.78,0,5.54-.13,8.3-.38,19.24-1.76,37.88-9.69,53.92-22.92,14.52-11.99,26.37-28.01,33.36-45.14.09-.19.16-.39.19-.61,1.31-7.99,1.59-16.18.84-24.35-.33-3.62-.87-7.22-1.59-10.7-.04-.17-.09-.34-.17-.5-8.09-17.26-21.89-31.48-39.93-41.12-18.34-9.8-39.44-13.94-61.02-11.97-21.58,1.97-41.59,9.88-57.85,22.86-15.99,12.76-26.98,29.25-31.8,47.7-.04.17-.07.35-.07.52-.07,3.57.06,7.19.38,10.78h0c.75,8.16,2.51,16.17,5.24,23.79.07.21.18.4.3.57,9.98,15.57,24.54,29.18,41,38.33,15.57,8.66,32.31,13.13,48.89,13.14Zm91.35-70.04c-12.2,29.78-42.7,61.43-83.46,65.16-40.77,3.73-76.5-21.86-93.91-48.93-2.55-7.19-4.2-14.73-4.9-22.42h0c-.3-3.33-.43-6.69-.37-10.01,9.59-36.24,43.96-63.13,85.61-66.94,41.65-3.81,80.32,16.38,96.33,50.27.66,3.23,1.15,6.57,1.46,9.93.7,7.7.45,15.42-.76,22.94Z"/>
      <g class="cls-8">
        <ellipse class="cls-1" cx="69.71" cy="101.86" rx="11.98" ry="16.54" transform="translate(-23.05 20.44) rotate(-14.34)"/>
      </g>
      <g class="cls-8">
        <ellipse class="cls-1" cx="86.68" cy="133.5" rx="6.51" ry="7.59" transform="translate(-44.14 42.83) rotate(-22.28)"/>
      </g>
      <g class="cls-8">
        <path class="cls-1" d="m212.89,118.31s11.55-48.6-15.42-65.73c-26.97-17.12-63.83-14.43-62.8-12.12,0,0,41.51,6.98,59.77,38.11,14.08,24,18.45,39.75,18.45,39.75Z"/>
      </g>
    </g>
  </g>
</svg>