<?xml version="1.0" encoding="UTF-8"?>
<svg id="Layer_1" data-name="Layer 1" xmlns="http://www.w3.org/2000/svg" viewBox="0 0 2297.57 3199.91">
  <defs>
    <style>
      .cls-1 {
        opacity: .5;
      }

      .cls-2 {
        opacity: .2;
      }

      .cls-3 {
        opacity: .35;
      }

      .cls-4 {
        fill: #371a45;
      }

      .cls-4, .cls-5, .cls-6, .cls-7 {
        stroke-width: 0px;
      }

      .cls-5 {
        fill: #fff;
      }

      .cls-6 {
        fill: #111a28;
      }

      .cls-8 {
        opacity: .25;
      }

      .cls-7 {
        fill: #008cff;
      }
    </style>
  </defs>
  <rect class="cls-5" x="262.44" y="1110.2" width="1267.96" height="1316.27" rx="281.86" ry="281.86"/>
  <path class="cls-4" d="m1248.54,1110.2c155.02,0,281.86,126.84,281.86,281.86v752.55c0,155.02-126.84,281.86-281.86,281.86h-704.24c-155.02,0-281.86-126.84-281.86-281.86v-752.55c0-155.02,126.84-281.86,281.86-281.86h704.24m0-41.98h-704.24c-178.57,0-323.84,145.27-323.84,323.84v752.55c0,178.57,145.27,323.84,323.84,323.84h704.24c178.57,0,323.84-145.27,323.84-323.84v-752.55c0-178.57-145.27-323.84-323.84-323.84h0Z"/>
  <g>
    <path class="cls-5" d="m1915.19,1451.27s-102.44,355.31-404.7,329.9c-86.63-7.28-142.92-49.31-178.13-91.34-38.71-46.1-51.94-92.18-51.94-92.18l-2.66-195.54-2.8-208.74s27.76,43.34,70.67,89.28c19.98,21.38,43.22,43.29,68.5,61.69,82.07,59.65,185.3,81.79,266.02-74.77l235.03,181.7Z"/>
    <g class="cls-8">
      <path class="cls-4" d="m1510.48,1781.17c-181.73-15.26-230.05-183.53-230.05-183.53h0c.03-22.93,29.22-32.9,43.04-14.6,34.33,45.47,92.73,94.69,187.14,102.61,213.53,17.96,376.36-162.73,192.6-313.01l211.98,78.6s-102.43,355.34-404.7,329.92Z"/>
    </g>
    <path class="cls-4" d="m1280.33,1189.93c64.94,55.25,115.32,131.28,194.19,167.54,89.08,40.21,150.29-21.18,188.65-96.67,4.84-9.39,16.37-13.08,25.76-8.24,1.02.52,2.06,1.2,2.94,1.87l235.02,181.71c6.44,4.85,8.88,13.13,6.68,20.43-23.26,72.3-59,139.74-106.48,199.16-47.98,59.38-111.54,108.84-185.71,131.13-116.36,33.65-239.61,11.49-322.37-81.24-19.45-21.98-35.07-47.71-41.93-76.37-2.17-9.63-3.52-19.28-2.8-29.83.25-3.73,3.48-6.54,7.21-6.29,2.12.13,3.82,1.22,5.05,2.77,23.52,27.36,40.97,55.99,63.36,83.19,64.41,83.35,183.83,99.94,280.34,71.19,127.9-39.48,211.91-159.57,258.15-279.79,3.06-8.15,6.11-16.83,8.44-24.51l6.68,20.43-235.02-181.71,28.69-6.37c-10.66,20.63-22.95,40.75-37.81,59.52-95.83,122.23-222.43,66.34-314.49-26.5-31.72-33.41-60.3-69.79-75.26-114.53-2.09-6.17,5.84-11.65,10.73-6.88h0Z"/>
    <path class="cls-4" d="m1595.61,1794.74c-.33,0-.65,0-.99-.03-41.87-2.43-73.29-19.66-93.38-51.22-68.71-107.9,26.93-351.39,31.04-361.7,3.42-8.59,13.14-12.78,21.73-9.36,8.59,3.42,12.78,13.15,9.36,21.73-.94,2.37-93.46,237.85-33.89,331.37,14.19,22.27,36.13,33.97,67.08,35.77,9.23.54,16.27,8.45,15.74,17.68-.52,8.9-7.9,15.76-16.69,15.76Z"/>
    <path class="cls-5" d="m1632.71,1246.01c-11.66,187.95,169.88,225.94,222.11,229.06,108.94,6.49,173.08-78.32,173.08-78.32l-48.51-133.18-18.36-69.64-39.4-26.41c-14.99-72.67-65.97-165.53-115.35-153.49,0,0-163.53,69.96-173.57,231.97Z"/>
    <g class="cls-8">
      <path class="cls-4" d="m2060.34,1344.89c-16.77,54.52-103.4,82.02-251.62,16.81-52.21-22.97-85.12-74.56-68.35-129.08,16.77-54.52,74.56-85.12,129.08-68.35,54.52,16.77,207.66,126.1,190.89,180.62Z"/>
    </g>
    <path class="cls-5" d="m2109.18,1166.79c-52.82,28.1-97.34,47.09-97.34,47.09l-148.93,81.07-19.02-210.2s11.14-37.81,29.42-86.78c36.09-96.98,99.96-237.67,159.81-215.11,107.64,40.57-53.87,307.25-53.87,307.25,0,0,247.03-179.68,296.8-91.75,29.12,51.45-80.09,122.24-166.87,168.44Z"/>
    <g class="cls-8">
      <path class="cls-4" d="m2109.18,1166.79c-52.82,28.1-97.34,47.09-97.34,47.09l-148.93,81.07-19.02-210.2s11.14-37.81,29.42-86.78c22.26,32.29,64.15,91.37,75.61,122.41,19.74,53.47,118.61,24.22,160.27,46.4Z"/>
    </g>
    <path class="cls-4" d="m1862.89,1311.71c-2.71,0-5.42-.66-7.89-1.98-4.97-2.66-8.27-7.64-8.77-13.25l-19-210.24c-.19-2.1.02-4.22.61-6.24,8.06-27.29,81.13-267.77,164.97-309.47,15.51-7.73,31.5-8.87,46.21-3.32,20.41,7.69,35.02,22.82,42.26,43.75,20.73,59.95-21.3,161.56-54.36,227.11,62.86-39.22,161.13-91.5,220.85-78.58,19.01,4.12,33.83,14.72,42.85,30.66,7.85,13.86,9.08,29.82,3.55,46.15-28.68,84.77-246.54,180.46-275.02,192.65l-148.25,80.73c-2.49,1.36-5.25,2.04-8,2.04Zm-2.05-225.28l16.42,181.67,126.58-68.92c.47-.25.95-.49,1.43-.7,64.59-27.57,236.72-112.39,257.19-172.92,3.27-9.66,1.01-15.43-.97-18.94-4.36-7.71-10.98-12.3-20.81-14.43-62.05-13.45-202.68,75.91-251.61,111.47-6.44,4.69-15.3,4.18-21.16-1.21-5.86-5.39-7.12-14.17-2.99-20.99,30.89-51.03,106.32-197.13,84.72-259.58-4.04-11.69-11.17-19.12-22.42-23.36-3.79-1.43-9.94-2.78-19.5,1.97-59.2,29.45-125.14,213.43-146.87,285.94Z"/>
    <path class="cls-5" d="m2054.85,1382.92c-40.32,35.43-160.71,20.73-192.96-25.14-27.43-39.05,19.51-63.62,32.55-69.52,2.04-.95,3.26-1.39,3.26-1.39,0,0-39.71-26.92-36.02-66.21.24-2.54.65-5.14,1.32-7.82,10.42-43.43,135.5-45.21,184.61-21.01,36.71,18.1,46.6,38.36,45.06,56.3-1.63,19.11-16.23,35.59-25.21,44.05-4.13,3.85-7.02,6.01-7.02,6.01,0,0,26.73,56.38-5.58,84.74Z"/>
    <g class="cls-8">
      <path class="cls-4" d="m2067.46,1292.17c-35.31,6.24-104.66,14.01-173.02-3.91,2.04-.95,3.26-1.39,3.26-1.39,0,0-39.71-26.92-36.02-66.21,37.74,21.3,144.33,72.56,230.98,27.46-1.63,19.11-16.23,35.59-25.21,44.05Z"/>
    </g>
    <g class="cls-8">
      <path class="cls-4" d="m2054.85,1382.92c-40.32,35.43-160.71,20.73-192.96-25.14-13.49-19.19-9-34.86.59-46.56,1.28,2.74,2.91,5.58,4.96,8.5,32.2,45.86,152.6,60.56,192.9,25.18,4.18-3.67,7.41-7.8,9.76-12.25,2.11,17.05.07,36.79-15.25,50.28Z"/>
    </g>
    <path class="cls-4" d="m1983.47,1419.39c-9.13,0-18.62-.57-28.37-1.73-48.91-5.84-88.87-24.62-106.88-50.24-13.74-19.55-12.69-36.52-9.4-47.32,5.05-16.54,18.17-28.72,30.13-36.8-14.28-15.93-29.96-41.9-22.21-74.33,2.42-10.12,10.01-24.4,32.44-34.93,48.29-22.68,135.68-17.04,175.84,2.76,33.75,16.63,52.02,37.72,54.31,62.67,2.59,28.31-16.54,51.62-29.04,63.64,7.18,21.16,16.76,65.06-14.4,92.41-17.62,15.47-47.34,23.87-82.43,23.87Zm-22.88-226.51c-25.31,0-50.28,3.52-67.18,11.45-8.1,3.8-13.11,8.21-14.12,12.42-7.52,31.48,27.5,56.05,27.86,56.29,5.12,3.53,7.89,9.62,7.15,15.79-.74,6.17-4.8,11.44-10.61,13.66-7.19,2.8-28.78,13.89-32.87,27.42-1.04,3.44-1.68,9.07,4.78,18.26,12.26,17.44,45.02,31.67,83.47,36.26,36.77,4.4,70.02-1.13,84.75-14.06,22.01-19.32,1.67-64.58,1.46-65.03-3.37-7.2-1.24-15.81,5.14-20.56,7.65-5.78,27.25-24.71,25.58-42.32-1.48-15.61-20.27-27.99-35.77-35.64h0c-17.77-8.76-48.94-13.94-79.64-13.94Z"/>
    <path class="cls-4" d="m1998.99,1318.59c-30.26,0-68-4-106.3-18.29-7.42-2.77-11.19-11.03-8.43-18.45,2.77-7.42,11.04-11.19,18.45-8.42,77.07,28.75,153.59,11,154.36,10.82,7.73-1.84,15.45,2.91,17.28,10.61,1.84,7.71-2.91,15.44-10.61,17.29-1.91.46-27.73,6.45-64.75,6.45Z"/>
    <path class="cls-5" d="m1806.29,1014.06c65.55-15.99,133.84,152.69,117.23,213.86-12.68,46.69-79.28,68.42-126.56-10.68-47.9-80.14-93.62-178.06,9.32-203.18Z"/>
    <path class="cls-5" d="m2027.91,1396.77s-64.16,84.78-173.06,78.29c-52.25-3.11-233.79-41.1-222.14-229.07,10.04-161.99,173.58-231.94,173.58-231.94,65.55-15.99,133.84,152.69,117.23,213.86-12.68,46.69-89.43,51.77-121.95-47.25,0,0,7.59,83.2-72.63,113.69l125.47,134.74,122.24,12.96,51.25-45.28Z"/>
    <path class="cls-5" d="m1769.97,1268.22l-2.5-2.68c2.84-1.09,5.47-2.19,8.02-3.42-1.71,2.03-3.54,4.09-5.52,6.09Z"/>
    <g class="cls-8">
      <path class="cls-4" d="m1808.19,1167.69c1.07-32.36,63.46,70.05,114.09,64.24-13.68,36.87-69.81,43.47-105.31-16.65,4.46-24.94-8.79-47.59-8.79-47.59Z"/>
    </g>
    <g class="cls-8">
      <path class="cls-4" d="m1956.06,1439.86l20.62,2.2c-29.37,18.97-70.69,36.06-121.84,33.02-52.27-3.11-233.8-41.14-222.14-229.09,6.83-110.23,84.79-177.89,133.88-209.8-43.54,37.6-90.17,96.91-95.39,181-11.67,187.95,169.87,225.98,222.13,229.09,22.96,1.34,43.93-1.31,62.72-6.42Z"/>
    </g>
    <path class="cls-5" d="m2027.85,1396.84c-.64.84-5.68,7.3-14.79,16.21l-3.17-.32,17.96-15.89Z"/>
    <path class="cls-5" d="m2015.17,1413.26c-2.17,1.4-4.41,2.84-6.74,4.19,1.61-1.52,3.16-3.01,4.62-4.41l2.11.21Z"/>
    <path class="cls-4" d="m1666.76,1388.69c-53.87-35.14-56.76-109.06-48.2-166.67,8.66-59.75,40.45-114.6,83.68-155.98,24.93-24.04,53.05-44.37,83.6-60.58,5.15-2.58,10.48-5.71,16.49-7.66,13.17-3.28,27.19-.76,37.95,4.29,62.25,26.5,125.16,182.6,94.19,243.28-18.67,36.06-66.46,39.54-96.78,17.33-26.48-18.06-42.45-48.07-52-76.81l32.56-6.74c.3,4.42.28,7.46.19,11.04-1.4,48.35-30.37,114.12-87.5,109.39-5.01-.49-7.21-6.72-3.96-10.43,13.06-17.53,30.15-30.6,42.3-48.59,11.91-16.38,16.42-38.74,15.62-58.82-.91-19.47,26.33-24.5,32.59-6.3,9.32,28.3,27.94,61.89,57.78,67.41,12.02,2.11,24.07-2.52,29.69-13.26,16.6-42.49-18.72-129.24-44.79-165.22-11.82-15.82-28.93-37.27-49.9-34.05,0,0,2.61-.87,2.61-.87-15.76,7.23-31.47,16.65-45.83,26.62-58.03,39.84-105.25,100.05-115.39,170.98-5.26,34.38-.62,69.99,8.44,103.18,4.72,16.57,10.43,32.58,15.5,51.64,1.64,4.99-4.45,9.64-8.82,6.82h0Z"/>
    <path class="cls-4" d="m2039.65,1405.66c-22.45,27.36-50.92,49.05-82.9,64.07-31.52,14.51-68.79,27.98-102.19,10.24-3.92-1.86-3.78-7.91.17-9.6,16.42-7.74,31.3-10.21,46.11-14.12,14.89-2.64,29.82-6.32,43.44-13.19,27.28-12.69,52.68-31.99,71.89-55.16,12.08-15.68,35.35,1.84,23.48,17.77h0Z"/>
  </g>
  <g>
    <path class="cls-5" d="m567.36,1293.23l-2.4,11.74-26.58,130.46-121.3,595.11c-11.93,13.67-25.88,25.55-41.33,35.55-4.18,2.77-8.45,5.35-12.87,7.8-3.01,1.74-6.06,3.33-9.16,4.88-44.9,22.73-98.67,32.45-150.05,29.4-43.77-2.63-85.75-14.56-119.1-35.65-.23-.14-.52-.33-.75-.56-10.38-6.62-19.91-14.18-28.37-22.64-5.73-5.96-10.43-12.68-14.18-19.87-.05-.09-.09-.19-.09-.24-4.88-9.39-8.12-19.63-9.96-30.1-7.37-41.61,7.65-87.12,33.63-100.08-4.79-8.31-9.16-16.53-13.1-24.7-.99-1.93-1.93-3.9-2.86-5.87-10.05-21.42-17.47-42.27-22.4-62.6v-.05c-.75-2.96-1.41-5.87-2.02-8.78-4.27-20.43-6.06-40.29-5.49-59.64.61-25.55,5.26-50.2,13.57-73.97.23-.85.52-1.74.84-2.58l.05-.09c47.43-132.29,205.6-236.88,398.71-317,20.52-8.5,41.47-16.77,62.7-24.7,12.73-4.79,25.59-9.49,38.56-14.09,11.22-3.99,22.59-7.89,33.95-11.74Z"/>
    <path class="cls-4" d="m222.24,2127.59c-6.55,0-13.11-.19-19.68-.58-48.54-2.92-92.82-16.24-128.07-38.54-.6-.36-1.21-.78-1.83-1.26-11.27-7.28-21.53-15.54-30.54-24.54-7.03-7.31-12.85-15.45-17.56-24.46-.15-.28-.28-.56-.41-.84-.02-.05-.04-.09-.06-.14-5.4-10.57-9.25-22.29-11.44-34.86-7.43-41.93,4.47-85.34,27.8-108.54-1.99-3.79-3.89-7.56-5.68-11.28-.88-1.7-1.9-3.84-2.92-5.97-10.49-22.36-18.45-44.62-23.7-66.26-.04-.16-.07-.31-.11-.47-.76-3.01-1.42-5.97-2.04-8.94-4.52-21.59-6.5-43.14-5.89-64.06.64-26.73,5.5-53.38,14.44-79.11.37-1.25.79-2.54,1.28-3.78,0-.02.01-.05.02-.07,44.43-123.17,182.06-233.38,409.07-327.57,20.98-8.69,42.29-17.08,63.32-24.95,12.52-4.71,25.6-9.49,38.85-14.19,11.3-4.02,22.76-7.95,34.22-11.83,6.39-2.16,13.46-.76,18.54,3.72,5.07,4.47,7.36,11.31,6.01,17.93l-28.98,142.19-121.3,595.11c-.65,3.2-2.13,6.18-4.27,8.64-12.86,14.74-28.1,27.85-45.29,38.98-4.35,2.88-9.1,5.76-13.98,8.47-2.71,1.56-5.93,3.28-9.85,5.25-41.12,20.82-90.19,31.95-139.94,31.95Zm-126.94-70.62c30.06,18.74,67.78,29.85,109.51,32.36,49.8,2.97,99.66-6.77,140.39-27.4,2.84-1.42,5.56-2.84,8.25-4.39,4.35-2.41,8.14-4.71,11.87-7.18,12.96-8.39,24.43-17.98,34.29-28.62l142.65-699.89c-.84.3-1.69.6-2.53.9-13.03,4.63-25.89,9.33-38.23,13.97-20.66,7.72-41.55,15.95-62.12,24.48-217.07,90.06-347.68,192.99-388.17,305.93-.09.27-.2.53-.3.79-.06.18-.12.37-.17.55-.11.4-.23.8-.38,1.2-7.75,22.18-11.97,45.12-12.52,68.19-.52,18.06,1.19,36.64,5.1,55.33.56,2.65,1.16,5.3,1.84,8,.07.27.13.54.19.81,4.65,19,11.72,38.67,21.01,58.47.82,1.72,1.68,3.53,2.58,5.3,3.89,8.05,8.09,15.95,12.65,23.87,2.6,4.51,3.22,9.89,1.72,14.87-1.5,4.98-4.99,9.12-9.65,11.45-16.32,8.14-29.82,44.04-23.47,79.9,1.58,9.09,4.32,17.38,8.11,24.69.14.26.27.53.39.79,3,5.6,6.61,10.62,10.75,14.93,7.08,7.08,15.55,13.83,24.91,19.8.45.29.89.59,1.32.92Zm-.96-.6c.14.08.27.17.4.25-.15-.1-.28-.18-.4-.25Z"/>
    <path class="cls-4" d="m65.93,1860.39c17.85,50,53.23,93.74,107.57,103.68,6.48,1.36,5.33,11.06-1.31,10.86-62.03,2.35-116.14-43.85-140.38-98.38-12.19-24.02,23.41-40.91,34.12-16.16h0Z"/>
    <path class="cls-4" d="m378.84,1812.04c-1.4-20.61-3.57-42.72-7.97-62.93-4.11-20.65-11.08-41.44-18.81-60.95-8.24-20.15-18.23-40.27-27.99-59.86-2.2-4.19-4.33-8.46-6.37-12.78-3.11-6.59,5.95-12.32,10.54-6.6,34.43,42.37,65.62,91.47,78.99,145.87,4.71,18.39,7.71,37.24,9.35,56.09,1.15,26.23-36.94,27.52-37.73,1.15h0Z"/>
    <path class="cls-4" d="m26.48,1817.62c-1.54,0-3.1-.3-4.6-.94-5.96-2.54-8.74-9.44-6.2-15.41,49.54-116.15,210.98-176.85,352.5-132.55,6.19,1.94,9.64,8.52,7.7,14.71-1.94,6.19-8.54,9.63-14.71,7.7-130.54-40.85-278.88,13.8-323.89,119.36-1.91,4.46-6.25,7.14-10.81,7.14Z"/>
    <g class="cls-8">
      <path class="cls-4" d="m463.67,1500.99c-27.6,53.81-76.4,96.38-133.46,116.41,28.4,49.27,51.67,101.49,69.31,155.55,13.77-78.99,32.04-157.2,54.69-234.11l9.46-37.85Z"/>
    </g>
    <g class="cls-8">
      <path class="cls-4" d="m335.05,1962.29c-6.53,23.5-23.11,43.35-43.1,57.32-19.99,13.97-43.27,22.53-66.82,28.86-34.84,9.38-71.64,14.18-107.05,7.27-35.41-6.91-69.39-26.73-87.65-57.85.38,15.23,8.33,29.28,17.8,41.21,36.9,46.44,98.32,68.52,157.64,69.11,59.32.59,117.19-17.88,172.09-40.34-29.03-22-47.46-57.38-48.85-93.78l5.95-11.8Z"/>
    </g>
    <g class="cls-8">
      <path class="cls-4" d="m39.39,1627.05c-8.4,21.01-7.6,44.45-5.9,67.02,3.91,52.08,12.34,105.21,38.15,150.62,27.47,48.34,72.73,84.33,121.17,111.64-2.55,11.59-18.61,12.96-30.16,10.22-20.2-4.79-39.35-13.95-55.74-26.68-29.91-23.22-49.63-57.16-64.76-91.87-19.43-44.58-32.49-95.46-16.86-141.51l14.1-79.44Z"/>
    </g>
  </g>
  <g class="cls-2">
    <ellipse class="cls-4" cx="897.17" cy="3098.58" rx="816.46" ry="101.33"/>
  </g>
  <path class="cls-5" d="m1539.63,2988.91c-.33,2.91-.7,5.82-1.27,8.64-15.26,86.22-121.16,117.03-311.78,93.32-86.32-10.75-205.65-23.48-237.11-89.04-62.79-130.84,1.32-395.61-6.15-565.2v-.33s-34.66,4.13-77.68,4.13-77.72-4.13-77.72-4.13c-.05,1.36-.09,2.82-.14,4.18-6.39,169.77,56.31,431.49-6.06,561.35-31.47,65.56-150.75,78.29-237.07,89.04-190.86,23.72-296.76-7.14-311.83-93.6-.52-2.72-.94-5.54-1.22-8.36-11.04-105.34,143.1-154.27,143.1-154.27,0,0-33.63-223.59-55.79-425.29-11.83-107.78-12.07-220.35-5.17-330.57,0-.42.05-.89.09-1.36.66-10.43,1.36-20.85,2.16-31.28,7.51-100.03,20.66-197.62,36.02-287.37.28-1.74.56-3.48.89-5.21,13.24-76.83,28.04-147.79,42.36-209.59,14.79-64.01,28.98-118.11,40.25-158.55,8.45-30.29,15.22-52.97,19.35-66.36,2.77-9.2,4.37-14.09,4.37-14.09h812.74s.89,2.72,2.54,8.03c3.71,11.93,11.32,36.91,21.13,72.37,9.44,33.86,20.95,77.35,33.16,128.16,6.67,27.8,13.52,57.81,20.38,89.7,13.57,63.12,27.05,133.47,38.65,208.23,12.26,79.18,22.45,163.29,28.46,249.09.24,3.33.47,6.72.66,10.05.05.38.05.7.09,1.08,7.37,112.52,7.37,227.53-4.74,337.66-22.17,201.71-55.7,425.29-55.7,425.29,0,0,154.04,48.94,143.05,154.27Z"/>
  <g class="cls-8">
    <path class="cls-4" d="m821.72,3001.83c-31.48,65.54-150.76,78.27-237.08,89.01-190.85,23.72-296.75-7.1-311.85-93.58,156.23,59.21,431.64,25.4,478.73-49.73,60.98-97.28,70.87-194.5-23.98-315.71-94.79-121.15-102.14-279.36-102.14-279.36,45.32,31.83,138.54,66.41,202.36,88-6.39,169.77,56.32,431.49-6.03,561.36Z"/>
  </g>
  <g class="cls-8">
    <path class="cls-4" d="m1538.35,2997.57c-15.26,86.23-121.15,117-311.75,93.27-86.33-10.75-205.66-23.47-237.13-89.01-62.81-130.83,1.32-395.6-6.13-565.21,52.82-15.77,150.6-48,202.11-84.15,0,0,25.95,113.75-84.5,269.22-89.12,125.46-95.6,225.27-34.62,322.5,43.24,68.99,300.3,97.33,472.04,53.38Z"/>
  </g>
  <path class="cls-4" d="m451.93,1500.99c-39.59,247.74-85.7,496.33-83.02,747.94.35,39.99,2.18,84.92,5.84,124.74,14.61,153.2,36.7,305.85,58.58,458.16,0,0,2.32,15.72,2.32,15.72-17.58,5.52-36.84,12.67-53.46,21.25-57.97,28.41-116.06,82.13-82.57,149.88,47.36,84.64,230.46,59.93,313.66,49.57,54.95-7.67,115.73-14.99,162.42-43.8,13.55-8.91,23.84-19.07,29.93-32.88,15.99-35.15,21.16-73.86,23.78-112.2,7.93-148.5-25.03-294.33-20.36-443.88l.77-20.12c31.37,3.81,64.1,6.19,95.8,6.14,31.69.05,64.44-2.37,95.8-6.14,0,0,.77,20.12.77,20.12,5.83,163.58-36.45,324.18-15.94,486.47,4.17,26.65,10.34,53.72,23.47,77.41,22.25,32.81,63.61,44.51,102.41,54.39,27.82,6.5,56.66,10.72,85.83,14.49,84.33,10.21,174.26,22.15,255.79-4.54,25.34-8.94,46.88-23.96,57.87-45.03,10.74-21.02,13.14-48.07,3.8-70.38-20.43-47.94-76.53-78.28-124.56-95.68,0,0-15.27-5.07-15.27-5.07l2.32-15.72c23.48-167.8,49.67-335.77,62.1-504.82,6.52-112.18,2.28-225.02-8.75-336.92-17.86-168.44-51.02-334.62-77.82-501.84-.53-3.46,1.85-6.69,5.32-7.22,2.93-.45,5.7,1.21,6.8,3.82,43.54,105.87,65.96,218.81,83.45,331.55,32.91,225.9,44.79,456.5,11.84,683.26-13.69,112.85-28.99,225.3-45.6,337.77l-12.95-20.79c15.72,5.3,29.2,11.22,43.73,18.44,43.03,22.07,85.25,52.56,104.45,99.19,20.27,48.71,3.55,110.86-39.67,141.62-39.43,29.26-90.21,37.3-136.67,40.51-60.72,3.66-121.39-2.9-180.97-10.71-29.66-3.84-59.63-8.17-89.61-15.17-46.87-11.58-97.76-27.83-125.86-71.2-12.39-20.99-19.32-45.17-24.68-68.71-30.69-170,17.6-343.53,11.49-513.43,0,0,21.05,17.91,21.05,17.91-13.71,1.49-26.68,2.42-40.02,3.13-40.09,2.09-79.74,1.07-119.79-3.13,0,0,21.05-17.91,21.05-17.91-9.2,162.19,62.35,444.58-13.19,582.14-42.71,65.29-144.98,76.07-215.48,86.38-102.15,12.6-292.84,37.59-351.89-69.43-48.12-99.53,34.47-175.54,120.31-211.04,7.33-3.1,14.22-5.84,22.44-8.57l-12.95,20.79c-16.44-111.32-31.59-222.61-45.19-334.29-8.64-69.63-16.53-140.87-19.46-211.13-5.66-155.5,5.16-311.55,30.22-465.03,17.8-111.43,42.6-221.83,78.14-328.97,1.11-3.3,4.7-5.08,8-3.96,2.95,1,4.68,3.96,4.22,6.94h0Z"/>
  <path class="cls-4" d="m1232.17,2701.64c-66.82,0-153.54-12.59-264.77-48.87-9.12-2.97-14.1-12.78-11.13-21.9,2.97-9.12,12.79-14.11,21.91-11.13,329.93,107.63,426.58-3.45,427.51-4.58,6.06-7.34,16.96-8.51,24.36-2.53,7.41,5.98,8.69,16.72,2.79,24.2-2.95,3.75-53.55,64.83-200.68,64.83Z"/>
  <path class="cls-4" d="m552.66,2709.7c-70.25,0-137.75-12.6-181.08-50.8-7.19-6.34-7.89-17.32-1.54-24.52,6.34-7.2,17.33-7.89,24.52-1.54,109.94,96.94,426.64-2.5,429.82-3.52,9.17-2.93,18.91,2.13,21.83,11.27,2.92,9.14-2.13,18.91-11.27,21.83-8.98,2.87-150.44,47.28-282.28,47.28Z"/>
  <g>
    <g>
      <path class="cls-5" d="m1617.71,963.92h0c-8.11.02-14.71-6.53-14.73-14.64l-1.29-423.06c-.02-8.11,6.53-14.71,14.64-14.73h0c85.1-.26,154.29,68.51,154.55,153.61l.44,144.26c.26,85.1-68.51,154.29-153.61,154.55Z"/>
      <path class="cls-4" d="m1617.67,967.32c-9.94,0-18.05-8.07-18.08-18.02l-1.29-423.06c-.01-4.83,1.85-9.37,5.25-12.8,3.4-3.43,7.94-5.32,12.77-5.34h.49c86.61,0,157.2,70.32,157.46,156.99l.44,144.26c.26,86.83-70.16,157.69-156.99,157.96h-.05Zm-.86-452.43c-.16,0-.31,0-.47,0-3.01,0-5.85,1.19-7.97,3.33-2.13,2.14-3.3,4.98-3.29,8l1.29,423.06c.02,6.22,5.09,11.26,11.3,11.26h.03c83.09-.25,150.48-68.06,150.23-151.15l-.44-144.26c-.26-82.93-67.81-150.23-150.69-150.23Z"/>
    </g>
    <g class="cls-8">
      <path class="cls-4" d="m1771.12,741.72l.22,67.66c.25,85.07-68.52,154.28-153.64,154.57-8.11.03-14.7-6.57-14.73-14.67l-.38-112.46c2.29,5.12,7.44,8.64,13.39,8.67l10.03-.06c67.25-.19,124.34-43.47,145.11-103.71Z"/>
    </g>
    <path class="cls-4" d="m1617.67,982.8c-18.46,0-33.51-14.99-33.56-33.46l-1.29-423.06c-.06-18.51,14.95-33.61,33.45-33.66h.54c95.13,0,172.66,77.23,172.95,172.43l.44,144.26c.29,95.37-77.06,173.2-172.43,173.49h-.1Zm2.91-452.38l1.27,414.55c72.61-2.45,130.83-62.4,130.61-135.55l-.44-144.26c-.23-73.15-58.81-132.75-131.44-134.74Z"/>
    <g>
      <path class="cls-5" d="m219.92,515.76h0c8.11-.02,14.71,6.53,14.73,14.64l1.29,423.06c.02,8.11-6.53,14.71-14.64,14.73h0c-85.1.26-154.29-68.51-154.55-153.61l-.44-144.26c-.26-85.1,68.51-154.29,153.61-154.55Z"/>
      <path class="cls-4" d="m220.81,971.58c-41.88,0-81.28-16.25-110.99-45.78-29.83-29.65-46.33-69.15-46.46-111.21l-.44-144.26c-.13-42.06,16.13-81.66,45.78-111.49,29.66-29.83,69.15-46.34,111.21-46.47h.05c4.81,0,9.33,1.87,12.74,5.26,3.43,3.4,5.32,7.94,5.34,12.77l1.29,423.06c.01,4.83-1.85,9.37-5.26,12.8-3.4,3.43-7.93,5.32-12.77,5.34h-.5Zm-.88-452.43h0c-40.25.12-78.05,15.91-106.42,44.46-28.38,28.55-43.93,66.44-43.81,106.69l.44,144.26c.12,40.25,15.91,78.04,44.47,106.42,28.44,28.26,66.14,43.81,106.21,43.81.16,0,.32,0,.48,0,3.02,0,5.85-1.19,7.98-3.33,2.13-2.14,3.3-4.98,3.29-8l-1.29-423.06c0-3.02-1.19-5.85-3.34-7.98-2.13-2.12-4.96-3.28-7.96-3.28h-.03Z"/>
    </g>
    <g class="cls-8">
      <path class="cls-4" d="m235.62,836.1l.35,117.36c.03,8.11-6.57,14.7-14.67,14.74-44.66.12-84.99-18.76-113.24-49.07-25.51-27.37-41.16-64.11-41.29-104.52l-.19-60.79c24.32,53.26,78.25,90.25,140.65,90.07l15.44-.05c5.64-.03,10.42-3.16,12.96-7.74Z"/>
    </g>
    <path class="cls-4" d="m220.81,987.07c-46,0-89.27-17.84-121.91-50.28-32.77-32.57-50.89-75.95-51.03-122.14l-.44-144.26c-.15-46.2,17.71-89.69,50.28-122.46,32.57-32.77,75.95-50.89,122.15-51.03h.11c8.92,0,17.32,3.46,23.65,9.76,6.36,6.32,9.88,14.74,9.9,23.71l1.29,423.06c.03,8.97-3.44,17.41-9.76,23.76-6.32,6.36-14.74,9.88-23.7,9.9h-.55Zm-5.02-452.35c-34.54,1.15-66.83,15.2-91.3,39.82-25.46,25.61-39.42,59.61-39.31,95.73l.44,144.26c.11,36.12,14.28,70.03,39.9,95.49,24.62,24.47,56.99,38.32,91.54,39.26l-1.27-414.56Z"/>
    <g class="cls-8">
      <path class="cls-4" d="m1383.01,1339.48c-15.26,16.11-31.04,31.42-47.39,45.88-16.3,14.46-33.06,28.08-50.34,40.9-123.84,91.67-272.1,139.57-428.63,126.89-116.33-9.44-224.39-51.33-318.27-117.74-21.74-15.4-42.74-32.12-62.88-50.02-14.89-13.24-29.35-27.14-43.35-41.66,20.52-8.5,41.47-16.77,62.7-24.7,2.77-9.2,4.37-14.09,4.37-14.09h34.19c11.22-3.99,22.59-7.89,33.95-11.74l-2.4,11.74h695.61l-2.4-11.74c11.36,3.85,22.73,7.75,33.95,11.74h19.82s.89,2.72,2.54,8.03c23.2,8.55,46.12,17.33,68.52,26.49Z"/>
    </g>
    <g>
      <circle class="cls-5" cx="918.9" cy="739.84" r="720.93"/>
      <path class="cls-4" d="m919.96,1464.2c-16.68,0-33.42-.57-50.23-1.71-193.03-13.13-369.38-100.65-496.59-246.42-127.2-145.78-190.03-332.36-176.89-525.39,13.13-193.03,100.65-369.38,246.43-496.59C588.46,66.89,775.05,4.04,968.07,17.2c193.03,13.13,369.38,100.65,496.59,246.42,127.2,145.78,190.03,332.36,176.89,525.39-13.13,193.03-100.65,369.38-246.43,496.59-133.09,116.13-300.2,178.6-475.16,178.6Zm-2.11-1441.93c-173.34,0-338.86,61.88-470.72,176.93-144.41,126.01-231.11,300.72-244.11,491.94-13.01,191.22,49.22,376.06,175.24,520.47,126.01,144.41,300.72,231.11,491.93,244.12,16.63,1.13,33.24,1.69,49.76,1.69,173.34,0,338.86-61.88,470.72-176.93,144.41-126.01,231.11-300.72,244.11-491.94,13.01-191.22-49.22-376.06-175.24-520.47-126.01-144.41-300.72-231.11-491.93-244.12-16.63-1.13-33.24-1.69-49.76-1.69Z"/>
    </g>
    <g class="cls-8">
      <path class="cls-4" d="m1638.05,688.75c2.37,32.83,2.43,66.23.13,100.04-27.08,397.22-371,697.33-768.22,670.34-397.22-27.08-697.33-371-670.34-768.22.77-11.42,1.81-22.84,3.13-34.06,24.67,353.43,306.75,643.44,670.21,668.18,385.8,26.22,721.26-256.09,765.1-636.28Z"/>
    </g>
    <path class="cls-4" d="m919.99,1479.68c-17.03,0-34.14-.58-51.3-1.75-197.15-13.41-377.28-102.8-507.2-251.69-129.93-148.89-194.09-339.47-180.67-536.62,13.41-197.15,102.8-377.28,251.69-507.2C581.4,52.5,771.98-11.67,969.12,1.75c197.15,13.41,377.28,102.8,507.2,251.69,129.93,148.89,194.09,339.47,180.67,536.62-13.41,197.15-102.8,377.28-251.69,507.2-135.93,118.62-306.61,182.42-485.32,182.42Zm-2.11-1441.93c-169.6,0-331.55,60.54-460.55,173.11-141.3,123.29-226.12,294.23-238.85,481.32-12.73,187.09,48.16,367.94,171.46,509.24,123.29,141.3,294.23,226.12,481.32,238.85,16.27,1.11,32.53,1.66,48.68,1.66,169.6,0,331.55-60.54,460.55-173.11,141.3-123.3,226.12-294.23,238.85-481.32,12.73-187.09-48.16-367.94-171.46-509.24-123.29-141.3-294.23-226.12-481.32-238.85-16.27-1.11-32.53-1.66-48.68-1.66Z"/>
    <path class="cls-4" d="m1634.61,807.1c-7.45,140.88-60.1,269.25-144.03,373.33-62.92,78.03-311.47,207.27-609.25,194.21-276.1-12.11-519.42-172.53-573.76-256.76-72.49-112.35-111.3-245.56-103.85-386.44,19.71-372.8,348.18-510.42,743.33-489.52,395.15,20.89,707.27,192.38,687.56,565.18Z"/>
    <g class="cls-1">
      <ellipse class="cls-5" cx="1404.76" cy="755.74" rx="127.58" ry="92.45" transform="translate(346.19 1949.02) rotate(-76.7)"/>
    </g>
    <g class="cls-1">
      <ellipse class="cls-5" cx="1278.33" cy="1002.13" rx="58.56" ry="50.25" transform="translate(-118.83 1830.58) rotate(-68.76)"/>
    </g>
    <g class="cls-3">
      <path class="cls-6" d="m1513.85,451.95c83.05,88.08,128.65,205.4,120.75,355.13-7.45,140.91-60.12,269.27-144,373.35-62.94,78.03-311.51,207.26-609.28,194.23-105.14-4.58-205.5-30.71-292.51-65.98,366.38,8.22,669.21-150.52,747.24-247.3,106.53-132.1,173.34-295.05,182.77-473.81,2.56-47.78.72-92.96-4.97-135.62Z"/>
    </g>
    <path class="cls-4" d="m1590.3,495.78c-4.47,0-8.96-1.59-12.55-4.83l-1.92-1.72-1.48-2.26c-112.19-176.32-341.22-286.15-628.35-301.33-288.75-15.25-527.99,72.98-656.45,242.08l-1.41,1.66c-7.17,7.56-19.11,7.89-26.69.72-7.24-6.86-7.85-18.09-1.61-25.68,136.23-178.92,387.01-272.39,688.15-256.48,299.25,15.83,539.04,131.87,657.96,318.37,4.73,7.02,4.32,16.63-1.59,23.2-3.74,4.15-8.89,6.27-14.05,6.27Zm-1316.73-80.2l.86.82-.86-.82Z"/>
    <g class="cls-1">
      <path class="cls-5" d="m352.67,973.29s-96.02-373.88,109.94-509.95c205.95-136.08,491.08-120.41,483.45-102.47,0,0-319.73,59.73-456.45,302.78-105.43,187.42-136.93,309.65-136.93,309.65Z"/>
    </g>
  </g>
  <path class="cls-4" d="m824.88,2454.97c-46.69-10.69-90.78-27.97-133.24-49.64-25.03-13.09-49.03-28.16-71.62-45.09-4.2-3.08-5.11-8.99-2.03-13.19,3-4.1,8.68-5.03,12.83-2.29,45.71,28.61,96.2,49.17,148.35,62.54,16.88,4.28,35.16,8.25,52.08,10.46,25.65,4.18,19.33,41.78-6.37,37.22h0Z"/>
  <path class="cls-4" d="m979.91,2417.7c52.58-7.7,104.77-24.07,152.83-46.96,16.45-7.62,32.08-16.75,47.58-26.18,4.45-2.71,10.26-1.29,12.96,3.16,2.56,4.21,1.4,9.64-2.48,12.51-30.13,22.59-62.75,41.87-97.05,57.45-25.72,11.9-52.37,21.86-79.59,29.96-9.26,2.68-18.08,5.14-28.23,7.32-10.2,2.2-20.26-4.28-22.46-14.48-2.42-10.87,5.36-21.63,16.42-22.78h0Z"/>
  <path class="cls-4" d="m411.32,2819.74c55.83-14.78,116.71-8.67,168.96,15.46,17.28,8.41,32.95,19.83,46.08,33.13.85.86.84,2.25-.02,3.1-.73.72-1.83.82-2.67.33-31.81-17.11-66.06-25.33-101.57-27.29-34.29-1.72-69.92,1.52-104.08,5.05-18.81,2.57-24.76-24.16-6.7-29.78h0Z"/>
  <path class="cls-4" d="m1393.16,2849.04c-64.97-7.81-134.81-12.1-193.53,22.63-1.98,1.34-4.44-1.53-2.71-3.26,49.33-53.13,134.95-66.83,203.11-48.2,17.53,5.77,11.27,31.56-6.88,28.83h0Z"/>
  <g class="cls-8">
    <path class="cls-4" d="m634.48,2358.26s143.47,23.08,254.28,23.08,288.16-23.08,288.16-23.08c0,0-106.48,81.59-276.25,78.07-174.02-3.6-266.19-78.07-266.19-78.07Z"/>
  </g>
  <g class="cls-8">
    <path class="cls-4" d="m1465.74,2127.28c-70.34,8-165.47,12.79-237.7-6.15v36.34c0,50.26-41.08,91.39-91.3,91.39h-498.77c-50.26,0-91.35-41.12-91.35-91.39v-29c-69.11,10.5-150.22,5.05-210.41-2.24-3.47-.44-6.85-1.05-10.15-1.85,1.05-8.22,2.15-16.52,3.3-24.91,6.28-46.84,13.62-95.74,22.19-146.22,55.32,2.55,130.62,4.13,195.08-1.45v-65.16c0-50.22,41.08-91.34,91.35-91.34h498.77c40.11,0,74.43,26.27,86.6,62.43,3.03,9.09,4.7,18.8,4.7,28.91v61.07c63.97,9.27,147.67,8.83,212,6.33,8.52,50.22,15.82,98.86,22.06,145.39,1.27,9.36,2.46,18.67,3.65,27.86Z"/>
  </g>
  <path class="cls-5" d="m638.06,2054.06c-69.9,28.3-178.06,22.37-251.81,13.45-44.23-5.35-75.28-46.17-68.76-90.24h0c5.95-40.22,41.35-69.47,81.96-67.56,68.98,3.23,172.44,4.75,237.96-9.79"/>
  <g class="cls-8">
    <path class="cls-4" d="m638.09,2054.05c-69.89,28.3-178.11,22.41-251.84,13.46-44.21-5.32-75.27-46.15-68.77-90.26,1.38-9.36,4.35-18.16,8.7-26.09,11.77,21.8,33.56,37.71,60.07,40.93,73.63,8.9,181.64,14.84,251.53-13.35l.31,75.32Z"/>
  </g>
  <path class="cls-4" d="m499.1,2093.75c-40.45,0-80.67-3.34-115.11-7.51-26.46-3.2-49.93-16.64-66.1-37.83-16.2-21.23-22.97-47.48-19.06-73.91,7.4-50.06,51-86.01,101.51-83.66,101.57,4.75,184.32,1.43,232.99-9.36,9.86-2.18,34.35-2.27,48.76,44.06,14.6,46.94,12.95,125.81-36.95,146-41.03,16.61-93.73,22.2-146.05,22.2Zm-103.41-165.26c-29.79,0-55.11,21.7-59.52,51.53-2.4,16.27,1.76,32.43,11.73,45.49,9.94,13.03,24.37,21.28,40.63,23.25,105.42,12.76,191.51,8.41,242.46-12.21h0c14.84-6.01,19.22-30.08,20.41-40.15,4.22-35.76-6.59-69.05-13.45-77.3-66.51,13.93-166.55,12.86-239.38,9.45-.97-.04-1.93-.07-2.88-.07Z"/>
  <path class="cls-5" d="m1172.68,2054.06c69.9,28.3,178.06,22.37,251.81,13.45,44.23-5.35,75.28-46.17,68.76-90.24h0c-5.95-40.22-41.35-69.47-81.96-67.56-68.98,3.23-172.44,4.75-237.96-9.79"/>
  <g class="cls-8">
    <path class="cls-4" d="m1424.51,2067.5c-73.78,8.95-181.95,14.84-251.84-13.46l.31-75.16c69.89,28.19,177.85,22.26,251.53,13.35,26.5-3.22,48.35-19.24,60.12-41.04,4.25,7.88,7.27,16.68,8.65,26.04,6.5,44.11-24.56,84.94-68.77,90.26Z"/>
  </g>
  <path class="cls-4" d="m1311.65,2093.75c-52.32,0-105.01-5.59-146.05-22.2h0c-49.89-20.19-51.54-99.06-36.95-146,14.42-46.33,38.92-46.24,48.76-44.06,48.68,10.8,131.43,14.12,232.99,9.36,50.45-2.38,94.11,33.6,101.51,83.65,3.91,26.43-2.86,52.68-19.06,73.91-16.17,21.19-39.65,34.63-66.1,37.83-34.43,4.16-74.66,7.51-115.11,7.51Zm-138.85-174.64c-6.86,8.25-17.67,41.54-13.45,77.3,1.19,10.07,5.56,34.13,20.41,40.15h0c50.94,20.62,137.05,24.96,242.46,12.21,16.26-1.97,30.68-10.22,40.63-23.25,9.97-13.07,14.13-29.22,11.73-45.49-4.55-30.79-31.27-52.82-62.4-51.47-72.83,3.42-172.88,4.48-239.38-9.45Z"/>
  <path class="cls-5" d="m1199.69,1848.97v247.03c0,45.84-37.51,83.35-83.3,83.35h-454.92c-45.85,0-83.3-37.51-83.3-83.35v-247.03c0-45.79,37.45-83.3,83.3-83.3h454.92c36.58,0,67.9,23.95,79,56.95,2.76,8.29,4.3,17.14,4.3,26.35Z"/>
  <g class="cls-8">
    <path class="cls-4" d="m1199.69,1848.97v247.03c0,45.84-37.51,83.35-83.3,83.35h-454.92c-45.85,0-83.3-37.51-83.3-83.35v-83.15c78.49,43.44,262.26,114.99,346.71,72.44,53.36-26.88,53.36-112.8,53.36-112.8,0,0,111.75-82.11,139.59-14.66,54.85,132.89,70.2-109.21,77.56-135.22,2.76,8.29,4.3,17.14,4.3,26.35Z"/>
  </g>
  <path class="cls-4" d="m1116.38,2198.2h-454.93c-56.34,0-102.18-45.84-102.18-102.18v-247.05c0-56.34,45.84-102.18,102.18-102.18h454.93c56.34,0,102.17,45.84,102.17,102.18v247.05c0,56.34-45.83,102.18-102.17,102.18Zm-454.93-413.65c-35.53,0-64.43,28.9-64.43,64.43v247.05c0,35.52,28.9,64.43,64.43,64.43h454.93c35.52,0,64.43-28.9,64.43-64.43v-247.05c0-35.52-28.9-64.43-64.43-64.43h-454.93Z"/>
  <circle class="cls-7" cx="1050.08" cy="1972.5" r="71.84" transform="translate(-1065.16 2693.06) rotate(-80.78)"/>
  <g class="cls-1">
    <path class="cls-5" d="m1121.93,1972.49c0,6.06-.75,11.95-2.15,17.57-7.86-31.15-36.07-54.26-69.68-54.26s-61.82,23.11-69.68,54.26c-1.41-5.62-2.15-11.51-2.15-17.57,0-39.68,32.16-71.84,71.84-71.84s71.84,32.16,71.84,71.84Z"/>
  </g>
  <g class="cls-8">
    <path class="cls-4" d="m1121.91,1972.49c0,39.7-32.18,71.84-71.84,71.84s-71.84-32.13-71.84-71.84c0-6.65.92-13.15,2.61-19.24,8.44,30.29,36.28,52.55,69.23,52.55s60.78-22.26,69.23-52.55c1.69,6.09,2.61,12.59,2.61,19.24Z"/>
  </g>
  <path class="cls-4" d="m1050.08,2058.5c-47.42,0-86-38.58-86-86s38.58-86,86-86,85.99,38.58,85.99,86-38.57,86-85.99,86Zm0-143.68c-31.81,0-57.68,25.88-57.68,57.68s25.88,57.68,57.68,57.68,57.68-25.88,57.68-57.68-25.87-57.68-57.68-57.68Z"/>
  <path class="cls-4" d="m846.49,2198.2c-10.43,0-18.87-8.45-18.87-18.88v-119.21c0-29.76-14.2-58.21-37.97-76.11-33.2-24.99-53.01-64.71-53.01-106.26v-112.07c0-10.42,8.45-18.88,18.87-18.88s18.87,8.45,18.87,18.88v112.07c0,29.76,14.2,58.21,37.97,76.1,33.2,24.99,53.01,64.72,53.01,106.27v119.21c0,10.42-8.45,18.88-18.87,18.88Z"/>
</svg>