<?xml version="1.0" encoding="UTF-8"?>
<svg id="Layer_1" data-name="Layer 1" xmlns="http://www.w3.org/2000/svg" viewBox="0 0 2650.39 3812.31">
  <defs>
    <style>
      .cls-1 {
        fill: #fff;
      }

      .cls-2 {
        opacity: .35;
      }

      .cls-2, .cls-3, .cls-4, .cls-5, .cls-6 {
        fill: none;
      }

      .cls-7 {
        fill: #121a27;
      }

      .cls-3 {
        opacity: .3;
      }

      .cls-8 {
        fill: #ffd400;
      }

      .cls-4 {
        opacity: .5;
      }

      .cls-9 {
        fill: #390176;
      }

      .cls-10 {
        fill: #371b45;
      }

      .cls-11 {
        fill: #3ba1da;
      }

      .cls-5 {
        opacity: .2;
      }

      .cls-6 {
        opacity: .25;
      }
    </style>
  </defs>
  <g class="cls-5">
    <ellipse class="cls-10" cx="1058.73" cy="3659.14" rx="1021.36" ry="153.17"/>
  </g>
  <g>
    <path class="cls-1" d="m1699.05,1709.85v841.38c0,112.07-89.69,202.86-200.4,202.86h-876.28c-110.59,0-200.34-90.79-200.34-202.86v-841.38c0-47.18,15.98-90.79,42.85-125.2.23-.35.52-.64.75-1,36.72-46.66,93.23-76.55,156.74-76.55h876.28c50.78,0,97.04,19.05,132.36,50.46,1.74,1.52,3.42,3.11,5.09,4.68,38.73,36.99,62.94,89.45,62.94,147.59"/>
    <path class="cls-10" d="m1498.69,2781.08h-876.28c-125.18,0-227.03-103.1-227.03-229.82v-841.36c0-126.72,101.85-229.82,227.03-229.82h876.28c125.19,0,227.03,103.1,227.03,229.82v841.36c0,126.72-101.85,229.82-227.03,229.82Zm-876.28-1246.99c-95.77,0-173.68,78.87-173.68,175.81v841.36c0,96.94,77.91,175.82,173.68,175.82h876.28c95.77,0,173.68-78.88,173.68-175.82v-841.36c0-96.94-77.91-175.81-173.68-175.81h-876.28Z"/>
    <path class="cls-1" d="m219.16,2446.61s-65.83,207.76,150.53,252.4c38.95,8.05,76.26,4.79,109.51-7.57,143.59-53.51,213-277.6,24.48-501.81-9.95-11.87-20.64-23.74-32.09-35.61-.48-.49-.96-.97-1.44-1.45,0,0,10.02-16.8,42.04-40.41,20.1-14.85,48.96-32.41,89.36-50.18l77.56-240.19.13-.42,97.59-301.89s-76.88,26.38-175.08,71.43c-41.42,18.95-86.75,41.3-131.6,66.43,0,0-21.32,11.59-54.65,32.56-170.68,107.52-655.72,460.72-196.33,756.72"/>
    <g class="cls-6">
      <path class="cls-10" d="m624.69,1866.54l-23.14,195.43c-104.86,46.06-131.42,90.56-131.42,90.56.5.5.99,1.01,1.44,1.51-28.11-23.47-65.82-50.31-105.41-65.35,0,0,73-40.58,97.35-69.59,105.03-125.15,77.99-199.42,176.73-186.67,15.51,2.01-5.28,12.64-15.53,34.12"/>
    </g>
    <path class="cls-10" d="m411.37,2730.33c-15.47,0-31.19-1.59-47-4.85-72.46-14.96-124.26-48.57-153.96-99.93-35.98-62.2-28.49-132.78-21.68-166.82C59.53,2370.95-3.88,2269.88.18,2158.1c10.09-277.98,439.03-514.64,457.28-524.58,151.26-84.49,304.33-137.38,310.77-139.59,13.94-4.78,29.09,2.78,33.82,16.9,4.73,14.12-2.74,29.45-16.69,34.25-1.54.53-155.17,53.65-302.38,135.87-4.45,2.43-420.58,232.04-429.49,479.19-3.45,95.79,57.1,184.5,179.98,263.68l17.36,11.19-6.29,19.84c-.23.73-24.49,80.9,12.08,143.73,21.75,37.37,61.58,62.26,118.4,73.98,77.94,16.09,150.54-19.01,189.45-91.6,48.94-91.29,44.85-246.81-113.38-409.53l-14.55-14.97,10.75-17.96c2.8-4.67,30.01-46.96,122.99-91.78,13.31-6.41,29.22-.69,35.55,12.77,6.33,13.47.68,29.58-12.62,35.99-46.09,22.21-72.74,43-86.88,56.35,161.49,177.39,161.16,350.2,105.04,454.88-41.92,78.2-117.33,123.6-200,123.61Z"/>
    <path class="cls-10" d="m234.86,2427.91c8.19,4.85,16.8,10.05,25.15,15.32l25.27,15.98,51.35,32.66c-20.83-.02-41.32-3.58-61.32-8.19-9.99-2.37-19.92-4.99-29.7-8.03-9.85-3.02-19.34-6.32-29.07-10.37l18.32-37.38Z"/>
    <g class="cls-6">
      <path class="cls-10" d="m369.67,2699.03c-213.78-44.13-152.02-247.57-150.58-252.4l.06-.06s37.13,201.39,230.38,146.14c123.6-35.4,113.14-211.71,89.54-334.17,2.09-4.84,3.79-9.86,5.16-14.96h.07c170.58,256.9,18.95,495.4-174.64,455.45"/>
    </g>
    <path class="cls-10" d="m74.74,2341.63c-14.7,0-26.64-12.04-26.67-26.93-.17-66.95,51.78-133.26,135.55-173.06,92.53-43.96,233.18-55.6,350.42,43.51,11.31,9.56,12.82,26.59,3.37,38.03-9.44,11.44-26.26,12.98-37.57,3.42-98-82.85-215.9-72.95-293.56-36.07-62.83,29.85-104.98,79.7-104.87,124.03.04,14.91-11.88,27.03-26.61,27.07h-.07Z"/>
    <path class="cls-10" d="m463.75,2168.95c-6.82-7.48-14.56-15.23-22.15-22.61-7.68-7.43-15.55-14.68-23.62-21.76-16.19-14.05-33.09-27.37-51.84-38.49,21.27,4.63,42.19,12.17,62.6,20.7,10.19,4.31,20.31,8.89,30.33,13.73,10.08,4.91,19.81,9.78,30.01,15.51l-25.33,32.91Z"/>
    <path class="cls-1" d="m1450.97,1442.28s245.48,442.93,452.76,242.57c0,0,363.1-40.13,323.42,192.68-87.37,512.53-639.14,381.24-738.2,226.68"/>
    <g class="cls-6">
      <path class="cls-10" d="m2227.17,1877.54c-87.37,512.5-639.18,381.21-738.24,226.65l-37.99-661.91s1.97,3.52,5.62,9.73l97.68,408.02c38.3,159.97,177.76,276.68,340.35,278.4,139.66,1.47,281.43-80.44,330.07-335.68,6.14,21.11,7.42,45.84,2.5,74.79"/>
    </g>
    <path class="cls-10" d="m1826.68,2269.31c-156.26.01-308.13-69.31-360.1-150.41-8.02-12.51-4.5-29.23,7.86-37.35,12.36-8.11,28.88-4.55,36.9,7.96,45.22,70.56,229.24,153.24,403.56,117.02,108.35-22.5,245.92-98.64,285.98-333.6,7.39-43.35-.54-76.85-24.25-102.42-58.06-62.61-200.84-64.72-261.41-59.65-46.96,42.36-99.44,59.48-156.12,50.88-174.46-26.44-325.05-294.85-331.37-306.26-7.21-13-2.64-29.45,10.21-36.75,12.84-7.3,29.1-2.68,36.32,10.32,1.43,2.57,144.14,256.81,292.8,279.29,42.93,6.51,81.61-7.58,118.28-43.02l6.54-6.32,8.99-.99c9.06-1,222.84-23.38,314.61,75.48,35.5,38.24,48.28,88.25,37.99,148.63-35.24,206.74-151.67,340.74-327.83,377.32-32.56,6.76-65.86,9.87-98.93,9.87Z"/>
    <path class="cls-10" d="m1879.02,2266.51c-3.66,0-7.39-.77-10.95-2.4-90.42-41.27-151.72-115.87-177.27-215.72-33.82-132.15,3.05-277.09,42.66-330.92,8.79-11.97,25.51-14.43,37.33-5.52,11.81,8.91,14.26,25.82,5.46,37.78-28.43,38.63-64.03,166.95-33.8,285.11,21.66,84.66,71.31,145.24,147.56,180.04,13.43,6.13,19.41,22.12,13.35,35.71-4.45,9.99-14.17,15.91-24.34,15.91Z"/>
    <path class="cls-1" d="m2026.6,1532.09c-6.82-25.52-12.06-140.77,65.34-135.93,101.03,6.32,46.1,204.25,52.82,249.93"/>
    <path class="cls-10" d="m2144.73,1673.09c-13,0-24.38-9.63-26.35-23.03-2.19-14.9.11-36.9,3.03-64.76,4.9-46.76,13.1-125.02-9.74-152.37-3.48-4.17-9.05-9.05-21.37-9.82-14.58-.9-21.15,4.85-25.27,9.97-18.17,22.55-17.12,75.35-12.68,91.96,3.85,14.4-4.56,29.22-18.78,33.12-14.21,3.9-28.87-4.62-32.72-19.01-5.99-22.43-11.72-97.31,22.83-140.19,17.12-21.25,41.27-31.53,69.91-29.74,23.97,1.5,44.31,11.48,58.83,28.86,37.54,44.96,28.59,130.48,22.05,192.93-2.21,21.15-4.51,43.02-3.32,51.11,2.17,14.75-7.88,28.49-22.45,30.69-1.33.2-2.65.3-3.96.3Z"/>
    <path class="cls-1" d="m2005.23,2101.21c60.5-12.41,191.9-56.81,221.92-223.68,30.02-166.86-148.44-428.17-290.54-428.2-20.59,0-53.98,18.37-56.65,51.39-5.26,65.07,76.29,145.07,76.29,145.07,0,0-189.27,115.59-152.48,251.4,24.48,90.33,78.09,229.31,201.46,204.02"/>
    <g class="cls-6">
      <path class="cls-10" d="m2227.18,1877.49c-30.03,166.9-161.41,211.32-221.96,223.69-123.35,25.29-176.96-113.67-201.43-204.01-2.91-10.64-4.4-21.14-4.64-31.45,30.65,78.81,91.61,157.62,188.73,146.19,117.16-13.79,197.51-114.98,213.41-231.25,3.23-23.61,4.29-48.76.97-75.02,23.46,59.29,34.23,120.11,24.92,171.85"/>
    </g>
    <path class="cls-10" d="m1976.49,2131.24c-68.77,0-149.34-45.7-198.44-226.91-32.8-121.07,82.79-222.93,137.52-263.27-26.68-31.69-66.55-88.73-62.19-142.54,4.02-49.72,50.91-76.19,83.23-76.19h.02c63.8.01,137.05,44.51,200.97,122.08,72.16,87.56,135.95,226.02,115.81,337.97-32.95,183.21-180.82,232.59-242.87,245.31h0c-10.86,2.23-22.28,3.56-34.04,3.56Zm28.74-30.03h.06-.06Zm-68.63-624.88c-8.1,0-28.66,9.31-30.06,26.59-3.44,42.53,49.48,104.98,68.29,123.5l24.78,24.4-29.58,18.09c-1.7,1.04-171.53,106.74-140.53,221.14,37.42,138.08,94.76,200.17,170.44,184.7,63.84-13.09,174.83-56.75,200.97-202.05,14.53-80.78-28.35-201.55-104.29-293.7-52.96-64.28-112.78-102.66-160.02-102.66h0Z"/>
    <path class="cls-10" d="m879.04,3473.83c-4.85,0-9.75-1.34-14.16-4.14-102.51-65.18-253.8-36.27-255.32-35.97-14.46,2.85-28.46-6.68-31.3-21.3-2.83-14.62,6.55-28.8,20.99-31.69,7.03-1.39,173.36-33.47,294,43.23,12.48,7.93,16.24,24.6,8.4,37.23-5.07,8.16-13.74,12.64-22.61,12.64Z"/>
    <path class="cls-1" d="m1516.78,3407.25s76.43-329.17,102.72-579.56c8.22-78.42,12.39-157.73,13.21-236.67.23-21.4.23-42.73-.06-64-.52-51.11-2.43-101.93-5.33-152.16-14.41-246.82-54.54-478.63-92.99-655.35-14.65-66.99-29-126.07-41.69-175.07-25.36-97.65-43.83-155.15-43.83-155.15h-776.45s-17.54,54.63-41.86,147.76c-12.97,49.82-27.85,110.72-43.08,180.18-38.74,177.24-79.15,410.4-93.57,658.62-2.9,49.53-4.69,99.64-5.27,150.04-.23,21.45-.29,42.96-.06,64.53.81,79.13,4.92,158.66,13.14,237.26,26.34,250.39,102.77,579.56,102.77,579.56,0,0-119.91,39.92-147.3,125.25-4.63,14.42-6.6,30.19-4.92,47.25.29,3.16,8.34,126.31,333.05,113.99,137.63-5.21,215.91-31.88,249.44-105.2,11.7-25.74,18.24-80.89,21.77-138.44,3.48-56.15,4.11-128.42,4.11-174.37.17,84.58,3.3,263.22,25.94,312.81,33.52,73.32,127.1,99.99,264.72,105.2,324.65,12.31,317.41-110.84,317.7-113.99,11.76-117.82-152.16-172.5-152.16-172.5m-455.97-176.48s-.23,14.42-.23,37.57c-.06-22.92-.23-37.57-.23-37.57v-413.22h.46v413.22Z"/>
    <g class="cls-3">
      <path class="cls-10" d="m1668.89,3579.76c-.31,3.17-8.36,126.3-333.03,113.99-137.63-5.23-215.9-31.91-249.43-105.23-11.74-25.74-18.24-80.9-21.78-138.44l-3.03-220.72-5.18,220.72c-3.54,57.54-10.05,112.7-21.79,138.44-33.52,73.32-111.8,99.99-249.42,105.23-324.67,12.3-332.72-110.83-333.03-113.99-1.69-17.07.31-32.85,4.92-47.26,11.74,19.55,46.8,47.73,149.73,62.05,167.05,23.19,346.46,2.54,376.9-109.9,22.92-84.62,60.64-539.41-66.33-594.31-196.32-84.93-268.39-153.22-213.8-164.23,27.73-5.6,100.83,17.7,356.91,17.7s329.18-23.3,356.91-17.7c54.59,11-17.48,79.29-213.8,164.23-126.97,54.9-89.24,509.68-66.33,594.31,30.45,112.45,209.85,133.1,376.91,109.9,102.93-14.32,137.98-42.5,149.72-62.05,4.61,14.42,6.62,30.19,4.93,47.26"/>
    </g>
    <path class="cls-10" d="m1550.42,1750.36c11.34,33.24,20.59,66.99,28.77,100.99,8.09,34.02,15.46,68.22,21.35,102.71,11.95,68.93,22.72,138.13,31.24,207.68,8.49,69.54,15.98,139.3,20.11,209.37,4.32,70.04,7.23,140.26,6.59,210.58-.17,140.53-14.15,281.68-36.59,419.74-10.94,69.17-24.08,137.85-37.76,206.35-13.76,68.55-28.5,136.64-44.83,204.81l-15.29-27.63h.01c5.18,1.79,9.19,3.38,13.64,5.19,4.34,1.76,8.59,3.63,12.83,5.54,8.47,3.84,16.76,7.99,24.94,12.46,16.35,8.93,32.2,19.1,47.13,31.09,14.96,11.89,28.92,25.84,40.9,42.07,11.68,16.42,21.44,35.41,25.86,56.33,2.53,10.35,3.23,21.06,3.39,31.64l-.41,7.85-.23,3.92c-.15,2.02.09.42-.08,2.39-.21,3.26-.53,6.48-1.15,9.43-.52,3.05-1.13,6.05-2.07,8.82-6.68,22.93-20.98,40.92-36.75,54.09l-5.91,5.11c-2.03,1.53-4.15,2.84-6.24,4.26l-12.59,8.31c-8.65,4.45-17.34,9.06-26.14,12.88-8.88,3.26-17.76,6.71-26.68,9.74l-26.91,7.13c-35.93,7.72-71.97,12.27-107.7,13.49l-26.81,1.08c-8.94.35-17.79-.11-26.69-.12-17.78-.32-35.56-.2-53.32-1.34-35.53-2-71.28-5.15-107.16-12.67-17.93-3.56-35.86-8.63-53.64-14.84-17.72-6.72-35.28-15.02-51.8-26.22-16.53-11.1-31.55-25.95-43.07-43.26-1.42-2.18-3.05-4.24-4.27-6.53l-3.67-6.89-3.61-6.92c-1.15-2.45-2.17-5.21-3.22-7.82-3.61-10.2-5.99-19.7-7.83-28.98-7.27-37.04-9.88-72.54-12.32-108.32-4.36-71.37-5.3-142.2-4.92-213.25l.1-423.13,23.15,23.44h-.42l23.16-23.44.1,422.49c.41,70.96-.54,141.68-4.85,212.94-2.39,35.71-5.04,71.19-12.14,108.12-1.86,9.27-4.13,18.72-7.54,28.77l-3.15,7.91c-1.12,2.44-2.29,4.57-3.44,6.85-2.36,4.48-4.48,9.08-7.42,13.29-10.68,17.36-24.89,32.9-41.09,44.9-32.72,23.94-69.86,35.44-105.62,42.65-36,6.96-71.75,9.95-107.2,11.49-17.75.61-35.49.6-53.25.91-8.86.31-17.79-.15-26.7-.52l-26.76-1.08c-8.9-.11-17.87-1.38-26.82-2.2l-26.85-2.74-26.87-4.62c-4.48-.8-8.96-1.47-13.43-2.41l-13.39-3.39c-35.53-8.81-71.73-21.75-103.56-47.15-15.66-12.77-30.23-28.98-38.97-50.54-1.19-2.56-2-5.57-2.88-8.45-.93-2.77-1.54-6.14-2.13-9.38-.55-3.78-.52-5.92-.71-8.62l-.39-7.84c.2-10.57.91-21.27,3.47-31.6,4.47-20.87,14.26-39.8,25.94-56.17,11.97-16.19,25.92-30.1,40.86-41.96,14.91-11.97,30.75-22.11,47.07-31.04,8.16-4.45,16.46-8.6,24.9-12.44,4.23-1.91,8.48-3.78,12.81-5.53,4.44-1.81,8.46-3.4,13.62-5.18h.03s-15.3,27.62-15.3,27.62c-16.52-69.04-31.46-137.99-45.34-207.42-13.84-69.38-27.07-138.93-38.11-208.99-10.91-70.04-20.9-140.54-26.5-211.7l-2.38-26.64c-.71-8.89-1.09-17.79-1.64-26.67l-3.07-53.37c-.85-35.6-2.59-71.2-2.21-106.79-.39-71.2,2.73-142.3,7.44-213.2,4.46-70.94,12.19-141.56,21.1-211.94,8.87-70.4,20.06-140.42,32.4-210.18,6.04-34.9,13.17-69.6,21.58-104.01,8.46-34.39,17.98-68.54,29.95-102.07,2.19-6.14,8.89-9.33,14.96-7.1,4.99,1.82,8,6.72,7.7,11.82l-.02.2c-1.05,17.77-3.08,35.3-5.13,52.83l-3.22,26.23-3.63,26.14c-4.77,34.84-10.72,69.43-16.38,104.05-11.45,69.21-21.75,138.6-29.74,208.23-16.13,139.19-26.17,279.09-25.09,418.84-.43,34.95,1.25,69.82,2.03,104.73l2.94,52.25c.53,8.7.89,17.42,1.57,26.11l2.29,26.05c5.36,69.48,15.08,138.75,25.77,208.03,10.9,69.24,22.73,138.45,35.88,207.46,6.54,34.5,13.33,68.97,20.4,103.38,6.96,34.4,14.06,68.92,21.53,103.02l4.58,20.9-19.88,6.73h-.01c-3.07,1.07-7.17,2.66-10.8,4.14-3.74,1.51-7.48,3.17-11.19,4.84-7.42,3.38-14.74,7.03-21.89,10.94-14.29,7.81-27.97,16.6-40.31,26.53-12.44,9.85-23.39,20.97-32.3,32.98-8.58,12.14-15.22,25.13-18.08,38.8-1.76,6.78-2.08,13.79-2.32,20.79l.31,5.36c.1,1.68.17,3.96.29,4.54.39,1.96,1.09,4.77,2.25,7.48,4.49,11.18,13.66,22.26,25.02,31.37,22.96,18.52,53.8,30.44,85.56,38.1l11.92,3.05c4.04.85,8.18,1.44,12.27,2.17l24.58,4.25,25.09,2.54c8.38.76,16.67,1.98,25.18,2.08l25.4,1.01c8.46.35,16.91.8,25.46.49,17.04-.32,34.1-.29,51.13-.87,34.05-1.47,67.84-4.39,100.22-10.66,32.22-6.37,63.08-16.74,87.01-34.34,11.89-8.84,21.7-19.65,29.41-32.15,2.16-2.95,3.65-6.42,5.4-9.69.82-1.63,1.79-3.35,2.5-4.9l1.73-4.34c2.22-6.62,4.16-14.3,5.74-22.28,6.25-32.27,9.04-67.22,11.3-101.74,4.2-69.39,5.16-139.65,4.76-209.56l-.1-422.9v-23.44s23.16,0,23.16,0h23.59v23.44s-.11,423.52-.11,423.52c-.39,70.03.57,140.38,4.82,209.87,2.29,34.56,5.07,69.61,11.45,101.81,1.56,8.02,3.61,15.63,5.84,22.04.64,1.45,1.08,2.86,1.79,4.39l2.54,4.74,2.5,4.78c.82,1.6,2.01,2.97,2.98,4.46,7.94,11.89,18.19,22.33,30.73,30.72,12.48,8.44,26.62,15.22,41.52,20.9,15.17,5.25,30.84,9.77,47.13,12.99,32.41,6.82,66.31,9.88,100.33,11.78,17.03,1.11,34.12.97,51.18,1.28,8.52.02,17.1.47,25.57.13l25.41-1.03c33.93-1.11,67.3-5.48,99.51-12.35l23.67-6.25c7.57-2.61,14.97-5.52,22.49-8.21,7.17-3.14,13.94-6.8,20.84-10.22l9.28-6.19c1.53-1.04,3.17-1.99,4.63-3.08l3.97-3.55c11.05-9.04,19.03-20.22,22.21-31.31.54-1.38.76-2.71.97-4.01.34-1.37.4-2.54.5-3.67l.65-12.26c-.2-7.02-.53-14.03-2.26-20.84-2.84-13.7-9.44-26.71-18.02-38.87-8.91-12.03-19.84-23.18-32.3-33.05-12.36-9.95-26.05-18.77-40.36-26.59-7.16-3.91-14.48-7.58-21.93-10.95-3.71-1.68-7.46-3.33-11.2-4.85-3.64-1.48-7.75-3.07-10.81-4.13h0s-19.93-6.52-19.93-6.52l4.63-21.11c7.38-33.68,14.38-67.77,21.27-101.73,6.99-33.98,13.69-68.01,20.17-102.08,13.02-68.13,24.71-136.48,35.58-204.84,22.02-136.77,35.33-273.72,35.41-411.88,1.53-137.98-7.73-276.17-23.16-413.67-7.63-68.78-17.53-137.33-28.57-205.73-5.38-34.22-10.68-68.48-15.33-102.9-2.52-17.17-4.55-34.45-6.65-51.73-1.97-17.31-4.01-34.62-5.15-52.14v-.18c-.44-6.51,4.43-12.14,10.86-12.57,5.37-.36,10.13,3.02,11.8,7.94"/>
    <path class="cls-10" d="m1512.26,3430.22l-16.14-1.63c-5.56-.59-11.16-1.01-16.77-1.47-11.2-.9-22.46-1.61-33.72-2.02-22.51-1.01-45-.81-67.41.4-22.42,1.42-44.5,4.74-66.37,9.49-21.84,4.96-42.81,12.53-63.6,21.75l-.68.3c-5.87,2.61-12.71-.09-15.3-6.04-2.2-5.09-.55-10.91,3.66-14.11,19.83-15.09,41.81-27.86,65.16-36.9,5.78-2.47,11.76-4.13,17.66-6.24l8.92-2.93c3-.86,6.02-1.56,9.03-2.35,6.03-1.47,12.07-3.2,18.14-4.46l18.33-3.32c24.5-3.94,49.25-5.59,73.9-5.23,12.33.32,24.64.98,36.91,2.4,6.14.59,12.26,1.56,18.4,2.5,6.24,1.07,12.04,2.18,18.84,3.84,12.44,3.03,20.1,15.69,17.1,28.29-2.74,11.53-13.47,19.01-24.82,17.84l-1.25-.13Z"/>
    <path class="cls-10" d="m602.37,3384.23c6.79-1.65,12.59-2.8,18.83-3.86,6.13-1.02,12.27-1.87,18.39-2.58,12.28-1.39,24.58-2.22,36.92-2.5,6.15-.35,12.34-.06,18.51-.02,6.17,0,12.35.38,18.53.74,6.17.39,12.34.83,18.5,1.65,6.15.81,12.33,1.21,18.45,2.36,24.54,3.8,48.85,10.34,72.2,19.34,23.36,9.14,45.41,21.99,64.96,37.55,5.05,4.02,5.92,11.42,1.95,16.54-3.29,4.23-8.86,5.56-13.55,3.62l-.72-.3c-21.06-8.76-41.97-16.24-63.8-21.1-21.85-4.57-43.85-8.09-66.24-9.45-11.19-.58-22.35-1.43-33.61-1.25-11.21-.39-22.48.11-33.72.36-11.25.45-22.51,1-33.72,1.92-5.63.33-11.2.87-16.78,1.38l-16.14,1.62-1.29.13c-12.73,1.27-24.07-8.14-25.33-21.02-1.16-11.8,6.55-22.42,17.64-25.1"/>
    <g class="cls-6">
      <path class="cls-10" d="m1632.64,2527.02c-9.5,5.92-20.2,9.91-31.85,11.37-67.34,8.55-162.24,14.59-233.57-5.11v36.23c0,50.05-38.96,91.02-86.5,91.02h-472.65c-47.59,0-86.5-40.97-86.5-91.02v-28.9c-65.54,10.5-142.32,5.05-199.41-2.22-12.33-1.58-23.68-5.92-33.58-12.48.58-50.41,2.37-100.52,5.27-150.05,11.53-6.39,24.56-9.96,38.21-9.96,1.28,0,2.55.06,3.83.12,52.51,2.63,124.31,4.22,185.68-1.35v-64.94c0-50.05,38.92-90.97,86.5-90.97h472.65c37.98,0,70.52,26.14,82.05,62.19,2.9,9.03,4.45,18.7,4.45,28.78v60.78c67.17,10.26,157.21,8.62,219.86,5.51,1.27-.06,2.54-.12,3.82-.12,13.03,0,25.37,3.22,36.42,8.97,2.9,50.23,4.81,101.05,5.33,152.16"/>
    </g>
    <path class="cls-1" d="m783.78,2445.27c-72.61,30.9-184.99,24.44-261.6,14.69-45.95-5.85-78.21-50.43-71.44-98.56,6.18-43.92,42.96-75.87,85.14-73.79,71.66,3.53,179.15,5.18,247.21-10.69"/>
    <g class="cls-6">
      <path class="cls-10" d="m783.8,2445.26c-72.61,30.9-185.03,24.48-261.63,14.69-45.93-5.81-78.19-50.41-71.44-98.58,1.44-10.22,4.52-19.83,9.04-28.5,12.22,23.81,34.87,41.19,62.4,44.71,76.49,9.72,188.71,16.21,261.31-14.58l.32,82.26Z"/>
    </g>
    <path class="cls-10" d="m639.27,2495c-42.38,0-84.41-3.66-120.41-8.24-28.77-3.66-54.47-18.74-72.37-42.48-18.4-24.39-26.47-55.98-22.15-86.68,8.16-58.04,56.7-99.67,112.85-96.96,104.82,5.18,190.04,1.61,239.93-10.03,11.88-2.76,41.34-3.51,58.2,49.35,17.29,54.21,16.15,145.8-41.2,170.21h0c-43.68,18.58-99.55,24.83-154.84,24.83Zm144.51-49.72h.06-.06Zm-251.79-130.75c-27.38,0-50.71,21.35-54.84,50.69-2.35,16.7,1.82,33.14,11.74,46.28,9.15,12.14,22.16,19.83,36.62,21.68,108.16,13.75,196.22,9.2,247.93-12.79h0c7.03-2.99,12.8-13.86,15.83-29.82,6.21-32.74-1.57-71.23-9.09-85.37-69.85,14.25-171.3,13.06-245.59,9.4-.87-.05-1.74-.06-2.6-.06Z"/>
    <path class="cls-1" d="m1339.18,2445.27c72.61,30.9,184.99,24.44,261.6,14.69,45.94-5.85,78.2-50.43,71.43-98.56-6.18-43.92-42.95-75.87-85.14-73.79-71.66,3.53-179.15,5.18-247.22-10.69"/>
    <g class="cls-6">
      <path class="cls-10" d="m1600.8,2459.95c-76.64,9.78-189.02,16.21-261.63-14.69l.32-82.09c72.61,30.79,184.76,24.31,261.31,14.59,27.54-3.52,50.23-21.01,62.46-44.82,4.41,8.61,7.55,18.22,8.99,28.44,6.75,48.17-25.51,92.77-71.44,98.57"/>
    </g>
    <path class="cls-10" d="m1483.69,2495c-55.31,0-111.17-6.24-154.85-24.83h0c-57.35-24.41-58.49-116-41.2-170.21,16.86-52.86,46.34-52.12,58.21-49.34,49.89,11.63,135.09,15.2,239.93,10.03,56.2-2.75,104.69,38.91,112.85,96.95,4.32,30.7-3.76,62.3-22.16,86.68-17.9,23.73-43.6,38.82-72.36,42.48-36,4.58-78.05,8.24-120.42,8.24Zm-134.17-74.62c51.71,22,139.76,26.55,247.94,12.79,14.45-1.84,27.45-9.54,36.61-21.67,9.92-13.15,14.09-29.59,11.74-46.3-4.26-30.26-28.93-52.11-57.44-50.62-74.3,3.65-175.74,4.85-245.58-9.4-7.51,14.15-15.3,52.64-9.09,85.38,3.03,15.96,8.79,26.83,15.82,29.82h0Z"/>
    <path class="cls-1" d="m1367.24,2221.29v269.79c0,50.07-38.96,91.04-86.54,91.04h-472.6c-47.63,0-86.54-40.96-86.54-91.04v-269.79c0-50.01,38.91-90.97,86.54-90.97h472.6c38.01,0,70.54,26.15,82.07,62.19,2.87,9.06,4.46,18.72,4.46,28.78"/>
    <g class="cls-6">
      <path class="cls-10" d="m1367.24,2221.29v269.79c0,50.07-38.96,91.04-86.54,91.04h-472.6c-47.63,0-86.54-40.96-86.54-91.04v-90.81c81.54,47.45,243.08,118.7,405.2,59.91,79.2-28.74,170-127.24,170-127.24,0,0,3.5,103.35,18.08,101.72,40.55-4.54,40.25-213.64,47.92-242.15,2.87,9.06,4.46,18.72,4.46,28.78"/>
    </g>
    <path class="cls-10" d="m1279.04,2609.08h-469.32c-63.34,0-114.86-52.16-114.86-116.27v-273.23c0-64.11,51.53-116.27,114.86-116.27h469.32c63.33,0,114.86,52.16,114.86,116.27v273.23c0,64.11-51.52,116.27-114.86,116.27Zm-469.32-451.77c-33.92,0-61.51,27.94-61.51,62.27v273.23c0,34.33,27.59,62.27,61.51,62.27h469.32c33.92,0,61.51-27.94,61.51-62.27v-273.23c0-34.33-27.59-62.27-61.51-62.27h-469.32Z"/>
    <path class="cls-11" d="m1286.44,2356.2c0,43.34-33.42,78.46-74.63,78.46s-74.63-35.13-74.63-78.46,33.41-78.46,74.63-78.46,74.63,35.13,74.63,78.46"/>
    <path class="cls-1" d="m1286.46,2356.22c0,5.35-.49,10.54-1.47,15.57-6.89-35.93-37.06-62.97-73.2-62.97s-66.3,27.04-73.14,62.97c-.98-5.03-1.46-10.23-1.46-15.57,0-43.33,33.39-78.49,74.61-78.49s74.66,35.16,74.66,78.49"/>
    <g class="cls-2">
      <path class="cls-10" d="m1286.44,2356.18c0,43.36-33.43,78.46-74.63,78.46s-74.62-35.1-74.62-78.46c0-7.27.96-14.37,2.7-21.01,8.77,33.08,37.69,57.39,71.92,57.39s63.15-24.31,71.92-57.39c1.75,6.65,2.72,13.74,2.72,21.01"/>
    </g>
    <path class="cls-10" d="m1211.81,2454.91c-52.18,0-94.64-44.29-94.64-98.72s42.45-98.71,94.64-98.71,94.64,44.28,94.64,98.71-42.46,98.72-94.64,98.72Zm0-156.92c-30.12,0-54.62,26.11-54.62,58.2s24.5,58.21,54.62,58.21,54.63-26.11,54.63-58.21-24.5-58.2-54.63-58.2Z"/>
    <path class="cls-10" d="m1000.31,2609.08c-14.73,0-26.68-12.09-26.68-27v-138.08c0-25.76-11.59-50.3-31.01-65.67l-12.01-9.51c-32.25-25.52-51.5-65.97-51.5-108.22v-130.3c0-14.91,11.94-27,26.68-27s26.67,12.09,26.67,27v130.3c0,25.75,11.59,50.3,31.01,65.67l12.01,9.5c32.25,25.51,51.5,65.97,51.5,108.22v138.08c0,14.91-11.94,27-26.67,27Z"/>
    <path class="cls-10" d="m786.27,3063.29c-88.84,0-187.18-15.63-277.29-64.57-12.98-7.05-17.86-23.42-10.89-36.56,6.97-13.14,23.13-18.09,36.12-11.03,222.53,120.84,514.41,14.01,517.34,12.91,13.8-5.18,29.16,1.97,34.27,15.94,5.11,13.98-1.92,29.5-15.73,34.69-8.09,3.04-132.1,48.61-283.81,48.61Z"/>
    <path class="cls-10" d="m1335.11,3063.29c-151.73,0-275.71-45.57-283.8-48.61-13.81-5.19-20.85-20.73-15.73-34.71,5.13-13.99,20.48-21.11,34.29-15.92,3.88,1.43,295.15,107.73,517.32-12.92,12.98-7.05,29.15-2.12,36.12,11.03,6.97,13.14,2.09,29.51-10.89,36.56-90.11,48.93-188.47,64.57-277.3,64.57Z"/>
    <path class="cls-1" d="m852.6,2807.06s84.35,38.16,207.99,38.16,208.41-38.16,208.41-38.16c0,0-56.02-44.79-208.41-44.79s-207.99,44.79-207.99,44.79"/>
    <g class="cls-3">
      <path class="cls-10" d="m852.6,2807.06s84.35,38.16,207.99,38.16,208.41-38.16,208.41-38.16c0,0-56.02-44.79-208.41-44.79s-207.99,44.79-207.99,44.79"/>
    </g>
    <path class="cls-10" d="m826.12,2793.04c18.84,5.24,38.94,10.08,58.65,13.9,19.8,4.03,39.71,7.28,59.65,10,20,2.31,39.92,4.95,59.98,5.91,10.01.71,20.02,1.13,30.04,1.6,10.01.4,20.03.29,30.05.45,40.06-.33,80.15-2.86,120.05-8.2l14.96-2.1c4.99-.74,9.91-1.73,14.92-2.43,9.95-1.59,19.91-3.35,29.78-5.44,19.74-3.76,39.84-8.58,58.74-13.7l.69-.19c6.2-1.68,12.57,2.05,14.23,8.33,1.4,5.29-1.01,10.71-5.51,13.28-19.34,11.05-38.85,18.81-59.04,26.13-20.18,6.92-40.71,12.91-61.58,17.37-41.71,9.07-84.43,13.79-127.2,13.76-42.76-.35-85.5-4.64-127.19-13.87-20.87-4.45-41.4-10.46-61.59-17.35-20.2-7.27-39.7-15.05-59.07-26.04-5.6-3.18-7.59-10.34-4.45-16.01,2.66-4.81,8.17-6.99,13.2-5.6l.71.2Z"/>
    <path class="cls-1" d="m1855.06,1044.24h0c-9.09,1.24-17.43-5.52-18.62-15.07l-62.06-498.69c-1.19-9.56,5.22-18.31,14.31-19.55,95.4-12.96,182.86,57.85,195.34,158.16l21.16,170.06c12.48,100.31-54.73,192.14-150.14,205.1"/>
    <path class="cls-10" d="m1852.89,1049.24c-4.59,0-9.05-1.54-12.78-4.45-4.68-3.65-7.67-8.98-8.42-15.02l-62.06-498.69c-1.52-12.18,6.75-23.37,18.43-24.96,46.23-6.26,92.3,6.34,129.74,35.52,39.42,30.72,64.63,75.77,70.99,126.84l21.16,170.06c12.79,102.78-56.41,197.22-154.25,210.51-.94.13-1.87.19-2.8.19Zm-41.63-534.99c-7.28,0-14.6.49-21.93,1.49-6.49.88-11.06,7.22-10.2,14.13l62.06,498.69c.43,3.45,2.12,6.49,4.76,8.54,2.46,1.91,5.47,2.75,8.47,2.33h0c92.66-12.59,158.16-102.17,146.02-199.68l-21.16-170.06c-6.04-48.49-29.95-91.24-67.33-120.37-29.47-22.96-64.57-35.08-100.69-35.08Z"/>
    <g class="cls-6">
      <path class="cls-10" d="m1995.27,759.4l9.94,79.75c12.47,100.28-54.74,192.12-150.16,205.12-9.08,1.24-17.43-5.56-18.63-15.12l-16.54-132.56c3.3,5.7,9.58,9.09,16.26,8.24l11.24-1.56c75.39-10.22,133.22-69.75,147.88-143.88"/>
    </g>
    <path class="cls-10" d="m1852.84,1071.39c-9.39,0-18.48-3.12-26.08-9.05-9.35-7.28-15.31-17.87-16.79-29.81l-62.06-498.69c-3.02-24.19,13.68-46.48,37.23-49.68,52.06-7.07,103.9,7.11,146.01,39.92,44.08,34.35,72.26,84.65,79.35,141.63l21.16,170.06c14.28,114.79-63.35,220.32-173.05,235.23h0c-1.93.26-3.86.39-5.77.39Zm-50.8-534.69l59.61,479.02c75.37-15.89,127.27-91.33,117.08-173.21l-21.16-170.06c-5.3-42.59-26.24-80.08-58.96-105.58-28.1-21.89-62.07-32.42-96.56-30.17Z"/>
    <path class="cls-1" d="m223.2,723.6h0c9.1-1.23,17.43,5.52,18.62,15.08l62.06,498.69c1.19,9.56-5.22,18.31-14.31,19.55-95.4,12.96-182.86-57.85-195.34-158.16l-21.16-170.06c-12.48-100.31,54.73-192.14,150.14-205.1"/>
    <path class="cls-10" d="m266.97,1263.3c-38.22,0-75.34-12.81-106.5-37.09-39.43-30.72-64.64-75.77-71-126.85l-21.16-170.05c-12.79-102.78,56.4-197.22,154.25-210.52h0c5.58-.74,11.1.76,15.59,4.26,4.68,3.64,7.67,8.98,8.42,15.01l62.06,498.7c1.52,12.17-6.75,23.37-18.43,24.96-7.76,1.05-15.52,1.57-23.23,1.57Zm-43.13-534.89h0c-92.65,12.59-158.16,102.17-146.02,199.69l21.16,170.05c6.04,48.5,29.95,91.25,67.34,120.38,35.41,27.59,78.97,39.52,122.61,33.58,6.49-.88,11.06-7.22,10.2-14.13l-62.06-498.7c-.43-3.45-2.12-6.48-4.76-8.54-2.45-1.91-5.45-2.74-8.47-2.33Z"/>
    <g class="cls-6">
      <path class="cls-10" d="m286.7,1099.02l17.2,138.35c1.2,9.55-5.26,18.31-14.35,19.55-50.07,6.79-98.01-9.48-134.03-41.03-32.53-28.49-55.34-69.48-61.28-117.11l-8.92-71.66c34.9,59.19,100.69,94.79,170.64,85.3l17.31-2.35c6.32-.87,11.23-5.28,13.43-11.05"/>
    </g>
    <path class="cls-10" d="m266.92,1285.46c-43.01,0-84.78-14.4-119.8-41.69-44.08-34.35-72.27-84.65-79.36-141.63l-21.16-170.05c-14.29-114.81,63.35-220.33,173.05-235.24h.02c11.37-1.55,22.69,1.54,31.84,8.67,9.33,7.27,15.29,17.85,16.78,29.79l62.06,498.71c3.01,24.19-13.68,46.48-37.23,49.68-8.75,1.19-17.5,1.78-26.2,1.78Zm-50.32-533.34c-75.37,15.89-127.27,91.33-117.08,173.21l21.16,170.06c5.3,42.59,26.24,80.09,58.97,105.59,28.09,21.89,62.06,32.42,96.56,30.17l-59.61-479.03Z"/>
    <g class="cls-6">
      <path class="cls-10" d="m1636.11,1562.26c-137.87,155.62-330.73,257.72-548.74,270.91-240.98,14.59-463.72-82.47-622.49-248.52.23-.35.52-.64.75-1,36.71-46.66,93.22-76.54,156.74-76.54h876.28c50.78,0,97.04,19.05,132.36,50.46,1.74,1.53,3.42,3.11,5.1,4.69"/>
    </g>
    <path class="cls-1" d="m1852.9,834.66c26.61,472.45-316.13,877.5-765.52,904.71-449.38,27.19-835.24-333.76-861.84-806.21C198.95,460.7,541.68,55.64,991.06,28.45c449.39-27.2,835.24,333.76,861.84,806.21"/>
    <path class="cls-10" d="m1039.77,1745.66c-195.76,0-383.57-72.79-533.39-207.72-170.91-153.92-272.34-368.6-285.62-604.51C194.06,459.06,539.48,50.92,990.78,23.6c212.83-12.87,419.29,60.37,581.28,206.26,170.91,153.92,272.35,368.61,285.63,604.52,26.71,474.36-318.72,882.51-770.02,909.82-16.01.97-31.98,1.45-47.9,1.45Zm-1.1-1713.81c-15.74,0-31.5.48-47.32,1.43C545.32,60.28,203.92,463.84,230.33,932.88c13.14,233.32,113.44,445.63,282.43,597.82,160.08,144.17,364.07,216.54,574.34,203.83,446.04-27,787.43-430.55,761.02-899.59-13.14-233.32-113.44-445.64-282.43-597.83C1417.66,103.8,1232.06,31.86,1038.67,31.86Z"/>
    <g class="cls-2">
      <path class="cls-10" d="m1838.44,716.72c7.36,38.37,12.21,77.74,14.48,117.95,26.54,472.44-316.18,877.49-765.55,904.72-449.37,27.14-835.22-333.8-861.86-806.23-.78-13.59-1.24-27.21-1.37-40.64,78.3,413.12,436.21,713.16,847.38,688.29,436.44-26.45,772.22-409.24,766.91-864.09"/>
    </g>
    <path class="cls-10" d="m1039.74,1767.82c-201.13,0-394.04-74.75-547.9-213.32-175.28-157.86-279.31-377.98-292.93-619.8C171.52,448.16,526.17,29.53,989.47,1.49c218.67-13.25,430.77,61.99,597.13,211.82,175.28,157.86,279.32,377.98,292.94,619.81,27.39,486.52-327.25,905.15-790.56,933.2-16.44,1-32.88,1.49-49.24,1.49Zm-1.1-1713.81c-15.29,0-30.62.46-45.99,1.39C558.63,81.67,226.46,474.74,252.18,931.62c12.8,227.4,110.51,434.28,275.12,582.53,155.7,140.23,354.11,210.68,558.49,198.27,434.03-26.27,766.2-419.34,740.48-876.21-12.8-227.4-110.51-434.29-275.13-582.54-143.99-129.68-324.47-199.65-512.5-199.65Z"/>
    <path class="cls-10" d="m1851.54,856.79c11.83,167.23-28.83,326.45-108.04,461.66-59.4,101.37-319.62,290.73-655.46,319.61-311.39,26.77-607.26-126.22-680.27-217.46-97.39-121.71-160.01-273.02-171.84-440.26-31.3-442.56,317.37-653.67,763.53-687.8,446.16-34.12,820.78,121.69,852.09,564.25"/>
    <g class="cls-4">
      <path class="cls-1" d="m1486.56,822.55c-8.35,83.27,31.42,156.01,88.83,162.47,57.41,6.46,110.72-55.81,119.07-139.09,8.36-83.27-31.42-156.01-88.83-162.47-57.41-6.46-110.72,55.8-119.07,139.08"/>
    </g>
    <g class="cls-4">
      <path class="cls-1" d="m1428.87,1129.1c-8.82,37.28,8.71,74.01,39.17,82.02,30.44,8.01,62.28-15.72,71.11-53.01,8.82-37.29-8.71-74.01-39.17-82.02-30.45-8.01-62.29,15.73-71.11,53.02"/>
    </g>
    <g class="cls-2">
      <path class="cls-7" d="m1665.22,455.94c105.76,91.52,173.71,223.08,186.31,400.83,11.83,167.27-28.86,326.47-108.01,461.68-59.41,101.37-319.67,290.73-655.5,319.64-118.58,10.24-234.86-5.65-337.51-34.31,412.08-44.79,728.97-277.01,802.62-402.74,100.56-171.61,152.14-373.7,137.1-585.91-3.97-56.72-12.51-109.73-25-159.19"/>
    </g>
    <path class="cls-10" d="m270.07,625.24c-5.3,0-10.64-1.59-15.3-4.91-11.53-8.22-14.71-23.95-7.51-35.98,128.02-232.72,397.44-381.16,739.36-407.32,339.49-25.95,626.57,75.72,787.87,278.96,8.57,9.65,9.23,24.43.96,34.89-9.07,11.48-25.51,13.47-36.99,4.61l-2.6-1.95-2.19-2.76c-149.96-189.8-420.77-284.51-743.03-259.9-324.05,24.79-578.15,163.44-697.13,380.42l-1.52,2.45c-5.21,7.48-13.5,11.49-21.92,11.49Z"/>
    <g class="cls-4">
      <path class="cls-1" d="m441.73,1247.23s-161.25-426.61,50.24-617.7c211.49-191.09,533.51-215.01,527.51-192.73,0,0-350.02,117.99-468.54,424.93-91.39,236.68-109.21,385.5-109.21,385.5"/>
    </g>
  </g>
  <path class="cls-8" d="m2186.11,1100.62c-26.22-43.43-39.15-95.57-33.62-150.11,13.43-132.39,130.33-228.69,261.12-215.1,130.78,13.59,225.92,131.93,212.49,264.32-13.43,132.39-130.33,228.69-261.12,215.1-36.38-3.78-69.98-15.69-99.27-33.72l-110.16,25.01,30.57-105.5Z"/>
  <g class="cls-4">
    <path class="cls-1" d="m2408.93,781.51c-122.17-12.7-232.2,70.51-257.12,189.44-.03-8.5.33-17.07,1.21-25.71,13.43-132.39,130.33-228.69,261.12-215.1,130.78,13.59,225.92,131.93,212.49,264.32-.88,8.68-2.23,17.19-3.97,25.54-.46-121.62-91.52-225.8-213.73-238.5Z"/>
  </g>
  <path class="cls-10" d="m2389.49,1239.43c-8.88,0-17.84-.46-26.86-1.39-35.8-3.72-69.63-14.53-100.72-32.16l-101.33,23c-7.97,1.82-16.27-.78-21.85-6.81-5.58-6.02-7.59-14.59-5.3-22.51l27.77-95.85c-26.24-47.51-37.17-101.07-31.64-155.58,14.71-144.97,143.16-250.79,286.39-235.91,143.21,14.89,247.76,144.94,233.05,289.91-13.78,135.84-127.45,237.31-259.53,237.31Zm-123.78-81.64c4.19,0,8.34,1.16,11.97,3.4,27.39,16.87,57.56,27.11,89.66,30.45,117.97,12.28,223.74-74.9,235.85-194.28,12.11-119.38-73.99-226.48-191.93-238.74-117.91-12.24-223.74,74.9-235.85,194.28-4.84,47.76,5.66,94.65,30.36,135.57,3.39,5.61,4.28,12.42,2.45,18.73l-19.56,67.51,72.01-16.35c1.67-.38,3.36-.57,5.04-.57Z"/>
  <g class="cls-5">
    <path class="cls-10" d="m2184.77,1098.31c65.2,55.83,155.03,80.28,244.23,57.8,98.92-24.92,171.81-101.18,198.03-193.72.63,12.27.35,24.74-.93,37.35-13.43,132.39-130.33,228.69-261.12,215.1-36.38-3.78-69.98-15.69-99.27-33.72l-110.16,25.01,30.57-105.5c-.46-.76-.88-1.55-1.34-2.31Z"/>
  </g>
  <path class="cls-9" d="m2380.68,1019.95h74.52c5.21,0,9.43,4.22,9.43,9.43v25.1c0,5.21-4.22,9.43-9.43,9.43h-158.71c-5.21,0-9.43-4.22-9.43-9.43v-25.1c0-5.21,4.22-9.43,9.43-9.43h8.44c5.21,0,9.43-4.22,9.43-9.43v-21.37c0-5.21-4.22-9.43-9.43-9.43h-8.44c-5.21,0-9.43-4.22-9.43-9.43v-13.9c0-5.21,4.22-9.43,9.43-9.43h17.87v-1.72c0-18.39,3.89-34.02,11.65-46.83,7.76-12.84,18.9-22.65,33.46-29.46,14.57-6.79,32.18-10.19,52.87-10.19,11.87,0,22.74,1.11,32.62,3.29,6.48,1.45,12.45,3.34,17.9,5.66,4.63,1.97,6.82,7.31,5.03,12.01l-9.94,26.06c-1.86,4.87-7.34,7.36-12.19,5.43-3.4-1.35-6.92-2.42-10.56-3.19-6.81-1.44-13.46-2.14-19.98-2.14-13.99,0-24.8,3.16-32.47,9.48-7.67,6.32-11.49,15.89-11.49,28.73v2.87h55.51c5.21,0,9.43,4.22,9.43,9.43v13.9c0,5.21-4.22,9.43-9.43,9.43h-46.08c-5.21,0-9.43,4.22-9.43,9.43v21.37c0,5.21,4.22,9.43,9.43,9.43Z"/>
</svg>