<?xml version="1.0" encoding="UTF-8"?>
<svg id="Layer_1" data-name="Layer 1" xmlns="http://www.w3.org/2000/svg" viewBox="0 0 217.35 426.45">
  <defs>
    <style>
      .cls-1 {
        fill: #fff;
      }

      .cls-2 {
        fill: #0f156d;
      }

      .cls-3 {
        fill: #ffd400;
      }

      .cls-4 {
        opacity: .6;
      }

      .cls-4, .cls-5, .cls-6, .cls-7 {
        fill: none;
      }

      .cls-8 {
        fill: #220f2d;
      }

      .cls-5 {
        opacity: .5;
      }

      .cls-9 {
        fill: #ccc;
      }

      .cls-6 {
        opacity: .2;
      }

      .cls-7 {
        opacity: .3;
      }

      .cls-10 {
        fill: #371a45;
      }

      .cls-11 {
        fill: #000070;
      }
    </style>
  </defs>
  <g>
    <path class="cls-1" d="m50.36,91.45l-.65,7.49-1.61,18.52-.48,5.59-.58,6.69-.39,4.49-.97,11.23-1.89,21.83-7.66-.76-3.22-.32c-5.78-.57-10.24-4.78-11.51-10.05v-.02c-.36-1.53-.45-3.14-.23-4.77.04-.33.1-.67.17-1l10.63-49.88.3-1.41c.99-4.68,5.18-7.97,9.95-7.85l8.14.21Z"/>
    <path class="cls-10" d="m43.79,168.88c-.05,0-.1,0-.16,0l-10.88-1.08c-4.17-.41-7.98-2.59-10.45-5.98-2.47-3.38-3.39-7.67-2.52-11.77l10.93-51.28c1.15-5.42,6.02-9.25,11.55-9.1l8.14.21c.87.02,1.56.75,1.54,1.62-.02.87-.74,1.55-1.62,1.54l-8.14-.21c-4.01-.09-7.53,2.67-8.37,6.59l-10.93,51.28c-.69,3.22.03,6.59,1.98,9.25,1.94,2.66,4.93,4.37,8.21,4.69l10.88,1.08c.87.09,1.5.86,1.42,1.73-.08.82-.77,1.43-1.57,1.43Z"/>
    <path class="cls-1" d="m87.95,178.36l-1.66,4.69v.02s0,0-.01,0l-13.2,37.35c3.07.94,5.14,3.22,6.22,6.03,1.18,3.04,1.24,6.69.21,9.89-1.13,3.53-4.47,5.87-8.16,5.87h-25.98c-4.01,0-7.56-2.76-8.39-6.69-.49-2.32-.4-5.38.89-9.37,2.99-9.27,11.34-30.55,15.76-41.67,1.71-4.29,2.82-7.07,2.82-7.07l17.06-3.3,14.44,4.22Z"/>
    <path class="cls-10" d="m71.36,243.8h-25.98c-4.79,0-8.97-3.34-9.94-7.94-.62-2.93-.31-6.36.93-10.18,4.11-12.75,18.48-48.49,18.62-48.85.2-.5.64-.86,1.17-.96l17.06-3.29c.86-.16,1.69.4,1.85,1.25.17.86-.4,1.69-1.25,1.85l-16.22,3.13c-2.15,5.37-14.49,36.26-18.22,47.84-1.06,3.29-1.34,6.17-.84,8.55.66,3.14,3.54,5.43,6.84,5.43h25.98c3.07,0,5.74-1.92,6.66-4.76,1.06-3.31.81-7.11-.65-9.9-1.06-2.02-2.69-3.41-4.73-4.03-.41-.13-.76-.41-.95-.8s-.22-.83-.08-1.24l14.87-42.07c.29-.82,1.19-1.26,2.02-.96.82.29,1.26,1.2.96,2.02l-14.36,40.63c2.15,1.03,3.88,2.73,5.07,4.99,1.87,3.57,2.19,8.18.87,12.33-1.33,4.17-5.22,6.97-9.67,6.97Z"/>
    <path class="cls-10" d="m73,222.01c-4.44-.64-9.29-.42-13.42,1.55,3.87-3.02,8.76-4.31,13.61-4.71,2.36-.03,2.15,3.47-.19,3.16h0Z"/>
    <path class="cls-10" d="m71.57,237.15c-.76,0-1.41-.03-1.87-.05h-26.36c-.06,0-.11,0-.17,0-5.78-.61-7.54-6.08-7.61-6.31-.26-.83.21-1.72,1.04-1.98.83-.26,1.71.21,1.98,1.04.06.17,1.24,3.67,4.84,4.1h26.31s.06,0,.09,0c3.78.22,8.39-.43,8.88-1.63.33-.81,1.26-1.19,2.06-.86.81.33,1.19,1.26.86,2.06-1.29,3.14-6.76,3.64-10.08,3.64Z"/>
    <path class="cls-10" d="m64.43,206.22c-9.68,0-17.32-4.11-17.81-4.38-.65-.36-.89-1.18-.53-1.84s1.18-.89,1.83-.53h0c.17.09,16.95,9.08,31.52-.26.63-.4,1.46-.22,1.87.41.4.63.22,1.46-.41,1.87-5.55,3.56-11.31,4.74-16.48,4.74Z"/>
    <path class="cls-1" d="m132.02,213.58h-36.83s-4.36,1.35-4.45-8.7c-.09-10.05-2.2-26.86-2.2-26.86-23.35,13.43-46.56,7.21-52.43-11.49-1.56-4.95-1.9-10.78-.7-17.35.08-.47.18-.95.28-1.43v-.02c.36-1.73.84-3.51,1.42-5.33l4.46-13.43c.03-.07.05-.14.07-.2,0-.01,0-.02,0-.03l.61-1.82h0s.1-.32.1-.32l-9.91,2.18c-2.3,2.59-4.33,7.37-6.3,12.62,4.82,5.22,2.08,10.24-3.32,7.32,0,0-.54,1.28-1.66,2.66-.42.52-.92,1.05-1.51,1.55-2.39,1.99-6.18,3.21-11.53-.57-10.14-7.18-6.42-15.63-2.96-23.65,2.75-6.37,9.93-22.69,26.79-28.2,4.41-1.45,9.48-2.15,15.31-1.74h.01c.81.05,1.62.11,2.43.18,27.19,2.07,52.5,6.72,52.5,6.72,0,0,21.14,8.25,27.22,15.91l4.49,12.87c-.21,2.1-.77,4.08-1.64,5.83-3.78,7.59-13.43,10.99-26.01,2.15-.99-.7-1.99-1.47-3.02-2.32,0,0-.25,3.25-2.2,4.48,0,0,14.51,4.7,16.43,20.69,1.93,16,.46,23.77.46,23.77,12.62-1.63,24.21,13.29,14.08,24.55Z"/>
    <g class="cls-6">
      <path class="cls-10" d="m132.28,140.27c-3.78,7.59-13.43,10.99-26.01,2.15-1.76-1.57-2.7-2.09-2.84-4.15-.16-2.25-3.98-5.89-3.98-5.89l-1.26-7.2,2.28-4.52c8.19,12.78,29.6,17.6,29.6,17.6l2.22,2Z"/>
    </g>
    <path class="cls-10" d="m94.68,215.22c-.65,0-1.55-.16-2.46-.82-1.99-1.45-3.02-4.65-3.06-9.51-.06-7.65-1.33-19.41-1.91-24.36-16.01,8.41-32.99,8.32-43.78-.39-10.13-8.17-13-22.11-7.86-38.23l4.38-13.18-6.67,1.47c-1.95,2.42-3.78,6.74-5.36,10.86,2.78,3.44,2.71,6.68,1.32,8.47-1.01,1.3-3,2.18-5.76,1.22-1.02,1.68-3.1,4.35-6.4,5.29-3.08.88-6.41.06-9.91-2.41-11.13-7.88-6.93-17.62-3.55-25.44l.06-.13c1.7-3.95,5.25-12.16,12.13-19.2,8.44-8.63,19.05-12.57,31.53-11.69,27.87,1.96,54.85,6.87,55.12,6.92.1.02.2.05.29.08.88.34,21.61,8.5,27.88,16.4.11.14.2.3.26.46l4.49,12.87c.08.22.1.45.08.68-.64,6.35-4.13,11.41-9.36,13.55-3.69,1.51-11.3,2.71-21.93-5.28-.14.36-.31.72-.51,1.08,4.34,2.06,13.78,7.98,15.36,21.12,1.4,11.64,1.04,18.97.71,22.25h.06c6.44,0,12.75,3.77,15.84,9.67,3.09,5.9,2.18,12.5-2.46,17.65-.3.33-.73.52-1.18.52h-36.66c-.17.03-.4.06-.67.06Zm-6.14-38.79c.24,0,.48.06.71.17.47.24.8.69.87,1.22.09.69,2.12,17.02,2.21,27.05.04,5.17,1.25,6.6,1.76,6.98.33.24.63.22.63.22.15-.05.31-.07.47-.07h36.1c3.37-4.08,3.94-8.98,1.56-13.53-2.82-5.38-8.88-8.62-14.71-7.87-.5.06-1.01-.12-1.35-.48-.35-.37-.5-.88-.4-1.38.01-.07,1.39-7.79-.48-23.28-1.78-14.82-15.22-19.33-15.35-19.38-.58-.19-1.01-.7-1.08-1.31-.08-.61.21-1.21.73-1.54,1.02-.64,1.41-2.62,1.46-3.27.05-.59.42-1.1.97-1.33.54-.23,1.17-.14,1.62.24,7.7,6.4,15.05,8.66,20.68,6.35,4.03-1.65,6.77-5.6,7.37-10.6l-4.28-12.27c-5.71-6.87-24.44-14.44-26.25-15.16-2.21-.4-28.01-4.98-54.62-6.85-27.2-1.91-37.23,21.34-40.53,28.98l-.06.13c-3.37,7.82-6.56,15.2,2.47,21.6,2.67,1.89,5.09,2.55,7.2,1.96,3.39-.96,5.11-4.88,5.13-4.92.18-.41.52-.73.94-.87.42-.15.88-.11,1.27.1,1.46.79,2.72.9,3.21.27.52-.67.49-2.65-1.8-5.13-.41-.44-.53-1.07-.32-1.63,1.93-5.11,4.06-10.24,6.61-13.11.22-.25.52-.42.84-.49l9.91-2.18c.56-.12,1.13.06,1.52.49.38.42.51,1.02.33,1.56l-5.25,15.81c-4.71,14.8-2.23,27.48,6.83,34.79,10.24,8.26,26.84,7.85,42.3-1.04.24-.14.52-.21.79-.21Z"/>
    <g>
      <g>
        <path class="cls-1" d="m145.14,66.65c-.94,6.36-2.83,12.37-5.93,14.44-2.23,1.49-17.74,1.51-17.74,1.51l12-40.06s1.02.29,2.46.78c2.99,1.03,7.79,2.95,8.9,5.02,1.2,2.25,1.46,10.53.32,18.3Z"/>
        <g class="cls-6">
          <path class="cls-10" d="m145.14,66.65c-.94,6.36-2.83,12.37-5.93,14.44-2.23,1.49-17.74,1.51-17.74,1.51l12-40.06s1.02.29,2.46.78c1.34,4.88,2.77,12.22,2.5,20.87-.18,5.97,3.91,6.38,6.71,2.45Z"/>
        </g>
        <path class="cls-10" d="m121.46,84.24c-.52,0-1-.24-1.31-.66-.31-.41-.4-.95-.26-1.45l12-40.06c.26-.85,1.15-1.35,2.01-1.1,1.74.49,10.49,3.1,12.36,6.61,2.51,4.72,1.65,29.65-6.15,34.86-2.38,1.59-13.83,1.78-18.65,1.79h0Zm13.09-39.65l-10.89,36.37c6.54-.1,13.48-.55,14.65-1.23,6.03-4.03,6.98-27.02,5.07-30.6-.78-1.46-5.26-3.38-8.82-4.53Z"/>
      </g>
      <g>
        <circle class="cls-1" cx="82.98" cy="57.26" r="55.62"/>
        <g class="cls-6">
          <path class="cls-10" d="m28.98,70.64c5.74,23.23,26.16,40.95,51.29,42.17,30.68,1.49,56.77-22.17,58.26-52.85.58-11.98-2.67-23.26-8.68-32.65-6.09,27.44-42.27,47.22-84.9,45.15-5.48-.27-10.82-.88-15.97-1.81Z"/>
        </g>
        <path class="cls-10" d="m83.01,114.05c-.93,0-1.86-.02-2.79-.07-15.15-.74-29.11-7.33-39.3-18.57-10.19-11.23-15.4-25.77-14.66-40.92l1.17.06-1.17-.06c.74-15.15,7.33-29.11,18.56-39.3C56.05,5,70.59-.2,85.74.53c15.15.74,29.11,7.33,39.3,18.56,10.19,11.23,15.4,25.77,14.66,40.92-1.48,30.34-26.63,54.03-56.69,54.03Zm-.09-111.24c-13.54,0-26.42,4.96-36.52,14.12-10.77,9.77-17.09,23.16-17.8,37.68h0c-.71,14.53,4.29,28.46,14.06,39.23,9.77,10.77,23.16,17.09,37.68,17.8.9.04,1.79.07,2.68.07,28.82,0,52.94-22.71,54.36-51.81.71-14.53-4.29-28.46-14.06-39.23-9.77-10.77-23.16-17.09-37.68-17.8-.91-.04-1.81-.07-2.71-.07Z"/>
        <path class="cls-10" d="m83.04,114.51c-.95,0-1.89-.02-2.84-.07-15.27-.74-29.35-7.39-39.62-18.72-10.28-11.33-15.53-25.98-14.78-41.25.74-15.28,7.39-29.35,18.72-39.62C55.83,4.58,70.48-.68,85.76.07c14.16.69,27.49,6.56,37.54,16.54,11.5,11.42,17.65,27.24,16.86,43.43-.02.31-.03.62-.05.92-.27,4.19-1,8.33-2.16,12.32-5.16,17.77-18.7,32.01-36.22,38.09-6.03,2.09-12.31,3.15-18.7,3.15Zm-.12-111.25c-13.43,0-26.2,4.92-36.21,14-10.68,9.69-16.95,22.96-17.65,37.36h0c-.7,14.4,4.25,28.22,13.94,38.9,9.69,10.68,22.96,16.95,37.36,17.65,6.96.34,13.79-.64,20.31-2.9,16.52-5.73,29.29-19.16,34.15-35.91,1.09-3.76,1.78-7.67,2.03-11.61.02-.29.04-.58.05-.87.74-15.26-5.05-30.18-15.9-40.95-9.48-9.41-22.05-14.95-35.4-15.6-.9-.04-1.79-.07-2.69-.07ZM27.42,54.55h0,0Z"/>
        <path class="cls-10" d="m88.37,112.09c-1,0-1.99-.02-2.99-.07-15.15-.74-29.13-6.94-39.36-17.48-10.25-10.55-15.51-24.17-14.82-38.37l.88.04-.88-.04c.69-14.19,7.25-27.24,18.47-36.74,11.2-9.49,25.72-14.31,40.87-13.57,11.75.57,22.85,4.45,32.12,11.2.04.03.07.05.1.09,11.35,11.27,17.42,26.88,16.64,42.85-.01.3-.03.61-.05.91,0,.13,0,.32-.02.51-.19,3.98-.91,7.9-2.12,11.67-5.09,17.51-18.45,31.56-35.73,37.56-.03.01-.07.02-.1.03-4.25.94-8.62,1.41-13.01,1.41Zm-.85-104.55c-13.64,0-26.58,4.64-36.72,13.23-10.85,9.19-17.19,21.79-17.86,35.49h0c-.67,13.7,4.42,26.86,14.33,37.06,9.92,10.21,23.48,16.23,38.19,16.95,5.23.25,10.45-.18,15.49-1.29,16.73-5.82,29.65-19.43,34.58-36.4,1.17-3.64,1.86-7.41,2.04-11.23,0-.17.02-.33.02-.49.02-.35.04-.65.05-.94.75-15.45-5.11-30.56-16.08-41.48-8.98-6.53-19.74-10.28-31.12-10.83-.98-.05-1.96-.07-2.93-.07Z"/>
        <path class="cls-10" d="m37.47,56.48c-1.27,26.05,20.31,48.27,48.2,49.63,23.64,1.15,44.22-13.06,50.72-33.29,1.17-3.63,1.88-7.46,2.08-11.43,0-.18.02-.36.02-.54.95-25.82-20.52-47.74-48.22-49.09-27.89-1.36-51.52,18.66-52.79,44.71Z"/>
        <path class="cls-8" d="m37.47,56.48c-1.27,26.05,20.31,48.27,48.2,49.63,20.97,1.02,39.54-10.05,47.99-26.69-10.52,10.11-25.48,16.07-41.79,15.28-28.88-1.41-51.52-23.5-52.17-50.12-1.26,3.77-2.03,7.76-2.23,11.9Z"/>
        <g class="cls-5">
          <path class="cls-1" d="m71.28,28.82c.7,3.96,10.53,1.23,27.88,6.16,12.12,3.44,19.56,15.63,24.4,12.37s-5.21-17.78-17.19-23.44c-18.44-8.71-35.8.95-35.1,4.91Z"/>
        </g>
        <g class="cls-5">
          <ellipse class="cls-1" cx="53.98" cy="66.11" rx="6.35" ry="8.45" transform="translate(-9.19 8.72) rotate(-8.51)"/>
        </g>
        <g class="cls-5">
          <ellipse class="cls-1" cx="57.57" cy="80.86" rx="3.14" ry="3.62" transform="translate(-30.87 35.8) rotate(-27.55)"/>
        </g>
        <g>
          <g>
            <path class="cls-1" d="m25.49,46.82l1.51,21.86.94,13.62,7.57.73.72.07c3.33-.3,5.44-9.18,4.7-19.83-.02-.24-.04-.49-.06-.73-.83-10.3-4.05-18.29-7.3-18l-.7.2-7.38,2.08Z"/>
            <g class="cls-6">
              <path class="cls-10" d="m27,68.68l.94,13.62,7.57.73.72.07c3.33-.3,5.44-9.18,4.7-19.83-.02-.24-.04-.49-.06-.73l-.44-1.28s-1.01,4.54-3.17,5.15c-2.29.65-3.74-4.87-3.74-4.87l-6.52,7.13Z"/>
            </g>
          </g>
          <path class="cls-10" d="m36.22,84.73c-.05,0-.11,0-.16,0l-8.29-.8c-.8-.08-1.42-.72-1.47-1.51l-2.45-35.48c-.05-.77.44-1.47,1.19-1.68l8.07-2.28c.1-.03.2-.05.3-.06.73-.07,1.87.07,3.07,1.1,3.06,2.61,5.44,10.12,6.06,19.15.69,10.06-.95,21.09-6.18,21.57-.05,0-.1,0-.15,0Zm-6.75-3.93l6.7.65c1.36-.41,3.91-6.68,3.12-18.07-.61-8.85-2.94-15.19-4.92-16.88-.22-.19-.42-.3-.57-.33l-6.59,1.86,2.26,32.78Z"/>
          <path class="cls-1" d="m21.05,62.51s0,0,0,.01c.01.83.05,1.68.11,2.55.67,9.79,3.7,17.51,6.77,17.23,2.97-.27,4.89-7.99,4.38-17.43-.01-.27-.03-.54-.05-.82-.67-9.79-3.71-17.51-6.77-17.24-2.79.26-4.65,7.06-4.45,15.69Z"/>
          <g class="cls-6">
            <path class="cls-10" d="m21.05,62.52c.01.83.05,1.68.11,2.55.67,9.79,3.7,17.51,6.77,17.23,2.97-.27,4.89-7.99,4.38-17.43-1.27,3.46-3.95,9.57-6.6,7.86-1.55-1-3.37-6.02-4.66-10.21Z"/>
          </g>
          <path class="cls-10" d="m27.78,83.94c-.69,0-1.63-.21-2.62-1.06-2.84-2.42-5.05-9.37-5.63-17.71-.64-9.31.9-19.54,5.81-19.98.7-.06,1.78.06,2.92,1.04,2.84,2.42,5.05,9.37,5.63,17.71.64,9.31-.9,19.54-5.81,19.98-.09,0-.2.01-.3.01Zm-2.13-35.49s0,0-.01,0c-1.15.1-3.57,6.02-2.85,16.5.56,8.11,2.68,13.91,4.48,15.45.25.21.44.28.51.27,1.15-.1,3.57-6.02,2.84-16.5-.56-8.11-2.68-13.91-4.48-15.45-.24-.2-.41-.27-.5-.27Z"/>
        </g>
      </g>
    </g>
    <g>
      <path class="cls-1" d="m131.12,137.95c-4.28,1.64-6.03-1.91-6.03-1.91,0,0-4.78,2.34-6.05-1.6,0,0-3.43,3.12-6.93-.51,0,0-5.46,1.41-5.72-4.73-.03-.66,0-1.39.11-2.22,1.07-8.67,8.62-12.56,13.58-12.72,1.26-.04,2.61.16,3.97.55,4,1.16,8.06,4.03,9.99,7.44,1.61,2.83,1.35,14.08-2.93,15.71Z"/>
      <path class="cls-10" d="m128.97,139.97c-2.04,0-3.54-.98-4.46-2.02-1.14.34-2.84.62-4.38-.03-.51-.22-1.13-.6-1.66-1.24-1.88.85-4.48.98-6.88-1.07-1.15.11-3.14.05-4.71-1.34-1.71-1.5-2.36-4.03-1.94-7.49,1.23-9.95,9.91-13.94,15.09-14.12,5.62-.2,12.53,3.75,15.4,8.8,1.5,2.64,1.5,9.31,0,13.48-.85,2.36-2.1,3.87-3.74,4.49-.99.38-1.9.54-2.72.54Zm-3.87-5.51c.59,0,1.15.32,1.42.88.19.36,1.31,2.18,4.04,1.13.71-.27,1.38-1.2,1.89-2.61,1.32-3.67,1.08-9.35.23-10.85-2.26-3.98-8.12-7.36-12.54-7.2-4.14.14-11.07,3.34-12.05,11.34-.29,2.32.02,3.95.87,4.72,1.03.92,2.76.51,2.78.51.55-.13,1.13.03,1.52.44,2.37,2.45,4.49.66,4.72.44.4-.36.95-.5,1.47-.36.52.14.93.53,1.1,1.05.23.72.58.94.82,1.05.96.41,2.56-.16,3.04-.39.22-.11.46-.16.69-.16Z"/>
      <path class="cls-10" d="m110.54,133.8c.9-3.16,2.07-6.59,4.79-8.62-1.77,2.54-1.79,5.91-1.63,8.87,0,0-3.16-.25-3.16-.25h0Z"/>
      <path class="cls-10" d="m117.46,134.35c.77-2.91,1.89-5.88,3.99-8.04-1.12,2.59-1.12,5.5-.83,8.22,0,0-3.16-.18-3.16-.18h0Z"/>
      <path class="cls-10" d="m123.52,135.9c.91-3,2.07-6.34,4.81-8.1-1.82,2.32-1.81,5.58-1.66,8.37,0,0-3.15-.28-3.15-.28h0Z"/>
      <g class="cls-6">
        <path class="cls-10" d="m131.12,137.95c-4.28,1.64-6.03-1.91-6.03-1.91,0,0-4.78,2.34-6.05-1.6,0,0-3.43,3.12-6.93-.51,0,0-5.46,1.41-5.72-4.73l.35-.55s5.8,2.08,7.27-1.74l.58-.91s-.12,6.64,5.64,2.66l.59-1.32s-.59,6.05,5.88,3.26l.59-1.67s.09,4.28,3.35,3c3.25-1.29,1.93-14.64-6.63-16.16-3.07-.55-2.3-.87.03-.97,4,1.16,8.06,4.03,9.99,7.44,1.61,2.83,1.35,14.08-2.93,15.71Z"/>
      </g>
    </g>
    <path class="cls-10" d="m31.17,127.86l6.95-7.02-4.37,8.86c-1.21,2.15-4.22,0-2.58-1.84h0Z"/>
    <path class="cls-10" d="m40.95,125.89l5.78-8.18-2.94,9.58c-.85,2.31-4.15.69-2.84-1.4h0Z"/>
    <path class="cls-10" d="m32.46,130.13c-.52,0-1.01-.3-1.24-.81-4.94-11.2-16.51-16-16.62-16.05-.69-.28-1.02-1.07-.74-1.76.28-.69,1.07-1.03,1.76-.75.52.21,12.69,5.24,18.08,17.46.3.68,0,1.48-.69,1.78-.18.08-.36.12-.55.12Z"/>
    <path class="cls-10" d="m118.38,190.55c-3.84.66-7.69,1.82-11.08,3.86,2.86-2.96,6.45-5.17,10.2-6.9,2.24-.85,3.23,2.57.88,3.04h0Z"/>
    <path class="cls-10" d="m99.52,209c-3.27,0-8.26-1.4-10.35-6.94-.31-.82.1-1.73.92-2.04.82-.31,1.73.1,2.04.92,2.12,5.61,8.1,4.86,8.35,4.82.07,0,.14-.02.21-.02.2,0,19.62-.17,27,0,5.9.15,6.58-2.97,6.58-3,.14-.86.96-1.44,1.82-1.3.86.14,1.45.96,1.3,1.82-.04.24-1.06,5.83-9.78,5.65-7.05-.16-25.26-.01-26.79,0-.39.05-.83.08-1.31.08Z"/>
    <path class="cls-10" d="m86.97,178.17l.39-12.4,2.76,12.1c.41,2.35-3.11,2.69-3.15.3h0Z"/>
    <path class="cls-10" d="m100.63,146.1c-5.03-.98-10.45.3-14.54,3.39-.55.41-1.65,1.27-2.18,1.7-6.84,5.19-14.74,8.7-22.76,11.59-.18.06-.37-.03-.43-.21-.05-.16.01-.32.15-.4,6.35-3.86,12.71-7.82,18.75-12.08,1.03-.75,2.28-1.66,3.27-2.45,3.52-2.87,7.89-4.76,12.45-5.07,2.07-.15,4.12-.04,6.14.48,2.01.61,1.19,3.57-.85,3.05h0Z"/>
    <path class="cls-10" d="m111.1,152.92c-8.44-1.42-16.81,2.26-20.28,10.34-1.17,2.54-1.9,5.3-2.32,8.12-.06.39-.43.67-.82.61-.39-.06-.65-.41-.61-.79.33-2.93.98-5.86,2.14-8.64,3.57-9.14,12.9-13.59,22.4-12.29,1.81.34,1.31,3.01-.51,2.65h0Z"/>
    <path class="cls-10" d="m76.7,155.87h-11.25c-3.69,0-6.69-3-6.69-6.69v-18.88c0-4.51,3.67-8.17,8.17-8.17h25.13c4.25,0,7.71,3.46,7.71,7.71v14.34h-3.17v-14.34c0-2.5-2.04-4.54-4.54-4.54h-25.13c-2.76,0-5.01,2.25-5.01,5.01v18.88c0,1.95,1.58,3.53,3.53,3.53h11.25v3.17Z"/>
    <path class="cls-1" d="m62.39,145.56c2.44-2.35,2.58-6.92.73-9.22-.66-.82-1.74-1.21-2.78-1.04-7.46,1.21-15.78-1.46-19.19-2.74-1.27-.48-2.72-.13-3.59.91-1.48,1.77-1.74,4.35-1.13,7.5.19.96.81,1.77,1.67,2.22,2.65,1.41,9.42,4,22.36,3.21.72-.04,1.41-.34,1.93-.84Z"/>
    <path class="cls-10" d="m55.79,148.13c-10.1,0-15.79-2.14-18.44-3.54-1.3-.69-2.21-1.9-2.48-3.32-.74-3.8-.25-6.76,1.47-8.82,1.29-1.54,3.45-2.1,5.37-1.38,3.15,1.18,11.26,3.82,18.38,2.66,1.62-.26,3.25.36,4.26,1.61,2.45,3.04,2.03,8.56-.86,11.36-.79.76-1.83,1.21-2.94,1.28-1.68.1-3.27.15-4.76.15Zm-15.81-14.2c-.47,0-.92.2-1.22.55-1.07,1.28-1.34,3.36-.79,6.18.09.47.41.89.86,1.13,2.21,1.17,8.72,3.81,21.52,3.03.35-.02.69-.17.93-.4h0c1.88-1.81,1.9-5.48.59-7.09-.3-.37-.8-.55-1.29-.47-7.87,1.28-16.61-1.55-20-2.82-.2-.07-.4-.11-.61-.11Z"/>
    <path class="cls-10" d="m74.36,155.64c-4.05,0-7.35-3.3-7.35-7.35v-18.58c0-4.05,3.3-7.35,7.35-7.35h1.77c.75,0,1.35.61,1.35,1.35s-.61,1.35-1.35,1.35h-1.77c-2.56,0-4.65,2.08-4.65,4.65v18.58c0,2.56,2.08,4.65,4.65,4.65.75,0,1.35.61,1.35,1.35s-.61,1.35-1.35,1.35Z"/>
    <path class="cls-10" d="m87.79,147.61c-.75,0-1.35-.61-1.35-1.35v-5.48l-7.28-4.34c-.41-.24-.66-.68-.66-1.16v-10.81c0-.75.61-1.35,1.35-1.35s1.35.61,1.35,1.35v10.04l7.28,4.34c.41.24.66.68.66,1.16v6.25c0,.75-.61,1.35-1.35,1.35Z"/>
    <path class="cls-10" d="m91.63,136.33c-1.96,0-3.55-1.77-3.55-3.95s1.59-3.95,3.55-3.95,3.55,1.77,3.55,3.95-1.59,3.95-3.55,3.95Zm0-5.2c-.4,0-.84.51-.84,1.25s.45,1.25.84,1.25.84-.51.84-1.25-.45-1.25-.84-1.25Z"/>
    <path class="cls-10" d="m96.62,130.12l3.84-13.68-.72,14.19c-.23,2.33-3.65,1.77-3.12-.51h0Z"/>
    <path class="cls-10" d="m103.25,141.68c-.11,0-.23-.01-.35-.04-.85-.19-1.39-1.03-1.2-1.89.17-.78.38-3.12-.66-4.56-.59-.81-1.51-1.28-2.83-1.43-.87-.1-1.49-.88-1.4-1.75.1-.87.87-1.5,1.75-1.4,2.24.25,3.94,1.17,5.06,2.74,2.07,2.9,1.21,6.91,1.17,7.08-.16.74-.82,1.24-1.54,1.24Z"/>
    <g class="cls-6">
      <path class="cls-10" d="m76.13,112.89s-16.98,1.47-30.83-6.75c0,0-17.4.53-26.52,20.46-9.12,19.92-5.24,24.82,3.21,22.12,0,0-.97,1.86-2.32,4.21-2.39,1.99-6.18,3.21-11.53-.57-10.14-7.18-6.42-15.63-2.96-23.65,3.47-8.03,14-31.91,42.1-29.94h.01c8.19,7.64,17.91,12.12,28.84,14.13Z"/>
    </g>
    <g class="cls-6">
      <path class="cls-10" d="m123.12,213.58h-27.93s-4.36,1.35-4.45-8.7c-.09-10.05-2.2-26.86-2.2-26.86-23.35,13.43-46.56,7.21-52.43-11.49l-3.22-.32c-5.78-.57-10.24-4.78-11.51-10.05v-.02s11.88.45,14.02-6.96c.14-.45.23-.93.28-1.43v-.02c.93-8.93.62-11.69.62-11.69,0,0,4.55-5.35,5.26-7.07.03-.07.05-.14.07-.2,0-.01,0-.02,0-.03.1-.37.32-1.03.61-1.82h0c.87-2.45,2.28-6.08,2.28-6.08l1.43-1.6,2.12-1.77,2.14-1.78s-1.66,3.35-2.62,7.37c-.53,2.18-.84,4.55-.58,6.69.26,2.11,1.07,3.99,2.81,5.24l-3.2-.75-1.32-.31s-5.75,8.74.35,11.54c.32.15.67.28,1.05.39l2.53.34s-10.55,16.36,2.46,22.78c13.01,6.42,36.83-5.58,36.83-5.58,0,0,10.52-9.06,12.36,7.47,1.83,16.52-4.25,31.34,4.2,35.5,8.45,4.17,25.46,0,25.46,0,0,0,.71,4.89-7.44,7.21Z"/>
    </g>
    <g class="cls-6">
      <path class="cls-10" d="m87.37,178.69l-1.07,4.36v.02s0,0-.01,0c-.26.3-8.91,10.41-24.54,8.65,0,0-12.72,24.71-10.92,34.25,1.8,9.55,6.89,12.08,12.91,10.81,6.01-1.26,13.44-3.43,15.58-10.33,1.18,3.04,1.24,6.69.21,9.89-1.13,3.53-4.47,5.87-8.16,5.87h-25.98c-4.01,0-7.56-2.76-8.39-6.69-.49-2.32-.4-5.38.89-9.37,2.99-9.27,11.34-30.55,15.76-41.67,0,0,19.6,5.92,33.74-5.81Z"/>
    </g>
  </g>
  <rect class="cls-3" x="160.69" y="154.81" width="55.08" height="161.5"/>
  <g class="cls-7">
    <rect class="cls-11" x="160.69" y="305.94" width="55.08" height="10.36"/>
  </g>
  <g class="cls-4">
    <rect class="cls-1" x="160.69" y="154.81" width="55.08" height="5.74"/>
  </g>
  <path class="cls-10" d="m215.76,317.88h-55.08c-.87,0-1.58-.71-1.58-1.58v-161.5c0-.87.71-1.58,1.58-1.58h55.08c.87,0,1.58.71,1.58,1.58v161.5c0,.87-.71,1.58-1.58,1.58Zm-53.49-3.17h51.91v-158.33h-51.91v158.33Z"/>
  <rect class="cls-10" x="184.34" y="94.16" width="7.77" height="60.64"/>
  <rect class="cls-10" x="184.34" y="316.3" width="7.77" height="60.64"/>
  <rect class="cls-9" x="92" y="213.65" width="55.08" height="122.71"/>
  <g class="cls-7">
    <rect class="cls-11" x="92" y="325.99" width="55.08" height="10.36"/>
  </g>
  <g class="cls-4">
    <rect class="cls-1" x="92" y="213.64" width="55.08" height="5.74"/>
  </g>
  <path class="cls-10" d="m147.07,337.93h-55.08c-.87,0-1.58-.71-1.58-1.58v-122.71c0-.87.71-1.58,1.58-1.58h55.08c.87,0,1.58.71,1.58,1.58v122.71c0,.87-.71,1.58-1.58,1.58Zm-53.49-3.17h51.91v-119.54h-51.91v119.54Z"/>
  <rect class="cls-10" x="115.65" y="336.35" width="7.77" height="60.64"/>
  <rect class="cls-2" x="23.69" y="242.22" width="55.08" height="133.06"/>
  <g class="cls-7">
    <rect class="cls-1" x="23.69" y="364.92" width="55.08" height="10.36"/>
  </g>
  <g class="cls-4">
    <rect class="cls-1" x="23.69" y="242.22" width="55.08" height="5.74"/>
  </g>
  <path class="cls-10" d="m78.76,376.87H23.69c-.87,0-1.58-.71-1.58-1.58v-133.06c0-.87.71-1.58,1.58-1.58h55.08c.87,0,1.58.71,1.58,1.58v133.06c0,.87-.71,1.58-1.58,1.58Zm-53.49-3.17h51.91v-129.9H25.27v129.9Z"/>
  <rect class="cls-10" x="47.34" y="375.28" width="7.77" height="51.17"/>
</svg>