<?xml version="1.0" encoding="UTF-8"?>
<svg id="Layer_1" data-name="Layer 1" xmlns="http://www.w3.org/2000/svg" xmlns:xlink="http://www.w3.org/1999/xlink" viewBox="0 0 2596.8 3319.77">
  <defs>
    <style>
      .cls-1 {
        clip-path: url(#clippath-4);
      }

      .cls-1, .cls-2, .cls-3, .cls-4, .cls-5, .cls-6, .cls-7, .cls-8, .cls-9, .cls-10, .cls-11, .cls-12, .cls-13, .cls-14, .cls-15 {
        fill: none;
      }

      .cls-16 {
        fill: url(#linear-gradient-2);
      }

      .cls-17 {
        fill: #1c7aea;
      }

      .cls-2 {
        clip-path: url(#clippath-2);
      }

      .cls-18 {
        fill: #fff;
      }

      .cls-19 {
        fill: #111a28;
      }

      .cls-3 {
        clip-path: url(#clippath-6);
      }

      .cls-20 {
        fill: #d8d8d8;
      }

      .cls-4 {
        opacity: .35;
      }

      .cls-21 {
        fill: #b2b2b2;
      }

      .cls-22 {
        fill: #ff2929;
      }

      .cls-23 {
        fill: #cc3232;
      }

      .cls-5 {
        clip-path: url(#clippath-7);
      }

      .cls-6 {
        opacity: .3;
      }

      .cls-7 {
        clip-path: url(#clippath-5);
      }

      .cls-24 {
        fill: #f75252;
      }

      .cls-25 {
        fill: #e5e5e5;
      }

      .cls-26 {
        fill: #ffac48;
      }

      .cls-27 {
        fill: #22a7f0;
      }

      .cls-8 {
        clip-path: url(#clippath-3);
      }

      .cls-9 {
        opacity: .5;
      }

      .cls-11 {
        opacity: .2;
      }

      .cls-12 {
        clip-path: url(#clippath);
      }

      .cls-28 {
        fill: #371a45;
      }

      .cls-29 {
        fill: url(#linear-gradient-3);
      }

      .cls-13 {
        opacity: .25;
      }

      .cls-14 {
        opacity: .7;
      }

      .cls-15 {
        clip-path: url(#clippath-1);
      }

      .cls-30 {
        fill: url(#linear-gradient);
      }

      .cls-31 {
        fill: #b5b5b5;
      }

      .cls-32 {
        fill: url(#linear-gradient-4);
      }
    </style>
    <clipPath id="clippath">
      <path class="cls-10" d="m546.6,2402.46c-27.29,53.28-73.63,136.3-73.63,136.3,12.24,3.97,63.85-8.23,63.85-8.23-28.73,35.69-45.29,75.74-59.01,185.67-13.73,109.94-95.81,284.49-95.81,284.49,49.28-11.23,135.22,4.97,235.67,21.16,142.76,23.03,314.83,46.05,452.64-9.69,256.18-103.63,296.21-329.95,296.21-329.95l-380.62-530.8c-9.15-.31-18.06-.47-26.82-.47-276.71.02-362.15,153.26-412.49,251.51"/>
    </clipPath>
    <linearGradient id="linear-gradient" x1="-2895.79" y1="-2368.01" x2="-2891.18" y2="-2368.01" gradientTransform="translate(-564937.18 465464.99) rotate(180) scale(195.46 -195.46)" gradientUnits="userSpaceOnUse">
      <stop offset="0" stop-color="#ff4545"/>
      <stop offset="1" stop-color="#f7931e"/>
    </linearGradient>
    <clipPath id="clippath-1">
      <path class="cls-10" d="m353.12,2748.54c-11.95,48.58-56.68,78.1-56.68,78.1,0,0,21.21,6.42,76.41-28.13,55.2-34.55,67.84-89.89,69.91-125.58,2.07-35.69,13.8-63.06,13.8-63.06-72.05,18.3-91.5,90.09-103.45,138.67"/>
    </clipPath>
    <linearGradient id="linear-gradient-2" x1="-2910.15" y1="-2148.36" x2="-2905.54" y2="-2148.36" gradientTransform="translate(-120887.86 92295.94) rotate(180) scale(41.69 -41.69)" xlink:href="#linear-gradient"/>
    <clipPath id="clippath-2">
      <path class="cls-10" d="m247.36,3064.04c-21.93,65.53-21.8,82.54-46.82,93.94,0,0,59.17,1.84,102.3-34.12,43.13-35.96,75.75-77.45,122.74-79.96,0,0-60-14.23-105.06,2.19,0,0,4.81-48.01,33.47-95.73,0,0-84.69,48.15-106.62,113.67"/>
    </clipPath>
    <linearGradient id="linear-gradient-3" x1="-3038.86" y1="-1958.79" x2="-3034.25" y2="-1958.79" gradientTransform="translate(-71146.89 49146.54) rotate(-180) scale(23.53 -23.53)" xlink:href="#linear-gradient"/>
    <clipPath id="clippath-3">
      <rect class="cls-10" x="1374.15" y="1265.01" width="79.11" height="103.98"/>
    </clipPath>
    <clipPath id="clippath-4">
      <rect class="cls-10" x="1409.84" y="1266.36" width="83.32" height="61.8"/>
    </clipPath>
    <clipPath id="clippath-5">
      <path class="cls-10" d="m13.87,3305.93s30.01-33.91,60.61-53.19c42.5-26.79,50.8-66.65,50.8-66.65-4.11-.34-8.06-.5-11.87-.5-103.18,0-99.54,120.34-99.54,120.34"/>
    </clipPath>
    <linearGradient id="linear-gradient-4" x1="-3015.87" y1="-1964.67" x2="-3011.25" y2="-1964.67" gradientTransform="translate(-72233.1 50388.71) rotate(-180) scale(24 -24)" xlink:href="#linear-gradient"/>
    <clipPath id="clippath-6">
      <rect class="cls-10" x="1444.26" y="1954.9" width="118.18" height="383.76"/>
    </clipPath>
    <clipPath id="clippath-7">
      <rect class="cls-10" x="1612.35" y="1995.12" width="74.34" height="348.5"/>
    </clipPath>
  </defs>
  <g class="cls-12">
    <rect class="cls-30" x="207.59" y="1950.8" width="1333.36" height="1317.26" transform="translate(-1347.05 984.87) rotate(-35.3)"/>
  </g>
  <g>
    <path class="cls-28" d="m864.97,3060.67c73.07,0,145.23-9.25,210.54-35.67,260.3-105.29,302.96-330.82,304.65-340.37.65-3.67-.21-7.45-2.38-10.48l-380.62-530.8c-2.5-3.49-6.48-5.62-10.78-5.77-313.98-10.69-403.88,164.45-452.11,258.57-26.87,52.45-72.93,135.04-73.39,135.86-2.02,3.62-2.31,7.95-.8,11.81,1.51,3.86,4.68,6.84,8.62,8.11,7.64,2.49,22.3,1.3,37.37-1.09-18.36,32.3-31.12,76.47-42.01,163.65-13.29,106.47-93.78,278.58-94.59,280.31-2.25,4.8-1.58,10.45,1.74,14.58,3.32,4.12,8.71,5.99,13.86,4.82,41.73-9.52,115.42,2.54,200.77,16.51,85.63,14.01,183.16,29.97,279.11,29.97Zm486.72-375.39c-8.24,34.58-62.84,223.55-286.56,314.04-143.88,58.2-327.36,28.17-474.8,4.04-73.42-12.01-138.52-22.66-185.38-19.72,22.8-51.42,75.59-177.5,86.61-265.74,13.62-109.12,29.56-145.8,56.06-178.71,3.71-4.6,4.08-11.06.93-16.06-3.15-5-9.15-7.45-14.9-6.09-11.97,2.83-25.67,5.49-36.74,7.11,15.64-28.33,43.38-78.99,62.03-115.39,45.07-87.97,128.74-250.94,419.73-243.73l373.04,520.23Z"/>
    <path class="cls-26" d="m970.28,2260.96s-96.25-7.14-180.2,44.72c-71.67,44.26-92.62,93.91-98.53,138.05-5.91,44.14-6.98,96.97-45.54,126.67,0,0,30.56,8.24,50.6-1.53,0,0-63.6,99.85-24.93,217.07,0,0,39.8,2.65,72.98,11.05,33.19,8.4,142.78,15.33,172.37,15.91,0,0-39.48,30.99-41.29,44.36,0,0,48.35-4.83,87.86,6.08,39.51,10.91,239.15,13.63,272.07-171.95,32.93-185.58-265.38-430.42-265.38-430.42"/>
  </g>
  <g class="cls-15">
    <rect class="cls-16" x="239.19" y="2590.56" width="274.64" height="261.83" transform="translate(-2029.57 1395.22) rotate(-53.26)"/>
  </g>
  <path class="cls-28" d="m301.21,2840.93c12.3,0,37.24-4.55,78.99-30.68,58.72-36.75,73.95-94.52,76.39-136.51,1.89-32.62,12.61-58.16,12.72-58.42,2.06-4.84,1.2-10.44-2.23-14.44-3.43-3.99-8.81-5.72-13.91-4.41-82.03,20.83-102.49,104.06-113.48,148.78-10.53,42.82-50.45,69.58-50.86,69.84-4.48,2.96-6.85,8.24-6.07,13.55.78,5.31,4.55,9.7,9.69,11.25,1.25.38,4.1,1.04,8.77,1.04Zm133.54-207.6c-2.6,10.86-4.96,24.16-5.81,38.79-2.06,35.48-14.73,84.17-63.43,114.65-8.02,5.02-15.22,9.1-21.66,12.4,9.49-12.93,18.17-28.84,22.71-47.32,11.26-45.78,26.8-95.08,68.18-118.52Z"/>
  <g class="cls-2">
    <rect class="cls-29" x="159.48" y="2902.37" width="307.16" height="305.44" transform="translate(-1910.57 936.81) rotate(-40.54)"/>
  </g>
  <g>
    <path class="cls-28" d="m202.17,3171.85c11.52,0,67.04-1.92,109.53-37.34,9.94-8.29,19.26-16.79,28.26-25.01,29.44-26.87,54.87-50.08,86.35-51.76,6.88-.37,12.44-5.73,13.05-12.58s-3.9-13.12-10.6-14.71c-2.23-.53-47.46-11-90.73-3.24,4.07-17.41,12.22-43.72,27.82-69.69,3.24-5.4,2.43-12.3-1.96-16.8-4.39-4.5-11.27-5.47-16.75-2.36-3.64,2.08-89.56,51.58-112.9,121.32-4.5,13.43-8.01,24.64-11.11,34.53-11.79,37.6-14.45,44.88-28.33,51.21-5.85,2.67-9.1,9.01-7.83,15.32,1.26,6.31,6.71,10.91,13.14,11.11.23,0,.94.02,2.06.02Zm163.33-119.71c-15.2,10.42-29.52,23.49-44.21,36.9-8.78,8.01-17.86,16.3-27.33,24.19-18.24,15.21-39.86,22.95-57.67,26.88,4.51-9.78,8.34-22,13.25-37.66,3.07-9.77,6.53-20.84,10.95-34.02,10.22-30.53,36.06-57.48,58.96-76.57-10.24,29.28-12.58,51.46-12.72,52.85-.48,4.74,1.52,9.39,5.28,12.31,3.76,2.92,8.77,3.7,13.24,2.08,12.62-4.6,26.76-6.51,40.25-6.97Z"/>
    <path class="cls-21" d="m1190.72,2741.82s-15.47-34.58.38-64.94c15.85-30.37,51.2-8.59,51.2-8.59l43.03,31.99-6.5,34.25-88.12,7.29Z"/>
    <path class="cls-21" d="m873.06,2298.82s27.78,25.75,61.63,20.48c33.85-5.28,24.56-45.74,24.56-45.74l-16.49-51.01-34.53-4.84-35.18,81.12Z"/>
    <path class="cls-28" d="m1190.71,2755.67c.38,0,.76-.02,1.15-.05l88.12-7.29c6.2-.51,11.3-5.1,12.46-11.22l6.5-34.25c.99-5.21-1.09-10.53-5.34-13.7l-43.03-31.99c-.32-.24-.66-.46-1-.67-2.34-1.45-23.44-13.9-44.63-8.08-11.16,3.08-20.19,10.7-26.11,22.05-18.74,35.89-1.48,75.34-.74,77,2.24,5.01,7.21,8.19,12.63,8.19Zm76.48-34.07l-66.79,5.53c-2.72-10.46-5.2-28.2,2.96-43.84,3.1-5.94,6.53-7.5,8.85-8.14,7.8-2.18,18.58,2.54,22.42,4.71l35.47,26.37-2.92,15.38Z"/>
    <path class="cls-22" d="m1332.44,1652.69l-282.82-196.6s-97.53-46.8-147.72,2.28c-50.19,49.09-221.96,305.72-221.96,305.72,0,0,150.79-93.7,267.25-104.78,116.47-11.08,265.09,138.75,265.09,138.75"/>
    <g class="cls-13">
      <path class="cls-28" d="m1332.44,1652.69l-282.82-196.6s-97.53-46.8-147.72,2.28c-50.19,49.09-221.96,305.72-221.96,305.72,0,0,150.79-93.7,267.25-104.78,116.47-11.08,265.09,138.75,265.09,138.75"/>
    </g>
    <path class="cls-28" d="m1212.28,1811.91c3.53,0,7.05-1.33,9.75-4.01,5.43-5.39,5.46-14.15.08-19.58-6.25-6.31-154.48-154.44-276.23-142.78-76.77,7.3-166.28,48.44-221.42,77.5,52.28-76.66,151.77-220.19,187.12-254.76,40.26-39.38,121.54-4.46,131.13-.12l281.83,195.9c6.28,4.36,14.9,2.81,19.27-3.47,4.37-6.28,2.81-14.91-3.47-19.27l-282.83-196.6c-.61-.42-1.25-.79-1.91-1.11-4.34-2.08-106.92-50.36-163.39,4.87-50.63,49.52-216.73,297.39-223.78,307.92-3.63,5.42-2.98,12.63,1.55,17.32,4.54,4.69,11.73,5.58,17.26,2.14,1.48-.92,149.43-92.12,261.26-102.76,108.76-10.3,252.5,133.27,253.95,134.72,2.71,2.73,6.27,4.09,9.83,4.09Z"/>
    <path class="cls-24" d="m1270.12,1703.74l-307.37-256.85s-38.76-8.87-79.62,23.95c-43.46,34.91-165.89,165.23-190.99,227.5-6.91,17.13-12.2,65.76-12.2,65.76,0,0,75.98-65.21,125.33-101.6,49.36-36.39,73.16-50.04,84.11-27.65,11.49,23.49,147.82,375.43,149.09,412.74,1.27,37.32,231.65-343.84,231.65-343.84"/>
    <path class="cls-22" d="m1270.11,1703.74s-127.38,210.72-193.19,303.49c-22.71,31.98-38.12,49.93-38.44,40.38-1.29-37.34-137.62-389.28-149.11-412.77-10.94-22.38-34.75-8.72-84.09,27.65-49.38,36.41-125.34,101.62-125.34,101.62,0,0,5.31-48.64,12.18-65.76,25.11-62.25,147.54-192.58,191.02-227.47,40.84-32.81,79.61-23.95,79.61-23.95l16.52,13.79,290.84,243.03Z"/>
    <g class="cls-14">
      <path class="cls-18" d="m1270.11,1703.74s-2.54,4.25-7.15,11.77l-273.72-228.73-16.52-13.8s-38.77-8.86-79.61,23.95c-43.47,34.89-165.91,165.22-191.02,227.48-2.4,6.05-4.66,16.07-6.51,26.4-9.65,8.17-15.65,13.29-15.65,13.29,0,0,5.31-48.64,12.18-65.76,25.11-62.25,147.54-192.58,191.02-227.47,40.84-32.81,79.61-23.95,79.61-23.95l16.52,13.79,290.84,243.03Z"/>
    </g>
    <g class="cls-13">
      <path class="cls-28" d="m1270.11,1703.74s-127.38,210.72-193.19,303.49c-50.58-113.58-135.54-335.84-97.65-546.52l290.84,243.03Z"/>
    </g>
    <path class="cls-28" d="m1041.14,2064.34c11.74,0,31.11-18.77,132.29-178.21,54.78-86.31,108.01-174.34,108.54-175.21,3.54-5.85,2.27-13.4-2.97-17.79l-307.37-256.85c-1.67-1.4-3.66-2.39-5.79-2.87-1.85-.42-45.82-9.94-91.38,26.65-44.63,35.85-168.87,167.89-195.17,233.12-7.41,18.38-12.56,64.26-13.12,69.43-.62,5.65,2.29,11.1,7.31,13.75,5.03,2.66,11.16,1.96,15.47-1.74.75-.65,76.16-65.3,124.53-100.97,15.45-11.39,51.67-38.06,61.22-35.74.51.12,1.44,1.37,2.25,3.03,15.67,32.04,146.6,374.97,147.69,407.12.32,9.26,6.44,14.11,11.59,15.45,1.63.42,3.19.83,4.92.83Zm210.98-357.59c-79.79,131.64-169.34,272.41-204.56,317.11-24.76-91.28-138-379.27-145.75-395.1-4.69-9.59-11.6-15.57-20.53-17.76-18.96-4.62-41.3,8.69-84.24,40.35-30.55,22.53-71.52,56.27-98.36,78.75,1.87-10.8,4.05-21.03,6.29-26.59,24.28-60.23,145.06-188.33,186.83-221.88,29.02-23.31,56.17-22.67,65-21.67l295.32,246.77Z"/>
    <path class="cls-18" d="m1390.63,780.75l-14.08,82.97-7.15,42.26-123.51,728.81s-48.14-11.44-111.49-32.09c-12.39-4.04-25.37-8.42-38.67-13.15-99.19-35.13-216.93-88.87-250.74-154.07-50.53-97.5,32.43-489.7,132.38-628.16,45.8-63.48,198.61-57.34,305-44.22,11.9,1.44,23.22,3,33.73,4.56,44.33,6.53,74.52,13.07,74.52,13.07"/>
    <g class="cls-11">
      <path class="cls-28" d="m1376.55,863.72l-7.15,42.26-98.07,578.69-25.44,150.13s-1.01-.24-2.91-.71c-.54-.14-1.19-.31-1.87-.47-.54-.14-1.15-.3-1.76-.45-.47-.1-.93-.23-1.4-.33-.18-.06-.4-.09-.57-.15-.86-.23-1.83-.46-2.84-.74-.22-.03-.43-.1-.68-.17-.83-.22-1.69-.44-2.62-.67-1.26-.31-2.55-.66-3.91-1.03-.97-.28-2.01-.52-3.05-.8-1.08-.29-2.15-.58-3.26-.87-1.4-.37-2.87-.78-4.38-1.17-3.05-.84-6.27-1.71-9.67-2.67-3.01-.8-6.16-1.69-9.45-2.64-3.79-1.09-7.77-2.21-11.88-3.41-15.19-4.44-32.54-9.72-51.24-15.81-3.63-1.18-7.33-2.41-11.07-3.65-2.6-.86-5.27-1.77-7.93-2.68-6.44-2.18-13.05-4.46-19.68-6.83-99.23-35.14-216.93-88.87-250.7-154.06-41.64-80.28,7.23-360.39,81.64-534.13-43.58,156.44-63.63,330.38-32.24,390.88,15.51,29.92,119.83-38.68,129.6-89.81,25.18-131.87,82.89-295.73,223.1-368.76,3.64-1.9,70.67,23,129.42,30.04"/>
    </g>
    <path class="cls-28" d="m1260.82,1657.32l150.95-890.87-17.24-3.74c-36.08-7.82-354.78-73.38-432.13,33.79-47.7,66.07-95.86,194.99-125.71,336.45-11.49,54.45-46.04,237.82-8.08,311.04,64.65,124.71,398.84,205.4,413.04,208.77l19.17,4.56Zm108.62-862.07l-138.4,816.82c-103.54-26.86-325.4-99.7-369.66-185.07-47.01-90.69,36.21-477.65,130.95-608.88,50.58-70.05,274.89-42.83,377.11-22.86Z"/>
    <path class="cls-18" d="m884.46,1133.69l136.25,41.96c12.17,3.75,20.34,15.39,19.85,28.36-1.79,47.51-11.49,157.03-62.57,182.37-42.39,21.04-100.25,4.36-128.16-33.1-31.22-41.91-12.4-147.22-.6-198.79,3.67-16.03,19.79-25.55,35.22-20.8"/>
    <g class="cls-11">
      <path class="cls-28" d="m1040.55,1204.02c-1.76,47.5-11.49,157.02-62.57,182.35-42.4,21.04-100.24,4.37-128.17-33.1-19.18-25.78-19.45-75.55-14.07-122.02,1.33,24.13,7.14,44.79,16.72,59.65,54.84,85.14,124.64,15.16,124.64,15.16,0,0,4.76,21.9,11.73,24.65,29.13,11.52,43.75-86.36,50.16-137.19,1.15,3.27,1.71,6.81,1.56,10.49"/>
    </g>
    <path class="cls-28" d="m936.94,1414.01c17.16,0,34.08-3.57,49.25-11.1,57.95-28.75,70.49-136.53,72.81-198.22.8-21.29-12.71-40.49-32.86-46.7l-136.25-41.96c-12.15-3.74-25.43-2.24-36.45,4.13-11.2,6.46-19.29,17.47-22.2,30.2-16.67,72.9-29.56,169.19,3.78,213.94,23.59,31.66,63.34,49.7,101.92,49.7Zm-57.92-262.68l136.25,41.96c4.2,1.29,7.01,5.42,6.84,10.03-3.33,88.35-23.37,152.17-52.32,166.53-33.49,16.6-81.63,3.98-105.15-27.59-18.88-25.34-17.91-94,2.59-183.65.86-3.77,3.3-5.67,4.68-6.46,1.26-.73,3.88-1.81,7.12-.81h0Z"/>
    <path class="cls-28" d="m900.92,1374.97c-.2.08.11.01.44-.07.29-.06.58-.12.96-.24.72-.24,1.4-.37,2.17-.68,1.51-.53,3.04-1.11,4.58-1.82,3.09-1.34,6.18-2.99,9.17-4.85,5.95-3.78,11.84-8.09,17.02-13.36,10.66-10.2,19.41-22.95,26.38-36.85l4.84-10.68c1.65-3.56,2.78-7.37,4.21-11.05,2.83-7.34,5.04-15.34,7.27-23.06,2.17-7.79,4.08-15.65,5.57-23.54.72-3.94,1.39-7.9,1.86-11.84.47-3.84.8-8.11.74-11.37v-.54c-.06-2.69,2.08-4.9,4.76-4.95,2.48-.05,4.56,1.78,4.91,4.18.7,4.97.74,8.96.76,13.35-.02,4.29-.24,8.54-.52,12.77-.6,8.47-1.65,16.85-2.95,25.18-1.4,8.36-2.65,16.52-4.79,24.9-1.08,4.16-1.85,8.41-3.19,12.54l-3.99,12.42c-5.99,16.4-14.29,32.44-25.94,46.59-5.64,7.2-12.41,13.65-19.75,19.58-3.71,2.94-7.63,5.67-11.84,8.15-2.08,1.26-4.27,2.44-6.55,3.55-1.09.58-2.38,1.08-3.56,1.62-.58.26-1.27.53-1.96.79-.65.24-1.32.51-2.51.85-8.72,2.23-17.59-3.03-19.82-11.75-2.23-8.72,3.03-17.59,11.75-19.82"/>
    <path class="cls-28" d="m1186.1,852.76c-16.51-4.8-33.39-9.23-50.18-13.37-16.82-4.14-33.7-7.99-50.6-11.33-16.9-3.34-33.83-6.39-50.66-8.47-16.78-2.09-33.64-3.6-49.51-3.16h-.08c-10.2.29-18.7-7.75-18.99-17.95-.29-10.2,7.75-18.7,17.95-18.99.53-.01,1.09,0,1.61.02,19.08,1.13,36.92,4.39,54.55,8.1,17.61,3.73,34.77,8.37,51.8,13.27,17.02,4.91,33.84,10.29,50.54,15.94,16.72,5.68,33.21,11.55,49.78,17.94,4.91,1.89,7.35,7.41,5.45,12.31-1.79,4.64-6.81,7.07-11.5,5.72l-.15-.04Z"/>
    <path class="cls-20" d="m625.03,524.58c4.87-12.37,10.87-18.33,10.87-18.33,0,0-3.73,7.95-10.87,18.33"/>
    <path class="cls-18" d="m1406.25,909.35s-437.35-422.56-744.52-498.98c-79.75-19.84-177.13-49.85-181.15,32.31-39.27,30.46-66.23,110.24-43.79,157.94,17.65,37.51,70.21,52.02,124.9,88.27,54.68,36.25,434.87,275.58,612.32,542.86"/>
    <path class="cls-18" d="m1406.24,909.35l-191.82,266.25-40.41,56.12c-1.4-2.1-2.8-4.15-4.25-6.25-179.07-264.75-553.81-500.64-608.03-536.61-54.72-36.27-107.29-50.77-124.94-88.28-17.01-36.16-5.6-90.79,18-128.35,7.55-11.96,16.31-22.21,25.81-29.56,4-82.18,101.39-52.17,181.17-32.31,307.16,76.43,744.48,498.99,744.48,498.99"/>
    <g class="cls-11">
      <path class="cls-28" d="m1375.19,883.23l-72.09,100.05c-93.82-71.49-155.2-179.06-160.14-300.21,133.97,105.27,232.23,200.15,232.23,200.15"/>
    </g>
    <path class="cls-25" d="m1808.27,1010.7c-67.15,40.15-146.81,63.36-232.28,63.36-6.88,0-13.66-.14-20.44-.46l4.15-230.89s119.44,64.66,248.57,167.99"/>
    <path class="cls-20" d="m1678.68,1062.52c-32.91,7.57-67.29,11.54-102.68,11.54-165.59,0-309.44-87.13-382.4-215.25,79.79-58.66,202.42-113.67,337.96-48.83,185.52,88.84,164.57,206.29,147.13,252.54"/>
    <g class="cls-11">
      <path class="cls-28" d="m1294.17,1082.43l-120.17,149.29c-1.4-2.1-2.8-4.15-4.25-6.25-179.07-264.75-553.81-500.64-608.03-536.61-54.72-36.27-107.29-50.77-124.95-88.28-17.01-36.16-5.6-90.79,18.01-128.35,21.86,39.71,47.32,88.89,74.13,96.99,47.02,14.15,80.18-21.36,96.14-44.66-14.21,36.26-5.8,122.24,187.97,273.2,225.19,175.32,356.21,258.51,481.16,284.67"/>
    </g>
    <path class="cls-28" d="m1174.02,1250.2c3.51,0,7.06-1,10.2-3.08,8.5-5.64,10.81-17.09,5.17-25.59-77.37-116.54-245.21-304.85-605.43-540.12-4.97-3.25-9.03-5.9-12.07-7.91-18.76-12.43-37.34-22.44-53.74-31.27-30.97-16.68-55.43-29.85-64.66-49.47-18.77-39.89,5.72-110.15,38.4-135.49,4.26-3.3,6.86-8.3,7.12-13.68,1.03-20.95,9.3-27.07,12.01-29.08,23.36-17.29,83.31-2.12,131.47,10.07,4.97,1.26,9.9,2.5,14.77,3.72,298.8,74.33,731.81,490.15,736.15,494.34,7.33,7.08,19.02,6.88,26.1-.45,7.08-7.33,6.88-19.02-.45-26.1-18-17.4-444.46-426.89-752.89-503.62-4.82-1.2-9.7-2.43-14.62-3.68-61.48-15.56-125.06-31.65-162.49-3.95-14.78,10.93-23.57,27.29-26.23,48.69-41.04,37.61-68.6,120.05-42.76,174.95,14.41,30.64,45.07,47.15,80.57,66.26,16.46,8.87,33.49,18.03,50.84,29.54,3.09,2.05,7.22,4.74,12.28,8.05,354.96,231.84,519.4,415.98,594.85,529.63,3.55,5.35,9.42,8.25,15.4,8.25Z"/>
    <path class="cls-18" d="m813.03,473.09s-29.43-136.02-90.96-126.7c-43.4,6.57-33.04,79.5-37.46,99.94-2.7,6.53-40.48,17.22-83.52,119.95"/>
    <path class="cls-28" d="m794.99,477c-1.32-4.92-3.01-10.59-4.72-15.87-1.68-5.37-3.48-10.72-5.38-16-3.78-10.57-7.92-20.93-12.65-30.78-4.64-9.85-9.84-19.27-15.73-27.33-5.79-8.08-12.43-14.85-18.59-18.09-3.07-1.71-5.86-2.39-8.63-2.7-1.39-.1-2.86-.06-4.33.12-1.36.27-2.59.5-3.56.96-1.98.84-3.63,1.95-5.45,4.44-1.8,2.42-3.6,5.91-4.95,10.17-2.83,8.51-4.34,19.11-5.17,30.14-.43,5.55-.7,11.27-1.01,17.27-.16,3-.32,6.09-.59,9.41-.3,3.36-.53,6.68-1.56,11.51l-.07.34c-.21.96-.54,1.95-.91,2.82-.52,1.18-1.14,2.34-1.84,3.43l-.53.8-.35.46-.72.9c-1.14,1.37-1.73,1.87-2.43,2.53-1.31,1.2-2.23,1.9-3.02,2.5l-4.04,2.94c-2.36,1.68-4.48,3.27-6.59,4.95-4.19,3.35-8.14,7.05-12.06,10.97-7.91,7.78-15.03,16.83-22.05,26.16-6.85,9.47-13.52,19.33-19.78,29.57-6.41,10.18-12.4,20.71-18.66,31.26l-.03.05c-2.63,4.42-8.34,5.88-12.76,3.25-3.67-2.18-5.29-6.5-4.23-10.44,3.3-12.2,7.53-24.14,12.25-35.99,4.85-11.79,10.36-23.43,16.83-34.74,6.37-11.38,13.93-22.28,22.69-32.71,4.39-5.2,9.31-10.11,14.5-14.78,2.6-2.31,5.31-4.56,7.87-6.6l3.32-2.68c.42-.35.7-.63.52-.48-.14.13-.17.12-.84.87l-.35.45-.55.78c-.51.76-.94,1.58-1.26,2.43l-.99,3.16c.17-.97.4-3.56.49-6.1l.22-8.31c.09-5.81.15-11.9.41-18.16.58-12.53,1.54-25.65,5.67-39.78,2.13-7.02,5.25-14.45,10.33-21.65,4.94-7.2,12.65-13.97,21.52-17.87,4.41-2.03,8.95-3.22,13.4-4.03,4.37-.71,8.82-.98,13.34-.73,9.02.54,17.81,3.32,25.11,7.29,14.75,8.05,24.53,19.21,32.51,30.2,7.89,11.16,13.91,22.68,19.18,34.27,5.13,11.65,9.47,23.39,13.15,35.25,1.82,5.94,3.51,11.89,5.06,17.89,1.51,6.1,2.84,11.86,4.12,18.47,1.94,10.01-4.6,19.7-14.61,21.64-9.56,1.86-18.83-4.03-21.34-13.29l-.14-.54Z"/>
    <path class="cls-28" d="m836.12,898.88c1.8,0,3.63-.35,5.39-1.1,150.35-63.61,206.64-280.02,208.96-289.21,1.88-7.41-2.61-14.94-10.02-16.81-7.37-1.86-14.94,2.6-16.82,10.02-.54,2.12-55.31,212.28-192.91,270.5-7.04,2.98-10.34,11.1-7.35,18.15,2.23,5.28,7.36,8.45,12.75,8.45Z"/>
    <path class="cls-18" d="m1559.71,842.7s374.08,202.47,514,463.72l-221.91,93.41s-134.63-152.67-298.48-201.34"/>
    <path class="cls-18" d="m2073.73,1306.43l-154.14,64.89-67.8,28.52s-134.62-152.67-298.46-201.35l2.17-120.64,4.2-235.14s374.1,202.46,514.03,463.72"/>
    <g class="cls-11">
      <path class="cls-28" d="m1919.58,1371.32l-67.8,28.52s-134.62-152.67-298.46-201.35c0,0,56.87-221.63,115.54-107.52,58.67,114.11,132.91,123.81,250.71,280.35"/>
    </g>
    <g class="cls-11">
      <path class="cls-28" d="m1808.27,1010.7c-67.15,40.15-146.81,63.36-232.28,63.36-6.88,0-13.66-.14-20.44-.46l4.15-230.89s119.44,64.66,248.57,167.99"/>
    </g>
    <path class="cls-28" d="m1851.8,1413.69c1.81,0,3.63-.35,5.37-1.08l221.91-93.41c3.59-1.51,6.38-4.47,7.68-8.14,1.3-3.67.99-7.72-.84-11.16-140.28-261.9-504.2-461.02-519.62-469.36-6.73-3.65-15.13-1.14-18.76,5.58-3.64,6.72-1.14,15.13,5.58,18.77,3.64,1.97,359.29,196.58,501.02,444.77l-198.71,83.64c-29.69-31.79-151.29-154.43-298.17-198.06-7.33-2.18-15.04,2-17.21,9.33-2.18,7.33,2,15.04,9.33,17.21,158.01,46.94,290.72,195.73,292.04,197.23,2.69,3.04,6.49,4.69,10.39,4.69Z"/>
    <path class="cls-28" d="m1727.53,1303.06c5.33,0,10.41-3.09,12.68-8.28h0c.69-1.56,70.16-156.32,191.79-160,7.64-.23,13.65-6.61,13.42-14.26-.23-7.65-6.74-13.77-14.26-13.42-139.2,4.22-213.22,169.52-216.3,176.56-3.07,7,.12,15.17,7.12,18.24,1.81.79,3.7,1.17,5.55,1.17Z"/>
    <path class="cls-18" d="m1098.67,947.73c-42.25,67.86-142.24,268.56-132.78,445.17,6.07,113.44,51.33,153.37,134.84,212.84,233.85,166.54,653.12-203.6,653.12-203.6,0,0-61.19-91.02-73.44-159.24-6.73-37.45-17.2-70.63-10.97-160.48,0,0,98.21-159.41-137.88-272.41-236.09-112.99-432.87,137.73-432.87,137.73"/>
    <path class="cls-18" d="m1753.86,1402.14s-419.28,370.13-653.12,203.57c-83.53-59.44-128.76-99.36-134.85-212.8-1.89-35.58.65-72.13,6.23-108.36,22.24-143.71,92.81-282.63,126.54-336.81,0,0,196.79-250.74,432.89-137.76,236.06,113.02,137.85,272.43,137.85,272.43-6.23,89.85,4.25,123.04,10.98,160.47,2.82,15.69,8.26,32.63,14.91,49.33,22.29,55.98,58.56,109.93,58.56,109.93"/>
    <g class="cls-11">
      <path class="cls-28" d="m1753.86,1402.14s-419.28,370.13-653.12,203.57c-83.53-59.44-128.76-99.36-134.85-212.8-1.89-35.58.65-72.13,6.23-108.36,169.9,80.02,590.23,97.71,723.18,7.66,22.29,55.98,58.56,109.93,58.56,109.93"/>
    </g>
    <g class="cls-11">
      <path class="cls-28" d="m1678.68,1062.52c-32.91,7.57-67.29,11.54-102.68,11.54-165.59,0-309.44-87.13-382.4-215.25,79.79-58.66,202.42-113.67,337.96-48.83,185.52,88.84,164.57,206.29,147.13,252.54"/>
    </g>
    <path class="cls-28" d="m1106.5,952.6c-14.46,26.26-27.29,53.66-39.38,81.25-12.11,27.6-22.8,55.78-32.84,84.09-9.86,28.37-18.64,57.06-25.73,86.06-7.42,28.9-13.73,57.97-18.51,87.19-4.58,29.24-6.82,58.74-6.16,87.97.67,29.24,3.99,58.31,12.73,84.68,8.62,26.48,23.55,49.58,43.64,69.65,20.02,20.14,44.1,37.81,68.63,55.4,23.09,16.61,48.49,28.51,76.12,34.82,27.48,6.39,56.34,7.94,85.19,5.57,28.87-2.33,57.73-8.11,86.06-16.3,28.37-8.09,56.23-18.61,83.56-30.5,54.65-23.9,107.04-53.69,157.45-86.49,25.18-16.44,49.88-33.7,74.04-51.68,24.05-17.93,48.04-36.76,70.32-56l-3.1,24.14c-16.94-24.07-31.33-48.65-44.16-74.85-6.31-13.09-12.23-26.45-17.31-40.32-5.13-13.85-9.48-28.17-12.44-43.26-1.5-8-2.31-14.33-3.48-21.29-1.08-6.95-2.21-14.01-3.19-21.21-2.07-14.39-3.19-29.13-3.49-43.69-.73-29.17,1.76-57.83,5.77-86.04.72-5.06,5.4-8.58,10.47-7.86,4.59.65,7.91,4.57,7.96,9.07v.06c.28,27.95,1.05,55.72,4.28,82.74,1.67,13.52,4.04,26.75,6.93,40.08l9.3,40.43c6.62,24.83,17.86,49.72,30.1,73.97,6.13,12.17,12.67,24.21,19.36,36.19,6.61,11.93,13.73,24.01,20.55,35.37l.15.22c5.16,7.74,3.62,17.99-3.25,23.92-23.87,20.62-47.89,39.43-72.71,57.95-24.76,18.41-50.05,36.1-75.92,52.99-51.76,33.67-105.72,64.41-162.83,89.39-28.57,12.43-57.87,23.52-88.15,32.15-30.21,8.73-61.42,15.05-93.34,17.62-31.88,2.61-64.63,1-96.57-6.44-31.9-7.19-62.78-21.67-89.11-40.71-24.93-17.92-50.35-36.34-73.42-59.47-11.45-11.58-22.18-24.44-31.11-38.66-9-14.15-16.14-29.56-21.32-45.3-10.43-31.63-13.84-63.9-14.61-95.49-.29-15.85,0-31.69,1.2-47.4,1-15.74,2.77-31.36,4.93-46.89,4.25-31.09,10.96-61.69,19.85-91.53,9-29.82,19.67-58.98,31.38-87.63,11.68-28.66,25-56.58,39.23-83.97,7.09-13.71,14.58-27.21,22.44-40.5,7.85-13.3,15.99-26.43,24.83-39.23,2.9-4.2,8.66-5.25,12.86-2.35,3.93,2.71,5.1,7.92,2.87,12.02l-.05.09Z"/>
    <path class="cls-18" d="m1277.58,1454.94l328.22,11.11c21.88.74,40.39-16.55,41.12-38.43l7-206.7c.74-21.88-16.55-40.39-38.43-41.13l-328.22-11.1c-21.88-.74-40.39,16.55-41.12,38.43l-7,206.7c-.74,21.88,16.55,40.39,38.43,41.13"/>
    <path class="cls-25" d="m1241.38,1347.64l-2.46,72.74c-.62,18.28,13.81,33.72,32.09,34.34l341.38,11.56c18.24.61,33.68-13.81,34.3-32.09l7.44-219.84c.62-18.28-13.81-33.72-32.05-34.34l-41.76-1.41-4.98,147.1c-.62,18.28-16.06,32.71-34.34,32.09l-299.62-10.14Z"/>
    <path class="cls-28" d="m1607.18,1484.53c14.79,0,28.82-5.54,39.72-15.73,11.4-10.65,17.95-25.05,18.48-40.56l6.99-206.7c.53-15.51-5.05-30.33-15.7-41.72-10.64-11.39-25.05-17.95-40.56-18.48l-328.22-11.1c-15.57-.49-30.33,5.05-41.72,15.69-11.4,10.65-17.96,25.05-18.48,40.56l-7,206.7c-1.08,32.11,24.16,59.11,56.25,60.2h0l328.22,11.11c.67.02,1.33.03,2,.03Zm-329.59-29.59h-.05.05Zm8.33-267.82c.24,0,.49,0,.73.01l328.22,11.1c5.65.19,10.93,2.61,14.84,6.79,3.92,4.19,5.97,9.61,5.78,15.26l-7,206.7c-.2,5.66-2.6,10.92-6.79,14.84-4.18,3.92-9.57,5.95-15.26,5.77l-328.21-11.11c-11.77-.4-21.02-10.3-20.62-22.06l6.99-206.7c.2-5.65,2.6-10.92,6.79-14.83,4.01-3.74,9.15-5.78,14.53-5.78Z"/>
    <path class="cls-18" d="m1340.61,1457.23l313.12,10.6c15.28.52,28.1-11.45,28.61-26.74l7.81-230.91c.52-15.29-11.45-28.1-26.74-28.61l-313.11-10.6c-15.29-.52-28.1,11.45-28.61,26.74l-7.81,230.91c-.52,15.29,11.45,28.1,26.74,28.61"/>
    <path class="cls-18" d="m1690.06,1212.78l-7.63,225.68c-.57,16.76-14.61,29.83-31.32,29.26l-307.87-10.42c-16.76-.57-29.84-14.56-29.27-31.32l7.64-225.68c.57-16.71,14.55-29.84,31.32-29.26l307.87,10.42c16.71.56,29.84,14.61,29.27,31.32"/>
    <g class="cls-11">
      <path class="cls-28" d="m1684.39,1380.5l-1.96,57.96c-.57,16.76-14.61,29.83-31.32,29.26l-304.94-10.31c-18.28-.62-32.72-16.02-32.1-34.35l3.12-92.25c.05.11.09.16.14.26,37.04,57.1,53.62-16.18,53.62-16.18l96.74,3.27s.1,85.07,92.06,93.64c53.86,5.01,96.27-12.92,124.64-31.32"/>
    </g>
    <path class="cls-28" d="m1654.69,1486.3c11.74,0,22.86-4.38,31.48-12.43,9.01-8.42,14.2-19.85,14.61-32.17l7.81-230.9c.42-12.32-3.98-24.07-12.4-33.07-8.42-9.01-19.84-14.2-32.17-14.61l-313.1-10.6c-25.38-.89-46.83,19.13-47.69,44.57l-7.81,230.91c-.42,12.32,3.98,24.06,12.4,33.07,8.42,9.01,19.84,14.2,32.16,14.61l313.11,10.6c.53.02,1.06.03,1.6.03Zm-305.33-296.89c.11,0,.21,0,.32,0l313.11,10.6c3.33.11,5.46,1.88,6.44,2.92.97,1.04,2.59,3.29,2.48,6.62l-7.82,230.91c-.11,3.33-1.88,5.46-2.92,6.43-1.04.98-3.29,2.66-6.62,2.48l-313.12-10.6c-3.32-.11-5.45-1.88-6.42-2.92-.98-1.04-2.6-3.29-2.49-6.62l7.81-230.91c.17-4.98,4.28-8.92,9.23-8.92Z"/>
    <path class="cls-18" d="m1635.01,1180.6l-2.79,82.34c-.74,21.87-11.63,42.14-29.44,54.84-17.82,12.7-28.7,32.97-29.44,54.83l-3.12,92.38"/>
    <path class="cls-28" d="m1570.23,1478.85c7.43,0,13.57-5.9,13.83-13.38l3.12-92.39c.59-17.44,9.43-33.9,23.64-44.02,21.19-15.11,34.36-39.65,35.24-65.65l2.79-82.34c.26-7.64-5.73-14.05-13.37-14.31-7.67-.22-14.05,5.73-14.31,13.37l-2.79,82.34c-.59,17.44-9.43,33.9-23.64,44.04-21.19,15.09-34.36,39.63-35.24,65.63l-3.12,92.39c-.26,7.64,5.73,14.05,13.37,14.3.16,0,.32,0,.48,0Z"/>
    <path class="cls-27" d="m1370.94,1314.95c-.96,28.37,16.9,51.95,39.93,52.73l38.9,1.32,3.48-102.64-38.9-1.32c-23.02-.78-42.44,21.58-43.4,49.91"/>
    <g class="cls-14">
      <g class="cls-8">
        <path class="cls-18" d="m1374.15,1297.15c7.97-9.83,19.03-15.81,31.16-15.4l38.87,1.32-2.9,85.63,8.51.29,3.48-102.64-38.91-1.32c-17.9-.61-33.65,12.81-40.2,32.12"/>
      </g>
    </g>
    <path class="cls-17" d="m1370.92,1314.96c-.96,28.36,16.93,51.93,39.94,52.71l38.91,1.32,3.48-102.65-20.94-.71-1.7,50.35-38.87-1.32c-7.39-.25-14.27-2.88-20.14-7.23-.36,2.45-.59,4.95-.68,7.53"/>
    <path class="cls-28" d="m1449.78,1382.84c7.43,0,13.57-5.89,13.83-13.38l3.48-102.64c.12-3.67-1.22-7.24-3.72-9.92-2.51-2.68-5.98-4.26-9.65-4.38l-38.9-1.31c-15.52-.51-29.91,6.15-40.89,18.79-10.27,11.82-16.25,27.61-16.82,44.49h0c-.57,16.89,4.32,33.06,13.77,45.54,10.1,13.34,24.14,20.98,39.53,21.5l38.9,1.32c.16,0,.32,0,.48,0Zm-10.84-103.12l-2.54,74.97-25.06-.85c-6.89-.23-13.42-3.97-18.39-10.54-5.62-7.43-8.53-17.33-8.17-27.89h0c.36-10.54,3.92-20.22,10.04-27.26,5.4-6.22,12.03-9.47,19.06-9.28l25.06.84Z"/>
    <path class="cls-27" d="m1409.88,1316.28c-.96,28.35,16.9,51.96,39.9,52.73,22.99.78,42.41-21.57,43.37-49.92.96-28.34-16.91-51.95-39.9-52.73-22.99-.78-42.41,21.57-43.37,49.92"/>
    <g class="cls-14">
      <g class="cls-1">
        <path class="cls-18" d="m1409.87,1316.28c-.1,3.08.02,6.13.35,9.11,4.28-23.86,21.9-41.53,42.42-40.83,20.47.69,36.87,19.51,39.52,43.61.52-2.95.86-5.99.96-9.06.96-28.32-16.89-51.93-39.87-52.71-23.01-.78-42.42,21.57-43.38,49.9"/>
      </g>
    </g>
    <path class="cls-17" d="m1409.87,1316.28c-.96,28.36,16.89,51.97,39.91,52.75,22.98.78,42.38-21.57,43.34-49.93.06-1.73.04-3.42-.06-5.09-7.37,16.43-21.81,27.39-38.01,26.84-21.63-.73-38.69-21.62-39.85-47.63-3.16,6.87-5.04,14.7-5.33,23.06"/>
    <path class="cls-28" d="m1450.98,1382.88c14.75,0,28.61-6.64,39.19-18.82,10.27-11.82,16.24-27.62,16.81-44.49,1.22-35.92-22.68-66-53.27-67.04-30.39-1.02-56.45,27.36-57.67,63.29h0c-.57,16.88,4.32,33.04,13.76,45.53,10.1,13.35,24.14,20.99,39.51,21.51.56.02,1.12.03,1.67.03Zm1.13-102.69c.22,0,.44,0,.67.01,15.06.51,27.21,18.11,26.52,38.43-.36,10.55-3.92,20.23-10.03,27.27-5.4,6.22-12,9.51-19.02,9.28-6.87-.23-13.39-3.97-18.36-10.54-5.62-7.43-8.53-17.34-8.17-27.88h0c.67-20.02,13.6-36.56,28.39-36.56Z"/>
  </g>
  <g class="cls-7">
    <rect class="cls-32" x="-15.24" y="3162.55" width="165.99" height="166.4" transform="translate(-2146.99 872.06) rotate(-41.82)"/>
  </g>
  <g>
    <path class="cls-28" d="m13.86,3319.77c3.89,0,7.69-1.64,10.37-4.66.28-.32,29.12-32.69,57.64-50.66,46.93-29.58,56.59-73.67,56.97-75.54.81-3.88-.09-7.93-2.46-11.11-2.37-3.18-6-5.19-9.95-5.51-35.92-3-65.2,6.04-87.05,26.77C-1.56,3237.9-.06,3303.57.03,3306.35c.17,5.67,3.79,10.66,9.13,12.6,1.54.56,3.13.83,4.71.83Zm91.48-120.03c-6.12,11.98-17.58,28.27-38.24,41.28-12.32,7.77-24.43,17.64-34.72,26.9,4.11-16.56,11.79-35.29,26.15-48.87,12.09-11.44,27.79-17.91,46.81-19.32Zm19.94-13.65h-.05.05Z"/>
    <path class="cls-28" d="m925.44,2333.85c3.7,0,7.5-.27,11.37-.87,12.66-1.97,22.77-8.08,29.26-17.66,12.31-18.18,7.28-42.18,6.66-44.86-.09-.39-.2-.78-.32-1.16l-16.49-51.02c-1.63-5.04-6-8.72-11.25-9.45l-34.52-4.84c-6.24-.89-12.15,2.5-14.62,8.2l-35.18,81.12c-2.34,5.39-1.02,11.67,3.29,15.66,1.21,1.11,27.28,24.87,61.8,24.87Zm20.41-56.73c.82,4.22,1.86,16.03-2.74,22.73-1.36,1.98-3.93,4.74-10.55,5.77-17.39,2.7-33.43-5.35-42.47-11.26l26.66-61.47,15.5,2.17,13.6,42.07Z"/>
    <path class="cls-20" d="m1001.15,2158.74s-50.68-17.41-65.48-7.81c-24.59,15.95-63.46,108.49-63.46,108.49,0,0-.45,37.59.85,39.4,0,0,51.63-50.54,53.68-49.45-3.32,16.26-1.32,72.31-1.46,79.23,0,0-34.03,41.2-36.02,48.11-1.99,6.91.48,79.65,79.04,189.2l180.49-129.42-147.64-277.75Z"/>
    <g class="cls-14">
      <path class="cls-18" d="m1148.78,2436.47l-5.12,3.69-135.45-254.8s-50.67-17.44-65.49-7.85c-24.6,15.97-63.46,108.5-63.46,108.5,0,0-.05,2.77-.05,6.83-3.78,3.65-6.14,5.95-6.14,5.95-1.29-1.8-.88-39.37-.88-39.37,0,0,38.86-92.58,63.46-108.5,14.81-9.6,65.49,7.8,65.49,7.8l147.64,277.73Z"/>
    </g>
    <path class="cls-21" d="m1364.48,2665.45s.24,53.58-13.61,64.52c-23,18.18-123.12,25.3-123.12,25.3,0,0-35.75-11.64-37.05-13.44,0,0,64.44-32.68,64.07-34.98-16.47-2.08-68.91-21.95-75.51-24.04,0,0-49.94,19-57.12,18.67-7.18-.34-75.29-26.02-153.84-135.57l180.49-129.42,215.69,228.96Z"/>
    <path class="cls-28" d="m968.31,2579.76c2.88,0,5.7-.9,8.07-2.6l180.48-129.42c5.63-4.04,7.41-11.63,4.16-17.75l-147.64-277.75c-1.65-3.1-4.41-5.45-7.73-6.6-17.15-5.89-59.04-18.32-77.51-6.33-26.82,17.4-61.92,98.63-68.69,114.74-.69,1.65-1.06,3.41-1.08,5.2-.51,42.15.57,43.65,3.46,47.66,2.35,3.28,6.03,5.36,10.04,5.71,4.04.35,7.99-1.08,10.88-3.9,9.42-9.23,19.52-18.96,28.25-27.2-.1,11.73.09,24.67.31,37.03.04,1.94.07,3.67.09,5.13-32.77,39.95-34.7,46.63-35.43,49.19-2.98,10.34-.83,86.87,81.09,201.11,2.14,2.98,5.38,5,9,5.6.75.12,1.5.19,2.25.19Zm162.57-147.46l-159.27,114.2c-60.52-88.46-69.81-151.77-68.92-165.83,3.63-6.24,19.61-26.72,33.27-43.26,1.98-2.4,3.1-5.41,3.16-8.53.03-1.56-.03-5.47-.13-10.84-.29-16.34-.99-54.62,1.31-65.9,1.23-6.02-1.66-12.13-7.08-15-10.06-5.33-13.89-1.73-43.62,26.51-1.21,1.15-2.41,2.29-3.61,3.43,0-1.6.02-3.2.03-4.78,15.66-36.78,43.02-90.57,57.18-99.75,5.24-2.5,27.47,1.04,48.33,7.61l139.35,262.14Z"/>
    <path class="cls-28" d="m920.74,2224.68c-.28-7.07-.35-13.94-.27-20.94.1-6.98.36-13.99.94-21.09.6-7.12,1.43-14.28,3.18-21.86.9-3.8,2.03-7.72,4.07-12.07.47-1.06,1.2-2.26,1.82-3.38.77-1.2,1.61-2.41,2.64-3.66,2.16-2.49,5.47-5.42,10.54-7,7.4-1.92,14.96,2.52,16.88,9.91,1.92,7.4-2.52,14.96-9.92,16.89,1.8-.57,2.27-1.48,2.1-1.5-.09.02-.3.17-.53.34-.25.34-.53.52-.84.97-1.22,1.62-2.53,4.09-3.66,6.78-2.29,5.42-4.17,11.63-5.79,17.93-3.2,12.64-5.58,26.02-7.33,39.16l-.02.16c-.51,3.8-4,6.47-7.8,5.96-3.4-.46-5.89-3.3-6.02-6.61"/>
    <path class="cls-28" d="m942.13,2361.89c1.73,6.8,3.84,13.85,6.11,20.64,2.29,6.82,4.77,13.55,7.54,20.08,5.5,13,12.14,25.57,20.19,35.05,4.97,5.85,4.26,14.61-1.59,19.58-5.85,4.97-14.62,4.26-19.58-1.6-.48-.57-.96-1.23-1.33-1.85-8.86-14.78-13.61-29.76-17.42-44.69-1.86-7.47-3.34-14.95-4.61-22.43-1.25-7.53-2.27-14.89-2.98-22.64-.35-3.82,2.46-7.19,6.27-7.54,3.45-.32,6.54,1.94,7.36,5.2l.05.2Z"/>
    <path class="cls-28" d="m954.29,2314.09l49.31-4.36c7.69-.68,14.48,5,15.16,12.7.68,7.69-5,14.48-12.7,15.16-1.32.12-2.67.03-3.9-.2l-48.59-9.47c-3.79-.74-6.26-4.41-5.52-8.2.61-3.13,3.22-5.36,6.24-5.63"/>
    <path class="cls-28" d="m1227.76,2769.11c.33,0,.65,0,.98-.03,17.43-1.24,105.64-8.42,130.72-28.24,17.27-13.65,18.95-57.3,18.86-75.44-.01-3.51-1.36-6.88-3.76-9.43l-215.69-228.96c-4.76-5.05-12.52-5.8-18.14-1.76l-180.48,129.42c-6.22,4.45-7.64,13.11-3.18,19.32,81.9,114.23,153.7,140.83,164.44,141.33,2.73.15,9.66.43,57.98-17.77,1.36.49,2.96,1.06,4.75,1.7,11.67,4.19,23.89,8.53,35.05,12.21-10.61,5.62-23.07,12.06-34.83,18.03-3.6,1.83-6.23,5.14-7.19,9.07-.96,3.93-.15,8.08,2.21,11.36,2.87,3.99,3.95,5.49,44,18.53,1.39.45,2.83.68,4.29.68Zm122.82-98.22c-.48,21.88-4.25,44.07-8.44,48.34-13.12,10.35-72.82,19-112.68,22.03-1.5-.49-3.02-.99-4.54-1.5,1.46-.77,2.93-1.54,4.4-2.31,36.25-19.09,40.91-21.54,39.12-32.78-.97-6.07-5.84-10.78-11.94-11.55-11.46-1.45-47.52-14.4-62.93-19.94-5-1.8-8.66-3.1-10.14-3.57-2.98-.94-6.18-.86-9.1.26-20.05,7.63-44.57,16.19-51.65,17.63-13.61-3.67-70.6-32.79-134.95-118.49l159.27-114.2,203.56,216.09Z"/>
    <path class="cls-28" d="m1280.2,2707.18c13.01,2.56,26.44,4.6,39.45,5.63,6.49.48,12.96.71,18.83.27,2.91-.21,5.67-.66,7.6-1.3.53-.14.79-.35,1.19-.48.24-.17.44-.31.48-.39.04-.17-.97-.01-2.08,1.5,4.2-6.39,12.77-8.17,19.17-3.98,6.4,4.2,8.17,12.78,3.98,19.18-3.12,4.3-6.96,6.48-10.01,7.74-1.51.58-2.93.98-4.31,1.33-1.26.23-2.63.54-3.79.64-4.78.53-8.85.34-12.73-.03-7.74-.77-14.8-2.28-21.72-4-6.91-1.74-13.64-3.73-20.28-5.88-6.66-2.17-13.14-4.44-19.75-6.97-3.58-1.37-5.37-5.39-4-8.96,1.23-3.2,4.57-4.97,7.82-4.33l.15.03Z"/>
    <path class="cls-28" d="m1146.72,2668.43c-7.11-3.16-13.76-6.49-20.49-10.09-6.68-3.6-13.29-7.41-19.77-11.56-12.92-8.39-25.58-17.7-36.74-30.83-4.97-5.85-4.26-14.61,1.59-19.58,5.85-4.97,14.62-4.26,19.58,1.59.48.57.96,1.24,1.33,1.86,6.4,10.66,16.17,20.98,26.71,30.37,5.3,4.71,10.89,9.22,16.61,13.58,5.7,4.32,11.7,8.59,17.59,12.41l.17.11c3.22,2.08,4.14,6.38,2.05,9.59-1.88,2.91-5.58,3.94-8.64,2.57"/>
    <path class="cls-24" d="m1938.85,2498.37l95.46,330.95s13.03,107.4-49.56,139.18c-62.59,31.78-360.78,112.13-360.78,112.13,0,0,137.13-112.75,184.99-219.5,47.87-106.76-46.35-295.59-46.35-295.59"/>
    <path class="cls-22" d="m1984.75,2968.49c-62.58,31.8-360.76,112.15-360.76,112.15,0,0,137.11-112.75,184.97-219.5,19.01-42.45,15.6-97.89,4.56-149.25-16.75-77.81-50.95-146.34-50.95-146.34l176.25-67.19,39.37,136.51,56.12,194.43s13.01,107.39-49.57,139.19"/>
    <path class="cls-23" d="m1959.51,2979.34c-93.87,36.18-335.51,101.3-335.51,101.3,0,0,137.11-112.74,184.97-219.49,3.88-8.68,6.83-17.86,8.95-27.46l141.59,145.65Z"/>
    <g class="cls-13">
      <path class="cls-28" d="m1978.19,2634.87l-46.25,64.8s-60.55,6.55-118.42,12.23c-16.75-77.81-50.95-146.34-50.95-146.34l176.25-67.19,39.37,136.51Z"/>
    </g>
    <path class="cls-28" d="m1188.98,2656.23l6.63-49.05c1.03-7.66,8.08-13.02,15.73-11.99,7.65,1.04,13.02,8.08,11.98,15.73-.18,1.31-.56,2.61-1.06,3.76l-19.95,45.3c-1.56,3.54-5.69,5.14-9.22,3.59-2.92-1.28-4.51-4.33-4.11-7.33"/>
    <path class="cls-28" d="m1623.97,3094.48c1.19,0,2.4-.16,3.6-.48,12.23-3.3,300.3-81.09,363.44-113.16,70.42-35.76,57.62-148.41,57.04-153.19-.09-.73-.24-1.46-.44-2.17l-95.45-330.94c-2.11-7.34-9.78-11.6-17.14-9.46-7.34,2.12-11.58,9.79-9.46,17.14l95.12,329.77c1.02,10.42,8.04,98.67-42.19,124.17-44.08,22.39-211.95,70.57-301.33,95.49,45.21-42.89,112.9-114.48,144.44-184.85,49.98-111.45-42.63-299.49-46.6-307.44-3.41-6.85-11.72-9.63-18.56-6.21-6.84,3.41-9.62,11.72-6.22,18.56.91,1.83,90.73,184.25,46.11,283.75-46,102.6-179.8,213.36-181.15,214.47-5.03,4.14-6.5,11.24-3.52,17.03,2.42,4.7,7.23,7.51,12.31,7.51Z"/>
    <path class="cls-24" d="m1870.49,2541.01l144.65,373.53s-4.04,39.56-48.23,67.72c-47.01,29.96-209.73,104.11-276.75,107.9-18.44,1.05-66.2-9.54-66.2-9.54,0,0,86.14-51.04,136.44-86.1,50.31-35.07,70.87-53.24,53.18-70.79-18.56-18.42-308.15-260.46-343.08-273.64-34.94-13.18,399.98-109.08,399.98-109.08"/>
    <path class="cls-22" d="m2015.16,2914.54s-4.06,39.55-48.23,67.7c-47.03,30-209.75,104.12-276.76,107.95-18.46,1.01-66.18-9.56-66.18-9.56,0,0,86.12-51.04,136.42-86.12,50.3-35.07,70.89-53.21,53.17-70.79-9-8.9-81.73-70.47-158.25-132.96-81.27-66.41-166.83-133.88-184.83-140.67-34.94-13.2,399.99-109.1,399.99-109.1l61.47,158.66,83.21,214.88Z"/>
    <g class="cls-13">
      <path class="cls-28" d="m1931.95,2699.67c-105.27,42.37-202.74,72.32-276.62,91.1-81.28-66.41-166.84-133.88-184.83-140.66-34.94-13.2,399.99-109.1,399.99-109.1l61.47,158.67Z"/>
    </g>
    <path class="cls-28" d="m1687.55,3104.08c1.2,0,2.33-.03,3.39-.09,70.21-3.98,235.13-79.28,283.41-110.05,49.27-31.41,54.37-76.1,54.56-77.99.22-2.17-.07-4.37-.86-6.41l-144.65-373.54c-2.47-6.37-9.18-9.99-15.89-8.52-1,.22-101.45,22.4-200.77,46.58-210.46,51.25-211.08,59.92-212.03,73.05-.38,5.3,2.25,12.66,10.92,15.93,30.13,11.37,312.91,245.39,338.21,270.51,1.31,1.3,2.2,2.57,2.15,3.1-.85,9.81-37.74,35.53-53.5,46.51-49.3,34.37-134.73,85.04-135.59,85.55-4.89,2.9-7.51,8.48-6.62,14.09.9,5.61,5.13,10.1,10.67,11.33,4.81,1.06,45.47,9.94,66.59,9.94Zm313.3-188.09c-1.87,8.58-9.92,34.54-41.38,54.59-45.18,28.79-205.25,102.08-270.09,105.76-5.98.34-16.36-.87-27.2-2.57,29.91-18.2,75-46.18,106.15-67.89,43.75-30.5,63.56-47.39,65.24-66.84.8-9.16-2.65-17.61-10.23-25.14-13.54-13.44-249.96-212.2-327.58-264.76,53.5-18.99,215.7-58.69,366.11-92.05l138.98,358.9Z"/>
    <path class="cls-18" d="m1446.89,2697.57c-258.75-29.72-356.41-219.26-356.41-219.26,0,0-148.18-153.31-93.34-407.95,54.84-254.58,425.96-615.28,836.32-744.55,47.06-14.82,92.7-24.8,136.63-30.87,72.61-10.05,140.51-9.31,202.4-2.04,166.77,19.63,289.84,87.08,343.41,121.5,19.76,12.7,33.91,32.43,39.6,55.22,15.41,61.77,39.81,199.93,4.89,364.17-12.96,60.94-34.13,125.55-66.96,191.16-19.81,39.63-43.93,79.61-73.03,119.41-254.06,347.22-714.77,582.99-973.51,553.21"/>
    <path class="cls-28" d="m1492.97,2718.55c125.83,0,286.97-49.62,451.33-140.04,195.68-107.65,370.05-257.96,491-423.25,28.57-39.07,53.69-80.14,74.64-122.06,31.05-62.06,54.1-127.86,68.5-195.58,35.19-165.49,11.94-304.4-5.04-372.48-6.84-27.45-23.73-50.99-47.53-66.28-59.05-37.93-183.2-104.52-351.23-124.3-68.91-8.1-138.58-7.39-207.09,2.09-46.7,6.46-93.68,17.08-139.65,31.55-195.34,61.54-393.65,178.47-558.39,329.27-156.75,143.48-262.6,299.85-290.42,429-53.56,248.72,78.03,402.81,96.25,422.69,12.98,23.64,116.73,197.7,369.43,226.75h0c15.39,1.77,31.48,2.65,48.19,2.65Zm586.24-1412.65c30.42,0,60.85,1.78,91.13,5.34,160.66,18.91,279.21,82.48,335.59,118.69,15.86,10.19,27.1,25.87,31.67,44.15,16.21,64.99,38.39,197.63,4.75,355.87-13.75,64.65-35.76,127.48-65.41,186.74-20.04,40.08-44.07,79.37-71.43,116.77-117.83,161.03-287.94,307.6-479,412.71-179.63,98.82-353.68,147.34-477.5,133.06h0c-245.2-28.16-341.18-207.59-342.11-209.4-.83-1.58-1.88-3.06-3.12-4.34-1.39-1.45-140.53-149.93-88.56-391.24,26.25-121.84,128.03-271.11,279.26-409.54,160.85-147.24,354.25-261.34,544.56-321.29,44-13.86,88.96-24.02,133.61-30.2,35.3-4.89,70.93-7.33,106.58-7.33Z"/>
    <path class="cls-18" d="m1446.89,2697.57c-258.75-29.72-356.41-219.26-356.41-219.26,0,0-148.18-153.31-93.34-407.95,54.84-254.58,425.96-615.28,836.32-744.55,47.06-14.82,92.7-24.8,136.63-30.87,72.61-10.05,140.51-9.31,202.4-2.04,166.77,19.63,289.84,87.08,343.41,121.5,19.76,12.7,33.91,32.43,39.6,55.22,15.41,61.77,39.81,199.93,4.89,364.17-12.96,60.94-34.13,125.55-66.96,191.16-19.81,39.63-43.93,79.61-73.03,119.41-254.06,347.22-714.77,582.99-973.51,553.21"/>
    <path class="cls-18" d="m2560.38,1833.79c-12.97,60.96-34.11,125.53-66.96,191.16-19.8,39.64-43.93,79.61-73.01,119.39-254.06,347.24-714.78,583.02-973.5,553.25-135.36-15.55-226.65-74.81-282.9-127.88-51.31-48.27-73.52-91.38-73.52-91.38,0,0-148.18-153.32-93.36-407.97,54.87-254.57,425.96-615.28,836.33-744.55,47.07-14.81,92.72-24.78,136.61-30.87,72.64-10.06,140.52-9.32,202.41-2.03,166.79,19.63,289.85,87.09,343.42,121.51,19.91,12.79,34.01,32.76,39.72,55.72,7.09,28.51,16.03,73.06,20.23,128.8,4.93,65.44,3.36,146.39-15.46,234.86"/>
    <path class="cls-18" d="m2560.38,1833.79c-12.97,60.96-34.11,125.53-66.96,191.16-19.8,39.64-43.93,79.61-73.01,119.39-254.06,347.24-714.78,583.02-973.5,553.25-135.36-15.55-226.65-74.81-282.9-127.88-51.31-48.27-73.52-91.38-73.52-91.38,0,0-148.18-153.32-93.36-407.97,16.84-78,63.31-165.96,131.53-254.2,82.24-106.33,196.04-213.03,327.48-303.07,115.33-79.1,244.27-145.33,377.33-187.28,47.07-14.81,92.72-24.78,136.61-30.87,72.64-10.06,140.52-9.32,202.41-2.03,166.79,19.63,289.85,87.09,343.42,121.51,19.91,12.79,34.01,32.76,39.72,55.72,7.09,28.51,16.03,73.06,20.23,128.8,4.93,65.44,3.36,146.39-15.46,234.86"/>
    <g class="cls-11">
      <path class="cls-28" d="m1399.47,1947.69s6.51,184.6-114.04,200.34c-157.6,20.58-127.05-207.68-127.05-207.68l-29.72-124.19c82.24-106.33,196.05-213.03,327.48-303.07,29.72,44.86,65.86,119.9,66.04,219.58.28,155.71-122.71,215.02-122.71,215.02"/>
    </g>
    <g class="cls-11">
      <path class="cls-28" d="m2560.38,1833.79c-12.97,60.96-34.11,125.53-66.96,191.16-19.8,39.64-43.93,79.61-73.01,119.39-254.06,347.24-714.78,583.02-973.5,553.25-135.36-15.55-226.65-74.81-282.9-127.88,118.51-68.49,240.86-179.62,202.51-344.79-3.37-14.63,356.47-279.86,356.47-279.86,0,0,167.98,125.35,337.77,9.83,205.92-140.03,479.64-624.79,515.09-355.96,4.93,65.44,3.36,146.39-15.46,234.86"/>
    </g>
    <path class="cls-23" d="m1886.12,2588.21c-3.56,1.85-7.11,3.6-10.66,5.31-5.31,2.63-10.61,5.22-15.92,7.75-4.29,2.04-8.54,4.02-12.83,6-.18.09-.37.18-.6.28-4.15,1.94-8.31,3.84-12.46,5.68-.42.23-.88.42-1.34.6-4.11,1.89-8.21,3.69-12.32,5.49-10.01,4.38-20.03,8.58-29.95,12.65-4.25,1.75-8.54,3.46-12.78,5.12-4.01,1.57-7.98,3.14-12,4.62-2.63,1.02-5.22,2.03-7.85,3-18.28,6.83-36.37,13.06-54.23,18.69-3.09.97-6.18,1.94-9.23,2.86-3.83,1.15-7.62,2.31-11.4,3.37-2.86.88-5.77,1.66-8.58,2.45-3.74,1.11-7.48,2.12-11.17,3.09-3.14.84-6.28,1.66-9.41,2.45-6.51,1.71-12.97,3.28-19.38,4.71-5.91,1.43-11.81,2.72-17.63,3.92-3.79.78-7.57,1.52-11.31,2.26-3.97.78-7.89,1.48-11.81,2.17-3.46.65-6.97,1.2-10.43,1.75-1.43.28-2.86.46-4.29.69-6.69,1.06-13.34,1.98-19.89,2.77-7.57.92-15.05,1.71-22.43,2.31-3.69.32-7.38.6-10.98.83-3.65.24-7.29.42-10.85.6-23.68,1.06-46.24.42-67.47-2.03-15.78-1.8-30.92-4.25-45.5-7.15-.55-.14-1.06-.23-1.62-.32-7.2-1.43-14.21-3.05-21.09-4.75-.18-.05-.42-.09-.6-.13-3.51-.88-6.97-1.8-10.38-2.73-3.51-.92-6.97-1.89-10.38-2.91-3.46-1.02-6.83-2.03-10.2-3.09-3.37-1.06-6.65-2.17-9.97-3.28-3.28-1.11-6.51-2.22-9.69-3.42-3.23-1.15-6.41-2.31-9.55-3.55-3.09-1.2-6.23-2.4-9.28-3.69-6.14-2.45-12.09-5.08-17.95-7.75-2.91-1.34-5.77-2.68-8.63-4.06-2.77-1.29-5.45-2.63-8.17-4.02-.32-.18-.6-.32-.92-.46-2.54-1.34-5.08-2.63-7.57-3.97-5.08-2.63-10.06-5.4-14.86-8.21-.32-.18-.65-.37-.92-.55-2.58-1.48-5.12-3-7.61-4.52-7.52-4.48-14.68-9.14-21.55-13.89-2.31-1.57-4.57-3.14-6.78-4.7-2.26-1.62-4.43-3.19-6.6-4.76-3.28-2.45-6.46-4.85-9.55-7.25-1.52-1.15-3-2.31-4.43-3.51-4.29-3.37-8.4-6.78-12.32-10.15-1.98-1.66-3.92-3.36-5.81-5.03-1.85-1.66-3.69-3.32-5.54-4.98-1.85-1.66-3.65-3.32-5.4-5.03,53.26-30.78,107.25-70.15,147.13-119.16,238.92,233.24,564.56,140.71,574.99,137.67"/>
    <path class="cls-25" d="m2578.15,1652.6c.65,54.09-3.83,115.56-17.77,181.19-1.61,7.61-3.36,15.32-5.26,23.03-.88,3.69-1.85,7.43-2.82,11.21-1.94,7.48-3.96,14.95-6.18,22.48-.65,2.31-1.34,4.57-2.03,6.88-.14.46-.28.92-.42,1.38-.04.18-.09.32-.18.5-28.9,95.03-109.15,165.96-207.5,179.76-110.43,15.46-219.26-16.84-314.98-101.25,13.2-6.28,26.45-13.85,39.74-22.89,205.83-139.97,479.45-624.47,515.04-356.24.14,1.2.23,2.4.28,3.65.27,3.74.51,7.56.78,11.44.09,1.94.18,3.88.27,5.87.14,1.98.24,3.92.28,5.91.09,1.38.14,2.81.18,4.25.09,2.58.18,5.17.27,7.79.1,2.77.14,5.54.18,8.36.05,2.21.1,4.43.1,6.69"/>
    <path class="cls-28" d="m1492.97,2718.55c125.83,0,286.97-49.62,451.33-140.04,195.68-107.65,370.05-257.96,491-423.25,28.57-39.07,53.69-80.14,74.64-122.06,31.05-62.06,54.1-127.86,68.5-195.58,35.19-165.49,11.94-304.4-5.04-372.48-6.84-27.45-23.73-50.99-47.53-66.28-59.05-37.93-183.2-104.52-351.23-124.3-68.91-8.1-138.58-7.39-207.09,2.09-46.7,6.46-93.68,17.08-139.65,31.55-195.34,61.54-393.65,178.47-558.39,329.27-156.75,143.48-262.6,299.85-290.42,429-53.56,248.72,78.03,402.81,96.25,422.69,12.98,23.64,116.73,197.7,369.43,226.75h0c15.39,1.77,31.48,2.65,48.19,2.65Zm586.24-1412.65c30.42,0,60.85,1.78,91.13,5.34,160.66,18.91,279.21,82.48,335.59,118.69,15.86,10.19,27.1,25.87,31.67,44.15,16.21,64.99,38.39,197.63,4.75,355.87-13.75,64.65-35.76,127.48-65.41,186.74-20.04,40.08-44.07,79.37-71.43,116.77-117.83,161.03-287.94,307.6-479,412.71-179.63,98.82-353.68,147.34-477.5,133.06h0c-245.2-28.16-341.18-207.59-342.11-209.4-.83-1.58-1.88-3.06-3.12-4.34-1.39-1.45-140.53-149.93-88.56-391.24,26.25-121.84,128.03-271.11,279.26-409.54,160.85-147.24,354.25-261.34,544.56-321.29,44-13.86,88.96-24.02,133.61-30.2,35.3-4.89,70.93-7.33,106.58-7.33Z"/>
    <path class="cls-22" d="m1886.29,2588.16c-162.59,81.68-321.86,122.94-439.39,109.4-258.78-29.73-356.4-219.25-356.4-219.25,0,0-148.2-153.29-93.34-407.93,24.88-115.68,115.1-253.2,244.6-381.01-4.28,6.08-240.49,344.71.19,680.31,240.81,335.87,637.75,220.41,644.33,218.48"/>
    <g class="cls-14">
      <path class="cls-18" d="m1015.08,2121.45c-20.86,96.82-12.37,178.97,6.18,243.63-29.21-69.96-50.9-170.2-24.09-294.68,24.88-115.69,115.1-253.23,244.6-381.01-1.75,2.45-41.77,59.81-72.5,149.57-80.62,97.6-135.64,196.14-154.19,282.49"/>
    </g>
    <g class="cls-13">
      <path class="cls-28" d="m1886.21,2588.21c-3.6,1.8-7.15,3.6-10.75,5.31-5.31,2.63-10.62,5.22-15.92,7.75-4.3,2.04-8.54,4.02-12.83,6-.18.09-.37.18-.6.28-4.16,1.94-8.31,3.84-12.47,5.68-.41.23-.87.42-1.34.6-4.1,1.89-8.21,3.69-12.32,5.49-10.01,4.38-20.02,8.58-29.95,12.65-4.25,1.75-8.53,3.46-12.78,5.12-4.02,1.57-7.99,3.14-12,4.62-2.63,1.02-5.22,2.03-7.84,3-18.28,6.83-36.37,13.06-54.23,18.69-3.09.97-6.19,1.94-9.23,2.86-3.83,1.15-7.62,2.31-11.4,3.37-2.86.88-5.77,1.66-8.58,2.45-3.74,1.11-7.48,2.12-11.17,3.09-3.14.84-6.28,1.66-9.41,2.45-6.51,1.71-12.97,3.28-19.38,4.71-5.91,1.43-11.82,2.72-17.63,3.92-3.78.78-7.56,1.52-11.31,2.26-3.96.78-7.89,1.48-11.81,2.17-3.46.65-6.97,1.2-10.43,1.75-1.44.28-2.86.46-4.3.69-6.69,1.02-13.34,1.94-19.89,2.77-7.57.92-15.05,1.71-22.43,2.31-3.69.32-7.38.6-10.98.83-3.65.24-7.29.42-10.84.6-23.73,1.02-46.29.37-67.47-2.08-15.74-1.8-30.93-4.2-45.51-7.11-.55-.14-1.06-.23-1.61-.32-7.15-1.48-14.21-3.05-21.1-4.75-.18-.05-.42-.09-.6-.13-3.5-.88-6.96-1.8-10.38-2.73-3.5-.92-6.96-1.89-10.38-2.91-3.46-1.02-6.83-2.03-10.2-3.09-3.37-1.06-6.65-2.17-9.97-3.28-3.28-1.11-6.5-2.22-9.69-3.42-3.24-1.15-6.41-2.31-9.56-3.55-3.09-1.2-6.23-2.4-9.27-3.69-6.14-2.49-12.1-5.08-17.96-7.75-2.9-1.34-5.77-2.68-8.63-4.06-2.77-1.34-5.45-2.68-8.17-4.02-.32-.18-.6-.32-.92-.46-2.54-1.34-5.08-2.63-7.57-3.97-5.08-2.68-10.01-5.45-14.86-8.21-.32-.18-.64-.37-.92-.55-2.59-1.48-5.13-3-7.62-4.52-7.52-4.52-14.68-9.18-21.55-13.89-2.31-1.57-4.57-3.14-6.78-4.7-2.27-1.62-4.43-3.19-6.6-4.76-3.28-2.45-6.46-4.85-9.55-7.25-1.53-1.15-3-2.31-4.43-3.51-4.3-3.37-8.4-6.78-12.32-10.15-1.99-1.66-3.92-3.36-5.82-5.03-1.89-1.66-3.74-3.32-5.53-4.98-1.85-1.66-3.65-3.32-5.4-5.03,53.26-30.78,107.25-70.15,147.13-119.16,238.92,233.24,564.56,140.71,574.98,137.67h.09Z"/>
    </g>
    <path class="cls-28" d="m1493.7,2718.59c112.77,0,252.83-39.57,400.88-113.94,8.54-4.29,12.39-14.38,8.89-23.26-3.5-8.89-13.22-13.63-22.37-10.95-15.94,4.68-393.05,110.78-624.13-211.52-96.77-134.93-126.7-285.93-88.97-448.8,28.63-123.62,86.43-206.65,88.87-210.12,5.5-7.82,4.13-18.54-3.16-24.72-7.3-6.18-18.1-5.76-24.9.95-135.68,133.91-224.36,272.51-249.68,390.26-53.58,248.7,78.01,402.77,96.25,422.66,12.99,23.66,116.68,197.7,369.42,226.74,15.64,1.8,31.97,2.7,48.9,2.7Zm258.85-91.87c-115.08,43.09-221.58,61.94-303.53,52.49-245.23-28.17-341.18-207.58-342.12-209.39-.83-1.58-1.88-3.06-3.12-4.35-1.39-1.45-140.55-149.91-88.56-391.21,17.35-80.68,69.54-175.72,147.53-271.1-11.38,28.99-22.29,62.18-30.73,98.62-39.66,171.23-6.83,336.74,94.94,478.65,158.9,221.63,382.45,253.16,525.59,246.29Z"/>
    <path class="cls-27" d="m1762.79,2354.37l-37.65,27-4.1-5.73c-93.73,31.47-218.79-21.77-299.67-134.57-80.92-112.83-91.22-248.36-31.34-327.05l-4.1-5.72,37.64-27c94.91-68.06,247.81-17.33,341.5,113.31,93.65,130.61,92.64,291.7-2.28,359.76"/>
    <path class="cls-28" d="m1663.56,2398.61c17.91,0,35.45-2.26,52.34-6.92,1.95,1.74,4.37,2.91,6.98,3.35,3.62.59,7.34-.27,10.32-2.41l37.65-27h0c100.98-72.41,103.42-242.46,5.46-379.08-47-65.54-109.92-113.93-177.18-136.25-68.8-22.82-134.03-15.82-183.63,19.75l-37.65,27c-5.38,3.85-7.17,10.84-4.67,16.68-58.57,86.34-44.05,222.49,36.92,335.4,67.36,93.94,164.73,149.47,253.45,149.47Zm57.48-36.81c-1.47,0-2.96.23-4.41.72-89.26,29.97-208.71-24.5-284.01-129.52-75.32-105.03-88.6-235.65-31.57-310.6,2.2-2.89,3.12-6.44,2.75-9.88l27.85-19.97c42.21-30.26,98.59-35.94,158.78-15.97,61.75,20.49,119.78,65.27,163.39,126.09,89.06,124.21,89.47,276.93.91,340.44l-27.85,19.97c-1.82-.84-3.82-1.29-5.84-1.29Z"/>
    <path class="cls-20" d="m1711.13,2379.49c-94.91,68.06-247.79,17.33-341.46-113.29-93.67-130.63-92.66-291.7,2.25-359.77,94.91-68.06,247.79-17.33,341.46,113.3,93.67,130.63,92.66,291.7-2.25,359.76"/>
    <path class="cls-27" d="m1723.8,2379.48c-94.93,68.07-247.78,17.35-341.47-113.3-36.09-50.3-58.1-105.13-66.13-157.37-10.98-71.49,4.2-138.27,45.5-182.25,6.88-7.38,14.53-14.12,22.89-20.12,94.93-68.07,247.78-17.36,341.47,113.3,93.69,130.61,92.67,291.72-2.26,359.74"/>
    <g class="cls-11">
      <path class="cls-28" d="m1360.38,2087.8c-13.61,25.66-36.09,27.22-56.86,21-10.98-71.49,4.2-138.27,45.5-182.25,17.21,47.03,35.03,116.57,11.35,161.25"/>
    </g>
    <path class="cls-28" d="m1627.21,2425.21c38.65,0,75.18-10.48,106.02-32.6h0c100.97-72.41,103.4-242.46,5.43-379.08-97.97-136.63-259.81-188.89-360.78-116.48-49.6,35.57-77.17,95.08-77.63,167.58-.44,70.85,25.2,145.96,72.19,211.5,68.04,94.89,166.89,149.08,254.77,149.08Zm89.88-55.1c-88.56,63.5-233.07,14.1-322.15-110.11-43.61-60.83-67.41-130.14-67-195.2.4-63.4,23.86-114.99,66.07-145.25,88.57-63.51,233.08-14.1,322.15,110.11,89.07,124.21,89.49,276.94.93,340.45h0Z"/>
    <path class="cls-28" d="m1686.69,2311.98c-3.75,3.54-7.8,6.89-12.07,9.95-18.32,13.15-39.61,20.17-62.28,21.68-16.13,1.13-32.93-.6-49.91-4.96-41.42-10.6-83.61-36.85-118.18-75.94-6.5-7.37-12.76-15.17-18.66-23.4-68.32-95.3-67.58-212.74,1.63-262.39,5.43-3.88,11.12-7.24,17.03-10.04,34.61-16.68,76.8-15.52,118.18.78,16.98,6.68,33.79,15.9,49.91,27.45,23.36,16.72,45.25,38.4,63.91,64.44,3.66,5.13,7.15,10.34,10.43,15.56,53.83,86.15,53.71,185.84,0,236.87"/>
    <g class="cls-6">
      <g class="cls-3">
        <path class="cls-18" d="m1562.44,1967.67v370.99c-41.42-10.6-83.61-36.85-118.18-75.94v-295.84c34.61-16.67,76.8-15.51,118.18.78"/>
      </g>
    </g>
    <g class="cls-6">
      <g class="cls-5">
        <path class="cls-18" d="m1686.69,2075.11v236.87c-3.75,3.54-7.8,6.89-12.07,9.95-18.32,13.15-39.61,20.17-62.28,21.68v-348.5c23.36,16.72,45.25,38.4,63.91,64.44,3.66,5.13,7.15,10.34,10.43,15.56"/>
      </g>
    </g>
    <path class="cls-28" d="m1603.26,2357.62c28.94,0,56.3-7.86,79.43-24.44,75.31-54,77.48-180.36,4.83-281.67-72.65-101.31-193.03-139.8-268.34-85.8-75.31,54-77.47,180.36-4.82,281.67,50.34,70.2,123.6,110.25,188.9,110.25Zm-104.07-388.96c56.23,0,120.82,36.21,165.83,98.97,63.75,88.91,64.44,197.93,1.54,243.04-62.91,45.11-165.94,9.46-229.7-79.44-63.75-88.91-64.44-197.93-1.54-243.04,18.5-13.26,40.46-19.54,63.88-19.54Z"/>
    <path class="cls-31" d="m1674.6,2321.93c-69.21,49.63-180.68,12.61-248.97-82.62-68.31-95.27-67.61-212.72,1.61-262.35,4.88-3.5,9.97-6.57,15.27-9.2-55.34,54.6-51.47,162.31,12.01,250.83,63.46,88.5,164.23,126.72,233.7,91.82-4.2,4.18-8.73,8.01-13.61,11.51"/>
    <path class="cls-28" d="m1603.01,2357.9c29.54,0,56.79-8.32,79.66-24.71h0c5.46-3.92,10.62-8.28,15.31-12.96,4.82-4.8,5.44-12.38,1.46-17.9-3.97-5.52-11.37-7.33-17.45-4.28-64.31,32.31-157.28-5.31-216.23-87.51-58.96-82.23-64.78-182.35-13.54-232.91,4.84-4.78,5.5-12.36,1.55-17.9-3.95-5.53-11.33-7.39-17.43-4.36-5.94,2.95-11.71,6.43-17.17,10.35-37.17,26.65-57.82,71.12-58.15,125.22-.32,52.45,18.63,108.01,53.36,156.44,34.72,48.42,81.25,84.18,131.03,100.71,19.75,6.56,39.13,9.81,57.6,9.81Zm-213.03-286.93c-.12,50.43,17.8,106.22,53.29,155.71,35.47,49.47,82.56,84.33,130.35,100.4-6.41-1.33-12.92-3.08-19.48-5.26-44.27-14.69-85.91-46.86-117.25-90.56-31.35-43.72-48.46-93.49-48.17-140.14.04-6.92.47-13.65,1.27-20.15Z"/>
    <path class="cls-22" d="m2543.69,1898.78c-28.81,95.24-109.16,166.42-207.69,180.25-147.19,20.64-291.5-43.61-405.72-202.9-97.91-136.55-117.52-288.57-79.96-409.79,34.11-110.1,138.45-182.14,253.66-178.53,23.56.73,46.41,2.5,68.5,5.09,166.77,19.63,289.84,87.08,343.41,121.5,19.76,12.7,33.91,32.43,39.6,55.22,15.41,61.77,39.81,199.93,4.9,364.17-4.52,21.25-10.04,42.96-16.71,64.99"/>
    <g class="cls-9">
      <path class="cls-18" d="m1971.18,1413.61c4.34-34.21,53.61-64.32,129.76-68.95,98.28-5.97,302.82,61.16,289.25,93.19-21.25,50.15-423.35,9.97-419.01-24.24"/>
    </g>
    <g class="cls-13">
      <path class="cls-28" d="m2578.15,1652.6c.65,54.09-3.83,115.56-17.77,181.19-1.61,7.61-3.36,15.32-5.26,23.03-.88,3.69-1.85,7.43-2.82,11.21-1.94,7.48-3.96,14.95-6.18,22.48-.65,2.31-1.34,4.57-2.03,6.88-.14.46-.28.92-.42,1.38-.04.18-.09.32-.18.5-28.9,95.03-109.15,165.96-207.5,179.76-110.43,15.46-219.26-16.84-314.98-101.25,13.2-6.28,26.45-13.85,39.74-22.89,205.83-139.97,479.45-624.47,515.04-356.24.14,1.2.23,2.4.28,3.65.27,3.78.55,7.56.78,11.44.09,1.94.18,3.88.27,5.87.14,1.98.24,3.92.28,5.91.09,1.38.14,2.81.18,4.25.09,2.58.18,5.17.27,7.79.1,2.77.14,5.54.18,8.36.05,2.21.1,4.43.1,6.69"/>
    </g>
    <path class="cls-28" d="m2283.34,2101.2c18.26,0,36.67-1.29,55.22-3.89,104.26-14.62,191.71-90.46,222.79-193.18h0c6.58-21.74,12.32-44.11,17.09-66.5,35.18-165.5,11.94-304.41-5.04-372.48-6.85-27.45-23.73-50.99-47.53-66.28-59.05-37.93-183.2-104.53-351.24-124.3-23.25-2.73-46.83-4.49-70.08-5.21-124.08-3.79-235.73,74.88-271.87,191.52-42.11,135.9-11.24,295.16,82.59,426.01,100.18,139.7,229.25,214.31,368.06,214.32Zm-187.54-795.06c2.53,0,5.06.04,7.61.12,22.21.69,44.72,2.37,66.92,4.98,160.67,18.91,279.22,82.48,335.6,118.69,15.85,10.19,27.1,25.87,31.67,44.16,16.21,64.98,38.39,197.63,4.75,355.86-4.55,21.37-10.04,42.73-16.32,63.49h0c-26.92,89-102.51,154.68-192.58,167.31-147.41,20.67-281.67-46.88-388.16-195.38-87.13-121.51-116.04-268.64-77.32-393.57,30.5-98.44,123.53-165.66,227.85-165.66Z"/>
    <path class="cls-28" d="m1886.29,2602.01c1.58,0,3.17-.27,4.69-.82,4.35-1.54,7.84-5.22,8.91-10.06,1.66-7.47-3.05-14.86-10.51-16.52-4.34-.97-8.96.24-12.29,3.2-5.71,5.08-6.23,13.83-1.15,19.55,2.73,3.08,6.53,4.64,10.35,4.65Z"/>
    <path class="cls-22" d="m1113.75,2605.77c-21.48,12.1-464.38,238.13-489.7,207.03-21.36-34,334.82-380.96,353.17-397.42,18.39-16.49,205.53-147.38,205.53-147.38l.03.04c15.33,33.7,34.8,67.68,59.17,101.69,24.35,33.96,50.32,63.34,77.3,88.63l.03.03s-184.01,135.26-205.53,147.38"/>
    <g class="cls-14">
      <path class="cls-18" d="m1195.02,2293.22c-39.6,27.78-179.34,125.94-195.12,140.07-16.11,14.45-313.22,291.12-371.6,381.85-1.94-.46-3.37-1.25-4.25-2.35-21.37-33.97,334.82-380.93,353.19-397.4,18.37-16.52,205.51-147.4,205.51-147.4l.05.05c3.83,8.4,7.89,16.8,12.23,25.2"/>
    </g>
    <g class="cls-13">
      <path class="cls-28" d="m1319.3,2458.39s-184.05,135.27-205.55,147.36c-21.46,12.09-464.37,238.14-489.7,207.03-.6-.97-.92-2.22-.92-3.69,100.24-29.91,438.02-236.2,456.84-246.81,19.43-10.98,171.68-122.53,200.71-143.8,12.6,14.31,25.48,27.55,38.58,39.87l.05.05Z"/>
    </g>
    <path class="cls-28" d="m633.62,2829.56c14.58,0,38.36-5.94,79.46-21.33,40.84-15.29,95.71-38.91,163.09-70.2,117.01-54.33,232.85-113.72,244.37-120.2,0,0,0,0,0,0,21.99-12.39,199.39-142.74,206.93-148.29,3.25-2.39,5.3-6.08,5.61-10.11.31-4.03-1.16-7.98-4.01-10.84-27.51-25.81-52.92-54.95-75.87-86.94-22.93-31.99-42.38-65.41-57.82-99.35-.42-.91-.93-1.77-1.53-2.57-4.47-5.98-12.91-7.37-19.04-3.08-7.67,5.37-188.04,131.56-206.84,148.42-9.84,8.83-103.23,99.47-192.26,192.89-51.25,53.78-91.22,98.18-118.8,131.96-47.88,58.63-52.6,77.49-44.59,90.25.3.47.63.93.99,1.37,3.99,4.91,9.73,8.03,20.3,8.03Zm473.34-235.85c-10.41,5.85-118.17,61.12-230.28,113.54-163.36,76.39-218.65,91.79-236.94,94.3,8.24-16.53,40.53-63.96,165.31-194.18,85.65-89.4,172.57-173.74,181.44-181.69,13.45-12.06,131.85-95.61,190.79-136.93,14.9,30.41,32.84,60.3,53.44,89.04,20.62,28.75,43.16,55.31,67.16,79.15-58.06,42.57-175.17,127.9-190.9,136.77h0Z"/>
    <path class="cls-18" d="m1388.99,1500.56s156.27,224.91-67.79,394.66c0,0,31.93,155.66-55,182.58-97.86,30.3-186.39-63.24-188.58-183.76-1.74-95.58,64.39-201.28,64.39-201.28,0,0-184.15-90.64-176.47-353.53l32.4,12.35,232.12,116.17,158.93,32.82Z"/>
    <path class="cls-18" d="m1372.51,1848.61c-14.31,15.83-31.29,31.43-51.32,46.61,0,0,3.78,18.41,5.22,43.66,1.66,30.22,0,70.24-15.6,100.24-9.23,17.81-23.35,32.07-44.63,38.67-97.84,30.32-186.36-63.23-188.57-183.73-1.75-95.62,64.38-201.31,64.38-201.31,0,0-184.14-90.63-176.43-353.51l32.4,12.32,232.09,116.16,158.94,32.81s6.78,9.78,15.55,26.77c29.31,57.27,80.62,196.74-32.03,321.3"/>
    <g class="cls-11">
      <path class="cls-28" d="m1151.78,1539.9c-40.06,52.66,70.95,108.9,51.89,194.06-7.06,31.52-66.01,178.88,168.85,114.64-14.31,15.83-31.29,31.43-51.32,46.61,0,0,3.78,18.41,5.22,43.66-41.72-10.57-135.77-28.61-157.42,16.01-28.47,58.61,58.93,110.62,141.82,84.22-9.23,17.81-23.35,32.07-44.63,38.67-97.84,30.32-186.36-63.23-188.57-183.73-1.75-95.62,64.38-201.31,64.38-201.31,0,0-184.14-90.64-176.43-353.51l32.4,12.32,232.09,116.16,158.94,32.81s6.78,9.78,15.56,26.77l-.05.09s-187.46-73.24-252.72,12.51"/>
    </g>
    <path class="cls-28" d="m1396.57,1495.29c6.59,7.77,12.07,15.41,17.31,23.61,5.27,8.1,9.96,16.54,14.43,25.12,4.34,8.64,8.39,17.46,11.99,26.49,3.52,9.06,6.72,18.28,9.48,27.67,10.83,37.53,14.57,78.01,8.5,117.66-3.15,19.75-8.22,39.32-15.93,57.8-7.52,18.55-17.23,36.11-28.42,52.46-11.15,16.39-23.89,31.54-37.7,45.4-13.73,13.96-28.47,26.73-43.89,38.43l6.94-18.42c1.64,8.52,2.68,16.03,3.63,24.04.91,7.9,1.58,15.81,1.99,23.78.81,15.91.66,32-1.07,48.28-1.76,16.25-5.04,32.77-11.57,49.03-6.46,16.11-16.79,32.32-32.1,44.07-7.55,5.87-16.16,10.45-25.02,13.55l-3.34,1.13-3.12.87-6.24,1.69c-4.21.97-8.47,1.8-12.75,2.49-17.18,2.43-35.05,2.03-52.02-2.1-17-3.99-33.09-11.08-47.33-20.53-14.35-9.33-26.93-20.85-37.72-33.61-21.73-25.52-36.27-55.89-44.73-87.4-4.22-15.79-6.89-31.94-8.05-48.16-.56-8.1-.79-16.23-.62-24.5.31-8.18.81-16.34,1.86-24.35,3.91-32.16,12.88-62.73,24.07-92.04,5.63-14.66,11.9-29,18.71-43.06,3.42-7.03,6.96-14,10.66-20.9,3.76-6.99,7.42-13.57,11.85-20.8l7.49,26.35c-2.76-1.41-4.62-2.45-6.76-3.7-2.09-1.19-4.08-2.41-6.08-3.64-3.97-2.47-7.82-5.03-11.63-7.65-7.57-5.26-14.82-10.85-21.91-16.64-14.05-11.69-27.19-24.37-39.32-37.94-24.24-27.17-44.52-57.82-60.07-90.64-15.49-32.84-26.65-67.66-33.05-103.15-6.55-35.49-8.98-71.53-7.96-107.28.29-10.19,8.78-18.22,18.98-17.93,10.19.29,18.22,8.78,17.93,18.97v.03c-.95,33.45,1.34,66.85,7.35,99.44,5.87,32.62,16.07,64.3,30.09,94.05,14.09,29.73,32.41,57.39,54.25,81.88,10.93,12.23,22.77,23.64,35.32,34.09,6.33,5.16,12.78,10.14,19.43,14.76,3.33,2.29,6.68,4.52,10.06,6.62l5.05,3.03c1.6.95,3.53,1.98,4.61,2.55l.22.12c9.12,4.75,12.66,15.99,7.91,25.12-.19.37-.42.77-.64,1.12-3.48,5.69-7.2,12.32-10.61,18.67-3.45,6.44-6.78,12.96-9.97,19.55-6.38,13.18-12.24,26.6-17.47,40.21-10.4,27.18-18.5,55.21-21.88,83.23-.93,7-1.33,13.97-1.61,20.9-.13,6.87.06,13.88.54,20.88,1,13.97,3.3,27.82,6.89,41.28,7.19,26.85,19.57,52.39,37.21,73.02,8.73,10.36,18.74,19.46,29.8,26.62,10.98,7.31,23.03,12.53,35.51,15.47,12.47,3.06,25.42,3.29,38.17,1.54,3.18-.53,6.36-1.14,9.53-1.86l4.72-1.29,2.34-.63,2.04-.7c5.42-1.9,10.34-4.54,14.74-7.96,8.83-6.76,15.65-16.81,20.42-28.69,4.8-11.86,7.62-25.3,9.1-39.11,1.47-13.84,1.64-28.12.9-42.43-.37-7.16-.97-14.33-1.8-21.47-.81-7.02-1.89-14.51-3.12-20.85l-.04-.19c-1.38-7.13,1.56-14.11,6.97-18.23,28.26-21.47,53.72-46.45,72.83-75.37,19.23-28.82,31.81-61.34,37-95.16,5.2-33.86,3.29-68.9-3.99-103.31-1.74-8.62-3.81-17.22-6.24-25.75-2.34-8.56-5-17.07-7.96-25.49-5.74-16.81-12.72-33.86-20.28-49.6l-.25-.53c-2.22-4.61-.27-10.14,4.34-12.36,3.88-1.86,8.41-.78,11.07,2.36"/>
    <path class="cls-18" d="m2111.73,585.72s79.12,81.75,80.63,104.22c2.81,41.66-91.88,234.26-166.42,261.05-29.19,10.49-183.87-39.61-183.87-39.61l269.66-325.66Z"/>
    <g class="cls-11">
      <path class="cls-28" d="m1842.07,911.39s154.69,50.08,183.87,39.59c29.09-10.44,61.29-46.19,89.5-88.35-2.29.69-74.77,20.96-135.11-117.85-.03-.07-.08-.17-.11-.24l-138.16,166.85Z"/>
    </g>
    <path class="cls-18" d="m1201.21,610.16s-137.27-87.15-147.8-116.32c-10.52-29.06-3.54-76.66,10.92-125.29v-.04c22.54-75.92,63.24-154.47,83.89-169.36,18.27-13.17,131.7-4.44,131.7-4.44l-38.39,202.61-40.32,212.84Z"/>
    <g class="cls-11">
      <path class="cls-28" d="m1201.21,610.16s-137.27-87.15-147.8-116.32c-10.52-29.06-3.54-76.66,10.92-125.29.93,2.22,31.57,70.95,176.95,28.84.07-.03.18-.05.26-.07l-40.32,212.84Z"/>
    </g>
    <path class="cls-28" d="m2015.07,970.6c7,0,12.83-.69,17.12-2.23,83.36-29.95,181.79-232.34,178.59-279.66-1.71-25.41-54.48-83.47-85.78-115.82l-14.34-14.81-300.16,362.49,25.88,8.38c41.77,13.53,133.99,41.65,178.69,41.65Zm158.9-278.92c1.36,34.54-88.41,218.29-154.27,241.95-13.74,3.86-81.8-12.2-145.88-31.63l238.83-288.43c29.61,31.99,58.39,67.31,61.32,78.11Z"/>
    <path class="cls-28" d="m1214.31,640.32l87.59-462.41-20.55-1.59c-44.87-3.47-123.25-7.05-143.92,7.85-38.48,27.74-131.5,232.66-101.38,315.96,11.46,31.67,112.41,98.4,155.29,125.62l22.97,14.58Zm43.6-428.54l-69.7,367.93c-55.85-36.95-111.68-79.13-117.5-92.28-23.75-65.67,60.45-252.04,87.92-273.03,10.19-4.64,55.75-5.01,99.28-2.63Z"/>
    <polygon class="cls-20" points="1599.13 592.25 1598.35 593.9 1597.68 592.6 1599.13 592.25"/>
    <polygon class="cls-20" points="1597.67 592.59 1596.23 592.91 1597.01 591.26 1597.67 592.59"/>
    <path class="cls-18" d="m2084.93,721.73c-115.87,246.51-409.65,352.42-656.16,236.54-246.51-115.87-352.42-409.65-236.54-656.16,115.87-246.51,409.65-352.42,656.17-236.54,246.51,115.87,352.41,409.65,236.54,656.16"/>
    <path class="cls-25" d="m2084.95,721.72c-115.87,246.52-409.65,352.42-656.16,236.54-246.52-115.88-352.45-409.66-236.57-656.18,12.23-26.02,26.45-50.5,42.41-73.27-62.56,227.15,45.45,473.1,265.94,576.74,220.49,103.64,478.75,29.86,613.74-163.25-7.34,26.81-17.12,53.38-29.35,79.41"/>
    <path class="cls-28" d="m1638.26,1023.85c58.51,0,117.17-10.16,173.85-30.59,128.56-46.35,231.4-140,289.54-263.68h0c120.01-255.33,9.93-560.7-245.4-680.72-255.34-120.03-560.71-9.93-680.73,245.39-120.02,255.33-9.93,560.7,245.4,680.72,69.17,32.51,143.12,48.87,217.34,48.88Zm1.05-986.66c67.56,0,136.15,14.48,201.23,45.07,236.9,111.36,339.04,394.69,227.68,631.6h0c-53.94,114.76-149.35,201.65-268.64,244.66-119.3,43.01-248.19,36.98-362.96-16.97-236.91-111.36-339.05-394.69-227.69-631.6,80.77-171.83,252.01-272.76,430.38-272.76Z"/>
    <path class="cls-28" d="m1638.26,1023.85c58.51,0,117.17-10.16,173.85-30.59,128.56-46.35,231.4-140,289.54-263.68h0c120.01-255.33,9.93-560.7-245.4-680.72-255.34-120.03-560.71-9.93-680.73,245.39-120.02,255.33-9.93,560.7,245.4,680.72,69.17,32.51,143.12,48.87,217.34,48.88Zm1.05-986.66c67.56,0,136.15,14.48,201.23,45.07,236.9,111.36,339.04,394.69,227.68,631.6h0c-53.94,114.76-149.35,201.65-268.64,244.66-119.3,43.01-248.19,36.98-362.96-16.97-236.91-111.36-339.05-394.69-227.69-631.6,80.77-171.83,252.01-272.76,430.38-272.76Z"/>
    <path class="cls-28" d="m1638.26,1023.85c58.51,0,117.17-10.16,173.85-30.59,128.56-46.35,231.4-140,289.54-263.68h0c120.01-255.33,9.93-560.7-245.4-680.72-255.34-120.03-560.71-9.93-680.73,245.39-120.02,255.33-9.93,560.7,245.4,680.72,69.17,32.51,143.12,48.87,217.34,48.88Zm1.05-986.66c67.56,0,136.15,14.48,201.23,45.07,236.9,111.36,339.04,394.69,227.68,631.6h0c-53.94,114.76-149.35,201.65-268.64,244.66-119.3,43.01-248.19,36.98-362.96-16.97-236.91-111.36-339.05-394.69-227.69-631.6,80.77-171.83,252.01-272.76,430.38-272.76Z"/>
    <path class="cls-28" d="m1638.64,1023.67c148.31,0,293.44-64.48,392.97-184,.28-.29.55-.6.81-.91,27.42-33.09,50.7-69.83,69.21-109.19,8.12-17.28,15.33-35.13,21.43-53.06,84.19-246.74-30.52-516.57-266.83-627.65-236.24-111.04-517.16-27.24-653.44,194.94-9.88,16-19.07,32.99-27.28,50.45-18.52,39.4-31.94,80.79-39.88,123-.07.38-.13.76-.18,1.14-42.72,228.69,74.54,457.44,285.45,556.58,69.89,32.85,144.2,48.7,217.72,48.71Zm365.17-208.31c-138.05,166.38-371.25,218.28-567.19,126.18-196.01-92.13-304.84-304.9-264.67-517.4h0c.07-.37.13-.74.18-1.12,7.38-38.78,19.77-76.82,36.81-113.07,7.62-16.2,16.13-31.95,25.31-46.8,126.46-206.17,387.1-283.92,606.29-180.88,219.26,103.06,325.69,353.41,247.58,582.33-5.67,16.66-12.36,33.23-19.9,49.26h0c-17.02,36.21-38.38,70.01-63.51,100.48-.31.33-.61.67-.89,1.02Z"/>
    <path class="cls-28" d="m2124.42,609.85c5.99,0,11.23-4.3,12.29-10.32,39.63-224.11-76.75-448.34-283.01-545.3-206.13-96.88-452.95-43.51-600.24,129.81-4.25,5-3.91,12.43.78,17.02,4.68,4.59,12.11,4.78,17.03.44,147.26-130.2,361.87-158.18,546.72-71.28,184.98,86.95,300.35,270.15,293.92,466.72-.21,6.56,4.68,12.16,11.2,12.84.43.05.87.07,1.31.07ZM1638.99,31.3c69.04,0,138.7,14.82,204.08,45.56,141.15,66.35,238.02,195.39,267.16,341.95-45.36-133.5-145.52-247.25-281.6-311.22-135.98-63.92-287.43-68.49-419.14-18.32,70.5-38.09,149.58-57.97,229.5-57.97Z"/>
    <path class="cls-28" d="m2084.9,721.72c-18.16,38.63-40.7,73.86-66.72,105.27,0,0-.04-.02-.06.02-147.75,113.2-372.71,164.62-563.02,75.17-190.31-89.46-294.21-295.46-301.32-481.45.02-.04-.02-.06-.02-.06,7.54-40.09,20.28-79.92,38.44-118.56,7.94-16.89,16.72-33.14,26.31-48.65,138.53-138.31,370.99-176.23,578.51-78.68,207.57,97.57,326.69,300.85,308.53,495.79-5.86,17.22-12.74,34.31-20.66,51.16"/>
    <g class="cls-4">
      <path class="cls-19" d="m2084.91,721.74c-18.17,38.63-40.7,73.86-66.72,105.27,0,0-.04-.02-.06.02-147.75,113.2-372.7,164.61-563.01,75.16-190.31-89.46-294.22-295.45-301.33-481.44.02-.04-.02-.06-.02-.06,4.5-23.88,10.84-47.66,19.06-71.18,47.22,159.47,154.29,309.67,316.29,385.82,206.39,97.01,448.53,48.75,616.64-67.28-.06.87-.1,1.7-.2,2.55-5.86,17.22-12.74,34.31-20.66,51.16"/>
    </g>
    <g class="cls-9">
      <path class="cls-18" d="m1357.7,402.1c-4.49,47.78-36.2,83.87-70.82,80.61-34.62-3.25-59.04-44.62-54.55-92.4,4.49-47.78,36.2-83.87,70.82-80.61,34.62,3.26,59.04,44.62,54.55,92.4"/>
    </g>
    <g class="cls-9">
      <path class="cls-18" d="m1357.06,581.21c.99,22-13.52,40.53-32.4,41.38-18.88.85-34.99-16.3-35.98-38.31-.99-22,13.52-40.53,32.4-41.37,18.88-.85,34.99,16.3,35.98,38.3"/>
    </g>
    <g class="cls-9">
      <path class="cls-18" d="m1902.75,783.38s160.52-221.4,60.2-364.64c-100.32-143.24-292.29-207.09-291.92-193.28,0,0,195.15,122.53,222.03,318.25,20.72,150.93,9.69,239.67,9.69,239.67"/>
    </g>
    <path class="cls-18" d="m1297.43,1337.27c-6.05,40.52-57.18,54.04-57.18,54.04,0,0-201.08,20.31-270.17-66.13-59.4-81.92,22.06-140.67,22.06-140.67,0,0,10.29,11.49,31.89,25.71,37.52,24.6,109.19,57.27,220.6,51.87,0,0,50.4,16.61,53.3,63.6.23,4.06.05,7.94-.51,11.58"/>
    <g class="cls-11">
      <path class="cls-28" d="m1297.43,1337.27c-6.05,40.52-57.18,54.04-57.18,54.04,0,0-201.08,20.31-270.17-66.13-59.4-81.92,22.06-140.67,22.06-140.67,0,0,10.29,11.49,31.89,25.71-3,43.61,6.97,98.62,67.1,124.56,66.18,28.57,156.27,18.64,206.29,2.49"/>
    </g>
    <path class="cls-28" d="m1189.36,1411.92c29.53,0,50.14-1.98,52.76-2.24.97-.1,1.92-.27,2.87-.52,26.07-6.9,74.55-33.46,71.36-84.65-3.63-58.76-63.39-79.11-65.94-79.95-2.14-.71-4.42-1.02-6.67-.91-163.74,7.92-237.13-70.72-237.86-71.52-6.31-6.94-16.9-8.1-24.51-2.61-1.73,1.24-42.33,31.02-50.14,79.53-4.72,29.32,3.32,58.58,23.88,86.96.18.24.35.47.53.7,51.86,64.86,166.12,75.2,233.71,75.2Zm47.47-38.83c-18.57,1.58-192.83,14.26-252.07-59.09-35.4-49.21-9.93-87.25,7.04-104.65,29.69,24.87,109.37,77.15,249.84,71.36,8.94,3.75,36.09,17.46,37.86,46.09,1.91,30.84-35.25,43.98-42.68,46.29Z"/>
    <path class="cls-28" d="m1308.98,1801.96c117.48,0,145.49-104.72,145.76-105.79,1.88-7.41-2.59-14.95-10-16.83-7.4-1.9-14.95,2.6-16.83,10-.92,3.51-24.11,87.25-122.72,84.88-57.33-1.25-87.24-33.84-111.26-60.02-16.66-18.15-31.04-33.83-50.9-35.26-7.55-.57-14.25,5.18-14.8,12.81-.55,7.63,5.19,14.25,12.81,14.8,8.89.64,19.82,12.56,32.5,26.37,26.13,28.47,61.92,67.47,131.06,68.98,1.48.03,2.95.05,4.4.05Z"/>
    <path class="cls-28" d="m1155.92,1870.74c12.98,8.54,28.65,14.39,44.35,18.2,15.77,3.83,31.99,5.64,48.01,5.26,15.99-.47,31.89-2.78,46.77-7.97,14.91-5.06,28.82-12.43,41.57-21.4l.32-.23c6.26-4.41,14.9-2.91,19.31,3.35,4.41,6.26,2.91,14.9-3.35,19.31-.24.17-.51.35-.76.5-15.7,9.59-32.63,17.08-50.29,21.74-17.64,4.8-35.93,6.18-53.82,5.47-17.93-.8-35.58-4.01-52.49-9.37-16.91-5.43-33.17-12.58-47.93-23.77-3.05-2.31-3.64-6.65-1.33-9.69,2.21-2.91,6.28-3.59,9.29-1.62l.34.22Z"/>
    <path class="cls-28" d="m993.88,2460.78c10.91,5.52,20.06,12.53,28.68,19.99,8.55,7.51,16.41,15.61,23.68,24.21,7.27,8.59,13.93,17.71,19.89,27.4,5.9,9.75,11.26,19.96,14.84,31.66-10.94-5.51-20.09-12.51-28.71-19.96-8.55-7.52-16.41-15.61-23.66-24.23-7.25-8.61-13.9-17.73-19.87-27.43-5.89-9.75-11.26-19.96-14.86-31.64"/>
  </g>
</svg>