<?xml version="1.0" encoding="UTF-8"?>
<svg id="Layer_1" data-name="Layer 1" xmlns="http://www.w3.org/2000/svg" viewBox="0 0 2519.75 3068.31">
  <defs>
    <style>
      .cls-1 {
        fill: #838396;
      }

      .cls-2 {
        fill: #f4f4f4;
      }

      .cls-3 {
        fill: #fff;
      }

      .cls-4 {
        fill: #111a28;
      }

      .cls-5 {
        fill: #f6f6f6;
      }

      .cls-6 {
        opacity: .35;
      }

      .cls-6, .cls-7, .cls-8, .cls-9, .cls-10 {
        fill: none;
      }

      .cls-11 {
        fill: #8888a5;
      }

      .cls-12 {
        fill: #4da6ff;
      }

      .cls-7 {
        opacity: .6;
      }

      .cls-8 {
        opacity: .5;
      }

      .cls-9 {
        opacity: .2;
      }

      .cls-10 {
        opacity: .3;
      }

      .cls-13 {
        fill: #371a45;
      }

      .cls-14 {
        fill: #000070;
      }

      .cls-15 {
        fill: #9c9cb5;
      }

      .cls-16 {
        fill: #f3f3f3;
      }

      .cls-17 {
        fill: #ff0068;
      }
    </style>
  </defs>
  <g class="cls-9">
    <ellipse class="cls-13" cx="1229.42" cy="2881.18" rx="1229.42" ry="187.13"/>
  </g>
  <path class="cls-3" d="m119.32,2704.54l.05.05c15.79,39.45,33.58,76.59,49.26,107.49,66.47,131.15,164.36,115.41,164.36,115.41l278.05-129.42c180.15-38.45,375.99-41.97,375.99-41.97,258.79,85.72,508.87,5.25,508.87,5.25l321.75,55.98s61.22,24.5,243.11,99.68c181.83,75.18,295.51-276.31,299.03-344.51,3.46-68.2,17.47-162.63-104.92-208.06-7.45-2.78-14.69-4.83-21.77-6.24-109.54-22.35-175.85,104.14-175.85,104.14-76.96-48.95-208.11-131.15-208.11-131.15l8.55-112.69.21-2.73c15.74,2.41,30.74,3.93,45.06,4.56.31.05.63.05.89.05,159.64,7.29,229.15-88.71,235.6-147.99,6.98-64.68,3.46-141.65-76.96-227.31-80.42-85.72-196.15-173.12-196.15-173.12l-51.78-8.66-504.89-84.62s-453.79-8.18-590.4,63.48c-85.93,45.12-197.31,104.08-276.31,196.15-46.59,54.19-81.89,119.87-94.22,200.87-21.67,142.48,117.25,177.21,216.56,184.14,48.42,3.41,87.4.16,93.8-.42.31-.05.63-.05.94-.11l1.78,52.72,1.68,50.42c-167.88,45.48-302.49,131.15-302.49,131.15-69.98-106.65-192.38-75.18-192.38-75.18-130.94,42.76-100.57,194.79-49.31,322.64Z"/>
  <path class="cls-13" d="m976.11,2428.24h505.58c60.38,0,109.31-47.06,111.4-107.13,2.61-75.12.86-157.53-5.19-245.02.24-1.81.21-3.66-.12-5.5-2.62-14.52-16.8-15.68-24.42-16.31-5.22-.43-12.58-.84-22.48-1.26-17.85-.76-43.97-1.53-77.65-2.29-56.58-1.28-135.36-2.55-234.15-3.79-168.14-2.1-338.33-3.39-340.03-3.4h-.14c-9.64,0-17.65,7.46-18.32,17.09-5.29,76.16-7.9,190.07-5.95,259.34,1.72,60.73,50.68,108.29,111.46,108.29Zm575.93-337.99c5.33,81.89,6.79,159.06,4.35,229.58-1.4,40.2-34.21,71.69-74.7,71.69h-505.58c-40.77,0-73.6-31.89-74.75-72.61-1.78-63.22.3-164.25,4.76-238.54,236.76,1.85,573.42,5.75,645.92,9.87Z"/>
  <g class="cls-9">
    <path class="cls-13" d="m883,2319.42c1.42,50.36,42.7,90.44,93.12,90.44h505.57c50,0,91.34-39.45,93.07-89.39,1.26-37.14,1.47-75.02.73-113.53-.21,8.71-.42,17.42-.73,26.02-1.73,50-43.07,89.45-93.07,89.45h-505.57c-50.42,0-91.7-40.08-93.12-90.44-.1-3.41-.16-6.98-.26-10.6-.58,35.73-.52,70.04.26,98.05Z"/>
  </g>
  <g class="cls-9">
    <path class="cls-13" d="m883,2396.19c1.42,50.36,42.7,90.44,93.12,90.44h505.57c50,0,91.34-39.45,93.07-89.39,1.26-37.14,1.47-75.02.73-113.53-.21,8.71-.42,17.42-.73,26.02-1.73,50-43.07,89.45-93.07,89.45h-505.57c-50.42,0-91.7-40.08-93.12-90.44-.1-3.41-.16-6.98-.26-10.6-.58,35.73-.52,70.04.26,98.05Z"/>
  </g>
  <path class="cls-13" d="m322.67,2946.46c7.62,0,12.37-.7,13.25-.84,1.67-.27,3.3-.77,4.83-1.48l276.15-128.52c163.56-34.66,341.98-40.41,367.38-41.06,244.63,79.82,476.97,16.39,512.81,5.66l315.52,54.87c11.3,4.54,77.94,31.43,241.1,98.89,47.23,19.53,93.76,15.14,138.32-13.02,119.96-75.84,183.57-298.77,186.07-347.5.22-4.23.47-8.56.74-12.97,3.93-66.07,9.87-165.93-117.6-213.28-98.04-36.43-174.99,35.05-210.19,89.45-64.17-40.71-153.82-96.98-182.76-115.13l6.44-84.98c107.34,12.02,174.48-19.04,212.52-48.25,39.69-30.48,66.02-73.07,70.44-113.94,7.42-68.61,3.5-151-81.81-241.88-80.59-85.84-193.7-171.6-198.48-175.21-8.09-6.11-19.61-4.51-25.72,3.58-6.11,8.09-4.51,19.6,3.58,25.72,1.15.86,115.43,87.52,193.84,171.04,74.93,79.82,78.92,149.44,72.07,212.79-2.6,24-18.75,59.93-56.3,88.76-34.62,26.59-98.17,54.84-204.18,38.46-5.07-.8-10.21.58-14.22,3.76-4.01,3.18-6.51,7.89-6.89,12.99l-8.75,115.42c-.52,6.8,2.78,13.33,8.56,16.95,1.31.82,131.98,82.71,207.99,131.08,4.34,2.75,9.63,3.58,14.59,2.25,4.97-1.33,9.15-4.67,11.53-9.22,2.76-5.24,69.33-128.45,174.95-89.24,101.99,37.89,97.6,111.62,93.74,176.67-.27,4.52-.53,8.95-.75,13.28-2.7,52.7-68.91,255.06-169.01,318.34-34.37,21.71-68.6,25.04-104.66,10.13-179.88-74.38-242.66-99.51-243.27-99.76-1.18-.48-2.41-.83-3.67-1.04l-321.76-55.96c-2.93-.5-5.94-.3-8.77.61-2.44.78-247.7,77.5-497.48-5.2-1.97-.65-4-.96-6.1-.93-1.98.03-199.71,3.97-379.48,42.37-1.35.29-2.66.72-3.91,1.31l-275.35,128.14c-13.76,1.14-88.45,1.76-142.95-105.81-81.4-160.66-108.53-276.25-80.62-343.55,12.2-29.42,34.88-49.28,69.3-60.67,9.01-2.14,111.75-24.18,171.94,67.6,5.5,8.4,16.73,10.82,25.21,5.42,1.33-.84,134.44-84.77,297.47-128.93,8.23-2.23,13.84-9.83,13.55-18.34l-3.49-103.17c-.17-5.08-2.45-9.86-6.27-13.2-3.83-3.34-8.87-4.96-13.93-4.44-1.9.19-190.05,18.14-264.15-59.8-24.8-26.08-33.67-59.7-27.12-102.78,32.08-211.03,229.97-314.82,360.92-383.51,130.91-68.67,577.04-61.43,581.51-61.35h.34c9.99,0,18.17-8,18.35-18.03.18-10.14-7.89-18.51-18.03-18.69-18.73-.33-460.09-7.43-599.23,65.55-137.5,72.12-345.3,181.11-380.17,410.51-8.26,54.31,4.15,99.27,36.86,133.65,71.74,75.39,221.06,75.14,274.86,72.39l2.36,69.7c-132.01,37.82-240.24,97.71-278.69,120.44-77.46-99.01-200.63-68.78-201.93-68.45-.38.1-.75.21-1.13.33-44.95,14.68-76.06,42.17-92.46,81.72-32.66,78.75-5.91,201.15,81.78,374.22,57.78,114.03,138.79,126.08,170.42,126.08Z"/>
  <g class="cls-9">
    <path class="cls-13" d="m1752.09,1801.1s-386.95,140.49-765.06-81.15c-378.11-221.64,765.06-77.8,765.06-77.8"/>
  </g>
  <g class="cls-9">
    <path class="cls-13" d="m119.37,2704.59c15.79,39.45,33.58,76.59,49.26,107.49,66.47,131.15,164.36,115.41,164.36,115.41l278.05-129.42c180.15-38.45,375.99-41.97,375.99-41.97,258.79,85.72,508.87,5.25,508.87,5.25l321.75,55.98s61.22,24.5,243.11,99.68c181.83,75.18,295.51-276.31,299.03-344.51,3.46-68.2,17.47-162.63-104.92-208.06-7.45-2.78-14.69-4.83-21.77-6.24l-4.46,1.73s155.34,283.4-82.78,331.08l-21.46,65.1s-90.76,34.47-98.63-112.16l-390.42-60.96s-98.05,111.06-377.14,88.76c-279.04-22.3-303.96-88.76-303.96-88.76,0,0-254.59-15.79-397.39,92.7-142.8,108.49-240.06,17.26-240.06,17.26l-48.47-109.96s-30.43,263.15-148.94,121.61Z"/>
  </g>
  <path class="cls-13" d="m2143.46,2934.78c6.53,0,13.89-.95,22.18-3.12,8.41-2.21,13.43-10.81,11.22-19.22-2.21-8.4-10.8-13.47-19.22-11.22-22.18,5.82-27.67-2.09-29.73-5.06-17.17-24.8-3.18-104.26,37.42-212.54,37.15-99.1,83.57-189.43,102.79-216.54,12.64-17.83,25.16-26.87,37.21-26.87.07,0,.14,0,.21,0,18.29.16,33.43,21.1,33.58,21.31,4.9,7.17,14.7,9.02,21.87,4.11,7.18-4.91,9.02-14.7,4.11-21.88-.97-1.42-24.15-34.73-59.29-35.03h-.49c-22.83,0-43.98,13.5-62.87,40.14-23.18,32.7-70.53,127.52-106.58,223.69-46.86,124.99-58.24,206.24-33.82,241.51,7.05,10.19,19.62,20.71,41.43,20.71Z"/>
  <path class="cls-13" d="m2040.25,2455.37c-10.42,41.76-17.91,84.71-13.62,127.63.33,3.04,4.93,3.08,5.25,0,6.09-40.21,23.22-78.34,42.34-113.69,12.4-24.71-25.42-40.28-33.97-13.94h0Z"/>
  <path class="cls-13" d="m1824.28,2835.73c1.17,0,2.37-.13,3.56-.41,8.47-1.96,13.75-10.41,11.79-18.88-56.14-242.74,143.8-377.5,145.82-378.83,7.26-4.78,9.27-14.54,4.5-21.8-4.78-7.27-14.53-9.28-21.8-4.5-2.27,1.49-56.08,37.33-102.83,105.97-43.31,63.6-88.25,168.35-56.36,306.25,1.68,7.28,8.16,12.2,15.32,12.2Z"/>
  <path class="cls-13" d="m324.36,2943.81c2.53,0,5.1-.62,7.49-1.9,17.35-9.41,29.2-25.25,35.22-47.09,27.46-99.63-74.63-309.98-132.45-407.28-29.79-50.13-61.84-76.96-95.27-79.73-35.49-2.95-57.59,22.73-58.52,23.83-5.61,6.64-4.78,16.57,1.86,22.18,6.61,5.58,16.47,4.79,22.1-1.77.71-.8,13.26-14.6,32.32-12.84,22.28,2.07,46.64,24.34,70.45,64.41,61.98,104.31,151.86,300.49,129.16,382.84-3.71,13.46-10.21,22.54-19.87,27.78-7.64,4.15-10.48,13.7-6.34,21.34,2.85,5.26,8.26,8.24,13.85,8.24Z"/>
  <path class="cls-13" d="m344.79,2465.74l54.98,69.53c1.72,2.32,5.6.23,4.63-2.47,0,0-27.21-84.36-27.21-84.36-10.77-27.19-49-6.81-32.39,17.3h0Z"/>
  <path class="cls-13" d="m605.32,2816.51c7.47,0,14.1-5.34,15.47-12.94,27.67-153.19-8.6-259.85-43.89-322.35-38.64-68.41-83.96-100.02-85.87-101.34-7.16-4.92-16.96-3.11-21.88,4.06-4.91,7.15-3.11,16.94,4.03,21.87.59.41,42.23,29.84,77.16,92.39,32.28,57.8,65.32,156.73,39.48,299.78-1.55,8.55,4.14,16.74,12.69,18.29.94.17,1.89.25,2.82.25Z"/>
  <path class="cls-13" d="m663.49,2344.29c1.74,0,3.5-.24,5.25-.77,46.22-13.77,98.17-19.11,98.69-19.16,5.03-.51,9.63-3.07,12.71-7.08s4.38-9.11,3.58-14.1c-4.81-30.06-8.26-61.89-10.24-94.62-.61-10.12-9.3-17.69-19.44-17.22-10.12.62-17.83,9.32-17.22,19.44,1.65,27.2,4.27,53.83,7.83,79.42-20.47,2.88-54.31,8.56-86.4,18.12-9.72,2.9-15.25,13.12-12.35,22.84,2.38,7.97,9.68,13.12,17.59,13.12Z"/>
  <path class="cls-13" d="m793.14,1893.13c5.03-60.35,12.61-120.84,24.8-180.28.66-3.03-3.87-4.49-5.02-1.51-11.34,28.55-21.22,57.56-30.55,86.86-9.24,29.32-17.72,58.93-25.45,88.82-5.45,25.87,32.82,32.42,36.21,6.1h0Z"/>
  <path class="cls-13" d="m748.02,2311.47l35.37,68.03c1.21,2.57,5.33,1.41,5.06-1.4,0,0-5.31-77.36-5.31-77.36-.71-10.38-9.7-18.22-20.08-17.5-13.65.61-22.03,16.63-15.04,28.23h0Z"/>
  <path class="cls-13" d="m1849.11,2349.53c6.87,0,13.46-3.87,16.6-10.5,4.35-9.16.44-20.11-8.72-24.46-31.33-14.85-52.71-24.77-64.91-30.37,3.84-32.71,6.55-67.43,8.08-103.4.43-10.13-7.43-18.7-17.57-19.13-10.14-.34-18.69,7.44-19.12,17.56-1.7,39.91-4.88,78.18-9.47,113.75-1.04,8.04,3.32,15.8,10.71,19.11.24.11,24.52,10.99,76.54,35.66,2.54,1.2,5.22,1.77,7.86,1.77Z"/>
  <path class="cls-13" d="m1772.2,1916.47c.62,0,1.24-.03,1.87-.1,10.09-1.02,17.44-10.02,16.42-20.11-6.86-67.8-14.24-110.95-14.55-112.75-1.72-9.99-11.22-16.69-21.21-14.98-9.99,1.72-16.7,11.22-14.98,21.21.08.43,7.49,43.8,14.2,110.21.96,9.46,8.94,16.52,18.25,16.52Z"/>
  <path class="cls-13" d="m1754.67,2289.88l-25.19,133.81c-.64,2.96,3.86,4.39,5.01,1.56,0,0,55.25-124.45,55.25-124.45,4.14-9.33-.06-20.25-9.4-24.39-10.69-4.92-23.63,1.92-25.67,13.47h0Z"/>
  <path class="cls-13" d="m1952.28,1930.43l73.96-29.74c2.67-.98,1.86-5.22-.96-5.16,0,0-79.71-1.2-79.71-1.2-10.34-.16-18.85,8.1-19.01,18.44-.48,13.13,13.71,22.75,25.72,17.66h0Z"/>
  <path class="cls-13" d="m591.62,1886.71l-88.54.78c-2.89-.06-3.62,4.28-.89,5.17,0,0,83.22,30.24,83.22,30.24,28.08,8.18,35.44-34.52,6.21-36.2h0Z"/>
  <path class="cls-13" d="m1504.77,2774.37l49.01-49.31c2.08-1.97-.39-5.55-2.96-4.33,0,0-63.79,27.64-63.79,27.64-22.57,11.57-1.3,42.8,17.74,26h0Z"/>
  <path class="cls-13" d="m998.06,2744.9l-61.66-42.24c-2.34-1.7-5.42,1.45-3.68,3.74,0,0,43.27,60.94,43.27,60.94,15.66,19.45,41.79-7.08,22.07-22.44h0Z"/>
  <path class="cls-11" d="m866.66,2105.6v-95.01c0-31.07,25.18-56.25,56.25-56.25h200.52c18.11,0,32.79,14.68,32.79,32.79v112.79c0,18.11-14.68,32.79-32.79,32.79h-251.09"/>
  <g class="cls-9">
    <path class="cls-13" d="m866.68,2045.26v60.33l5.67,27.12h251.08c18.1,0,32.79-14.69,32.79-32.79v-60.33c0,18.1-14.69,32.79-32.79,32.79h-251.08l-5.67-27.12Z"/>
  </g>
  <g class="cls-7">
    <path class="cls-5" d="m866.68,2010.58v28.85c0-31.06,25.18-56.24,56.24-56.24h200.51c18.1,0,32.79,14.69,32.79,32.79v-28.85c0-18.1-14.69-32.79-32.79-32.79h-200.51c-31.06,0-56.24,25.18-56.24,56.24Z"/>
  </g>
  <path class="cls-11" d="m1635.36,2105.6v-95.01c0-31.07-25.18-56.25-56.25-56.25h-200.52c-18.11,0-32.79,14.68-32.79,32.79v112.79c0,18.11,14.68,32.79,32.79,32.79h251.09"/>
  <g class="cls-9">
    <path class="cls-13" d="m1345.81,2041.69v58.23c0,18.1,14.69,32.79,32.79,32.79h251.08l5.67-27.12v-58.18l-5.67,27.07h-251.08c-18.1,0-32.79-14.69-32.79-32.79Z"/>
  </g>
  <g class="cls-7">
    <path class="cls-5" d="m1345.81,1987.13v27.54c0-18.1,14.69-32.79,32.79-32.79h200.51c31.06,0,56.24,25.18,56.24,56.24v-27.54c0-31.06-25.18-56.24-56.24-56.24h-200.51c-18.1,0-32.79,14.69-32.79,32.79Z"/>
  </g>
  <rect class="cls-11" x="1155.93" y="1992.81" width="189.87" height="111.2" transform="translate(2501.74 4096.82) rotate(180)"/>
  <g class="cls-9">
    <rect class="cls-13" x="1155.95" y="2059.63" width="189.86" height="44.38"/>
  </g>
  <g class="cls-7">
    <rect class="cls-5" x="1155.95" y="1992.79" width="189.86" height="28.7"/>
  </g>
  <path class="cls-13" d="m872.34,2148.44h251.09c26.76,0,48.53-21.77,48.53-48.53v-112.79c0-26.76-21.77-48.53-48.53-48.53h-200.52c-39.69,0-71.99,32.29-71.99,71.99v95.01c0,7.13,4.74,13.15,11.25,15.09-3.41,2.89-5.57,7.2-5.57,12.02,0,8.69,7.05,15.74,15.74,15.74Zm251.09-178.37c9.4,0,17.05,7.65,17.05,17.05v112.79c0,9.4-7.65,17.05-17.05,17.05h-245.88c2.99-2.87,4.85-6.9,4.85-11.37v-95.01c0-22.34,18.17-40.51,40.51-40.51h200.52Z"/>
  <rect class="cls-16" x="954.24" y="2006.8" width="118.04" height="55.08" rx="17.71" ry="17.71" transform="translate(2026.52 4068.69) rotate(180)"/>
  <rect class="cls-16" x="1429.75" y="2006.8" width="118.04" height="55.08" rx="17.71" ry="17.71"/>
  <path class="cls-13" d="m971.95,2075h82.62c16.99,0,30.82-13.83,30.82-30.82v-19.67c0-16.99-13.83-30.82-30.82-30.82h-82.62c-16.99,0-30.82,13.83-30.82,30.82v19.67c0,16.99,13.83,30.82,30.82,30.82Zm82.62-55.08c2.53,0,4.59,2.06,4.59,4.59v19.67c0,2.53-2.06,4.59-4.59,4.59h-82.62c-2.53,0-4.59-2.06-4.59-4.59v-19.67c0-2.53,2.06-4.59,4.59-4.59h82.62Z"/>
  <path class="cls-13" d="m1378.6,2148.44h251.09c8.69,0,15.74-7.05,15.74-15.74,0-4.82-2.16-9.13-5.57-12.02,6.51-1.93,11.25-7.95,11.25-15.09v-95.01c0-39.69-32.29-71.99-71.98-71.99h-200.52c-26.76,0-48.53,21.77-48.53,48.53v112.79c0,26.76,21.77,48.53,48.53,48.53Zm245.88-31.47h-245.88c-9.4,0-17.05-7.65-17.05-17.05v-112.79c0-9.4,7.65-17.05,17.05-17.05h200.52c22.34,0,40.51,18.17,40.51,40.51v95.01c0,4.47,1.86,8.5,4.85,11.37Z"/>
  <path class="cls-13" d="m1447.45,2075h82.63c16.99,0,30.82-13.83,30.82-30.82v-19.67c0-16.99-13.83-30.82-30.82-30.82h-82.63c-16.99,0-30.82,13.83-30.82,30.82v19.67c0,16.99,13.83,30.82,30.82,30.82Zm82.63-55.08c2.53,0,4.59,2.06,4.59,4.59v19.67c0,2.53-2.06,4.59-4.59,4.59h-82.63c-2.53,0-4.59-2.06-4.59-4.59v-19.67c0-2.53,2.06-4.59,4.59-4.59h82.63Z"/>
  <path class="cls-1" d="m975.55,1840.61h102.96c8.51,0,15.41,6.91,15.41,15.41v29.51c0,8.51-6.91,15.41-15.41,15.41h-102.96c-8.51,0-15.41-6.91-15.41-15.41v-29.51c0-8.51,6.91-15.41,15.41-15.41Z" transform="translate(2054.06 3741.54) rotate(180)"/>
  <path class="cls-1" d="m1489.9,1859.91h102.96c8.51,0,15.41,6.91,15.41,15.41v29.51c0,8.51-6.91,15.41-15.41,15.41h-102.96c-8.51,0-15.41-6.91-15.41-15.41v-29.51c0-8.51,6.91-15.41,15.41-15.41Z" transform="translate(2128.14 4257.34) rotate(-154.72)"/>
  <path class="cls-13" d="m975.55,1916.67h102.95c17.18,0,31.15-13.97,31.15-31.15v-29.51c0-17.18-13.97-31.15-31.15-31.15h-102.95c-17.18,0-31.15,13.97-31.15,31.15v29.51c0,17.18,13.97,31.15,31.15,31.15Zm.33-60.65l102.63.32-.32,29.18-102.3-.33v-29.18Zm-.33,29.18h-.05.05Z"/>
  <path class="cls-13" d="m1581.58,1956.55c11.68,0,22.9-6.6,28.22-17.84l12.6-26.69c3.55-7.52,3.96-15.98,1.15-23.81-2.81-7.84-8.5-14.11-16.03-17.66l-93.09-43.96c-15.53-7.32-34.13-.66-41.47,14.86l-12.6,26.69c-7.33,15.53-.66,34.13,14.86,41.46,0,0,0,0,0,0l93.1,43.96c4.28,2.02,8.8,2.98,13.25,2.98Zm-80.15-101.66l92.66,44.12-12.75,26.25-92.37-43.98,12.46-26.39Zm-19.48,40.48h-.05.05Zm6.72-14.23h0,0Z"/>
  <rect class="cls-13" x="994.02" y="1900.94" width="55.08" height="47.5" transform="translate(2043.13 3849.37) rotate(180)"/>
  <polygon class="cls-13" points="1497.5 1948.44 1552.58 1948.44 1552.58 1922.86 1497.5 1900.94 1497.5 1948.44"/>
  <path class="cls-13" d="m1155.93,2119.75h189.88c8.69,0,15.74-7.05,15.74-15.74v-111.2c0-8.69-7.05-15.74-15.74-15.74h-189.88c-8.69,0-15.74,7.05-15.74,15.74v111.2c0,8.69,7.05,15.74,15.74,15.74Zm174.14-31.47h-158.4v-79.73h158.4v79.73Z"/>
  <path class="cls-2" d="m1497.63,2199.18c38.51,43.7,148.68-28.01,148.68-28.01,0,0-37.61,61.22,40.19,56.87,77.85-4.41,95.27-48.05,95.27-48.05,0,0,6.92,7.19,19.2,15.11,11.54,7.5,27.86,15.69,47.53,19.36,3.04.52,6.19,1,9.39,1.31l45.06,4.56.84.1.05-.05c2.2-1.31,60.54-37.61,80.42-112.53,12.96-48.58,9.71-113.37-35.36-195.47l-176.69-14.27c-97.95-75.81-179.84-97.74-186.24-32.05,0,0,93.54,68.88,50.68,157.7-21.72,45.01-47.27,68.15-67.15,79.95-10.75,6.4-19.88,9.5-25.86,11.02-10.65,2.68-21.09,6.4-30.53,11.96-21.77,12.75-46.74,36.99-15.48,72.5Z"/>
  <path class="cls-13" d="m1679.09,2246.59c2.73,0,5.54-.08,8.45-.24,53.8-3.03,82.99-23.57,97.81-39.71,15.02,10.67,39.39,24.09,70.07,27.33,16.79,2.79,34.09,4.02,47.33,4.77,3.68.21,7.35-.69,10.51-2.6,1.76-1.06,174.8-108.58,51.76-332.62-2.97-5.41-8.46-8.97-14.62-9.46l-171.33-13.83c-46.88-35.69-128.25-88.04-178.4-66.43-13.37,5.77-29.95,19.2-32.99,50.43-.63,6.44,2.18,12.73,7.39,16.57,3.28,2.44,80.66,61.16,45.06,134.98-30.14,62.49-66.65,77.55-80.94,81.13-13.68,3.42-25.25,7.97-35.38,13.91-22.29,13.06-35.64,29.72-38.61,48.16-2.81,17.44,3.47,35.03,18.66,52.29,32.46,36.88,94.96,15.79,135.45-3.97.73,5.38,2.43,10.77,5.49,15.9,9.27,15.53,27.51,23.37,54.28,23.38Zm102.7-84.95c-1.2,0-2.41.12-3.61.36-6.07,1.23-11.15,5.4-13.45,11.15-.47,1.02-15.54,32.94-79.26,36.52-19.81,1.13-27.63-2.79-29.13-5.27-2.43-4.03,1.03-16.04,5.63-23.69,4.41-7.33,3.19-16.77-2.96-22.71-6.16-5.93-15.58-6.88-22.74-2.22-39.09,25.38-105.82,52.87-124.84,31.24-5.22-5.94-11.2-14.61-9.98-22.2,1.15-7.16,8.58-15.08,20.92-22.31,7.07-4.14,15.48-7.4,25.72-9.96,19.32-4.83,68.23-24.34,105.11-100.8,35.98-74.61-10.93-141.85-47.17-173.14,2.69-8.27,7.2-10.21,9.19-11.07,19.69-8.53,72.39,8.33,145.73,65.09,2.82,2.18,6.21,3.5,9.76,3.78l166.74,13.46c88.1,169.48-14.88,255.04-38.69,271.86-11.42-.74-25-1.89-37.83-4.05-.4-.07-.8-.12-1.21-.16-38.29-3.88-64.56-30.1-64.82-30.37-3.49-3.54-8.24-5.49-13.12-5.49Z"/>
  <path class="cls-13" d="m1799.12,2186.04l4.18-59.58c.28-2.69-3.52-3.98-4.95-1.73,0,0-33.89,49.18-33.89,49.18-5.96,8.66-3.78,20.51,4.87,26.47,11.65,8.51,29.15-.09,29.79-14.34h0Z"/>
  <path class="cls-13" d="m1660.26,2183.1l26.94-55.8c1.26-2.41-1.84-5.02-3.99-3.41,0,0-50.88,35.36-50.88,35.36-8.61,5.98-10.74,17.81-4.75,26.42,7.8,11.9,26.88,10.24,32.68-2.58h0Z"/>
  <path class="cls-16" d="m529.25,2087.17c.05,41.97,9.55,88.45,36.04,136.14l92.96-.37c.26,0,.52-.05.84-.05.31-.05.63-.05.94-.11,24.87-2.26,71.35-21.56,75.18-21.98,137.71,64.27,179.52,29.85,167.88-6.45,66.05,30.17,152.14-17.05,91.81-60.33,0,0-91.86-40.19-114.42-85.09-1.57-3.1-2.78-6.19-3.62-9.34-13.12-48.53,31.48-95.74,62.95-137.71,31.48-41.97,22.3-90.5-60.33-69.51-82.63,20.98-139.23,93.12-139.23,93.12-26.76-6.24-54.14-10.81-80.11-14.06-25.97-3.31-50.52-5.35-71.61-6.61,0,0-59.39,77.22-59.28,182.36Z"/>
  <path class="cls-13" d="m723.53,1917.93l-11.69,64.18c-.58,2.68,3.18,4.36,4.78,2.16,0,0,40.38-51.24,40.38-51.24,6.47-8.21,5.06-20.1-3.15-26.57-10.74-8.93-28.16-2.2-30.33,11.47h0Z"/>
  <path class="cls-13" d="m915,2180.38c-22.59-12.37-44.68-26.08-65.93-41.57-2.24-1.75-5.41,1.17-3.87,3.54,13.7,22.8,29.25,44.87,46.1,66.13,20.17,22.17,48.97-11.93,23.7-28.1h0Z"/>
  <path class="cls-13" d="m858.45,2255.19c24.54,0,39.9-6.91,49.49-15.37,6.42-5.65,10.89-12.67,13.29-20.45,42.86,8.74,89.84-4.48,106.49-33.19,4.92-8.49,17.86-38.39-22.13-67.08-1.04-.75-2.16-1.39-3.34-1.9-37.46-16.42-99.82-53.32-107.68-82.4-8.97-33.22,19.27-69.5,46.59-104.58,4.57-5.86,9.06-11.64,13.33-17.32,21.65-28.87,26.41-59.84,12.41-80.83-10.62-15.93-35.2-31.9-91.95-17.49-70.62,17.93-122.63,69.53-141.49,90.58-52.84-11.39-106.58-16.42-143.49-18.63-6.05-.47-12.15,2.06-16.03,7.1-1.24,1.61-122.41,162.76-24.71,338.6,3.03,5.45,8.62,9,14.85,9.4,33.18,2.18,65.35,2.05,95.63-.38,18.51-1.11,45.93-10.52,70.14-19.26,1.38-.5,2.83-1.03,4.18-1.5,56.71,25.77,96.49,34.71,124.4,34.71Zm-293.15-31.89h-.05.05Zm337.8-47.31c-4.41,0-8.77,1.59-12.2,4.63-5.43,4.83-7.51,12.41-5.29,19.34,2.65,8.26-.81,11.3-1.94,12.3-10.35,9.13-51.63,13.47-140.69-28.11-3.03-1.42-6.38-1.97-9.71-1.62-3.26.35-5.93,1.31-15.86,4.89-14.63,5.28-45.08,16.26-60.26,17.17-25.75,2.07-52.7,2.39-80.51.96-67.61-132.07.13-250.53,20.94-281.78,37.56,2.59,89.17,8.05,138.49,19.57,6.97,1.61,14.22-.93,18.62-6.54.52-.65,53.99-67.53,129.31-86.66,32.1-8.16,48.27-3.87,52.36,2.27,4.11,6.17,1.57,21.35-11.24,38.43-4.13,5.51-8.49,11.11-12.92,16.79-31.32,40.23-66.83,85.83-53.07,136.73,14.36,53.12,108.49,97.55,126.5,105.62,5.93,4.48,13.74,11.88,10.32,17.76-7.86,13.55-48.3,26.76-85.24,9.89-2.44-1.11-5.04-1.66-7.62-1.66Z"/>
  <path class="cls-13" d="m1170.64,2416.87c8.69,0,15.74-7.05,15.74-15.74v-178.81l162.81-35.78c7.22-1.59,12.36-7.98,12.36-15.37v-45.58c0-8.69-7.05-15.74-15.74-15.74s-15.74,7.05-15.74,15.74v32.92l-162.81,35.78c-7.22,1.59-12.36,7.98-12.36,15.37v191.46c0,8.69,7.05,15.74,15.74,15.74Z"/>
  <g class="cls-9">
    <path class="cls-13" d="m1497.63,2199.18c38.51,43.7,148.68-28.01,148.68-28.01,0,0-37.61,61.22,40.19,56.87,77.85-4.41,95.27-48.05,95.27-48.05,0,0,6.92,7.19,19.2,15.11l2.15-.73,45.38,20.09,9.18,4.04.21-2.73c15.74,2.41,30.74,3.93,45.06,4.56l.84.1.05-.05c159.64,7.29,229.15-88.71,235.6-147.99,6.98-64.68,3.46-141.65-76.96-227.31-80.42-85.72-196.15-173.12-196.15-173.12l-51.78-8.66-42.34,137.82s77.12-24.39,176.69,99.83l54.98-3.52s135.77,126.33-12.96,206.59c0,0-2.26,1.57-6.66,3.83-21.4,10.96-93.33,38.4-200.51-17.1,0,0-39.77,73.45-111.32,49.84l36.99-78.17c-3.36,5.93-37.04,60.38-138.13,41.6-.63-.1-1.21-.21-1.78-.31-10.75,6.4-19.88,9.5-25.86,11.02-10.65,2.68-21.09,6.4-30.53,11.96-21.77,12.75-46.74,36.99-15.48,72.5Z"/>
  </g>
  <g class="cls-9">
    <polyline class="cls-13" points="1791.3 2253.23 1852.84 2282.39 1857.89 2215.76 1781.79 2194.35"/>
  </g>
  <g class="cls-9">
    <path class="cls-13" d="m760.3,2267.8s50.17,45.1,122.06,5.5c0,0,54.84,4.99,71.89-29.11,0,0,136.84,40.66,122.85-57.27l-4.81-19.45h111.48l15.74-19.07h132.03l29.73,45.96h116.29s10.49,86.01,90.93,69.02v-56.43s-81.46,10.58-77.89-74.23h-123.21l-30.6-28.7-180.55,4.21-16.18,20.11s-130.28,13.99-126.78,12.24c3.5-1.75,51.59,73.48-62.08,69.09h-34.97l-33,26.21s-128.34-30.64-128.05-26.17"/>
  </g>
  <g class="cls-9">
    <path class="cls-13" d="m565.29,2223.31c48.42,3.41,87.4.16,93.8-.42.31-.05.63-.05.94-.11,24.87-2.26,71.35-21.56,75.18-21.98,137.71,64.27,179.52,29.85,167.88-6.45,66.05,30.17,152.14-17.05,91.81-60.33,0,0-91.86-40.19-114.42-85.09l-12.38-2.78c46.32,64.84,74.44,118.82-11.65,104.35l-32.05-31.79s9.29,74.34-69.25,37.61c0,0-26.07-18.68-52.3-50,0,0-132.99,14.95-173.59-19.15-40.6-34.05-133.3-88.24-91.34-226.37,2.57-8.55,4.25-16,5.04-22.51-46.59,54.19-81.89,119.87-94.22,200.87-21.67,142.48,117.25,177.21,216.56,184.14Z"/>
  </g>
  <g class="cls-9">
    <path class="cls-13" d="m667.89,2249s67.33,4.37,83.06,18.8c15.74,14.43,0-66.01,0-66.01l-58.58,19.24"/>
  </g>
  <g class="cls-9">
    <path class="cls-13" d="m669.82,1912.68l72.76,6.19,75.18-65.58s-9.97-120.66,117.51-150.83l-66.26-54.14-153.76,33.16s78.06,102.4-45.12,230.88c-.11.1-.21.21-.31.31Z"/>
  </g>
  <g>
    <path class="cls-12" d="m585.5,587.16s-408.73,273.37-172.79,476.65c235.94,203.29,290.55-274.32,290.55-274.32"/>
    <g class="cls-7">
      <path class="cls-5" d="m355.97,992.78c-39.56-180.36,242.32-368.91,242.32-368.91l103.4,177.63c1.1-7.66,1.57-12.01,1.57-12.01l-117.78-202.34s-321.64,215.14-229.52,405.63Z"/>
    </g>
    <path class="cls-13" d="m432.7,1052.87c3.36,0,6.75-1.07,9.61-3.28,6.88-5.32,8.14-15.2,2.83-22.08-107.98-139.74,152.86-346.63,155.51-348.71,6.84-5.36,8.05-15.25,2.69-22.09-5.36-6.85-15.24-8.05-22.09-2.7-11.82,9.25-288.03,228.36-161.02,392.74,3.1,4.01,7.76,6.11,12.47,6.11Z"/>
    <path class="cls-13" d="m520.82,1132.6c14.09,0,27.78-2.59,41.06-7.78,125.77-49.2,158.31-321.66,159.63-333.24,1.15-10.07-6.08-19.17-16.15-20.33-10.09-1.11-19.18,6.08-20.33,16.15-8.35,72.76-49.17,269.06-136.54,303.22-34.93,13.65-76.57-.04-123.78-40.72-48.03-41.38-69.84-86.85-66.68-138.99,9.33-153.86,235.41-306.97,237.7-308.5,8.43-5.64,10.68-17.05,5.04-25.47-5.64-8.43-17.04-10.69-25.46-5.05-9.94,6.65-243.45,164.72-253.93,336.73-3.87,63.5,22.83,120.39,79.36,169.1,42.39,36.52,82.62,54.87,120.09,54.87Z"/>
    <g>
      <g>
        <path class="cls-3" d="m415.94,775.44h14c81.46,0,147.59,66.13,147.59,147.59v175.72c0,81.46-66.13,147.59-147.59,147.59h-14c-7.76,0-14.07-6.3-14.07-14.07v-442.77c0-7.76,6.3-14.07,14.07-14.07Z" transform="translate(967.09 2027.65) rotate(-179.3)"/>
        <path class="cls-13" d="m560.77,1251.6c10.07,0,18.32-8.13,18.44-18.22l5.38-442.73c.06-4.93-1.8-9.59-5.24-13.11s-8.05-5.5-12.98-5.56l-14-.17c-40.43-.41-78.94,14.85-107.99,43.2-29.05,28.35-45.32,66.32-45.81,106.91l-2.14,175.71c-1.02,83.78,66.33,152.78,150.11,153.81l14,.17h.22Zm-10.3-471.05c.6,0,1.19,0,1.79.01l14,.17c2.59.03,5.01,1.06,6.82,2.92,1.81,1.85,2.79,4.3,2.76,6.88l-5.38,442.73c-.07,5.34-4.46,9.52-9.81,9.57l-14-.17c-78.96-.96-142.42-65.98-141.46-144.94l2.14-175.71c.46-38.25,15.8-74.03,43.17-100.75,26.95-26.3,62.39-40.73,99.98-40.73Z"/>
      </g>
      <g class="cls-9">
        <path class="cls-13" d="m401.82,1014.49l-.87,70.42c-1.06,88.54,69.85,161.22,158.44,162.33,8.44.11,15.36-6.69,15.47-15.13l1.46-117.05c-2.43,5.31-7.82,8.93-14.02,8.9l-10.44-.16c-69.99-.83-129-46.42-150.04-109.31Z"/>
      </g>
      <path class="cls-13" d="m560.77,1271.59c20.99,0,38.18-16.94,38.44-37.97l5.38-442.73c.13-10.27-3.75-19.97-10.93-27.32-7.17-7.35-16.78-11.46-27.05-11.59l-13.99-.17c-46.01-.57-89.33,16.8-122.2,48.89-32.87,32.08-51.28,75.04-51.84,120.97l-2.14,175.71c-1.15,94.81,75.06,172.88,169.86,174.04l14,.17c.16,0,.31,0,.47,0Zm-5.05-471l-5.13,422.13-3.7-.04c-67.94-.83-122.54-56.77-121.71-124.71l2.14-175.71c.4-32.91,13.59-63.7,37.15-86.68,23.19-22.63,53.68-35.04,86.02-35.04.51,0,1.03,0,1.54,0l3.7.04Z"/>
      <g>
        <path class="cls-3" d="m2014.34,794.86h14c81.46,0,147.59,66.13,147.59,147.59v175.72c0,81.46-66.13,147.59-147.59,147.59h-14c-7.76,0-14.07-6.3-14.07-14.07v-442.77c0-7.76,6.3-14.07,14.07-14.07Z" transform="translate(12.67 -25.29) rotate(.7)"/>
        <path class="cls-13" d="m2027.33,1269.41c39.89,0,77.5-15.3,106.09-43.21,29.05-28.35,45.32-66.32,45.81-106.91l2.14-175.71c1.02-83.78-66.33-152.78-150.11-153.81l-14-.17c-10.16-.08-18.55,8.05-18.67,18.22l-5.38,442.73c-.06,4.93,1.8,9.58,5.24,13.11,3.44,3.53,8.05,5.5,12.98,5.56l14,.17c.63,0,1.27,0,1.9,0Zm3.82-470.88c78.96.96,142.42,65.98,141.46,144.94l-2.14,175.71c-.46,38.25-15.8,74.03-43.17,100.75-26.95,26.3-62.39,40.73-99.98,40.73-.6,0-1.19,0-1.79-.01l-14-.17c-2.59-.03-5.01-1.06-6.82-2.92-1.81-1.85-2.79-4.3-2.76-6.88l5.38-442.73c.06-5.34,4.55-9.69,9.81-9.57l14,.17Z"/>
      </g>
      <g class="cls-9">
        <path class="cls-13" d="m1999.05,1127.24l-1.47,122.15c-.11,8.44,6.69,15.36,15.13,15.48,46.49.54,88.64-18.72,118.32-50,26.81-28.25,43.44-66.34,43.96-108.39l.77-63.27c-25.81,55.2-82.3,93.19-147.23,92.41l-16.07-.2c-5.86-.08-10.81-3.39-13.42-8.18Z"/>
      </g>
      <path class="cls-13" d="m2027.33,1289.4c45.14,0,87.69-17.31,120.05-48.9,32.87-32.08,51.28-75.04,51.84-120.97l2.14-175.71c1.15-94.81-75.06-172.88-169.86-174.04l-14-.17c-.16,0-.31,0-.47,0-20.99,0-38.18,16.94-38.44,37.97l-5.38,442.73c-.13,10.27,3.75,19.97,10.93,27.32,7.17,7.35,16.78,11.46,27.05,11.59l13.99.17c.72,0,1.44.01,2.15.01Zm3.57-470.88c67.94.83,122.54,56.77,121.71,124.71l-2.14,175.71c-.4,32.91-13.59,63.7-37.15,86.68-23.55,22.99-54.65,35.27-87.56,35.03l-3.7-.04,5.13-422.13,3.7.04Z"/>
      <g>
        <circle class="cls-3" cx="1288.81" cy="1020.6" r="750.36"/>
        <path class="cls-13" d="m1288.33,1775.35c14.87,0,29.83-.43,44.87-1.32,201.25-11.86,385.84-101.37,519.76-252.06,133.92-150.69,201.14-344.51,189.29-545.76-11.85-201.25-101.37-385.84-252.06-519.76-150.69-133.92-344.54-201.13-545.75-189.29-415.44,24.47-733.52,382.37-709.05,797.82,23.59,400.41,356.9,710.37,752.94,710.37Zm1.47-1500.77c182.71,0,356.86,66.03,494.57,188.42,148.94,132.37,237.42,314.81,249.13,513.73,11.72,198.91-54.73,390.48-187.09,539.42-132.37,148.94-314.81,237.42-513.73,249.14-410.68,24.13-764.37-290.2-788.56-700.82l-4.37.26,4.37-.26c-24.19-410.62,290.2-764.37,700.82-788.56,15-.88,29.96-1.32,44.86-1.32Z"/>
      </g>
      <g class="cls-9">
        <path class="cls-13" d="m540.82,960.61c-2.77,34.15-3.15,68.91-1.08,104.12,24.43,413.68,379.53,729.28,793.21,704.95,413.68-24.42,729.28-379.53,704.95-793.21-.69-11.9-1.67-23.79-2.93-35.48-29.02,367.61-325.35,666.78-703.87,689.09-401.79,23.64-748.25-273.36-790.28-669.47Z"/>
      </g>
      <path class="cls-13" d="m1288.31,1795.34c15.27,0,30.62-.45,46.05-1.36,206.58-12.17,396.06-104.06,533.53-258.74,137.47-154.68,206.47-353.63,194.31-560.21-12.17-206.58-104.06-396.05-258.74-533.53-154.68-137.47-353.66-206.46-560.21-194.31-426.45,25.12-752.95,392.5-727.83,818.95h0c24.21,411.01,366.36,729.18,772.89,729.18Zm1.46-1500.77c177.81,0,347.29,64.26,481.31,183.37,144.95,128.82,231.05,306.38,242.45,499.96,11.4,193.58-53.26,380.02-182.08,524.97-128.82,144.95-306.38,231.05-499.96,242.46-399.61,23.53-743.88-282.42-767.42-682.04l-24.33,1.44,24.33-1.44c-23.54-399.61,282.42-743.88,682.04-767.42,14.59-.86,29.16-1.29,43.65-1.29Z"/>
      <path class="cls-13" d="m543.28,1083.82c6.42,146.69,60,280.8,146.37,389.92,64.75,81.81,322.21,218.67,632.25,207.89,287.48-9.99,542.23-174.65,599.59-261.8,76.51-116.25,118.17-254.52,111.75-401.21-16.99-388.19-357.55-534.53-769.01-516.52-411.46,18.01-737.94,193.53-720.95,581.72Z"/>
      <g class="cls-6">
        <path class="cls-4" d="m672.33,715.33c-87.27,90.89-135.84,212.56-129.04,368.47,6.42,146.72,60.03,280.82,146.34,389.94,64.77,81.8,322.25,218.66,632.29,207.91,109.47-3.78,214.17-30.02,305.07-65.9-381.4,5.09-695.07-162.99-775.37-264.46-109.63-138.49-177.62-308.72-185.74-494.86-2.21-49.75.13-96.76,6.45-141.1Z"/>
      </g>
      <g class="cls-8">
        <path class="cls-3" d="m1876.04,1256.87s103.47-388.22-109.59-531.79c-213.07-143.58-509.97-129.97-502.19-111.23,0,0,332.21,65.2,472.2,319.44,107.95,196.06,139.59,323.57,139.59,323.57Z"/>
      </g>
      <g class="cls-8">
        <ellipse class="cls-3" cx="772.91" cy="1035.76" rx="96.22" ry="132.79" transform="translate(-209.92 196.57) rotate(-12.78)"/>
      </g>
      <g class="cls-8">
        <ellipse class="cls-3" cx="902.17" cy="1293.4" rx="52.3" ry="60.95" transform="translate(-399.23 402.8) rotate(-20.72)"/>
      </g>
    </g>
    <path class="cls-3" d="m1690.59,1735.16c13.8,27.49,34.52,45.9,62.48,50.78,50.62,8.81,102.51-29.38,136.35-92.86-10.02,5.82-20.51,8.29-31.06,6.82-39.03-5.61-62.8-64.84-53.09-132.25,9.71-67.36,49.31-117.46,88.4-111.8,9.29,1.36,17.68,5.72,25.02,12.49-7.97-31.11-21.25-57.5-38.77-76.44-14.79-16.05-32.68-26.7-52.88-30.22-72.76-12.64-129.95,72.66-150.35,189.81-12.59,72.19-8.29,139.6,13.9,183.67Z"/>
    <g class="cls-7">
      <path class="cls-5" d="m1715.77,1768.37c-23.56-43.96-28.38-112.84-15.48-186.71,20.41-117.15,77.59-202.45,150.35-189.8,17.68,3.1,33.58,11.65,47.22,24.45-17.36-29.59-41.65-49.52-70.82-54.61-72.76-12.64-129.95,72.66-150.35,189.81-16.42,94.12-4.14,180.15,39.08,216.88Z"/>
    </g>
    <path class="cls-13" d="m1767.62,1802.93c50.51,0,101.24-37.79,135.68-102.46l26.02-48.86-47.83,27.87c-7.15,4.17-14.16,5.81-20.89,4.83-12.88-1.86-24.72-13.97-32.45-33.24-9.02-22.46-11.6-51.28-7.28-81.17,5.67-39.38,22.67-73.93,44.38-90.16,8.98-6.71,17.78-9.52,26.15-8.3,5.87.86,11.45,3.7,16.56,8.45l39.21,36.44-13.24-51.86c-16.75-65.59-55.69-109.8-104.15-118.27-77.35-13.47-145.12,67.93-168.61,202.58-24,137.6,11.85,239.14,89.22,252.66h0c5.72,1,11.48,1.49,17.23,1.49Zm89.19-87.37c-29.68,40.28-66.63,60.84-101.01,54.88-57.9-10.14-84.06-99.06-63.62-216.25,16.85-96.62,64.26-188.77,132.19-176.99,28.02,4.89,52.18,27.62,67.9,62.68-15.55-1.27-31.32,3.77-45.87,14.65-28.58,21.37-49.77,62.82-56.69,110.88-5.1,35.28-1.83,69.87,9.22,97.39,12.21,30.41,32.52,49.12,57.19,52.67.23.03.45.06.68.09Z"/>
    <path class="cls-3" d="m802.25,1716.99c-49.58,13.43-104.77-19.83-144.27-79.95,10.49,4.88,21.19,6.4,31.53,3.93,38.35-9.18,56.61-70.35,40.71-136.56-15.84-66.21-59.86-112.42-98.26-103.19-9.13,2.2-17.1,7.29-23.77,14.74,9.34-58.6,38.3-102.93,81.42-114.63,71.29-19.31,136.08,60.38,167.19,175.17,31.11,114.79,16.74,221.12-54.56,240.48Z"/>
    <g class="cls-9">
      <path class="cls-13" d="m657.99,1637.05c39.5,60.12,94.69,93.38,144.27,79.95,71.29-19.36,85.67-125.7,54.56-240.48-14.79-54.51-37.14-101.15-64.27-132.99,3.83,10.86,7.34,22.14,10.49,33.79,31.11,114.79,16.74,221.12-54.56,240.48-10.02,2.73-20.25,3.51-30.53,2.57h-.05c-7.45,10.6-17,17.89-28.38,20.62-10.33,2.47-21.04.94-31.53-3.93Z"/>
    </g>
    <g class="cls-7">
      <path class="cls-5" d="m608.2,1415.98c6.66-7.45,14.64-12.54,23.77-14.74,2.15-.52,4.25-.84,6.4-1,14.32-34.47,37.77-59.12,68.3-67.41,46.53-12.59,90.29,16.95,123.7,70.93-34.78-73.39-85.83-117.25-140.75-102.4-43.12,11.7-72.08,56.03-81.42,114.63Z"/>
    </g>
    <path class="cls-13" d="m779.93,1735.68c8.93,0,17.77-1.15,26.43-3.5h0c75.79-20.58,102.16-124.99,65.63-259.79-35.76-131.92-110.73-206.77-186.5-186.25-47.49,12.88-82.19,60.49-92.85,127.34l-8.43,52.87,35.7-39.9c4.65-5.2,9.94-8.54,15.73-9.94,8.21-1.98,17.23,0,26.79,5.86,23.11,14.17,43.22,47,52.48,85.69,7.05,29.38,7.13,58.32.21,81.5-5.94,19.9-16.61,33.05-29.28,36.08-6.56,1.56-13.72.6-21.23-2.9l-50.17-23.32,30.38,46.24c37.73,57.42,87.57,90,135.1,90Zm18.2-33.88c-33.72,9.14-72.37-7.99-105.62-45.37.22-.05.44-.1.65-.15,24.25-5.81,42.76-26.3,52.13-57.71,8.48-28.42,8.56-63.16.23-97.84-11.3-47.21-36.21-86.54-66.63-105.19-15.49-9.5-31.66-13.06-47.02-10.37,12.43-36.36,34.4-61.21,61.86-68.65,66.55-18.05,122.23,69.44,147.88,164.1,31.12,114.82,13.23,205.78-43.49,221.18h0Z"/>
    <path class="cls-12" d="m689.51,1640.98c-10.33,2.47-21.04.94-31.53-3.93-28.49-13.12-55.14-50.84-66.73-99.26-12.12-50.47-4.41-98,16.94-121.82,6.66-7.45,14.64-12.54,23.77-14.74,38.4-9.23,82.42,36.99,98.26,103.19,15.9,66.21-2.36,127.38-40.71,136.56Z"/>
    <g class="cls-9">
      <path class="cls-13" d="m599.6,1564.55c13.64,35.31,35.41,61.9,58.39,72.5,10.49,4.88,21.19,6.4,31.53,3.93,38.35-9.18,56.61-70.35,40.71-136.56-8.39-35.15-24.76-64.68-44.02-83.26,3.2,8.45,5.98,17.36,8.24,26.7,15.9,66.21-2.36,127.38-40.71,136.56-10.33,2.47-21.04.94-31.53-3.93-7.76-3.57-15.42-8.97-22.61-15.95Z"/>
    </g>
    <g class="cls-7">
      <path class="cls-5" d="m591.26,1537.8c9.65,40.34,29.75,73.24,52.67,90.71-13.01-17.73-23.71-40.82-30.01-67.1-12.12-50.47-4.41-98,16.94-121.82,6.66-7.45,14.64-12.54,23.77-14.74,15-3.62,30.85,1.26,45.54,12.43-19.83-27.02-45.06-41.6-68.2-36.04-9.13,2.2-17.1,7.29-23.77,14.74-21.35,23.82-29.06,71.35-16.94,121.82Z"/>
    </g>
    <path class="cls-13" d="m679.66,1657.86c4.57,0,9.09-.52,13.5-1.58h.01c24.24-5.81,42.75-26.3,52.11-57.71,8.48-28.42,8.56-63.16.23-97.84-11.3-47.21-36.21-86.54-66.63-105.19-16.71-10.24-34.21-13.56-50.61-9.63-12.12,2.92-22.82,9.5-31.81,19.55-25.47,28.41-33.53,81.8-20.52,135.99,12.47,52.08,41.38,94.19,75.45,109.88,9.31,4.33,18.89,6.52,28.26,6.52Zm6.2-32.19c-6.57,1.56-13.73.6-21.25-2.9-24.78-11.41-48.09-47.03-58.06-88.65-10.51-43.76-5.14-87.02,13.36-107.65,4.66-5.21,9.95-8.55,15.74-9.95,8.21-1.98,17.23,0,26.79,5.86,23.11,14.17,43.22,47,52.48,85.69,7.05,29.38,7.13,58.32.21,81.5-5.93,19.89-16.6,33.04-29.27,36.08h0Z"/>
    <path class="cls-12" d="m1858.37,1699.89c10.52,1.51,21.03-.99,31.03-6.81,27.16-15.68,50.23-55.69,57.33-104.97,7.43-51.37-4.61-97.99-28.06-119.74-7.32-6.81-15.73-11.14-25.02-12.5-39.09-5.67-78.67,44.4-88.36,111.78-9.75,67.39,14.05,126.62,53.08,132.24Z"/>
    <g class="cls-9">
      <path class="cls-13" d="m1813.45,1656.73c9.6,24.08,25.34,40.34,44.91,43.18,10.54,1.47,21.04-1,31.06-6.82,27.17-15.69,50.21-55.71,57.34-104.98,7.4-51.36-4.62-98-28.07-119.77-5.88-5.4-12.38-9.23-19.46-11.28,9.55,23.87,13.01,55.45,8.18,89.08-7.13,49.26-30.17,89.29-57.34,104.98-10.02,5.82-20.51,8.29-31.06,6.82-1.89-.26-3.72-.68-5.56-1.21Z"/>
    </g>
    <g class="cls-7">
      <path class="cls-5" d="m1844.25,1695.23c-16-24.6-23.29-63.95-17.1-106.6,9.71-67.36,49.26-117.46,88.34-111.8,4.93.73,9.65,2.31,14.06,4.62-3.25-5.04-6.87-9.44-10.86-13.12-7.34-6.77-15.74-11.12-25.02-12.49-39.08-5.67-78.69,44.43-88.4,111.8-8.45,58.86,8.55,111.43,38.98,127.59Z"/>
    </g>
    <path class="cls-13" d="m1864.29,1716.05c11.12,0,22.4-3.18,33.03-9.38,32.43-18.72,57.35-63.3,64.99-116.32,7.98-55.14-4.95-107.56-32.94-133.53-9.86-9.17-21.12-14.73-33.45-16.53-16.73-2.44-33.84,2.5-49.53,14.23-28.58,21.37-49.77,62.82-56.69,110.88-5.1,35.28-1.83,69.87,9.22,97.39,12.21,30.41,32.52,49.12,57.19,52.67h.02c2.7.39,5.42.58,8.15.58Zm23.26-244.88c1.29,0,2.57.09,3.84.28,5.87.86,11.45,3.7,16.56,8.45,20.32,18.86,29.64,61.44,23.2,105.96-6.1,42.38-26.04,79.99-49.62,93.59-7.21,4.2-14.24,5.84-20.94,4.87-12.89-1.87-24.72-13.98-32.46-33.24-9.02-22.46-11.6-51.28-7.28-81.17,5.67-39.38,22.67-73.93,44.38-90.16,7.62-5.7,15.11-8.57,22.32-8.57Z"/>
    <path class="cls-12" d="m1986.8,1327.51s-7.97,47.58-33.48,96.16c-24.58,46.83-66.73,93.78-66.78,142.26-.11,98.79,66.5,22.94,88.69-9.51,54.16-79.19,53.65-169.11,11.57-228.92Z"/>
    <g class="cls-7">
      <path class="cls-5" d="m1886.53,1565.92c-.05,33.47,7.61,46.9,18.57,48.74-.73-5.67-1.1-12.22-1.1-19.88.05-48.47,42.23-95.43,66.78-142.22,22.14-42.18,31.11-83.57,33.1-93.8-4.56-11.12-10.28-21.56-17.1-31.27,0,0-7.97,47.58-33.47,96.21-24.55,46.8-66.73,93.75-66.78,142.22Z"/>
    </g>
    <path class="cls-13" d="m1907.72,1630.63c33.05,0,69.39-49.09,80.5-65.32,55.44-81.06,59.93-177.96,11.45-246.87-3.67-5.22-10.14-7.7-16.36-6.29-6.22,1.42-10.97,6.45-12.03,12.73h0c-.08.45-7.95,45.86-31.89,91.46-6.8,12.96-14.97,25.86-23.62,39.53-22.09,34.9-44.93,70.99-44.97,110.03-.01,13.54-.06,54.74,27.7,63.34,3.03.94,6.11,1.38,9.22,1.38Zm84.22-259.55c19.66,53.74,9.38,119.32-29.7,176.46-22.26,32.54-47.56,52.61-54.51,51.63.15-.07-5.48-5.66-5.45-33.22.03-29.93,20.4-62.11,40.09-93.23,8.6-13.59,17.5-27.65,24.89-41.73,11.25-21.43,19.22-42.56,24.69-59.9Z"/>
    <path class="cls-12" d="m551.12,1547.99c14.9,18.62,37.38,26.5,57.46,24.58,31.22-2.97,49.35-37.04,36.27-65.53-54.74-119.21-70.21-216.77-70.21-216.77,0,0-111.66,14.12-34.08,237.88,2.47,7.11,5.85,13.97,10.55,19.84Z"/>
    <g class="cls-9">
      <path class="cls-13" d="m535.18,1511.88c1.68,5.3,3.46,10.7,5.4,16.26,2.47,7.13,5.82,13.95,10.54,19.83,14.9,18.62,37.35,26.49,57.45,24.6,31.21-2.99,49.37-37.04,36.3-65.52-16-34.83-28.64-67.83-38.51-97.05-3.78,2.89-7.55,5.82-11.38,8.71,4.83,11.86,10.12,24.08,15.84,36.57,13.12,28.49-5.04,62.59-36.25,65.52-13.06,1.26-27.07-1.63-39.4-8.92Z"/>
    </g>
    <g class="cls-7">
      <path class="cls-5" d="m540.58,1528.14c2.47,7.13,5.82,13.95,10.54,19.83,7.82,9.76,17.68,16.53,28.17,20.51-.42-.42-.79-.84-1.1-1.26-4.72-5.88-8.13-12.75-10.6-19.83-54.66-157.7-15.37-211.31,12.64-229.15-3.99-17.78-5.61-27.96-5.61-27.96,0,0-111.64,14.11-34.05,237.86Z"/>
    </g>
    <path class="cls-13" d="m602.71,1588.59c2.46,0,4.91-.11,7.37-.35,19.53-1.86,36.43-12.82,46.36-30.07,10.18-17.66,11.19-39.23,2.71-57.7-53.09-115.62-68.81-211.72-68.96-212.68l-2.4-15.05-15.12,1.9c-1.39.18-34.21,4.7-56.12,40-28.38,45.71-25.31,119.28,9.15,218.66,3.29,9.49,7.71,17.74,13.13,24.52h0c15.51,19.38,39.46,30.77,63.87,30.77Zm-40.01-277c7.21,34.36,26.39,111.71,67.86,202.02,4.23,9.22,3.71,20-1.38,28.85-4.78,8.3-12.83,13.57-22.08,14.45-16.43,1.57-33.17-5.62-43.68-18.75h0c-3.18-3.97-5.86-9.07-7.97-15.16-38.53-111.13-28.15-165.15-12.67-190.89,6.22-10.34,13.61-16.67,19.92-20.51Z"/>
    <g>
      <path class="cls-12" d="m583.08,709.12c24.45-24.66,50.42-47.74,77.64-69.25,320.12-252.65,819.13-286.18,1219.88-126.64-19.52-124.18-77.7-227.16-159.32-306.37C1368-136.19,575.89-35.1,583.08,709.12Z"/>
      <g class="cls-7">
        <path class="cls-5" d="m583.08,709.12c10.44-10.54,21.14-20.77,32.11-30.69C651.33-5.3,1400.79-94.01,1746.51,232.98,1407.45-140.81,575.68-53.41,583.08,709.12Z"/>
      </g>
      <g class="cls-9">
        <path class="cls-13" d="m1721.28,315.29l-276,103.03c149.2,8.24,298.03,40.24,435.32,94.9-19.52-124.18-77.7-227.16-159.32-306.37,0,0-22.87,16.16-61.38,36.36,23.03,19.31,44.28,43.91,61.38,72.08Z"/>
      </g>
      <g class="cls-9">
        <path class="cls-13" d="m660.72,639.87c210.42-166.09,498.17-237.49,784.51-221.54-2.94-40.34-1.73-74.34,2.78-102.72-37.93,5.93-77.96,8.18-118.72,4.56-205.86-18.36-485.95,15.06-668.57,319.7Z"/>
      </g>
      <g class="cls-10">
        <path class="cls-14" d="m1721.28,315.28c-73.66-121.45-224.06-175.8-266.35-31.16-9.81,33.52-13.8,77.7-9.71,134.2"/>
      </g>
      <path class="cls-15" d="m1769.44,474.66c43.05-1.44,73.03-69.84,39.17-116.63-9.42-13.03-23.13-22.33-38.33-27.59-36.42-12.61-145.13-48.41-315.38-46.33,0,0-18.39,84.73-9.68,134.2"/>
      <g class="cls-7">
        <path class="cls-5" d="m1450.05,314.17c166.93-1.21,273.59,33.94,309.57,46.38,15.21,5.25,28.91,14.58,38.35,27.59,14.16,19.57,17.15,42.91,12.64,63.58,15.53-24.5,18.73-61.22-1.99-89.87-9.44-13.06-23.14-22.35-38.35-27.59-36.41-12.64-145.11-48.42-315.34-46.32,0,0-2.31,10.49-4.88,26.23Z"/>
      </g>
      <path class="cls-13" d="m583.07,727.47c4.81,0,9.53-1.89,13.04-5.43,288.56-290.99,825.91-371.61,1277.71-191.72,6.13,2.44,13.09,1.4,18.25-2.71,5.16-4.12,7.71-10.68,6.68-17.2-25.5-162.22-119.45-302.69-264.55-395.55C1501.46,29.89,1331.31-11.04,1167.43,2.57c-165.57,13.74-314.94,81.63-420.6,191.17-121.19,125.65-184.17,303.92-182.12,515.55.07,7.41,4.59,14.05,11.45,16.84,2.24.91,4.58,1.35,6.9,1.35Zm783.94-329.68c-61.71,0-123.19,4.04-183.65,12.22-232.08,31.41-432.07,119.49-581.44,255.6C615.95,238.42,901.39,61.5,1170.47,39.16c286.03-23.73,616.65,124.54,686.09,445.19-154.53-57.08-322.88-86.56-489.54-86.56Z"/>
      <path class="cls-13" d="m1769.43,493.02c.21,0,.42,0,.63,0,25.13-.84,47.99-17.38,61.15-44.25,16.36-33.41,13.41-72.3-7.71-101.49-11.26-15.57-27.59-27.39-47.2-34.18-94.91-32.86-203.09-48.88-321.61-47.33-10.14.12-18.26,8.44-18.13,18.58.12,10.14,8.43,18.26,18.58,18.13,114.24-1.4,218.24,13.85,309.15,45.32,12.45,4.31,22.63,11.57,29.46,21,15.73,21.75,12.25,47.97,4.49,63.82-6.98,14.25-18.24,23.33-29.4,23.71-10.14.34-18.08,8.83-17.74,18.96.33,9.93,8.49,17.74,18.34,17.74Z"/>
      <path class="cls-13" d="m1445.21,436.68c.45,0,.89-.02,1.35-.05,10.11-.73,17.72-9.53,16.99-19.64-3.73-51.55-.7-94.52,9.01-127.71,8.84-30.24,28.04-67.41,69.31-72.83,52.6-6.87,121.45,38.68,163.71,108.35,5.26,8.67,16.56,11.44,25.22,6.18,8.67-5.26,11.44-16.55,6.18-25.22-50.26-82.87-132.44-134.51-199.89-125.72-47.52,6.23-82.95,41.37-99.79,98.93-10.95,37.41-14.44,84.75-10.39,140.68.7,9.66,8.76,17.03,18.29,17.04Z"/>
      <ellipse class="cls-13" cx="1723.09" cy="387.71" rx="16.11" ry="17.92"/>
      <ellipse class="cls-13" cx="1628.66" cy="363.71" rx="17.92" ry="16.11" transform="translate(1095 1944.86) rotate(-83.94)"/>
      <ellipse class="cls-13" cx="1530.63" cy="353.3" rx="17.92" ry="16.11" transform="translate(1017.66 1838.06) rotate(-83.94)"/>
      <g class="cls-7">
        <path class="cls-5" d="m1714.19,402.64c2.2,6.87,8.13,11.8,15.11,11.8,8.87,0,16.11-8.03,16.11-17.89,0-6.19-2.83-11.65-7.13-14.9.63,1.89.94,3.93.94,6.03,0,9.92-7.24,17.94-16.11,17.94-3.31,0-6.35-1.1-8.92-2.99Z"/>
      </g>
      <g class="cls-7">
        <path class="cls-5" d="m1619.61,378.77c1.99,6.24,7.03,10.91,13.38,11.59,8.81.94,16.84-6.3,17.89-16.11.73-6.92-2.15-13.27-6.98-16.79.79,2.41,1.1,5.14.79,7.92-1.05,9.86-9.08,17.1-17.94,16.16-2.68-.31-5.09-1.26-7.13-2.78Z"/>
      </g>
      <g class="cls-7">
        <path class="cls-5" d="m1521.61,368.33c1.89,6.24,6.92,10.96,13.32,11.59,8.87.94,16.89-6.24,17.94-16.11.68-6.87-2.2-13.22-7.03-16.79.79,2.47,1.1,5.14.79,7.97-1.05,9.86-9.08,17.05-17.89,16.11-2.68-.26-5.09-1.26-7.13-2.78Z"/>
      </g>
      <path class="cls-13" d="m1335.11,432.25c7.61,0,14.3-5.53,15.52-13.28,39.3-248.45-101.4-399.87-107.41-406.2-5.99-6.3-15.95-6.55-22.25-.57-6.3,5.99-6.56,15.94-.58,22.24,1.77,1.88,135.88,147.41,99.15,379.6-1.36,8.59,4.5,16.65,13.09,18.01.83.13,1.66.2,2.48.2Z"/>
      <path class="cls-13" d="m856.36,537.09c.56,0,1.13-.03,1.7-.09,8.64-.93,14.9-8.69,13.96-17.33-34.65-321.78,49.44-413.82,50.29-414.72,5.96-6.23,5.85-16.17-.31-22.19-6.17-6.03-15.98-6.04-22.08.07-3.93,3.94-95.8,100.24-59.19,440.21.87,8.07,7.69,14.05,15.63,14.05Z"/>
    </g>
    <g class="cls-9">
      <path class="cls-13" d="m1690.59,1735.16c13.8,27.49,34.52,45.9,62.48,50.78,50.62,8.81,102.51-29.38,136.35-92.86-10.02,5.82-20.51,8.29-31.06,6.82-39.03-5.61-62.8-64.84-53.09-132.25,9.71-67.36,49.31-117.46,88.4-111.8,9.29,1.36,17.68,5.72,25.02,12.49-7.97-31.11-21.25-57.5-38.77-76.44l-32.53-15.53s28.85,34.99-21.88,73.45c-50.68,38.51-68.62,71.71-65.58,165.1,3.55,108.92-62.06,98.99-62.06,98.99,0,0-3.41,8.39-7.29,21.25Z"/>
    </g>
  </g>
  <g>
    <path class="cls-17" d="m2136.71,469.46c-21.91-35.84-32.71-78.87-28.09-123.88,11.22-109.25,108.88-188.73,218.13-177.51,109.25,11.22,188.73,108.88,177.51,218.13-11.22,109.25-108.88,188.73-218.13,177.51-30.39-3.12-58.46-12.95-82.93-27.83l-92.03,20.64,25.54-87.06Z"/>
    <g class="cls-8">
      <path class="cls-3" d="m2322.85,206.12c-102.06-10.48-193.98,58.19-214.79,156.34-.02-7.01.28-14.08,1.01-21.21,11.22-109.25,108.88-188.73,218.13-177.51,109.25,11.22,188.73,108.88,177.51,218.13-.74,7.16-1.86,14.19-3.32,21.08-.38-100.37-76.45-186.34-178.54-196.82Z"/>
    </g>
    <path class="cls-13" d="m2306.84,579.21c48.85,0,95.83-16.63,134.23-47.88,44.19-35.96,71.73-86.98,77.55-143.65,12.01-117-73.4-221.95-190.39-233.97-56.66-5.83-112.23,10.79-156.41,46.74-44.19,35.96-71.73,86.98-77.55,143.65-4.59,44.66,4.69,88.54,26.83,127.3l-23.77,81.05c-1.44,4.91-.18,10.21,3.32,13.94,3.5,3.73,8.7,5.33,13.69,4.21l86.46-19.39c25.83,14.77,54.02,23.79,83.87,26.86,7.42.76,14.82,1.14,22.18,1.14Zm-.74-397.77c6.37,0,12.76.33,19.18.99,101.16,10.39,175.01,101.14,164.63,202.3-5.03,49-28.85,93.12-67.05,124.21-38.21,31.1-86.25,45.44-135.24,40.42-27.52-2.82-53.4-11.51-76.91-25.81-3.19-1.94-7.01-2.58-10.66-1.75l-68.12,15.28,18.64-63.55c1.15-3.91.59-8.12-1.53-11.59-21.19-34.68-30.2-74.4-26.05-114.88,5.03-49,28.85-93.12,67.05-124.21,33.21-27.02,73.83-41.4,116.06-41.4Z"/>
    <g class="cls-9">
      <path class="cls-13" d="m2135.59,467.55c54.47,46.07,129.51,66.25,204.02,47.7,82.64-20.57,143.53-83.5,165.43-159.87.52,10.13.29,20.42-.78,30.82-11.22,109.25-108.88,188.73-218.13,177.51-30.39-3.12-58.46-12.95-82.93-27.83l-92.03,20.64,25.54-87.06c-.38-.63-.74-1.28-1.12-1.91Z"/>
    </g>
    <path class="cls-3" d="m2242.85,310.05h0c17.21-17.21,45.11-14.13,62.32,3.08l2.68,2.68,2.68-2.68c17.21-17.21,45.11-20.29,62.32-3.08h0c17.21,17.21,17.21,45.11,0,62.32l-2.68,2.68-54.11,54.11c-4.54,4.54-11.89,4.54-16.43,0l-54.11-54.11-2.68-2.68c-17.21-17.21-17.21-45.11,0-62.32Z"/>
  </g>
</svg>