<?xml version="1.0" encoding="UTF-8"?>
<svg id="Layer_1" data-name="Layer 1" xmlns="http://www.w3.org/2000/svg" xmlns:xlink="http://www.w3.org/1999/xlink" viewBox="0 0 288.07 407.69">
  <defs>
    <style>
      .cls-1 {
        fill: url(#linear-gradient-2);
      }

      .cls-2 {
        fill: #1c7aea;
      }

      .cls-3 {
        fill: #fff;
      }

      .cls-4 {
        fill: #111a28;
      }

      .cls-5 {
        fill: #d8d8d8;
      }

      .cls-6 {
        fill: #ffd62c;
      }

      .cls-7 {
        opacity: .35;
      }

      .cls-7, .cls-8, .cls-9, .cls-10 {
        fill: none;
      }

      .cls-11 {
        fill: #ff9c43;
      }

      .cls-8 {
        opacity: .7;
      }

      .cls-12 {
        fill: #22a7f0;
      }

      .cls-9 {
        opacity: .5;
      }

      .cls-13 {
        fill: #390176;
      }

      .cls-14 {
        fill: #c1c1c1;
      }

      .cls-15 {
        fill: #e8e8e8;
      }

      .cls-16 {
        fill: #ffb42e;
      }

      .cls-10 {
        opacity: .2;
      }

      .cls-17 {
        fill: #371944;
      }

      .cls-18 {
        fill: #371a45;
      }

      .cls-19 {
        fill: url(#linear-gradient);
      }

      .cls-20 {
        fill: #ff7a45;
      }
    </style>
    <linearGradient id="linear-gradient" x1="70.7" y1="257.78" x2="99.89" y2="208.86" gradientUnits="userSpaceOnUse">
      <stop offset="0" stop-color="#e8e8e8"/>
      <stop offset="1" stop-color="#fff"/>
    </linearGradient>
    <linearGradient id="linear-gradient-2" x1="96.7" y1="257.14" x2="125.16" y2="209.44" xlink:href="#linear-gradient"/>
  </defs>
  <g>
    <g class="cls-10">
      <ellipse class="cls-18" cx="166.28" cy="390.95" rx="87.14" ry="16.74"/>
    </g>
    <g>
      <rect class="cls-3" x="100.41" y="180.85" width="132.04" height="129.9" rx="64.95" ry="64.95"/>
      <path class="cls-18" d="m208.84,313.12h-84.81c-14.33,0-25.98-11.65-25.98-25.98v-82.67c0-14.33,11.66-25.98,25.98-25.98h84.81c14.33,0,25.98,11.66,25.98,25.98v82.67c0,14.33-11.66,25.98-25.98,25.98Zm-84.81-129.9c-11.72,0-21.25,9.53-21.25,21.25v82.67c0,11.72,9.53,21.25,21.25,21.25h84.81c11.72,0,21.25-9.53,21.25-21.25v-82.67c0-11.72-9.53-21.25-21.25-21.25h-84.81Z"/>
    </g>
    <path class="cls-3" d="m143.89,224.85s-64.14,5.41-51.03-12.52c6.06-8.29,12.68-13.95,18.66-17.81.06-.05.13-.09.19-.13,10.57-6.77,19.14-7.9,19.14-7.9l3.46,10.2,4.11,12.09,5.46,16.06Z"/>
    <path class="cls-5" d="m138.43,208.79c-11.3-3.13-20.68-8.13-26.9-14.27.06-.05.13-.09.19-.13,10.57-6.77,19.14-7.9,19.14-7.9l3.46,10.2,4.11,12.09Z"/>
    <path class="cls-5" d="m218.73,196.47c-4.17,3.57-9.46,6.68-15.57,9.18l-22.66-24.81c15.99,1.43,28.57,7.72,38.23,15.63Z"/>
    <path class="cls-5" d="m212.47,200.98c-11.49,7.04-27.97,11.44-46.27,11.44s-34.51-4.33-45.99-11.27c.22-.47.44-.93.67-1.39,0,0-8.65-49.73,45.51-51.81,54.15-2.09,45.51,51.81,45.51,51.81.2.41.4.82.59,1.22Z"/>
    <path class="cls-18" d="m124.11,227.99c-1.41,0-2.85-.01-4.29-.04-17.55-.37-27.43-2.97-30.23-7.95-1.04-1.85-1.64-4.92,1.38-9.04,17.26-23.6,38.69-26.67,39.6-26.79,1.29-.17,2.48.74,2.65,2.03.17,1.29-.74,2.48-2.03,2.65-.28.04-20.43,3.05-36.4,24.89-1.86,2.54-1.26,3.59-1.07,3.94,3.34,5.95,31.24,6.41,49.99,4.83,1.3-.11,2.44.86,2.55,2.16s-.86,2.44-2.16,2.55c-.1,0-9.33.78-19.98.78Z"/>
    <path class="cls-5" d="m213.59,203.37c-11.15,6.71-27.46,10.95-45.64,10.95-19.54,0-36.93-4.89-48.06-12.49.33-.69.65-1.38.99-2.07,0,0-6.22-35.74,24.89-47.89,6.87-1.42,14.36-2.21,22.18-2.21s15.81.84,22.87,2.36c26.75,12.27,21.06,47.74,21.06,47.74.59,1.21,1.16,2.41,1.71,3.61Z"/>
    <path class="cls-3" d="m164.58,309.56c-.37,5.9-.6,11.8-.76,17.55-.04,1.45-.07,2.9-.1,4.33-.49,25.22.46,46.74-1.42,52.18-2.58,7.4-9.27,8.04-9.27,8.04h-22.88s-15.81.79-20.01-3.07c-4.2-3.86-3.79-9.36-.72-13.16,2.62-3.26,7.33-4.63,7.33-4.63,0,0-3.18-23.53-6.43-54.86-.13-1.27-.27-2.55-.4-3.85-.99-9.68-1.97-20.01-2.87-30.57l57.53,28.03Z"/>
    <g class="cls-10">
      <path class="cls-18" d="m164.58,309.56c-.37,5.9-.6,11.8-.76,17.55-.04,1.45-.07,2.9-.1,4.33-25.96,1.53-43.39-7.62-53.41-15.5-.13-1.27-.27-2.55-.4-3.85-.99-9.68-1.97-20.01-2.87-30.57l57.53,28.03Z"/>
    </g>
    <g class="cls-10">
      <path class="cls-18" d="m110.14,388.59c4.2,3.86,20.01,3.07,20.01,3.07h22.88s6.69-.65,9.27-8.05c.32-.93.56-2.32.74-4.13-2.93,2.27-5.9,2.56-5.9,2.56h-25.87s-17.87.89-22.63-3.48c-.25-.23-.49-.47-.71-.72-1.57,3.48-1.17,7.64,2.2,10.74Z"/>
    </g>
    <path class="cls-18" d="m126.48,394.11c-5.39,0-14.39-.52-17.94-3.78-4.71-4.34-5.12-11.22-.96-16.38,1.93-2.4,4.73-3.9,6.58-4.7-1.14-8.72-6-46.7-9.46-87.52-.11-1.3.86-2.45,2.16-2.55,1.3-.11,2.44.86,2.55,2.16,3.91,46.19,9.63,88.73,9.68,89.16.16,1.16-.56,2.26-1.68,2.59-.03.01-4.04,1.22-6.15,3.85-2.19,2.71-2.88,6.83.48,9.93,2.39,2.2,12.13,2.76,18.29,2.45.04,0,.08,0,.12,0h22.73c.68-.1,5.28-.99,7.18-6.46,1.12-3.23,1.12-14.52,1.13-27.61,0-13.13,0-29.46,1.03-45.83.08-1.3,1.21-2.3,2.51-2.21,1.3.08,2.29,1.2,2.21,2.51-1.02,16.22-1.02,32.47-1.02,45.53,0,15.16,0,25.18-1.39,29.16-3.04,8.73-10.94,9.59-11.28,9.62-.08,0-.15.01-.23.01h-22.82c-.7.03-2.04.09-3.73.09Z"/>
    <path class="cls-18" d="m141.55,348.8c-9.34,0-20.13-1.18-29.39-5.27-1.19-.53-1.73-1.92-1.21-3.12.53-1.19,1.92-1.74,3.12-1.21,19.9,8.79,48.74,2.9,49.03,2.83,1.28-.27,2.53.55,2.8,1.83.27,1.28-.55,2.53-1.83,2.8-.7.15-10.38,2.13-22.52,2.13Z"/>
    <path class="cls-18" d="m116.2,368.5c6.21-1.03,12.32-.52,18.41.49.64.11,1.08.72.96,1.37-.1.59-.63,1.01-1.22.98-5.69-.19-11.66.1-17.05,1.76-3.23.88-4.39-3.91-1.11-4.6h0Z"/>
    <g>
      <path class="cls-3" d="m168.17,309.56c.37,5.9.6,11.8.76,17.55.04,1.45.07,2.9.1,4.33.49,25.22-.46,46.74,1.42,52.18,2.58,7.4,9.27,8.04,9.27,8.04h22.88s15.81.79,20.01-3.07c4.2-3.86,3.79-9.36.72-13.16-2.62-3.26-7.33-4.63-7.33-4.63,0,0,3.18-23.53,6.43-54.86.13-1.27.27-2.55.4-3.85.99-9.68,1.97-20.01,2.87-30.57l-57.53,28.03Z"/>
      <g class="cls-10">
        <path class="cls-18" d="m168.17,309.56c.37,5.9.6,11.8.76,17.55.04,1.45.07,2.9.1,4.33,25.96,1.53,43.39-7.62,53.41-15.5.13-1.27.27-2.55.4-3.85.99-9.68,1.97-20.01,2.87-30.57l-57.53,28.03Z"/>
      </g>
      <g class="cls-10">
        <path class="cls-18" d="m222.62,388.59c-4.2,3.86-20.01,3.07-20.01,3.07h-22.88s-6.69-.65-9.27-8.05c-.32-.93-.56-2.32-.74-4.13,2.93,2.27,5.9,2.56,5.9,2.56h25.87s17.87.89,22.63-3.48c.25-.23.49-.47.71-.72,1.57,3.48,1.17,7.64-2.2,10.74Z"/>
      </g>
      <path class="cls-18" d="m206.28,394.11c-1.69,0-3.03-.05-3.73-.09h-22.82c-.08,0-.15,0-.23-.01-.33-.03-8.24-.89-11.28-9.62-1.38-3.98-1.39-14-1.39-29.16,0-13.06,0-29.31-1.02-45.53-.08-1.3.91-2.43,2.21-2.51,1.3-.08,2.43.91,2.51,2.21,1.03,16.37,1.03,32.7,1.03,45.83,0,13.08,0,24.38,1.13,27.61,1.89,5.44,6.45,6.35,7.19,6.46h22.73s.08,0,.12,0c6.16.31,15.9-.25,18.29-2.45,3.37-3.1,2.67-7.22.48-9.93-2.12-2.63-6.12-3.84-6.16-3.85-1.12-.33-1.83-1.43-1.68-2.58.06-.42,5.77-42.97,9.68-89.16.11-1.3,1.25-2.26,2.56-2.16,1.3.11,2.27,1.25,2.16,2.55-3.46,40.82-8.32,78.8-9.46,87.52,1.86.8,4.65,2.3,6.58,4.7,4.15,5.16,3.75,12.04-.96,16.38-3.55,3.26-12.55,3.78-17.94,3.78Z"/>
      <path class="cls-18" d="m191.2,348.8c-12.13,0-21.82-1.98-22.52-2.13-1.28-.27-2.09-1.52-1.83-2.8.27-1.28,1.52-2.1,2.8-1.83.29.06,29.13,5.95,49.03-2.83,1.19-.53,2.59.01,3.12,1.21.53,1.19-.01,2.59-1.21,3.12-9.27,4.09-20.06,5.27-29.39,5.27Z"/>
      <path class="cls-18" d="m215.45,373.1c-5.38-1.66-11.36-1.95-17.05-1.76-1.46.05-1.69-2.09-.25-2.35,6.09-1.01,12.19-1.52,18.41-.49,3.28.69,2.13,5.48-1.11,4.6h0Z"/>
    </g>
    <path class="cls-18" d="m206.28,394.11c-1.69,0-3.03-.05-3.73-.09h-22.82c-.08,0-.15,0-.23-.01-.33-.03-8.24-.89-11.28-9.62-1.38-3.98-1.39-14-1.39-29.16,0-13.06,0-29.31-1.02-45.53-.08-1.3.91-2.43,2.21-2.51,1.3-.08,2.43.91,2.51,2.21,1.03,16.37,1.03,32.7,1.03,45.83,0,13.08,0,24.38,1.13,27.61,1.89,5.44,6.45,6.35,7.19,6.46h22.73s.08,0,.12,0c6.16.31,15.9-.25,18.29-2.45,3.37-3.1,2.67-7.22.48-9.93-2.12-2.63-6.12-3.84-6.16-3.85-1.12-.33-1.83-1.43-1.68-2.58.06-.42,5.77-42.97,9.68-89.16.11-1.3,1.26-2.26,2.55-2.16,1.3.11,2.27,1.25,2.16,2.55-3.46,40.82-8.32,78.8-9.46,87.52,1.86.8,4.65,2.3,6.58,4.7,4.15,5.16,3.75,12.04-.96,16.38-3.55,3.26-12.55,3.78-17.94,3.78Z"/>
    <g>
      <path class="cls-3" d="m211.88,199.76c14.87,30.77,21.56,58.93,17.02,80.82-1.62,7.81-4.32,14.24-7.78,19.52-7.47,11.38-18.5,17.44-30,20.53-8.4,2.26-17.05,2.93-24.75,2.93-5.92,0-12.41-.4-18.92-1.61-1.83-.34-3.65-.74-5.47-1.22-10.25-2.7-20.15-7.73-27.52-16.76-4.83-5.92-8.58-13.56-10.61-23.39-4.54-21.89,2.15-50.05,17.02-80.82"/>
      <path class="cls-3" d="m211.88,199.76c14.87,30.77,21.56,58.93,17.02,80.82-1.62,7.81-4.32,14.24-7.78,19.52-7.47,11.38-18.5,17.44-30,20.53-8.4,2.26-17.05,2.93-24.75,2.93-5.92,0-12.41-.4-18.92-1.61-1.83-.34-3.65-.74-5.47-1.22-10.25-2.7-20.15-7.73-27.52-16.76-4.83-5.92-8.58-13.56-10.61-23.39-4.54-21.89,2.15-50.05,17.02-80.82,0,0-8.65-49.72,45.51-51.81,54.15-2.09,45.51,51.81,45.51,51.81Z"/>
      <g class="cls-10">
        <path class="cls-18" d="m212.47,200.98c-11.49,7.04-27.97,11.44-46.27,11.44s-34.51-4.33-45.99-11.27c.22-.47.44-.93.67-1.39,0,0-8.65-49.73,45.51-51.81,54.15-2.09,45.51,51.81,45.51,51.81.2.41.4.82.59,1.22Z"/>
      </g>
      <g class="cls-10">
        <path class="cls-18" d="m228.91,280.58c-1.62,7.81-4.31,14.24-7.78,19.52-7.46,11.38-18.5,17.44-30,20.53-8.4,2.26-17.06,2.93-24.74,2.93-5.92,0-12.42-.4-18.92-1.61-1.83-.34-3.65-.74-5.47-1.22-10.25-2.69-20.15-7.73-27.53-16.76-4.83-5.92-8.58-13.56-10.61-23.39-1.25-6.04-1.65-12.56-1.25-19.48.2,3.34.61,6.57,1.25,9.67,2.04,9.83,5.79,17.46,10.61,23.39,7.38,9.03,17.27,14.07,27.53,16.76,1.81.48,3.64.88,5.47,1.22,6.51,1.21,13,1.61,18.92,1.61,7.69,0,16.34-.67,24.74-2.93,11.5-3.09,22.53-9.15,30-20.53,3.47-5.28,6.16-11.71,7.78-19.52.64-3.1,1.06-6.33,1.25-9.67.4,6.92,0,13.44-1.25,19.48Z"/>
      </g>
      <path class="cls-18" d="m113.55,304.71c-4.55-3.7-7.45-9-9.48-14.41-6.22-16.19-4.93-34.26-.51-50.72.34-1.26,1.64-2.01,2.9-1.67,1.22.33,1.96,1.56,1.7,2.79-.56,2.68-1.09,5.36-1.54,8.05-1.69,10.64-2.31,21.6-.08,32.16,1.5,8,5.12,15.12,8.85,22.31.6,1.13-.84,2.32-1.83,1.49h0Z"/>
      <path class="cls-18" d="m191.43,321.77c-14.48,5.56-35.23,5.55-49.74.1-1.34-.49-.82-2.51.6-2.29,10.07,1.36,20.2,1.89,30.35,1.52,6.1-.17,12.11-.74,18.18-1.61,1.37-.2,1.92,1.77.61,2.28h0Z"/>
      <path class="cls-18" d="m218.91,212.49c11.9,24.33,20.37,56.76,7.65,82.3-1.92,3.67-4.34,7.11-7.35,9.93-.48.45-1.23.43-1.69-.05-.38-.4-.42-.99-.15-1.44,4.09-6.64,6.99-13.69,8.69-21.19,1.65-7.48,1.93-15.3,1.37-22.94-1.14-15.64-5.8-30.8-10.72-45.7-.44-1.35,1.5-2.23,2.18-.91h0Z"/>
    </g>
    <g>
      <path class="cls-3" d="m200.03,259.08s20.23-1.54,28.74,4.59c9.05,6.51-.07,14.05-.07,14.05,0,0-16.29-3.56-29.97-3.05l1.3-15.59Z"/>
      <g class="cls-10">
        <path class="cls-18" d="m228.7,277.72s-16.29-3.56-29.97-3.05l.49-5.92c9.51-.29,20.16,1.33,25.69,2.32,2.94.53,5.92-.95,7.14-3.68.01-.03.02-.05.04-.08,2.68,5.38-3.39,10.4-3.39,10.4Z"/>
      </g>
      <path class="cls-3" d="m134.41,259.08s-20.23-1.54-28.74,4.59c-9.05,6.51.07,14.05.07,14.05,0,0,16.29-3.56,29.97-3.05l-1.3-15.59Z"/>
      <path class="cls-17" d="m229.32,280.27l-1.12-.25c-.16-.04-16.17-3.49-29.38-3l-2.66.1,1.69-20.25,2.01-.15c.86-.07,21.19-1.53,30.3,5.03,3.2,2.31,4.88,5.04,4.98,8.13.18,5.37-4.72,9.48-4.92,9.66l-.89.73Zm-27.8-8.02c11.02,0,22.67,2.14,26.45,2.9,1.07-1.15,2.51-3.15,2.44-5.13-.06-1.54-1.07-3.04-3.02-4.44-5.73-4.12-18.66-4.52-25.17-4.26l-.91,10.93h.21Z"/>
      <path class="cls-17" d="m105.12,280.27l-.89-.73c-.21-.17-5.1-4.28-4.92-9.66.1-3.09,1.78-5.83,4.98-8.13,9.11-6.56,29.44-5.09,30.3-5.03l2.01.15,1.69,20.25-2.66-.1c-13.21-.49-29.22,2.96-29.38,3l-1.12.25Zm23.88-19.01c-6.92,0-17.05.8-21.94,4.32-1.95,1.4-2.97,2.9-3.02,4.45-.07,1.97,1.38,3.98,2.44,5.11,3.78-.76,15.43-2.9,26.45-2.9h.21l-.91-10.93c-.95-.04-2.04-.06-3.23-.06Z"/>
      <path class="cls-3" d="m201.34,253.05v28.8c0,5.34-4.21,9.72-9.35,9.72h-51.07c-5.15,0-9.35-4.37-9.35-9.72v-28.8c0-5.34,4.2-9.71,9.35-9.71h51.07c4.11,0,7.62,2.79,8.87,6.64.31.97.48,2,.48,3.07Z"/>
      <g class="cls-10">
        <path class="cls-18" d="m201.34,253.05v28.8c0,5.34-4.21,9.72-9.35,9.72h-51.07c-5.15,0-9.35-4.37-9.35-9.72v-9.69c8.81,5.06,26.27,12.67,43.78,6.39,8.56-3.07,18.37-13.58,18.37-13.58,0,0,.38,11.03,1.95,10.86,4.38-.48,4.35-22.8,5.18-25.85.31.97.48,2,.48,3.07Z"/>
      </g>
      <path class="cls-17" d="m192.33,293.93h-51.77c-6.27,0-11.37-5.1-11.37-11.37v-30.22c0-6.27,5.1-11.37,11.37-11.37h51.77c6.27,0,11.37,5.1,11.37,11.37v30.22c0,6.27-5.1,11.37-11.37,11.37Zm-51.77-48.22c-3.66,0-6.64,2.98-6.64,6.64v30.22c0,3.66,2.98,6.64,6.64,6.64h51.77c3.66,0,6.64-2.98,6.64-6.64v-30.22c0-3.66-2.98-6.64-6.64-6.64h-51.77Z"/>
      <ellipse class="cls-12" cx="184.54" cy="267.45" rx="8.06" ry="8.37"/>
      <path class="cls-3" d="m192.61,267.46c0,.57-.05,1.12-.16,1.66-.74-3.84-4-6.72-7.91-6.72s-7.16,2.89-7.9,6.72c-.11-.54-.16-1.09-.16-1.66,0-4.63,3.61-8.38,8.06-8.38s8.07,3.75,8.07,8.38Z"/>
      <path class="cls-2" d="m192.61,267.45c0,4.63-3.61,8.37-8.06,8.37s-8.06-3.75-8.06-8.37c0-.78.1-1.53.29-2.24.95,3.53,4.07,6.13,7.77,6.13s6.82-2.59,7.77-6.13c.19.71.29,1.47.29,2.24Z"/>
      <path class="cls-17" d="m184.54,277.6c-5.42,0-9.84-4.55-9.84-10.15s4.41-10.15,9.84-10.15,9.84,4.55,9.84,10.15-4.41,10.15-9.84,10.15Zm0-16.75c-3.47,0-6.29,2.96-6.29,6.6s2.82,6.6,6.29,6.6,6.29-2.96,6.29-6.6-2.82-6.6-6.29-6.6Z"/>
      <path class="cls-17" d="m159.02,293.93c-1.31,0-2.36-1.06-2.36-2.36v-14.74c0-2.91-1.33-5.68-3.55-7.42l-1.3-1.01c-3.36-2.63-5.37-6.79-5.37-11.14v-13.91c0-1.31,1.06-2.36,2.36-2.36s2.36,1.06,2.36,2.36v13.91c0,2.91,1.33,5.68,3.55,7.42l1.3,1.01c3.36,2.63,5.37,6.79,5.37,11.14v14.74c0,1.31-1.06,2.36-2.36,2.36Z"/>
    </g>
    <path class="cls-3" d="m112.94,277.54c-3.29,13.21-15.65,14.03-25.58,13.57-10.38-.47-18.38-4.05-20.22-13.57-1.8-9.33,8.42-17.32,18.81-17.32s27,7.76,27,17.32Z"/>
    <g class="cls-10">
      <path class="cls-18" d="m112.94,277.54c-3.29,13.21-15.64,14.03-25.58,13.58-10.38-.47-18.38-4.05-20.22-13.58-.33-1.72-.25-3.39.16-4.98,2.1,8.98,9.96,12.39,20.06,12.85,9.33.42,20.79-.27,24.88-11.29.46,1.11.7,2.25.7,3.42Z"/>
    </g>
    <path class="cls-18" d="m91.42,293.59c-1.58,0-3-.06-4.16-.12-13.02-.59-20.57-5.8-22.44-15.48-.81-4.19.38-8.49,3.36-12.1,4.09-4.96,10.9-8.03,17.77-8.03,11.55,0,29.36,8.45,29.36,19.69,0,.19-.02.38-.07.57-3.43,13.77-15.71,15.48-23.82,15.48Zm-5.47-31.01c-5.41,0-10.95,2.48-14.12,6.32-1.46,1.77-3.05,4.63-2.37,8.19,1.42,7.36,7.31,11.17,18.01,11.66,10.31.46,20.23-.61,23.1-11.49-.35-7.85-15.45-14.68-24.63-14.68Zm27,14.96h0,0Z"/>
    <path class="cls-3" d="m233.85,266.34c-18.2,9.72-51.68-6.52-53.89-7.43-3.76,4.16-13.86,7.43-22.11.94-2.43,1.81-7.2,1.12-8.43-3.04-.48-1.64-.71-3.35-.67-5.09v-.02c.19-8.56,6.69-17.77,19.34-21.81,18.92-6.05,36.08-.57,49.32-.43l-4.99-13.65-31.93-34.96c40.6,3.63,59.21,38.62,63.8,51.5.56,1.55,1.02,3.1,1.37,4.63,2.87,12.04-.31,23.2-11.83,29.36Z"/>
    <g class="cls-10">
      <path class="cls-18" d="m233.85,266.34c-18.2,9.72-51.68-6.52-53.89-7.43-3.76,4.16-13.86,7.43-22.11.94-2.43,1.81-7.2,1.12-8.43-3.04-.48-1.64-.71-3.35-.67-5.09.08.43,1.09,5.62,4.78,4.77,3.84-.89,3.45-9.07,3.45-9.07,0,0,.6,9.73,11.1,10.01,9.23.24,15.83-5.67,15.83-5.67,0,0,14.61,13.77,39.5,12.34,24.35-1.39,22.37-26.05,22.27-27.12,2.87,12.04-.31,23.2-11.83,29.36Z"/>
    </g>
    <g class="cls-10">
      <path class="cls-18" d="m218.73,196.47c-4.17,3.57-9.46,6.68-15.57,9.18l-22.66-24.81c15.99,1.43,28.57,7.72,38.23,15.63Z"/>
    </g>
    <path class="cls-18" d="m180.71,178.5c23.65,1.74,44.84,16.45,57.3,36.23,8.27,12.87,16.14,30.61,6.8,44.98-7.55,11.05-20.27,13.3-32.71,11.58-10.59-1.4-20.73-4.86-30.48-9.07,0,0-2.55-1.13-2.55-1.13l2.65-.6c-6.6,6.81-18.1,7.09-25.33,1.22,0,0,2.87.04,2.87.04-2.51,1.77-5.58,1.81-8.23.5-6.46-3.37-5.17-14.4-2.31-19.76,6.03-12.02,19.96-16.53,32.46-17.55,12.14-1.18,24.28,1.74,36.26,2.15,0,0-2.24,3.18-2.24,3.18l-3.88-14.05c-.37-1.38,1.6-2.12,2.22-.81,0,0,6.1,13.24,6.1,13.24.67,1.39-.36,3.09-1.89,3.16-4.31.03-8.51-.54-12.61-1-11.62-1.49-23.69-2.46-34.93.92-10.27,2.61-20.84,11.68-18.83,23.08.23,1.26.6,2.66,1.84,3.25.89.52,2.45.51,3.23-.1.87-.65,2.06-.61,2.87.04,1.39,1.08,2.92,1.94,4.56,2.46,3.29,1.09,7,.89,10.2-.42,1.6-.65,3.11-1.6,4.13-2.71.67-.78,1.76-1,2.65-.6,6.78,3.07,13.84,5.79,21.02,7.7,10.03,2.54,22.05,4.68,31.46-.51,6.08-3.29,10.28-9.39,10.83-16.36,1.58-15.86-12.9-36.86-24.37-47.04-10.88-9.88-24.86-16.08-39.51-17.3-3.08-.34-2.72-4.9.42-4.71h0Z"/>
    <path class="cls-18" d="m230.51,269.53c-.2,0-.4-.03-.6-.11-.92-.33-1.4-1.35-1.06-2.27,8.47-23.42-11.49-35.67-12.34-36.18-.84-.5-1.12-1.59-.62-2.43.5-.84,1.59-1.12,2.43-.62.23.14,23.34,14.22,13.86,40.44-.26.72-.94,1.17-1.67,1.17Z"/>
    <g>
      <path class="cls-3" d="m259.67,74.93s21.52,8.16,23.73,12.14c4.1,7.39,3.34,50.79-8,62.11-4.44,4.43-37.07,8.57-37.07,8.57l21.34-82.82Z"/>
      <g class="cls-10">
        <path class="cls-18" d="m238.33,157.76s32.63-4.14,37.07-8.58c4.43-4.41,7.25-13.73,8.78-23.88-.36.33-11.88,10.27-34.87-9.95-.01-.01-.03-.02-.04-.04l-10.93,42.43Z"/>
      </g>
      <polygon class="cls-5" points="166.39 120.24 166.39 120.61 166.15 120.43 166.39 120.24"/>
      <polygon class="cls-5" points="166.15 120.43 165.92 120.61 165.92 120.24 166.15 120.43"/>
      <path class="cls-3" d="m95.08,157.76s-32.63-4.14-37.07-8.58c-4.43-4.41-7.25-13.73-8.78-23.88h0c-2.41-15.84-1.71-33.73.79-38.23,2.21-3.98,23.73-12.14,23.73-12.14l10.41,40.39,10.93,42.43Z"/>
      <path class="cls-5" d="m95.08,157.76s-32.63-4.14-37.07-8.58c-4.43-4.41-7.25-13.73-8.78-23.88.36.33,11.88,10.27,34.87-9.95.01-.01.03-.02.04-.04l10.93,42.43Z"/>
      <path class="cls-18" d="m235.17,160.54l22.87-88.75,2.47.94c6.71,2.55,22.58,8.93,24.96,13.2,4.54,8.19,3.97,52.59-8.4,64.93-4.77,4.76-32.86,8.54-38.44,9.24l-3.46.44Zm26.13-82.44l-19.8,76.85c14.68-2.03,29.99-5.2,32.24-7.44,10.47-10.45,11.28-52.67,7.61-59.29-1.1-1.81-10.8-6.47-20.04-10.12Z"/>
      <path class="cls-18" d="m98.24,160.54l-3.46-.44c-5.58-.71-33.67-4.48-38.44-9.24-12.37-12.34-12.94-56.75-8.4-64.93,2.38-4.28,18.25-10.66,24.96-13.2l2.47-.94,22.87,88.75Zm-26.13-82.44c-9.24,3.65-18.93,8.31-20.04,10.13-3.67,6.61-2.87,48.83,7.61,59.29,2.24,2.24,17.55,5.41,32.24,7.44l-19.8-76.85Z"/>
      <circle class="cls-3" cx="166.7" cy="102.14" r="99.77"/>
      <g class="cls-10">
        <path class="cls-18" d="m266.47,102.13c0,55.1-44.67,99.77-99.77,99.77s-99.77-44.67-99.77-99.77c0-5.82.5-11.52,1.46-17.06,8.09,46.97,49.03,82.7,98.32,82.7s90.21-35.73,98.31-82.7c.96,5.54,1.46,11.25,1.46,17.06Z"/>
      </g>
      <path class="cls-18" d="m166.7,204.27c-56.32,0-102.13-45.82-102.13-102.13S110.38,0,166.7,0s102.13,45.82,102.13,102.13-45.82,102.13-102.13,102.13Zm0-199.54c-53.71,0-97.4,43.7-97.4,97.4s43.7,97.41,97.4,97.41,97.4-43.7,97.4-97.41S220.41,4.73,166.7,4.73Z"/>
      <path class="cls-18" d="m166.7,204.27c-56.32,0-102.13-45.82-102.13-102.13S110.38,0,166.7,0s102.13,45.82,102.13,102.13-45.82,102.13-102.13,102.13Zm0-199.54c-53.71,0-97.4,43.7-97.4,97.4s43.7,97.41,97.4,97.41,97.4-43.7,97.4-97.41S220.41,4.73,166.7,4.73Z"/>
      <path class="cls-18" d="m166.7,204.27c-56.32,0-102.13-45.82-102.13-102.13S110.38,0,166.7,0s102.13,45.82,102.13,102.13-45.82,102.13-102.13,102.13Zm0-199.54c-53.71,0-97.4,43.7-97.4,97.4s43.7,97.41,97.4,97.41,97.4-43.7,97.4-97.41S220.41,4.73,166.7,4.73Z"/>
      <path class="cls-18" d="m166.7,204.27c-46.53,0-87.16-31.39-98.84-76.36-.02-.06-.04-.11-.05-.17-2.15-8.29-3.24-16.91-3.24-25.61,0-3.85.22-7.7.64-11.44C70.96,39,114.59,0,166.7,0s95.76,39,101.5,90.73c.42,3.75.63,7.59.63,11.4,0,8.68-1.09,17.3-3.23,25.6-.02.06-.03.12-.05.17-11.69,44.96-52.32,76.36-98.85,76.36Zm-94.3-77.67c11.1,42.95,49.87,72.95,94.3,72.95s83.2-29.99,94.31-72.95c.02-.07.04-.13.06-.19,2.02-7.87,3.04-16.03,3.04-24.26,0-3.64-.2-7.3-.61-10.88-5.48-49.33-47.09-86.52-96.8-86.52s-91.3,37.18-96.79,86.49c-.41,3.57-.61,7.23-.61,10.91,0,8.24,1.03,16.4,3.05,24.26.02.06.04.13.06.2Z"/>
      <path class="cls-18" d="m262.99,78.33c-.92,0-1.79-.54-2.17-1.43-15.77-36.6-52.71-60.25-94.12-60.25s-78.32,23.63-94.1,60.2c-.49,1.14-1.78,1.7-2.95,1.29-1.17-.41-1.83-1.65-1.5-2.85C80.17,30.96,120.7,0,166.7,0s86.57,30.99,98.57,75.35c.32,1.2-.33,2.44-1.5,2.85-.26.09-.52.13-.78.13ZM166.7,11.93c31.26,0,60.09,12.91,79.92,34.5-17.85-25.54-47.45-41.7-79.92-41.7s-62.05,16.16-79.9,41.68c19.84-21.58,48.66-34.48,79.9-34.48Z"/>
      <path class="cls-18" d="m266.46,102.14c0,8.64-1.09,17.02-3.16,25.01,0,0,0,0,0,0-17.31,33.44-54.06,62.21-96.6,62.21s-79.29-28.77-96.59-62.21c0,0,0,0,0,0-2.07-7.99-3.16-16.38-3.16-25.01,0-3.78.21-7.5.63-11.17,13.46-37.24,52.75-64.19,99.14-64.19s85.7,26.96,99.15,64.21c.41,3.66.62,7.38.62,11.14Z"/>
      <g class="cls-7">
        <path class="cls-4" d="m266.46,102.14c0,8.64-1.09,17.02-3.16,25.01,0,0,0,0,0,0-17.31,33.44-54.06,62.21-96.6,62.21s-79.29-28.77-96.59-62.21c0,0,0,0,0,0-1.23-4.76-2.12-9.66-2.64-14.67,22.37,25.13,54.89,43.41,91.1,43.41,46.13,0,86.31-29.67,107.1-65.38.06.16.13.32.18.48.41,3.66.62,7.38.62,11.14Z"/>
      </g>
      <path class="cls-18" d="m166.69,190.99c-20.31,0-40.6-6.52-58.67-18.85-16.39-11.18-30.34-26.85-39.32-44.15-.08-.13-.15-.28-.19-.44-2.13-8.24-3.22-16.79-3.22-25.42,0-3.83.22-7.65.64-11.35.01-.13.04-.25.09-.37,6.81-18.84,19.9-35.04,37.86-46.86,18.28-12.03,40-18.4,62.81-18.4s44.54,6.36,62.82,18.41c17.96,11.83,31.05,28.04,37.85,46.88.04.12.07.24.09.37.42,3.73.63,7.54.63,11.32,0,8.62-1.08,17.17-3.21,25.42-.04.16-.1.31-.19.44-8.97,17.29-22.93,32.97-39.32,44.15-18.07,12.33-38.37,18.85-58.68,18.85Zm-95.08-64.45c15.84,30.48,51.34,61.19,95.08,61.19s79.25-30.71,95.09-61.19c2.03-7.92,3.05-16.13,3.05-24.41,0-3.6-.2-7.22-.59-10.77-13.7-37.67-52.87-62.96-97.55-62.96s-83.84,25.28-97.54,62.93c-.4,3.53-.6,7.16-.6,10.8,0,8.29,1.03,16.5,3.06,24.41Z"/>
      <g class="cls-9">
        <ellipse class="cls-3" cx="236.76" cy="97.33" rx="17.05" ry="12.36" transform="translate(103.17 315.69) rotate(-80.89)"/>
      </g>
      <g class="cls-9">
        <ellipse class="cls-3" cx="222.31" cy="131.41" rx="7.83" ry="6.72" transform="translate(31.49 305.41) rotate(-72.95)"/>
      </g>
      <g class="cls-9">
        <path class="cls-3" d="m91.97,130.91s-16.22-48.23,9.55-68.1c25.77-19.87,63.4-20.56,62.57-18.12,0,0-41.46,10.93-57.09,44.2-12.06,25.65-15.02,42.03-15.02,42.03Z"/>
      </g>
    </g>
    <g>
      <path class="cls-15" d="m131.46,267.03h45.25c.65,0,1.1.64.89,1.26h0c-1.97,5.55-7.22,9.26-13.11,9.26h-38.04l5.01-10.51Z"/>
      <path class="cls-14" d="m177.6,268.29c-.99,2.77-2.79,5.09-5.09,6.71-2.29,1.62-5.08,2.55-8.03,2.55h-38.04l2.06-4.32h37.16c2.94,0,5.73-.93,8.03-2.55,1.35-.95,2.53-2.15,3.47-3.53.39.21.6.68.44,1.14Z"/>
      <path class="cls-18" d="m164.49,279.91h-38.04c-.81,0-1.57-.42-2-1.1-.43-.69-.48-1.55-.13-2.28l5.01-10.51c.39-.82,1.22-1.35,2.13-1.35h45.25c1.07,0,2.08.52,2.7,1.4.62.88.77,2,.41,3.01-2.3,6.48-8.46,10.83-15.34,10.83Zm-34.29-4.73h34.29c4.17,0,7.97-2.26,10.01-5.79h-41.54l-2.76,5.79Z"/>
      <path class="cls-15" d="m145.6,202.95l-8.11,59.75c-.34,2.55-2.52,4.44-5.09,4.44H50.94c-3.11,0-5.51-2.74-5.09-5.83l8.11-59.75c.34-2.55,2.52-4.45,5.09-4.45h81.46c3.11,0,5.51,2.75,5.09,5.83Z"/>
      <polygon class="cls-19" points="119.38 197.12 72 267.15 52.63 267.15 100.01 197.12 119.38 197.12"/>
      <polygon class="cls-1" points="142.69 197.12 95.31 267.15 80.56 267.15 127.94 197.12 142.69 197.12"/>
      <path class="cls-3" d="m145.6,202.95l-8.11,59.75c-.12.86-.44,1.64-.92,2.3l7.78-57.29c.42-3.08-1.97-5.83-5.09-5.83H57.8c-1.71,0-3.24.84-4.17,2.15l.34-2.48c.34-2.55,2.52-4.45,5.09-4.45h81.46c3.11,0,5.51,2.75,5.09,5.83Z"/>
      <path class="cls-18" d="m132.4,269.51H50.94c-2.17,0-4.23-.94-5.65-2.57-1.42-1.63-2.07-3.8-1.78-5.94l8.11-59.75c.5-3.7,3.7-6.49,7.43-6.49h81.46c2.17,0,4.23.94,5.65,2.57,1.42,1.63,2.07,3.8,1.78,5.94l-8.11,59.75c-.5,3.7-3.7,6.49-7.43,6.49Zm-73.35-70.02c-1.38,0-2.56,1.03-2.75,2.4l-8.11,59.75c-.11.81.12,1.59.66,2.2.53.61,1.28.95,2.09.95h81.46c1.38,0,2.56-1.03,2.75-2.4l8.11-59.75c.11-.81-.12-1.59-.66-2.2-.53-.61-1.28-.95-2.09-.95H59.05Z"/>
      <path class="cls-15" d="m143.28,277.44v.11H58.54c-5.81,0-10.51-4.71-10.51-10.51h86.22c0,5.3,3.93,9.69,9.03,10.41Z"/>
      <path class="cls-14" d="m143.28,277.43v.11H58.54c-4.52,0-8.36-2.85-9.85-6.84,1.8,1.45,4.09,2.32,6.58,2.32h80.86c1.63,2.35,4.19,3.99,7.15,4.41Z"/>
      <path class="cls-18" d="m143.28,279.91H58.54c-7.1,0-12.88-5.78-12.88-12.88,0-1.31,1.06-2.36,2.36-2.36h86.22c1.31,0,2.36,1.06,2.36,2.36,0,4.04,3.01,7.5,7,8.07,1.17.16,2.03,1.16,2.03,2.34v.11c0,1.31-1.06,2.36-2.36,2.36Zm-92.54-10.51c1.02,3.35,4.13,5.79,7.8,5.79h76.27c-1.35-1.65-2.3-3.63-2.71-5.79H50.74Z"/>
      <ellipse class="cls-18" cx="95.72" cy="232.13" rx="7.48" ry="6.63" transform="translate(-133.07 128.69) rotate(-43.26)"/>
    </g>
    <g>
      <path class="cls-6" d="m108.49,116.35c0,27.18-22.03,49.22-49.22,49.22-3.46,0-6.84-.35-10.09-1.03-22.34-4.66-39.12-24.46-39.12-48.18,0-27.19,22.03-49.22,49.22-49.22s47.06,19.94,49.06,45.28h0c.1,1.31.15,2.62.15,3.94Z"/>
      <path class="cls-16" d="m108.49,116.35c0,27.18-22.03,49.22-49.22,49.22-3.46,0-6.84-.35-10.09-1.03,9.82-12.88,26.1-34.05,26.1-34.05l25.34-18.43s4.12,6.87,7.71.37c.1,1.3.15,2.61.15,3.94Z"/>
      <path class="cls-18" d="m59.27,167.93c-28.44,0-51.58-23.14-51.58-51.58s23.14-51.58,51.58-51.58,51.58,23.14,51.58,51.58-23.14,51.58-51.58,51.58Zm0-98.44c-25.84,0-46.86,21.02-46.86,46.86s21.02,46.86,46.86,46.86,46.86-21.02,46.86-46.86-21.02-46.86-46.86-46.86Z"/>
      <path class="cls-18" d="m95.87,84.02h-30.72c-.33,0-.59-.26-.59-.59s.26-.59.59-.59h30.72c.33,0,.59.26.59.59s-.26.59-.59.59Z"/>
      <path class="cls-18" d="m102.43,93.26h-37.29c-.33,0-.59-.26-.59-.59s.26-.59.59-.59h37.29c.33,0,.59.26.59.59s-.26.59-.59.59Z"/>
      <path class="cls-18" d="m106.35,102.51h-41.2c-.33,0-.59-.26-.59-.59s.26-.59.59-.59h41.2c.33,0,.59.26.59.59s-.26.59-.59.59Z"/>
      <path class="cls-18" d="m108.22,111.76h-43.07c-.33,0-.59-.26-.59-.59s.26-.59.59-.59h43.07c.33,0,.59.26.59.59s-.26.59-.59.59Z"/>
      <path class="cls-18" d="m108.33,121.01h-43.18c-.33,0-.59-.26-.59-.59s.26-.59.59-.59h43.18c.33,0,.59.26.59.59s-.26.59-.59.59Z"/>
      <path class="cls-18" d="m106.66,130.25h-41.52c-.33,0-.59-.26-.59-.59s.26-.59.59-.59h41.52c.33,0,.59.26.59.59s-.26.59-.59.59Z"/>
      <path class="cls-18" d="m103.02,139.5h-37.88c-.33,0-.59-.26-.59-.59s.26-.59.59-.59h37.88c.33,0,.59.26.59.59s-.26.59-.59.59Z"/>
      <path class="cls-18" d="m96.82,148.75h-31.68c-.33,0-.59-.26-.59-.59s.26-.59.59-.59h31.68c.33,0,.59.26.59.59s-.26.59-.59.59Z"/>
      <circle class="cls-6" cx="51.58" cy="116.34" r="49.22"/>
      <path class="cls-16" d="m100.8,116.35c0,27.18-22.03,49.22-49.22,49.22-18.99,0-35.47-10.75-43.67-26.5,8.83,13.18,23.86,21.85,40.92,21.85,27.18,0,49.22-22.04,49.22-49.22,0-8.18-1.99-15.89-5.53-22.68,5.23,7.81,8.28,17.21,8.28,27.33Z"/>
      <g class="cls-8">
        <path class="cls-3" d="m98.48,101.36c-6.75-15.76-21.49-27.28-39.13-29.47v.03c.08,1.85-3.56,3.5-8.11,3.7-4.56.19-8.32-1.15-8.4-2.99v-.02C20.64,77.37,3.99,97.11,3.99,120.73c0,5.2.81,10.22,2.31,14.92-2.53-5.93-3.93-12.45-3.93-19.31,0-27.18,22.04-49.22,49.22-49.22,21.96,0,40.55,14.38,46.89,34.23Z"/>
      </g>
      <path class="cls-18" d="m51.58,167.93c-28.44,0-51.58-23.14-51.58-51.58s23.14-51.58,51.58-51.58,51.58,23.14,51.58,51.58-23.14,51.58-51.58,51.58Zm0-98.44c-25.84,0-46.86,21.02-46.86,46.86s21.02,46.86,46.86,46.86,46.86-21.02,46.86-46.86-21.02-46.86-46.86-46.86Z"/>
      <circle class="cls-11" cx="51.58" cy="116.34" r="37"/>
      <circle class="cls-11" cx="51.58" cy="116.34" r="37"/>
      <path class="cls-20" d="m88.58,116.35c0,20.43-16.57,37-37,37-16.72,0-30.85-11.09-35.43-26.32,5.55,13.42,18.77,22.86,34.19,22.86,20.44,0,37-16.57,37-37,0-3.71-.54-7.3-1.56-10.68,1.8,4.35,2.8,9.13,2.8,14.13Z"/>
      <path class="cls-20" d="m14.59,116.35c0-20.43,16.57-37,37-37,16.72,0,30.85,11.09,35.43,26.32-5.55-13.42-18.77-22.86-34.19-22.86-20.44,0-37,16.57-37,37,0,3.71.54,7.3,1.56,10.68-1.8-4.35-2.8-9.13-2.8-14.13Z"/>
    </g>
    <g>
      <path class="cls-15" d="m183.9,252.55s-1.72,3.65-3.94,6.36"/>
      <path class="cls-18" d="m184.97,253.05c-.84,2.61-1.78,5.02-3.21,7.41-1.72,2.67-5.66.29-4.11-2.47.88-1.1,2.03-1.9,2.95-3.08.79-.92,1.57-1.92,2.27-2.91.78-1.1,2.51-.22,2.11,1.05h0Z"/>
    </g>
    <path class="cls-18" d="m157.66,246.57c-1.23,5.56-.11,12.7,6.12,14.48.94.3,1.46,1.32,1.14,2.25-.32.98-1.44,1.48-2.39,1.07-1.68-.73-3.31-1.77-4.55-3.2-1.27-1.4-2.08-3.14-2.54-4.87-.84-3.45-.51-6.89.51-10.24.15-.47.65-.73,1.11-.58.46.14.71.63.59,1.09h0Z"/>
    <ellipse class="cls-18" cx="144.72" cy="272.16" rx=".91" ry="1.1"/>
    <path class="cls-18" d="m165.15,271.54h2.95c.18,0,.33.15.33.33h0c0,.5-.4.9-.9.9h-1.8c-.5,0-.9-.4-.9-.9h0c0-.18.15-.33.33-.33Z"/>
  </g>
  <path class="cls-13" d="m51.21,124.2l7.79.03c.54,0,.98.6.98,1.34v3.55c-.01.74-.46,1.33-1,1.33l-16.59-.05c-.54,0-.98-.6-.98-1.34v-3.55c.01-.74.46-1.33,1-1.33h.88c.54,0,.99-.59.99-1.33v-3.02c.01-.74-.43-1.34-.97-1.34h-.88c-.54,0-.98-.6-.98-1.34v-1.97c0-.74.45-1.33,1-1.33h1.87s0-.24,0-.24c0-2.6.42-4.81,1.24-6.63.82-1.82,1.99-3.2,3.51-4.16,1.53-.96,3.37-1.43,5.53-1.42,1.24,0,2.38.16,3.41.48.68.21,1.3.48,1.87.81.48.28.71,1.04.52,1.7l-1.05,3.69c-.2.69-.77,1.04-1.28.76-.35-.19-.72-.34-1.1-.45-.71-.21-1.41-.31-2.09-.31-1.46,0-2.59.44-3.4,1.33-.8.89-1.21,2.25-1.21,4.06v.41s5.8.02,5.8.02c.54,0,.98.6.98,1.34v1.97c0,.74-.45,1.33-1,1.33l-4.82-.02c-.54,0-.99.59-.99,1.33v3.02c-.01.74.43,1.34.97,1.34Z"/>
</svg>