<?xml version="1.0" encoding="UTF-8"?>
<svg id="Layer_1" data-name="Layer 1" xmlns="http://www.w3.org/2000/svg" viewBox="0 0 3228.36 3366.57">
  <defs>
    <style>
      .cls-1 {
        fill: #1c7aea;
      }

      .cls-2 {
        fill: #fff;
      }

      .cls-3 {
        fill: #d8d8d8;
      }

      .cls-4 {
        fill: #f9a106;
      }

      .cls-5 {
        fill: #ffd400;
      }

      .cls-6 {
        fill: #ffc255;
      }

      .cls-7 {
        fill: #c4f2ec;
      }

      .cls-8 {
        fill: #220f2d;
      }

      .cls-9 {
        fill: #22a7f0;
      }

      .cls-10 {
        opacity: .5;
      }

      .cls-10, .cls-11, .cls-12 {
        fill: none;
      }

      .cls-13 {
        fill: #371b45;
      }

      .cls-14 {
        fill: #e8e8e8;
      }

      .cls-15 {
        fill: #371944;
      }

      .cls-16 {
        fill: #371a45;
      }

      .cls-17 {
        fill: #24c1d1;
      }

      .cls-18 {
        fill: #ffe252;
      }

      .cls-11 {
        opacity: .7;
      }

      .cls-12 {
        opacity: .15;
      }
    </style>
  </defs>
  <g>
    <ellipse class="cls-5" cx="549.5" cy="1679.83" rx="12.95" ry="12.66"/>
    <ellipse class="cls-5" cx="2589.79" cy="1010.55" rx="12.95" ry="12.66"/>
    <ellipse class="cls-5" cx="2077.41" cy="880.48" rx="12.95" ry="12.66"/>
    <ellipse class="cls-5" cx="3041.45" cy="2404.16" rx="12.95" ry="12.66"/>
    <ellipse class="cls-5" cx="2124.9" cy="3189.76" rx="12.95" ry="12.66"/>
    <ellipse class="cls-5" cx="549.5" cy="880.48" rx="12.95" ry="12.66"/>
    <ellipse class="cls-5" cx="451.08" cy="2290.83" rx="32.81" ry="32.09"/>
    <ellipse class="cls-5" cx="3195.55" cy="1860.41" rx="32.81" ry="32.09"/>
    <ellipse class="cls-5" cx="1462.92" cy="3334.48" rx="32.81" ry="32.09"/>
    <ellipse class="cls-5" cx="1953.28" cy="346.74" rx="32.81" ry="32.09"/>
    <ellipse class="cls-5" cx="148.28" cy="529.09" rx="32.81" ry="32.09"/>
    <path class="cls-5" d="m0,1785.39c0-3.61,7.82-6.82,19.99-8.88,9.09-1.54,15.83-7.12,16.93-13.91,2.65-16.37,8.34-27.7,14.93-27.7s12.28,11.32,14.93,27.7c1.1,6.79,7.84,12.37,16.93,13.91,12.16,2.06,19.99,5.27,19.99,8.88s-8.07,6.92-20.55,8.98c-8.87,1.46-15.7,6.76-17.01,13.35-2.86,14.41-8.19,24.09-14.28,24.09s-11.42-9.69-14.28-24.09c-1.31-6.59-8.15-11.89-17.01-13.35-12.48-2.06-20.55-5.31-20.55-8.98Z"/>
    <path class="cls-5" d="m1627.56,1156.89c0-3.61,7.82-6.82,19.99-8.88,9.09-1.54,15.83-7.12,16.93-13.91,2.65-16.37,8.34-27.7,14.93-27.7s12.28,11.32,14.93,27.7c1.1,6.79,7.84,12.37,16.93,13.91,12.16,2.06,19.99,5.27,19.99,8.88s-8.07,6.92-20.55,8.98c-8.87,1.46-15.7,6.76-17.01,13.35-2.86,14.41-8.19,24.09-14.28,24.09s-11.42-9.69-14.28-24.09c-1.31-6.59-8.15-11.89-17.01-13.35-12.48-2.06-20.55-5.31-20.55-8.98Z"/>
    <path class="cls-5" d="m2573.92,265.06c0-3.61,7.82-6.82,19.99-8.88,9.09-1.54,15.83-7.12,16.93-13.91,2.65-16.37,8.34-27.7,14.93-27.7s12.28,11.32,14.93,27.7c1.1,6.79,7.84,12.37,16.93,13.91,12.16,2.06,19.99,5.27,19.99,8.88s-8.07,6.92-20.55,8.98c-8.87,1.46-15.7,6.76-17.01,13.35-2.86,14.41-8.19,24.09-14.28,24.09s-11.42-9.69-14.28-24.09c-1.31-6.59-8.15-11.89-17.01-13.35-12.48-2.06-20.55-5.31-20.55-8.98Z"/>
    <path class="cls-5" d="m2573.92,2076.9c0-3.61,7.82-6.82,19.99-8.88,9.09-1.54,15.83-7.12,16.93-13.91,2.65-16.37,8.34-27.7,14.93-27.7s12.28,11.32,14.93,27.7c1.1,6.79,7.84,12.37,16.93,13.91,12.16,2.06,19.99,5.27,19.99,8.88s-8.07,6.92-20.55,8.98c-8.87,1.46-15.7,6.76-17.01,13.35-2.86,14.41-8.19,24.09-14.28,24.09s-11.42-9.69-14.28-24.09c-1.31-6.59-8.15-11.89-17.01-13.35-12.48-2.06-20.55-5.31-20.55-8.98Z"/>
    <path class="cls-5" d="m298.92,3240.25c0-3.61,7.82-6.82,19.99-8.88,9.09-1.54,15.83-7.12,16.93-13.91,2.65-16.37,8.34-27.7,14.93-27.7s12.28,11.32,14.93,27.7c1.1,6.79,7.84,12.37,16.93,13.91,12.16,2.06,19.99,5.27,19.99,8.88s-8.07,6.92-20.55,8.98c-8.87,1.46-15.7,6.76-17.01,13.35-2.86,14.41-8.19,24.09-14.28,24.09s-11.42-9.69-14.28-24.09c-1.31-6.59-8.15-11.89-17.01-13.35-12.48-2.06-20.55-5.31-20.55-8.98Z"/>
    <path class="cls-5" d="m3033.75,755.36c0-3.61,7.82-6.82,19.99-8.88,9.09-1.54,15.83-7.12,16.93-13.91,2.65-16.37,8.34-27.7,14.93-27.7s12.28,11.32,14.93,27.7c1.1,6.79,7.84,12.37,16.93,13.91,12.16,2.06,19.99,5.27,19.99,8.88s-8.07,6.92-20.55,8.98c-8.87,1.46-15.7,6.76-17.01,13.35-2.86,14.41-8.19,24.09-14.28,24.09s-11.42-9.69-14.28-24.09c-1.31-6.59-8.15-11.89-17.01-13.35-12.48-2.06-20.55-5.31-20.55-8.98Z"/>
    <path class="cls-5" d="m458.75,259.82c0-3.61,7.82-6.82,19.99-8.88,9.09-1.54,15.83-7.12,16.93-13.91,2.65-16.37,8.34-27.7,14.93-27.7s12.28,11.32,14.93,27.7c1.1,6.79,7.84,12.37,16.93,13.91,12.16,2.06,19.99,5.27,19.99,8.88s-8.07,6.92-20.55,8.98c-8.87,1.46-15.7,6.76-17.01,13.35-2.86,14.41-8.19,24.09-14.28,24.09s-11.42-9.69-14.28-24.09c-1.31-6.59-8.15-11.89-17.01-13.35-12.48-2.06-20.55-5.31-20.55-8.98Z"/>
    <path class="cls-5" d="m2587.86,3272.34c0-3.61,7.82-6.82,19.99-8.88,9.09-1.54,15.83-7.12,16.93-13.91,2.65-16.37,8.34-27.7,14.93-27.7s12.28,11.32,14.93,27.7c1.1,6.79,7.84,12.37,16.93,13.91,12.16,2.06,19.99,5.27,19.99,8.88s-8.07,6.92-20.55,8.98c-8.87,1.46-15.7,6.76-17.01,13.35-2.86,14.41-8.19,24.09-14.28,24.09s-11.42-9.69-14.28-24.09c-1.31-6.59-8.15-11.89-17.01-13.35-12.48-2.06-20.55-5.31-20.55-8.98Z"/>
    <path class="cls-5" d="m148.28,1145.23c0-2.64,5.72-4.99,14.61-6.49,6.64-1.13,11.57-5.2,12.38-10.17,1.94-11.97,6.1-20.25,10.91-20.25s8.98,8.28,10.91,20.25c.8,4.97,5.73,9.05,12.38,10.17,8.89,1.51,14.61,3.85,14.61,6.49s-5.9,5.06-15.02,6.56c-6.48,1.07-11.48,4.94-12.44,9.76-2.09,10.53-5.98,17.61-10.44,17.61s-8.35-7.08-10.44-17.61c-.96-4.82-5.96-8.7-12.44-9.76-9.13-1.5-15.02-3.88-15.02-6.56Z"/>
    <path class="cls-5" d="m1234.26,36.91c0-2.64,5.72-4.99,14.61-6.49,6.64-1.13,11.57-5.2,12.38-10.17,1.94-11.97,6.1-20.25,10.91-20.25s8.98,8.28,10.91,20.25c.8,4.97,5.73,9.05,12.38,10.17,8.89,1.51,14.61,3.85,14.61,6.49s-5.9,5.06-15.02,6.56c-6.48,1.07-11.48,4.94-12.44,9.76-2.09,10.53-5.98,17.61-10.44,17.61s-8.35-7.08-10.44-17.61c-.96-4.82-5.96-8.7-12.44-9.76-9.13-1.5-15.02-3.88-15.02-6.56Z"/>
    <path class="cls-5" d="m3119.75,1322.74c0-2.64,5.72-4.99,14.61-6.49,6.64-1.13,11.57-5.2,12.38-10.17,1.94-11.97,6.09-20.25,10.91-20.25s8.98,8.28,10.91,20.25c.8,4.97,5.73,9.05,12.38,10.17,8.89,1.51,14.61,3.85,14.61,6.49s-5.9,5.06-15.02,6.56c-6.48,1.07-11.48,4.94-12.44,9.76-2.09,10.53-5.98,17.61-10.44,17.61s-8.35-7.08-10.44-17.61c-.96-4.82-5.96-8.7-12.44-9.76-9.13-1.5-15.02-3.88-15.02-6.56Z"/>
    <path class="cls-5" d="m13.94,2590.65c0-2.64,5.72-4.99,14.61-6.49,6.64-1.13,11.57-5.2,12.38-10.17,1.94-11.97,6.1-20.25,10.91-20.25s8.98,8.28,10.91,20.25c.8,4.97,5.73,9.05,12.38,10.17,8.89,1.51,14.61,3.85,14.61,6.49s-5.9,5.06-15.02,6.56c-6.48,1.07-11.48,4.94-12.44,9.76-2.09,10.53-5.98,17.61-10.44,17.61s-8.35-7.08-10.44-17.61c-.96-4.82-5.96-8.7-12.44-9.76-9.13-1.5-15.02-3.88-15.02-6.56Z"/>
    <path class="cls-5" d="m3137.44,2880.24c0-2.64,5.72-4.99,14.61-6.49,6.64-1.13,11.57-5.2,12.38-10.17,1.94-11.97,6.1-20.25,10.91-20.25s8.98,8.28,10.91,20.25c.8,4.97,5.73,9.05,12.38,10.17,8.89,1.51,14.61,3.85,14.61,6.49s-5.9,5.06-15.02,6.56c-6.48,1.07-11.48,4.94-12.44,9.76-2.09,10.53-5.98,17.61-10.44,17.61s-8.35-7.08-10.44-17.61c-.96-4.82-5.96-8.7-12.44-9.76-9.13-1.5-15.02-3.88-15.02-6.56Z"/>
    <path class="cls-5" d="m1249.2,2908.41c0-2.64,5.72-4.99,14.61-6.49,6.64-1.13,11.57-5.2,12.38-10.17,1.94-11.97,6.1-20.25,10.91-20.25s8.98,8.28,10.91,20.25c.8,4.97,5.73,9.05,12.38,10.17,8.89,1.51,14.61,3.85,14.61,6.49s-5.9,5.06-15.02,6.56c-6.48,1.07-11.48,4.94-12.44,9.76-2.09,10.53-5.98,17.61-10.44,17.61s-8.35-7.08-10.44-17.61c-.96-4.82-5.96-8.7-12.44-9.76-9.13-1.5-15.02-3.88-15.02-6.56Z"/>
  </g>
  <g>
    <path class="cls-2" d="m766.86,2475.95s-243.56-.06-263.12,229.66c-14.11,165.75,132.01,220.23,132.01,220.23,0,0-34.52,159.93,107.04,239.49,121,68,258.01,14.17,258.01,14.17,0,0,47.57,91.2,203.74,106.9,122.86,12.36,198.6-57.85,198.6-57.85,0,0,87.47,102.12,240.84,93.42,165.32-9.38,224.48-120.41,224.48-120.41,0,0,100.66,68.33,241.01,42.55,137.89-25.33,175.47-103.61,175.47-103.61,0,0,129.45,31,241.66-48.2,78.61-55.49,83.55-153.61,83.55-153.61,0,0,143.64-80.42,110.43-283.65-36.11-220.9-273.68-193.24-273.68-193.24,0,0-48.2-172.88-228.16-179.31-179.96-6.42-271.87,128.54-271.87,128.54,0,0-28.74-95.59-119.54-106.05-70.7-8.14-115.69,19.28-115.69,19.28,0,0-58.49-59.13-152.96-50.77-77.48,6.85-126.61,47.56-126.61,47.56,0,0-65.48-42.41-136.25-42.41-98.98,0-164.53,81.62-162.61,81.62s-82.66-62.46-198.59-36.64c-135.61,30.21-167.75,152.33-167.75,152.33"/>
    <path class="cls-2" d="m766.86,2475.95s-243.56-.06-263.12,229.66c-14.11,165.75,132.01,220.23,132.01,220.23,0,0-34.52,159.93,107.04,239.49,121,68,258.01,14.17,258.01,14.17,0,0,47.57,91.2,203.74,106.9,122.86,12.36,198.6-57.85,198.6-57.85,0,0,87.47,102.12,240.84,93.42,165.32-9.38,224.48-120.41,224.48-120.41,0,0,100.66,68.33,241.01,42.55,137.89-25.33,175.47-103.61,175.47-103.61,0,0,129.45,31,241.66-48.2,78.61-55.49,83.55-153.61,83.55-153.61,0,0,143.64-80.42,110.43-283.65-36.11-220.9-273.68-193.24-273.68-193.24,0,0-48.2-172.88-228.16-179.31-179.96-6.42-271.87,128.54-271.87,128.54,0,0-28.74-95.59-119.54-106.05-70.7-8.14-115.69,19.28-115.69,19.28,0,0-58.49-59.13-152.96-50.77-77.48,6.85-126.61,47.56-126.61,47.56,0,0-65.48-42.41-136.25-42.41-98.98,0-164.53,81.62-162.61,81.62s-82.66-62.46-198.59-36.64c-135.61,30.21-167.75,152.33-167.75,152.33"/>
    <path class="cls-7" d="m2610.16,2938.71s-4.94,98.11-83.56,153.6c-112.22,79.21-241.66,48.19-241.66,48.19,0,0-37.6,78.3-175.49,103.61-140.33,25.79-240.99-42.53-240.99-42.53,0,0-59.16,111.02-224.48,120.39-153.36,8.69-240.82-93.41-240.82-93.41,0,0-75.74,70.21-198.61,57.84-156.15-15.7-203.76-106.92-203.76-106.92,0,0-137.01,53.86-258.01-14.15-141.56-79.57-107.04-239.51-107.04-239.51,0,0-146.11-54.45-131.99-220.22,1.07-12.72,2.87-24.76,5.22-36.08,29.62,114.37,158.3,155.28,158.3,155.28,0,0,5.62,139.13,116.33,213.39,146.78,98.55,317.49,55.82,317.49,55.82,0,0-13.63,70.9,103.45,89.38,102.45,16.17,144.11-46.64,144.11-46.64,0,0,135.42,102.65,284.28,64.82,142.84-36.32,75.07-246.85,75.07-246.85,0,0,190.92,99.86,241.98,55.65,40.67-35.12,94.4-70.44,156.2-83.8,33.28,45.53-60.04,179.8,23.91,202.64,41.74,11.36,63.31-41.3,63.31-41.3,0,0,231.22,26.31,332.08-82.52,65.38-70.6,68.93-191.35,68.93-191.35,0,0,104.2-31.25,126.09-159.46.04.16.04.32.08.48,33.21,203.23-110.43,283.64-110.43,283.64"/>
    <path class="cls-17" d="m1625.26,3339.01c6.44,0,12.98-.18,19.65-.56,137.83-7.82,205.71-82.38,228.79-114.59,33.75,18.4,122.99,57.76,238.75,36.49,114.46-21.02,164.1-77.27,180.62-101.47,35.87,5.89,144.9,16.17,243.03-53.09,71.07-50.17,86.5-131,89.71-157.6,30.57-21.11,141.17-111.47,111.04-295.8-33.08-202.32-225.76-209.66-278.51-207.82-16.07-41.95-78.93-172.85-239.03-178.57-142.89-4.99-232,73.35-267.99,113.33-16.56-32.26-53.12-82.78-122.12-90.73-55.4-6.38-96.35,7.56-115.01,15.93-21.04-17.15-76.9-54.55-156.98-47.46-62.38,5.51-107.37,31.48-126.1,44.24-21.79-12.26-76.31-39.16-135.31-39.16-55.06,0-99.69,23.36-127.43,42.96-.35.24-23.42,16.77-38.62,33.09-31.97-19.03-106.9-51.13-198.74-30.66-119.82,26.69-164.05,119.23-176.27,152.43-21.7,1.46-69.39,7.21-118.92,29.65-61.81,28.01-137.74,87.97-148.53,214.61-12.48,146.56,93.43,212.94,130.32,231.46-4.85,42.05-8.75,173.32,117.09,244.04,105.84,59.47,221.11,31.58,259.26,19.58,19.58,27.07,78.65,90.42,208.92,103.53,100.84,10.14,171.42-31.85,198.86-52.01,27.54,26.35,104.84,88.18,223.51,88.19Zm243.2-153.94c-1.33,0-2.67.16-3.98.49-4.53,1.13-8.39,4.12-10.59,8.25-2.25,4.15-57.53,102.99-210.84,111.68-142.85,8.07-226.57-86.74-227.4-87.7-2.92-3.39-7.11-5.45-11.59-5.7-4.47-.24-8.86,1.32-12.14,4.36-.68.62-72.28,64.92-185.73,53.53-144.37-14.52-188.97-94.79-190.8-98.2-3.95-7.37-12.84-10.71-20.62-7.65-1.28.5-131.43,50.01-243.89-13.2-128.93-72.46-100.28-215.59-98.99-221.64,1.69-8-2.71-16.06-10.37-18.92-5.45-2.06-134.17-52.55-121.33-203.36,18.01-211.6,237.36-214.54,246.68-214.56,7.47-.02,14.01-5.05,15.93-12.26h0c1.24-4.6,31.7-112.91,155.39-140.46,102.29-22.79,176.14,27.03,183.25,32.1.02.02.04.04.07.07,3.1,3.1,7.31,4.86,11.69,4.86,6.18,0,11.85-3.46,14.68-8.92,6.09-7.37,63.1-72.71,147.92-72.71,64.85,0,126.68,39.37,127.3,39.77,6.04,3.89,13.95,3.44,19.48-1.15.42-.35,46.55-37.55,117.53-43.82,85.21-7.52,139.29,45.43,139.82,45.97,5.39,5.37,13.78,6.41,20.28,2.45.34-.2,41.6-24.31,105.21-16.97,78.63,9.05,104.58,90.96,105.64,94.44,1.86,6.07,7.04,10.56,13.31,11.51,6.32.91,12.55-1.76,16.12-7.01.85-1.25,89.26-127.53,257.63-121.34,165.36,5.9,211,160.69,212.86,167.28,2.2,7.8,9.75,12.89,17.8,11.93,9.05-1.03,222.4-22.94,255.48,179.51,30.84,188.69-96.8,263.52-102.25,266.62-4.91,2.78-8.1,7.91-8.38,13.54-.04.87-5.75,90.96-76.58,140.96-104.47,73.73-227.1,45.91-228.32,45.62-7.56-1.8-15.34,1.92-18.7,8.91-1.39,2.8-36.77,71.23-163.57,94.53-131.55,24.16-227.83-39.35-228.78-40-2.75-1.86-5.98-2.82-9.24-2.82Zm-750.56-830.34c-.52,1.26-.88,2.47-1.08,3.62.15-1.2.43-2.43.88-3.7l.2.07Z"/>
    <path class="cls-17" d="m1440.86,2546.69c1.72-2.37,3.02-3.94,4.55-5.8,1.47-1.79,2.97-3.52,4.48-5.22,3-3.42,6.14-6.67,9.29-9.89,6.37-6.37,13.06-12.38,20.07-17.99,14-11.22,29.38-20.86,45.99-27.9,8.26-3.57,16.85-6.43,25.62-8.43,8.75-2.05,17.68-3.37,26.61-3.61,17.87-.87,35.57,2.47,51.95,8.12,2.16.75,3.3,3.1,2.56,5.26-.69,1.99-2.75,3.12-4.76,2.69l-.1-.02c-16.07-3.41-32.5-4.41-48.27-1.67-7.89,1.18-15.59,3.32-23.02,6.06-7.44,2.68-14.61,6.09-21.44,10.1-13.71,7.91-26.13,17.99-37.21,29.36-5.55,5.68-10.76,11.68-15.63,17.91-2.4,3.14-4.77,6.29-6.97,9.52l-3.21,4.84c-.98,1.53-2.14,3.4-2.74,4.55-4.24,8.11-14.25,11.24-22.35,7-8.11-4.24-11.24-14.25-7.01-22.36.36-.68.76-1.34,1.2-1.95l.41-.57Z"/>
    <path class="cls-17" d="m1223.4,2564.56c-.6-1.16-1.77-3.02-2.74-4.55l-3.21-4.84c-2.2-3.23-4.58-6.38-6.97-9.52-4.86-6.23-10.08-12.23-15.63-17.91-11.07-11.37-23.5-21.45-37.2-29.36-6.83-4.01-14-7.42-21.45-10.1-7.42-2.74-15.13-4.88-23.02-6.06-15.76-2.74-32.19-1.74-48.27,1.67l-.1.02c-2.23.47-4.43-.95-4.9-3.18-.43-2.06.75-4.1,2.69-4.77,16.39-5.65,34.08-8.99,51.96-8.12,8.94.24,17.86,1.56,26.61,3.61,8.77,2,17.36,4.86,25.62,8.43,16.61,7.03,31.98,16.68,45.99,27.9,7.01,5.61,13.7,11.62,20.07,17.99,3.16,3.21,6.29,6.47,9.3,9.89,1.51,1.71,3,3.43,4.48,5.22,1.52,1.86,2.83,3.43,4.55,5.8l.35.49c5.36,7.41,3.69,17.77-3.73,23.13-7.41,5.36-17.77,3.69-23.13-3.72-.46-.63-.9-1.36-1.25-2.03"/>
    <path class="cls-17" d="m2109.24,2519.98c1.71-2.37,3.02-3.94,4.55-5.81,1.47-1.79,2.96-3.52,4.47-5.22,3-3.42,6.14-6.67,9.29-9.89,6.37-6.37,13.06-12.38,20.08-17.99,14-11.22,29.38-20.86,45.98-27.9,8.26-3.57,16.85-6.43,25.63-8.43,8.75-2.05,17.67-3.37,26.61-3.61,17.87-.87,35.57,2.47,51.96,8.12,2.16.75,3.3,3.09,2.55,5.25-.69,1.99-2.75,3.12-4.76,2.69l-.11-.02c-16.07-3.41-32.5-4.41-48.27-1.67-7.89,1.18-15.59,3.32-23.02,6.05-7.45,2.69-14.62,6.09-21.45,10.1-13.71,7.9-26.13,17.99-37.21,29.36-5.54,5.67-10.76,11.68-15.63,17.91-2.4,3.14-4.77,6.3-6.97,9.53l-3.21,4.84c-.98,1.54-2.14,3.4-2.74,4.55-4.25,8.11-14.26,11.24-22.36,7-8.11-4.24-11.24-14.25-7.01-22.35.36-.69.76-1.34,1.2-1.95l.41-.56Z"/>
    <path class="cls-17" d="m1891.77,2537.85c-.6-1.16-1.77-3.01-2.74-4.55l-3.21-4.84c-2.2-3.23-4.58-6.39-6.98-9.53-4.86-6.23-10.08-12.23-15.63-17.91-11.08-11.37-23.5-21.45-37.21-29.36-6.83-4.01-14-7.42-21.45-10.1-7.43-2.74-15.13-4.87-23.02-6.05-15.76-2.74-32.19-1.74-48.26,1.67l-.11.02c-2.23.47-4.43-.95-4.9-3.18-.44-2.06.75-4.1,2.69-4.77,16.38-5.66,34.08-8.99,51.95-8.12,8.94.24,17.87,1.56,26.61,3.61,8.77,2,17.36,4.86,25.62,8.43,16.61,7.03,31.99,16.68,45.99,27.9,7.01,5.62,13.7,11.62,20.07,17.99,3.16,3.22,6.29,6.47,9.3,9.89,1.51,1.7,3,3.43,4.48,5.22,1.52,1.86,2.83,3.43,4.55,5.81l.35.48c5.36,7.42,3.69,17.77-3.73,23.13-7.41,5.36-17.77,3.69-23.13-3.73-.46-.63-.9-1.36-1.25-2.03"/>
    <path class="cls-2" d="m1502.25,1195.04l6.24,86.59,3.19,44.1,54.89,760.54s-52.07.8-121.98-3.74c-13.67-.89-28.04-1.97-42.82-3.32-110.17-9.91-243.91-33.72-294.69-90.35-75.92-84.68-88.58-498.16-20.79-662.1,31.04-75.16,188.84-107.89,300.89-121.83,12.52-1.58,24.49-2.9,35.62-4.01,46.96-4.75,79.45-5.89,79.45-5.89"/>
    <g class="cls-12">
      <path class="cls-13" d="m1508.49,1281.62l3.19,44.1,43.59,603.88,11.31,156.66s-1.09.02-3.16.03c-.58,0-1.28,0-2.03,0-.58,0-1.25,0-1.91,0-.5.02-1.02,0-1.52.03-.2-.02-.43.01-.62,0-.94,0-1.99,0-3.08-.02-.23.03-.47.02-.74.01-.9,0-1.83-.01-2.85,0-1.36,0-2.77-.02-4.26-.04-1.05-.02-2.18,0-3.31-.02-1.18-.02-2.34-.03-3.56-.04-1.52-.01-3.12-.05-4.76-.05-3.32-.07-6.84-.11-10.55-.21-3.28-.03-6.72-.12-10.32-.24-4.14-.12-8.48-.23-12.99-.39-16.64-.57-35.69-1.44-56.32-2.78-4.01-.26-8.1-.55-12.23-.83-2.88-.2-5.82-.43-8.78-.66-7.13-.55-14.44-1.15-21.82-1.82-110.2-9.91-243.91-33.73-294.66-90.36-62.54-69.72-82.2-362.38-49.3-555.12-5.67,167.59,17.07,346.7,64.21,399.25,23.3,25.98,112.91-69.19,110.19-122.82-7.03-138.33,11.24-316.95,136.46-425.67,3.25-2.82,77.99,5.03,139.81-2.87"/>
    </g>
    <path class="cls-16" d="m1554.32,2102.85c6.79,0,11.11-.05,12.52-.07l17.47-.27-66.74-924.51-15.89.55c-3.79.13-94.05,3.44-191.97,21.5-135.71,25.04-216.02,65.54-238.69,120.38-70.79,171.23-56.12,590.33,23.78,679.45,87.42,97.51,392.6,102.96,459.52,102.96Zm-67.38-890.61l61.91,857.54c-73.16-.5-354.22-7.98-429.47-91.92-70.96-79.14-82.31-488.93-17.86-644.81,35.18-85.1,276.54-115.09,385.42-120.81Z"/>
    <path class="cls-2" d="m1072.4,1676.9l149.76,7.32c13.37.66,24.62,10.22,27.35,23.32,9.98,47.99,27.29,160.02-18.64,198.37-38.12,31.83-101.42,29.86-139.28-.52-42.34-33.98-49.28-144.13-50.03-198.72-.24-16.97,13.89-30.6,30.85-29.77"/>
    <g class="cls-12">
      <path class="cls-13" d="m1249.49,1707.55c10.01,47.97,27.29,160.02-18.65,198.35-38.12,31.84-101.41,29.87-139.28-.52-26.03-20.92-38.67-70.63-44.72-118.49,7.36,23.8,18.44,42.99,31.92,55.43,77.25,71.22,131.23-16.55,131.23-16.55,0,0,10.31,20.7,18.12,21.69,32.65,4.11,23.27-97.53,17.19-150.01,1.99,2.98,3.45,6.38,4.2,10.1"/>
    </g>
    <path class="cls-16" d="m1162.35,1945.53c28.92,0,57.56-8.98,79.09-26.95,51.02-42.59,37.08-152.61,24.22-214.4-4.25-20.44-21.81-35.43-42.7-36.45l-149.76-7.31c-12.56-.58-25.05,4.05-34.14,12.83-9.08,8.76-14.18,21.03-14.01,33.66,1.06,76.7,11.68,175.64,56.21,211.36,22.64,18.17,52,27.26,81.09,27.27Zm-91.42-252.16c.22,0,.44,0,.66.01l149.76,7.31c5.87.29,10.81,4.48,12,10.2,19.02,91.46,14.14,159.63-13.06,182.34-31.21,26.06-85.42,25.73-118.37-.72-26.14-20.97-42.54-90.53-43.86-186.08-.05-3.6,1.35-6.96,3.93-9.45,2.43-2.35,5.59-3.62,8.95-3.62Zm1.46-16.47h-.05.05Z"/>
    <path class="cls-16" d="m1150.43,1916c-.07.07.25-.09.58-.28.31-.17.61-.31.97-.54.7-.45,1.4-.8,2.12-1.32,1.44-.96,2.89-1.96,4.31-3.11,2.86-2.2,5.64-4.69,8.26-7.37,5.19-5.39,10.13-11.33,14.12-18,8.32-13.12,14.18-28.22,17.68-44.08.84-3.97,1.48-8.01,2.24-12.03.84-4.01.97-8.15,1.49-12.23,1.03-8.14,1.2-16.74,1.51-25.09.21-8.41.12-16.81-.38-25.14-.28-4.16-.62-8.33-1.16-12.42-.52-4-1.27-8.37-2.22-11.71l-.12-.44c-.66-2.31.68-4.72,2.99-5.37,2.16-.61,4.41.54,5.23,2.57,1.89,4.72,2.9,8.76,3.96,13.15,1.02,4.31,1.8,8.63,2.53,12.96,1.4,8.66,2.35,17.35,3,26.03.55,8.74,1.24,17.26,1.04,26.2-.12,4.44.17,8.89-.29,13.34-.38,4.45-.65,8.92-1.14,13.39-2.13,17.86-6.96,35.79-15.33,52.54-4.01,8.46-9.27,16.41-15.22,23.94-3,3.76-6.27,7.35-9.86,10.76-1.75,1.72-3.66,3.38-5.62,4.99-.96.82-2.07,1.6-3.11,2.4-.5.39-1.12.8-1.72,1.21-.57.38-1.16.8-2.17,1.37-7.1,3.78-15.93,1.08-19.71-6.02-3.78-7.1-1.08-15.93,6.02-19.7"/>
    <path class="cls-16" d="m1311.25,1317.81c-18.13-.71-36.49-.95-54.72-.93-18.25.04-36.49.38-54.65,1.24-18.14.85-36.26,2.01-54.07,4.11-17.77,2.09-35.49,4.77-51.88,9.2l-.11.03c-8.81,2.38-17.88-2.82-20.26-11.63-2.38-8.8,2.82-17.88,11.62-20.26.38-.1.8-.2,1.19-.28,19.46-3.76,38.38-5.13,57.22-5.99,18.82-.85,37.48-.67,56.08-.2,18.6.47,37.12,1.47,55.59,2.78,18.5,1.32,36.85,2.89,55.37,4.97,4.67.52,8.03,4.73,7.51,9.4-.5,4.46-4.35,7.72-8.76,7.56h-.13Z"/>
    <path class="cls-2" d="m1399.4,1513.96s-181.74,220.2-353.2,234.99c-215.9,0-260.82-256.12-244.41-386.53,9.8-77.88,233.47-121.43,233.47-121.43l51.19,160.62s209.77-160.56,312.95-178.64"/>
    <path class="cls-14" d="m1337.02,1580.37c-67.89,66.14-181.43,159.14-290.81,168.59-126.7,0-194.5-88.18-225.6-187.41,21.97,36.04,100.78,139.77,258.93,92.65,181.62-54.14,192.63-237.32,192.63-237.32l64.86,163.49Z"/>
    <g class="cls-12">
      <path class="cls-13" d="m1399.41,1222.98v199.89c-75.35-27.15-135.9-68.57-172.38-118.32,60.03-37.6,126.69-73.55,172.38-81.57"/>
    </g>
    <path class="cls-3" d="m1989.18,1304.91c-30.1,40.9-76.5,76.14-133.99,102.41l-2.75-9.65-47.28-167.2c33.81,2.91,104.13,33.77,184.02,74.43"/>
    <path class="cls-3" d="m1913.71,1374.95c-76.46,50.95-185.06,82.76-305.48,82.76-137.54,0-259.65-41.5-336.07-105.64,46.72-105.24,153.2-283.64,336.07-275.63,226.95,9.89,292.77,241.86,305.48,298.51"/>
    <path class="cls-16" d="m1046.2,1765.46c.47,0,.95-.02,1.42-.06,176.34-15.21,356.91-231.71,364.51-240.93,5.8-7.03,4.8-17.43-2.22-23.23-7.03-5.8-17.44-4.8-23.23,2.22-1.77,2.14-178.88,214.41-341.19,228.99-61.19-.17-111.82-22.5-150.5-66.35-69.01-78.24-88.19-211.19-76.81-301.61,5.7-45.32,123.73-86.39,205.88-104.32l46.67,146.46c1.63,5.12,5.65,9.12,10.78,10.73,5.12,1.62,10.71.63,14.98-2.64,2.07-1.58,207.74-158.31,305.77-175.49,8.97-1.57,14.98-10.13,13.4-19.11-1.57-8.98-10.11-15-19.11-13.4-88.64,15.54-246.97,127.68-301.42,167.79l-44.15-138.53c-2.54-7.98-10.65-12.79-18.88-11.19-24.09,4.69-235.71,48.36-246.69,135.57-12.27,97.54,9.03,241.65,84.81,327.57,45.38,51.44,104.58,77.52,175.97,77.52Z"/>
    <path class="cls-16" d="m1046.2,1761.34c1.08,0,2.19-.15,3.29-.45,33.15-9.12,57.74-29.22,73.09-59.76,52.22-103.96-21.42-295.88-24.58-304-2.48-6.37-9.65-9.53-16.02-7.04-6.37,2.48-9.53,9.65-7.05,16.02.74,1.89,72.83,189.81,25.52,283.93-12.23,24.33-31.04,39.7-57.51,46.98-6.59,1.81-10.47,8.63-8.65,15.21,1.51,5.49,6.49,9.1,11.93,9.1Z"/>
    <path class="cls-14" d="m2568.88,1611.68s24.06,88.46-19.75,106.09c-44.22,17.78-66.37-33.71-66.37-33.71l-98.96,7.88-21.62-73.64,157.02-45.89"/>
    <path class="cls-16" d="m2530.77,1738.12c7.6,0,15.78-1.52,24.52-5.03,55.82-22.45,32.38-115.23,29.52-125.73-2.39-8.8-11.46-13.98-20.25-11.59-8.79,2.39-13.98,11.45-11.6,20.24h0c6.55,24.27,12.72,77.33-9.98,86.46-28.09,11.32-43.42-21.24-45.08-24.99-2.84-6.42-9.5-10.4-16.44-9.86l-85.6,6.82-13.19-44.92,141.16-41.25c8.75-2.55,13.77-11.72,11.21-20.47s-11.74-13.78-20.47-11.21l-157.02,45.89c-4.2,1.23-7.75,4.08-9.85,7.92-2.1,3.85-2.59,8.37-1.35,12.57l21.63,73.64c2.2,7.5,9.46,12.46,17.14,11.8l88.14-7.02c10.62,17.29,30.33,36.74,57.52,36.74Z"/>
    <path class="cls-2" d="m1805.17,1230.48c105.34,8.96,565.02,290,565.02,290,0,0,43.28-9.71,105.9-2.11,75,9.11,166.51,63.12,145.32,108.38-16.58,35.41-87.96,5.62-122.75-.75-24.74.18-101.51,64.57-113.92,64.69-69.01.69-80.4,34.26-163.72,13.7-213.07-52.58-349.51-239.31-349.51-239.31"/>
    <path class="cls-2" d="m1805.17,1230.48c105.34,8.96,565.02,290,565.02,290,0,0,43.28-9.71,105.9-2.11,75,9.11,166.51,63.12,145.32,108.38-16.58,35.41-87.96,5.62-122.75-.75-24.74.18-101.51,64.57-113.92,64.69-69.01.69-80.4,34.26-163.72,13.7-213.07-52.58-349.51-239.31-349.51-239.31l-66.34-234.6Z"/>
    <path class="cls-2" d="m1871.51,1465.08s136.42,186.72,349.51,239.3c27.94,6.88,47.79,7.72,64.45,5.7,33-3.95,53.41-18.94,99.25-19.39,3.58-.05,12.44-5.38,23.9-12.99,28.35-18.84,72.41-51.57,90.02-51.72,34.79,6.4,106.17,36.18,122.76.78,2.06-4.42,3.05-8.92,3.09-13.45.41-41.94-80.74-86.71-148.42-94.93-62.62-7.61-105.9,2.1-105.9,2.1,0,0-459.66-281.05-565.01-290.01l47.27,167.19,19.07,67.42Z"/>
    <g class="cls-12">
      <path class="cls-13" d="m1989.18,1304.91c-30.1,40.9-76.5,76.14-133.99,102.41l-2.75-9.65-47.28-167.2c33.81,2.91,104.13,33.77,184.02,74.43"/>
    </g>
    <path class="cls-14" d="m2363.22,1648.74c17.82,10.33,33.03,20.09,45.4,28.97,28.35-18.84,72.41-51.57,90.02-51.72,34.79,6.4,106.18,36.18,122.76.78,2.06-4.42,3.05-8.92,3.09-13.45-13.7,4.51-29.25,6.26-46.2,2.74-63.48-13.19-78.41-29.76-101.95-17.38-17.09,8.99-62.39,35.36-113.12,50.06"/>
    <g class="cls-12">
      <path class="cls-13" d="m1871.51,1465.08s136.42,186.72,349.51,239.3c27.94,6.88,47.79,7.72,64.45,5.7-115.75-44.39-267.4-147.91-369.66-321.53-23.65,2.09-44.68,5.19-63.37,9.1l19.07,67.42Z"/>
    </g>
    <path class="cls-14" d="m2090.3,1652.59c53.34,29.66,130.28,63.63,155.94,72.11,25.66,8.47,143.32,55.36,192.29,26.25,14.29-8.51,20.47-31.67,9.56-49.61-15.05-24.76-49.11-32.43-82.69-53.24-.72.22-1.45.41-2.17.63,59.34,34.39,89.86,62.65,82.94,71.85-24.85,32.98-147.32,13.15-278.88-70.9l-76.98,2.91Z"/>
    <path class="cls-16" d="m2269.39,1727.52c23.33,0,40.25-5.07,56.83-10.04,17.24-5.16,33.51-10.03,58.68-10.29,9.66-.1,20.24-7.01,49.42-26.98,17.05-11.67,51.94-35.55,63.42-37.59,6.45,1.31,14.49,3.45,22.94,5.7,40.84,10.88,96.76,25.8,115.67-14.59,7.15-15.26,6.09-32.05-3.05-48.55-23.94-43.19-97.72-76.23-155.23-83.21-50.97-6.19-89.64-1.41-104.7,1.11-54.65-33.24-463.91-280.3-566.81-289.06-9.04-.75-17.07,5.97-17.84,15.05-.77,9.08,5.97,17.07,15.05,17.84,83.22,7.08,430.87,210.03,557.81,287.63l5.7,3.49,6.52-1.46c.39-.08,41.63-8.95,100.29-1.83,53.41,6.49,114.32,37.54,130.34,66.45,5.21,9.39,3.65,15.09,2.03,18.55-7.2,15.37-51.05,3.68-77.28-3.31-10.03-2.68-19.52-5.2-27.56-6.67l-1.53-.28h-1.56c-18.17.14-44.61,17.31-82.86,43.5-11.66,7.97-27.38,18.74-33,21.24-28.8.53-48.5,6.43-65.92,11.65-25.72,7.71-46.04,13.78-91.78,2.5-204.87-50.56-338.81-231.21-340.14-233.02-5.38-7.36-15.71-8.97-23.06-3.59-7.36,5.38-8.96,15.7-3.59,23.06,5.72,7.82,142.47,192.19,358.88,245.6,20.88,5.15,37.84,7.11,52.33,7.11Zm112.41-52.96h0Z"/>
    <path class="cls-16" d="m2052.94,1642.78c.32,0,.64,0,.97-.04,6.82-.53,11.91-6.48,11.38-13.3-9.91-127.9,91.19-228.62,92.21-229.62,4.88-4.79,4.96-12.62.19-17.5-4.79-4.89-12.61-4.98-17.5-.2-4.51,4.41-110.4,109.61-99.58,249.24.5,6.49,5.92,11.42,12.32,11.42Z"/>
    <path class="cls-2" d="m2356.87,1642.5c36.18,25.22,74.87,31.96,91.21,58.86,10.89,17.92,4.73,41.1-9.56,49.59-48.97,29.11-166.64-17.79-192.29-26.26-25.65-8.47-102.6-42.45-155.96-72.1"/>
    <path class="cls-14" d="m2090.3,1652.59c53.34,29.66,130.28,63.63,155.94,72.11,25.66,8.47,143.32,55.36,192.29,26.25,14.29-8.51,20.47-31.67,9.56-49.61-15.05-24.76-49.11-32.43-82.69-53.24-.72.22-1.45.41-2.17.63,59.34,34.39,89.86,62.65,82.94,71.85-24.85,32.98-147.32,13.15-278.88-70.9l-76.98,2.91Z"/>
    <path class="cls-16" d="m2361.59,1635.74c9.73,4.65,19.51,8.86,29.68,12.82,10.14,4.03,20.57,7.92,31.37,12.89,10.67,5.08,22.21,11.31,32.05,21.98,2.4,2.68,4.75,5.5,6.73,8.62,2.08,3.21,3.95,6.89,5.4,10.59,2.82,7.51,3.84,15.57,3.26,23.47-.59,7.91-2.78,15.75-6.97,23-1.99,3.65-4.74,7.07-7.8,10.26-1.71,1.51-3.26,3.09-5.24,4.39l-2.88,1.95-2.44,1.4c-13.17,7.19-26.62,9.58-39.24,10.66-12.68.91-24.86.22-36.73-1.1-11.87-1.35-23.44-3.4-34.82-5.88-22.7-5.15-44.74-11.68-66.2-19.22l-31.79-11.3c-11.23-4.12-21.57-8.5-32.03-13.01-20.82-9.02-41.27-18.5-61.53-28.5-20.29-9.92-40.31-20.46-60.14-31.75-7.92-4.51-10.69-14.59-6.18-22.51,4.42-7.77,14.19-10.57,22.04-6.43l.17.09c38.64,20.46,79.1,39.06,119.61,56.2,10.1,4.21,20.39,8.39,30.19,11.83l31.48,10.75c20.8,6.89,41.55,13.41,62.44,18.11,20.72,4.79,41.88,8.29,61.25,7.36,9.57-.42,18.64-2.12,25.26-5.5l1.22-.64c.22-.16.38-.28.59-.4.43-.15.77-.66,1.23-.91.77-.85,1.69-1.71,2.38-2.97,1.53-2.36,2.57-5.5,2.88-8.71.35-3.21,0-6.49-.94-9.5-.55-1.52-1.11-2.88-1.99-4.42-.92-1.64-2.07-3.21-3.28-4.78-4.97-6.21-12.83-11.89-21.73-17.36-17.93-10.89-39.46-21.7-56.72-37.95-3.35-3.16-3.51-8.43-.35-11.79,2.55-2.71,6.48-3.33,9.66-1.82l.13.07Z"/>
    <path class="cls-2" d="m1576.3,1894.71c89.64,105.16,191.59,269.91,215.04,371.21,23.64,102.11,48.59,244.38,53.48,258.47,16.67,47.94,67.05,59.52,105.74,64.68,38.69,5.16,199.09,0,232.01-32.48,26.3-25.95,24.53-60.57,4.69-85.18-17.03-21.13-47.48-30-47.48-30,0,0,13.63-411.13-142.08-685.29"/>
    <g class="cls-12">
      <path class="cls-13" d="m2182.57,2556.6c-32.89,32.49-193.31,37.63-232.02,32.49-38.67-5.18-89.06-16.74-105.72-64.7-4.91-14.07-29.86-156.35-53.5-258.44-23.44-101.3-125.38-266.06-215.04-371.23l421.41-138.61c33.73,59.36,59.48,125.14,79.18,191.79-66.86,132.03-223.41,162.05-231.94,210.97-10.08,57.68,14.43,91.13,22.92,215.71,7.06,103.61,18.22,169.71,173.33,166.4,112.03-2.39,142.36-24.52,149.5-64.9,16.54,24.2,16.54,56.17-8.13,80.53"/>
    </g>
    <path class="cls-16" d="m1990.64,2607.13c63.35,0,171.88-7.57,203.53-38.79,30.32-29.91,32.76-74.03,5.94-107.29-12.82-15.91-31.44-25.82-43.57-31,1.04-70.94-1.24-429.88-144.49-682.08-4.51-7.92-14.58-10.69-22.5-6.2-7.92,4.5-10.7,14.58-6.2,22.5,151.56,266.84,140.07,672.53,139.94,676.59-.25,7.53,4.64,14.28,11.88,16.39.21.06,25.79,7.82,39.25,24.52,12.37,15.34,18.89,41.06-3.43,63.08-25.57,25.23-173.92,33.75-218.23,27.87-38.19-5.09-79.02-15.45-92.34-53.74-1.79-5.28-8.33-38.79-15.25-74.26-10.23-52.44-24.25-124.25-37.74-182.5-25.14-108.6-131.37-275.91-218.56-378.2-5.9-6.93-16.32-7.77-23.27-1.85-6.93,5.91-7.76,16.33-1.85,23.27,85.84,100.71,188.43,264.48,211.52,364.23,13.35,57.7,27.31,129.19,37.5,181.39,9.44,48.34,14.08,71.89,16.47,78.78,21.79,62.64,92.52,72.07,119.16,75.62,7.32.98,22.62,1.7,42.25,1.7Z"/>
    <path class="cls-2" d="m1243.69,1426.73c-35.64,299.23,9.68,459.06,32.83,510.7,64.31,143.5,265.43,196.79,464.69,156.68,0,0,147.96-25.08,216.02-79.25,68.06-54.17,71.69-77.43,71.69-77.43,39.29-90.01,12.76-345.32-112.67-550.1,0,0-49.39-299.61-308.02-310.91-258.63-11.3-364.53,350.3-364.53,350.3"/>
    <path class="cls-2" d="m2028.93,1937.45s-3.63,23.25-71.72,77.42c-68.05,54.18-215.99,79.25-215.99,79.25-199.29,40.1-400.41-13.2-464.71-156.67-11.04-24.71-27.19-74.18-37.15-151.85-10.8-84.67-14.23-202.79,4.35-358.87,0,0,105.88-361.62,364.53-350.3,258.61,11.28,308,310.91,308,310.91,66.53,108.63,105.28,231.5,121.07,336.38,14,92.77,10.05,171.46-8.37,213.72"/>
    <g class="cls-12">
      <path class="cls-13" d="m2028.93,1937.45s-3.63,23.25-71.72,77.42c-68.05,54.18-215.99,79.25-215.99,79.25-199.29,40.1-400.41-13.2-464.71-156.67-11.04-24.71-27.19-74.18-37.15-151.85l160.06,3.07s116.25,17.98,417.39-4.94c100.9-7.69,171.34-30.73,220.49-60,14,92.77,10.05,171.46-8.37,213.72"/>
    </g>
    <g class="cls-12">
      <path class="cls-13" d="m1913.71,1374.95c-76.46,50.95-185.06,82.76-305.48,82.76-137.54,0-259.65-41.5-336.07-105.64,46.72-105.24,153.2-283.64,336.07-275.63,226.95,9.89,292.77,241.86,305.48,298.51"/>
    </g>
    <path class="cls-16" d="m2021.35,1934.13c3.54-10.62,5.64-21.92,7.27-33.27,1.6-11.37,2.42-22.96,2.81-34.56.43-11.61.4-23.29-.04-34.97-.29-11.68-1.09-23.37-2.05-35.05-1.85-23.37-4.99-46.69-8.79-69.89l-3.11-17.37-3.47-17.3c-2.39-11.52-4.86-23.03-7.65-34.46-5.62-22.86-11.73-45.6-18.54-68.15-6.71-22.58-14.28-44.92-22.67-66.94-3.97-11.11-8.45-22.01-12.82-32.97l-6.68-16.4c-2.37-5.4-4.7-10.83-6.97-16.29-9.42-21.69-19.38-43.18-29.43-64.86l-.03-.07c-1.93-4.16-.12-9.09,4.04-11.02,3.59-1.66,7.76-.54,10.07,2.47,14.87,19.34,28.08,39.92,40.12,61.15,12.16,21.19,22.65,43.28,32.34,65.71,19.05,44.98,34.6,91.53,45.29,139.27,2.72,11.92,5.16,23.91,7.41,35.92l3.02,18.1,2.64,18.17c3.3,24.26,5.37,48.71,6.11,73.26.19,12.29.21,24.59-.3,36.91-.3,6.16-.61,12.31-1.2,18.47-.45,6.15-1.14,12.32-1.93,18.46-1.71,12.29-3.74,24.57-7.06,36.7-3.19,12.12-7.27,24.16-13.26,35.59-2.12,4.04-7.13,5.6-11.17,3.48-3.65-1.91-5.27-6.16-4.01-9.94l.05-.14Z"/>
    <path class="cls-16" d="m1251.88,1427.7c-6.26,86.44-9.7,172.96-4.85,258.8,2.2,42.89,6.5,85.61,13.74,127.59l2.8,15.72,3.3,15.57c1.03,5.22,2.26,10.36,3.57,15.47,1.32,5.11,2.45,10.29,3.92,15.34l4.29,15.16,4.8,14.88c1.73,4.86,3.53,9.7,5.35,14.48,2.01,4.62,3.79,9.36,6.14,13.78,8.71,18.06,20,34.81,33.2,50.02,13.21,15.23,28.7,28.59,45.48,40.24,33.58,23.41,72.39,39.96,112.88,50.63,20.23,5.49,40.94,9.5,61.86,12.39,20.91,3.02,42.07,4.6,63.31,5.43,42.5,1.24,85.3-1.32,127.92-7.2h.05c4.52-.64,8.69,2.53,9.32,7.05.58,4.2-2.11,8.1-6.12,9.13-42.67,11.05-86.77,17.55-131.27,18.69-44.48,1.11-89.36-3.02-133.2-13.48-43.68-10.71-86.63-27.61-124.83-53.52-19-13-36.81-28.14-52.24-45.67-15.53-17.42-28.58-37.19-38.57-58.39-2.68-5.23-4.73-10.69-6.99-16.06-2.02-5.38-3.96-10.76-5.83-16.16l-5.09-16.19-4.43-16.26c-1.46-5.42-2.56-10.89-3.86-16.33s-2.49-10.9-3.47-16.37l-3.15-16.4-2.62-16.44c-6.88-43.85-10.08-87.95-11.15-131.94-.24-11-.5-22-.26-32.99.16-10.98.12-21.98.45-32.95,1.01-21.93,1.85-43.85,3.76-65.68,2.93-43.73,8.8-87.14,15.39-130.31.68-4.51,4.9-7.6,9.41-6.92,4.28.65,7.29,4.48,6.99,8.72v.14Z"/>
    <path class="cls-2" d="m2222.81,929.83c-15.6,65.39-40.79,126.34-74.99,145.08-24.57,13.46-186.25-.42-186.25-.42l161.54-406.46s10.39,3.94,24.95,10.39c30.26,13.42,78.53,37.83,88.13,60.47,10.45,24.59,5.64,111.09-13.38,190.95"/>
    <g class="cls-12">
      <path class="cls-13" d="m2222.81,929.83c-15.6,65.39-40.79,126.34-74.99,145.08-24.57,13.46-186.25-.42-186.25-.42l161.54-406.46s10.39,3.94,24.95,10.39c9.56,52.06,17.71,129.88,7.03,219.73-7.37,62.02,34.94,70.02,67.73,31.69"/>
    </g>
    <path class="cls-15" d="m2086.07,1097.35c31.6,0,58.77-2.01,69.68-7.99,85.86-47.07,117.46-305.54,95.63-356.92-16.19-38.12-104.84-73.2-122.44-79.85l-15.18-5.73-175.75,442.18,22.13,1.9c29.18,2.5,81.86,6.41,125.92,6.41Zm46.27-407.84c36.23,15.3,81.84,39.75,88.67,55.83,16.64,39.17-14.27,278.43-81.12,315.07-12.63,6.03-86.05,4.42-154.73-.6l147.19-370.3Z"/>
    <path class="cls-2" d="m2184.66,856.27c-.34,2.45-.68,4.91-1.06,7.36-.33,2.21-.66,4.43-1.02,6.6-.33,2.1-.69,4.15-1.05,6.21-4.86,28.3-11.72,55.8-20.4,82.39-.82,2.48-1.64,4.95-2.5,7.46-.5,1.49-1.04,3.02-1.58,4.55-.64,1.89-1.31,3.77-2.03,5.65-.85,2.39-1.75,4.78-2.64,7.13-.63,1.6-1.2,3.17-1.83,4.74-1.03,2.67-2.09,5.29-3.11,7.91-.04.12-.09.19-.13.31-.09.27-.22.51-.31.78-.71,1.72-1.38,3.48-2.12,5.17-.88,2.08-1.76,4.15-2.68,6.22-.61,1.41-1.23,2.78-1.81,4.15-1.22,2.69-2.41,5.39-3.63,8.05-.04.04-.05.08-.05.12-1.23,2.66-2.45,5.27-3.71,7.89-1.26,2.62-2.56,5.27-3.86,7.88-1.3,2.61-2.65,5.23-3.98,7.84-.09.19-.17.35-.26.54-1.25,2.42-2.55,4.83-3.8,7.21-1.38,2.57-2.75,5.1-4.17,7.63-4.3,7.75-8.79,15.36-13.39,22.89-1.49,2.41-3.02,4.77-4.51,7.14-.3.47-.59.93-.85,1.36-2.85,4.46-5.77,8.84-8.74,13.18-.93,1.35-1.82,2.67-2.75,4.02-1.1,1.59-2.2,3.21-3.38,4.8-4.6,6.5-9.37,12.91-14.24,19.24-3.19,4.17-6.47,8.29-9.78,12.37-5.82,7.08-11.75,14.01-17.84,20.8-1.92,2.15-3.87,4.26-5.83,6.37-3.91,4.22-7.86,8.39-11.89,12.49-2,2.07-4.03,4.09-6.07,6.12-2.07,1.98-4.1,4.01-6.17,5.99-10.36,9.93-21.05,19.52-32.1,28.62-13.26,11-26.98,21.38-41.15,31.11-4.67,3.27-9.46,6.46-14.28,9.56-4.82,3.11-9.68,6.17-14.58,9.11-1.96,1.19-3.87,2.35-5.83,3.5-3.1,1.82-6.2,3.61-9.33,5.39-2.4,1.33-4.81,2.67-7.21,4-5.05,2.78-10.13,5.44-15.25,8.05-7.68,3.9-15.44,7.65-23.34,11.22-2.39,1.1-4.83,2.19-7.22,3.25-.77.33-1.5.66-2.27.98-2.1.91-4.21,1.82-6.36,2.69-8.38,3.56-16.88,6.87-25.48,10.02-2.3.82-4.56,1.61-6.87,2.43-2.71.97-5.45,1.89-8.19,2.81-7.46,2.48-15.01,4.84-22.57,7h-.04c-1.21.38-2.42.73-3.67,1.08-2.34.66-4.71,1.32-7.08,1.94-2.82.76-5.63,1.48-8.45,2.2-3.22.83-6.47,1.6-9.73,2.39-1.61.37-3.21.71-4.86,1.08-3.01.67-6.07,1.34-9.11,1.97-2.93.6-5.9,1.19-8.83,1.75-3.37.66-6.7,1.27-10.06,1.86-2.89.52-5.81.99-8.73,1.43-2.33.38-4.69.73-7.05,1.07-1.4.22-2.81.4-4.21.58-5.96.83-11.92,1.54-17.88,2.17-2.76.33-5.48.57-8.23.82-2.56.25-5.07.47-7.63.64-2.27.19-4.51.33-6.78.48-2.28.14-4.55.29-6.82.4-4.56.29-9.13.46-13.68.59-6.86.2-13.75.31-20.67.27-2.31-.01-4.57-.07-6.88-.08-23.03-.38-46.27-2.17-69.63-5.35-9.38-1.3-18.63-2.79-27.84-4.49-.12,0-.23,0-.35-.05-4.46-.86-8.92-1.72-13.38-2.66-.16,0-.36-.05-.55-.1-6.23-1.33-12.42-2.78-18.57-4.26-.87-.15-1.74-.39-2.6-.66-3.94-1-7.84-1.99-11.74-3.07-2.32-.57-4.6-1.22-6.89-1.91-2.2-.65-4.4-1.3-6.61-1.94-4.41-1.3-8.77-2.67-13.08-4.08-2.21-.65-4.37-1.37-6.52-2.14-.51-.18-1.06-.4-1.6-.58-258.04-88.05-426.19-348.97-387.86-629.26,43.52-318.37,336.88-541.15,655.25-497.64,241.71,33.05,428.33,210.12,485.09,432.81.55,2.13,1.1,4.22,1.61,6.35.51,2.13,1.02,4.26,1.53,6.39.13.72.3,1.41.47,2.13.71,3.05,1.38,6.11,2.01,9.2,2.43,11.6,4.54,23.31,6.25,35.12.25,1.68.5,3.4.71,5.12.65,4.48,1.19,8.92,1.68,13.44.18,1.4.32,2.8.46,4.24.29,2.52.55,5.08.76,7.63.28,2.8.52,5.63.73,8.43.37,4.51.66,9.06.87,13.61.26,4.55.47,9.09.6,13.68,0,.08,0,.2.03.32.03,2.19.09,4.38.13,6.53.09,3.79.13,7.57.09,11.35.02,1.47,0,2.9-.02,4.41.01,2.59-.05,5.21-.12,7.84-.46,22.03-2.21,44.29-5.27,66.65"/>
    <path class="cls-2" d="m2184.66,856.27c-.34,2.45-.68,4.91-1.06,7.36-.33,2.21-.66,4.43-1.02,6.6-.33,2.1-.69,4.15-1.05,6.21-1.77,10.2-3.78,20.3-6.06,30.28-3.98,17.71-8.79,35.1-14.35,52.11-.82,2.48-1.64,4.95-2.5,7.46-.5,1.49-1.04,3.02-1.58,4.55-.64,1.89-1.31,3.77-2.03,5.65-.85,2.39-1.75,4.78-2.64,7.13-.63,1.6-1.2,3.17-1.83,4.74-1.03,2.67-2.09,5.29-3.11,7.91-.04.12-.09.19-.13.31-.09.27-.22.51-.31.78-.71,1.72-1.38,3.48-2.12,5.17-.88,2.08-1.76,4.15-2.68,6.22-.61,1.41-1.23,2.78-1.81,4.15-1.22,2.69-2.41,5.39-3.63,8.05-.04.04-.05.08-.05.12-1.23,2.66-2.45,5.27-3.71,7.89-1.26,2.62-2.56,5.27-3.86,7.88-1.3,2.61-2.65,5.23-3.98,7.84-.09.19-.17.35-.26.54-1.25,2.42-2.55,4.83-3.8,7.21-1.38,2.57-2.75,5.1-4.17,7.63-4.3,7.75-8.79,15.36-13.39,22.89-1.49,2.41-3.02,4.77-4.51,7.14-.3.47-.59.93-.85,1.36-2.85,4.46-5.77,8.84-8.74,13.18-.93,1.35-1.82,2.67-2.75,4.02-1.1,1.59-2.2,3.21-3.38,4.8-4.6,6.5-9.37,12.91-14.24,19.24-3.19,4.17-6.47,8.29-9.78,12.37-5.82,7.08-11.75,14.01-17.84,20.8-1.92,2.15-3.87,4.26-5.83,6.37-3.91,4.22-7.86,8.39-11.89,12.49-2,2.07-4.03,4.09-6.07,6.12-2.07,1.98-4.1,4.01-6.17,5.99-10.36,9.93-21.05,19.52-32.1,28.62-13.26,11-26.98,21.38-41.15,31.11-4.67,3.27-9.46,6.46-14.28,9.56-4.82,3.11-9.68,6.17-14.58,9.11-1.96,1.19-3.87,2.35-5.83,3.5-3.1,1.82-6.2,3.61-9.33,5.39-2.4,1.33-4.81,2.67-7.21,4-5.05,2.78-10.13,5.44-15.25,8.05-7.68,3.9-15.44,7.65-23.34,11.22-2.39,1.1-4.83,2.19-7.22,3.25-.77.33-1.5.66-2.27.98-2.1.91-4.21,1.82-6.36,2.69-8.38,3.56-16.88,6.87-25.48,10.02-2.3.82-4.56,1.61-6.87,2.43-2.71.97-5.45,1.89-8.19,2.81-7.46,2.48-15.01,4.84-22.57,7h-.04c-1.21.38-2.42.73-3.67,1.08-2.34.66-4.71,1.32-7.08,1.94-2.82.76-5.63,1.48-8.45,2.2-3.22.83-6.47,1.6-9.73,2.39-1.61.37-3.21.71-4.86,1.08-3.01.67-6.07,1.34-9.11,1.97-2.93.6-5.9,1.19-8.83,1.75-3.37.66-6.7,1.27-10.06,1.86-2.89.52-5.81.99-8.73,1.43-2.33.38-4.69.73-7.05,1.07-1.4.22-2.81.4-4.21.58-5.96.83-11.92,1.54-17.88,2.17-2.76.33-5.48.57-8.23.82-2.56.25-5.07.47-7.63.64-2.27.19-4.51.33-6.78.48-2.28.14-4.55.29-6.82.4-4.56.29-9.13.46-13.68.59-6.86.2-13.75.31-20.67.27-2.31-.01-4.57-.07-6.88-.08-23.03-.38-46.27-2.17-69.63-5.35-9.38-1.3-18.63-2.79-27.84-4.49-.12,0-.23,0-.35-.05-4.46-.86-8.92-1.72-13.38-2.66-.16,0-.36-.05-.55-.1-6.23-1.33-12.42-2.78-18.57-4.26-.87-.15-1.74-.39-2.6-.66-3.94-1-7.84-1.99-11.74-3.07-2.32-.57-4.6-1.22-6.89-1.91-2.2-.65-4.4-1.3-6.61-1.94-4.41-1.3-8.77-2.67-13.08-4.08-2.21-.65-4.37-1.37-6.52-2.14-.51-.18-1.06-.4-1.6-.58-212.59-72.54-364.14-262.41-389.51-483.78-5.43-47.35-5.11-96.09,1.65-145.48,43.52-318.37,336.88-541.15,655.25-497.64,241.71,33.05,428.33,210.12,485.09,432.81.55,2.13,1.1,4.22,1.61,6.35.51,2.13,1.02,4.26,1.53,6.39.13.72.3,1.41.47,2.13.71,3.05,1.38,6.11,2.01,9.2,2.43,11.6,4.54,23.31,6.25,35.12.25,1.68.5,3.4.71,5.12.65,4.48,1.19,8.92,1.68,13.44.18,1.4.32,2.8.46,4.24.29,2.52.55,5.08.76,7.63.28,2.8.52,5.63.73,8.43.37,4.51.66,9.06.87,13.61.26,4.55.47,9.09.6,13.68,0,.08,0,.2.03.32.03,2.19.09,4.38.13,6.53.09,3.79.13,7.57.09,11.35.02,1.47,0,2.9-.02,4.41.01,2.59-.05,5.21-.12,7.84-.46,22.03-2.21,44.29-5.27,66.65"/>
    <g class="cls-12">
      <path class="cls-13" d="m2175.47,906.72c-3.99,17.71-8.8,35.1-14.35,52.11-.82,2.48-1.63,4.95-2.49,7.46-.5,1.49-1.04,3.02-1.58,4.55-.64,1.89-1.31,3.77-2.02,5.65-.85,2.39-1.75,4.78-2.64,7.13-.62,1.6-1.2,3.17-1.82,4.74-1.03,2.67-2.09,5.29-3.11,7.91-.05.12-.09.19-.13.31-.09.27-.22.51-.31.78-.71,1.72-1.38,3.48-2.12,5.17-.88,2.08-1.76,4.15-2.68,6.22-.61,1.41-1.23,2.78-1.8,4.15-1.23,2.69-2.41,5.39-3.63,8.05-.04.04-.05.08-.05.12-1.23,2.66-2.44,5.27-3.7,7.89-1.26,2.62-2.56,5.27-3.87,7.88-1.3,2.61-2.64,5.23-3.98,7.84-.09.19-.17.35-.26.54-1.25,2.42-2.55,4.83-3.8,7.21-1.38,2.57-2.75,5.1-4.17,7.63-4.3,7.74-8.78,15.36-13.39,22.89-1.49,2.41-3.02,4.77-4.51,7.14-.3.47-.6.93-.85,1.36-2.85,4.46-5.78,8.84-8.74,13.18-.93,1.35-1.82,2.67-2.75,4.02-1.1,1.59-2.2,3.21-3.38,4.8-4.6,6.5-9.36,12.91-14.24,19.24-3.2,4.17-6.47,8.29-9.78,12.37-5.82,7.08-11.76,14.01-17.84,20.8-1.92,2.15-3.88,4.26-5.83,6.37-3.92,4.22-7.87,8.39-11.89,12.49-2,2.07-4.03,4.09-6.07,6.12-2.07,1.98-4.1,4.01-6.17,5.99-10.36,9.93-21.06,19.52-32.1,28.62-13.27,11-26.98,21.38-41.15,31.11-4.67,3.27-9.46,6.46-14.28,9.56-4.82,3.11-9.68,6.17-14.58,9.11-1.96,1.19-3.88,2.35-5.83,3.5-3.1,1.82-6.2,3.61-9.34,5.39-2.4,1.33-4.8,2.67-7.2,4-5.05,2.78-10.13,5.44-15.25,8.05-7.69,3.9-15.44,7.65-23.34,11.22-2.4,1.1-4.83,2.19-7.22,3.25-.77.33-1.5.66-2.27.98-2.1.91-4.21,1.82-6.36,2.69-8.39,3.56-16.88,6.87-25.48,10.02-2.31.82-4.57,1.61-6.87,2.43-2.71.96-5.45,1.89-8.19,2.81-7.46,2.48-15.01,4.84-22.57,7h-.04c-1.21.38-2.42.73-3.67,1.08-2.34.66-4.71,1.32-7.08,1.94-2.82.76-5.64,1.48-8.45,2.2-3.22.82-6.48,1.6-9.73,2.39-1.6.37-3.21.71-4.86,1.08-3.01.67-6.07,1.34-9.11,1.97-2.93.6-5.9,1.19-8.83,1.75-3.37.66-6.7,1.27-10.06,1.86-2.89.52-5.82.99-8.74,1.43-2.32.38-4.68.73-7.05,1.07-1.4.22-2.8.4-4.2.58-5.97.83-11.92,1.54-17.88,2.17-2.76.33-5.48.57-8.23.82-2.56.25-5.07.47-7.63.64-2.28.19-4.51.33-6.78.48-2.28.14-4.55.29-6.82.4-4.55.29-9.13.46-13.67.59-6.86.2-13.75.31-20.67.27-2.31-.01-4.57-.07-6.88-.08-23.03-.38-46.28-2.17-69.63-5.35-9.38-1.3-18.63-2.79-27.84-4.48-.12,0-.24,0-.35-.05-4.46-.86-8.92-1.72-13.38-2.66-.16,0-.36-.05-.56-.1-6.23-1.33-12.42-2.78-18.57-4.26-.87-.15-1.74-.39-2.6-.66-3.94-1-7.84-1.99-11.74-3.07-2.32-.57-4.6-1.22-6.88-1.91-2.2-.65-4.41-1.3-6.61-1.94-4.41-1.3-8.77-2.67-13.09-4.08-2.2-.65-4.37-1.37-6.52-2.14-.51-.18-1.06-.4-1.61-.58-212.59-72.54-364.14-262.41-389.51-483.78,248.43,27.12,814.98,50.58,1145.31,62.58"/>
    </g>
    <path class="cls-16" d="m1608.64,1375.79c294.24.02,551.43-217.79,592.38-517.29,44.68-326.86-184.88-629.14-511.73-673.82-158.34-21.63-315.62,19.66-442.9,116.31-127.26,96.65-209.27,237.09-230.93,395.42h0c-44.69,326.86,184.87,629.14,511.73,673.82,27.35,3.74,54.58,5.56,81.45,5.56Zm-1.58-1163.72c25.79,0,51.75,1.76,77.75,5.31,308.82,42.22,525.72,327.82,483.5,636.65-42.22,308.83-327.86,525.73-636.65,483.5-308.82-42.22-525.72-327.82-483.5-636.65,20.45-149.6,97.94-282.29,218.19-373.61,99.35-75.45,218.07-115.2,340.71-115.2Z"/>
    <path class="cls-16" d="m1609.1,1375.86c48.9,0,97.47-6.02,145.15-18.03,187.89-47.35,341.81-183.24,411.72-363.51,15.71-40.44,27.03-82.92,33.66-126.24l.12-.82c.44-2.91.88-5.84,1.28-8.75,22.94-167.75-26.63-338.13-136-467.46-95.53-113.02-228.97-186.32-375.74-206.39-158.36-21.64-315.62,19.66-442.9,116.31-127.28,96.66-209.29,237.08-230.94,395.43-44.69,326.87,184.87,629.15,511.74,673.84,27.34,3.74,54.68,5.61,81.91,5.61Zm-2.04-1163.79c25.79,0,51.75,1.76,77.75,5.31,138.67,18.95,264.75,88.21,355.01,195,103.33,122.2,150.17,283.18,128.5,441.66-.38,2.75-.8,5.55-1.22,8.33l-.12.77c-6.25,40.9-16.95,81.03-31.79,119.24-66.05,170.32-211.48,298.7-389.01,343.44-70.12,17.66-142.29,21.61-214.52,11.73-308.83-42.23-525.73-327.83-483.51-636.66,20.45-149.61,97.95-282.29,218.2-373.62,99.35-75.45,218.07-115.2,340.71-115.2Z"/>
    <path class="cls-16" d="m1608.97,1375.85c43.84,0,87.41-4.83,130.26-14.47,5-1.1,10.05-2.29,15.07-3.58,187.8-47.29,341.71-183.16,411.64-363.46,15.7-40.35,27.04-82.84,33.69-126.26l.46-3.16c.32-2.15.63-4.31.92-6.45,9.8-71.65,6.72-143.44-9.16-213.4-16.3-71.94-45.57-139.62-86.98-201.17-12.12-18.09-25.54-35.86-39.85-52.81-95.53-113.03-228.98-186.33-375.76-206.4-326.89-44.63-629.12,184.9-673.83,511.75-38.7,283.01,129.15,555.22,399.11,647.25,36.36,12.41,74.26,21.35,112.64,26.59,27.29,3.73,54.59,5.58,81.79,5.59Zm-1.11-1163.72c25.41,0,51.07,1.72,76.93,5.25,138.69,18.96,264.77,88.21,355.02,195,13.53,16.02,26.2,32.81,37.67,49.91,39.14,58.18,66.78,122.12,82.19,190.07,15,66.1,17.91,133.96,8.64,201.68,0,.02,0,.04,0,.06-.26,1.99-.56,3.99-.85,5.99l-.45,3.12c-6.27,40.9-16.98,81.04-31.81,119.17-66.07,170.35-211.49,298.73-389.01,343.42-4.72,1.21-9.38,2.32-14.09,3.35-65.67,14.78-133.07,17.6-200.43,8.41-36.28-4.95-72.09-13.4-106.45-25.12-255.05-86.95-413.63-344.14-377.07-611.54,38.71-282.96,281.75-488.77,559.72-488.77Z"/>
    <path class="cls-16" d="m1608.97,1375.85c43.84,0,87.41-4.83,130.26-14.47,5-1.1,10.05-2.29,15.07-3.58,187.8-47.29,341.71-183.16,411.64-363.46,15.7-40.35,27.04-82.84,33.69-126.26l.46-3.16c.32-2.15.63-4.31.92-6.45,9.8-71.65,6.72-143.44-9.16-213.4-16.3-71.94-45.57-139.62-86.98-201.17-12.12-18.09-25.54-35.86-39.85-52.81-95.53-113.03-228.98-186.33-375.76-206.4-326.89-44.63-629.12,184.9-673.83,511.75-38.7,283.01,129.15,555.22,399.11,647.25,36.36,12.41,74.26,21.35,112.64,26.59,27.29,3.73,54.59,5.58,81.79,5.59Zm-1.11-1163.72c25.41,0,51.07,1.72,76.93,5.25,138.69,18.96,264.77,88.21,355.02,195,13.53,16.02,26.2,32.81,37.67,49.91,39.14,58.18,66.78,122.12,82.19,190.07,15,66.1,17.91,133.96,8.64,201.68,0,.02,0,.04,0,.06-.26,1.99-.56,3.99-.85,5.99l-.45,3.12c-6.27,40.9-16.98,81.04-31.81,119.17-66.07,170.35-211.49,298.73-389.01,343.42-4.72,1.21-9.38,2.32-14.09,3.35-65.67,14.78-133.07,17.6-200.43,8.41-36.28-4.95-72.09-13.4-106.45-25.12-255.05-86.95-413.63-344.14-377.07-611.54,38.71-282.96,281.75-488.77,559.72-488.77Z"/>
    <path class="cls-16" d="m1609.71,1371.69c6.08,0,11.78-.09,17.31-.29,4.61-.13,9.34-.31,14.04-.61,2.08-.09,4.39-.24,6.72-.39,2.42-.15,4.74-.31,7.09-.5,2.51-.17,5.15-.4,7.84-.66,2.75-.24,5.59-.5,8.47-.84,5.93-.62,12.03-1.35,18.12-2.2,1.71-.22,3.04-.4,4.38-.61l.53-.08c2.23-.33,4.45-.65,6.64-1.01,2.88-.43,5.92-.93,8.92-1.46,3.39-.59,6.81-1.22,10.25-1.89,2.92-.56,5.95-1.16,8.94-1.77,3.13-.64,6.26-1.33,9.33-2.02l6.06-1.36c2.98-.72,5.96-1.44,8.9-2.19l.76-.2c2.61-.66,5.21-1.33,7.82-2.04,2.37-.62,4.82-1.3,7.23-1.98,1.21-.34,2.39-.68,3.57-1.05.05-.01.11-.03.17-.04,7.29-2.08,15.06-4.49,23.09-7.15l.64-.22c2.62-.88,5.23-1.76,7.81-2.68l6.86-2.42c9.4-3.44,17.93-6.8,26.16-10.29,1.88-.75,3.94-1.64,6-2.53l2.63-1.13c2.61-1.15,5.1-2.27,7.55-3.39,7.65-3.46,15.45-7.21,23.78-11.44,5.26-2.69,10.46-5.41,15.62-8.25l7.24-4.02c3.31-1.88,6.46-3.7,9.61-5.56,2-1.18,3.97-2.36,5.98-3.58,4.96-2.98,9.93-6.11,14.86-9.29,5.41-3.49,10.22-6.7,14.67-9.82,14.24-9.82,28.38-20.5,41.93-31.71,11.13-9.21,22.16-19.04,32.78-29.22l6.17-5.99c2.27-2.25,4.35-4.33,6.4-6.46,4.04-4.1,8.07-8.36,12.07-12.67,0,0,.34-.37.34-.37,1.9-2.05,3.79-4.1,5.65-6.18,6.11-6.83,12.23-13.96,18.17-21.19,3.44-4.24,6.78-8.45,10.04-12.7,5.13-6.66,10.02-13.27,14.52-19.62.82-1.08,1.75-2.44,2.69-3.78l3.54-5.16c3.07-4.49,6.06-8.97,8.98-13.55l2.41-3.81c1.01-1.59,2.03-3.19,3.04-4.81,5.15-8.43,9.62-16.07,13.7-23.42,1.43-2.55,2.85-5.15,4.26-7.78l3.88-7.35c.11-.21.2-.42.3-.62l.7-1.37c1.11-2.19,2.23-4.38,3.32-6.55,1.33-2.69,2.66-5.39,3.94-8.04,1.3-2.69,2.55-5.38,3.8-8.1.06-.12.11-.24.16-.37l3.54-7.85c.52-1.23.92-2.13,1.32-3.04l.94-2.16c1.54-3.61,3.07-7.22,4.54-10.86.12-.24.22-.49.33-.73,1.13-2.79,2.22-5.6,3.31-8.39l1.82-4.73c.96-2.52,1.88-4.99,2.76-7.46.68-1.79,1.41-3.81,2.09-5.83.51-1.45,1.06-3.03,1.59-4.57.86-2.53,1.69-5.04,2.52-7.55,8.95-27.4,15.96-55.71,20.84-84.16.37-2.07.75-4.21,1.09-6.39.25-1.46.52-3.15.77-4.79l.26-1.84c.31-2.02.6-4.06.88-6.1l.2-1.4s0-.03,0-.05c3.1-22.65,4.91-45.56,5.38-68.07.08-2.67.14-5.42.13-8.14v-.4c.02-1.41.03-2.75.01-4.14.04-3.62,0-7.53-.09-11.46l-.13-6.43c0-.27-.02-.54-.04-.81-.14-4.59-.35-9.15-.61-13.71-.2-4.57-.51-9.26-.89-13.92-.21-2.83-.46-5.77-.76-8.67-.21-2.48-.47-5.18-.78-7.82-.13-1.35-.29-2.88-.48-4.39-.47-4.41-1.03-9.01-1.71-13.64-.18-1.52-.44-3.34-.7-5.12-1.67-11.53-3.81-23.6-6.39-35.88-.63-3.12-1.33-6.28-2.06-9.45-.18-.76-.27-1.11-.34-1.48-.04-.25-.1-.5-.16-.76l-1.54-6.38c-.42-1.78-.88-3.56-1.34-5.35l-.3-1.18c-35.45-134.13-134.24-244.58-264.3-295.53-46.67-18.29-95.86-31.05-146.24-37.93-158.02-21.6-314.47,15.6-440.55,104.74-126.34,89.33-207.06,220.09-227.31,368.2-1.95,14.3-5.31,29.16-8.56,43.54-6.54,28.9-13.29,58.77-9.96,88.22,23.58,208.28,142.83,367.57,327.24,437.19.36.17.72.33,1.09.47.67.24,1.33.45,1.99.65,1.95.7,4.33,1.5,6.75,2.21,4.09,1.34,8.56,2.74,13.1,4.07l6.62,1.95c2.36.72,4.85,1.43,7.38,2.06,3.56.98,7.43,1.97,11.33,2.95,1.1.34,2.21.63,3.32.85,5.89,1.49,12.12,2.92,18.53,4.25.36.08.76.17,1.21.24,4.01.84,8.04,1.62,12.05,2.4l1.04.2h0c.21.03.42.07.62.1,8.87,1.67,18.36,3.2,28.21,4.58,23.61,3.21,47.53,5.04,71.14,5.43l7.01.08c1.31,0,2.6,0,3.87,0Zm156.73-47.12c-.26.06-.53.14-.79.22-1.08.34-2.16.65-3.28.97-2.28.64-4.57,1.28-6.87,1.88-2.59.69-5.11,1.34-7.63,1.98l-.77.2c-2.83.72-5.7,1.42-8.56,2.11l-5.68,1.27c-2.92.65-5.91,1.31-8.89,1.93-2.85.58-5.77,1.16-8.64,1.71-3.35.65-6.6,1.25-9.88,1.83-2.83.51-5.64.96-8.45,1.38-2.22.36-4.3.67-6.39.97l-.62.09c-1.24.19-2.4.34-3.56.49-.03,0-.53.07-.56.07-5.83.81-11.65,1.51-17.47,2.12-2.79.33-5.39.56-8.02.8-2.56.25-4.94.46-7.36.62-2.38.19-4.54.34-6.73.47-2.29.15-4.45.29-6.61.39-4.65.29-9.08.46-13.48.59-6.43.22-13.03.32-20.23.26l-6.88-.08c-22.5-.37-45.44-2.12-68.04-5.2-9.5-1.32-18.67-2.82-27.22-4.42-.18-.03-.36-.06-.53-.09l-.79-.16c-4.05-.78-8.11-1.57-12.15-2.42-.2-.04-.39-.07-.59-.11,0,0-.01,0-.02,0-6.25-1.28-12.3-2.68-18.01-4.13-.31-.08-.62-.15-.93-.2-.31-.05-.61-.15-.92-.25-.26-.08-.52-.16-.78-.22-3.86-.97-7.68-1.95-11.49-2.99-2.42-.61-4.49-1.2-6.57-1.83l-6.7-1.97c-4.3-1.26-8.54-2.59-12.74-3.96-2.34-.7-4.28-1.35-6.23-2.04-.19-.06-.37-.13-.56-.19l-.2-.06c-.21-.09-.42-.18-.64-.26-175.87-66.05-289.66-218.09-312.2-417.11-2.86-25.29,3.14-51.85,9.51-79.97,3.36-14.89,6.85-30.29,8.95-45.65,19.31-141.24,96.4-266.02,217.07-351.34,120.94-85.52,271.14-121.2,422.91-100.42,48.43,6.61,95.71,18.87,140.55,36.45,122.73,48.09,215.96,152.28,249.38,278.72l.29,1.11c.42,1.66.84,3.29,1.24,4.95l1.47,6.1c.14.71.29,1.4.46,2.1.74,3.19,1.39,6.13,1.99,9.1,2.49,11.86,4.54,23.41,6.13,34.43.23,1.6.47,3.23.67,4.86.67,4.62,1.19,8.91,1.66,13.27.2,1.53.32,2.81.45,4.12.3,2.61.54,5.03.75,7.46.29,2.91.52,5.63.72,8.32.36,4.44.65,8.84.85,13.24.25,4.58.46,9.02.59,13.49h0c0,.18.01.35.02.53l.12,6.14c.08,3.73.13,7.38.09,11.03.01,1.48,0,2.64,0,3.84v.58c0,2.63-.06,5.12-.13,7.61-.45,21.66-2.19,43.6-5.16,65.32l-.2,1.37c-.27,1.92-.54,3.85-.84,5.78l-.26,1.84c-.24,1.65-.48,3.12-.73,4.57-.34,2.19-.69,4.16-1.04,6.12-4.69,27.35-11.41,54.48-19.98,80.71-.79,2.41-1.61,4.85-2.45,7.32-.49,1.46-1.02,2.95-1.54,4.43-.63,1.88-1.26,3.62-1.92,5.37-.91,2.54-1.77,4.85-2.64,7.13l-1.76,4.58c-.98,2.53-1.94,4.99-2.92,7.44-.12.25-.23.5-.34.76-1.5,3.74-3.08,7.43-4.65,11.13l-.81,1.86c-.46,1.05-.91,2.08-1.35,3.12l-3.47,7.69c-.04.08-.07.17-.11.25-1.17,2.53-2.34,5.03-3.54,7.54-1.24,2.56-2.51,5.17-3.79,7.73-1.04,2.09-2.13,4.22-3.21,6.34l-.71,1.38c-.09.17-.17.34-.25.52l-3.75,7.1c-1.29,2.42-2.63,4.88-4.01,7.34-3.93,7.08-8.23,14.42-13.15,22.49-.91,1.46-1.88,2.98-2.84,4.5l-2.53,4.01c-2.64,4.14-5.49,8.41-8.38,12.63l-3.51,5.12c-.76,1.09-1.51,2.2-2.32,3.28-4.49,6.34-9.18,12.68-14.13,19.1-3.14,4.1-6.35,8.13-9.59,12.13-5.66,6.89-11.55,13.75-17.45,20.34-1.77,1.98-3.57,3.92-5.37,5.86-4.15,4.47-8.02,8.56-11.96,12.57-2.02,2.08-4,4.06-5.98,6.03l-6,5.83c-10.2,9.77-20.77,19.2-31.43,28.02-13,10.74-26.55,20.99-40.29,30.46-4.26,2.99-8.8,6.03-13.96,9.34-4.72,3.05-9.47,6.04-14.25,8.92-1.97,1.2-3.83,2.32-5.74,3.44-3.05,1.8-6.09,3.55-9.17,5.3l-7.08,3.94c-4.92,2.71-9.89,5.3-14.89,7.86-7.95,4.04-15.42,7.63-22.8,10.96-2.41,1.1-4.79,2.17-7.12,3.2l-2.05.88s-.51.22-.56.24c-1.87.81-3.74,1.62-5.64,2.38-8.06,3.42-16.2,6.62-25.12,9.88l-6.76,2.39c-2.45.87-4.92,1.7-7.39,2.53l-.6.2c-7.5,2.5-14.79,4.76-21.62,6.71Z"/>
    <path class="cls-16" d="m2184.66,856.27c-.34,2.45-.68,4.91-1.06,7.36-.1.67-.17,1.3-.28,1.94-.22,1.54-.48,3.13-.75,4.67-.33,2.1-.69,4.15-1.05,6.21-4.86,28.3-11.72,55.8-20.4,82.39-.82,2.48-1.64,4.95-2.5,7.46-.5,1.49-1.04,3.02-1.58,4.55-.64,1.89-1.31,3.77-2.03,5.65-.85,2.39-1.75,4.78-2.64,7.13-.63,1.6-1.2,3.17-1.83,4.74-1.03,2.67-2.09,5.29-3.11,7.91-.04.12-.09.19-.13.31l-.04.04c-.05.24-.18.51-.27.75-.71,1.72-1.38,3.48-2.12,5.17-.88,2.08-1.76,4.15-2.68,6.22-.61,1.41-1.23,2.78-1.81,4.15-1.22,2.69-2.41,5.39-3.63,8.05-.04.04-.05.08-.05.12-1.23,2.66-2.45,5.27-3.71,7.89-1.26,2.62-2.56,5.27-3.86,7.88-1.3,2.61-2.65,5.23-3.98,7.84-.09.19-.17.35-.26.54-1.25,2.42-2.55,4.83-3.8,7.21-1.38,2.57-2.75,5.1-4.17,7.63-4.3,7.75-8.79,15.36-13.39,22.89-1.49,2.41-3.02,4.77-4.51,7.14-.3.47-.59.93-.85,1.36-2.85,4.46-5.77,8.84-8.74,13.18-.93,1.35-1.82,2.67-2.75,4.02-1.1,1.59-2.2,3.21-3.38,4.8-4.6,6.5-9.37,12.91-14.24,19.24-3.19,4.17-6.47,8.29-9.78,12.37-5.82,7.08-11.75,14.01-17.84,20.8-1.92,2.15-3.87,4.26-5.83,6.37-3.91,4.22-7.86,8.39-11.89,12.49-2,2.07-4.03,4.09-6.07,6.12-2.07,1.98-4.1,4.01-6.17,5.99-10.36,9.93-21.05,19.52-32.1,28.62-13.26,11-26.98,21.38-41.15,31.11-4.67,3.27-9.46,6.46-14.28,9.56-4.82,3.11-9.68,6.17-14.58,9.11-1.96,1.19-3.87,2.35-5.83,3.5-3.1,1.82-6.2,3.61-9.33,5.39-2.4,1.33-4.81,2.67-7.21,4-5.05,2.78-10.13,5.44-15.25,8.05-7.68,3.9-15.44,7.65-23.34,11.22-2.39,1.1-4.83,2.19-7.22,3.25-.77.33-1.5.66-2.27.98-1.19.52-229.79,69.33-435.88-35.05-171.37-86.8-242.15-269.88-249.33-371.13-2.8-39.45,6.35-84.43,11.93-125.21,36.94-270.32,309.79-458.02,599.14-418.48,185.75,25.43,336.59,138.03,410.98,286.94.71,3.05,1.38,6.11,2.01,9.2,2.43,11.6,4.54,23.31,6.25,35.12.25,1.68.5,3.4.71,5.12.65,4.48,1.19,8.92,1.68,13.44.18,1.4.32,2.8.46,4.24.29,2.52.55,5.08.76,7.63.28,2.8.52,5.63.73,8.43.37,4.51.66,9.06.87,13.61.26,4.55.47,9.09.6,13.68,0,.08,0,.2.03.32.03,2.19.09,4.38.13,6.53.09,3.79.13,7.57.09,11.35.02,1.47,0,2.9-.02,4.41.01,2.59-.05,5.21-.12,7.84-.46,22.03-2.21,44.29-5.27,66.65"/>
    <path class="cls-16" d="m2107.29,1076.77c-1.23,2.05-2.47,4.15-3.74,6.2-1.51,2.39-3.03,4.78-4.51,7.13-.33.49-.61.93-.86,1.35-2.86,4.47-5.76,8.87-8.73,13.19-.94,1.34-1.84,2.68-2.77,4.02-1.1,1.6-2.2,3.24-3.38,4.8-4.6,6.51-9.34,12.93-14.23,19.24-3.2,4.19-6.47,8.31-9.78,12.38-5.8,7.07-11.75,14.02-17.85,20.82-1.93,2.14-3.85,4.24-5.81,6.34-3.92,4.24-7.89,8.4-11.89,12.52-2,2.06-4.04,4.08-6.07,6.1-2.07,1.98-4.11,4-6.18,5.99-10.36,9.94-21.05,19.53-32.11,28.64-13.24,10.98-26.95,21.36-41.14,31.1-4.69,3.25-9.46,6.46-14.29,9.56-4.8,3.09-9.67,6.18-14.58,9.12-1.96,1.18-3.89,2.36-5.85,3.51-3.06,1.82-6.2,3.61-9.33,5.39-2.39,1.32-4.79,2.67-7.21,3.99-5.02,2.78-10.1,5.44-15.22,8.06-7.7,3.89-15.44,7.63-23.36,11.21-2.38,1.13-4.84,2.21-7.22,3.26-.78.31-1.52.67-2.26.98-1.21.52-229.82,69.34-435.88-35.07-171.38-86.78-242.16-269.85-249.34-371.13-1.93-27.41,1.88-57.49,6.28-86.98,54.22,106.86,190.96,275.08,523.91,326.07,194.83,29.84,331.27-11.37,423.41-67.77"/>
    <path class="cls-8" d="m2107.29,1076.77c-1.23,2.05-2.47,4.15-3.74,6.2-1.51,2.39-3.03,4.78-4.51,7.13-.33.49-.61.93-.86,1.35-2.86,4.47-5.76,8.87-8.73,13.19-.94,1.34-1.84,2.68-2.77,4.02-1.1,1.6-2.2,3.24-3.38,4.8-4.6,6.51-9.34,12.93-14.23,19.24-3.2,4.19-6.47,8.31-9.78,12.38-5.8,7.07-11.75,14.02-17.85,20.82-1.93,2.14-3.85,4.24-5.81,6.34-3.92,4.24-7.89,8.4-11.89,12.52-2,2.06-4.04,4.08-6.07,6.1-2.07,1.98-4.11,4-6.18,5.99-10.36,9.94-21.05,19.53-32.11,28.64-13.24,10.98-26.95,21.36-41.14,31.1-4.69,3.25-9.46,6.46-14.29,9.56-4.8,3.09-9.67,6.18-14.58,9.12-1.96,1.18-3.89,2.36-5.85,3.51-3.06,1.82-6.2,3.61-9.33,5.39-2.39,1.32-4.79,2.67-7.21,3.99-5.02,2.78-10.1,5.44-15.22,8.06-7.7,3.89-15.44,7.63-23.36,11.21-2.38,1.13-4.84,2.21-7.22,3.26-.78.31-1.52.67-2.26.98-1.21.52-229.82,69.34-435.88-35.07-171.38-86.78-242.16-269.85-249.34-371.13-1.93-27.41,1.88-57.49,6.28-86.98,54.22,106.86,190.96,275.08,523.91,326.07,194.83,29.84,331.27-11.37,423.41-67.77"/>
    <g class="cls-10">
      <path class="cls-2" d="m1544.5,460.11c11.68-10.73,384.58,74.34,465.05,255.66,30.41,68.52,60.96,258.03,54.13,269.57,34.24-57.85,45.17-133.95,47.45-196.23,3.38-92.25-37.6-180.74-110.94-236.81-102.83-78.6-259.33-126.02-455.69-92.2"/>
    </g>
    <g class="cls-10">
      <path class="cls-2" d="m1433.78,773.63c-5.81,50.23-45.98,86.93-89.71,81.99-43.74-4.94-74.48-49.66-68.67-99.89,5.81-50.22,45.98-86.93,89.71-81.99,43.74,4.94,74.49,49.66,68.67,99.88"/>
    </g>
    <g class="cls-10">
      <path class="cls-2" d="m1342.74,956.31c-4.17,20.46-21.99,34.19-39.81,30.65-17.83-3.54-28.89-22.99-24.73-43.45,4.17-20.46,21.99-34.19,39.82-30.65,17.82,3.54,28.89,22.99,24.72,43.45"/>
    </g>
    <path class="cls-2" d="m1018.76,616.29l-4.23,229.18-2.64,142.75,78.25,14.51,7.4,1.36c34.97-.06,65.01-90.74,67.05-202.36.06-2.51.07-5.09.08-7.61.77-108.05-25.53-194.33-59.7-194.21l-7.43,1.4-78.78,14.97Z"/>
    <g class="cls-12">
      <path class="cls-13" d="m1014.53,845.47l-2.64,142.75,78.25,14.51,7.4,1.36c34.98-.06,65.01-90.74,67.05-202.36.06-2.51.08-5.09.09-7.61l-3.45-13.7s-14.61,46.41-37.76,50.79c-24.49,4.69-34.54-54.14-34.54-54.14l-74.4,68.38Z"/>
    </g>
    <path class="cls-16" d="m1097.52,1020.62h.05c52.18-.18,81.5-110.08,83.5-218.56,1.74-94.43-16.14-174.75-45.56-204.6-11.44-11.61-22.86-14.07-30.48-14.07-.9,0-2.11.09-3.16.29l-86.21,16.41c-7.68,1.46-13.28,8.1-13.42,15.91l-6.87,371.95c-.15,8.07,5.56,15.06,13.49,16.53l85.64,15.87c.99.19,2,.28,3,.28Zm8.44-404.11c2.23.52,4.68,2.72,6.05,4.11,19.22,19.51,37.78,87.89,36.07,180.83-2.09,112.98-32.67,183.14-49.56,186.06l-69.88-12.95,6.36-344.57,70.95-13.5Z"/>
    <path class="cls-2" d="m958.12,775.74s.05.07.04.13c-.61,8.7-.97,17.56-1.13,26.63-1.9,102.67,22.64,185.87,54.86,185.72,31.25-.1,58.29-78.79,61.52-177.58.1-2.81.15-5.69.21-8.58,1.9-102.67-22.69-185.87-54.86-185.77-29.35.12-54.88,69.38-60.64,159.45"/>
    <g class="cls-12">
      <path class="cls-13" d="m958.15,775.87c-.6,8.7-.96,17.56-1.13,26.63-1.9,102.67,22.64,185.87,54.86,185.72,31.25-.1,58.29-78.79,61.52-177.58-16.4,34.91-49.92,96.14-75.99,75.9-15.22-11.87-29.6-65.79-39.27-110.67"/>
    </g>
    <path class="cls-16" d="m1011.81,1004.74h.11c51.14-.17,76.38-105.02,78.17-202.36,1.61-87.24-15-161.51-42.3-189.23-10.85-11.01-21.73-13.34-28.99-13.34h-.11c-51.15.18-76.38,105.02-78.17,202.36h0c-1.61,87.24,15,161.51,42.31,189.23,10.84,11.01,21.73,13.34,28.99,13.34Zm6.99-371.92c1.25,0,3.35,1.34,5.47,3.5,17.5,17.76,34.38,80.3,32.82,165.46-2.08,112.04-32.68,169.92-45.28,169.96h0c-1.25,0-3.35-1.34-5.48-3.5-17.5-17.76-34.38-80.3-32.82-165.46,2.08-112.04,32.69-169.92,45.29-169.96h0Z"/>
    <path class="cls-2" d="m1234.8,1742.53c2.79,106.78,22.11,212.21,18.81,263.54-11.33,152.3-93.4,457.63-90,513.51,3.2,52.52,55.23,94.5,216.56,94.2,103.24-.19,140.84-24.76,152.05-60.03,21.01-66.13-35.73-91.93-35.73-91.93,0,0,51.31-163.86,116.48-332.15,0,0,211.7-5.05,337.05-113.4l-250.45-219.49-464.76-54.25Z"/>
    <path class="cls-14" d="m1238.48,1810c-.4-5.18-.8-10.4-1.15-15.67.43,5.43.83,10.65,1.15,15.67"/>
    <g class="cls-12">
      <path class="cls-13" d="m1532.21,2553.73c-11.21,35.28-48.8,59.84-152.05,60.04-161.33.32-213.36-41.66-216.55-94.17-.36-5.66.2-13.87,1.44-24.24,33.44,29.9,99.94,49.56,217.82,49.35,82.08-.16,127.64-13.87,151.97-35.92,3.02,12.24,3.02,27.11-2.63,44.93"/>
    </g>
    <g class="cls-12">
      <path class="cls-13" d="m1949.99,2016.26c-125.34,108.36-337.02,113.41-337.02,113.41-9.72,25.16-19.17,50.23-28.14,74.63-185.13,15.62-295.05-44.73-346.83-82.44,7.45-43.01,13.19-82.96,15.62-115.81,3.27-51.31-16.03-156.75-18.82-263.55l464.75,54.26,250.43,219.5Z"/>
    </g>
    <path class="cls-16" d="m1251.3,1742.1c1.43,54.45,7.23,109.01,12.92,164.09,1.4,13.78,2.8,27.61,3.94,41.6,1.18,13.96,2.12,28.06,2.27,42.65l.05,5.47-.19,5.66-.21,5.66-.46,5.32c-.56,7.13-1.27,14.16-2.05,21.14-1.53,14-3.38,27.88-5.4,41.72-8.2,55.28-18.84,109.76-29.87,164.08l-33.84,162.38c-5.46,26.98-10.85,54.02-14.97,80.72-1.02,6.66-1.94,13.31-2.58,19.75-.73,6.61-1.02,12.53-.68,17.66.9,11.03,4.62,20.95,11.23,29.44,6.61,8.5,15.93,15.66,26.73,21.3,10.73,5.74,22.83,9.98,35.27,13.43,25.03,6.78,51.74,10.03,78.57,11.71,13.43.85,26.96,1.27,40.53,1.33,13.58.14,26.96-.14,40.26-.99,13.27-.85,26.4-2.32,39.03-4.79,12.63-2.43,24.77-5.98,35.31-11.11,10.55-5.15,19-11.98,24.29-20.57,1.37-2.13,2.48-4.44,3.49-6.83,1.04-2.33,1.77-4.94,2.6-7.86,1.53-5.65,2.51-11.29,2.75-16.77.49-10.97-1.99-21.23-7.58-30.17-2.77-4.47-6.29-8.62-10.34-12.33-2.04-1.84-4.21-3.58-6.46-5.15-1.12-.78-2.27-1.54-3.4-2.22l-1.68-.97-1.18-.62-.94-.5c-7.13-3.77-10.33-12.04-7.98-19.46,8.92-28.18,18.07-56.06,27.41-83.98,9.33-27.89,18.86-55.71,28.58-83.47,9.7-27.77,19.61-55.47,29.75-83.09,10.07-27.64,20.54-55.16,31.09-82.65,2.34-6.11,7.94-10.01,14.06-10.47l.94-.07c6.8-.5,14.35-1.13,21.57-1.84l21.93-2.4c14.63-1.65,29.2-3.95,43.76-6.22,29.08-4.77,57.99-10.63,86.37-18.37,28.35-7.84,56.1-17.66,82.86-29.65,13.4-5.98,26.25-13,39.02-20.2,12.66-7.38,24.73-15.7,36.54-24.45l.17-.13c3.66-2.72,8.84-1.95,11.56,1.71,2.51,3.39,2.04,8.07-.94,10.9-11.21,10.69-23.22,20.57-35.78,29.68-12.61,9.02-25.82,17.23-39.39,24.69-13.62,7.34-27.44,14.44-41.72,20.38-14.26,5.98-28.69,11.54-43.34,16.41-14.64,4.87-29.42,9.34-44.34,13.22-14.94,3.78-29.99,7.13-45.15,9.84-15.14,2.85-30.42,4.8-45.72,6.57-7.66.88-15.34,1.53-23.06,1.98-7.8.49-15.28.9-23.54.88l14.99-10.54h0c-10.47,27.29-20.87,54.62-30.88,82.1-10.08,27.46-19.94,55-29.59,82.63-9.67,27.62-19.16,55.3-28.44,83.05-9.28,27.73-18.43,55.61-27.21,83.36l-8.92-19.95c1.67.78,2.34,1.17,3.42,1.75l2.81,1.63c1.83,1.1,3.57,2.24,5.28,3.44,3.41,2.39,6.65,4.98,9.74,7.77,6.15,5.61,11.68,12.08,16.19,19.36,9.19,14.52,13.36,32.36,12.51,48.97-.36,8.33-1.8,16.4-3.89,24.07-1.05,3.72-2.21,7.78-3.94,11.79-1.67,3.97-3.59,7.91-5.94,11.61-4.61,7.44-10.52,14.09-17.04,19.48-6.53,5.41-13.57,9.81-20.73,13.29-14.36,6.97-29.05,11.06-43.52,13.88-14.51,2.83-28.92,4.41-43.23,5.33-14.29.91-28.57,1.2-42.63,1.06-14.08-.07-28.2-.5-42.36-1.4-28.29-1.79-56.8-5.14-85.2-12.8-14.16-3.95-28.35-8.83-42.04-16.11-13.63-7.16-26.98-16.91-37.4-30.28-10.48-13.29-16.78-30.37-18-46.89-.61-8.66-.03-16.59.73-23.72.73-7.31,1.72-14.36,2.78-21.37,4.32-27.95,9.77-55.14,15.27-82.36l33.84-162.41c10.98-54.04,21.53-108.14,29.55-162.27,1.98-13.52,3.79-27.05,5.26-40.54.75-6.75,1.43-13.48,1.95-20.13l.43-5,.16-4.7.17-4.7-.05-4.9c-.12-13.06-.99-26.58-2.15-40.15-1.11-13.57-2.48-27.25-3.88-40.97-5.66-54.9-11.6-110.42-13.08-166.58-.24-9.11,6.95-16.69,16.06-16.93,9.11-.24,16.69,6.96,16.93,16.07h0Z"/>
    <path class="cls-16" d="m1476.74,2286.96c29.98,0,59.97-2.59,88.46-8.95,6.67-1.49,10.87-8.11,9.38-14.78-1.49-6.67-8.07-10.89-14.78-9.38-143.15,31.93-335.22-39.27-337.14-40-6.41-2.39-13.54.83-15.94,7.23-2.41,6.4.83,13.53,7.22,15.94,6.59,2.48,134.47,49.93,262.79,49.93Z"/>
    <path class="cls-2" d="m2034.9,1676.52c39.41-4.5,70.36,66.01-.94,97.27"/>
    <path class="cls-16" d="m1978.35,1801.16c13.79,0,33.24-4.04,60.59-16.04,46.07-20.2,54.69-56.04,48.06-80.6-7.04-26.09-29.53-43-53.51-40.3-35.92,4.11-58.58,19.46-59.53,20.11-5.63,3.88-7.06,11.58-3.18,17.22,3.87,5.62,11.56,7.05,17.18,3.21.36-.24,19.02-12.58,48.35-15.93,11.48-1.35,23.03,8.2,26.79,22.15,5.52,20.45-7.23,39.69-34.1,51.47-35.49,15.57-52.31,14.7-58.03,13.51l9.04-49.17c1.24-6.72-3.21-13.17-9.94-14.41-6.72-1.25-13.18,3.21-14.41,9.94l-11.06,60.2,1.82,3.68c2.31,4.69,9.93,14.97,31.94,14.98Z"/>
    <path class="cls-2" d="m1979.89,1902.67l-313.97,30.72c-37.16,3.65-70.57-23.79-74.22-60.99l-16.34-167.08c-3.19-32.57,17.46-62.21,47.62-71.52,4.26-1.35,8.74-2.23,13.37-2.69l313.92-30.72c37.21-3.65,70.62,23.79,74.22,61l12.97,132.32,3.41,34.75c3.65,37.21-23.83,70.57-60.99,74.22"/>
    <path class="cls-2" d="m1979.89,1902.67l-313.97,30.72c-37.16,3.65-70.57-23.79-74.22-60.99l-16.34-167.08c-3.19-32.57,17.46-62.21,47.62-71.52,4.26-1.35,8.74-2.23,13.37-2.69l313.92-30.72c37.21-3.65,70.62,23.79,74.22,61l12.97,132.32,3.41,34.75c3.65,37.21-23.83,70.57-60.99,74.22"/>
    <path class="cls-2" d="m1979.89,1902.67l-313.97,30.72c-37.16,3.65-70.57-23.79-74.22-60.99l-16.34-167.08c-3.19-32.57,17.46-62.21,47.62-71.52,4.26-1.35,8.74-2.23,13.37-2.69l313.92-30.72c37.21-3.65,70.62,23.79,74.22,61l12.97,132.32,3.41,34.75c3.65,37.21-23.83,70.57-60.99,74.22"/>
    <g class="cls-12">
      <path class="cls-13" d="m1980.35,1902.65l-313.97,30.72c-37.16,3.65-70.57-23.78-74.21-60.99l-16.34-167.08c-3.19-32.57,17.46-62.21,47.62-71.52,18.99,10.1,31.05,16.56,31.05,16.56,28.41,132.62,73.14,195.76,239.95,182.18,72-5.88,116.3-21.28,143.49-38.83l3.41,34.75c3.65,37.2-23.83,70.57-60.99,74.22"/>
    </g>
    <path class="cls-16" d="m1670.65,1949.06c3.17,0,6.36-.16,9.56-.47l288.6-28.24c53.33-5.22,92.46-52.85,87.24-106.17l-13.87-141.76c-5.22-53.33-52.83-92.43-106.17-87.24l-288.59,28.24c-53.33,5.22-92.46,52.85-87.24,106.17l13.88,141.76c2.51,25.74,14.98,49.01,35.07,65.53,17.61,14.47,39.16,22.18,61.53,22.18Zm274.86-331.33c14.76,0,28.99,5.1,40.63,14.67,13.29,10.92,21.52,26.27,23.18,43.24l13.87,141.76c3.45,35.21-22.4,66.66-57.61,70.1l-288.59,28.24c-17,1.66-33.63-3.44-46.92-14.36-13.29-10.92-21.52-26.27-23.18-43.24l-13.88-141.76c-3.45-35.21,22.4-66.66,57.61-70.1l288.59-28.24c2.1-.21,4.2-.31,6.29-.31Z"/>
    <path class="cls-2" d="m1868.72,1912.38l-.51,1.25-202.3,19.78c-27.24,2.63-52.43-11.35-65.38-33.73-4.74-8.1-7.83-17.31-8.78-27.27l-7.29-74.23-2.41-24.5-4.18-43-2.5-25.35c-3.63-37.21,23.81-70.57,60.98-74.23l67.83-6.61c-30.69,8.95-51.79,38.85-48.6,71.73l4.84,49.6,4,40.66,7.5,76.9c3.67,37.12,37.08,64.58,74.23,60.97l122.57-11.99Z"/>
    <g class="cls-12">
      <path class="cls-13" d="m1900.77,1909.23l-.51,1.25-234.35,22.94c-27.24,2.64-52.43-11.35-65.38-33.73-4.74-8.1-7.83-17.32-8.78-27.27l-7.29-74.23-2.41-24.5-4.18-43c13.42-3.21,31.65-3.1,43.43,16.05,16.33,26.52,29.84,15.84,39.13-.91l4,40.67,7.49,76.9c3.67,37.12,37.08,64.58,74.23,60.97l154.62-15.14Z"/>
    </g>
    <path class="cls-16" d="m1659.19,1950.24c2.77,0,5.55-.14,8.33-.41l300.57-29.41-1.44-16.35c-1.1-11.92-9.7-14.43-17.94-14.58l-.03-.34-5.03.49c-1.3.09-2.55.21-3.71.31l-195.31,17.95c-13.72,1.37-27.02-2.74-37.67-11.49-10.66-8.76-17.26-21.07-18.58-34.66l-16.35-167.1c-2.41-24.56,13.07-47.41,36.79-54.35l-6.24-32.27-67.82,6.63c-22.38,2.21-42.6,13.03-56.95,30.49-14.36,17.47-21.05,39.41-18.85,61.79l16.35,167.07c2.18,22.38,13,42.61,30.47,56.97,15.29,12.56,34,19.26,53.42,19.26Zm19.85-34.7l-14.74,1.44c-13.58,1.33-26.92-2.75-37.57-11.5-10.66-8.76-17.26-21.07-18.58-34.66h0s-16.35-167.1-16.35-167.1c-1.34-13.6,2.74-26.95,11.5-37.6,8.75-10.65,21.07-17.26,34.67-18.6l12.84-1.25c-9.06,15.1-13.46,33.06-11.64,51.61l16.35,167.09c1.87,19.23,10.14,36.88,23.53,50.59Z"/>
    <path class="cls-9" d="m1787.69,1769.04c.57,6.18-3.53,56.88-3.53,56.88,0,0-15.81,1.46-35.22,3.24-24.25,2.23-46.22-21.07-49.07-52.04-2.86-30.98,14.5-57.9,38.75-60.13,16.37-1.51,35.22-3.24,35.22-3.24,0,0,12.93,45.22,13.86,55.29"/>
    <path class="cls-1" d="m1787.69,1769.04c.57,6.18-3.53,56.88-3.53,56.88,0,0-15.81,1.46-35.22,3.24-24.25,2.23-46.22-21.07-49.07-52.04-2.86-30.98,14.5-57.9,38.75-60.13,16.37-1.51,35.22-3.24,35.22-3.24,0,0,12.93,45.22,13.86,55.29"/>
    <path class="cls-16" d="m1745.78,1841.69c1.43,0,2.86-.07,4.3-.2l24.46-2.25c12.27-1.12,21.86-10.85,22.81-23.13,3.23-42.15,2.84-46.39,2.67-48.2h0c-.21-2.27-.84-9.15-11.36-47.14-3.26-11.76-14.44-19.51-26.59-18.36l-24.6,2.27c-15.6,1.44-29.38,10.28-38.8,24.91-8.81,13.67-12.76,30.96-11.13,48.69,3.31,35.96,28.97,63.43,58.23,63.43Zm29.58-71.59c.13,2.5-.5,15.52-2.7,44.11-.01.2-.17.36-.4.38l-24.46,2.25c-17.15,1.42-33.43-17.14-35.62-40.85-1.13-12.24,1.46-23.96,7.29-33.01,5.21-8.09,12.41-12.94,20.26-13.67l24.59-2.27c.28.04.41.12.46.33,7.27,26.24,10.21,39.25,10.56,42.72Z"/>
    <path class="cls-9" d="m1822.91,1765.8c2.85,30.98-14.5,57.9-38.75,60.13-24.25,2.23-46.22-21.06-49.07-52.04-2.86-30.98,14.5-57.9,38.75-60.13,24.25-2.23,46.23,21.07,49.08,52.04"/>
    <g class="cls-11">
      <path class="cls-2" d="m1735.1,1773.9c.21,2.33.53,4.59.95,6.81,2.4-25.01,18.03-44.87,38.72-46.79,22.46-2.07,42.91,17.72,48.12,45.22.44-4.32.45-8.79.02-13.36-2.85-30.98-24.81-54.26-49.07-52.04-24.26,2.22-41.59,29.17-38.74,60.15"/>
    </g>
    <path class="cls-1" d="m1735.1,1773.9c2.85,30.94,24.81,54.26,49.07,52.03,24.26-2.26,41.59-29.16,38.74-60.14-.44-4.88-1.37-9.6-2.71-14.01-4.48,21.48-19.03,37.71-37.64,39.42-20.4,1.9-39.23-14.31-46.36-37.99-1.34,6.49-1.76,13.47-1.11,20.69"/>
    <path class="cls-16" d="m1781,1838.45c1.43,0,2.86-.07,4.3-.2,15.6-1.44,29.38-10.28,38.81-24.9,8.81-13.67,12.76-30.96,11.13-48.68h0c-1.63-17.72-8.67-34-19.83-45.84-11.94-12.65-27.16-18.84-42.71-17.4-15.6,1.44-29.38,10.28-38.81,24.91-8.81,13.67-12.76,30.96-11.13,48.69,3.31,35.96,28.97,63.42,58.23,63.43Zm-3.97-112.47c7.18,0,14.35,3.44,20.37,9.83,7.38,7.83,12.07,18.88,13.19,31.12h0c1.12,12.24-1.46,23.96-7.29,33-5.21,8.09-12.41,12.94-20.27,13.67-17.17,1.47-33.43-17.13-35.62-40.85-1.13-12.24,1.46-23.96,7.29-33.01,5.21-8.09,12.41-12.94,20.26-13.67.68-.06,1.37-.09,2.06-.09Zm45.89,39.81h-.05.05Z"/>
    <path class="cls-16" d="m1882.15,1923.39c.31,0,.62,0,.93-.03,6.82-.5,11.93-6.44,11.43-13.26l-6.27-84.71c-1.15-15.53,5.52-30.5,17.83-40.04,19.37-14.99,29.55-38.49,27.25-62.86l-11.25-119.2c-.64-6.81-6.7-11.73-13.49-11.16-6.81.64-11.8,6.68-11.16,13.49l11.25,119.2c1.5,15.88-5.14,31.2-17.76,40.96-18.9,14.64-29.13,37.61-27.36,61.44l6.27,84.71c.48,6.51,5.91,11.46,12.33,11.46Z"/>
    <path class="cls-2" d="m1577.69,1729.11s57.15-3.74,63.48,46.91c6.33,50.65-52.5,65.12-52.5,65.12,0,0-205.44,38.32-352.71-6.18-61.67-46.62-2.11-105.85-2.11-105.85,0,0,174.94,32.02,343.85,0"/>
    <g class="cls-12">
      <path class="cls-13" d="m1588.65,1841.14s-205.42,38.31-352.69-6.18c-27.47-20.77-30.9-44.05-26.23-63.47,4.26,6.06,10.08,12.04,17.78,17.86,147.26,44.49,352.73,6.18,352.73,6.18,0,0,42.41-10.44,51.3-44.57,4.79,6.34,8.29,14.55,9.61,25.08,6.34,50.63-52.51,65.1-52.51,65.1"/>
    </g>
    <path class="cls-16" d="m1409.19,1868.99c95.89,0,176.43-14.7,181.74-15.69l.68-.15c24.05-5.91,67.92-29.97,61.83-78.67-6.14-49.22-52.67-59.23-76.57-57.73l-1.49.19c-164.58,31.2-337.59.3-339.32-.01l-6.36-1.16-4.59,4.56c-1.3,1.3-31.91,32.19-29.36,69.87,1.41,20.9,12.42,39.28,32.72,54.63l1.77,1.34,2.12.64c55.79,16.86,119.09,22.18,176.82,22.18Zm176.84-39.96c-9.74,1.75-204.72,35.94-344.33-5.28-13.19-10.47-20.34-22.28-21.24-35.12-1.37-19.54,11.33-37.89,18.09-46.17,34.56,5.64,188.54,27.59,340.6-1.04,7.09-.27,45.22-.06,49.74,36.12,4.75,38.02-38.31,50.3-42.86,51.48Z"/>
    <path class="cls-2" d="m1045.04,1139.36s39.65-31.09,72.48-1.07c26.46,24.19,32.2,105.41,11.73,122.61-23.45,19.7-47.92-4.08-47.92-4.08"/>
    <path class="cls-2" d="m1110.67,1268.67c-16.23.87-29.34-11.84-29.34-11.84l-34.44-111.46c13.39-2.99,29.82-2.03,44.85,11.68,22.68,20.73,30.14,83.32,18.93,111.62"/>
    <path class="cls-14" d="m1110.67,1268.67c-16.23.87-29.34-11.84-29.34-11.84l-34.44-111.46c13.39-2.99,29.82-2.03,44.85,11.68,22.68,20.73,30.14,83.32,18.93,111.62"/>
    <path class="cls-16" d="m1109.18,1285.29c9.9,0,20.48-3.17,30.69-11.75,14.36-12.06,17.82-36,18.19-53.96.68-32.51-8.14-74.03-29.39-93.46-34.15-31.21-76.29-13.47-93.8.26-7.17,5.62-8.43,16-2.81,23.17,5.61,7.16,15.94,8.41,23.11,2.86,3-2.29,29.67-21.65,51.23-1.93,10.91,9.98,19.12,39.72,18.69,67.71-.3,18.81-4.47,28.39-6.44,30.09-10.9,9.17-22.59-.27-25.9-3.38-6.62-6.19-17.04-5.94-23.28.61-6.25,6.55-6.11,16.86.38,23.17,7.66,7.44,22.51,16.64,39.35,16.64Z"/>
    <polygon class="cls-18" points="795.44 684.83 1027.44 1665.14 1197.03 1596.52 1454.11 2293.09 1280.83 1427.84 1118.94 1476.23 795.44 684.83"/>
    <g class="cls-11">
      <polygon class="cls-2" points="924.93 1231.87 795.46 684.82 902.78 947.38 924.93 1231.87"/>
    </g>
    <g class="cls-11">
      <polygon class="cls-2" points="1430.15 2173.36 1238.05 1440.63 1280.82 1427.86 1430.15 2173.36"/>
    </g>
    <polygon class="cls-6" points="1105.18 1442.56 987.86 1497.88 913.18 1182.33 987.19 1153.91 1105.18 1442.56"/>
    <path class="cls-4" d="m1454.11,2309.6c1.49,0,3-.21,4.5-.63,8.29-2.34,13.38-10.67,11.69-19.12l-173.28-865.25c-.91-4.55-3.7-8.51-7.68-10.9-3.98-2.39-8.79-3-13.23-1.67l-147.54,44.1-317.84-777.54c-3.26-7.97-12.11-12.08-20.32-9.47-8.2,2.63-13.01,11.13-11.02,19.52l232,980.31c1.11,4.69,4.21,8.65,8.48,10.86,4.28,2.21,9.31,2.44,13.77.63l153.81-62.24,251.18,680.6c2.45,6.63,8.73,10.8,15.48,10.8Zm-185.9-860.76l128.23,640.31-183.92-498.34c-1.55-4.19-4.73-7.57-8.81-9.38-4.08-1.81-8.73-1.88-12.87-.2l-151.77,61.41-178.84-755.67,243.43,595.52c3.21,7.87,11.87,12.02,20,9.57l144.53-43.2Z"/>
    <path class="cls-2" d="m800.83,1456.25c-8.59-103.17,16.96-188.88,36.75-253.55,19.8-64.67,59.42-109.36,95.68-110.85,60.09-2.48,152.52,11.59,137.91,91.06,23.38,51.74,47,129.13,31.96,157.26-17.67,33.05-67.26,37.77-79.77,38.44-1.75.09-3.25,1.16-3.9,2.79-5.27,13.2-32.77,70.84-112.37,76.26l-106.26-1.41Z"/>
    <g class="cls-12">
      <path class="cls-13" d="m1103.12,1340.17c-17.66,33.04-67.24,37.79-79.75,38.46-1.75.09-3.27,1.16-3.9,2.78-5.29,13.18-32.77,70.83-112.39,76.26l-2.42-.05c17.66-9.95,78.27-49.04,81.41-116.55,0,0,47.34,22.37,75.89-16.27,16.85-22.77,8.12-80.87-23.67-140.9,0,0,14.57-30.39,11.79-65.14,17.08,13.99,26.49,34.52,21.07,64.15,23.4,51.73,47.02,129.11,31.96,157.26"/>
    </g>
    <path class="cls-16" d="m784.38,1457.63c-4.44-52.02-.3-104.52,9.84-155.21,4.98-25.38,11.52-50.32,18.67-74.84l5.44-18.31c1.85-6.06,3.61-12.04,5.83-18.51,4.26-12.69,9.29-25.18,15.55-37.19,6.22-12.02,13.41-23.68,22.02-34.6,8.63-10.88,18.65-21.13,31.1-29.47l4.72-3.07,5.1-2.71c3.3-1.91,7.18-3.19,10.85-4.66,1.85-.71,3.93-1.11,5.9-1.66,2.01-.48,3.94-1.08,6.09-1.25l6.31-.7c1.99-.17,3.42-.14,5.15-.22,13.29-.37,26.59.07,39.94,1.41,13.35,1.39,26.76,3.71,40.13,7.61,13.32,3.97,26.76,9.5,39.14,18.43,12.39,8.67,23.3,21.97,28.65,37.41,5.4,15.49,5.11,31.5,2.58,45.81l-1.19-9.78c14.28,31.8,25.96,64.25,33.83,98.94,1.03,4.3,1.71,8.81,2.57,13.21.66,4.53,1.38,9,1.81,13.67.9,9.27,1.09,19.02-.6,29.78-.63,2.82-1.11,5.52-2,8.41-1.15,2.97-2.35,6.16-3.75,8.83-1.46,2.41-2.95,4.8-4.48,7.16-1.71,2.19-3.49,4.33-5.27,6.46-7.45,8.17-16.31,14.14-25.28,18.58-18.09,8.84-36.53,12.44-55.11,13.78l-3.55.19c-.36.02.21,0,.51-.05.34-.04.69-.09,1.03-.17.69-.14,1.37-.35,2.05-.61,1.34-.54,2.61-1.32,3.68-2.31,1.07-.99,1.95-2.16,2.57-3.39.15-.32.3-.61.42-.93.1-.26.02-.07,0-.02l-.09.21-.39.86c-.52,1.14-1.02,2.31-1.58,3.38-2.12,4.43-4.52,8.55-7.06,12.59-5.08,8.06-11.02,15.47-17.63,22.23-13.35,13.35-29.36,24.14-46.83,30.46-17.38,6.52-35.71,9.06-53.43,8.51-4.58-.14-8.17-3.97-8.03-8.54.12-3.95,2.99-7.17,6.72-7.89l.19-.03c15.86-3.06,30.9-7.84,44.36-14.95,13.54-7.01,25.06-16.83,34.72-28.01,4.66-5.76,8.94-11.81,12.54-18.2,1.77-3.19,3.44-6.47,4.77-9.72.38-.82.65-1.61.96-2.4l.23-.59.21-.53c.23-.56.47-1.1.76-1.64,1.11-2.17,2.64-4.19,4.49-5.88,1.85-1.69,4.03-3.05,6.35-3.96,1.16-.47,2.35-.81,3.56-1.06.6-.11,1.2-.22,1.81-.28l1.3-.11,2.74-.24c14.92-1.51,29.99-5.33,42.11-11.53,6.04-3.15,11.25-6.92,15.22-11.17.89-1.13,1.81-2.22,2.74-3.31.71-1.21,1.44-2.38,2.22-3.54.51-1.07.66-1.89,1.17-2.79.34-1.12.54-2.6.9-3.87.92-5.87,1.01-13.1.32-20.58-.27-3.73-.84-7.59-1.32-11.4-.71-3.87-1.2-7.72-2.07-11.62-6.38-31.2-17.45-62.57-30.5-92.31l-.02-.04c-1.39-3.19-1.74-6.56-1.18-9.75,1.83-10.45,1.71-20.49-1.27-28.96-3.04-8.42-8.62-15.74-16.86-21.57-8.11-5.9-18.28-10.3-29.11-13.49-10.87-3.19-22.42-5.22-34.16-6.44-11.76-1.18-23.73-1.58-35.67-1.25-1.42.07-3.15.06-4.31.18-1.03.15-2.05.27-3.09.37-1.02,0-2.1.42-3.16.67-1.06.32-2.13.43-3.21.87-2.15.96-4.35,1.51-6.51,2.83l-3.26,1.7-3.2,2.12c-8.56,5.7-16.52,13.61-23.52,22.49-7.03,8.9-13.17,18.8-18.53,29.19-5.42,10.36-9.85,21.37-13.61,32.59-1.89,5.46-3.71,11.59-5.54,17.6l-5.34,17.98c-6.99,23.94-13.24,47.88-17.99,72.03-9.63,48.24-13.46,97.38-9.32,146.04.77,9.08-5.97,17.07-15.05,17.84-9.08.78-17.07-5.96-17.84-15.04v-.06Z"/>
    <path class="cls-2" d="m1028.42,2572.69s135.09-75.27,227.23,21.1c0,0,107.64-103.36,241.31-2.06,2.8,2.13,54.17-55.57,147.03,22.04,0,0-101.77,124.76-307.78,99.43-206.01-25.33-307.79-140.52-307.79-140.52"/>
    <path class="cls-17" d="m1026.41,2569.09c17.31-12.54,36.41-21.68,56.7-28.64,20.25-6.91,41.89-11.06,64.11-11.25,5.55-.12,11.14.12,16.73.51,5.57.65,11.19,1.22,16.74,2.36,11.15,1.98,22.13,5.41,32.64,9.96,5.31,2.15,10.27,5.05,15.36,7.68,4.83,3.05,9.77,5.97,14.25,9.5,9.26,6.69,17.32,14.72,24.64,23.19l-23.36-.5.02-.02c2.29-2.28,3.87-3.68,5.81-5.42,1.85-1.63,3.72-3.2,5.61-4.73,3.78-3.05,7.63-5.97,11.63-8.65,7.96-5.43,16.24-10.39,24.93-14.63,8.68-4.24,17.62-8.05,26.91-11.04,9.3-2.89,18.8-5.33,28.51-6.84,19.38-3.24,39.39-2.96,58.77.1,19.4,3.14,38.03,9.61,55.31,18.01l6.47,3.17,6.25,3.52c4.18,2.32,8.32,4.7,12.24,7.38,3.94,2.64,7.98,5.17,11.68,8.08l5.66,4.24,2.82,2.12.71.53c.21.09-2.63-1.9-4.18-2.34-1.7-.73-4.28-1.11-5.3-1.13-1.48-.09-3.03.03-4.48.36l-1.01.25-.73.23-1.11.44c-1.59.76-1,.54-.92.47l5.59-3.47c2.16-1.3,4.42-2.59,6.73-3.8,4.63-2.42,9.5-4.53,14.51-6.27,10.01-3.47,20.63-5.37,31.11-5.4,21.09-.14,40.78,6.67,57.2,16.47,16.46,9.97,30.39,22.58,41.65,37.1,1.43,1.84,1.09,4.5-.75,5.92-1.34,1.04-3.09,1.14-4.5.43l-.05-.02c-15.91-8.09-31.26-15.91-46.87-21.03-15.51-5.19-30.97-7.95-45.39-6.61-7.2.65-14.16,2.22-20.75,4.86-3.29,1.32-6.5,2.9-9.62,4.74-1.57.92-3.11,1.9-4.68,2.95l-5.52,3.79c-.85.51-1.2.89-3.8,2.1-.15.07-.92.39-1.49.58l-.93.29c-.43.12-.35.12-1.2.31-1.59.35-3.28.48-4.9.41-1.09-.02-3.73-.44-5.5-1.19-1.6-.47-4.51-2.47-4.36-2.42l-.64-.44-2.57-1.74-5.14-3.48c-3.37-2.42-6.96-4.41-10.47-6.53-1.77-1.03-3.47-2.19-5.26-3.16l-5.39-2.87-5.38-2.87-5.52-2.51c-14.69-6.74-30.03-11.33-45.55-13.96-15.57-2.43-31.37-2.36-46.97-.2-15.58,2.33-30.97,6.87-45.65,13.4-7.32,3.3-14.54,6.94-21.45,11.12-3.47,2.07-6.83,4.27-10.16,6.49-1.65,1.13-3.27,2.27-4.85,3.44-1.46,1.09-3.28,2.52-4.21,3.27h0c-4.35,6.13-12.84,7.57-18.96,3.22-.34-.24-.66-.5-.98-.76l-3.42-2.95c-14.07-12.11-28.59-22.96-45.09-30.26-4.03-2-8.25-3.59-12.46-5.22-2.12-.78-4.32-1.38-6.47-2.09-2.13-.78-4.33-1.37-6.55-1.95-8.8-2.43-17.92-4.04-27.25-5.03-9.32-.95-18.83-1.19-28.44-.97-9.6.38-19.29,1.28-29.01,2.67-19.38,2.82-39.07,7.56-58.02,13.93l-.26.09c-2.17.73-4.53-.44-5.26-2.61-.59-1.77.07-3.65,1.5-4.69"/>
    <path class="cls-2" d="m2340.22,2584.52s-128.19-86.5-228.21,1.68c0,0-98.44-112.16-240.25-22.6-2.98,1.88-49.25-59.99-148.38,9.45,0,0,90.78,132.96,298.2,125.27,207.42-7.69,318.63-113.8,318.63-113.8"/>
    <path class="cls-17" d="m2337.91,2587.94c-18.34-7.96-37.56-14.36-56.63-18.82-9.56-2.21-19.15-3.94-28.68-5.14-9.56-1.04-19.05-1.61-28.42-1.45-9.37.19-18.6,1.02-27.58,2.69-2.25.39-4.49.79-6.68,1.39-2.21.52-4.44.94-6.63,1.53-4.34,1.27-8.68,2.5-12.86,4.15-17.06,5.87-32.45,15.44-47.49,26.31l-3.64,2.63c-6.09,4.39-14.59,3.02-18.99-3.06-.24-.34-.48-.71-.69-1.06h0c-.86-.84-2.56-2.42-3.92-3.63-1.47-1.3-2.99-2.57-4.54-3.84-3.12-2.49-6.3-4.98-9.57-7.33-6.53-4.74-13.41-8.99-20.42-12.9-14.08-7.76-29.03-13.58-44.35-17.23-15.36-3.49-31.1-4.89-46.81-3.8-15.7,1.3-31.37,4.56-46.58,10.03l-5.71,2.03-5.61,2.4-5.61,2.4c-1.87.82-3.67,1.83-5.52,2.7-3.68,1.82-7.43,3.49-10.99,5.62l-5.42,3.03-2.71,1.51-.68.38c.16-.04-2.91,1.7-4.56,2.04-1.83.6-4.5.79-5.58.72-1.62-.07-3.29-.35-4.84-.82-.83-.26-.75-.26-1.17-.41l-.9-.38c-.56-.24-1.3-.62-1.44-.7-2.49-1.44-2.8-1.84-3.61-2.42l-5.18-4.25c-1.48-1.19-2.93-2.29-4.42-3.34-2.95-2.1-6.01-3.94-9.18-5.54-6.35-3.19-13.14-5.35-20.27-6.61-14.25-2.55-29.88-1.13-45.78,2.73-15.99,3.77-31.94,10.26-48.49,16.96l-.05.02c-2.16.88-4.62-.17-5.5-2.33-.63-1.56-.26-3.28.8-4.45,12.46-13.51,27.4-24.88,44.66-33.41,17.2-8.37,37.4-13.48,58.4-11.54,10.44.92,20.86,3.73,30.54,8.03,4.84,2.15,9.51,4.67,13.92,7.48,2.21,1.39,4.34,2.87,6.39,4.36l5.27,3.93c.08.08.66.35-.87-.54l-1.07-.53-.71-.29-.98-.33c-1.42-.45-2.96-.71-4.44-.74-1.01-.07-3.62.09-5.38.68-1.57.31-4.58,2.05-4.36,1.98l.75-.47,2.99-1.87,6-3.74c3.94-2.58,8.17-4.76,12.33-7.06,4.13-2.34,8.45-4.35,12.82-6.31l6.53-2.97,6.72-2.61c17.94-6.89,37.04-11.75,56.64-13.23,19.57-1.4,39.54.03,58.56,4.9,9.54,2.34,18.8,5.57,27.83,9.24,8.99,3.77,17.58,8.33,25.87,13.29,8.29,4.96,16.13,10.61,23.59,16.69,3.76,3.01,7.35,6.25,10.86,9.61,1.75,1.68,3.48,3.41,5.19,5.19,1.79,1.9,3.24,3.42,5.33,5.89l.02.02-23.32-1.49c8.02-7.81,16.74-15.13,26.53-21,4.76-3.14,9.93-5.63,15.01-8.26,5.29-2.19,10.48-4.65,15.95-6.34,10.85-3.64,22.09-6.12,33.36-7.14,5.63-.66,11.27-.76,16.88-.93,5.6.1,11.2.33,16.72.92,22.12,2.08,43.32,8.06,62.92,16.66,19.62,8.66,37.88,19.39,54.06,33.37,1.73,1.5,1.93,4.12.43,5.85-1.22,1.41-3.17,1.79-4.79,1.09l-.26-.11Z"/>
    <path class="cls-16" d="m1285,2438.67c20.44-3.84,40.59-6.33,61.12-8,20.48-1.65,41.12-2.22,61.91-1.37,20.79.96,41.77,3.31,62.71,8.74,20.79,5.48,42.04,14.11,60.23,29.85,6.9,5.97,7.66,16.4,1.69,23.3-5.97,6.89-16.4,7.65-23.3,1.68-.3-.26-.58-.52-.85-.8l-.1-.09c-11.67-11.69-28.09-20.32-45.86-26.24-17.82-5.97-36.98-9.53-56.4-11.75-19.46-2.12-39.24-2.94-59.08-2.7-19.78.24-39.89,1.37-59.34,3.67l-.24.03c-4.53.54-8.63-2.7-9.16-7.22-.51-4.33,2.46-8.28,6.67-9.08"/>
    <path class="cls-16" d="m2006.91,2451.87c27.05-8.77,54.79-15.62,83.67-19.05,14.46-1.62,29.22-2.34,44.41-1.16,15.12,1.24,30.93,4.25,46.28,12.12l.08.04c8.12,4.17,11.33,14.13,7.16,22.25-4.17,8.12-14.13,11.33-22.25,7.16-.52-.27-1.04-.57-1.52-.89-9.03-5.92-20.84-9.8-33.32-12.03-12.53-2.24-25.8-2.98-39.18-2.8-26.83.52-54.14,4.39-80.93,10.26l-.08.02c-4.46.98-8.86-1.84-9.84-6.3-.92-4.18,1.54-8.32,5.52-9.62"/>
    <path class="cls-2" d="m1255.65,2593.8s-26.84,32.61-39.24,51.76"/>
    <path class="cls-17" d="m1268.39,2604.28c-8.28,6.87-16.62,14.04-24.77,21.24-8.14,7.24-16.22,14.56-23.76,22.28l-.06.07c-1.62,1.65-4.27,1.69-5.93.07-1.27-1.23-1.58-3.08-.93-4.62,4.35-10.4,9.29-20.41,14.32-30.36,5.07-9.97,10.21-19.75,15.64-29.65l.02-.04c4.46-8.14,14.68-11.12,22.81-6.66,8.14,4.46,11.12,14.68,6.66,22.81-1.04,1.9-2.44,3.55-4.01,4.86"/>
    <path class="cls-2" d="m1496.95,2591.73s32.83,32.36,56.86,69.87"/>
    <path class="cls-17" d="m1508.54,2579.98c5.06,6.54,9.42,12.74,13.86,19.21,4.39,6.43,8.61,12.94,12.69,19.54,8.16,13.16,15.66,26.73,22.21,40.65.98,2.08.09,4.56-1.99,5.54-1.73.81-3.73.33-4.92-1.04l-.04-.05c-9.79-11.33-20.25-21.96-31.21-32.02-5.47-5.03-11.02-9.94-16.69-14.7-5.61-4.71-11.52-9.51-17.07-13.62-7.4-5.48-8.95-15.91-3.47-23.31,5.48-7.4,15.92-8.95,23.32-3.47,1.24.92,2.31,1.97,3.22,3.13l.11.15Z"/>
    <path class="cls-17" d="m1815.47,2625.98c5.72-9.89,11.92-19.2,18.54-28.42,6.64-9.18,13.71-18.12,21.31-26.75,7.69-8.56,15.91-16.81,24.91-24.55,9.16-7.59,19.12-14.66,30.39-20.56,8.11-4.25,18.13-1.12,22.38,6.99,4.25,8.11,1.12,18.13-6.99,22.38-.9.47-1.83.85-2.77,1.15l-.16.05c-9.11,2.78-18.34,6.89-27.38,11.89-8.97,5.19-17.74,11.16-26.25,17.68-8.45,6.6-16.65,13.71-24.55,21.2-7.86,7.5-15.58,15.43-22.63,23.62l-.09.1c-1.49,1.73-4.1,1.93-5.83.44-1.53-1.32-1.86-3.52-.88-5.21"/>
    <path class="cls-17" d="m2105.2,2557.69c5.9,6.98,10.77,13.55,15.76,20.56,4.89,6.95,9.53,14.07,13.9,21.37,4.33,7.33,8.34,14.9,11.98,22.67,3.54,7.85,6.63,15.96,8.99,24.37,1.23,4.4-1.33,8.96-5.72,10.2-3.93,1.11-8-.83-9.7-4.39l-.13-.29c-3.26-6.84-7.14-13.43-11.44-19.81-4.42-6.34-9.14-12.49-14.17-18.43-5.08-5.92-10.38-11.65-15.88-17.18-5.44-5.45-11.35-11.05-16.84-15.64l-.04-.03c-7.01-5.88-7.93-16.33-2.06-23.34,5.88-7.01,16.33-7.93,23.34-2.05.71.59,1.42,1.32,2.01,2"/>
    <path class="cls-16" d="m1792.01,2278.3c18.61,0,273.43-1.88,341.34-101.67,3.84-5.65,2.38-13.35-3.27-17.2-5.64-3.85-13.34-2.38-17.2,3.27-61.22,89.97-315.49,90.84-321.42,90.84h-.12c-6.82,0-12.35,5.52-12.38,12.34-.02,6.84,5.5,12.39,12.34,12.42h.71Z"/>
    <path class="cls-2" d="m1708,2954.74s45.49,157.97,208.86,143.52c159.08-14.07,189.33-171.66,189.33-171.66"/>
    <path class="cls-7" d="m2105.99,2927.62c-2.99,13.67-37.63,157.23-189.12,170.62-147.86,13.12-199.16-115.09-207.58-139.53,49.03,35.72,115.65,60.59,204.67,52.7,85.99-7.57,147.86-41.98,192.03-83.8"/>
    <path class="cls-17" d="m1711.97,2953.6c9.4,20.11,21.31,39.41,35.16,56.36,13.81,17.04,29.65,32.01,47.35,43.66,17.66,11.7,37.13,19.99,57.53,24.55,20.41,4.58,41.66,5.56,62.93,3.68,21.28-1.81,42.08-6.45,61.58-14.31,19.51-7.84,37.62-19.04,53.74-33.02,16.13-13.97,30.21-30.7,42.22-49.12,12.05-18.34,22.1-38.68,29.64-59.57l.11-.29c.77-2.15,3.14-3.26,5.29-2.48,1.83.66,2.9,2.48,2.71,4.33-2.55,23.74-9.94,46.22-19.92,67.93-10.19,21.56-23.9,41.84-41.01,59.34-17.06,17.52-37.72,31.94-60.3,42.06-11.3,5.03-23.04,9.04-34.98,12.04-11.96,2.92-24.1,4.9-36.24,5.99-12.16.97-24.46,1.16-36.77.28-12.3-.94-24.59-2.92-36.61-6.09-24.03-6.35-46.85-17.66-66.17-32.91-19.38-15.21-35.41-33.94-47.79-54.38-12.22-20.6-21.69-42.33-26.41-65.75-.45-2.24.99-4.42,3.23-4.87,1.91-.38,3.78.61,4.57,2.3l.13.29Z"/>
    <path class="cls-17" d="m1868.45,3218.07c5.54,0,10.96-2.79,14.07-7.86,17.89-29.1,31.59-65.38,40.71-107.83,1.91-8.91-3.76-17.69-12.67-19.6-8.9-1.9-17.69,3.76-19.6,12.67-8.33,38.78-20.63,71.58-36.55,97.47-4.78,7.76-2.35,17.93,5.41,22.71,2.7,1.66,5.68,2.45,8.63,2.45Z"/>
    <path class="cls-17" d="m1352.45,3135.18c4.39,7.57,9.18,15.13,14.1,22.45,4.92,7.35,10.08,14.52,15.38,21.51,5.29,7.01,10.8,13.79,16.48,20.33,5.62,6.6,11.61,12.77,17.6,18.78l.15.15c6.49,6.5,6.47,17.03-.04,23.51-6.51,6.48-17.03,6.47-23.51-.04-.9-.9-1.71-1.95-2.36-2.98-4.98-8.05-9.79-16.11-14.04-24.36-4.33-8.23-8.36-16.52-12.07-24.92-3.73-8.39-7.23-16.83-10.44-25.36-3.23-8.54-6.2-17.06-8.87-25.87-.66-2.19.57-4.51,2.76-5.17,1.88-.57,3.85.26,4.79,1.89l.06.11Z"/>
    <path class="cls-17" d="m1104.51,3096.37c-5.88,9.95-12.35,19.13-19.36,28.15-6.99,9-14.51,17.63-22.54,25.87-3.94,4.2-8.21,8.1-12.38,12.12-4.38,3.78-8.62,7.8-13.25,11.36-8.99,7.5-18.81,14.07-28.91,20.44-7.75,4.89-18,2.57-22.89-5.18-4.89-7.74-2.57-18,5.18-22.88.85-.54,1.73-.99,2.63-1.35l.54-.21c9.58-3.82,19.25-7.88,28.47-13.05,4.73-2.38,9.18-5.28,13.81-7.95,4.44-2.93,9.02-5.75,13.35-8.92,8.79-6.18,17.32-12.89,25.45-20.1,8.12-7.17,16.05-14.91,23.1-22.96l.14-.16c1.5-1.72,4.11-1.89,5.83-.38,1.52,1.34,1.82,3.54.83,5.22"/>
    <path class="cls-17" d="m670.59,2827.3c-1.53,3.21-3.08,7.6-4.32,11.59-1.26,4.11-2.39,8.27-3.38,12.5-1.99,8.44-3.65,16.98-5.01,25.6-1.39,8.6-2.51,17.27-3.49,25.94-.96,8.69-1.74,17.4-2.45,26.11v.09c-.75,9.14-8.77,15.95-17.92,15.21-9.15-.75-15.96-8.77-15.21-17.92.11-1.28.38-2.59.76-3.77,2.81-8.65,5.67-17.27,8.72-25.83,3.07-8.57,6.29-17.07,9.77-25.5,3.45-8.43,7.21-16.77,11.31-24.95,2.04-4.09,4.23-8.14,6.56-12.12,2.45-4.06,4.66-7.74,8.06-11.89,1.44-1.75,4.03-2.01,5.78-.57,1.49,1.22,1.9,3.27,1.11,4.93l-.27.58Z"/>
    <path class="cls-17" d="m2598.37,2812.84c4,10.06,7.45,20.11,10.64,30.37,3.17,10.25,5.98,20.64,8.45,31.18,2.52,10.53,4.5,21.24,6.12,32.1,1.66,10.87,2.55,21.95,3.05,33.22.4,9.16-6.69,16.91-15.85,17.31-9.16.41-16.91-6.69-17.31-15.84-.05-1.06,0-2.11.16-3.13l.05-.36c1.48-9.75,2.68-19.71,3.12-29.86.48-10.13.63-20.39.22-30.69-.36-10.3-1.06-20.66-2.15-31.01-1.09-10.32-2.52-20.75-4.39-30.89l-.02-.13c-.42-2.24,1.07-4.41,3.32-4.82,1.98-.37,3.88.73,4.6,2.54"/>
    <path class="cls-17" d="m2352.18,2483.3c14.37-8.24,29.08-15.53,44.46-22.13,15.41-6.5,31.36-12.24,48.98-15.82l.2-.04c9.02-1.84,17.81,3.99,19.64,13,1.83,9.02-3.99,17.81-13,19.64-1.42.28-2.9.38-4.28.31-14.57-.84-30.26.45-45.88,2.75-15.62,2.37-31.44,5.66-46.85,9.87l-.12.03c-2.22.6-4.5-.7-5.1-2.91-.51-1.86.34-3.78,1.94-4.69"/>
    <path class="cls-17" d="m767.68,2459.47c3.34.47,5.78.99,8.53,1.59,2.68.57,5.31,1.23,7.91,1.91,5.22,1.35,10.32,2.94,15.37,4.63,10.08,3.44,19.88,7.61,29.29,12.44,9.44,4.75,18.38,10.53,26.73,16.87,8.45,6.25,15.84,13.81,22.67,21.54,1.51,1.71,1.35,4.32-.36,5.83-1.49,1.32-3.66,1.37-5.19.23l-.23-.17c-7.83-5.81-15.79-11.16-24.52-15.17-8.64-4.09-17.53-7.53-26.73-9.96-9.15-2.52-18.46-4.36-27.8-5.51-4.68-.54-9.36-.98-14-1.2-2.33-.12-4.64-.2-6.92-.21-2.2-.02-4.72,0-6.37.15-9.16.81-17.24-5.96-18.06-15.12-.81-9.16,5.96-17.24,15.13-18.06,1.26-.11,2.5-.07,3.71.09l.84.12Z"/>
    <path class="cls-17" d="m2195.85,3084.6c15.36,8.4,31.24,16.13,47.19,23.1,15.95,6.94,32.17,13.08,48.2,17.56,8.85,2.47,14.01,11.64,11.54,20.48-2.47,8.85-11.64,14.01-20.48,11.54-1.25-.35-2.43-.83-3.52-1.43l-.14-.08c-16.48-9.15-31.54-19.42-46.01-30.26-14.45-10.88-28.26-22.19-41.63-34.23-1.7-1.53-1.84-4.15-.31-5.86,1.31-1.45,3.42-1.76,5.07-.87l.09.05Z"/>
  </g>
</svg>