<?xml version="1.0" encoding="UTF-8"?>
<svg id="Layer_1" data-name="Layer 1" xmlns="http://www.w3.org/2000/svg" viewBox="0 0 310.43 319">
  <defs>
    <style>
      .cls-1 {
        fill: #1c7aea;
      }

      .cls-2 {
        fill: #fff;
      }

      .cls-3 {
        fill: #111a28;
      }

      .cls-4 {
        fill: #d8d8d8;
      }

      .cls-5 {
        fill: #c68659;
      }

      .cls-6 {
        opacity: .35;
      }

      .cls-6, .cls-7, .cls-8 {
        fill: none;
      }

      .cls-9 {
        fill: #22a7f0;
      }

      .cls-7 {
        opacity: .5;
      }

      .cls-10 {
        fill: #390176;
      }

      .cls-8 {
        opacity: .2;
      }

      .cls-11 {
        fill: #371944;
      }

      .cls-12 {
        fill: #371a45;
      }

      .cls-13 {
        fill: #ad825a;
      }

      .cls-14 {
        fill: #e2af76;
      }
    </style>
  </defs>
  <g>
    <g class="cls-8">
      <ellipse class="cls-12" cx="154.4" cy="305.14" rx="94.86" ry="13.86"/>
    </g>
    <g>
      <rect class="cls-2" x="98.95" y="134.12" width="112.54" height="110.72" rx="55.36" ry="55.36"/>
      <path class="cls-12" d="m191.37,246.85h-72.28c-12.21,0-22.15-9.93-22.15-22.15v-70.46c0-12.21,9.93-22.14,22.15-22.14h72.28c12.21,0,22.15,9.93,22.15,22.14v70.46c0,12.21-9.93,22.15-22.15,22.15Zm-72.28-110.72c-9.99,0-18.12,8.13-18.12,18.12v70.46c0,9.99,8.13,18.12,18.12,18.12h72.28c9.99,0,18.12-8.13,18.12-18.12v-70.46c0-9.99-8.13-18.12-18.12-18.12h-72.28Z"/>
    </g>
    <path class="cls-2" d="m211.43,129.24c-6.81,13.46-20.7,23.94-37.88,28.36l-16.4-16.22,42.9-4.04,11.38-8.09Z"/>
    <g>
      <path class="cls-2" d="m226.23,57.51s16.38,6.21,18.07,9.24c3.12,5.62,2.54,38.67-6.09,47.28-3.38,3.37-28.22,6.53-28.22,6.53l16.25-63.05Z"/>
      <g class="cls-8">
        <path class="cls-12" d="m209.98,120.57s24.84-3.15,28.22-6.53c3.37-3.36,5.52-10.45,6.69-18.18-.27.25-9.05,7.82-26.55-7.57,0,0-.02-.02-.03-.03l-8.32,32.3Z"/>
      </g>
      <path class="cls-2" d="m100.93,120.57s-24.84-3.15-28.22-6.53c-3.37-3.36-5.52-10.45-6.69-18.18h0c-1.83-12.06-1.3-25.68.6-29.11,1.68-3.03,18.06-9.25,18.06-9.25l7.92,30.75,8.32,32.3Z"/>
      <g class="cls-8">
        <path class="cls-12" d="m100.93,120.57s-24.84-3.15-28.22-6.53c-3.37-3.36-5.52-10.45-6.69-18.18.27.25,9.05,7.82,26.55-7.57,0,0,.02-.02.03-.03l8.32,32.3Z"/>
      </g>
      <path class="cls-12" d="m206.95,123.24l17.72-68.75,2.37.9c5.16,1.96,17.36,6.87,19.25,10.27,3.5,6.3,3.05,40.49-6.47,50-3.65,3.64-23.53,6.41-29.54,7.17l-3.32.42Zm20.85-62.68l-14.77,57.3c10.7-1.52,21.97-3.85,23.57-5.43,3.32-3.31,5.86-12.04,6.79-23.34.91-10.94-.05-19.36-1.08-21.23-.93-1.32-7.84-4.63-14.52-7.3Z"/>
      <path class="cls-12" d="m103.97,123.24l-3.32-.42c-6.01-.76-25.89-3.53-29.54-7.17-9.52-9.5-9.97-43.69-6.47-50,1.88-3.39,14.09-8.31,19.25-10.27l2.37-.9,17.72,68.75Zm-20.85-62.68c-6.67,2.67-13.59,5.99-14.54,7.33-1.02,1.84-1.97,10.25-1.06,21.19.94,11.31,3.48,20.04,6.79,23.34,1.6,1.58,12.88,3.92,23.57,5.43l-14.77-57.3Z"/>
    </g>
    <polygon class="cls-2" points="153.65 141.38 121.25 173.43 112.26 182.31 37.97 124.69 38.78 119.35 40.94 105.13 65.47 105.13 110.75 137.34 153.65 141.38"/>
    <g class="cls-8">
      <path class="cls-12" d="m121.25,173.43l-8.98,8.88-74.29-57.62.81-5.34c6.51-3.48,13.88-5.57,20.34-2.87,16.18,6.75,28.05,39,39.12,44.3,7.71,3.68,13.09.69,13.09.69l9.91,11.96Z"/>
    </g>
    <path class="cls-2" d="m153.65,141.38l-16.48,16.3c-17.48-4.42-31.58-15.1-38.35-28.83l11.93,8.49,42.9,4.04Z"/>
    <g class="cls-8">
      <path class="cls-12" d="m153.65,141.38l-16.48,16.3c-17.48-4.42-31.58-15.1-38.35-28.83l11.93,8.49,42.9,4.04Z"/>
    </g>
    <path class="cls-4" d="m194.18,148.37c-10.55,7.19-24.14,11.52-38.97,11.52s-28.5-4.35-39.06-11.58c-.78-8.31-1.2-40.69,39.02-42.24,40.55-1.56,39.79,33.71,39,42.3Z"/>
    <path class="cls-12" d="m112.26,184.32c-.43,0-.87-.14-1.23-.42l-74.29-57.62c-.58-.45-.87-1.17-.76-1.89l2.96-19.56c.15-.98,1-1.71,1.99-1.71h24.54c.42,0,.83.13,1.17.37l44.84,31.9,42.36,3.99c1.11.1,1.92,1.09,1.82,2.2-.1,1.11-1.1,1.92-2.2,1.82l-42.9-4.04c-.35-.03-.69-.16-.98-.36l-44.75-31.84h-22.16l-2.53,16.68,73.36,56.9c.88.68,1.04,1.95.36,2.83-.4.51-.99.78-1.59.78Z"/>
    <g>
      <path class="cls-2" d="m90.93,123.24s-6.14,21.87-18.71,28.01"/>
      <path class="cls-12" d="m72.22,153.26c-.75,0-1.46-.42-1.81-1.13-.49-1-.07-2.21.93-2.69,11.6-5.67,17.6-26.54,17.66-26.75.3-1.07,1.42-1.69,2.48-1.39,1.07.3,1.7,1.41,1.39,2.48-.26.93-6.54,22.82-19.77,29.28-.28.14-.59.2-.88.2Z"/>
    </g>
    <g>
      <path class="cls-13" d="m21.12,89.26s5.14.13,7.05-2.72c1.91-2.85,5.87-5.82,10.7-5.49,4.83.32,7.31,3.78,13.67.71,6.36-3.07-2.59,10.82-2.72,10.85-.12.03-27.14,3.65-27.14,3.65l-1.06-4.75"/>
      <path class="cls-12" d="m22.69,98.27c-.93,0-1.76-.64-1.96-1.58l-1.06-4.75c-.09-.42-.05-.84.1-1.21-.42-.38-.67-.93-.65-1.54.03-1.11.92-1.98,2.06-1.96,1.06.02,4.29-.27,5.33-1.83,2.14-3.19,6.7-6.76,12.51-6.38,1.88.12,3.43.65,4.8,1.11,2.54.86,4.37,1.48,7.86-.21.64-.31,2.61-1.26,4.12-.05.97.78,1.27,2.02.88,3.7-.35,1.53-1.33,3.7-2.9,6.46-2.43,4.28-2.68,4.33-3.51,4.52-.11.02-.2.05-27.31,3.68-.09.01-.18.02-.27.02Zm.91-7.19l.66,2.93c8.27-1.11,21.04-2.83,24.43-3.29,1-1.54,2.74-4.59,3.61-6.66-4.33,1.74-7.21.76-9.77-.11-1.25-.42-2.42-.82-3.77-.91-3.83-.26-7.23,2.13-8.89,4.61-1.51,2.25-4.23,3.1-6.25,3.42Z"/>
      <path class="cls-14" d="m67.72,82.49s-14.2,8.72-12,24.32c1.38,9.79-6.97,9.93-13.38,8.67-1.68-.33-3.24-.75-4.44-1.13-1.53-.48-2.51-.86-2.51-.86,0,0-3.34-10.93-23.82-17.09,0,0,2.63-8.17,13-7.16,8.4.81,16.02,2.45,21.52-1.88,4.31-3.38,10.27-12.73,21.63-4.88Z"/>
      <g class="cls-7">
        <path class="cls-2" d="m67.72,82.49s-.59.36-1.51,1.07c-10.07-5.47-15.56,2.96-19.61,6.13-5.51,4.33-13.13,2.69-21.52,1.88-7.13-.69-10.6,2.96-12.08,5.3-.47-.16-.95-.31-1.44-.45,0,0,2.63-8.17,13-7.16,8.4.81,16.02,2.45,21.52-1.88,4.31-3.38,10.27-12.73,21.63-4.88Z"/>
      </g>
      <path class="cls-5" d="m42.34,114.3c0,.41,0,.81,0,1.19-1.68-.33-3.24-.75-4.44-1.13-.41-2.47-1.66-6.89-5.47-10.21-5.02-4.36-6.53-4.49-8.61-4.86,4.71-1.12,8.06,4.34,9.48,3.38.61-.42-1.03-3.48-12.59-7.91,0,0,21.6,2.8,21.63,19.53Z"/>
      <path class="cls-12" d="m47.37,118.06c-5.71,0-11.77-2.3-12.73-2.68-.56-.22-1-.69-1.18-1.27-.06-.17-3.54-10.07-22.48-15.76-.52-.16-.95-.51-1.2-.99-.25-.48-.3-1.04-.13-1.55,1.08-3.36,5.63-9.47,15.12-8.55,1.17.11,2.33.24,3.46.37,6.72.75,12.52,1.4,16.62-1.82.63-.5,1.36-1.19,2.13-1.92,4.13-3.94,11.05-10.53,21.89-3.04.56.39.89,1.03.87,1.71-.02.68-.38,1.31-.96,1.66-.53.33-13.04,8.25-11.06,22.33.6,4.26-.38,7.43-2.9,9.42-1.99,1.56-4.68,2.11-7.44,2.11Zm-10.45-6.14c3.66,1.3,12.06,3.5,15.41.86.49-.39,1.98-1.56,1.4-5.69-1.77-12.57,6.08-20.9,10.35-24.42-6.63-3.22-10.69.65-14.33,4.11-.84.8-1.63,1.56-2.42,2.17-5.4,4.24-12.28,3.47-19.56,2.66-1.12-.12-2.25-.25-3.4-.36-5.76-.56-8.64,2.06-9.95,3.96,16.11,5.44,21.18,13.84,22.49,16.71Z"/>
      <path class="cls-14" d="m46.83,211.13c-12.08-.08-33.47-4.47-42.04-20.65-10.47-19.77,10.67-47.99,28.21-70.36,6.29-8.02,12.41-11.82,18.78-11.46,6.79.38,33.24,32.45,37.28,55.43,4.74,26.97-9.06,47.26-42.23,47.04Z"/>
      <path class="cls-5" d="m44.79,108.79c7.7-1.07,24.65,9.35,6.99,13.12-.95,5.63-8.65,4.5-16.44,6.58-5.66,1.51-9.96,6.54-9.96,6.54,0,0,2.33-4.36,6.76-8.52,8.41-7.9,6.57-8.84,5.54-8.98-1.46-.2-5.67.81-12.06,9.73.12-.25,2.09-4.25,5.46-8.17,1.75-2.03,5.16-4.17,4.84-5.73,3.79-2.37,5.01-3.88,8.88-4.55Z"/>
      <path class="cls-5" d="m6.04,184.06s12.55,15.07,36.73,5.39c0,0-19.36,5.83-36.73-5.39Z"/>
      <path class="cls-5" d="m5.8,192.25h0s0,.01,0,.02c0,0,0,0,.01.01,1.32,1.61,2.72,3.39,4.15,5.28.16.16.32.32.48.48.16.16.32.32.49.47.49.47,1,.92,1.53,1.36.17.14.34.28.51.42.01.02.03.03.04.04.17.14.34.27.51.4.34.27.69.53,1.04.79.02,0,.03.02.05.03.54.39,1.09.77,1.65,1.13.2.13.4.25.6.38.19.12.38.24.57.35.2.12.39.23.58.34.78.45,1.57.88,2.37,1.28.2.1.4.2.6.3.6.3,1.22.58,1.83.84.16.08.33.15.49.21.65.28,1.32.54,1.98.8.22.09.45.17.67.25.87.31,1.74.6,2.6.87.37.12.74.22,1.1.33.26.08.52.15.79.22.17.05.34.09.51.14.4.11.8.21,1.2.31,1.66.4,3.3.74,4.9,1,.39.06.78.12,1.16.18.39.06.78.11,1.17.16.77.1,1.52.19,2.26.25.37.04.73.07,1.09.1.34.03.69.05,1.02.07.03,0,.05,0,.08,0,.34.02.67.04,1,.05.27.01.54.02.81.03.07,0,.13,0,.2,0,.33.01.64.02.96.02h.54c.44,0,.87,0,1.3-.02,13.36-.3,24.24-4.81,31.97-11.61.01,0,.02-.02.03-.03,8.17-8.49,10.93-20.98,8.39-35.39-2.81-15.99-16.47-36.38-26.81-47.43,10.07,19.37,5.73,34.72,5.6,35.17,3.43-6.14,4.31-12.12,4.31-12.12,0,0,11.69,12.17,9.81,27.54-3.69,30.22-27.24,29.54-27.24,29.54,6.76,1.22,16.71-1.46,16.99-1.67-2.03,3.98-9.24,8.76-23.82,10.95-20.59,3.1-41.85-13.95-41.85-13.95l-.22.12h0Z"/>
      <path class="cls-12" d="m47.36,213.15c-.18,0-.36,0-.54,0-14.95-.1-35.4-5.85-43.81-21.72-11.49-21.69,12.52-52.29,28.4-72.54,6.77-8.63,13.46-12.62,20.48-12.23,5.06.29,14.57,10.99,21.19,20.07,4.54,6.23,15.38,22.32,17.97,37.03,2.54,14.45-.05,26.74-7.49,35.55-7.67,9.07-20.17,13.86-36.19,13.86Zm3.6-102.5c-5.37,0-10.73,3.51-16.38,10.71C15.21,146.05-2.9,171.65,6.57,189.53c7.57,14.3,26.43,19.49,40.27,19.58h0c.17,0,.35,0,.52,0,14.79,0,26.23-4.29,33.11-12.43,6.65-7.86,8.93-19.02,6.6-32.25-1.72-9.77-8.01-22.66-17.26-35.35-8.62-11.83-16.08-18.3-18.16-18.42-.23-.01-.46-.02-.7-.02Z"/>
      <g class="cls-7">
        <path class="cls-2" d="m26.65,143.77c-2.81-.46-11.02,6.22-14.41,16.02-3.92,11.32-1.38,21.06,3.32,23.12,4.26,1.86,4.11-6.2,6.72-17.46,3.66-15.77,7.61-21.15,4.36-21.68Z"/>
      </g>
    </g>
    <path class="cls-2" d="m47.4,97.95c5.51,6.2,4.67,20.75.36,23.96-3.97,2.95-17.9,3.66-19.5,1.59-1.6-2.07-3.76-18.56-2.01-21.63,2.49-4.39,15.64-10.12,21.16-3.92Z"/>
    <path class="cls-4" d="m47.75,121.91c-3.97,2.95-17.89,3.66-19.49,1.59-.23-.3-.48-.91-.72-1.74,4.76.56,13.42-.39,16.43-2.62,4.02-2.99-5.09-8.85,3.45-21.17,5.5,6.21,4.65,20.74.34,23.94Z"/>
    <path class="cls-12" d="m34.25,126.71c-3.2,0-6.4-.43-7.59-1.98-1.53-1.98-2.43-9.27-2.67-11.45-.48-4.41-.79-10.14.5-12.4,1.98-3.5,8.48-6.96,14.17-7.56,4.37-.46,7.91.68,10.24,3.3h0c3.96,4.45,4.75,11.99,4.22,17.1-.48,4.62-2,8.2-4.17,9.82-3.12,2.32-9.74,2.94-11.7,3.07-.96.07-1.98.11-3,.11Zm-4.46-4.55c2.22,1.11,13.63.45,16.75-1.87.92-.68,2.15-2.93,2.57-7,.48-4.63-.34-10.76-3.23-14.01h0c-1.81-2.03-4.7-2.19-6.81-1.97-5.16.55-10.02,3.65-11.09,5.54-1.19,2.23.44,16.66,1.8,19.3Zm-.12-.07"/>
    <path class="cls-2" d="m67.22,111.7c-1.56-12.19-10.07-17.32-15.56-14.13-6.83,3.97-6.43,18.07-1.66,20.56,7.2,3.76,9.35-9.59,9.35-9.59"/>
    <path class="cls-12" d="m66.22,111.83c-1.24-4.61-3.44-9.45-7.48-11.93-4.18-2.68-7.92-.62-9.41,4.03-1.04,3.2-1.08,7.1.16,10.24.65,1.53,1.34,2.2,2.61,2.43,1.25.18,1.9-.53,2.81-1.75,1.34-1.98,1.87-4.46,3.44-6.47.34-.54,1.07-.69,1.58-.3.21.16.35.38.41.62.36,1.51.23,2.93-.13,4.33-.92,2.98-2.55,6.36-5.78,7.56-1.76.65-3.68.35-5.28-.47-5.55-2.98-5.51-12.31-3.7-17.53,3.04-9.23,13.03-10.74,18.89-3.11.91,1.17,1.65,2.46,2.22,3.81,1.13,2.67,1.65,5.5,1.66,8.27,0,.56-.45,1.02-1.01,1.02-.47,0-.87-.32-.98-.76h0Z"/>
    <polygon class="cls-2" points="156.78 141.38 189.18 173.43 198.17 182.31 272.46 124.69 271.65 119.35 269.49 105.13 244.96 105.13 199.68 137.34 156.78 141.38"/>
    <g class="cls-8">
      <path class="cls-12" d="m189.18,173.43l8.98,8.88,74.29-57.62-.81-5.34c-6.51-3.48-13.88-5.57-20.34-2.87-16.18,6.75-28.05,39-39.12,44.3-7.71,3.68-13.09.69-13.09.69l-9.91,11.96Z"/>
    </g>
    <g class="cls-8">
      <path class="cls-12" d="m156.78,141.38l16.48,16.3c17.48-4.42,31.58-15.1,38.35-28.83l-11.93,8.49-42.9,4.04Z"/>
    </g>
    <path class="cls-12" d="m198.17,184.32c-.6,0-1.2-.27-1.59-.78-.68-.88-.52-2.15.36-2.83l73.36-56.9-2.53-16.68h-22.16l-44.75,31.84c-.29.21-.63.33-.98.36l-42.9,4.04c-1.11.1-2.09-.71-2.2-1.82-.1-1.11.71-2.09,1.82-2.2l42.36-3.99,44.84-31.9c.34-.24.75-.37,1.17-.37h24.54c1,0,1.84.73,1.99,1.71l2.96,19.56c.11.72-.18,1.45-.76,1.89l-74.29,57.62c-.37.28-.8.42-1.23.42Z"/>
    <g>
      <path class="cls-2" d="m219.5,123.24s6.14,21.87,18.71,28.01"/>
      <path class="cls-12" d="m238.21,153.26c-.3,0-.6-.07-.88-.2-13.23-6.46-19.51-28.35-19.77-29.28-.3-1.07.32-2.18,1.39-2.48,1.07-.3,2.18.32,2.48,1.39.06.21,6.05,21.08,17.66,26.75,1,.49,1.41,1.69.93,2.69-.35.72-1.07,1.13-1.81,1.13Z"/>
    </g>
    <g>
      <path class="cls-13" d="m289.31,89.26s-5.14.13-7.05-2.72c-1.91-2.85-5.87-5.82-10.7-5.49-4.83.32-7.31,3.78-13.67.71-6.36-3.07,2.59,10.82,2.72,10.85.12.03,27.14,3.65,27.14,3.65l1.06-4.75"/>
      <path class="cls-12" d="m287.74,98.27c-.09,0-.18,0-.27-.02-27.1-3.64-27.2-3.66-27.31-3.68-.82-.18-1.07-.24-3.5-4.52-1.57-2.76-2.54-4.93-2.9-6.46-.39-1.67-.09-2.92.88-3.7,1.51-1.21,3.48-.27,4.12.05,3.49,1.69,5.32,1.07,7.86.21,1.37-.46,2.92-.99,4.8-1.11,5.82-.38,10.37,3.2,12.51,6.38,1.04,1.56,4.28,1.85,5.33,1.83,1.1-.03,2.03.86,2.06,1.97.01.6-.24,1.15-.65,1.53.15.37.2.79.1,1.21l-1.06,4.75c-.21.93-1.03,1.58-1.96,1.58Zm-25.99-7.54c3.39.46,16.16,2.18,24.43,3.29l.66-2.93c-2.03-.32-4.74-1.18-6.25-3.42-1.66-2.48-5.05-4.87-8.89-4.61-1.35.09-2.53.49-3.77.91-2.56.87-5.44,1.84-9.77.11.87,2.07,2.61,5.12,3.61,6.66Z"/>
      <path class="cls-14" d="m242.71,82.49s14.2,8.72,12,24.32c-1.38,9.79,6.97,9.93,13.38,8.67,1.68-.33,3.24-.75,4.44-1.13,1.53-.48,2.51-.86,2.51-.86,0,0,3.34-10.93,23.82-17.09,0,0-2.63-8.17-13-7.16-8.4.81-16.02,2.45-21.52-1.88-4.31-3.38-10.27-12.73-21.63-4.88Z"/>
      <g class="cls-7">
        <path class="cls-2" d="m242.71,82.49s.59.36,1.51,1.07c10.07-5.47,15.56,2.96,19.61,6.13,5.51,4.33,13.13,2.69,21.52,1.88,7.13-.69,10.6,2.96,12.08,5.3.47-.16.95-.31,1.44-.45,0,0-2.63-8.17-13-7.16-8.4.81-16.02,2.45-21.52-1.88-4.31-3.38-10.27-12.73-21.63-4.88Z"/>
      </g>
      <path class="cls-5" d="m268.1,114.3c0,.41,0,.81,0,1.19,1.68-.33,3.24-.75,4.44-1.13.41-2.47,1.66-6.89,5.47-10.21,5.02-4.36,6.53-4.49,8.61-4.86-4.71-1.12-8.06,4.34-9.48,3.38-.61-.42,1.03-3.48,12.59-7.91,0,0-21.6,2.8-21.63,19.53Z"/>
      <path class="cls-12" d="m263.07,118.06c-2.77,0-5.46-.54-7.44-2.11-2.53-1.99-3.5-5.16-2.9-9.42,1.99-14.14-10.93-22.25-11.06-22.33-.58-.36-.94-.98-.96-1.66-.02-.68.31-1.33.87-1.71,10.85-7.49,17.76-.9,21.89,3.04.77.73,1.49,1.42,2.13,1.92,4.1,3.22,9.9,2.57,16.62,1.82,1.14-.13,2.29-.26,3.46-.37,9.49-.91,14.04,5.2,15.12,8.55.17.51.12,1.08-.13,1.55-.25.48-.69.84-1.2.99-19.01,5.72-22.45,15.66-22.48,15.76-.19.57-.62,1.05-1.18,1.27-.96.38-7.02,2.68-12.73,2.68Zm-16.71-35.39c4.27,3.52,12.12,11.85,10.35,24.42-.58,4.13.91,5.3,1.4,5.69,3.34,2.63,11.75.44,15.41-.86,1.31-2.87,6.38-11.26,22.47-16.7-1.33-1.89-4.24-4.52-9.92-3.97-1.15.11-2.29.24-3.4.36-7.28.81-14.16,1.58-19.56-2.66-.78-.61-1.58-1.37-2.42-2.17-3.63-3.46-7.7-7.33-14.33-4.11Zm28.69,30.83h0,0Z"/>
      <path class="cls-14" d="m263.6,211.13c12.08-.08,33.47-4.47,42.04-20.65,10.47-19.77-10.67-47.99-28.21-70.36-6.29-8.02-12.41-11.82-18.78-11.46-6.79.38-33.24,32.45-37.28,55.43-4.74,26.97,9.06,47.26,42.23,47.04Z"/>
      <path class="cls-5" d="m265.64,108.79c-7.7-1.07-24.65,9.35-6.99,13.12.95,5.63,8.65,4.5,16.44,6.58,5.66,1.51,9.96,6.54,9.96,6.54,0,0-2.33-4.36-6.76-8.52-8.41-7.9-6.57-8.84-5.54-8.98,1.46-.2,5.67.81,12.06,9.73-.12-.25-2.09-4.25-5.46-8.17-1.75-2.03-5.16-4.17-4.84-5.73-3.79-2.37-5.01-3.88-8.88-4.55Z"/>
      <path class="cls-5" d="m304.4,184.06s-12.55,15.07-36.73,5.39c0,0,19.36,5.83,36.73-5.39Z"/>
      <path class="cls-5" d="m304.63,192.25h0s0,.01,0,.02c0,0,0,0-.01.01-1.32,1.61-2.72,3.39-4.15,5.28-.16.16-.32.32-.48.48-.16.16-.32.32-.49.47-.49.47-1,.92-1.53,1.36-.17.14-.34.28-.51.42-.01.02-.03.03-.04.04-.17.14-.34.27-.51.4-.34.27-.69.53-1.04.79-.02,0-.03.02-.05.03-.54.39-1.09.77-1.65,1.13-.2.13-.4.25-.6.38-.19.12-.38.24-.57.35-.2.12-.39.23-.58.34-.78.45-1.57.88-2.37,1.28-.2.1-.4.2-.6.3-.6.3-1.22.58-1.83.84-.16.08-.33.15-.49.21-.65.28-1.32.54-1.98.8-.22.09-.45.17-.67.25-.87.31-1.74.6-2.6.87-.37.12-.74.22-1.1.33-.26.08-.52.15-.79.22-.17.05-.34.09-.51.14-.4.11-.8.21-1.2.31-1.66.4-3.3.74-4.9,1-.39.06-.78.12-1.16.18-.39.06-.78.11-1.17.16-.77.1-1.52.19-2.26.25-.37.04-.73.07-1.09.1-.34.03-.69.05-1.02.07-.03,0-.05,0-.08,0-.34.02-.67.04-1,.05-.27.01-.54.02-.81.03-.07,0-.13,0-.2,0-.33.01-.64.02-.96.02h-.54c-.44,0-.87,0-1.3-.02-13.36-.3-24.24-4.81-31.97-11.61-.01,0-.02-.02-.03-.03-8.17-8.49-10.93-20.98-8.39-35.39,2.81-15.99,16.47-36.38,26.81-47.43-10.07,19.37-5.73,34.72-5.6,35.17-3.43-6.14-4.31-12.12-4.31-12.12,0,0-11.69,12.17-9.81,27.54,3.69,30.22,27.24,29.54,27.24,29.54-6.76,1.22-16.71-1.46-16.99-1.67,2.03,3.98,9.24,8.76,23.82,10.95,20.59,3.1,41.85-13.95,41.85-13.95l.22.12h0Z"/>
      <path class="cls-12" d="m263.07,213.15c-16.02,0-28.52-4.78-36.19-13.86-7.44-8.81-10.03-21.1-7.49-35.55,2.59-14.71,13.43-30.79,17.97-37.03,6.61-9.08,16.13-19.78,21.19-20.07,7.02-.39,13.71,3.6,20.48,12.23,15.88,20.25,39.89,50.85,28.4,72.54-8.41,15.87-28.85,21.62-43.81,21.72h0c-.18,0-.36,0-.54,0Zm-3.6-102.5c-.23,0-.46,0-.7.02-2.07.12-9.54,6.58-18.16,18.42-9.25,12.7-15.54,25.58-17.26,35.35-2.33,13.23-.04,24.39,6.6,32.25,6.88,8.13,18.32,12.43,33.11,12.43.17,0,.34,0,.52,0h0c13.84-.09,32.7-5.28,40.27-19.58,9.47-17.88-8.65-43.48-28.01-68.17-5.65-7.2-11.01-10.71-16.38-10.71Z"/>
      <g class="cls-7">
        <path class="cls-2" d="m283.79,143.77c2.81-.46,11.02,6.22,14.41,16.02,3.92,11.32,1.38,21.06-3.32,23.12-4.26,1.86-4.11-6.2-6.72-17.46-3.66-15.77-7.61-21.15-4.36-21.68Z"/>
      </g>
    </g>
    <path class="cls-2" d="m263.04,97.95c-5.51,6.2-4.67,20.75-.36,23.96,3.97,2.95,17.9,3.66,19.5,1.59,1.6-2.07,3.76-18.56,2.01-21.63-2.49-4.39-15.64-10.12-21.16-3.92Z"/>
    <path class="cls-4" d="m262.68,121.91c3.97,2.95,17.89,3.66,19.49,1.59.23-.3.48-.91.72-1.74-4.76.56-13.42-.39-16.43-2.62-4.02-2.99,5.09-8.85-3.45-21.17-5.5,6.21-4.65,20.74-.34,23.94Z"/>
    <path class="cls-12" d="m276.18,126.71c-1.02,0-2.04-.04-3-.11-1.96-.13-8.58-.75-11.7-3.07-2.17-1.62-3.7-5.19-4.17-9.82-.53-5.11.26-12.65,4.22-17.1,2.33-2.62,5.87-3.76,10.24-3.3,5.7.6,12.19,4.06,14.17,7.56,1.28,2.26.98,7.99.5,12.4-.24,2.19-1.14,9.47-2.67,11.45-1.19,1.55-4.39,1.98-7.59,1.98Zm-6.22-29.47c-1.87,0-3.98.43-5.41,2.05t0,0c-2.89,3.25-3.7,9.38-3.22,14.01.42,4.07,1.64,6.31,2.57,7,3.12,2.32,14.57,2.98,16.76,1.86,1.35-2.53,2.99-17.06,1.79-19.3-1.08-1.89-5.93-5-11.09-5.54-.44-.05-.91-.08-1.39-.08Zm-6.92.71h0,0Z"/>
    <path class="cls-2" d="m243.21,111.7c1.56-12.19,10.07-17.32,15.56-14.13,6.83,3.97,6.43,18.07,1.66,20.56-7.2,3.76-9.35-9.59-9.35-9.59"/>
    <path class="cls-12" d="m242.21,111.58c0-5.67,2.27-11.95,7.23-15.22,6.41-4.11,13.31-.66,15.53,6.25,1.81,5.21,1.85,14.54-3.7,17.53-2.49,1.37-5.71.98-7.7-1.05-1.7-1.67-2.72-3.9-3.36-6.04-.31-1.13-.99-5.53,1.18-5.14.3.07.52.25.68.49,2.11,2.33,3.25,10.14,7.39,7.8,1.38-.87,2.07-3.5,2.27-5.28.49-4.1-.53-9.92-4.42-11.8-1.84-.82-3.93-.27-5.63.8-4.03,2.49-6.24,7.32-7.48,11.93-.3,1.14-2,.92-2-.26h0Z"/>
    <g>
      <path class="cls-2" d="m154.18,235.38s-24.34,58.93-26.96,64.35c-2.88,5.96-7.56,6.56-7.56,6.56h-19.67s-12.9.64-16.33-2.51c-2.16-1.98-2.85-4.52-2.42-6.89.25-1.39.89-2.72,1.83-3.84,3.11-3.72,9.35-3.78,9.35-3.78l14.11-62.68,2.59-11.52,45.04,20.31Z"/>
      <g class="cls-8">
        <path class="cls-12" d="m154.18,235.38s-24.34,58.93-26.96,64.35c-2.88,5.96-7.56,6.56-7.56,6.56h-19.67s-12.9.64-16.33-2.51c-2.16-1.98-2.85-4.52-2.42-6.89.05.21,1.04,3.61,17.4,3.61s23.11,2.23,31.33-16.61c3.95-9.05,7.38-22.15-4.71-29.07-7.71-4.41-18.58-12-20.75-19.26l4.62-20.51,45.04,20.31Z"/>
      </g>
      <path class="cls-12" d="m97.01,308.38c-4.41,0-11.79-.43-14.7-3.11-3.96-3.64-4.28-9.32-.77-13.51,2.63-3.14,6.93-4.09,9.26-4.38l16.38-72.76c.24-1.09,1.33-1.77,2.41-1.52,1.09.24,1.77,1.32,1.52,2.41l-16.71,74.2c-.21.91-1.01,1.56-1.94,1.57-.05,0-5.37.12-7.83,3.06-1.73,2.06-2.34,5.43.41,7.95,1.93,1.78,9.85,2.23,14.86,1.98.03,0,.07,0,.1,0h19.5c.57-.12,3.77-.98,5.92-5.42,2.56-5.31,26.67-63.65,26.91-64.24.42-1.03,1.6-1.52,2.63-1.09,1.03.42,1.52,1.6,1.09,2.63-.99,2.41-24.4,59.04-27.01,64.45-3.31,6.87-8.89,7.66-9.12,7.69-.08.01-.17.02-.26.02h-19.62c-.57.03-1.66.07-3.04.07Z"/>
      <path class="cls-12" d="m140.65,269.51s-.02,0-.03,0c-1.23-.02-30.34-.68-42.03-12.95-.58-.6-.55-1.56.05-2.14.6-.58,1.56-.55,2.14.05,10.82,11.36,39.6,12,39.89,12.01.83.01,1.5.7,1.48,1.54-.01.83-.69,1.48-1.51,1.48Z"/>
      <path class="cls-2" d="m156.79,235.38s24.34,58.93,26.96,64.35c2.88,5.96,7.56,6.56,7.56,6.56h19.67s12.9.64,16.33-2.51c2.16-1.98,2.85-4.52,2.42-6.89-.25-1.39-.89-2.72-1.83-3.84-3.11-3.72-9.35-3.78-9.35-3.78l-14.11-62.68-2.59-11.52-45.04,20.31Z"/>
      <g class="cls-8">
        <path class="cls-12" d="m156.79,235.38s24.34,58.93,26.96,64.35c2.88,5.96,7.56,6.56,7.56,6.56h19.67s12.9.64,16.33-2.51c2.16-1.98,2.85-4.52,2.42-6.89-.05.21-1.04,3.61-17.4,3.61s-23.11,2.23-31.33-16.61c-3.95-9.05-7.38-22.15,4.71-29.07,7.71-4.41,18.58-12,20.75-19.26l-4.62-20.51-45.04,20.31Z"/>
      </g>
      <path class="cls-12" d="m213.97,308.38c-1.38,0-2.46-.04-3.04-.07h-19.62c-.09,0-.17,0-.26-.02-.24-.03-5.81-.82-9.12-7.69-2.61-5.41-26.01-62.05-27-64.45-.42-1.03.06-2.21,1.09-2.63,1.03-.43,2.21.06,2.63,1.09.24.59,24.35,58.94,26.91,64.24,2.14,4.43,5.36,5.3,5.92,5.42h19.5s.07,0,.1,0c5.01.25,12.93-.2,14.86-1.98,2.75-2.52,2.14-5.89.41-7.95-2.47-2.94-7.78-3.06-7.84-3.06-.93-.01-1.74-.66-1.94-1.57l-16.71-74.2c-.24-1.09.44-2.16,1.52-2.41,1.09-.24,2.16.44,2.41,1.52l16.38,72.76c2.33.29,6.63,1.24,9.26,4.38,3.51,4.19,3.19,9.87-.77,13.51-2.92,2.68-10.29,3.11-14.7,3.11Z"/>
      <path class="cls-12" d="m170.32,269.51c-.82,0-1.5-.66-1.51-1.48-.02-.83.65-1.52,1.48-1.54.29,0,29.08-.66,39.89-12.01.58-.6,1.53-.63,2.14-.05.6.58.63,1.53.05,2.14-11.68,12.27-40.79,12.92-42.03,12.95,0,0-.02,0-.03,0Z"/>
    </g>
    <path class="cls-4" d="m194.47,151.28c-9.8,6-23.84,9.75-39.44,9.75s-29.41-3.69-39.2-9.61c.19-.4.38-.79.57-1.19,0,0-7.37-42.38,38.79-44.16,46.15-1.78,38.79,44.16,38.79,44.16.17.35.34.7.5,1.04Z"/>
    <path class="cls-4" d="m195.42,153.31c-9.51,5.72-23.41,9.33-38.9,9.33-16.65,0-31.47-4.17-40.96-10.64.28-.59.55-1.17.84-1.76,0,0-5.3-30.46,21.22-40.82,5.86-1.21,12.24-1.88,18.9-1.88s13.47.72,19.49,2.01c22.8,10.46,17.95,40.69,17.95,40.69.5,1.03.99,2.06,1.46,3.08Z"/>
    <path class="cls-2" d="m193.97,150.23c12.68,26.23,18.38,50.23,14.51,68.88-1.38,6.66-3.68,12.14-6.63,16.64-6.36,9.7-15.77,14.87-25.57,17.5-7.16,1.92-14.54,2.49-21.09,2.49-5.05,0-10.58-.34-16.13-1.37-1.56-.29-3.11-.63-4.66-1.04-8.74-2.3-17.18-6.59-23.46-14.28-4.12-5.05-7.31-11.56-9.05-19.93-3.87-18.66,1.83-42.66,14.51-68.88"/>
    <path class="cls-2" d="m193.97,150.23c12.68,26.23,18.38,50.23,14.51,68.88-1.38,6.66-3.68,12.14-6.63,16.64-6.36,9.7-15.77,14.87-25.57,17.5-7.16,1.92-14.54,2.49-21.09,2.49-5.05,0-10.58-.34-16.13-1.37-1.56-.29-3.11-.63-4.66-1.04-8.74-2.3-17.18-6.59-23.46-14.28-4.12-5.05-7.31-11.56-9.05-19.93-3.87-18.66,1.83-42.66,14.51-68.88,0,0-7.37-42.38,38.79-44.16,46.15-1.78,38.79,44.16,38.79,44.16Z"/>
    <g class="cls-8">
      <path class="cls-12" d="m194.18,148.37c-10.55,7.19-24.14,11.52-38.97,11.52s-28.5-4.35-39.06-11.58c-.78-8.31-1.2-40.69,39.02-42.24,40.55-1.56,39.79,33.71,39,42.3Z"/>
    </g>
    <g class="cls-8">
      <path class="cls-12" d="m208.93,208.25c-7.2-2.98-18.29-2.75-21.92-2.58v-5.42c0-.98-.16-1.92-.44-2.8-1.14-3.51-4.34-6.05-8.08-6.05h-46.55c-4.69,0-8.52,3.98-8.52,8.86v5.38c-4.62-.16-15.34-.12-21.91,3.08-.26.13-.52.26-.77.4.11,3.48.49,6.82,1.15,10,.21,1.03.45,2.04.71,3.01,1.83,6.94,4.73,12.5,8.34,16.92,6.29,7.7,14.72,11.99,23.46,14.29,1.55.41,3.1.75,4.66,1.04,5.55,1.03,11.08,1.37,16.13,1.37,6.55,0,13.93-.57,21.09-2.49,9.8-2.63,19.21-7.8,25.57-17.5,2.53-3.85,4.57-8.41,5.97-13.81.24-.92.46-1.86.66-2.83.7-3.35,1.08-6.88,1.17-10.55-.23-.11-.47-.21-.72-.31Zm-7.09,19.15c-6.36,9.7-15.77,14.87-25.57,17.5-7.16,1.92-14.54,2.49-21.09,2.49-5.05,0-10.58-.34-16.13-1.37-1.56-.29-3.11-.63-4.66-1.04-8.74-2.3-17.18-6.59-23.46-14.29-2.13-2.6-4-5.6-5.56-9.04,4.65-.76,11.46-1.66,18.04-1.73v6.57c0,4.88,3.83,8.87,8.52,8.87h46.55c4.69,0,8.52-3.99,8.52-8.87v-6.59c6.43-.02,13.2.81,18.06,1.58-.95,2.14-2.04,4.11-3.22,5.91Z"/>
    </g>
    <path class="cls-12" d="m176.53,254.23c-12.36,4.75-30,4.73-42.4.08-1.14-.42-.7-2.14.51-1.95,8.58,1.16,17.21,1.6,25.87,1.29,5.2-.15,10.32-.63,15.49-1.37,1.17-.17,1.63,1.51.52,1.95h0Z"/>
    <path class="cls-12" d="m199.95,161.08c10.15,20.76,17.35,48.36,6.52,70.14-1.64,3.13-3.7,6.06-6.26,8.46-.85.78-2.18-.26-1.56-1.27,15.08-23.49,7.82-51.96-.56-76.56-.38-1.15,1.28-1.9,1.86-.77h0Z"/>
    <path class="cls-12" d="m112.27,161.86c-8.38,24.64-15.64,53.03-.56,76.56.61.97-.69,2.09-1.56,1.27-2.56-2.4-4.63-5.34-6.26-8.46-7.98-15.86-6.01-34.6-1.08-51.07,2.01-6.58,4.56-12.96,7.6-19.07.56-1.09,2.24-.43,1.86.77h0Z"/>
    <path class="cls-2" d="m183.86,200.79s17.24-1.31,24.49,3.91c7.71,5.55-.06,11.98-.06,11.98,0,0-13.88-3.03-25.54-2.6l1.11-13.29Z"/>
    <g class="cls-8">
      <path class="cls-12" d="m208.3,216.68s-13.89-3.03-25.54-2.6l.42-5.05c8.1-.25,17.19,1.13,21.9,1.98,2.5.45,5.04-.81,6.08-3.13.01-.02.02-.04.03-.07,2.28,4.59-2.89,8.87-2.89,8.87Z"/>
    </g>
    <path class="cls-11" d="m208.83,218.86l-.96-.21c-.14-.03-13.78-2.97-25.04-2.55l-2.27.08,1.44-17.26,1.71-.13c.73-.05,18.06-1.31,25.83,4.28,2.73,1.96,4.16,4.3,4.25,6.93.15,4.58-4.02,8.08-4.2,8.23l-.76.62Zm-23.7-6.83c9.39,0,19.32,1.82,22.54,2.47.91-.98,2.14-2.69,2.08-4.37-.05-1.32-.91-2.59-2.57-3.78-4.88-3.51-15.9-3.85-21.46-3.63l-.78,9.31h.18Z"/>
    <path class="cls-2" d="m127.6,200.79s-17.24-1.31-24.49,3.91c-7.71,5.55.06,11.98.06,11.98,0,0,13.88-3.03,25.54-2.6l-1.11-13.29Z"/>
    <g class="cls-8">
      <path class="cls-12" d="m103.16,216.68s13.89-3.03,25.54-2.6l-.42-5.05c-8.1-.25-17.19,1.13-21.9,1.98-2.5.45-5.04-.81-6.08-3.13-.01-.02-.02-.04-.03-.07-2.28,4.59,2.89,8.87,2.89,8.87Z"/>
    </g>
    <path class="cls-11" d="m102.64,218.86l-.76-.62c-.18-.15-4.35-3.65-4.2-8.23.09-2.63,1.52-4.97,4.25-6.93,7.76-5.59,25.09-4.34,25.82-4.28l1.71.13,1.44,17.26-2.27-.08c-11.25-.41-24.9,2.52-25.04,2.55l-.96.21Zm20.35-16.2c-5.89,0-14.54.68-18.7,3.68-1.66,1.19-2.52,2.47-2.57,3.78-.06,1.68,1.16,3.39,2.08,4.37,3.22-.65,13.15-2.47,22.54-2.47h.18l-.78-9.31c-.81-.03-1.74-.05-2.75-.05Z"/>
    <path class="cls-2" d="m184.98,195.66v24.55c0,4.56-3.59,8.28-7.97,8.28h-43.53c-4.39,0-7.97-3.73-7.97-8.28v-24.55c0-4.55,3.58-8.28,7.97-8.28h43.53c3.5,0,6.5,2.38,7.56,5.66.26.82.41,1.7.41,2.62Z"/>
    <g class="cls-8">
      <path class="cls-12" d="m184.98,195.66v24.55c0,4.56-3.59,8.28-7.97,8.28h-43.53c-4.39,0-7.97-3.73-7.97-8.28v-8.26c7.51,4.32,22.39,10.8,37.32,5.45,7.29-2.61,15.66-11.58,15.66-11.58,0,0,.32,9.4,1.67,9.25,3.73-.41,3.71-19.44,4.41-22.03.26.82.41,1.7.41,2.62Z"/>
    </g>
    <path class="cls-11" d="m177.3,230.5h-44.12c-5.34,0-9.69-4.35-9.69-9.69v-25.76c0-5.34,4.35-9.69,9.69-9.69h44.12c5.34,0,9.69,4.35,9.69,9.69v25.76c0,5.34-4.35,9.69-9.69,9.69Zm-44.12-41.1c-3.12,0-5.66,2.54-5.66,5.66v25.76c0,3.12,2.54,5.66,5.66,5.66h44.12c3.12,0,5.66-2.54,5.66-5.66v-25.76c0-3.12-2.54-5.66-5.66-5.66h-44.12Z"/>
    <ellipse class="cls-9" cx="170.66" cy="207.93" rx="6.87" ry="7.14"/>
    <path class="cls-2" d="m177.54,207.94c0,.49-.05.96-.14,1.42-.63-3.27-3.41-5.73-6.74-5.73s-6.11,2.46-6.74,5.73c-.09-.46-.14-.93-.14-1.42,0-3.94,3.08-7.14,6.87-7.14s6.88,3.2,6.88,7.14Z"/>
    <path class="cls-1" d="m177.54,207.93c0,3.95-3.08,7.14-6.87,7.14s-6.87-3.19-6.87-7.14c0-.66.09-1.31.25-1.91.81,3.01,3.47,5.22,6.62,5.22s5.82-2.21,6.62-5.22c.16.6.25,1.25.25,1.91Z"/>
    <path class="cls-11" d="m170.66,216.58c-4.62,0-8.38-3.88-8.38-8.65s3.76-8.65,8.38-8.65,8.38,3.88,8.38,8.65-3.76,8.65-8.38,8.65Zm0-14.28c-2.96,0-5.36,2.52-5.36,5.63s2.41,5.63,5.36,5.63,5.36-2.52,5.36-5.63-2.41-5.63-5.36-5.63Z"/>
    <path class="cls-11" d="m148.91,230.5c-1.11,0-2.01-.9-2.01-2.01v-12.56c0-2.48-1.13-4.84-3.03-6.32l-1.1-.86c-2.86-2.24-4.57-5.79-4.57-9.5v-11.85c0-1.11.9-2.01,2.01-2.01s2.01.9,2.01,2.01v11.85c0,2.48,1.13,4.84,3.03,6.32l1.1.86c2.86,2.24,4.57,5.79,4.57,9.5v12.56c0,1.11-.9,2.01-2.01,2.01Z"/>
    <g>
      <polygon class="cls-4" points="155.22 92.01 155.22 92.29 155.04 92.15 155.22 92.01"/>
      <polygon class="cls-4" points="155.04 92.15 154.86 92.29 154.86 92.01 155.04 92.15"/>
      <circle class="cls-2" cx="155.45" cy="78.22" r="75.95"/>
      <g class="cls-8">
        <path class="cls-12" d="m231.41,78.22c0,41.95-34,75.95-75.95,75.95s-75.96-34-75.96-75.95c0-4.43.38-8.77,1.11-12.99,6.16,35.76,37.33,62.96,74.85,62.96s68.68-27.2,74.84-62.96c.73,4.22,1.11,8.56,1.11,12.99Z"/>
      </g>
      <path class="cls-12" d="m155.45,156.09c-42.93,0-77.86-34.93-77.86-77.86S112.52.36,155.45.36s77.86,34.93,77.86,77.86-34.93,77.86-77.86,77.86Zm0-151.91c-40.83,0-74.04,33.22-74.04,74.04s33.22,74.04,74.04,74.04,74.04-33.22,74.04-74.04S196.28,4.18,155.45,4.18Z"/>
      <path class="cls-12" d="m155.45,156.09c-42.93,0-77.86-34.93-77.86-77.86S112.52.36,155.45.36s77.86,34.93,77.86,77.86-34.93,77.86-77.86,77.86Zm0-151.91c-40.83,0-74.04,33.22-74.04,74.04s33.22,74.04,74.04,74.04,74.04-33.22,74.04-74.04S196.28,4.18,155.45,4.18Z"/>
      <path class="cls-12" d="m155.45,156.09c-42.93,0-77.86-34.93-77.86-77.86S112.52.36,155.45.36s77.86,34.93,77.86,77.86-34.93,77.86-77.86,77.86Zm0-151.91c-40.83,0-74.04,33.22-74.04,74.04s33.22,74.04,74.04,74.04,74.04-33.22,74.04-74.04S196.28,4.18,155.45,4.18Z"/>
      <path class="cls-12" d="m155.45,156.45c-35.1,0-65.8-23.31-75.28-56.91h-.02l-.44-1.7c-1.65-6.36-2.48-12.95-2.48-19.61,0-2.95.17-5.9.49-8.76C82.13,29.87,115.54,0,155.45,0s73.34,29.87,77.74,69.49c.32,2.87.49,5.81.49,8.73,0,6.65-.83,13.25-2.47,19.61l-.47,1.7c-9.48,33.6-40.19,56.91-75.29,56.91Zm-71.26-59.47c8.48,32.35,37.75,54.93,71.26,54.93s62.78-22.57,71.27-54.92v-1.98h.5c1.27-5.47,1.91-11.1,1.91-16.78,0-2.75-.15-5.52-.46-8.23-4.14-37.31-35.62-65.45-73.22-65.45s-69.07,28.13-73.21,65.43c-.31,2.7-.46,5.47-.46,8.25,0,5.68.64,11.31,1.92,16.77h.49v1.99Z"/>
      <path class="cls-12" d="m228.76,60.21c-.74,0-1.44-.44-1.75-1.15-11.98-27.82-40.07-45.8-71.55-45.8s-59.54,17.96-71.54,45.76c-.4.92-1.44,1.38-2.38,1.05-.95-.33-1.48-1.34-1.21-2.3C89.49,23.96,120.38.36,155.45.36s66,23.62,75.15,57.45c.26.97-.27,1.97-1.21,2.3-.21.07-.42.11-.63.11ZM155.45,9.44c23.24,0,44.72,9.36,59.79,25.09-13.65-18.63-35.68-30.35-59.79-30.35s-46.11,11.72-59.77,30.34c15.07-15.72,36.55-25.07,59.77-25.07Z"/>
      <path class="cls-12" d="m231.4,78.23c0,6.57-.83,12.96-2.4,19.04,0,0,0,0,0,0-13.18,25.46-41.16,47.36-73.54,47.36s-60.36-21.9-73.54-47.36c0,0,0,0,0,0-1.58-6.08-2.41-12.47-2.41-19.04,0-2.87.16-5.71.48-8.5,10.25-28.35,40.16-48.86,75.47-48.86s65.24,20.53,75.48,48.89c.31,2.78.47,5.62.47,8.48Z"/>
      <g class="cls-6">
        <path class="cls-3" d="m231.41,78.23c0,6.57-.83,12.96-2.4,19.04,0,0,0,0,0,0-13.18,25.46-41.16,47.36-73.54,47.36s-60.36-21.9-73.54-47.36c0,0,0,0,0,0-.94-3.62-1.61-7.35-2.01-11.17,17.03,19.13,41.79,33.05,69.36,33.05,35.12,0,65.71-22.59,81.53-49.77.05.12.1.24.14.37.31,2.78.47,5.62.47,8.48Z"/>
      </g>
      <g class="cls-7">
        <ellipse class="cls-2" cx="209.1" cy="78.24" rx="12.38" ry="8.97" transform="translate(98.74 272.31) rotate(-80.89)"/>
      </g>
      <g class="cls-7">
        <ellipse class="cls-2" cx="198.61" cy="102.98" rx="5.68" ry="4.88" transform="translate(41.92 262.66) rotate(-72.95)"/>
      </g>
      <g class="cls-7">
        <path class="cls-2" d="m96.95,104.56s-13.23-39.34,7.79-55.55c21.02-16.21,51.72-16.77,51.04-14.78,0,0-33.82,8.92-46.57,36.05-9.83,20.93-12.25,34.28-12.25,34.28Z"/>
      </g>
    </g>
  </g>
  <path class="cls-10" d="m49.48,172.26l8.9.03c.62,0,1.12.69,1.12,1.53v4.06c-.01.84-.52,1.52-1.14,1.52l-18.95-.06c-.62,0-1.12-.69-1.12-1.53v-4.06c.01-.84.52-1.52,1.14-1.52h1.01c.62,0,1.13-.68,1.13-1.52v-3.46c.01-.84-.49-1.53-1.11-1.53h-1.01c-.62,0-1.12-.69-1.12-1.53v-2.25c0-.84.52-1.52,1.14-1.52h2.13s0-.27,0-.27c0-2.97.48-5.5,1.41-7.57.93-2.07,2.27-3.66,4.01-4.75,1.74-1.09,3.85-1.64,6.32-1.63,1.42,0,2.72.19,3.89.55.77.24,1.49.54,2.14.92.55.32.81,1.18.59,1.94l-1.2,4.21c-.22.79-.88,1.19-1.46.87-.41-.22-.83-.39-1.26-.52-.81-.24-1.61-.35-2.39-.35-1.67,0-2.96.5-3.88,1.52-.92,1.02-1.38,2.57-1.39,4.64v.46s6.63.02,6.63.02c.62,0,1.12.69,1.12,1.53v2.25c0,.84-.52,1.52-1.14,1.52l-5.5-.02c-.62,0-1.13.68-1.13,1.52v3.46c-.01.84.49,1.53,1.11,1.53Z"/>
  <path class="cls-10" d="m267.83,171.1l9.56.03c.67,0,1.21.74,1.2,1.64v4.36c-.02.9-.56,1.64-1.23,1.63l-20.36-.07c-.67,0-1.21-.74-1.2-1.64v-4.36c.02-.9.56-1.64,1.23-1.63h1.08c.67,0,1.21-.73,1.21-1.63v-3.71c.01-.9-.53-1.64-1.19-1.64h-1.08c-.67,0-1.21-.74-1.2-1.65v-2.41c.01-.9.55-1.64,1.22-1.63h2.29s0-.29,0-.29c0-3.19.52-5.91,1.52-8.13,1-2.23,2.44-3.93,4.31-5.1,1.87-1.17,4.13-1.76,6.79-1.75,1.52,0,2.92.2,4.18.59.83.26,1.6.59,2.29.99.59.34.87,1.27.64,2.09l-1.29,4.52c-.24.85-.95,1.28-1.57.94-.44-.24-.89-.42-1.35-.56-.87-.25-1.73-.38-2.56-.38-1.79,0-3.18.54-4.17,1.63-.99,1.1-1.48,2.76-1.49,4.99v.5s7.12.02,7.12.02c.67,0,1.21.74,1.2,1.64v2.41c-.01.9-.55,1.64-1.22,1.63l-5.91-.02c-.67,0-1.21.73-1.21,1.63v3.71c-.01.9.53,1.64,1.19,1.64Z"/>
</svg>