<?xml version="1.0" encoding="UTF-8"?>
<svg id="Layer_1" data-name="Layer 1" xmlns="http://www.w3.org/2000/svg" viewBox="0 0 2611.99 3251.37">
  <defs>
    <style>
      .cls-1 {
        fill: #fff;
      }

      .cls-2 {
        fill: #111a28;
      }

      .cls-3 {
        fill: #a0a3a8;
      }

      .cls-4 {
        opacity: .7;
      }

      .cls-4, .cls-5, .cls-6, .cls-7 {
        fill: none;
      }

      .cls-8 {
        fill: #0096f0;
      }

      .cls-5 {
        opacity: .6;
      }

      .cls-6 {
        opacity: .5;
      }

      .cls-9 {
        fill: #371a45;
      }

      .cls-7 {
        opacity: .25;
      }
    </style>
  </defs>
  <g class="cls-7">
    <ellipse class="cls-9" cx="1257.05" cy="3166.52" rx="1081.71" ry="84.85"/>
  </g>
  <g>
    <rect class="cls-8" x="1137.18" y="2845.39" width="315.16" height="315.16" rx="157.58" ry="157.58" transform="translate(2589.52 6005.95) rotate(180)"/>
    <g class="cls-5">
      <path class="cls-1" d="m1368.65,2908.27c28.58,28.58,46.31,68,46.31,111.32,0,56.78-30.45,106.78-75.8,134.56,65.22-19.28,113.19-79.86,113.19-151.17,0-43.38-17.73-82.74-46.31-111.32-28.53-28.52-67.95-46.26-111.27-46.26-29.86,0-57.9,8.44-81.78,23.02,14.1-4.17,29.01-6.41,44.39-6.41,43.32,0,82.74,17.73,111.27,46.26Z"/>
    </g>
    <rect class="cls-9" x="1224.67" y="2934.96" width="137.82" height="137.82" rx="68.91" ry="68.91" transform="translate(2587.17 6007.74) rotate(-180)"/>
    <g class="cls-5">
      <path class="cls-1" d="m1213,3012.76c0,18.94,7.74,36.19,20.27,48.68,12.45,12.49,29.7,20.23,48.64,20.23s34.81-7.16,47.17-18.76c-10.4,6.27-22.54,9.87-35.48,9.87-18.98,0-36.19-7.74-48.68-20.23-12.49-12.49-20.23-29.74-20.23-48.68s7.74-36.19,20.23-48.68c.49-.49.98-.98,1.51-1.47-4.8,2.93-9.2,6.4-13.16,10.36-12.54,12.49-20.27,29.74-20.27,48.68Z"/>
    </g>
    <path class="cls-9" d="m1294.76,3181.93c98.67,0,178.95-80.28,178.95-178.95s-80.27-178.95-178.95-178.95-178.95,80.28-178.95,178.95,80.28,178.95,178.95,178.95Zm0-315.16c75.11,0,136.21,61.11,136.21,136.21s-61.1,136.22-136.21,136.22-136.22-61.11-136.22-136.22,61.11-136.21,136.22-136.21Z"/>
    <path class="cls-3" d="m1167.43,2843.63c0,25.05,3.74,47.06,10.26,65.92,43.32,125.16,209.77,115.59,234.24-28.63,1.98-11.54,3.04-23.98,3.04-37.29h-247.54Z"/>
    <path class="cls-9" d="m1291.2,3018.11c72.11,0,145.12-59.94,145.12-174.5,0-11.8-9.57-21.37-21.37-21.37s-21.37,9.57-21.37,21.37c0,90.53-53.07,131.77-102.38,131.77s-102.38-41.24-102.38-131.77c0-11.8-9.57-21.37-21.37-21.37s-21.37,9.57-21.37,21.37c0,114.56,73,174.5,145.12,174.5Z"/>
    <g class="cls-7">
      <path class="cls-9" d="m1167.43,2843.63c0,25.05,3.74,47.06,10.26,65.92l234.24-28.63c1.98-11.54,3.04-23.98,3.04-37.29h-247.54Z"/>
    </g>
  </g>
  <path class="cls-1" d="m1728.89,1605.57s21.91,94.44,103.32,188.83c17.17,19.91,76.84,20.36,95.17,41.57,118.13,136.76,251.27,290.14,284.25,325.03,19.07,20.14,50.27,22.65,72.27,5.77l212.87-163.14,79.16-60.68c11.38-8.71,16.88-23.18,13.89-37.23-27.3-129.64-129.86-159.5-251.06-111.32-126.97-229.96-282.47-308.01-462.33-256.46-47.49,13.62-96.74,36.32-147.54,67.63Z"/>
  <g>
    <rect class="cls-8" x="568.2" y="2845.39" width="315.16" height="315.16" rx="157.58" ry="157.58" transform="translate(1451.57 6005.95) rotate(-180)"/>
    <g class="cls-5">
      <path class="cls-1" d="m799.68,2908.27c28.58,28.58,46.31,68,46.31,111.32,0,56.78-30.45,106.78-75.8,134.56,65.22-19.28,113.19-79.86,113.19-151.17,0-43.38-17.73-82.74-46.31-111.32-28.53-28.52-67.95-46.26-111.27-46.26-29.86,0-57.9,8.44-81.78,23.02,14.1-4.17,29.01-6.41,44.39-6.41,43.32,0,82.74,17.73,111.27,46.26Z"/>
    </g>
    <rect class="cls-9" x="655.7" y="2934.96" width="137.82" height="137.82" rx="68.91" ry="68.91" transform="translate(1449.22 6007.74) rotate(-180)"/>
    <g class="cls-5">
      <path class="cls-1" d="m644.02,3012.76c0,18.94,7.74,36.19,20.27,48.68,12.45,12.49,29.7,20.23,48.64,20.23s34.81-7.16,47.17-18.76c-10.4,6.27-22.54,9.87-35.48,9.87-18.98,0-36.19-7.74-48.68-20.23-12.49-12.49-20.23-29.74-20.23-48.68s7.74-36.19,20.23-48.68c.49-.49.98-.98,1.51-1.47-4.8,2.93-9.2,6.4-13.16,10.36-12.54,12.49-20.27,29.74-20.27,48.68Z"/>
    </g>
    <path class="cls-9" d="m725.79,3181.93c98.67,0,178.95-80.28,178.95-178.95s-80.27-178.95-178.95-178.95-178.95,80.28-178.95,178.95,80.28,178.95,178.95,178.95Zm0-315.16c75.11,0,136.21,61.11,136.21,136.21s-61.1,136.22-136.21,136.22-136.22-61.11-136.22-136.22,61.11-136.21,136.22-136.21Z"/>
    <path class="cls-3" d="m598.46,2843.63c0,25.05,3.74,47.06,10.26,65.92,43.32,125.16,209.77,115.59,234.24-28.63,1.98-11.54,3.04-23.98,3.04-37.29h-247.54Z"/>
    <path class="cls-9" d="m722.22,3018.11c72.11,0,145.12-59.94,145.12-174.5,0-11.8-9.57-21.37-21.37-21.37s-21.37,9.57-21.37,21.37c0,90.53-53.07,131.77-102.38,131.77s-102.38-41.24-102.38-131.77c0-11.8-9.57-21.37-21.37-21.37s-21.37,9.57-21.37,21.37c0,114.56,73,174.5,145.12,174.5Z"/>
    <g class="cls-7">
      <path class="cls-9" d="m598.46,2843.63c0,25.05,3.74,47.06,10.26,65.92l234.24-28.63c1.98-11.54,3.04-23.98,3.04-37.29h-247.54Z"/>
    </g>
  </g>
  <g>
    <rect class="cls-8" x="1258.82" y="2845.39" width="315.16" height="315.16" rx="157.58" ry="157.58" transform="translate(2832.81 6005.95) rotate(-180)"/>
    <g class="cls-5">
      <path class="cls-1" d="m1490.3,2908.27c28.58,28.58,46.31,68,46.31,111.32,0,56.78-30.45,106.78-75.8,134.56,65.22-19.28,113.19-79.86,113.19-151.17,0-43.38-17.73-82.74-46.31-111.32-28.53-28.52-67.95-46.26-111.27-46.26-29.86,0-57.9,8.44-81.78,23.02,14.1-4.17,29.01-6.41,44.39-6.41,43.32,0,82.74,17.73,111.27,46.26Z"/>
    </g>
    <rect class="cls-9" x="1346.32" y="2934.96" width="137.82" height="137.82" rx="68.91" ry="68.91" transform="translate(2830.46 6007.74) rotate(-180)"/>
    <g class="cls-5">
      <path class="cls-1" d="m1334.64,3012.76c0,18.94,7.74,36.19,20.27,48.68,12.45,12.49,29.7,20.23,48.64,20.23s34.81-7.16,47.17-18.76c-10.4,6.27-22.54,9.87-35.48,9.87-18.98,0-36.19-7.74-48.68-20.23-12.49-12.49-20.23-29.74-20.23-48.68s7.74-36.19,20.23-48.68c.49-.49.98-.98,1.51-1.47-4.8,2.93-9.2,6.4-13.16,10.36-12.54,12.49-20.27,29.74-20.27,48.68Z"/>
    </g>
    <path class="cls-9" d="m1416.41,3181.93c98.67,0,178.95-80.28,178.95-178.95s-80.28-178.95-178.95-178.95-178.95,80.28-178.95,178.95,80.28,178.95,178.95,178.95Zm0-315.16c75.11,0,136.22,61.11,136.22,136.21s-61.11,136.22-136.22,136.22-136.22-61.11-136.22-136.22,61.11-136.21,136.22-136.21Z"/>
    <path class="cls-3" d="m1289.08,2843.63c0,25.05,3.74,47.06,10.26,65.92,43.32,125.16,209.77,115.59,234.24-28.63,1.98-11.54,3.04-23.98,3.04-37.29h-247.54Z"/>
    <path class="cls-9" d="m1412.85,3018.11c72.11,0,145.12-59.94,145.12-174.5,0-11.8-9.57-21.37-21.37-21.37s-21.37,9.57-21.37,21.37c0,90.53-53.07,131.77-102.38,131.77s-102.39-41.24-102.39-131.77c0-11.8-9.57-21.37-21.37-21.37s-21.37,9.57-21.37,21.37c0,114.56,73,174.5,145.12,174.5Z"/>
    <g class="cls-7">
      <path class="cls-9" d="m1289.08,2843.63c0,25.05,3.74,47.06,10.26,65.92l234.24-28.63c1.98-11.54,3.04-23.98,3.04-37.29h-247.54Z"/>
    </g>
  </g>
  <g>
    <rect class="cls-8" x="1839.22" y="2845.39" width="315.16" height="315.16" rx="157.58" ry="157.58" transform="translate(3993.6 6005.95) rotate(-180)"/>
    <g class="cls-5">
      <path class="cls-1" d="m2070.7,2908.27c28.58,28.58,46.31,68,46.31,111.32,0,56.78-30.45,106.78-75.8,134.56,65.22-19.28,113.19-79.86,113.19-151.17,0-43.38-17.73-82.74-46.31-111.32-28.53-28.52-67.95-46.26-111.27-46.26-29.86,0-57.9,8.44-81.78,23.02,14.1-4.17,29.01-6.41,44.39-6.41,43.32,0,82.74,17.73,111.27,46.26Z"/>
    </g>
    <rect class="cls-9" x="1926.71" y="2934.96" width="137.82" height="137.82" rx="68.91" ry="68.91" transform="translate(3991.25 6007.74) rotate(180)"/>
    <g class="cls-5">
      <path class="cls-1" d="m1915.04,3012.76c0,18.94,7.74,36.19,20.27,48.68,12.45,12.49,29.7,20.23,48.64,20.23s34.81-7.16,47.17-18.76c-10.4,6.27-22.54,9.87-35.48,9.87-18.98,0-36.19-7.74-48.68-20.23-12.49-12.49-20.23-29.74-20.23-48.68s7.74-36.19,20.23-48.68c.49-.49.98-.98,1.51-1.47-4.8,2.93-9.2,6.4-13.16,10.36-12.54,12.49-20.27,29.74-20.27,48.68Z"/>
    </g>
    <path class="cls-9" d="m1996.8,3181.93c98.67,0,178.95-80.28,178.95-178.95s-80.28-178.95-178.95-178.95-178.95,80.28-178.95,178.95,80.28,178.95,178.95,178.95Zm0-315.16c75.11,0,136.22,61.11,136.22,136.21s-61.11,136.22-136.22,136.22-136.22-61.11-136.22-136.22,61.11-136.21,136.22-136.21Z"/>
    <path class="cls-3" d="m1869.47,2843.63c0,25.05,3.74,47.06,10.26,65.92,43.32,125.16,209.77,115.59,234.24-28.63,1.98-11.54,3.04-23.98,3.04-37.29h-247.54Z"/>
    <path class="cls-9" d="m1993.24,3018.11s0,0,0,0c72.11,0,145.12-59.94,145.12-174.5,0-11.8-9.57-21.37-21.37-21.37s-21.37,9.57-21.37,21.37c0,90.53-53.07,131.76-102.38,131.77-49.31,0-102.39-41.23-102.39-131.77,0-11.8-9.57-21.37-21.37-21.37h0c-11.8,0-21.37,9.57-21.37,21.37,0,114.55,73.01,174.5,145.12,174.5Z"/>
    <g class="cls-7">
      <path class="cls-9" d="m1869.47,2843.63c0,25.05,3.74,47.06,10.26,65.92l234.24-28.63c1.98-11.54,3.04-23.98,3.04-37.29h-247.54Z"/>
    </g>
  </g>
  <g class="cls-7">
    <path class="cls-9" d="m1728.89,1605.57l83.28,96.52,14.38,85.63,74.1,16.92,72.19,83.67c45.19,65.6,176.44,206.73,238.78,272.7,19.07,20.14,50.27,22.65,72.27,5.77l212.87-163.14c-1.07-4.01-1.76-6.25-1.76-6.25,0,0-188.3,42.73-225.69-33.39-37.39-76.12-177.61-224.35-312.49-252.83-134.88-28.52-80.39-173.18-80.39-173.18v-.05c-47.49,13.62-96.74,36.32-147.54,67.63Z"/>
  </g>
  <path class="cls-9" d="m2093.05,1813.11c2.56,0,5.16-.53,7.65-1.65,99.76-44.8,162.03-133.65,164.63-137.41,5.87-8.49,3.75-20.14-4.74-26.01-8.49-5.87-20.13-3.76-26.01,4.72-.68.98-59.27,84.2-149.21,124.59-9.42,4.23-13.62,15.3-9.39,24.71,3.12,6.93,9.93,11.04,17.07,11.04Z"/>
  <path class="cls-9" d="m2250.94,2199.38c16.08,0,32.25-5.14,45.95-15.64l292.06-223.8c17.87-13.7,26.43-36.71,21.8-58.63-12.97-61.56-43.27-106.67-87.6-130.46-46.94-25.18-107.05-26.08-174.73-2.82-81.48-141.48-177.48-227.55-285.53-255.96-103.69-27.25-219.82-1.92-345.19,75.31-10.05,6.19-13.17,19.35-6.99,29.4,6.19,10.05,19.36,13.18,29.4,6.99,115.03-70.86,219.99-94.55,311.91-70.36,100.33,26.38,190.51,110.94,268.03,251.33,5.21,9.42,16.6,13.5,26.6,9.53,62.75-24.95,116.81-26.93,156.29-5.74,33.35,17.89,55.55,52.08,65.99,101.61,1.25,5.92-1.1,12.15-5.98,15.89l-292.06,223.79c-13.37,10.25-32.17,8.75-43.74-3.48-56.18-59.45-191.71-204.78-236.72-270.13-6.69-9.72-20-12.17-29.72-5.48-9.72,6.69-12.17,20-5.48,29.72,45.02,65.35,170.23,200.5,240.86,275.23,14.79,15.66,34.75,23.69,54.83,23.69Z"/>
  <path class="cls-3" d="m457.12,1309.64h-145.56s-65.88,40.95-48.08,104.16c17.81,63.21,103.83,61.43,103.83,61.43h156.14s29.68-107.12,29.68-107.12"/>
  <path class="cls-1" d="m551.94,1612.14l8.33,62.98,43.16,324.89c193,328.57,511.85,98.39,511.85,98.39l-158.49-447.85-4.22-11.86s-208.33-396.04-342.51-327.13c-134.18,68.96-58.12,300.58-58.12,300.58Z"/>
  <path class="cls-9" d="m878.35,2198.2c133.42,0,244.06-78.61,249.42-82.48,9.57-6.91,11.72-20.27,4.81-29.83-6.9-9.56-20.24-11.73-29.81-4.83h0c-1.38.99-139.36,98.61-281.47,68.57-78.6-16.61-144.96-69.35-197.28-156.78l-50.9-383.54c-.18-1.31-.47-2.6-.88-3.86-.69-2.13-68.74-215.11,47.58-274.87,84.06-43.18,237.08,172.2,313.84,318.07,5.5,10.44,18.41,14.46,28.86,8.96,10.44-5.5,14.45-18.41,8.96-28.85-2.16-4.11-53.71-101.64-122.85-192.41-98.57-129.41-182.1-177.8-248.34-143.77-143.35,73.64-77.22,299.03-69.29,324.25l51.23,385.98c.38,2.83,1.31,5.55,2.76,8.01,59.06,100.55,135.7,161.34,227.79,180.7,22.21,4.67,44.18,6.69,65.57,6.69Z"/>
  <g class="cls-7">
    <path class="cls-9" d="m560.27,1675.12l43.16,324.89c193,328.57,511.85,98.39,511.85,98.39l-158.49-447.85-36.27-13.73s-180.5,102.51-360.25,38.3Z"/>
  </g>
  <path class="cls-1" d="m800.33,1837.14c51.81,220.52,424.67,459.39,656.59,233.7,0,0-3.61-180.53-25.62-206.45-22.01-25.92-18.89-73.88-67.72-106.04-48.83-32.17-298.83-2.67-400.32,0"/>
  <g class="cls-5">
    <path class="cls-1" d="m480.65,1345.03h-154.4s-36.32-.56-50.21,25.93c0,0,8.15-36.61,29.51-45.29,21.37-8.68,47.41-4.67,47.41-4.67l103.16-.92"/>
  </g>
  <g class="cls-7">
    <path class="cls-9" d="m800.33,1837.14c51.81,220.52,424.67,459.39,656.59,233.7,0,0-3.61-180.53-25.62-206.45-22.01-25.92-18.89-73.88-67.72-106.04-48.83-32.17-298.83-2.67-400.32,0"/>
  </g>
  <path class="cls-9" d="m1239.04,2179.16c88.6,0,168.74-31.51,232.68-92.91,8.51-8.17,8.78-21.7.61-30.21-8.17-8.51-21.69-8.79-30.21-.61-80.42,77.22-191.11,100.11-311.66,64.46-148.11-43.79-281.09-167.44-309.33-287.63-2.7-11.49-14.2-18.6-25.69-15.91-11.49,2.7-18.61,14.2-15.91,25.69,31.47,133.96,177.13,271.04,338.81,318.84,41.42,12.24,81.87,18.3,120.7,18.3Z"/>
  <g>
    <path class="cls-9" d="m2154.42,2394.02c9.67,0,18.44-6.62,20.77-16.44l114.92-484.32c2.72-11.48-4.38-23-15.86-25.73-11.44-2.71-22.99,4.38-25.72,15.86l-114.92,484.32c-2.72,11.48,4.38,23,15.86,25.73,1.66.39,3.32.58,4.95.58Z"/>
    <path class="cls-9" d="m2004.82,2388.68c7.39,0,14.03-5.14,15.65-12.66l104.23-484.32c1.86-8.65-3.64-17.18-12.3-19.04-8.65-1.87-17.17,3.65-19.04,12.29l-104.23,484.32c-1.86,8.65,3.64,17.18,12.3,19.04,1.13.24,2.27.36,3.38.36Z"/>
    <path class="cls-9" d="m1843.19,2388.68c7.67,0,14.44-5.52,15.78-13.33l82.86-484.32c1.49-8.72-4.37-17.01-13.1-18.5-8.72-1.47-17,4.37-18.5,13.09l-82.86,484.32c-1.49,8.72,4.37,17.01,13.1,18.5.91.16,1.82.23,2.72.23Z"/>
    <path class="cls-9" d="m1381.64,2388.67c8.33,0,15.36-6.44,15.97-14.88l34.79-484.32c.63-8.83-6.01-16.5-14.84-17.13-8.79-.68-16.49,6.01-17.13,14.84l-34.79,484.32c-.63,8.83,6.01,16.5,14.84,17.13.39.03.78.04,1.16.04Z"/>
    <path class="cls-9" d="m1133.32,2388.67c8.56,0,15.67-6.77,16.01-15.41l18.76-484.32c.34-8.84-6.55-16.29-15.4-16.63-8.68-.28-16.29,6.55-16.64,15.39l-18.76,484.32c-.34,8.84,6.55,16.29,15.4,16.63.21,0,.42.01.63.01Z"/>
    <path class="cls-9" d="m879.06,2388.67c8.81,0,15.98-7.11,16.03-15.93l2.73-484.32c.05-8.85-7.09-16.06-15.93-16.12h-.09c-8.81,0-15.98,7.11-16.03,15.94l-2.73,484.32c-.05,8.85,7.08,16.06,15.93,16.12h.09Z"/>
    <polyline class="cls-3" points="1687.48 2372.65 1770.34 1888.33 1701.37 1888.33 1619.4 2372.65"/>
    <path class="cls-9" d="m1687.5,2388.68c7.67,0,14.44-5.52,15.78-13.33l82.86-484.32c.8-4.66-.5-9.42-3.54-13.03-3.05-3.61-7.53-5.69-12.25-5.69h-68.97c-7.82,0-14.5,5.64-15.8,13.35l-81.97,484.32c-1.47,8.73,4.4,17,13.12,18.47,8.76,1.47,17-4.4,18.48-13.13l79.71-470.97h36.43l-79.66,465.59c-1.49,8.72,4.37,17.01,13.1,18.5.91.16,1.82.23,2.72.23Z"/>
    <path class="cls-3" d="m650.76,2100.22h1579.82c16.96,0,30.72,13.75,30.72,30.72h0c0,16.96-13.75,30.72-30.72,30.72H650.76"/>
    <path class="cls-9" d="m650.76,2175h1579.82c24.3,0,44.07-19.77,44.07-44.07s-19.77-44.07-44.07-44.07H650.76c-7.38,0-13.35,5.98-13.35,13.35s5.98,13.35,13.35,13.35h1579.82c9.58,0,17.36,7.79,17.36,17.36s-7.79,17.36-17.36,17.36H650.76c-7.38,0-13.35,5.98-13.35,13.35s5.98,13.35,13.35,13.35Z"/>
    <path class="cls-3" d="m987.29,2724.3h127.99c-48.24-49.95-30.55-113.41-3.31-162.02,24.25-43.27,56.14-74.78,56.14-74.78h-111.38c-29.06,21.69-47.75,47.86-59.51,74.78-34.03,77.94-9.94,162.02-9.94,162.02Z"/>
    <path class="cls-3" d="m407.71,1479.69h97.04s97.81,134.43,128.14,314.72h1658.9c25.94,0,46.96,21.03,46.96,46.96h0c0,25.94-21.03,46.96-46.96,46.96H686.82c-19.91,0-36.06,16.14-36.06,36.06v412.21c0,19.91,16.14,36.06,36.06,36.06h1467.58c31.71,0,57.42,25.71,57.42,57.42h0c0,31.71-25.71,57.42-57.42,57.42H703.79c-28.19,0-53.53,17.12-64.02,43.28-14.63,36.49-32.88,90.37-36.23,138.83-2.08,30.09,21.18,54.71,51.33,54.71h1574.38c32.94,0,59.65,26.71,59.65,59.65h0c0,32.94-26.71,59.65-59.65,59.65H622.32c-52.28,0-101.72-25.09-131.47-68.08-18.84-27.23-30.47-53.19-19.93-99.29,28.49-124.64,74.78-242.16,74.78-242.16v-594.72s-51.1-243.22-157.31-337.06"/>
    <g class="cls-7">
      <path class="cls-9" d="m686.82,1901.22h1604.98c12.98,0,24.68-5.23,33.17-13.73,8.55-8.49,13.78-20.25,13.78-33.23,0-8.76-2.4-16.99-6.62-23.98-2.03,3.36-4.43,6.41-7.16,9.13-8.49,8.49-20.19,13.73-33.17,13.73H686.82c-19.92,0-36.06,16.19-36.06,36.06v48.08c0-19.87,16.13-36.06,36.06-36.06Z"/>
    </g>
    <g class="cls-7">
      <path class="cls-9" d="m639.76,2482.69c-14.64,36.48-32.85,90.38-36.22,138.83-.53,7.75.59,15.12,3.15,21.85,6.57-40.81,21.05-82.58,33.07-112.6,10.47-26.17,35.84-43.27,64.05-43.27h1450.61c15.86,0,30.18-6.41,40.6-16.83,10.42-10.36,16.83-24.73,16.83-40.6,0-8.6-1.87-16.72-5.29-24.04-2.83,6.2-6.78,11.81-11.54,16.56-10.42,10.42-24.73,16.83-40.6,16.83H703.81c-28.2,0-53.58,17.09-64.05,43.27Z"/>
    </g>
    <g class="cls-7">
      <path class="cls-9" d="m469.46,2683.17c-7.85,41.83,3.53,66.5,21.37,92.36,29.75,43,79.22,68.11,131.51,68.11h1606.91c16.45,0,31.41-6.68,42.2-17.47,10.79-10.79,17.47-25.75,17.47-42.2,0-8.55-1.82-16.67-5.07-24.04-2.99,6.84-7.21,12.98-12.39,18.16-10.79,10.79-25.75,17.47-42.2,17.47H622.34c-52.3,0-101.76-25.11-131.51-68.11-9.72-14.1-17.52-27.88-21.37-44.28Z"/>
    </g>
    <g class="cls-7">
      <path class="cls-9" d="m470.91,2628.14c-5.08,22.22-4.97,39.74-1.44,55.02.43-2.24.91-4.59,1.44-6.94,28.52-124.62,74.78-242.14,74.78-242.14v-48.08s-46.26,117.52-74.78,242.14Z"/>
    </g>
    <g class="cls-5">
      <path class="cls-1" d="m2208.95,2448.13c1.87-5.66,2.88-11.75,2.88-18.06,0-31.73-25.75-57.42-57.42-57.42H686.82c-19.92,0-36.06-16.13-36.06-36.06v36.06c0,19.92,16.13,36.06,36.06,36.06h1467.59c25.43,0,47.01,16.51,54.54,39.42Z"/>
    </g>
    <g class="cls-5">
      <path class="cls-1" d="m603.54,2705.65c-2.08,30.07,21.15,54.7,51.33,54.7h1574.38c26.71,0,49.3,17.52,56.89,41.67,1.82-5.72,2.78-11.75,2.78-18.06,0-32.96-26.71-59.67-59.67-59.67H654.88c-23.88,0-43.38-15.38-49.46-36.75-.8,6.09-1.44,12.13-1.87,18.11Z"/>
    </g>
    <g class="cls-5">
      <path class="cls-1" d="m610.06,1735.11c9.24,29.81,17.2,61.75,22.86,95.35h1658.88c19.55,0,36.32,11.97,43.38,28.95,2.3-5.55,3.58-11.64,3.58-18.05,0-25.91-21.05-46.95-46.95-46.95H632.92c-3.69-21.85-8.33-43.05-13.73-63.41-2.99,1.44-6.04,2.78-9.13,4.11Z"/>
    </g>
    <path class="cls-9" d="m622.32,2864.98h1606.93c44.67,0,81.02-36.34,81.02-81.02s-36.34-81.02-81.02-81.02H654.87c-8.69,0-16.59-3.34-22.26-9.42-5.59-5.99-8.34-13.96-7.75-22.44,3.15-45.61,20.63-97.15,34.75-132.35,7.27-18.14,24.61-29.87,44.18-29.87h1450.62c43.45,0,78.79-35.35,78.79-78.79s-35.35-78.79-78.79-78.79H686.82c-8.1,0-14.69-6.59-14.69-14.69v-412.2c0-8.1,6.59-14.69,14.69-14.69h1604.97c37.68,0,68.33-30.65,68.33-68.33s-30.65-68.33-68.33-68.33H650.73c-33.83-174.01-124.72-300.45-128.7-305.92-4.02-5.53-10.44-8.8-17.28-8.8h-97.05c-11.8,0-21.37,9.57-21.37,21.37,0,.45.01.9.04,1.35-5.22.49-10.26,2.89-14,7.12-7.82,8.85-6.98,22.35,1.87,30.16,94.6,83.58,144.83,299.72,150.09,323.35v588.4c-8.32,21.58-48.25,127.68-74.25,241.4-11.79,51.59.74,83.77,23.19,116.21,33.48,48.4,89.19,77.29,149.03,77.29Zm1606.93-119.3c21.11,0,38.28,17.17,38.28,38.28s-17.17,38.28-38.28,38.28H622.32c-45.82,0-88.39-22.01-113.89-58.87-17.7-25.58-25.14-45.34-16.67-82.38,27.78-121.53,73.38-237.93,73.84-239.09.98-2.49,1.48-5.15,1.48-7.83v-594.72c0-1.48-.15-2.95-.46-4.39-2.04-9.73-49.04-228.96-148.81-333.92h75.68c21.35,32.22,93.55,149.55,118.34,296.9,1.73,10.29,10.63,17.82,21.07,17.82h1658.9c14.11,0,25.6,11.48,25.6,25.6s-11.48,25.6-25.6,25.6H686.82c-31.67,0-57.43,25.76-57.43,57.42v412.2c0,31.67,25.76,57.42,57.43,57.42h1467.58c19.88,0,36.06,16.17,36.06,36.06s-16.18,36.06-36.06,36.06H703.79c-37.13,0-70.04,22.26-83.85,56.7-15.25,38.05-34.17,94.15-37.71,145.3-1.41,20.44,5.39,39.81,19.15,54.55,13.84,14.83,32.84,23,53.51,23h1574.38Z"/>
    <path class="cls-9" d="m987.3,2745.68h127.96c8.57,0,16.31-5.12,19.67-13.01,3.35-7.89,1.66-17.02-4.29-23.19-75.29-78.04,51.23-205.53,52.51-206.81,8.36-8.31,8.42-21.84.11-30.21-8.3-8.38-21.81-8.44-30.2-.15-1.56,1.55-38.65,38.55-64.5,88.37-27.84,53.67-32.38,102.05-13.8,142.27h-70.37c-7-38.27-15.77-137.82,65.14-198.34,9.45-7.07,11.38-20.46,4.31-29.91-7.07-9.45-20.46-11.38-29.91-4.31-123.45,92.34-79.13,253.02-77.18,259.81,2.63,9.17,11.01,15.48,20.54,15.48Z"/>
    <path class="cls-9" d="m1553.52,2508.86h90.42c43.44,0,78.79-35.35,78.79-78.79s-35.35-78.79-78.79-78.79h-90.42c-11.8,0-21.37,9.57-21.37,21.37s9.57,21.37,21.37,21.37h90.42c19.88,0,36.05,16.17,36.05,36.06s-16.17,36.06-36.05,36.06h-90.42c-11.8,0-21.37,9.57-21.37,21.37s9.57,21.37,21.37,21.37Z"/>
    <path class="cls-9" d="m1464.49,2864.98h86.36c44.67,0,81.02-36.34,81.02-81.02s-36.34-81.02-81.02-81.02h-73.9c-11.8,0-21.37,9.57-21.37,21.37s9.57,21.37,21.37,21.37h73.9c21.11,0,38.28,17.17,38.28,38.28s-17.17,38.28-38.28,38.28h-86.36c-11.8,0-21.37,9.57-21.37,21.37s9.57,21.37,21.37,21.37Z"/>
    <g class="cls-7">
      <path class="cls-9" d="m997.23,2562.28h114.74c24.25-43.27,56.14-74.78,56.14-74.78h-111.38c-29.06,21.69-47.75,47.86-59.51,74.78Z"/>
    </g>
  </g>
  <path class="cls-1" d="m76.52,1650.18s30.72,149.57,166.93,110.84c0,0,66.45-32.16,56.2-140.22-.32-4.22-.8-8.49-1.44-12.93l109.51-128.2h-96.15c-88.14-30.23-58.87-152.56,0-170.03h145.56l201.7,122.86s0,2.83.16,8.07c1.18,30.45,9.88,143.11,73.66,270.61l-17.79,15.12,17.79,68.11h632.14s35.58,215.91,85.47,351.22c49.84,135.31,133.54,117.52,201.17,96.15,41.13-12.98,152.56-87.71,222.48-170.99,45.08-53.68,72.92-110.95,53.52-157.53-49.41-118.85-151.81-123.29-198.55-108.6l-8.44-16.93h96.15s43.16-188.72-97.49-338.29l20.89-26.39c9.94-12.55,11.16-29.91,3.05-43.7l-63.09-107.48-10.74-18.32c123.5-62.61,229.48-138.78,309.88-234.72,147.33,27.72,245.72-166.29,152.67-259.4l1.98-1.87,60.36-57.48c21.79-20.67,23.72-54.75,4.49-77.78-11.22-13.41-27.4-20.46-43.8-20.46-11.22,0-22.6,3.31-32.48,10.2l-143.21,99.57s-13.14-97.11-79.7-116.13c-22.76-6.52-46.63,8.65-49.84,32.1-1.98,14.16-.53,33.55,8.44,59.72,26.07,76.12-34.72,120.83-36.75,122.22-1.98,1.28-223.23,159.77-468.95,209.29-245.72,49.52-911.2,50.69-911.2,50.69,0,0-17.79-15.81-45.99-22.6-40.44-9.78-102.29-.96-163.67,99.78-104.16,170.94-138.89,256.4-138.89,256.4,0,0-154.91,140.22-16.03,247.06Z"/>
  <path class="cls-9" d="m1576.61,2275.18c31.16,0,60.02-9.11,80.47-15.57,55.18-17.42,226.4-135.84,279.36-249.68,18.02-38.75,20.81-73.68,8.27-103.85-26.09-62.76-67.52-97.56-109.92-113.99.01-.06.03-.12.04-.19,1.8-7.9,41.59-190.5-91.23-343.27l11.08-13.98c14.61-18.44,16.43-44.47,4.52-64.76l-63.85-108.76c122.3-64.13,217.81-137.02,291.22-222.2,71.79,8.75,140.47-29.21,177.33-99.02,33.19-62.87,30.27-131.12-6.29-179.23l49.41-47.02c28.82-27.42,31.42-72.81,5.92-103.33-25.31-30.31-68.85-36.16-101.27-13.63l-120.49,83.77c-9.95-33.99-33.73-87.8-86.64-102.92-16.19-4.63-33.64-1.97-47.88,7.31-14.04,9.16-23.38,23.82-25.63,40.22-2.68,19.48.45,42.47,9.29,68.31,21.55,63.01-27.61,99.28-29.71,100.8l-.58.4c-23.06,16.21-231.94,159.69-461.4,205.94-228.31,46.02-832.1,49.98-901.15,50.29-13.73-9.92-49.54-31.22-96.08-24.26-50.1,7.5-95.83,44.66-135.92,110.44-92.83,152.33-130.65,236.64-138.63,255.25-15.41,14.91-79.84,82.12-76.73,159.73,1.65,41.29,21.76,77.89,59.8,108.89,5.39,19.91,24.64,77.17,73.77,106.99,32.61,19.79,71.26,23.55,114.89,11.15,1.05-.3,2.06-.68,3.04-1.16,3.35-1.63,80.24-40.41,66.2-164.11l104.13-121.9c4.74-5.55,5.82-13.34,2.76-19.97-3.05-6.63-9.68-10.87-16.98-10.87h-92.87c-35.79-13.74-40.61-44.77-40.23-62.33.67-31.39,18.38-62.22,39.97-70.33h137.3l188.5,114.82c1.41,33.55,10.55,139.99,69.13,263.16l-6.75,5.74c-5.47,4.65-7.8,12.03-5.98,18.97l17.81,68.11c2.15,8.23,9.58,13.97,18.09,13.97h616.34c9.22,52.49,41.01,223.13,83.69,338.99,36.46,98.96,93.22,123.09,143.91,123.09Zm194.58-457.95c45,0,105.1,21.68,138.98,103.21,8.35,20.07,5.78,44.88-7.64,73.72-46.01,98.88-205.79,213.71-256.71,229.79-69.31,21.89-135.06,31.87-178.03-84.78-48.66-132.07-84.21-345.66-84.57-347.8-1.49-9.03-9.3-15.65-18.45-15.65h-617.67l-11.19-42.77,8.86-7.53c6.56-5.57,8.46-14.91,4.61-22.61-71.69-143.38-71.88-268.93-71.87-270.18.03-6.56-3.37-12.67-8.97-16.08l-201.7-122.86c-2.93-1.78-6.29-2.73-9.73-2.73h-145.56c-1.8,0-3.59.26-5.31.77-38.3,11.35-67.97,56.99-69.02,106.15-1.01,47.28,24.51,84.48,68.26,99.5,1.96.67,4.01,1.01,6.07,1.01h55.59l-83.16,97.36c-3.49,4.08-5.05,9.47-4.29,14.79,13.58,95.03-34.55,127.91-43.31,133.04-32.29,8.77-60.26,6.23-83.13-7.58-44.83-27.08-58.29-89-58.42-89.62-.92-4.37-3.37-8.3-6.91-11.02-32.22-24.78-49.19-53.34-50.45-84.88-2.76-68.96,66.92-132.86,67.63-133.5,2.08-1.88,3.71-4.22,4.77-6.81.34-.84,35.63-86.51,137.53-253.72,33.9-55.62,70.58-86.86,109.01-92.84,41.31-6.41,72.03,19.69,72.34,19.96,3.4,2.95,7.84,4.65,12.34,4.65h.03c27.25-.05,670.16-1.72,914.88-51.04,236.94-47.76,451.79-195.33,475.51-212,.88-.6,75.17-53.27,44.17-143.89-6.93-20.27-9.5-37.47-7.63-51.12,1.06-7.74,6.11-12.08,9.02-13.98,5.15-3.36,11.42-4.33,17.17-2.68,53.87,15.4,66.18,99.83,66.3,100.68.89,6.44,5.07,11.97,11.03,14.57,5.95,2.61,12.83,1.95,18.17-1.76l143.25-99.59c16.4-11.4,38.42-8.44,51.23,6.89,12.9,15.44,11.59,38.4-2.99,52.27l-62.36,59.34c-3.65,3.47-5.75,8.27-5.81,13.31-.06,5.04,1.91,9.89,5.47,13.45,44.13,44.16,34.19,108.28,12.29,149.78-23.47,44.45-76.38,91.55-148.29,78.03-6.65-1.25-13.45,1.18-17.79,6.37-74.4,88.81-173.84,164.06-303.98,230.04-4.6,2.33-8.04,6.46-9.49,11.41-1.46,4.95-.8,10.28,1.82,14.73l73.85,125.79c4.16,7.08,3.53,16.17-1.58,22.61l-20.91,26.38c-5.76,7.27-5.32,17.67,1.04,24.42,109.97,116.92,101.38,261.14,95.27,306.8h-80.32c-6.48,0-12.5,3.35-15.9,8.87s-3.72,12.4-.82,18.19l8.46,16.91c4.11,8.21,13.57,12.23,22.33,9.48,9.87-3.1,22.53-5.25,36.68-5.25Z"/>
  <path class="cls-9" d="m897.82,1810.43c1.67,0,3.37-.26,5.04-.82,267.23-88.63,341.04-179.07,344.06-182.88,4.12-5.21,4.6-12.42,1.21-18.13l-62.77-105.5c-2.24-3.78-5.94-6.46-10.22-7.43-4.28-.98-8.78-.14-12.44,2.29l-24.58,16.39-34.12-72.57c-4.3-9.14-2.94-20.1,3.46-27.92l46.09-56.27c4.72-5.76,10.42-10.5,16.95-14.08l359.72-197.5c14.14-7.77,31.6-4.16,41.52,8.56l84.85,108.85c5.44,6.98,15.51,8.22,22.49,2.79,6.98-5.44,8.23-15.51,2.78-22.49l-84.85-108.85c-19.64-25.19-54.21-32.31-82.21-16.95l-359.73,197.5c-10.14,5.57-19,12.93-26.32,21.87l-46.09,56.27c-14.18,17.32-17.2,41.61-7.67,61.87l42.04,89.4c1.98,4.22,5.71,7.37,10.2,8.62,4.5,1.25,9.31.49,13.19-2.1l26.03-17.35,47.95,80.59c-23.87,23.1-109.92,94.41-321.61,164.62-8.4,2.79-12.95,11.85-10.17,20.25,2.23,6.73,8.49,10.99,15.21,10.99Z"/>
  <path class="cls-9" d="m732.66,1732.53c1.86,0,3.75-.24,5.62-.75,213.33-58.02,396.79-170.84,404.5-175.62,10.03-6.22,13.12-19.38,6.91-29.41-6.21-10.03-19.38-13.13-29.41-6.91-1.84,1.14-186.07,114.38-393.2,170.71-11.39,3.1-18.11,14.84-15.01,26.23,2.59,9.51,11.21,15.76,20.61,15.76Z"/>
  <path class="cls-9" d="m647.53,1447.4l94.04,47.87-71.45-77.66c-21.44-20.61-48.23,14.71-22.6,29.79h0Z"/>
  <path class="cls-9" d="m1194.72,1810.43c4.67,0,9.31-2.04,12.48-5.95.2-.25,21.2-26.1,88.09-98.46,64.44-69.71,182.82-105.56,184.01-105.92,1.11-.33,2.18-.78,3.19-1.34l244.38-135.32c7.74-4.29,10.54-14.04,6.25-21.78-4.29-7.74-14.03-10.54-21.78-6.25l-242.91,134.5c-16.01,4.95-129.84,42.05-196.69,114.36-67.9,73.44-88.64,99.03-89.49,100.08-5.56,6.89-4.48,16.97,2.4,22.53,2.96,2.4,6.52,3.56,10.06,3.56Z"/>
  <path class="cls-9" d="m1720.45,1803.76c1.69,0,3.4-.27,5.1-.84,8.39-2.81,12.91-11.9,10.1-20.29-38.93-116.05-110.61-167.16-163.88-189.61-57.96-24.42-106.54-21.06-108.59-20.9-8.83.67-15.43,8.37-14.76,17.2.67,8.82,8.37,15.39,17.16,14.76,7.08-.5,173.07-9.9,239.69,188.74,2.25,6.7,8.5,10.93,15.2,10.93Z"/>
  <path class="cls-9" d="m1342.29,1662.71c2.97,0,5.98-.83,8.66-2.55,7.44-4.79,9.59-14.71,4.8-22.15l-165.22-256.63c-5.88-9.13-7.79-19.98-5.4-30.57,2.4-10.59,8.8-19.56,18.03-25.26,7.53-4.65,9.86-14.53,5.21-22.06-4.66-7.53-14.54-9.85-22.06-5.21-16.61,10.27-28.13,26.41-32.45,45.45-4.31,19.05-.86,38.58,9.71,55l165.22,256.63c3.07,4.76,8.22,7.35,13.49,7.35Z"/>
  <path class="cls-9" d="m1261.37,1735.24c4.54,0,9.04-1.91,12.22-5.64,5.73-6.74,4.92-16.86-1.82-22.59-39.31-33.44-55.2-66.76-55.35-67.09-3.75-8-13.27-11.47-21.28-7.75-8.01,3.73-11.5,13.2-7.8,21.22.74,1.6,18.64,39.71,63.66,78.02,3.02,2.57,6.71,3.82,10.38,3.82Z"/>
  <path class="cls-9" d="m1674.57,1490.12c3.01,0,6.06-.85,8.77-2.62,7.4-4.85,9.47-14.79,4.62-22.19l-113.02-172.46c-3.29-5.03-9.17-7.79-15.09-7.15l-87.85,9.3c-27.92-39.16-66.04-92.85-69.41-98.23-4.7-7.5-14.58-9.78-22.08-5.09-7.5,4.69-9.79,14.58-5.09,22.08,5.26,8.41,68.71,97.36,75.92,107.47,3.36,4.7,9.05,7.22,14.73,6.63l87.42-9.25,107.66,164.28c3.08,4.69,8.2,7.24,13.42,7.24Z"/>
  <ellipse class="cls-8" cx="1378.58" cy="1402.03" rx="64.55" ry="77.26" transform="translate(-582.19 1255.17) rotate(-41.2)"/>
  <path class="cls-9" d="m1391.12,1489.99c17.94,0,35.21-5.79,48.9-17.77,33.43-29.26,33.06-84.56-.83-123.26-33.88-38.71-88.64-46.39-122.07-17.12-33.42,29.26-33.05,84.56.83,123.26h0s0,0,0,0c20,22.85,47.29,34.89,73.17,34.89Zm-24.95-144.02c16.8,0,35.19,8.42,48.92,24.1,22.24,25.41,23.96,60.41,3.82,78.03-20.14,17.63-54.61,11.29-76.85-14.11h0c-22.24-25.41-23.96-60.41-3.82-78.03,7.71-6.75,17.51-9.98,27.93-9.98Z"/>
  <path class="cls-9" d="m2077.34,1005.29c10.52,0,21.28-1.7,32.07-5.17,8.43-2.71,13.06-11.73,10.36-20.16-2.71-8.43-11.73-13.07-20.16-10.35-33.42,10.73-56.58-3.71-70.15-17.71-31.06-32.07-40.08-89.96-21.93-140.78,7.95-22.26,20.12-36.24,37.19-42.74,36.68-13.96,85.03,11.53,85.51,11.79,7.77,4.25,17.5,1.4,21.75-6.37,4.25-7.77,1.4-17.5-6.37-21.75-2.49-1.35-61.34-33-112.29-13.63-26,9.9-44.83,30.73-55.98,61.91-22.44,62.84-10.75,132.71,29.09,173.85,19.79,20.43,44.59,31.09,70.91,31.09Z"/>
  <path class="cls-9" d="m1844.19,741.5c-9.58,45.83-8.68,94.73,6.68,139.02-2.43-38.53,6.25-76.9,21.53-112,2.1-4.74,4.53-9.91,6.72-13.69l-34.94-13.33h0Z"/>
  <path class="cls-9" d="m1854.06,1156.92c6.78,0,13.32-3.7,16.64-10.14,4.73-9.18,1.12-20.45-8.07-25.18-158.18-81.42-133.28-238.85-133.01-240.43,1.74-10.18-5.1-19.84-15.28-21.58-10.18-1.72-19.84,5.1-21.58,15.28-.32,1.85-29.51,186.16,152.75,279.97,2.73,1.41,5.66,2.08,8.54,2.08Z"/>
  <path class="cls-9" d="m1978.51,795.12l37.35-1.65c-1.58-35.94-18.36-85.75-19.08-87.86l-35.41,12.01c.16.47,15.79,46.9,17.13,77.49Z"/>
  <path class="cls-9" d="m212.07,1534.66c-24.21,17.36-54.81,23.68-84.12,22.96-5.43-.12-8.93,4.83-8.42,9.96-.68,17.79-3.33,38.77-11.17,54.29-3.94,7.64-9.11,13.77-17.66,10.36-2.42-.6-5.64-2.28-8.75-3.9l-15.91,39.66c6.46,1.8,12.96,3.55,20.75,3.71,55.91,1.71,58.6-65.69,50.89-105.87,0,0-8.41,9.96-8.41,9.96,30.64-5.44,61.35-18.13,82.81-41.14h0Z"/>
  <path class="cls-9" d="m292.19,1331.92l15.06-34.23c-64.43-28.34-85.65-101.85-85.86-102.59l-36.01,10.07c1.04,3.71,26.37,91.36,106.81,126.75Z"/>
  <path class="cls-9" d="m1543.5,2268.71l10.62-30.24c-19.88-6.98-34.23-19.48-42.64-37.14-12.06-25.31-11.67-60.19,1.05-95.7,20.65-57.65,120.22-136.94,253.68-202,51.3-25.01,91.2-29.83,115.36-13.92,34.74,22.86,32.33,82.56,32.3,83.16l32.01,1.61c.16-3.19,3.43-78.4-46.55-111.45-34.63-22.9-84.15-18.93-147.17,11.79-142.74,69.58-246.12,153.88-269.81,220-15.58,43.49-15.51,87.34.19,120.3,12.05,25.29,33.13,43.82,60.96,53.59Z"/>
  <rect class="cls-9" x="1813.52" y="1856.18" width="37.39" height="189.82" transform="translate(-842.99 2035.18) rotate(-48.6)"/>
  <rect class="cls-9" x="1735.11" y="1910.98" width="37.39" height="234.26" transform="translate(-923.96 1891.73) rotate(-46.23)"/>
  <rect class="cls-9" x="1641.25" y="1969.95" width="37.39" height="238.89" transform="translate(-978.88 1692.39) rotate(-42.98)"/>
  <rect class="cls-9" x="1547.29" y="2077.75" width="37.39" height="185.6" transform="translate(-1036.89 1547.13) rotate(-40.72)"/>
  <path class="cls-9" d="m1722.8,1784.17c-30.65,13.4-58.89,29.92-86.08,48.98-13.35,9.35-25.99,19.72-38,30.53-11.98,10.9-22.86,22.88-32.74,35.34,36.63-29.82,80.18-49.1,124.91-62.86,14.24-4.28,29.82-8.46,44.12-11.04,30.95-7.15,17.66-51.92-12.21-40.95h0Z"/>
  <path class="cls-9" d="m1382.36,1904.36c5.32,0,10.52-2.64,13.56-7.47,122.97-194.73,293.33-142.95,300.53-140.66,8.39,2.69,17.44-1.93,20.15-10.34,2.71-8.41-1.88-17.42-10.28-20.15-2.07-.67-51.37-16.33-117.82-5-60.97,10.4-148.57,46.43-219.68,159.04-4.73,7.49-2.49,17.38,5,22.11,2.66,1.68,5.62,2.48,8.54,2.48Z"/>
  <path class="cls-9" d="m1487.21,1167.36c4.21,0,8.42-1.65,11.57-4.93,6.12-6.39,5.91-16.53-.47-22.66l-72.15-69.19c-6.4-6.12-16.53-5.91-22.66.48-6.12,6.39-5.91,16.53.47,22.66l72.15,69.19c3.11,2.98,7.1,4.46,11.09,4.46Z"/>
  <g class="cls-7">
    <path class="cls-9" d="m1231.63,1235.76s-154.05,238.58-480.53,126.4c-326.47-112.18-308.67-280.03-308.67-280.03,0,0,201.21,194.56,414.88,211.47,213.67,16.92,374.32-57.85,374.32-57.85Z"/>
  </g>
  <g class="cls-7">
    <path class="cls-9" d="m76.52,1650.18s30.72,149.57,166.93,110.84c0,0,66.45-32.16,56.2-140.22-117.25,158.76-175.69-39.37-175.69-39.37l.64,39.85c-125.53-74.36,29.38-196.04,29.38-196.04,154.91-388.92,273.77-355.71,273.77-355.71l-32.64-22.6c-40.44-9.78-102.29-.96-163.67,99.78-104.16,170.94-138.89,256.4-138.89,256.4,0,0-154.91,140.22-16.03,247.06Z"/>
  </g>
  <g class="cls-7">
    <path class="cls-9" d="m1545.51,1125.99c60.09,23.34,67.89,70.14,67.89,70.14l66.56,75.75-10.74-18.32c123.5-62.61,229.48-138.78,309.88-234.72,147.33,27.72,245.72-166.29,152.67-259.4l1.98-1.87-4.22-4.59c-4.38,102.4-65.44,129.54-132.32,148.93l-9.08-45.4c-8.01,73.98-68.69,79.22-68.69,79.22-205.66,188.3-373.92,190.27-373.92,190.27Z"/>
  </g>
  <g class="cls-7">
    <path class="cls-9" d="m1198.56,1794.4h166.23s35.58,215.91,85.47,351.22c49.84,135.31,133.54,117.52,201.17,96.15,41.13-12.98,152.56-87.71,222.48-170.99-229.54,104.38-329.64,86.38-243.21-107.85,0,0-73.18-12.71-75.85-63.94,0,0-71.69-202.88-149.14-179.8-77.4,23.13-133.06,7.16-100.64-36.22-2.56,2.51-69.34,68.11-106.51,111.43Z"/>
  </g>
  <g class="cls-7">
    <path class="cls-9" d="m730.46,1711.18l-17.79,15.12,17.79,68.11h471.62l124.89-138.78v-31.04l-121.63-52.88s-126.76,90.49-244.28,131.89c-117.52,41.4-84.13-51.33-84.13-51.33l41.4-15.44s-117.47-.91-220.35-187.39l-41.18-8.87c1.17,30.45,9.88,143.11,73.66,270.61Z"/>
  </g>
  <g>
    <path class="cls-1" d="m1512.92,374.67l26.28,455.12c6.36,0,12.5-.43,18.38-1.34,70.3-10.58,106.14-83.87,111.64-168.64,8.01-123.5-48.29-271.25-156.3-285.14Z"/>
    <path class="cls-1" d="m287.1,657.52c0,351.27,289.47,636.1,646.57,636.1,126.33,0,244.28-35.68,343.85-97.33.05,0,.05-.05.05-.05,181.83-112.55,302.66-311.8,302.66-538.72,0-78.74-14.53-154.11-41.18-223.71C1447.11,192.84,1210.74,21.37,933.66,21.37c-357.1,0-646.57,284.82-646.57,636.15Z"/>
    <g class="cls-7">
      <path class="cls-9" d="m287.1,657.52c0,351.27,289.47,636.1,646.57,636.1,17.04,0,33.92-.64,50.64-1.92-311.05-46.05-549.51-310.14-549.51-628.99,0-334.5,262.39-608.69,595.77-634.17-31.62-4.75-63.94-7.16-96.9-7.16-357.1,0-646.57,284.82-646.57,636.15Z"/>
    </g>
    <path class="cls-9" d="m489.39,711.63c0,289.47,254.32,524.13,567.99,524.13,64.58,0,155.55-12.93,220.13-39.48.05,0,.05-.05.05-.05,181.83-112.55,302.66-311.8,302.66-538.72,0-78.74-14.53-154.11-41.18-223.71-98.82-171.52-274.19-246.31-481.67-246.31-313.67,0-567.99,234.66-567.99,524.13Z"/>
    <g class="cls-4">
      <path class="cls-2" d="m489.39,711.63c0,289.47,254.32,524.13,567.99,524.13,64.58,0,155.55-12.93,220.13-39.48.05,0,.05-.05.05-.05,81.83-50.64,151.22-118.85,202.93-199.19-2.14,1.39-4.33,2.72-6.46,4.06,0,0,0,.05-.05.05-86.96,53.84-189.95,84.99-300.31,84.99-311.85,0-564.62-248.71-564.62-555.49,0-59.51,9.51-116.88,27.14-170.62-91.24,92.95-146.79,216.34-146.79,351.59Z"/>
    </g>
    <path class="cls-9" d="m1057.38,1251.13c63.34,0,157.8-12.58,226.06-40.68,7.85-3.23,11.59-12.21,8.36-20.06-3.23-7.85-12.21-11.58-20.06-8.36-64.38,26.5-154.05,38.37-214.36,38.37-304.72,0-552.62-228.23-552.62-508.77s247.91-508.77,552.62-508.77c216.56,0,378.56,82.61,468.51,238.89,4.23,7.35,13.61,9.89,20.98,5.65,7.35-4.23,9.88-13.63,5.65-20.98-95.74-166.36-266.96-254.29-495.14-254.29-321.66,0-583.35,242.02-583.35,539.5s261.69,539.5,583.35,539.5Z"/>
    <path class="cls-9" d="m933.66,1314.98c126.08,0,248.87-34.76,355.09-100.53h0c.23-.14.45-.29.68-.44,195.49-121.28,312.16-329.26,312.16-556.5,0-79.7-14.33-157.54-42.6-231.35-47.28-123.91-130.63-229.91-241.04-306.5C1205.1,41.38,1072.22,0,933.66,0,565.36,0,265.73,294.96,265.73,657.52s299.63,657.46,667.93,657.46Zm331.94-136.45c-99.31,61.31-214.07,93.72-331.94,93.72-344.74,0-625.2-275.77-625.2-614.73S588.93,42.73,933.66,42.73c259.17,0,494.44,160.22,585.42,398.69,26.4,68.94,39.78,141.63,39.78,216.09,0,212.57-109.36,407.17-292.54,520.55-.24.15-.48.31-.72.47Z"/>
    <ellipse class="cls-1" cx="371.31" cy="799.31" rx="148.74" ry="221.68" transform="translate(-144.38 84.58) rotate(-10.89)"/>
    <g class="cls-7">
      <path class="cls-9" d="m225.24,827.44c23.13,120.19,107.32,205.07,187.98,189.58,49.14-9.51,85.63-54,101.39-114.53-10.42,6.3-21.69,10.74-33.71,13.03-80.71,15.49-164.85-69.39-187.98-189.58-9.03-47.01-7.43-92.47,2.78-131.3-59.29,35.58-90.12,130.5-70.46,232.79Z"/>
    </g>
    <path class="cls-9" d="m394.42,1040.16c7.61,0,15.22-.71,22.83-2.18,92.11-17.73,146.44-139.22,121.11-270.82-11.98-62.27-39.76-117.92-78.21-156.7-40.67-41.02-88.56-58.72-134.77-49.82-46.23,8.9-84.11,43.09-106.65,96.28-21.31,50.29-26.45,112.27-14.46,174.54h0c23.24,120.74,105.59,208.69,190.15,208.69Zm-45.76-438.99c27.29,0,55.59,13.62,81.14,39.38,32.54,32.83,56.2,80.66,66.6,134.69,20.87,108.46-18.25,207.5-87.22,220.78-69.01,13.26-142.07-64.17-162.94-172.63-10.4-54.03-6.19-107.22,11.85-149.79,16.81-39.66,43.57-64.87,75.38-70.99,5.01-.96,10.09-1.44,15.21-1.44Zm-123.41,226.26h-.05.05Z"/>
    <path class="cls-9" d="m346.34,1002.22c4.86,0,9.72-.46,14.55-1.39,33.3-6.41,59.57-34.04,73.97-77.8,13.17-40.01,15.08-89.78,5.38-140.16-9.7-50.38-29.95-95.89-57.02-128.15-29.61-35.29-64.24-51.21-97.57-44.79-33.3,6.41-59.57,34.04-73.97,77.8-13.17,40-15.08,89.78-5.39,140.16,9.7,50.38,29.95,95.89,57.02,128.15,25.33,30.17,54.33,46.18,83.02,46.18Zm-46.55-356.23c17.45,0,37.02,11.6,54.79,32.77,23.05,27.47,40.43,66.95,48.95,111.18,8.52,44.23,7.03,87.34-4.18,121.4-9.83,29.86-26.42,49.1-45.52,52.77-19.13,3.67-41.65-8.03-61.86-32.11-23.05-27.47-40.43-66.95-48.95-111.18-8.51-44.23-7.03-87.34,4.18-121.4,9.83-29.86,26.42-49.1,45.52-52.77,2.31-.44,4.67-.66,7.07-.66Z"/>
    <path class="cls-9" d="m439.19,599.22c50.21-198.86,171.77-352.15,342.31-431.62,172.2-80.25,378.48-77.99,551.82,6.02l16.31-33.65c-183.36-88.87-401.64-91.22-583.93-6.26-180.93,84.32-309.76,246.39-362.76,456.36l36.25,9.15Z"/>
    <path class="cls-9" d="m785.13,1295.44c7.15,0,13.97-4.12,17.08-11.07,4.22-9.42,0-20.48-9.43-24.7-235.19-105.22-293.66-289.48-294.22-291.33-3-9.87-13.44-15.45-23.3-12.47-9.87,2.99-15.46,13.38-12.5,23.25,2.46,8.2,63.16,202.12,314.75,314.68,2.48,1.11,5.07,1.64,7.63,1.64Z"/>
    <g class="cls-6">
      <path class="cls-1" d="m1117.7,266.23c236.33,17.73,453.78,212.3,355.09,540.78-9.84,32.76-57.11,31.13-64.89-2.18-48.56-208.01-142.22-375.49-310.18-476.2-30.41-18.24-15.38-65.05,19.98-62.4Z"/>
    </g>
    <g class="cls-6">
      <path class="cls-1" d="m752.67,875.54c24.11,41.79,51.78,79.23,82.11,113.44,25.66,28.95,8.45,75.09-29.98,79.61-102.23,12.03-180.51-96.29-137.49-189.46,16.36-35.43,65.86-37.4,85.36-3.59Z"/>
    </g>
    <g class="cls-6">
      <ellipse class="cls-1" cx="656.15" cy="691.78" rx="59.1" ry="79.46"/>
    </g>
    <path class="cls-9" d="m1539.7,851.14c85.36,0,143.12-72.59,150.83-189.6,8.97-136.2-55.36-292.69-174.91-308.04-11.67-1.5-22.41,6.77-23.91,18.47-1.5,11.7,6.77,22.41,18.47,23.91,91.95,11.8,145.44,145.43,137.71,262.84-2.31,35.15-16.96,149.67-108.18,149.68h-.5c-11.76,0-21.32,9.51-21.37,21.28-.04,11.8,9.48,21.4,21.28,21.45h.58Z"/>
    <g class="cls-7">
      <path class="cls-9" d="m1557.58,828.45c70.3-10.58,106.14-83.87,111.64-168.64-30.39-19.02-65.28-50.59-96.9-101.92,0,0,14.21,170.62-14.74,270.56Z"/>
    </g>
  </g>
  <rect class="cls-9" x="586.16" y="1575.57" width="98.67" height="32.05" transform="translate(-424.93 245.3) rotate(-16.46)"/>
  <path class="cls-9" d="m712.78,1998.17c71.31,0,141.67-34.8,145.58-36.77,7.91-3.97,11.1-13.6,7.13-21.51-3.97-7.9-13.59-11.1-21.5-7.13h0c-1.14.57-114.37,56.42-186.39,22.47-8.02-3.78-17.56-.35-21.33,7.66-3.77,8.01-.34,17.55,7.66,21.33,21.46,10.12,45.22,13.95,68.86,13.95Z"/>
  <path class="cls-9" d="m338.26,1495.69c.18,0,.35,0,.53,0,39.97-1.29,70.12-39.2,73.34-92.19,2.85-47.08-18.28-101.48-71.41-109.69-8.81-1.34-16.93,4.65-18.28,13.39-1.35,8.75,4.64,16.93,13.39,18.28,33.3,5.14,46.3,43.04,44.31,76.08-1.78,29.31-15.8,61.24-42.38,62.09-8.85.29-15.79,7.69-15.5,16.54.28,8.67,7.4,15.51,16.01,15.51Z"/>
  <g class="cls-7">
    <path class="cls-9" d="m554.98,1564.57s-65.81,18.96-59.13,87.67l-99.49-164.99,108.4-7.57"/>
  </g>
  <g class="cls-7">
    <path class="cls-9" d="m517.22,1355.93s3.44,52.53-36.57,59.65h-88.04s-89.95,11.57-119.33-49.86c0,0-24.94,105.84,57.87,113.07,82.8,7.23,186.15,0,186.15,0l22.18-103.27"/>
  </g>
</svg>