<?xml version="1.0" encoding="UTF-8"?>
<svg id="Layer_1" data-name="Layer 1" xmlns="http://www.w3.org/2000/svg" viewBox="0 0 2541.7 3224.97">
  <defs>
    <style>
      .cls-1 {
        fill: #fff;
      }

      .cls-2 {
        fill: #111a28;
      }

      .cls-3 {
        fill: #848484;
      }

      .cls-4 {
        fill: #e2e2e2;
      }

      .cls-5 {
        opacity: .35;
      }

      .cls-5, .cls-6, .cls-7, .cls-8, .cls-9, .cls-10 {
        fill: none;
      }

      .cls-6 {
        opacity: .7;
      }

      .cls-11 {
        fill: #b8c5d3;
      }

      .cls-7 {
        stroke: #371a45;
        stroke-linecap: round;
        stroke-miterlimit: 10;
        stroke-width: 36.44px;
      }

      .cls-12 {
        fill: #102770;
      }

      .cls-13 {
        fill: #293856;
      }

      .cls-14 {
        fill: #bfc0c1;
      }

      .cls-8 {
        opacity: .6;
      }

      .cls-15 {
        fill: #22a7f0;
      }

      .cls-9 {
        opacity: .5;
      }

      .cls-16 {
        fill: #d83d3d;
      }

      .cls-17 {
        fill: #ccc;
      }

      .cls-10 {
        opacity: .3;
      }

      .cls-18 {
        fill: #371a45;
      }

      .cls-19 {
        fill: #606060;
      }

      .cls-20 {
        fill: #0cccff;
      }

      .cls-21 {
        fill: #ededed;
      }
    </style>
  </defs>
  <ellipse class="cls-18" cx="1270.85" cy="3169.2" rx="1270.85" ry="55.78"/>
  <rect class="cls-1" x="805.25" y="1231.23" width="926.03" height="846.54" rx="170.59" ry="170.59"/>
  <path class="cls-18" d="m1560.69,2095.98h-584.85c-104.11,0-188.81-84.7-188.81-188.81v-505.35c0-104.11,84.7-188.81,188.81-188.81h584.85c104.11,0,188.81,84.7,188.81,188.81v505.35c0,104.11-84.7,188.81-188.81,188.81Zm-584.85-846.54c-84.02,0-152.37,68.35-152.37,152.38v505.35c0,84.02,68.35,152.37,152.37,152.37h584.85c84.02,0,152.38-68.35,152.38-152.37v-505.35c0-84.02-68.35-152.38-152.38-152.38h-584.85Z"/>
  <g>
    <path class="cls-1" d="m1015.76,1156.32l-12.52,46.09-51.78,190.78-36.39,134.08s-14.8,50.74-59.25,95.19c-31.24,31.15-77.11,59.3-142.64,64.54-264.47,21.13-352.83-290.02-352.83-290.02l206.22-158.08c90.22,111.72,195.98,98.74,282.24,54.29,95.46-49.14,166.96-136.86,166.96-136.86Z"/>
    <g class="cls-5">
      <path class="cls-18" d="m916.61,1437.65l-1.57,89.66s-42.88,146.96-201.88,159.66c-264.47,21.15-352.8-290.01-352.8-290.01l221.5-63.6c-197.3,148.81-30.82,250.08,144.3,236.07,114.95-9.19,169.2-88.5,190.44-131.78Z"/>
    </g>
    <path class="cls-18" d="m688.06,1706.21c-103.77,0-195.01-49.92-265.17-145.52-56.44-76.9-79.13-155.42-80.06-158.73l-3.38-11.9,230.13-176.44,11.16,13.82c42.76,52.96,92.59,79.87,148.09,80h.42c138.22,0,271.07-161,272.4-162.63l54.16-66.43-123.18,453.68c-.56,1.92-48.44,159.52-218.02,173.08-8.93.71-17.79,1.07-26.54,1.07Zm-306.41-302.6c8.29,23.97,30.65,81.32,71.23,136.34,69.11,93.71,156.18,137.07,258.83,128.86,144.12-11.52,184.23-141.16,185.87-146.67l81.77-301.2c-55.26,51.88-149.34,122.93-250.1,122.93-.17,0-.33,0-.5,0-61.94-.14-117.32-27.04-164.83-80l-182.27,139.74Z"/>
    <g>
      <path class="cls-1" d="m616,1211.68c9.53,164.43-149.4,197.01-195.09,199.56-95.3,5.29-151.11-69.12-151.11-69.12l42.91-116.31,16.31-60.85,34.56-22.96c13.37-63.5,58.29-144.55,101.44-133.84,0,0,142.79,61.78,150.99,203.52Z"/>
      <g class="cls-5">
        <path class="cls-18" d="m241.63,1296.64c14.47,47.74,90.14,72.11,220.02,15.6,45.75-19.9,74.72-64.91,60.25-112.65-14.47-47.74-64.91-74.72-112.65-60.25-47.75,14.47-182.08,109.55-167.61,157.3Z"/>
      </g>
      <path class="cls-1" d="m431.87,1069.84l-17.38,183.83-129.98-71.49s-38.05-16.4-83.5-40.75c-75.95-40.65-172.66-103.48-146.81-148.67,43.84-76.73,259.27,81.32,259.27,81.32,0,0-140.31-233.83-46.01-268.93,51.87-19.34,106.62,101.17,137.99,185.99,16.39,44.19,26.43,78.7,26.43,78.7Z"/>
      <g class="cls-5">
        <path class="cls-18" d="m431.87,1069.84l-17.38,183.83-129.98-71.49s-38.05-16.4-83.5-40.75c47.9-4.33,109.43-14.7,139.22-39.68,27.4-22.96,30.01-85.62,65.22-110.62,16.39,44.19,26.43,78.7,26.43,78.7Z"/>
      </g>
      <path class="cls-18" d="m414.5,1271.9c-3.02,0-6.05-.75-8.78-2.25l-129.24-71.06c-25.66-11.12-216.46-96.02-241.67-171.58-5.11-15.3-3.88-30.26,3.55-43.26,8.46-14.81,22.28-24.63,39.96-28.39,50.13-10.65,129.67,29.71,185,63.49-27.81-57.9-59.05-140.31-41.48-190.48,6.77-19.32,20.34-33.25,39.25-40.29,13.85-5.15,28.81-4.04,43.26,3.23,74.53,37.46,138.02,249.42,145.01,273.47.64,2.21.86,4.51.64,6.8l-17.38,183.82c-.58,6.11-4.19,11.52-9.61,14.39-2.67,1.41-5.6,2.12-8.52,2.12ZM97.34,989.89c-4.09,0-7.92.36-11.45,1.11-7.64,1.63-12.54,4.96-15.89,10.82-1.52,2.67-2.97,6.63-.63,13.65,15.34,45.96,144.53,116.41,222.36,150.01.53.23,1.05.48,1.56.76l105.69,58.11,14.44-152.73c-25.2-85.31-80.52-225.21-125.42-247.77-7.01-3.53-11.26-2.72-14.19-1.64-8.78,3.27-14.37,9.05-17.57,18.18-18.66,53.23,46.27,179.98,72.86,224.33,4.46,7.44,3.06,16.99-3.35,22.83-6.41,5.84-16.05,6.36-23.04,1.23-39.5-28.96-147.96-98.89-205.36-98.89Z"/>
      <path class="cls-1" d="m246.29,1329.92c35.14,31.13,140.5,18.71,168.87-21.3,24.13-34.06-16.84-55.72-28.22-60.93-1.78-.84-2.85-1.23-2.85-1.23,0,0,34.83-23.41,31.74-57.78-.2-2.22-.55-4.5-1.12-6.85-8.96-38.02-118.36-40.03-161.39-19.04-32.17,15.7-40.9,33.38-39.61,49.08,1.36,16.72,14.07,31.19,21.89,38.62,3.6,3.38,6.12,5.28,6.12,5.28,0,0-23.58,49.22,4.58,74.14Z"/>
      <g class="cls-5">
        <path class="cls-18" d="m235.59,1250.5c30.87,5.59,91.49,12.63,151.34-2.8-1.78-.84-2.85-1.23-2.85-1.23,0,0,34.83-23.41,31.74-57.78-33.08,18.5-126.5,62.95-202.13,23.2,1.36,16.72,14.07,31.19,21.89,38.62Z"/>
      </g>
      <g class="cls-5">
        <path class="cls-18" d="m246.29,1329.92c35.14,31.13,140.5,18.71,168.87-21.3,11.87-16.73,8-30.45-.35-40.73-1.13,2.39-2.57,4.87-4.37,7.42-28.33,40-133.69,52.42-168.81,21.33-3.64-3.23-6.45-6.85-8.49-10.75-1.91,14.9-.19,32.18,13.16,44.03Z"/>
      </g>
      <path class="cls-18" d="m309.48,1365.65c-31.96,0-59.13-7.79-75.27-22.07-25.38-22.47-22.23-58.21-14.1-82.71-11.3-11.45-26.9-32.07-24.52-56.96,2.21-23.14,18.94-42.49,49.72-57.5,35.9-17.51,113.9-22.22,156.92-1.8,20.87,9.9,27.94,23.46,30.2,33.09,6.55,27.89-5.61,50.45-17.92,65.13,9.99,7.42,20.21,17.99,24.39,31.89,3.07,10.22,4.03,26.23-8.9,44.46-16.43,23.16-52.38,40-96.18,45.05-8.34.96-16.49,1.43-24.34,1.43Zm19.09-197.91c-26.11,0-52.56,4.24-67.29,11.42h0c-12.79,6.24-28.27,16.2-29.42,28.22-1.35,14.1,16.08,30.28,20.82,33.85,6.94,5.22,9.24,14.61,5.48,22.44-.15.32-16.97,37.42.21,52.62,11.93,10.56,40.58,15.27,71.29,11.73,32.18-3.71,60.57-15.74,70.63-29.93,5.33-7.51,4.17-11.39,3.74-12.85-2.87-9.68-19.15-18.88-26.57-21.82-6.29-2.49-10.72-8.27-11.44-15-.73-6.73,2.31-13.32,7.93-17.09.21-.15,28.92-20.19,23.02-45.31-.46-1.95-3.42-5.2-10.35-8.5-14.29-6.78-36.04-9.79-58.03-9.79Zm-75.27-4.95h.05-.05Z"/>
      <path class="cls-18" d="m296.61,1279.5c-33.81,0-57.46-5.59-59.19-6.01-9.78-2.38-15.77-12.23-13.39-22.01,2.38-9.76,12.22-15.76,21.98-13.4.74.18,66.33,15.4,131.78-8.72,9.45-3.47,19.92,1.36,23.39,10.8,3.48,9.44-1.35,19.91-10.8,23.39-33.73,12.42-66.95,15.95-93.78,15.95Z"/>
      <path class="cls-1" d="m465.01,1008.18c-57.28-14.22-117.61,133.07-103.31,186.63,10.92,40.89,69.1,60.12,110.73-8.89,42.19-69.92,82.52-155.41-7.43-177.74Z"/>
      <path class="cls-1" d="m269.8,1342.13s55.81,74.38,151.09,69.1c45.71-2.53,204.64-35.11,195.12-199.56-8.21-141.73-150.99-203.49-150.99-203.49-57.28-14.22-117.61,133.07-103.31,186.63,10.92,40.89,78.03,45.6,106.83-40.89,0,0-6.94,72.74,63.12,99.7l-110.23,117.4-106.96,10.9-44.66-39.79Z"/>
      <path class="cls-1" d="m495.88,1230.61l2.2-2.33c-2.48-.96-4.77-1.93-7.01-3.02,1.49,1.78,3.09,3.59,4.81,5.35Z"/>
      <g class="cls-5">
        <path class="cls-18" d="m462.81,1142.55c-.82-28.3-55.76,61.04-100.02,55.78,11.84,32.3,60.9,38.27,92.17-14.18-3.81-21.83,7.86-41.6,7.86-41.6Z"/>
      </g>
      <g class="cls-5">
        <path class="cls-18" d="m332.5,1380.07l-18.05,1.85c25.62,16.7,61.7,31.79,106.45,29.32,45.73-2.53,204.65-35.14,195.11-199.58-5.58-96.44-73.52-155.89-116.35-183.98,37.95,33.04,78.52,85.09,82.78,158.65,9.53,164.44-149.39,197.05-195.11,199.58-20.09,1.09-38.42-1.3-54.83-5.84Z"/>
      </g>
      <path class="cls-1" d="m269.85,1342.19c.56.74,4.94,6.4,12.88,14.23l2.77-.27-15.65-13.96Z"/>
      <path class="cls-1" d="m280.88,1356.6c1.9,1.23,3.85,2.5,5.88,3.69-1.4-1.34-2.75-2.64-4.03-3.87l-1.85.18Z"/>
      <path class="cls-18" d="m581.85,1351.57c-3.92,0-7.86-1.26-11.19-3.85-7.93-6.19-9.35-17.64-3.16-25.57,22.64-29.03,32.84-65.84,30.32-109.43-7-120.92-123.7-180.09-138.53-187.12-9.34-1.35-19.57,6.75-26.69,14-35.49,36.12-61.65,119.25-53.3,150.52,2.4,8.96,9.49,14.49,18.97,14.78,15.74.51,38.79-14.11,52.98-56.73,2.93-8.8,11.98-13.98,21.05-12.07,9.06,1.92,15.25,10.33,14.37,19.55-.2,2.33-4.35,59.47,51.53,80.97,9.39,3.61,14.07,14.16,10.46,23.54-3.61,9.39-14.16,14.07-23.55,10.46-34.97-13.46-54.7-37.71-65.06-61.96-19.68,24.18-43.21,33.26-62.88,32.65-25.66-.78-46.49-17.18-53.07-41.79-12.43-46.56,19.69-141.88,62.5-185.45,25.56-26.01,48.25-27.18,62.79-23.56.97.24,1.92.56,2.84.96,6.25,2.7,153.2,67.96,161.95,219.16,3.05,52.67-9.72,97.74-37.96,133.94-3.59,4.6-8.96,7.01-14.38,7.01Z"/>
      <path class="cls-18" d="m411.1,1429.72c-97.19,0-153.44-73.42-155.86-76.65-6.04-8.05-4.41-19.47,3.64-25.51,8.04-6.03,19.43-4.41,25.47,3.59h0c2.06,2.72,51.55,66.54,135.54,61.89,10.06-.55,18.64,7.14,19.2,17.18.55,10.05-7.14,18.64-17.18,19.2-3.65.2-7.26.3-10.8.3Z"/>
    </g>
    <path class="cls-18" d="m638.24,1697.48c-7.43,0-13.52-5.95-13.65-13.4-.14-7.55,5.86-13.78,13.4-13.92,28.67-.54,49.26-10.57,62.95-30.66,58.12-85.31-24.85-311.38-25.7-313.65-2.63-7.08.97-14.94,8.05-17.57,7.08-2.63,14.94.98,17.57,8.05,3.65,9.82,88.65,241.7,22.66,338.56-18.78,27.56-47.38,41.89-85.02,42.6h-.26Z"/>
  </g>
  <g>
    <path class="cls-1" d="m2181.37,1396.98s-88.36,311.16-352.83,290.02c-74.65-6.01-123.74-41.63-154.8-77.65-35.02-40.76-47.09-82.07-47.09-82.07l-32.65-120.28-54.11-199.39-.05-.05-13.89-51.24s79.98,98.06,183.63,144.92c82.94,37.53,181.08,42.27,265.57-62.35l206.22,158.08Z"/>
    <g class="cls-5">
      <path class="cls-18" d="m1625.09,1437.65l1.57,89.66s42.88,146.96,201.88,159.66c264.47,21.15,352.8-290.01,352.8-290.01l-221.5-63.6c197.3,148.81,30.82,250.08-144.3,236.07-114.95-9.19-169.2-88.5-190.44-131.78Z"/>
    </g>
    <path class="cls-18" d="m1853.64,1706.21c-8.76,0-17.61-.36-26.54-1.07-169.59-13.55-217.47-171.16-217.93-172.75l-123.22-453.81,54.1,66.23c1.33,1.63,134.46,162.63,272.41,162.63.17,0,.33,0,.5,0,55.47-.16,105.26-27.07,148.01-80l11.16-13.82,230.13,176.44-3.38,11.9c-.94,3.31-23.63,81.82-80.06,158.73-70.15,95.6-161.4,145.52-265.17,145.52Zm-291.28-485.26l81.88,301.57c1.53,5.14,41.65,134.79,185.76,146.3,102.66,8.22,189.72-35.15,258.83-128.86,40.57-55.02,62.93-112.36,71.23-136.34l-182.27-139.74c-47.51,52.96-102.89,79.86-164.83,80-.16,0-.34,0-.5,0-100.77,0-194.83-71.04-250.1-122.93Z"/>
    <g>
      <path class="cls-1" d="m1925.7,1211.68c-9.53,164.43,149.4,197.01,195.09,199.56,95.3,5.29,151.11-69.12,151.11-69.12l-42.91-116.31-16.31-60.85-34.56-22.96c-13.37-63.5-58.29-144.55-101.44-133.84,0,0-142.79,61.78-150.99,203.52Z"/>
      <g class="cls-5">
        <path class="cls-18" d="m2300.07,1296.64c-14.47,47.74-90.14,72.11-220.02,15.6-45.75-19.9-74.72-64.91-60.25-112.65,14.47-47.74,64.91-74.72,112.65-60.25,47.75,14.47,182.08,109.55,167.61,157.3Z"/>
      </g>
      <path class="cls-1" d="m2109.83,1069.84l17.38,183.83,129.98-71.49s38.05-16.4,83.5-40.75c75.95-40.65,172.66-103.48,146.81-148.67-43.84-76.73-259.27,81.32-259.27,81.32,0,0,140.31-233.83,46.01-268.93-51.87-19.34-106.62,101.17-137.99,185.99-16.39,44.19-26.43,78.7-26.43,78.7Z"/>
      <g class="cls-5">
        <path class="cls-18" d="m2109.83,1069.84l17.38,183.83,129.98-71.49s38.05-16.4,83.5-40.75c-47.9-4.33-109.43-14.7-139.22-39.68-27.4-22.96-30.01-85.62-65.22-110.62-16.39,44.19-26.43,78.7-26.43,78.7Z"/>
      </g>
      <path class="cls-18" d="m2127.2,1271.9c-2.93,0-5.86-.71-8.53-2.12-5.42-2.87-9.03-8.28-9.61-14.39l-17.37-183.82c-.21-2.29,0-4.59.64-6.8,6.99-24.05,70.48-236.01,145.01-273.47,14.46-7.27,29.42-8.38,43.26-3.23,18.91,7.04,32.48,20.97,39.25,40.28,17.58,50.17-13.67,132.59-41.48,190.48,55.33-33.78,134.9-74.14,185-63.48,17.67,3.75,31.49,13.57,39.96,28.39,7.43,13.01,8.66,27.97,3.55,43.26-25.22,75.55-216.01,160.45-241.67,171.58l-129.24,71.06c-2.73,1.5-5.75,2.25-8.78,2.25Zm1.09-200.27l14.43,152.72,105.69-58.11c.51-.28,1.03-.53,1.56-.76,77.83-33.6,207.02-104.05,222.36-150.01,2.34-7.02.89-10.98-.63-13.65-3.35-5.86-8.25-9.2-15.89-10.82-53.03-11.28-174.49,66.77-216.81,97.79-7,5.13-16.63,4.61-23.04-1.23-6.41-5.84-7.81-15.4-3.35-22.83,26.59-44.35,91.52-171.1,72.87-224.33-3.2-9.13-8.78-14.9-17.57-18.18-2.92-1.08-7.17-1.89-14.19,1.64-44.9,22.56-100.21,162.46-125.42,247.77Z"/>
      <path class="cls-1" d="m2295.41,1329.92c-35.14,31.13-140.5,18.71-168.87-21.3-24.13-34.06,16.84-55.72,28.22-60.93,1.78-.84,2.85-1.23,2.85-1.23,0,0-34.83-23.41-31.74-57.78.2-2.22.55-4.5,1.12-6.85,8.96-38.02,118.36-40.03,161.39-19.04,32.17,15.7,40.9,33.38,39.61,49.08-1.36,16.72-14.07,31.19-21.89,38.62-3.6,3.38-6.12,5.28-6.12,5.28,0,0,23.58,49.22-4.58,74.14Z"/>
      <g class="cls-5">
        <path class="cls-18" d="m2306.11,1250.5c-30.87,5.59-91.49,12.63-151.34-2.8,1.78-.84,2.85-1.23,2.85-1.23,0,0-34.83-23.41-31.74-57.78,33.08,18.5,126.5,62.95,202.13,23.2-1.36,16.72-14.07,31.19-21.89,38.62Z"/>
      </g>
      <g class="cls-5">
        <path class="cls-18" d="m2295.41,1329.92c-35.14,31.13-140.5,18.71-168.87-21.3-11.87-16.73-8-30.45.35-40.73,1.13,2.39,2.57,4.87,4.37,7.42,28.33,40,133.69,52.42,168.81,21.33,3.64-3.23,6.45-6.85,8.49-10.75,1.91,14.9.19,32.18-13.16,44.03Z"/>
      </g>
      <path class="cls-18" d="m2232.22,1365.65c-7.86,0-16-.47-24.35-1.43-43.8-5.05-79.75-21.89-96.18-45.05-12.92-18.23-11.97-34.24-8.9-44.46,4.18-13.9,14.4-24.47,24.39-31.89-12.31-14.68-24.47-37.23-17.92-65.13,2.26-9.63,9.33-23.18,30.2-33.09,43.02-20.42,121.02-15.71,156.92,1.8h0c30.78,15.01,47.51,34.36,49.72,57.5,2.38,24.89-13.22,45.51-24.52,56.96,8.13,24.5,11.28,60.24-14.1,82.71-16.14,14.28-43.31,22.07-75.26,22.07Zm-19.09-197.91c-21.99,0-43.74,3.01-58.03,9.79-6.94,3.29-9.9,6.55-10.35,8.5-5.9,25.12,22.81,45.16,23.1,45.36,5.57,3.82,8.61,10.44,7.82,17.15-.78,6.71-5.17,12.47-11.47,14.91-7.37,2.92-23.64,12.12-26.52,21.79-.43,1.46-1.59,5.34,3.74,12.85,10.06,14.19,38.45,26.22,70.62,29.93,30.72,3.55,59.37-1.17,71.29-11.73,17.18-15.21.36-52.3.18-52.68-3.69-7.81-1.4-17.2,5.51-22.39,5.79-4.42,22.17-20.25,20.81-33.91-1.2-12-16.66-21.94-29.42-28.16,0,0,0,0,0,0-14.73-7.19-41.18-11.42-67.29-11.42Z"/>
      <path class="cls-18" d="m2245.1,1279.5c-26.83,0-60.05-3.52-93.78-15.95-9.44-3.48-14.27-13.95-10.8-23.39,3.48-9.44,13.95-14.27,23.39-10.8,65.49,24.13,131.12,8.87,131.78,8.72,9.78-2.34,19.61,3.66,21.97,13.44,2.36,9.77-3.62,19.6-13.38,21.97-1.73.42-25.38,6.01-59.18,6.01Z"/>
      <path class="cls-1" d="m2076.69,1008.18c57.28-14.22,117.61,133.07,103.31,186.63-10.92,40.89-69.1,60.12-110.73-8.89-42.19-69.92-82.52-155.41,7.43-177.74Z"/>
      <path class="cls-1" d="m2271.9,1342.13s-55.81,74.38-151.09,69.1c-45.71-2.53-204.64-35.11-195.12-199.56,8.21-141.73,150.99-203.49,150.99-203.49,57.28-14.22,117.61,133.07,103.31,186.63-10.92,40.89-78.03,45.6-106.83-40.89,0,0,6.94,72.74-63.12,99.7l110.23,117.4,106.96,10.9,44.66-39.79Z"/>
      <path class="cls-1" d="m2045.83,1230.61l-2.2-2.33c2.48-.96,4.77-1.93,7.01-3.02-1.49,1.78-3.09,3.59-4.81,5.35Z"/>
      <g class="cls-5">
        <path class="cls-18" d="m2078.89,1142.55c.82-28.3,55.76,61.04,100.02,55.78-11.84,32.3-60.9,38.27-92.17-14.18,3.81-21.83-7.86-41.6-7.86-41.6Z"/>
      </g>
      <g class="cls-5">
        <path class="cls-18" d="m2209.2,1380.07l18.05,1.85c-25.62,16.7-61.7,31.79-106.45,29.32-45.73-2.53-204.65-35.14-195.11-199.58,5.58-96.44,73.52-155.89,116.35-183.98-37.95,33.04-78.52,85.09-82.78,158.65-9.53,164.44,149.39,197.05,195.11,199.58,20.09,1.09,38.42-1.3,54.83-5.84Z"/>
      </g>
      <path class="cls-1" d="m2271.85,1342.19c-.56.74-4.94,6.4-12.88,14.23l-2.77-.27,15.65-13.96Z"/>
      <path class="cls-1" d="m2260.82,1356.6c-1.9,1.23-3.85,2.5-5.88,3.69,1.4-1.34,2.75-2.64,4.03-3.87l1.85.18Z"/>
      <path class="cls-18" d="m1959.85,1351.57c-5.42,0-10.78-2.41-14.38-7.01-28.24-36.21-41.01-81.27-37.96-133.95,8.75-151.2,155.7-216.45,161.95-219.16.92-.4,1.87-.72,2.84-.96,14.53-3.61,37.23-2.45,62.79,23.56,42.81,43.57,74.94,138.9,62.51,185.45-6.57,24.62-27.4,41.02-53.07,41.8-19.58.58-43.19-8.47-62.88-32.65-10.37,24.25-30.09,48.5-65.07,61.96-9.39,3.61-19.93-1.07-23.54-10.46-3.61-9.39,1.07-19.93,10.46-23.54,55.88-21.5,51.72-78.65,51.52-81.07-.77-9.2,5.44-17.57,14.48-19.43,9.02-1.86,18.03,3.28,20.95,12.04,14.19,42.62,37.44,57.25,52.98,56.73,9.48-.29,16.57-5.81,18.97-14.78,8.35-31.27-17.8-114.39-53.3-150.51-7.12-7.24-17.38-15.34-26.69-14-14.72,6.98-131.53,66.14-138.53,187.12-2.52,43.59,7.68,80.4,30.32,109.43,6.19,7.93,4.77,19.38-3.16,25.57-3.33,2.6-7.28,3.85-11.19,3.85Z"/>
      <path class="cls-18" d="m2130.6,1429.72c-3.55,0-7.14-.1-10.8-.3-10.05-.56-17.74-9.15-17.18-19.2.56-10.05,9.16-17.65,19.2-17.18,83.99,4.67,133.48-59.16,135.54-61.89,6.08-7.99,17.49-9.58,25.5-3.54,8.01,6.05,9.63,17.42,3.61,25.45-2.43,3.24-58.68,76.65-155.87,76.65Z"/>
    </g>
    <path class="cls-18" d="m1903.46,1697.48h-.26c-37.64-.71-66.25-15.04-85.02-42.6-65.99-96.86,19.01-328.73,22.66-338.56,2.63-7.07,10.5-10.66,17.57-8.05,7.07,2.63,10.68,10.49,8.05,17.57-.84,2.27-83.78,228.43-25.69,313.66,13.69,20.09,34.28,30.11,62.94,30.65,7.55.14,13.55,6.37,13.4,13.92-.14,7.46-6.23,13.4-13.65,13.4Z"/>
  </g>
  <path class="cls-14" d="m2262.25,2176.15v259.37H265.37v-259.37c0-79.47,64.4-143.92,143.87-143.92h1709.13c79.47,0,143.87,64.44,143.87,143.92Z"/>
  <g class="cls-6">
    <path class="cls-1" d="m2118.38,2032.24H409.25c-79.47,0-143.87,64.44-143.87,143.92v16.53c7.95-71.96,68.9-127.94,142.97-127.94h1709.13c79.47,0,143.87,64.44,143.87,143.92v226.87h.9v-259.37c0-79.47-64.4-143.92-143.87-143.92Z"/>
  </g>
  <path class="cls-4" d="m999,2435.53v733.67H399.91c-74.28,0-134.54-60.25-134.54-134.58v-599.09h733.62Z"/>
  <rect class="cls-4" x="999" y="2435.53" width="529.63" height="733.67"/>
  <path class="cls-4" d="m2262.25,2435.53v599.09c0,74.33-60.21,134.58-134.54,134.58h-599.09v-733.67h733.62Z"/>
  <g class="cls-5">
    <path class="cls-18" d="m2262.25,2215v819.61c0,74.33-60.21,134.58-134.54,134.58H399.91c-74.28,0-134.54-60.25-134.54-134.58v-276.32c277,191.29,661.94-19.81,661.94-19.81,10.38,57.39,35.75,101.79,71.69,135.4,115.86,108.53,341.63,105.34,529.63,64.95,95.19-20.45,180.72-50.46,237.38-80.39,179.13-94.6,343.94-166.35,434.04-358.03,24.12-51.32,42.67-194.21,62.21-285.42Z"/>
  </g>
  <path class="cls-18" d="m2280.49,2453.75H247.14v-277.61c0-89.38,72.72-162.1,162.11-162.1h1709.14c89.39,0,162.11,72.72,162.11,162.1v277.61Zm-1996.92-36.44h1960.48v-241.17c0-69.29-56.38-125.67-125.67-125.67H409.25c-69.29,0-125.67,56.38-125.67,125.67v241.17Z"/>
  <path class="cls-18" d="m2127.72,3187.4H399.91c-84.24,0-152.77-68.53-152.77-152.77v-617.31h2033.35v617.31c0,84.24-68.53,152.77-152.77,152.77Zm-1844.15-733.64v580.87c0,64.15,52.19,116.33,116.33,116.33h1727.81c64.15,0,116.34-52.19,116.34-116.33v-580.87H283.58Z"/>
  <path class="cls-18" d="m1017.22,3187.4H399.91c-84.24,0-152.77-68.53-152.77-152.77v-617.31h770.08v770.08Zm-733.64-733.64v580.87c0,64.15,52.19,116.33,116.33,116.33h580.87v-697.21H283.58Z"/>
  <path class="cls-18" d="m1546.85,3187.4h-566.06v-770.08h566.06v770.08Zm-529.63-36.44h493.19v-697.21h-493.19v697.21Z"/>
  <path class="cls-18" d="m2127.72,3187.4h-617.31v-770.08h770.08v617.31c0,84.24-68.53,152.77-152.77,152.77Zm-580.87-36.44h580.87c64.15,0,116.34-52.19,116.34-116.33v-580.87h-697.21v697.21Z"/>
  <path class="cls-20" d="m696.97,2233.91c0,80.01-64.87,144.87-144.9,144.87s-144.87-64.87-144.87-144.87,64.87-144.9,144.87-144.9,144.9,64.87,144.9,144.9Z"/>
  <path class="cls-18" d="m552.07,2397c-89.93,0-163.09-73.16-163.09-163.1s73.16-163.11,163.09-163.11,163.12,73.17,163.12,163.11-73.17,163.1-163.12,163.1Zm0-289.77c-69.84,0-126.66,56.83-126.66,126.67s56.82,126.66,126.66,126.66,126.68-56.82,126.68-126.66-56.83-126.67-126.68-126.67Z"/>
  <path class="cls-3" d="m593.5,2233.9c0,22.87-18.54,41.42-41.42,41.42s-41.42-18.54-41.42-41.42,18.54-41.42,41.42-41.42,41.42,18.54,41.42,41.42Z"/>
  <path class="cls-20" d="m2098.11,2233.9c0,80.02-64.85,144.88-144.88,144.88s-144.88-64.85-144.88-144.88c0-7.42.55-14.71,1.64-21.82,10.52-69.68,70.64-123.06,143.24-123.06s132.76,53.42,143.24,123.11c1.09,7.1,1.64,14.35,1.64,21.77Z"/>
  <g class="cls-5">
    <path class="cls-18" d="m2098.11,2233.9c0,80.02-64.85,144.88-144.88,144.88s-144.88-64.85-144.88-144.88c0-7.42.55-14.71,1.64-21.82,15.26,19.63,18.04,55.2,52.56,55.2,27.33,0,34.25-47.87,34.25-47.87h112.86s6.92,47.87,34.25,47.87c34.48,0,37.35-35.52,52.56-55.15,1.09,7.1,1.64,14.35,1.64,21.77Z"/>
  </g>
  <path class="cls-18" d="m1953.23,2397c-89.93,0-163.09-73.16-163.09-163.1s73.16-163.11,163.09-163.11,163.12,73.17,163.12,163.11-73.17,163.1-163.12,163.1Zm0-289.77c-69.84,0-126.66,56.83-126.66,126.67s56.82,126.66,126.66,126.66,126.68-56.82,126.68-126.66-56.83-126.67-126.68-126.67Z"/>
  <path class="cls-3" d="m1994.66,2233.9c0,22.87-18.54,41.42-41.42,41.42s-41.42-18.54-41.42-41.42,18.54-41.42,41.42-41.42,41.42,18.54,41.42,41.42Z"/>
  <g class="cls-6">
    <path class="cls-1" d="m1994.68,2233.9c0,5.15-.96,10.07-2.69,14.62-5.92-15.67-21.04-26.78-38.76-26.78s-32.84,11.11-38.71,26.78c-1.73-4.55-2.69-9.47-2.69-14.62,0-22.86,18.54-41.45,41.4-41.45s41.44,18.58,41.44,41.45Z"/>
  </g>
  <g class="cls-5">
    <path class="cls-18" d="m696.22,2233.9c0,80.02-64.85,144.88-144.88,144.88s-144.88-64.85-144.88-144.88c0-7.42.55-14.71,1.64-21.82,15.26,19.63,18.04,55.2,52.56,55.2,27.33,0,34.25-47.87,34.25-47.87h112.86s6.92,47.87,34.25,47.87c34.48,0,37.35-35.52,52.56-55.15,1.09,7.1,1.64,14.35,1.64,21.77Z"/>
  </g>
  <g class="cls-6">
    <path class="cls-1" d="m592.79,2233.9c0,5.15-.96,10.07-2.69,14.62-5.92-15.67-21.04-26.78-38.76-26.78s-32.84,11.11-38.71,26.78c-1.73-4.55-2.69-9.47-2.69-14.62,0-22.86,18.54-41.45,41.4-41.45s41.44,18.58,41.44,41.45Z"/>
  </g>
  <path class="cls-18" d="m1953.24,2293.53c-32.88,0-59.63-26.75-59.63-59.63s26.75-59.64,59.63-59.64,59.64,26.75,59.64,59.64-26.76,59.63-59.64,59.63Zm0-82.84c-12.79,0-23.2,10.41-23.2,23.2s10.41,23.2,23.2,23.2,23.21-10.41,23.21-23.2-10.41-23.2-23.21-23.2Z"/>
  <rect class="cls-1" x="815.69" y="2089.01" width="886.95" height="137.38" rx="48.7" ry="48.7"/>
  <g class="cls-5">
    <path class="cls-18" d="m1702.65,2139.4v38.3c0,26.78-21.95,48.69-48.73,48.69h-789.55c-26.78,0-48.69-21.91-48.69-48.69v-38.3c0,26.78,21.91,48.69,48.69,48.69h789.55c26.78,0,48.73-21.91,48.73-48.69Z"/>
  </g>
  <rect class="cls-1" x="1070.33" y="2687.51" width="386.98" height="262.95" rx="33.27" ry="33.27"/>
  <g class="cls-5">
    <path class="cls-18" d="m1457.31,2872.89v44.31c0,18.31-14.98,33.25-33.29,33.25h-320.4c-18.31,0-33.29-14.94-33.29-33.25v-44.31c0,18.31,14.98,33.25,33.29,33.25h320.4c18.31,0,33.29-14.94,33.29-33.25Z"/>
  </g>
  <path class="cls-18" d="m1424.03,2968.68h-320.43c-28.39,0-51.49-23.1-51.49-51.49v-196.4c0-28.39,23.1-51.49,51.49-51.49h320.43c28.39,0,51.49,23.1,51.49,51.49v196.4c0,28.39-23.1,51.49-51.49,51.49Zm-320.43-262.95c-8.3,0-15.06,6.75-15.06,15.06v196.4c0,8.3,6.75,15.05,15.06,15.05h320.43c8.3,0,15.06-6.75,15.06-15.05v-196.4c0-8.31-6.75-15.06-15.06-15.06h-320.43Z"/>
  <rect class="cls-21" x="1070.33" y="3008.87" width="58.87" height="94.06" rx="17.9" ry="17.9"/>
  <g class="cls-5">
    <path class="cls-18" d="m1129.21,3047v38.03c0,9.84-8.06,17.9-17.9,17.9h-23.09c-9.84,0-17.9-8.06-17.9-17.9v-38.03c0,9.88,8.06,17.9,17.9,17.9h23.09c9.84,0,17.9-8.02,17.9-17.9Z"/>
  </g>
  <path class="cls-18" d="m1111.3,3121.15h-23.07c-19.91,0-36.12-16.2-36.12-36.12v-58.27c0-19.91,16.2-36.11,36.12-36.11h23.07c19.91,0,36.12,16.2,36.12,36.11v58.27c0,19.92-16.2,36.12-36.12,36.12Zm-.32-94.38l-22.75.32.32,57.94,22.43-.31v-57.95Zm.32,57.95h-.02.02Z"/>
  <rect class="cls-21" x="1179.7" y="3008.87" width="58.87" height="94.06" rx="17.9" ry="17.9"/>
  <path class="cls-18" d="m1220.67,3121.15h-23.07c-19.91,0-36.12-16.2-36.12-36.12v-58.27c0-19.91,16.2-36.11,36.12-36.11h23.07c19.91,0,36.12,16.2,36.12,36.11v58.27c0,19.92-16.2,36.12-36.12,36.12Zm-.32-94.38l-22.75.32.32,57.94,22.43-.31v-57.95Zm.32,57.95h-.02.02Z"/>
  <rect class="cls-21" x="1289.07" y="3008.87" width="58.87" height="94.06" rx="17.9" ry="17.9"/>
  <path class="cls-18" d="m1330.04,3121.15h-23.07c-19.91,0-36.12-16.2-36.12-36.12v-58.27c0-19.91,16.2-36.11,36.12-36.11h23.07c19.91,0,36.12,16.2,36.12,36.11v58.27c0,19.92-16.2,36.12-36.12,36.12Zm-.32-94.38l-22.75.32.32,57.94,22.43-.31v-57.95Zm.32,57.95h-.02.02Z"/>
  <rect class="cls-21" x="1398.44" y="3008.87" width="58.87" height="94.06" rx="17.9" ry="17.9"/>
  <path class="cls-18" d="m1439.41,3121.15h-23.07c-19.91,0-36.12-16.2-36.12-36.12v-58.27c0-19.91,16.2-36.11,36.12-36.11h23.07c19.91,0,36.12,16.2,36.12,36.11v58.27c0,19.92-16.2,36.12-36.12,36.12Zm-.32-94.38l-22.75.32.32,57.94,22.43-.31v-57.95Zm.32,57.95h-.02.02Z"/>
  <g class="cls-5">
    <circle class="cls-18" cx="1653.97" cy="2348.3" r="62.41"/>
  </g>
  <circle class="cls-21" cx="1653.97" cy="2324.96" r="48.66"/>
  <g class="cls-5">
    <path class="cls-18" d="m1702.65,2324.95c0,26.92-21.82,48.69-48.69,48.69s-48.64-21.77-48.64-48.69c0-5.65.96-11.07,2.78-16.12,6.65,18.95,24.68,32.47,45.86,32.47s39.26-13.53,45.91-32.47c1.82,5.06,2.78,10.48,2.78,16.12Z"/>
  </g>
  <g class="cls-5">
    <circle class="cls-18" cx="1021.66" cy="2348.3" r="62.41"/>
  </g>
  <g class="cls-5">
    <circle class="cls-18" cx="863.54" cy="2348.3" r="62.41"/>
  </g>
  <path class="cls-18" d="m1653.97,2391.85c-36.88,0-66.88-30-66.88-66.88s30-66.88,66.88-66.88,66.88,30,66.88,66.88-30,66.88-66.88,66.88Zm0-97.33c-16.79,0-30.45,13.66-30.45,30.44s13.66,30.45,30.45,30.45,30.45-13.66,30.45-30.45-13.66-30.44-30.45-30.44Z"/>
  <g>
    <path class="cls-18" d="m1186,2394.05c-10.06,0-18.22-8.15-18.22-18.22v-95.05c0-10.06,8.16-18.22,18.22-18.22s18.22,8.15,18.22,18.22v95.05c0,10.06-8.16,18.22-18.22,18.22Z"/>
    <path class="cls-18" d="m1287.21,2394.05c-10.06,0-18.22-8.15-18.22-18.22v-95.05c0-10.06,8.16-18.22,18.22-18.22s18.22,8.15,18.22,18.22v95.05c0,10.06-8.16,18.22-18.22,18.22Z"/>
    <path class="cls-18" d="m1388.42,2394.05c-10.06,0-18.22-8.15-18.22-18.22v-95.05c0-10.06,8.16-18.22,18.22-18.22s18.22,8.15,18.22,18.22v95.05c0,10.06-8.16,18.22-18.22,18.22Z"/>
    <path class="cls-18" d="m1489.64,2394.05c-10.06,0-18.22-8.15-18.22-18.22v-95.05c0-10.06,8.16-18.22,18.22-18.22s18.22,8.15,18.22,18.22v95.05c0,10.06-8.16,18.22-18.22,18.22Z"/>
  </g>
  <path class="cls-18" d="m496.63,1965.63h109.42c17.28,0,31.31,14.03,31.31,31.31v35.32h-172.03v-35.32c0-17.28,14.03-31.31,31.31-31.31Z"/>
  <path class="cls-19" d="m1097.65,2539.56h332.33c15.08,0,27.33,12.24,27.33,27.33v34.89c0,15.08-12.24,27.33-27.33,27.33h-332.33c-15.08,0-27.33-12.24-27.33-27.33v-34.89c0-15.08,12.24-27.33,27.33-27.33Z"/>
  <g class="cls-6">
    <path class="cls-1" d="m1457.31,2566.88v26.46c0-15.08-12.25-27.33-27.33-27.33h-332.34c-15.07,0-27.33,12.25-27.33,27.33v-26.46c0-15.08,12.25-27.33,27.33-27.33h332.34c15.07,0,27.33,12.25,27.33,27.33Z"/>
  </g>
  <g class="cls-5">
    <path class="cls-18" d="m1457.31,2566.88v34.89c0,15.12-12.25,27.33-27.33,27.33h-332.34c-15.07,0-27.33-12.21-27.33-27.33v-34.89c0-.73.05-1.41.09-2.1,1.09,14.07,12.89,25.19,27.24,25.19h332.34c14.35,0,26.14-11.11,27.24-25.19.04.68.09,1.37.09,2.1Z"/>
  </g>
  <path class="cls-18" d="m1429.98,2647.32h-332.33c-25.11,0-45.54-20.43-45.54-45.54v-34.89c0-25.11,20.43-45.55,45.54-45.55h332.33c25.11,0,45.54,20.43,45.54,45.55v34.89c0,25.11-20.43,45.54-45.54,45.54Zm-332.33-89.55c-5.02,0-9.11,4.09-9.11,9.11v34.89c0,5.02,4.09,9.11,9.11,9.11h332.33c5.02,0,9.11-4.09,9.11-9.11v-34.89c0-5.02-4.09-9.11-9.11-9.11h-332.33Z"/>
  <rect class="cls-1" x="1132.34" y="2687.51" width="262.95" height="174.33"/>
  <g class="cls-5">
    <rect class="cls-18" x="1132.35" y="2819.01" width="262.93" height="42.86"/>
  </g>
  <path class="cls-18" d="m1413.51,2880.06h-299.38v-210.77h299.38v210.77Zm-262.95-36.44h226.51v-137.9h-226.51v137.9Z"/>
  <circle class="cls-18" cx="1196.84" cy="2778.46" r="23.9" transform="translate(-1614.12 1660.08) rotate(-45)"/>
  <circle class="cls-18" cx="1330.8" cy="2774.68" r="23.9"/>
  <path class="cls-18" d="m1434.54,2968.68h-341.44c-22.6,0-40.99-18.39-40.99-40.99v-84.06h423.42v84.06c0,22.6-18.39,40.99-40.99,40.99Zm-345.99-88.62v47.63c0,2.51,2.04,4.56,4.55,4.56h341.44c2.51,0,4.56-2.05,4.56-4.56v-47.63h-350.54Z"/>
  <rect class="cls-18" x="1237.32" y="2758.34" width="52.99" height="40.23"/>
  <path class="cls-16" d="m1349.51,2157.5l-10.63,68.9h31.63l-10.63-68.9c-.91-5.92-9.45-5.92-10.36,0Z"/>
  <path class="cls-18" d="m1653.94,2244.61h-789.55c-36.9,0-66.92-30.02-66.92-66.92v-39.99c0-36.89,30.02-66.91,66.92-66.91h789.55c36.9,0,66.92,30.02,66.92,66.91v39.99c0,36.9-30.02,66.92-66.92,66.92Zm-789.55-137.38c-16.81,0-30.48,13.67-30.48,30.48v39.99c0,16.81,13.67,30.48,30.48,30.48h789.55c16.81,0,30.48-13.68,30.48-30.48v-39.99c0-16.81-13.67-30.48-30.48-30.48h-789.55Z"/>
  <g>
    <path class="cls-18" d="m873.72,2147.38l4.99-58.37h-15.18l4.99,58.37c.27,3.18,4.92,3.18,5.19,0Z"/>
    <path class="cls-18" d="m929.15,2147.38l4.99-58.37h-15.18l4.99,58.37c.27,3.18,4.92,3.18,5.19,0Z"/>
    <path class="cls-18" d="m984.59,2147.38l4.99-58.37h-15.18l4.99,58.37c.27,3.18,4.92,3.18,5.19,0Z"/>
    <path class="cls-18" d="m1040.02,2147.38l4.99-58.37h-15.18l4.99,58.37c.27,3.18,4.92,3.18,5.19,0Z"/>
    <path class="cls-18" d="m1095.46,2147.38l4.99-58.37h-15.18l4.99,58.37c.27,3.18,4.92,3.18,5.19,0Z"/>
    <path class="cls-18" d="m1150.89,2147.38l4.99-58.37h-15.18l4.99,58.37c.27,3.18,4.92,3.18,5.19,0Z"/>
    <path class="cls-18" d="m1206.32,2147.38l4.99-58.37h-15.18l4.99,58.37c.27,3.18,4.92,3.18,5.19,0Z"/>
    <path class="cls-18" d="m1261.76,2147.38l4.99-58.37h-15.18l4.99,58.37c.27,3.18,4.92,3.18,5.19,0Z"/>
    <path class="cls-18" d="m1317.19,2147.38l4.99-58.37h-15.18l4.99,58.37c.27,3.18,4.92,3.18,5.19,0Z"/>
    <path class="cls-18" d="m1372.63,2147.38l4.99-58.37h-15.18l4.99,58.37c.27,3.18,4.92,3.18,5.19,0Z"/>
    <path class="cls-18" d="m1428.06,2147.38l4.99-58.37h-15.18l4.99,58.37c.27,3.18,4.92,3.18,5.19,0Z"/>
    <path class="cls-18" d="m1483.49,2147.38l4.99-58.37h-15.18l4.99,58.37c.27,3.18,4.92,3.18,5.19,0Z"/>
    <path class="cls-18" d="m1538.93,2147.38l4.99-58.37h-15.18l4.99,58.37c.27,3.18,4.92,3.18,5.19,0Z"/>
    <path class="cls-18" d="m1594.36,2147.38l4.99-58.37h-15.18l4.99,58.37c.27,3.18,4.92,3.18,5.19,0Z"/>
    <path class="cls-18" d="m1649.8,2147.38l4.99-58.37h-15.18l4.99,58.37c.27,3.18,4.92,3.18,5.19,0Z"/>
  </g>
  <g>
    <path class="cls-14" d="m632.18,2500.42c-166.74,0-301.9,135.16-301.9,301.93s135.16,301.9,301.9,301.9,301.93-135.16,301.93-301.9-135.19-301.93-301.93-301.93Zm0,525.29c-123.35,0-223.36-100.01-223.36-223.36s100.01-223.39,223.36-223.39,223.39,100.01,223.39,223.39-100.01,223.36-223.39,223.36Z"/>
    <g class="cls-6">
      <path class="cls-1" d="m854.9,2820.15c-9.06,115.04-105.3,205.59-222.71,205.59s-213.6-90.54-222.66-205.59c-.46,5.83-.68,11.8-.68,17.76,0,123.33,100.02,223.35,223.35,223.35s223.39-100.01,223.39-223.35c0-5.97-.23-11.93-.68-17.76Zm-222.71-319.72c-166.74,0-301.91,135.13-301.91,301.91,0,5.97.18,11.93.55,17.81,9.15-158.54,140.59-284.2,301.36-284.2s292.21,125.66,301.37,284.2c.36-5.88.55-11.84.55-17.81,0-166.78-135.17-301.91-301.91-301.91Zm0,525.31c-117.37,0-213.6-90.54-222.66-205.59-.46,5.83-.68,11.8-.68,17.76,0,123.33,100.02,223.35,223.35,223.35s223.39-100.01,223.39-223.35c0-5.97-.23-11.93-.68-17.76-9.06,115.04-105.3,205.59-222.71,205.59Z"/>
    </g>
    <path class="cls-7" d="m632.18,2500.42c-166.74,0-301.9,135.16-301.9,301.93s135.16,301.9,301.9,301.9,301.93-135.16,301.93-301.9-135.19-301.93-301.93-301.93Zm0,525.29c-123.35,0-223.36-100.01-223.36-223.36s100.01-223.39,223.36-223.39,223.39,100.01,223.39,223.39-100.01,223.36-223.39,223.36Z"/>
    <path class="cls-19" d="m855.58,2802.34c0,.87,0,1.73-.05,2.6-1.37,122.19-100.83,220.8-223.35,220.8s-223.35-100.01-223.35-223.39c0-5.1.18-10.2.5-15.21,7.83-116.27,104.61-208.18,222.85-208.18s223.39,100.01,223.39,223.39Z"/>
    <g class="cls-5">
      <path class="cls-18" d="m855.53,2804.94c-1.37,122.19-100.83,220.8-223.35,220.8s-223.35-100.01-223.35-223.39c0-5.1.18-10.2.5-15.21,15.17,19.45,48.09,55.93,82.12,57.25,65.17,2.46,77.24-48.87,77.24-48.87l63.49,6.83h15.71l63.49-6.83s12.11,51.33,77.29,48.87c25.09-.96,49.64-21.13,66.86-39.44Z"/>
    </g>
    <path class="cls-18" d="m632.18,3043.93c-133.2,0-241.57-108.37-241.57-241.57s108.37-241.61,241.57-241.61,241.61,108.38,241.61,241.61-108.39,241.57-241.61,241.57Zm0-446.74c-113.11,0-205.14,92.04-205.14,205.17s92.02,205.14,205.14,205.14,205.17-92.02,205.17-205.14-92.04-205.17-205.17-205.17Z"/>
    <path class="cls-3" d="m695.53,2794.04c5.27,41.77-29.85,76.89-71.63,71.64-28.46-3.58-51.45-26.57-55.03-55.03-5.26-41.78,29.87-76.9,71.64-71.63,28.46,3.59,51.44,26.57,55.03,55.03Z"/>
    <g class="cls-6">
      <path class="cls-1" d="m694.08,2818.28c-6.38-24.87-27.74-44.18-53.56-47.41-33.29-4.24-62.4,17.26-70.18,47.32-.68-2.46-1.14-5.01-1.46-7.56-5.28-41.76,29.88-76.88,71.64-71.64,28.42,3.6,51.42,26.6,55.02,55.06,1.05,8.43.5,16.62-1.46,24.23Z"/>
    </g>
    <path class="cls-18" d="m632.19,2884.41c-45.25,0-82.07-36.82-82.07-82.07s36.82-82.08,82.07-82.08,82.08,36.82,82.08,82.08-36.82,82.07-82.08,82.07Zm0-127.71c-25.16,0-45.63,20.47-45.63,45.64s20.47,45.63,45.63,45.63,45.64-20.47,45.64-45.63-20.48-45.64-45.64-45.64Z"/>
    <circle class="cls-18" cx="434.23" cy="2628.85" r="13.85"/>
    <circle class="cls-18" cx="830.17" cy="2628.85" r="13.85"/>
    <circle class="cls-18" cx="434.23" cy="2973.3" r="13.85"/>
    <circle class="cls-18" cx="830.17" cy="2973.3" r="13.85"/>
    <path class="cls-18" d="m632.2,2645.27c20.61-5.65,43.16-4.42,64.21,2.08,21.08,6.54,40.72,18.49,56.52,34.27,15.82,15.78,27.77,35.42,34.31,56.51,6.5,21.06,7.73,43.62,2.04,64.23-5.76-20.53-12.62-39.07-21.89-56-9.18-16.91-20.53-32.1-33.78-45.42-13.3-13.28-28.49-24.63-45.41-33.81-16.93-9.28-35.49-16.14-56.01-21.86Z"/>
    <path class="cls-18" d="m632.2,2959.44c-20.61,5.65-43.16,4.42-64.21-2.08-21.08-6.54-40.72-18.49-56.52-34.27-15.82-15.78-27.77-35.42-34.31-56.51-6.5-21.06-7.73-43.62-2.04-64.23,5.76,20.52,12.62,39.07,21.89,56,9.18,16.91,20.53,32.1,33.78,45.42,13.3,13.28,28.49,24.63,45.41,33.81,16.93,9.28,35.49,16.14,56.01,21.86Z"/>
  </g>
  <g>
    <path class="cls-14" d="m1898.11,2500.42c-166.74,0-301.9,135.16-301.9,301.93s135.16,301.9,301.9,301.9,301.93-135.16,301.93-301.9-135.19-301.93-301.93-301.93Zm0,525.29c-123.35,0-223.36-100.01-223.36-223.36s100.01-223.39,223.36-223.39,223.39,100.01,223.39,223.39-100.01,223.36-223.39,223.36Z"/>
    <g class="cls-6">
      <path class="cls-1" d="m2120.82,2820.15c-9.06,115.04-105.3,205.59-222.71,205.59s-213.6-90.54-222.66-205.59c-.46,5.83-.68,11.8-.68,17.76,0,123.33,100.02,223.35,223.35,223.35s223.39-100.01,223.39-223.35c0-5.97-.23-11.93-.68-17.76Zm-222.71-319.72c-166.74,0-301.91,135.13-301.91,301.91,0,5.97.18,11.93.55,17.81,9.15-158.54,140.59-284.2,301.36-284.2s292.21,125.66,301.37,284.2c.36-5.88.55-11.84.55-17.81,0-166.78-135.17-301.91-301.91-301.91Zm0,525.31c-117.37,0-213.6-90.54-222.66-205.59-.46,5.83-.68,11.8-.68,17.76,0,123.33,100.02,223.35,223.35,223.35s223.39-100.01,223.39-223.35c0-5.97-.23-11.93-.68-17.76-9.06,115.04-105.3,205.59-222.71,205.59Z"/>
    </g>
    <path class="cls-7" d="m1898.11,2500.42c-166.74,0-301.9,135.16-301.9,301.93s135.16,301.9,301.9,301.9,301.93-135.16,301.93-301.9-135.19-301.93-301.93-301.93Zm0,525.29c-123.35,0-223.36-100.01-223.36-223.36s100.01-223.39,223.36-223.39,223.39,100.01,223.39,223.39-100.01,223.36-223.39,223.36Z"/>
    <path class="cls-19" d="m2121.51,2802.34c0,.87,0,1.73-.05,2.6-1.37,122.19-100.83,220.8-223.35,220.8s-223.35-100.01-223.35-223.39c0-5.1.18-10.2.5-15.21,7.83-116.27,104.61-208.18,222.85-208.18s223.39,100.01,223.39,223.39Z"/>
    <g class="cls-5">
      <path class="cls-18" d="m2121.46,2804.94c-1.37,122.19-100.83,220.8-223.35,220.8s-223.35-100.01-223.35-223.39c0-5.1.18-10.2.5-15.21,15.17,19.45,48.09,55.93,82.12,57.25,65.17,2.46,77.24-48.87,77.24-48.87l63.49,6.83h15.71l63.49-6.83s12.11,51.33,77.29,48.87c25.09-.96,49.64-21.13,66.86-39.44Z"/>
    </g>
    <path class="cls-18" d="m1898.11,3043.93c-133.21,0-241.57-108.37-241.57-241.57s108.37-241.61,241.57-241.61,241.61,108.38,241.61,241.61-108.38,241.57-241.61,241.57Zm0-446.74c-113.12,0-205.14,92.04-205.14,205.17s92.02,205.14,205.14,205.14,205.17-92.02,205.17-205.14-92.04-205.17-205.17-205.17Z"/>
    <path class="cls-3" d="m1961.46,2794.04c5.27,41.77-29.85,76.89-71.63,71.64-28.46-3.58-51.45-26.57-55.03-55.03-5.26-41.78,29.87-76.9,71.64-71.63,28.46,3.59,51.44,26.57,55.03,55.03Z"/>
    <g class="cls-6">
      <path class="cls-1" d="m1960.01,2818.28c-6.38-24.87-27.74-44.18-53.56-47.41-33.29-4.24-62.4,17.26-70.18,47.32-.68-2.46-1.14-5.01-1.46-7.56-5.28-41.76,29.88-76.88,71.64-71.64,28.42,3.6,51.42,26.6,55.02,55.06,1.05,8.43.5,16.62-1.46,24.23Z"/>
    </g>
    <path class="cls-18" d="m1898.12,2884.41c-45.25,0-82.07-36.82-82.07-82.07s36.82-82.08,82.07-82.08,82.08,36.82,82.08,82.08-36.82,82.07-82.08,82.07Zm0-127.71c-25.16,0-45.63,20.47-45.63,45.64s20.47,45.63,45.63,45.63,45.64-20.47,45.64-45.63-20.48-45.64-45.64-45.64Z"/>
    <circle class="cls-18" cx="1700.16" cy="2628.85" r="13.85"/>
    <circle class="cls-18" cx="2096.1" cy="2628.85" r="13.85"/>
    <circle class="cls-18" cx="1700.16" cy="2973.3" r="13.85"/>
    <circle class="cls-18" cx="2096.1" cy="2973.3" r="13.85"/>
    <path class="cls-18" d="m1898.13,2645.27c20.61-5.65,43.16-4.42,64.21,2.08,21.08,6.54,40.72,18.49,56.52,34.27,15.82,15.78,27.77,35.42,34.31,56.51,6.5,21.06,7.73,43.62,2.04,64.23-5.76-20.53-12.62-39.07-21.89-56-9.18-16.91-20.53-32.1-33.78-45.42-13.3-13.28-28.49-24.63-45.41-33.81-16.93-9.28-35.49-16.14-56.01-21.86Z"/>
    <path class="cls-18" d="m1898.13,2959.44c-20.61,5.65-43.16,4.42-64.21-2.08-21.08-6.54-40.72-18.49-56.52-34.27-15.82-15.78-27.77-35.42-34.31-56.51-6.5-21.06-7.73-43.62-2.04-64.23,5.76,20.52,12.62,39.07,21.89,56,9.18,16.91,20.53,32.1,33.78,45.42,13.3,13.28,28.49,24.63,45.41,33.81,16.93,9.28,35.49,16.14,56.01,21.86Z"/>
  </g>
  <path class="cls-18" d="m1953.26,2139.49c12.39-3.76,26.07-3.21,38.86.6,12.81,3.84,24.75,11.04,34.33,20.61,9.59,9.56,16.79,21.51,20.63,34.32,3.81,12.79,4.36,26.48.57,38.86-3.83-12.33-8.14-23.34-13.81-33.38-5.6-10.03-12.4-19.01-20.28-26.93-7.91-7.9-16.89-14.7-26.92-20.3-10.04-5.67-21.05-9.98-33.39-13.78Z"/>
  <path class="cls-18" d="m1953.26,2328.27c-12.39,3.76-26.07,3.21-38.85-.6-12.81-3.84-24.75-11.04-34.33-20.61-9.59-9.56-16.79-21.51-20.63-34.32-3.81-12.79-4.36-26.48-.57-38.86,3.83,12.33,8.14,23.34,13.81,33.38,5.6,10.03,12.4,19.01,20.28,26.93,7.91,7.89,16.89,14.7,26.92,20.3,10.04,5.67,21.05,9.98,33.39,13.78Z"/>
  <path class="cls-18" d="m551.34,2139.49c12.39-3.76,26.07-3.21,38.85.6,12.81,3.84,24.75,11.04,34.33,20.61,9.59,9.56,16.79,21.51,20.63,34.32,3.81,12.79,4.36,26.48.57,38.86-3.83-12.33-8.14-23.34-13.81-33.38-5.6-10.03-12.4-19.01-20.28-26.93-7.91-7.9-16.89-14.7-26.92-20.3-10.04-5.67-21.06-9.98-33.39-13.78Z"/>
  <path class="cls-18" d="m551.34,2328.27c-12.39,3.76-26.07,3.21-38.85-.6-12.81-3.84-24.75-11.04-34.33-20.61-9.59-9.56-16.79-21.51-20.63-34.32-3.81-12.79-4.36-26.48-.57-38.86,3.83,12.33,8.14,23.34,13.81,33.38,5.6,10.03,12.4,19.01,20.28,26.93,7.91,7.89,16.89,14.7,26.92,20.3,10.04,5.67,21.06,9.98,33.39,13.78Z"/>
  <g class="cls-5">
    <path class="cls-18" d="m1238.58,3047v38.03c0,9.84-8.06,17.9-17.9,17.9h-23.09c-9.84,0-17.9-8.06-17.9-17.9v-38.03c0,9.88,8.06,17.9,17.9,17.9h23.09c9.84,0,17.9-8.02,17.9-17.9Z"/>
  </g>
  <g class="cls-5">
    <path class="cls-18" d="m1347.96,3047v38.03c0,9.84-8.06,17.9-17.9,17.9h-23.09c-9.84,0-17.9-8.06-17.9-17.9v-38.03c0,9.88,8.06,17.9,17.9,17.9h23.09c9.84,0,17.9-8.02,17.9-17.9Z"/>
  </g>
  <g class="cls-5">
    <path class="cls-18" d="m1457.32,3047v38.03c0,9.84-8.06,17.9-17.9,17.9h-23.09c-9.84,0-17.9-8.06-17.9-17.9v-38.03c0,9.88,8.06,17.9,17.9,17.9h23.09c9.84,0,17.9-8.02,17.9-17.9Z"/>
  </g>
  <path class="cls-18" d="m552.08,2293.53c-32.88,0-59.63-26.75-59.63-59.63s26.75-59.64,59.63-59.64,59.64,26.75,59.64,59.64-26.76,59.63-59.64,59.63Zm0-82.84c-12.79,0-23.2,10.41-23.2,23.2s10.41,23.2,23.2,23.2,23.21-10.41,23.21-23.2-10.41-23.2-23.21-23.2Z"/>
  <circle class="cls-21" cx="1021.66" cy="2324.96" r="48.66"/>
  <path class="cls-18" d="m1021.66,2391.85c-36.88,0-66.88-30-66.88-66.88s30-66.88,66.88-66.88,66.88,30,66.88,66.88-30,66.88-66.88,66.88Zm0-97.33c-16.79,0-30.45,13.66-30.45,30.44s13.66,30.45,30.45,30.45,30.45-13.66,30.45-30.45-13.66-30.44-30.45-30.44Z"/>
  <circle class="cls-21" cx="864.35" cy="2324.96" r="48.66"/>
  <path class="cls-18" d="m864.35,2391.85c-36.88,0-66.88-30-66.88-66.88s30-66.88,66.88-66.88,66.88,30,66.88,66.88-30,66.88-66.88,66.88Zm0-97.33c-16.79,0-30.45,13.66-30.45,30.44s13.66,30.45,30.45,30.45,30.45-13.66,30.45-30.45-13.66-30.44-30.45-30.44Z"/>
  <g class="cls-5">
    <path class="cls-18" d="m1070.34,2324.95c0,26.92-21.82,48.69-48.69,48.69s-48.64-21.77-48.64-48.69c0-5.65.96-11.07,2.78-16.12,6.65,18.95,24.68,32.47,45.86,32.47s39.26-13.53,45.91-32.47c1.82,5.06,2.78,10.48,2.78,16.12Z"/>
  </g>
  <g class="cls-5">
    <path class="cls-18" d="m912.22,2324.95c0,26.92-21.82,48.69-48.69,48.69s-48.64-21.77-48.64-48.69c0-5.65.96-11.07,2.78-16.12,6.65,18.95,24.68,32.47,45.86,32.47s39.26-13.53,45.91-32.47c1.82,5.06,2.78,10.48,2.78,16.12Z"/>
  </g>
  <g>
    <g>
      <path class="cls-11" d="m1280.82,40.58c-403.47.19-733.56,336.79-733.56,740.26v246.84c0,20.17,16.35,36.52,36.52,36.52h0c20.17,0,36.52-16.35,36.52-36.52v-247.25c0-366.24,299.66-669.5,665.89-666.8,180.51,1.33,343.83,75.06,462.33,193.56,119.63,119.63,193.58,284.82,193.58,467.34v253.15c0,20.17,16.35,36.52,36.52,36.52h0c20.17,0,36.52-16.35,36.52-36.52v-253.15c0-404.82-329.45-734.14-734.31-733.95Z"/>
      <path class="cls-12" d="m1978.61,1066.48c-21.39,0-38.8-17.4-38.8-38.8v-253.15c0-175.93-68.51-341.33-192.91-465.73-123.11-123.1-286.73-191.61-460.73-192.89-174.82-1.37-340.07,66.72-465.78,191.51-127.56,126.62-197.81,294.61-197.81,473.01v247.25c0,21.39-17.4,38.8-38.8,38.8s-38.8-17.4-38.8-38.8v-246.84c0-196.13,76.76-381.85,216.14-522.96,139.77-141.5,324.33-219.48,519.7-219.58h.36c196.29,0,381.01,76.61,520.23,215.76,139.29,139.23,216,324.06,216,520.47v253.15c0,21.39-17.4,38.8-38.8,38.8ZM1281.3,111.34c1.64,0,3.27,0,4.91.02,175.21,1.29,339.96,70.27,463.92,194.22,125.26,125.26,194.24,291.8,194.24,468.95v253.15c0,18.88,15.36,34.24,34.24,34.24s34.24-15.36,34.24-34.24v-253.15c0-195.18-76.24-378.88-214.66-517.24-138.35-138.29-321.95-214.43-517.01-214.43h-.36v-2.28,2.28c-403.23.19-731.28,331.25-731.28,737.98v246.84c0,18.88,15.36,34.24,34.24,34.24s34.24-15.36,34.24-34.24v-247.25c0-179.62,70.73-348.76,199.16-476.24,125.4-124.48,290.06-192.85,464.11-192.85Z"/>
    </g>
    <g>
      <path class="cls-17" d="m1280.82,40.59c-403.49.18-733.57,336.78-733.57,740.27v246.8c0,16.51,10.9,30.42,25.9,34.93,3.37,1.05,6.93,1.6,10.63,1.6,10.08,0,19.2-4.1,25.81-10.67,6.61-6.61,10.72-15.78,10.72-25.86v-247.21c0-366.24,299.66-669.5,665.89-666.81,180.5,1.32,343.8,75.06,462.32,193.54,119.62,119.62,193.58,284.84,193.58,467.34v253.14c0,20.2,16.33,36.53,36.48,36.53,3.69,0,7.3-.55,10.67-1.6,5.79-1.73,10.99-4.92,15.19-9.07,6.61-6.61,10.67-15.78,10.67-25.86v-253.14c0-404.82-329.44-734.12-734.3-733.93Z"/>
      <path class="cls-12" d="m1978.59,1066.47c-21.37,0-38.76-17.41-38.76-38.81v-253.14c0-175.93-68.51-341.32-192.92-465.73-123.15-123.1-286.77-191.6-460.73-192.87-174.81-1.38-340.09,66.74-465.8,191.53-127.56,126.62-197.81,294.6-197.81,473v247.21c0,10.37-4.04,20.13-11.38,27.47-7.37,7.31-17.1,11.34-27.42,11.34-3.87,0-7.68-.57-11.3-1.7-16.44-4.95-27.5-19.86-27.5-37.11v-246.8c0-196.14,76.76-381.87,216.13-522.98,139.77-141.5,324.34-219.48,519.72-219.57h.34c196.29,0,381.03,76.61,520.24,215.76,139.28,139.22,215.99,324.05,215.99,520.45v253.14c0,10.4-4.03,20.16-11.34,27.47-4.57,4.52-10.15,7.85-16.14,9.65-3.6,1.12-7.42,1.69-11.32,1.69ZM1281.33,111.35c1.63,0,3.26,0,4.89.02,175.16,1.28,339.91,70.25,463.91,194.2,125.27,125.27,194.25,291.81,194.25,468.95v253.14c0,18.89,15.34,34.25,34.2,34.25,3.45,0,6.81-.5,10-1.49,5.3-1.58,10.22-4.53,14.26-8.52,6.44-6.44,10-15.05,10-24.24v-253.14c0-195.18-76.23-378.87-214.66-517.23-138.34-138.28-321.96-214.42-517.02-214.42h-.34v-2.28,2.28c-403.23.18-731.29,331.25-731.29,737.99v246.8c0,15.22,9.76,28.38,24.28,32.75,3.21,1,6.55,1.5,9.97,1.5,9.11,0,17.71-3.55,24.21-10.01,6.47-6.47,10.04-15.09,10.04-24.24v-247.21c0-179.62,70.73-348.75,199.15-476.23,125.41-124.49,290.07-192.87,464.15-192.87Z"/>
    </g>
    <g class="cls-5">
      <path class="cls-18" d="m1280.82,76.25c-389.27.23-707.71,336.23-707.71,738.95v246.44c0,.32,0,.64.05.96,3.37,1.05,6.93,1.6,10.63,1.6,10.08,0,19.2-4.1,25.81-10.67,6.61-6.61,10.72-15.78,10.72-25.86v-247.21c0-366.24,299.66-669.5,665.89-666.81,180.5,1.32,343.8,75.06,462.32,193.54,119.62,119.62,193.58,284.84,193.58,467.34v253.14c0,20.2,16.33,36.53,36.48,36.53,3.69,0,7.3-.55,10.67-1.6.05-.32.05-.64.05-.96v-252.73c0-404.09-317.85-732.84-708.49-732.66Z"/>
    </g>
    <g class="cls-10">
      <path class="cls-13" d="m612.55,699.56c-19.34,0-35-15.71-35-35v-92.37c-19.71,66.37-30.27,136.47-30.27,208.68v246.8c0,20.17,16.35,36.52,36.52,36.52,10.06,0,19.2-4.09,25.81-10.7,6.61-6.61,10.7-15.71,10.7-25.82v-247.21c0-28.2,1.79-56.08,5.24-83.42-4,1.65-8.41,2.53-13,2.53Zm1372.31-133.94v98.94c0,9.65-3.9,18.42-10.24,24.76-6.34,6.34-15.07,10.24-24.76,10.24-4.32,0-8.41-.78-12.22-2.25,2.94,25.31,4.46,51.08,4.46,77.21v253.14c0,20.17,16.35,36.52,36.52,36.52,10.06,0,19.2-4.09,25.81-10.7,6.61-6.61,10.7-15.71,10.7-25.82v-253.14c0-72.53-10.56-142.67-30.27-208.91Z"/>
      <path class="cls-12" d="m1978.61,1066.46c-21.39,0-38.8-17.4-38.8-38.79v-253.14c0-25.69-1.49-51.58-4.44-76.95l-.43-3.74,3.52,1.36c3.61,1.39,7.45,2.1,11.4,2.1,8.75,0,16.97-3.4,23.14-9.58,6.18-6.17,9.58-14.39,9.58-23.15v-114.58l4.46,14.99c20.15,67.73,30.37,138.23,30.37,209.55v253.14c0,10.35-4.04,20.09-11.37,27.43-7.33,7.33-17.07,11.37-27.42,11.37Zm-38.31-365.88c2.7,24.41,4.07,49.27,4.07,73.95v253.14c0,18.88,15.36,34.24,34.24,34.24,9.14,0,17.73-3.56,24.2-10.03,6.47-6.47,10.04-15.07,10.04-24.2v-253.14c0-65.41-8.65-130.13-25.72-192.62v82.66c0,9.97-3.87,19.33-10.91,26.37-7.03,7.03-16.4,10.91-26.36,10.91-3.27,0-6.47-.42-9.56-1.26Zm-1356.5,365.88c-21.39,0-38.79-17.4-38.79-38.79v-246.8c0-71.04,10.22-141.46,30.37-209.32l4.46-15.02v108.04c0,18.04,14.68,32.72,32.72,32.72,4.28,0,8.36-.79,12.13-2.35l3.62-1.5-.49,3.89c-3.46,27.46-5.22,55.42-5.22,83.13v247.21c0,10.35-4.04,20.09-11.37,27.42-7.33,7.33-17.07,11.37-27.43,11.37Zm-8.52-477.96c-17.07,62.59-25.72,127.22-25.72,192.37v246.8c0,18.88,15.36,34.24,34.24,34.24,9.14,0,17.73-3.56,24.2-10.03,6.47-6.47,10.04-15.07,10.04-24.2v-247.21c0-26.67,1.62-53.58,4.8-80.05-3.28.96-6.73,1.44-10.29,1.44-20.55,0-37.28-16.72-37.28-37.28v-76.06Z"/>
    </g>
    <path class="cls-18" d="m1978.61,1082.42c-30.18,0-54.74-24.56-54.74-54.74v-253.15c0-171.67-66.85-333.07-188.24-454.46-120.13-120.12-279.79-186.97-449.58-188.22-170.3-1.46-331.76,65.11-454.43,186.88-124.52,123.61-193.1,287.58-193.1,461.7v247.25c0,30.18-24.56,54.74-54.74,54.74s-54.74-24.56-54.74-54.74v-246.84c0-200.35,78.39-390.05,220.73-534.16C892.56,102.12,1081.16,22.46,1280.81,22.36h.37c200.55,0,389.27,78.27,531.5,220.43,142.3,142.24,220.67,331.08,220.67,531.74v253.15c0,30.18-24.56,54.74-54.74,54.74ZM1281.3,95.4c1.68,0,3.35,0,5.03.02,179.42,1.32,348.14,71.96,475.07,198.89,128.27,128.27,198.91,298.82,198.91,480.22v253.15c0,10.09,8.21,18.3,18.3,18.3s18.3-8.21,18.3-18.3v-253.15c0-190.93-74.58-370.62-209.99-505.97-135.33-135.27-314.94-209.77-505.74-209.77h-.35v-18.22s0,18.22,0,18.22c-394.45.19-715.35,324.1-715.35,722.04v246.84c0,10.09,8.21,18.3,18.3,18.3s18.3-8.21,18.3-18.3v-247.25c0-183.9,72.4-357.06,203.87-487.56,128.41-127.46,297.05-197.48,475.34-197.48Z"/>
    <g>
      <rect class="cls-17" x="595.11" y="598.24" width="179.9" height="557.65" rx="42.18" ry="42.18"/>
      <path class="cls-12" d="m732.83,1158.17h-95.53c-24.51,0-44.46-19.95-44.46-44.46v-473.28c0-24.51,19.95-44.46,44.46-44.46h95.53c24.51,0,44.46,19.95,44.46,44.46v473.28c0,24.51-19.95,44.46-44.46,44.46Zm-95.53-557.64c-22,0-39.9,17.9-39.9,39.9v473.28c0,22,17.9,39.9,39.9,39.9h95.53c22,0,39.9-17.9,39.9-39.9v-473.28c0-22-17.9-39.9-39.9-39.9h-95.53Z"/>
    </g>
    <g class="cls-8">
      <path class="cls-1" d="m732.83,598.24h-95.53c-23.3,0-42.18,18.89-42.18,42.18v47.79c0-23.3,18.89-42.18,42.18-42.18h95.53c23.3,0,42.18,18.89,42.18,42.18v-47.79c0-23.3-18.89-42.18-42.18-42.18Z"/>
    </g>
    <path class="cls-20" d="m595.11,1083.93h-45.16c-36.04,0-65.26-29.22-65.26-65.26v-283.21c0-36.04,29.22-65.26,65.26-65.26h45.16v413.73Z"/>
    <g class="cls-8">
      <path class="cls-1" d="m498.34,776.42c0-36.04,29.22-65.26,65.26-65.26h31.51v-40.96h-45.16c-36.04,0-65.26,29.22-65.26,65.26v283.21c0,15.02,5.13,28.81,13.65,39.84v-282.09Z"/>
    </g>
    <path class="cls-18" d="m715.36,1174.11h-60.59c-42.94,0-77.87-34.93-77.87-77.87v-438.34c0-42.94,34.93-77.87,77.87-77.87h60.59c42.94,0,77.87,34.93,77.87,77.87v438.34c0,42.94-34.93,77.87-77.87,77.87Zm-60.59-557.64c-22.85,0-41.44,18.59-41.44,41.44v438.34c0,22.85,18.59,41.44,41.44,41.44h60.59c22.85,0,41.44-18.59,41.44-41.44v-438.34c0-22.85-18.59-41.44-41.44-41.44h-60.59Z"/>
    <path class="cls-18" d="m613.33,1102.15h-63.38c-46.03,0-83.48-37.45-83.48-83.48v-283.21c0-46.03,37.45-83.48,83.48-83.48h63.38v450.16Zm-63.38-413.73c-25.94,0-47.04,21.1-47.04,47.04v283.21c0,25.94,21.1,47.04,47.04,47.04h26.94v-377.29h-26.94Z"/>
    <g>
      <rect class="cls-17" x="1787.39" y="598.24" width="179.9" height="557.65" rx="42.18" ry="42.18" transform="translate(3754.67 1754.13) rotate(180)"/>
      <path class="cls-12" d="m1925.1,1158.17h-95.53c-24.51,0-44.46-19.95-44.46-44.46v-473.28c0-24.51,19.95-44.46,44.46-44.46h95.53c24.51,0,44.46,19.95,44.46,44.46v473.28c0,24.51-19.95,44.46-44.46,44.46Zm-95.53-557.64c-22,0-39.9,17.9-39.9,39.9v473.28c0,22,17.9,39.9,39.9,39.9h95.53c22,0,39.9-17.9,39.9-39.9v-473.28c0-22-17.9-39.9-39.9-39.9h-95.53Z"/>
    </g>
    <g class="cls-8">
      <path class="cls-1" d="m1830.76,598.24h95.53c23.3,0,42.18,18.89,42.18,42.18v47.79c0-23.3-18.89-42.18-42.18-42.18h-95.53c-23.3,0-42.18,18.89-42.18,42.18v-47.79c0-23.3,18.89-42.18,42.18-42.18Z"/>
    </g>
    <path class="cls-20" d="m1967.29,670.2h45.16c36.04,0,65.26,29.22,65.26,65.26v283.21c0,36.04-29.22,65.26-65.26,65.26h-45.16v-413.73Z"/>
    <g class="cls-8">
      <path class="cls-1" d="m2065.24,776.42c0-36.04-29.22-65.26-65.26-65.26h-31.51v-40.96h45.16c36.04,0,65.26,29.22,65.26,65.26v283.21c0,15.02-5.13,28.81-13.65,39.84v-282.09Z"/>
    </g>
    <g class="cls-5">
      <path class="cls-18" d="m775.01,899.26v214.45c0,23.28-18.88,42.2-42.2,42.2h-95.49c-23.32,0-42.2-18.92-42.2-42.2v-232.92c0,23.28,7.33,60.64,32.1,60.64,38.79,0,54.2-69.07,54.2-69.07,0,0,10.8,64.12,41.3,69.07,41.35,6.7,52.31-18.88,52.31-42.16Z"/>
    </g>
    <g class="cls-5">
      <path class="cls-18" d="m1787.39,899.26v214.45c0,23.28,18.88,42.2,42.2,42.2h95.49c23.32,0,42.2-18.92,42.2-42.2v-232.92c0,23.28-7.33,60.64-32.1,60.64-38.79,0-54.2-69.07-54.2-69.07,0,0-10.8,64.12-41.3,69.07-41.35,6.7-52.31-18.88-52.31-42.16Z"/>
    </g>
    <g class="cls-5">
      <path class="cls-18" d="m595.11,903.27v180.64h-45.15c-36.04,0-65.26-29.22-65.26-65.26v-136.29c0,1.5.05,2.99.15,4.47,3.1,45.83,60.09,65.73,92.86,33.54l17.4-17.1Z"/>
    </g>
    <g class="cls-5">
      <path class="cls-18" d="m2077.7,882.36v136.33c0,36.02-29.2,65.22-65.22,65.22h-45.19v-201.55l19.26,27.84c27.41,39.62,90.36,21.41,91.14-26.76,0-.36,0-.72,0-1.08Z"/>
    </g>
    <path class="cls-18" d="m1907.63,1174.11h-60.59c-42.94,0-77.87-34.93-77.87-77.87v-438.34c0-42.94,34.93-77.87,77.87-77.87h60.59c42.94,0,77.87,34.93,77.87,77.87v438.34c0,42.94-34.93,77.87-77.87,77.87Zm-60.59-557.64c-22.85,0-41.44,18.59-41.44,41.44v438.34c0,22.85,18.59,41.44,41.44,41.44h60.59c22.85,0,41.44-18.59,41.44-41.44v-438.34c0-22.85-18.59-41.44-41.44-41.44h-60.59Z"/>
    <path class="cls-18" d="m2012.45,1102.15h-63.38v-450.16h63.38c46.03,0,83.48,37.45,83.48,83.48v283.21c0,46.03-37.45,83.48-83.48,83.48Zm-26.94-36.44h26.94c25.94,0,47.04-21.1,47.04-47.04v-283.21c0-25.94-21.1-47.04-47.04-47.04h-26.94v377.29Z"/>
    <path class="cls-20" d="m1685.49,195.17h0c-14.14,24.48-45.57,33.01-69.91,18.63-100.63-59.46-218.01-93.59-343.37-93.59s-242.74,34.14-343.37,93.59c-24.34,14.38-55.77,5.85-69.91-18.63h0c-13.94-24.14-6.06-55.15,17.92-69.36,118.49-70.18,254.06-107.59,395.36-107.59s276.88,37.42,395.36,107.59c23.98,14.2,31.85,45.22,17.92,69.35Z"/>
    <g class="cls-8">
      <path class="cls-1" d="m876.84,159.94c118.49-70.18,254.06-107.59,395.36-107.59s276.88,37.41,395.36,107.59c10.59,6.27,18.03,15.83,21.85,26.63,7.94-22.48-.63-48.2-21.85-60.76-118.49-70.18-254.06-107.59-395.36-107.59s-276.87,37.41-395.36,107.59c-21.22,12.56-29.79,38.28-21.85,60.76,3.82-10.79,11.25-20.35,21.85-26.63Z"/>
    </g>
    <g class="cls-5">
      <path class="cls-18" d="m1685.5,195.16c-14.15,24.48-45.57,33.03-69.91,18.65-100.64-59.48-218-93.61-343.4-93.61s-242.71,34.13-343.35,93.61c-24.34,14.38-55.76,5.83-69.91-18.65-4.69-8.04-6.89-16.9-6.89-25.59,0-9.55,2.66-18.92,7.67-27.01,14.47,23.52,45.2,31.51,69.13,17.36,100.64-59.44,218-93.57,343.35-93.57s242.76,34.13,343.4,93.57c23.89,14.1,54.61,6.2,69.13-17.32,9.6,15.48,10.52,35.69.78,52.55Z"/>
    </g>
    <path class="cls-12" d="m1641.09,233.08c-11.08,0-21.98-2.95-31.75-8.72-101.75-60.11-218.33-91.89-337.14-91.89s-235.39,31.77-337.14,91.89c-14.51,8.57-31.51,10.93-47.87,6.63-16.53-4.34-30.34-14.88-38.88-29.68-17.28-29.93-7.28-68.52,22.28-86.03C991.33,43.76,1130.2,5.96,1272.21,5.96s280.88,37.8,401.61,109.3c29.57,17.51,39.56,56.11,22.28,86.03-8.55,14.8-22.36,25.34-38.88,29.68-5.34,1.4-10.75,2.1-16.13,2.1Zm-368.88-125.13c123.19,0,244.09,32.95,349.61,95.3,8.83,5.22,19.19,6.64,29.17,4.02,10.15-2.67,18.63-9.14,23.88-18.23l10.62,6.13-10.62-6.13c10.59-18.35,4.52-41.98-13.55-52.68-116.95-69.27-251.5-105.88-389.12-105.88s-272.17,36.61-389.12,105.88c-18.06,10.7-24.14,34.33-13.55,52.68,5.25,9.09,13.73,15.57,23.88,18.23,9.99,2.63,20.35,1.2,29.17-4.02,105.52-62.34,226.42-95.3,349.61-95.3Z"/>
    <path class="cls-18" d="m903.33,239.04c-5.88,0-11.8-.76-17.65-2.29-18.08-4.75-33.18-16.28-42.53-32.47-18.9-32.74-7.95-74.97,24.41-94.14C989.21,38.08,1129.13,0,1272.21,0s283,38.08,404.65,110.14c32.36,19.17,43.31,61.4,24.41,94.14h0c-9.35,16.19-24.45,27.72-42.53,32.47-17.92,4.7-36.53,2.12-52.42-7.26-100.83-59.57-216.36-91.06-334.11-91.06s-233.28,31.49-334.11,91.06c-10.7,6.32-22.64,9.56-34.77,9.56Zm368.87-202.6c-136.54,0-270.05,36.33-386.08,105.05-15.27,9.04-20.39,29.04-11.42,44.57,4.45,7.7,11.63,13.19,20.23,15.45,8.44,2.22,17.18,1.02,24.63-3.39,106.44-62.89,228.38-96.13,352.64-96.13s246.2,33.24,352.64,96.13c7.45,4.4,16.2,5.6,24.63,3.39,8.6-2.26,15.78-7.74,20.23-15.45l15.78,9.11-15.78-9.11c8.97-15.53,3.85-35.53-11.42-44.57-116.03-68.72-249.53-105.05-386.08-105.05Z"/>
  </g>
  <path class="cls-1" d="m1702.15,2011.82h-873.72c-5.88-145.56,6.79-276.86,27.37-389.36,6.51-35.62,13.8-69.32,21.54-100.97,14.16-57.66,29.79-108.58,44.86-151.8,2.5-7.15,4.96-14.07,7.42-20.77,14.48-39.62,28.15-71.87,39.12-95.92,15.03-33.02,24.96-50.6,24.96-50.6h543.2s1,1.73,2.91,5.15l.05.05c6.69,12.21,24.41,45.82,45.82,98.24,9.88,24.23,20.59,52.51,31.38,84.53,3.73,11.34,7.56,23.09,11.34,35.34,16.4,52.92,32.34,114.45,45.32,183.63.05.27.09.55.14.82,21.41,114.32,34.66,249.54,28.28,401.65Z"/>
  <path class="cls-18" d="m1650.35,1468.12c18.8,42.36,31.05,86.98,40.54,132.04,9.53,45.06,16.22,90.74,20.83,136.56,4.68,45.82,7.56,91.79,9.24,137.79,1.46,46,1.26,92.06-.6,138.04v.03s-.6,17.45-.6,17.45h-908.83l-.7-17.48c-1.84-46.04-1.92-92.14-.22-138.19,1.66-46.05,4.92-92.03,9.73-137.87,4.91-45.83,11.75-91.49,21.43-136.56,4.75-22.55,10.34-44.93,16.96-67.02l5.22-16.5c1.82-5.47,3.89-10.88,5.82-16.31,4-10.83,8.11-21.62,12.8-32.21,2.06-4.65,7.49-6.75,12.14-4.69,3.71,1.64,5.79,5.43,5.44,9.25l-.03.32c-2.14,22.94-6.62,45.11-10.11,67.5l-11.78,66.73c-7.61,44.48-14.7,89.02-20.24,133.8-5.65,44.76-9.31,89.79-10.97,134.9-1.66,45.1-1.58,90.27.22,135.37l-18.2-17.48h873.72l-18.2,17.45v-.03c1.83-45.08,2.03-90.22.59-135.3-.84-22.54-1.89-45.07-3.75-67.54-.77-11.25-1.91-22.47-2.88-33.7-1.23-11.21-2.31-22.43-3.75-33.61-5.36-44.77-12.3-89.27-19.79-133.74-7.59-44.46-16.01-88.68-21.58-134.14-.63-5.05,2.95-9.65,8-10.27,4.12-.51,7.94,1.8,9.55,5.4Z"/>
  <g>
    <g class="cls-5">
      <path class="cls-18" d="m1380.31,2080.24s175.11-102.08,319.98,45.16c133.14,135.31-22.48,268.81-22.48,268.81,0,0,47.96,196.08-76.56,219.73-105.67,20.07-201.16-93.76-188.95-220.12,10.04-103.9,32.85-94.23,24.45-151.21-9.52-64.52-147.06-79.05-147.06-79.05h-51.74s-137.54,14.53-147.06,79.05c-8.41,56.99,14.41,47.31,24.45,151.21,12.21,126.36-83.28,240.2-188.95,220.12-124.51-23.65-76.56-219.73-76.56-219.73,0,0-155.62-133.5-22.48-268.81,144.88-147.23,319.98-45.16,319.98-45.16"/>
    </g>
    <path class="cls-1" d="m1419.24,1977.24s233.63-136.19,426.93,60.25c177.64,180.53-29.99,358.65-29.99,358.65,0,0,63.98,200.85-102.15,232.4-140.99,26.78-268.39-64.34-252.11-232.93,13.39-138.63,43.83-125.72,32.62-201.75-12.7-86.09-196.21-105.48-196.21-105.48h-69.03s-183.51,19.39-196.21,105.48c-11.21,76.03,19.23,63.12,32.62,201.75,16.28,168.59-111.12,259.71-252.11,232.93-166.13-31.55-102.15-232.4-102.15-232.4,0,0-207.63-178.12-29.99-358.65,193.3-196.44,426.93-60.25,426.93-60.25"/>
    <g class="cls-5">
      <path class="cls-18" d="m1803.73,2573.75c-17.12,25.71-45.14,46.36-89.68,54.8-141,26.79-268.41-64.37-252.12-232.94,13.39-138.64,43.81-125.74,32.62-201.73-12.71-86.1-196.24-105.48-196.24-105.48h-69.03s-183.48,19.38-196.19,105.48c-11.23,75.99,19.23,63.09,32.62,201.73,16.29,168.57-111.12,259.72-252.12,232.94-44.55-8.44-72.56-29.09-89.68-54.8,1.23.25,2.45.49,3.68.69,167.93,28.99,319.68-69.67,300.3-252.27-15.99-150.12-52.25-136.14-38.86-218.51,15.11-93.21,233.67-114.21,233.67-114.21h82.22s218.56,21,233.67,114.21c13.34,82.37-22.91,68.39-38.86,218.51-19.38,182.6,132.36,281.26,300.3,252.27,1.23-.2,2.45-.44,3.68-.69Z"/>
    </g>
    <path class="cls-18" d="m1414.65,1969.37c16.09-10.93,32.67-19.07,49.99-26.63,17.33-7.28,35.22-13.35,53.55-18.02,18.32-4.72,37.07-7.97,56.03-9.89,18.99-1.6,38.17-1.96,57.3-.6,38.29,2.7,76.22,12.16,111.66,27.37,35.29,15.57,67.73,37.07,96.39,62.28,28.53,24.84,54.5,54.77,73.08,89.77,8.98,17.67,16.18,36.46,20.58,56.11,4.16,19.69,5.5,39.98,4.06,59.94-1.44,19.97-5.55,39.58-11.87,58.2-6.35,18.63-14.71,36.32-24.41,53.01-9.72,16.7-20.78,32.41-32.82,47.26-6.05,7.4-12.33,14.6-18.97,21.48-3.31,3.46-6.67,6.87-10.15,10.21-3.55,3.42-6.81,6.49-11.04,10.11l5.5-19.36v.02c2.06,6.77,3.48,12.52,4.88,18.76,1.36,6.13,2.58,12.27,3.59,18.45,2.05,12.36,3.46,24.84,4.09,37.46,1.19,25.18-.41,51.12-7.98,76.55-3.79,12.66-8.92,25.18-16,36.84-7.12,11.62-16.02,22.28-26.24,31.43-10.24,9.21-22,16.24-34.01,22.22-6.15,2.51-12.22,5.51-18.54,7.28l-9.41,3-9.5,2.22c-25.04,5.72-50.38,7.43-75.96,5.96-12.74-1.02-25.47-2.67-38.01-5.55-12.5-2.98-24.89-6.66-36.82-11.68-11.9-5.06-23.52-10.9-34.41-18.01-10.85-7.15-21.2-15.13-30.62-24.15-9.33-9.1-17.95-18.94-25.48-29.57-7.38-10.72-14.04-21.94-19.38-33.75-10.71-23.59-17.28-48.83-19.85-74.14-.58-6.33-1.23-12.67-1.31-19-.09-3.16-.26-6.33-.27-9.49l.18-9.46c-.02-6.33.66-12.57,1.05-18.84.44-6.28,1.27-12.13,1.89-18.21,2.76-24.1,6.47-48.33,12.48-72.43,2.85-12.05,6.66-24.02,10.4-35.46,3.8-11.5,7.41-21.86,9-31.56,1.69-9.72,1.6-19.89.7-30.69l-1.01-8.21-.5-4.1-.7-3.09c-.29-2.1-1.07-4.09-1.78-6.09-.52-2.06-1.78-3.93-2.64-5.92-8.14-15.72-25.79-28.72-44.94-38.64-19.41-9.98-40.98-17.35-62.97-23.26-11.02-2.93-22.2-5.49-33.46-7.67-11.16-2.14-22.84-4.07-33.6-5.32l1.91.1h-69.03l1.91-.1c-10.76,1.25-22.44,3.18-33.6,5.32-11.26,2.19-22.44,4.74-33.46,7.67-21.99,5.9-43.56,13.28-62.97,23.26-19.16,9.92-36.81,22.92-44.94,38.64-.86,1.99-2.12,3.86-2.64,5.92-.71,2.01-1.49,4-1.78,6.09l-.7,3.09-.5,4.1-1.01,8.21c-.9,10.8-.99,20.97.7,30.69,1.59,9.7,5.2,20.06,9,31.56,3.74,11.44,7.55,23.41,10.4,35.46,6.01,24.1,9.72,48.34,12.48,72.43.62,6.08,1.45,11.93,1.89,18.21.39,6.28,1.07,12.52,1.05,18.84l.18,9.46c0,3.16-.18,6.33-.27,9.49-.08,6.33-.74,12.66-1.31,19-2.57,25.31-9.15,50.55-19.85,74.14-5.34,11.81-12,23.03-19.38,33.75-7.53,10.63-16.15,20.47-25.48,29.57-9.42,9.02-19.77,17-30.62,24.15-10.89,7.11-22.52,12.95-34.41,18.01-11.93,5.03-24.32,8.7-36.82,11.68-12.54,2.88-25.27,4.53-38.01,5.55-25.58,1.47-50.92-.25-75.96-5.97l-9.5-2.22-9.41-3c-6.32-1.77-12.39-4.77-18.54-7.28-12.01-5.97-23.77-13.01-34.01-22.22-10.21-9.16-19.11-19.81-26.24-31.43-7.08-11.66-12.21-24.18-15.99-36.84-7.57-25.43-9.17-51.37-7.97-76.55.63-12.62,2.04-25.1,4.09-37.46,1.01-6.18,2.23-12.32,3.59-18.46,1.4-6.24,2.82-11.99,4.88-18.76l5.5,19.36h0c-4.22-3.62-7.48-6.69-11.04-10.11-3.47-3.35-6.84-6.75-10.15-10.21-6.65-6.89-12.93-14.08-18.98-21.48-12.04-14.85-23.1-30.56-32.82-47.26-19.41-33.24-33.56-71.1-36.3-111.21-1.44-19.96-.1-40.26,4.06-59.94,4.4-19.65,11.6-38.44,20.59-56.11,18.61-34.97,44.48-65.01,73.1-89.77,14.17-12.79,29.6-24.29,45.63-34.85,16.01-10.62,33.07-19.75,50.76-27.42,35.33-15.45,73.36-24.81,111.64-27.51,19.14-1.51,38.32-.85,57.33.58,18.97,1.85,37.72,5.21,56.09,9.74,18.3,4.84,36.23,10.81,53.53,18.2,17.35,7.51,33.9,15.76,49.94,26.77,4.16,2.85,5.21,8.53,2.36,12.69-2.48,3.62-7.1,4.89-11,3.28l-.53-.22c-15.85-6.54-32.95-12.46-49.82-17.28-16.96-4.88-34.09-8.9-51.31-11.95-17.22-3.13-34.57-4.77-51.86-6.01-8.66-.15-17.31-.81-25.93-.34-4.31.16-8.63.13-12.93.33-4.29.31-8.6.52-12.88.9-34.29,3-67.8,11.9-98.91,26.14-31.16,14.13-59.95,33.53-85.6,56.71-6.6,5.58-12.52,11.97-18.8,17.93-5.63,6.41-11.74,12.49-17.02,19.11-5.25,6.64-10.73,13.14-15.19,20.23-4.98,6.81-8.86,14.15-12.99,21.37-7.5,14.75-13.42,30.13-17.05,46.03-3.37,15.94-4.49,32.27-3.35,48.59,4.61,65.46,44.74,128.87,93.14,175.45h0s8.96,7.93,8.96,7.93l-3.47,11.43c-1.39,4.58-2.87,10.35-4.05,15.69-1.21,5.45-2.31,10.95-3.21,16.48-1.84,11.05-3.09,22.19-3.64,33.27-1.08,22.12.47,44.26,6.52,64.4,3.01,10.04,6.96,19.65,12.22,28.3,5.31,8.61,11.77,16.3,19.2,23.01,7.43,6.73,16.24,11.93,25.41,16.56,4.86,1.89,9.43,4.3,14.58,5.69l7.54,2.43,7.84,1.81c42.79,9.56,88.91,7.25,128.82-9.38,9.92-4.24,19.59-9.07,28.58-14.95,8.95-5.92,17.47-12.46,25.2-19.87,7.64-7.48,14.72-15.54,20.92-24.28,6.04-8.84,11.58-18.07,16.01-27.9,8.89-19.62,14.53-40.91,16.74-62.8.48-5.48,1.08-10.96,1.14-16.5.07-2.77.24-5.52.24-8.3l-.16-8.33c-.23-11.07-1.36-22.2-2.72-33.88-2.63-23.04-6.15-45.82-11.64-67.78-2.61-11.05-6.01-21.72-9.64-32.83-3.59-11.02-8-23.13-10.32-36.87-2.37-13.69-2.16-27.44-1.05-40.26l1.15-9.46.59-4.73,1.16-5.61c.66-3.78,1.92-7.37,3.22-10.95,1.13-3.67,3-6.9,4.61-10.3,6.99-13.29,16.87-23.88,27.31-32.49,10.49-8.65,21.7-15.53,33.09-21.44,22.85-11.72,46.51-19.68,70.3-26.09,11.91-3.17,23.88-5.9,35.91-8.23,12.15-2.32,23.89-4.3,36.7-5.79l.87-.1h71.13l.87.1c12.82,1.49,24.56,3.47,36.7,5.79,12.03,2.34,24,5.06,35.91,8.23,23.79,6.41,47.45,14.37,70.3,26.09,11.4,5.91,22.6,12.79,33.09,21.44,10.44,8.61,20.32,19.2,27.31,32.48,1.61,3.4,3.48,6.63,4.61,10.31,1.3,3.58,2.55,7.17,3.22,10.95l1.16,5.61.59,4.73,1.15,9.46c1.11,12.82,1.32,26.56-1.05,40.26-2.33,13.74-6.73,25.85-10.32,36.87-3.63,11.11-7.03,21.78-9.64,32.83-5.49,21.97-9.01,44.74-11.64,67.78-1.36,11.68-2.49,22.81-2.72,33.88l-.16,8.33c0,2.77.17,5.53.24,8.3.05,5.55.65,11.02,1.14,16.5,2.21,21.89,7.86,43.17,16.74,62.8,4.43,9.83,9.96,19.07,16.01,27.9,6.2,8.74,13.28,16.8,20.92,24.28,7.73,7.41,16.25,13.95,25.2,19.87,8.99,5.88,18.66,10.71,28.58,14.95,39.91,16.64,86.03,18.95,128.82,9.39l7.84-1.81,7.54-2.43c5.15-1.39,9.72-3.8,14.58-5.69,9.16-4.63,17.98-9.82,25.41-16.56,7.43-6.7,13.89-14.4,19.2-23,5.26-8.65,9.21-18.25,12.22-28.29,6.05-20.14,7.6-42.27,6.53-64.4-.55-11.08-1.8-22.22-3.64-33.27-.9-5.53-2-11.03-3.21-16.48-1.18-5.34-2.65-11.1-4.05-15.69h0s-3.52-10.69-3.52-10.69l9.02-8.68c48.41-46.57,88.51-110,93.17-175.45,1.14-16.32.02-32.66-3.35-48.6-3.63-15.9-9.55-31.28-17.05-46.03-15.83-29.24-37.89-55.5-63.93-78.7-25.74-23.11-54.59-42.29-85.61-56.79-31.23-14-64.68-23.01-98.99-26.01-34.27-3.16-69.19-1.19-103.65,4.92-17.23,3.04-34.39,7.04-51.34,11.96-16.85,4.87-33.94,10.87-49.74,17.5l-.51.21c-4.64,1.95-9.99-.23-11.94-4.87-1.71-4.07-.24-8.69,3.28-11.08Z"/>
    <path class="cls-18" d="m716.69,2378.69c1.05.38,3.1,1.01,4.82,1.47,1.77.52,3.64.97,5.51,1.42,3.71.93,7.57,1.69,11.4,2.43,7.73,1.37,15.57,2.58,23.51,3.26,15.85,1.51,31.95,1.91,48.06,1.08,4.03-.15,8.04-.6,12.08-.89,4.04-.27,8.07-.65,12.07-1.25l12.07-1.57,11.99-2.18c8.05-1.26,15.89-3.49,23.86-5.29,7.91-2,15.68-4.57,23.57-6.83l.66-.19c4.83-1.38,9.87,1.41,11.25,6.24,1.3,4.54-1.13,9.29-5.45,10.98-7.98,3.1-15.88,6.52-23.99,9.38-8.17,2.66-16.25,5.75-24.63,7.86l-12.5,3.46-12.67,2.84c-4.22,1.02-8.48,1.81-12.77,2.5-4.28.7-8.55,1.56-12.87,2.12-17.24,2.46-34.72,3.64-52.33,3.56-8.81.03-17.65-.5-26.53-1.26-4.45-.44-8.89-.9-13.4-1.6-2.25-.33-4.49-.66-6.8-1.11-2.38-.43-4.39-.81-7.38-1.55l-.2-.05c-9.78-2.44-15.73-12.34-13.29-22.12,2.44-9.78,12.34-15.73,22.12-13.29.62.15,1.25.35,1.84.56Z"/>
    <path class="cls-18" d="m1820.25,2413.94c-9.37,1.52-17.73,2.43-26.55,3.18-8.71.77-17.41,1.27-26.13,1.51-17.43.5-34.89.07-52.31-1.53-17.42-1.78-34.78-4.77-51.83-9.36-16.99-4.98-33.56-11.76-48.93-20.94-4.32-2.58-5.73-8.17-3.15-12.49,2.43-4.06,7.52-5.55,11.71-3.56l.4.19c14.28,6.82,29.52,11.52,45.19,14.63,15.8,2.74,31.88,4.04,48.04,4.24,16.18.02,32.41-1.05,48.53-2.97,8.06-.95,16.1-2.15,24.06-3.59,7.86-1.37,16.13-3.08,23.24-4.91l.27-.07c9.76-2.51,19.7,3.36,22.21,13.12,2.51,9.76-3.36,19.7-13.12,22.21-.53.14-1.1.25-1.63.34Z"/>
    <path class="cls-18" d="m1909.94,2264.7c-.95,0-1.91-.1-2.88-.31-7.38-1.58-12.08-8.84-10.5-16.22,6.23-29.08,1.69-49.71-13.86-63.06-64.61-55.42-296.87,15.43-380.92,47.41-7.05,2.7-14.94-.85-17.63-7.91-2.68-7.05.86-14.95,7.91-17.63,32.48-12.36,319.9-118.56,408.43-42.61,23.52,20.18,31.19,50.3,22.79,89.52-1.37,6.42-7.04,10.81-13.34,10.81Z"/>
    <path class="cls-18" d="m623.15,2264.7c-6.3,0-11.97-4.39-13.34-10.81-8.4-39.22-.73-69.34,22.79-89.52,88.53-75.95,375.95,30.24,408.43,42.61,7.05,2.68,10.59,10.58,7.91,17.63-2.68,7.05-10.58,10.61-17.63,7.91-84.06-31.97-316.35-102.82-380.92-47.4-15.55,13.35-20.09,33.97-13.86,63.06,1.58,7.38-3.12,14.64-10.5,16.22-.96.21-1.93.31-2.88.31Z"/>
  </g>
  <g>
    <path class="cls-1" d="m1059.91,1821.63c-55.74,22.56-141.99,17.84-200.8,10.73-35.27-4.27-60.03-36.81-54.83-71.96h0c4.74-32.07,32.97-55.39,65.35-53.88,55,2.58,137.51,3.78,189.76-7.81"/>
    <g class="cls-5">
      <path class="cls-18" d="m1059.92,1821.62c-55.75,22.6-142.01,17.83-200.81,10.76-35.27-4.27-60.03-36.84-54.82-71.96,1.03-7.17,3.29-13.9,6.48-20.04,9.28,17.73,26.87,30.8,48.34,33.4,58.7,7.12,144.81,11.84,200.56-10.61l.25,58.45Z"/>
    </g>
    <path class="cls-18" d="m949.04,1856.44c-32.4,0-64.57-2.67-92.12-6.01-21.95-2.66-41.43-13.8-54.85-31.39-13.44-17.62-19.06-39.39-15.82-61.32,6.14-41.53,42.29-71.3,84.23-69.4,80.75,3.79,146.44,1.15,184.96-7.39,8.72-1.94,30.32-2.18,42.59,37.28,11.99,38.55,10.34,103.45-31.29,120.31h0c-33.15,13.42-75.61,17.93-117.7,17.93Zm110.86-34.81h.05-.05Zm-193.28-96.96c-22.19,0-41.04,16.16-44.33,38.39-1.79,12.12,1.31,24.16,8.74,33.89,7.4,9.7,18.15,15.85,30.26,17.32,83.52,10.12,151.63,6.73,191.77-9.52,9.21-3.73,12.68-18.99,13.74-25.38,4.13-24.8-2.56-52.86-8.35-61.84-53.32,10.74-132.11,9.88-189.68,7.19-.72-.03-1.44-.05-2.15-.05Z"/>
    <path class="cls-1" d="m1486.22,1821.63c55.74,22.56,141.99,17.84,200.8,10.73,35.27-4.27,60.03-36.81,54.83-71.96h0c-4.74-32.07-32.97-55.39-65.35-53.88-55,2.58-137.51,3.78-189.76-7.81"/>
    <g class="cls-5">
      <path class="cls-18" d="m1687,1832.38c-58.8,7.07-145.06,11.84-200.81-10.76l.25-58.99c55.75,22.45,141.86,17.73,200.56,10.61,21.37-2.55,38.85-15.52,48.19-33.16,3.29,6.19,5.6,13.02,6.68,20.34,5.16,35.12-19.6,67.69-54.87,71.96Z"/>
    </g>
    <path class="cls-18" d="m1597.08,1856.44c-42.09,0-84.55-4.51-117.7-17.93h0c-41.63-16.86-43.28-81.75-31.29-120.31,12.27-39.45,33.88-39.21,42.59-37.28,38.53,8.54,104.21,11.17,184.96,7.39,41.85-1.9,78.09,27.87,84.23,69.4,3.24,21.93-2.38,43.71-15.82,61.32-13.42,17.58-32.9,28.73-54.85,31.39-27.54,3.33-59.73,6.01-92.12,6.01Zm-104.03-51.7c40.15,16.25,108.25,19.64,191.77,9.52,12.11-1.46,22.86-7.62,30.26-17.32,7.43-9.73,10.53-21.77,8.74-33.89-3.39-22.94-23.33-39.44-46.48-38.34-57.56,2.69-136.36,3.55-189.68-7.19-5.8,8.97-12.48,37.03-8.35,61.84,1.06,6.39,4.53,21.65,13.74,25.38h0Z"/>
    <path class="cls-1" d="m1507.76,1658.09v196.98c0,36.55-29.91,66.46-66.46,66.46h-362.76c-36.5,0-66.41-29.91-66.41-66.46v-196.98c0-36.55,29.91-66.41,66.41-66.41h362.76c21.52,0,40.72,10.36,52.9,26.33,8.5,11.15,13.56,25.05,13.56,40.08Z"/>
    <g class="cls-5">
      <path class="cls-18" d="m1507.76,1658.1v196.98c0,36.54-29.9,66.44-66.44,66.44h-362.76c-36.54,0-66.44-29.9-66.44-66.44v-73.68c54.48,55.55,161.62,90.42,259.89,90.94,31.58.17,57.05-24.81,59.3-56.3.02-.32.05-.63.08-.95,2.41-27.63,25.18-50.01,52.85-52.01,31.51-2.27,58.11,21,61.22,51.25,47.56-58.72,33.64-160.78,48.76-196.32,8.51,11.16,13.55,25.04,13.55,40.08Z"/>
    </g>
    <path class="cls-18" d="m1441.32,1939.73h-362.77c-46.67,0-84.64-37.97-84.64-84.64v-197c0-46.67,37.97-84.65,84.64-84.65h362.77c46.67,0,84.64,37.97,84.64,84.65v197c0,46.67-37.97,84.64-84.64,84.64Zm-362.77-329.85c-26.58,0-48.21,21.63-48.21,48.21v197c0,26.58,21.63,48.2,48.21,48.2h362.77c26.58,0,48.21-21.63,48.21-48.2v-197c0-26.58-21.63-48.21-48.21-48.21h-362.77Z"/>
    <circle class="cls-15" cx="1388.45" cy="1756.59" r="57.29"/>
    <g class="cls-6">
      <path class="cls-1" d="m1445.73,1756.59c0,3.93-.37,7.73-1.12,11.45-5.29-26.2-28.43-45.91-56.16-45.91s-50.91,19.71-56.2,45.91c-.74-3.72-1.12-7.52-1.12-11.45,0-31.65,25.66-57.27,57.31-57.27s57.27,25.62,57.27,57.27Z"/>
    </g>
    <g class="cls-5">
      <path class="cls-18" d="m1445.72,1756.58c0,31.63-25.64,57.28-57.28,57.28s-57.28-25.64-57.28-57.28c0-7.32,1.38-14.29,3.93-20.73,8.25,21.37,29.03,36.5,53.35,36.5s45.09-15.13,53.35-36.5c2.55,6.43,3.93,13.41,3.93,20.73Z"/>
    </g>
    <path class="cls-18" d="m1388.45,1827.54c-39.12,0-70.95-31.83-70.95-70.95s31.83-70.95,70.95-70.95,70.95,31.83,70.95,70.95-31.83,70.95-70.95,70.95Zm0-114.57c-24.05,0-43.62,19.57-43.62,43.62s19.57,43.62,43.62,43.62,43.62-19.57,43.62-43.62-19.57-43.62-43.62-43.62Z"/>
    <path class="cls-18" d="m1226.11,1935.18c-7.55,0-13.66-6.12-13.66-13.66v-95.05c0-24.16-11.53-47.27-30.83-61.8-26.12-19.66-41.72-50.93-41.72-83.63v-89.37c0-7.55,6.12-13.66,13.66-13.66s13.66,6.12,13.66,13.66v89.37c0,24.16,11.53,47.27,30.83,61.8,26.13,19.67,41.72,50.94,41.72,83.63v95.05c0,7.54-6.12,13.66-13.66,13.66Z"/>
  </g>
  <g>
    <g class="cls-5">
      <path class="cls-18" d="m1709.58,1301.24c-27.28,33.25-58.34,63.12-92.5,89.13-7.51,5.78-15.21,11.34-23.09,16.62-98.01,67.04-218.29,103.11-345.95,95.14-111.58-6.97-213.33-46.55-296.58-108.94-10.02-7.51-19.77-15.35-29.24-23.5-26.87-23.09-51.46-48.73-73.42-76.51,95.46-49.14,166.96-136.86,166.96-136.86l-12.52,46.09h533.69s1,1.73,2.91,5.15l-13.89-51.24s79.98,98.06,183.63,144.92Z"/>
    </g>
    <g>
      <circle class="cls-1" cx="1282.43" cy="859.47" r="552.66"/>
      <path class="cls-18" d="m1283.2,1415.43c-11.74,0-23.53-.37-35.35-1.1-148.21-9.24-283.95-75.64-382.22-186.97-98.27-111.33-147.3-254.27-138.06-402.47,9.24-148.21,75.64-283.95,186.97-382.22,111.33-98.27,254.3-147.31,402.47-138.06,148.21,9.24,283.95,75.64,382.22,186.97,98.27,111.33,147.3,254.27,138.06,402.47-9.24,148.21-75.64,283.95-186.97,382.22-102.45,90.43-231.67,139.16-367.12,139.16Zm-1.53-1105.38c-133.87,0-261.55,48.15-362.8,137.52-110.02,97.11-175.64,231.25-184.77,377.71-9.13,146.46,39.32,287.72,136.43,397.74,97.11,110.02,231.25,175.64,377.71,184.77,146.47,9.12,287.72-39.32,397.74-136.43,110.02-97.11,175.64-231.25,184.77-377.71l3.27.2-3.27-.2c9.13-146.46-39.32-287.72-136.44-397.74-97.11-110.02-231.25-175.64-377.71-184.77-11.67-.73-23.34-1.09-34.94-1.09Z"/>
    </g>
    <g class="cls-5">
      <path class="cls-18" d="m1833.5,817.16c1.96,25.16,2.15,50.76.54,76.69-19.03,304.63-281.37,536.18-585.99,517.22-304.63-19.03-536.18-281.36-517.22-585.99.54-8.76,1.29-17.52,2.25-26.12,20.45,270.83,237.96,491.92,516.69,509.3,295.87,18.42,551.8-199.46,583.75-491.1Z"/>
    </g>
    <path class="cls-18" d="m1282.81,1430.36c-11.9,0-23.85-.37-35.89-1.12-152.19-9.48-291.58-77.67-392.49-191.99-100.91-114.32-151.26-261.1-141.77-413.29,9.49-152.19,77.67-291.58,192-392.49s261.09-151.26,413.29-141.77c152.19,9.49,291.58,77.67,392.49,192,100.91,114.32,151.26,261.1,141.77,413.29h0c-18.83,302.13-270.71,535.38-569.4,535.38Zm-1.12-1105.37c-130.23,0-254.43,46.84-352.93,133.78-107.03,94.47-170.86,224.96-179.74,367.44-8.88,142.48,38.25,279.89,132.72,386.92,94.47,107.03,224.96,170.86,367.44,179.74,294.19,18.31,548.33-206.04,566.66-500.16h0c8.88-142.48-38.25-279.89-132.72-386.92-94.47-107.03-224.96-170.86-367.44-179.74-11.36-.71-22.71-1.06-33.99-1.06Zm552.33,568.85h.05-.05Z"/>
    <path class="cls-18" d="m1831.38,907.9c-5.1,108.03-44.9,206.67-108.78,286.82-47.9,60.09-237.86,160.25-466.2,151.53-211.71-8.08-398.93-130-440.96-194.33-56.06-85.81-86.39-187.76-81.3-295.79,13.49-285.87,264.69-392.8,567.7-378.5,303.01,14.3,543.03,144.39,529.54,430.27Z"/>
    <path class="cls-18" d="m1283.3,1354.55c-9.03,0-18.09-.17-27.19-.52-214.07-8.17-404.91-133.15-447.18-197.85-59.02-90.35-87.57-194.23-82.55-300.41,6.5-137.89,66.76-241.56,179.08-308.14,98.63-58.47,235.83-85.35,396.76-77.77,160.93,7.59,294.98,47.28,387.67,114.78,105.56,76.87,155.78,185.75,149.28,323.64-5.01,106.19-43.21,206.92-110.47,291.31-52.26,65.57-237.82,154.97-445.39,154.97Zm-33.67-870.38c-135.45,0-250.91,26.27-336.23,76.85-107.54,63.75-165.23,163.16-171.47,295.48-4.85,102.89,22.82,203.58,80.04,291.16,40.73,62.35,225.95,182.83,434.74,190.81,231.27,8.85,416.39-94.14,459.81-148.6,65.21-81.81,102.24-179.44,107.1-282.33h0c6.24-132.32-41.83-236.73-142.89-310.31-90.22-65.7-221.36-104.36-379.24-111.81-17.58-.83-34.88-1.24-51.85-1.24Z"/>
    <g class="cls-5">
      <path class="cls-2" d="m1737.26,636.18c64.05,67.16,99.52,156.89,94.12,271.71-5.1,108.05-44.92,206.68-108.76,286.84-47.91,60.09-237.9,160.24-466.22,151.55-80.62-3.06-157.66-22.65-224.53-49.31,280.9,4.7,512.35-118.3,571.75-192.83,81.09-101.73,131.6-226.93,138.05-364.01,1.75-36.64.15-71.26-4.4-103.94Z"/>
    </g>
    <path class="cls-18" d="m1785.4,666.37l-1.42-1.32-1.12-1.69c-86.58-134.37-262.31-217.39-482.13-227.76-221.04-10.46-403.73,58.1-501.24,188l-1.07,1.28c-5.87,6.28-15.75,6.66-22.04.8-6.03-5.62-6.62-14.88-1.49-21.17,103.88-138.02,296.07-210.93,527.31-200.01,230,10.86,414.74,99.06,506.84,242l-13.02,8.5-10.62,11.38Z"/>
    <g class="cls-9">
      <path class="cls-1" d="m849.33,1032.02s-75.23-286.19,82.06-391.4c157.29-105.21,375.93-94.44,370.16-80.66,0,0-244.84,47.18-348.59,234.09-80,144.13-103.62,237.97-103.62,237.97Z"/>
    </g>
    <g class="cls-9">
      <ellipse class="cls-1" cx="1662.31" cy="873.61" rx="97.8" ry="70.87" transform="translate(437.85 2297.4) rotate(-77.03)"/>
    </g>
    <g class="cls-9">
      <ellipse class="cls-1" cx="1566.46" cy="1063.04" rx="44.89" ry="38.52" transform="translate(14.28 2146.82) rotate(-69.09)"/>
    </g>
  </g>
  <g>
    <path class="cls-18" d="m289.2,2033.19c-12.04-13.33-23.41-27.17-34.71-41.08-11.18-13.99-22.17-28.14-32.95-42.45-10.72-14.36-21.51-28.66-31.49-43.59-10-14.91-19.66-30.1-27.94-46.36-.04-.07,0-.16.06-.19.05-.03.11-.02.16.02,13.77,11.97,26.16,25.03,38.2,38.35,12.07,13.3,23.32,27.24,34.65,41.12,11.26,13.93,22.32,28.02,33.19,42.27,10.75,14.33,21.42,28.73,31.43,43.63,2.08,3.09,1.25,7.29-1.84,9.37-2.82,1.9-6.56,1.37-8.77-1.08Z"/>
    <path class="cls-18" d="m235.65,2088.85c-13.03-4.21-25.72-9.18-38.38-14.25-12.6-5.2-25.1-10.63-37.5-16.3-12.35-5.78-24.79-11.34-36.76-18-12.01-6.57-23.84-13.55-34.98-22.14-.06-.05-.07-.14-.03-.2.03-.04.09-.06.14-.05,13.9,2.19,27.1,5.98,40.13,10.18,13.07,4.1,25.66,9.32,38.35,14.32,12.64,5.11,25.18,10.45,37.61,16.02,12.38,5.7,24.72,11.5,36.73,18.07,3.28,1.79,4.48,5.9,2.69,9.18-1.58,2.9-4.98,4.17-8.01,3.19Z"/>
    <path class="cls-18" d="m348.9,2000.02c-3.74-13.17-6.66-26.49-9.47-39.83-2.68-13.36-5.11-26.77-7.29-40.23-2.06-13.48-4.35-26.91-5.46-40.57-1.21-13.64-1.98-27.35-1.03-41.39,0-.08.07-.14.15-.13.05,0,.1.04.12.08,5.9,12.77,10.09,25.85,13.84,39.02,3.85,13.15,6.51,26.51,9.41,39.84,2.77,13.35,5.3,26.74,7.58,40.18,2.14,13.46,4.17,26.95,5.39,40.58.33,3.72-2.42,7-6.14,7.34-3.29.29-6.24-1.82-7.1-4.89Z"/>
    <path class="cls-18" d="m2233.87,2024.9c10.01-14.91,20.68-29.31,31.43-43.63,10.86-14.24,21.92-28.33,33.19-42.27,11.33-13.88,22.59-27.82,34.65-41.12,12.04-13.32,24.43-26.37,38.2-38.35.06-.05.15-.05.2.01.04.05.05.11.02.16-8.28,16.26-17.93,31.45-27.94,46.36-9.98,14.93-20.77,29.23-31.49,43.59-10.78,14.31-21.77,28.45-32.95,42.45-11.29,13.91-22.67,27.75-34.71,41.08-2.5,2.77-6.77,2.98-9.53.49-2.52-2.28-2.92-6.03-1.08-8.77Z"/>
    <path class="cls-18" d="m2292.71,2076.48c12.01-6.57,24.35-12.37,36.73-18.07,12.44-5.57,24.98-10.92,37.61-16.02,12.69-4.99,25.28-10.21,38.35-14.32,13.03-4.2,26.23-7.99,40.13-10.18.08-.01.15.04.16.12,0,.05-.01.1-.06.14-11.14,8.59-22.97,15.57-34.98,22.14-11.97,6.67-24.41,12.22-36.76,18-12.4,5.67-24.9,11.1-37.5,16.3-12.65,5.07-25.35,10.05-38.38,14.25-3.55,1.15-7.36-.8-8.51-4.36-1.01-3.14.4-6.49,3.19-8.01Z"/>
    <path class="cls-18" d="m2171.54,1997.58c1.21-13.63,3.25-27.12,5.39-40.58,2.28-13.44,4.8-26.83,7.58-40.18,2.9-13.32,5.56-26.69,9.41-39.84,3.75-13.17,7.93-26.25,13.84-39.02.03-.07.12-.1.19-.07.05.02.08.07.08.12.95,14.03.18,27.75-1.03,41.39-1.1,13.65-3.4,27.09-5.46,40.57-2.18,13.46-4.61,26.87-7.29,40.23-2.81,13.34-5.73,26.66-9.47,39.83-1.02,3.59-4.76,5.68-8.35,4.66-3.18-.9-5.17-3.93-4.89-7.1Z"/>
  </g>
  <path class="cls-18" d="m2291.45,546.68c3.59.56,7.21,1.72,10.77,1.56,14.38-.63,25.65-7.22,33.22-19.4,4.53-7.3,4.21-15.69,3.34-23.96-1.52-14.49-7.71-27.48-13.03-40.76-2.26-5.65-4.64-11.26-7.09-17.17-3.64,1.06-7.15,2.25-10.74,3.1-34.11,8.13-63.65-1.03-89-24.4-17-15.67-27.62-35.18-31.76-57.97-3.49-19.2-.58-37.89,5.74-56.12,6.59-19,16.44-36.31,27.87-52.77,5.62-8.1,11.26-16.19,17.03-24.18,1.47-2.03,1.71-3.63.68-6.04-9.86-23.14-17.13-46.95-18.08-72.33-.71-19.2,1.03-37.99,9-55.78,3.38-7.53,8.3-13.86,14.62-19.14,6.31-5.28,9.93-5.46,16.07-.07,10.85,9.53,19.11,21.14,24.62,34.36,21.82,52.36,17.6,102.37-14.31,149.68-.76,1.12-1.08,3.14-.62,4.39,4.28,11.81,8.8,23.52,13.16,35.3.69,1.87,1.48,2.57,3.6,2.06,27.55-6.67,49.34,3,65.01,25.36,17.23,24.6,20.75,51.46,7.54,79.32-5.1,10.76-13.32,18.97-23.38,25.25-2.38,1.49-2.76,2.85-1.79,5.38,5.62,14.69,11.26,29.37,16.58,44.17,3.1,8.64,5.33,17.59,5.02,26.86-.67,20-10.24,34.84-27.93,43.63-21.55,10.71-43.05,10.06-62.77-4.58-15.64-11.61-19.13-34.6-8.69-51.06,12.46-19.65,38.93-18.9,50.16,1.56,10.2,18.6,1.37,36.46-13.58,42.01-.4.15-.76.4-1.14.6-.03.37-.07.75-.1,1.12Zm-33.77-265.44c-1.18,1.26-2,1.93-2.57,2.76-8.35,12.04-17.1,23.84-24.89,36.24-7.93,12.63-13.05,26.48-14.74,41.47-2.05,18.19,1.06,35.03,12.14,50.04,18.81,25.48,53.74,33.74,81.87,21.89,3.05-1.29,3.82-2.28,2.6-5.54-8.81-23.52-17.4-47.12-26.06-70.69-.95-2.59-1.95-5.17-3.07-8.16-6.68,4.28-11.23,9.73-14.54,16.15-5.58,10.82-5.16,21.34,1.8,31.62,4.64,6.86,10.62,11.43,18.74,13.26,3.38.76,5.47,3.58,5.08,6.24-.39,2.69-3.62,4.71-7.07,4.41-23.85-2.03-45.31-23.84-46.24-47.48-.94-23.87,7.56-43.58,26.85-58.25.8-.61,1.68-2.21,1.41-2.95-3.58-10.16-7.35-20.26-11.31-31.03Zm-7.56-61.77c2.13-2.7,3.63-4.33,4.83-6.15,10.79-16.48,18.46-34.22,21.35-53.83,1.42-9.64,1.16-19.16-2.57-28.37-2.94-7.26-8.8-9.25-15.52-5.09-4.7,2.91-7.72,7.32-9.49,12.33-7.32,20.79-9.26,42.05-4.38,63.66,1.27,5.62,3.61,11,5.78,17.45Zm76.78,204.82c14.11-6.88,20.67-33.03,13.27-51.38-7.9-19.57-26.62-30.66-42.63-27.32,9.8,26.26,19.57,52.46,29.36,78.7Z"/>
  <path class="cls-18" d="m200.3,384.66c-26.8,12.81-53.6,25.61-80.39,38.43-22.12,10.58-44.96,21.52-67.43,32.25-11.71,5.59-17.84,18.67-14.66,31.24,11.53,45.56,23.06,92.16,34.55,137.33.06.23.19.65.25.88.17.61-.09.89-.86,1.03-5.13.92-10.06,2.55-14.78,4.74-16.02,7.42-28.63,18.54-36.76,34.36-4.36,8.49-6.44,17.48-4.69,27.08.02.93.41,1.77.58,2.67,1.73,7.44,6.42,12.68,12.8,16.37,6.5,3.76,13.71,4.96,21.19,4.76,2.61-.07,5.15-.62,7.73-.89.63-.2,1.61-.51,2.24-.7.47-.23,1.01-.23,1.49-.41,1.32-.25,2.56-.87,3.96-.74.61-.23,1.13-.42,1.75-.65.13-.11.28-.12.46-.02l.57-.14c-.02-.34.25-.35.47-.43,9.9-3.45,18.76-8.7,26.55-15.69,8.88-7.97,15.49-17.47,18.65-29.11,1.89-6.99,2.08-13.96.24-21.11-12.78-49.68-25.41-99.41-38.13-149.11-.35-1.37-.17-2,1.17-2.62,14.8-6.87,29.57-13.8,44.34-20.73,23.44-11,46.87-22,70.28-33.06,1.18-.56,1.31-.22,1.56.79,2.65,10.54,5.34,21.07,8.01,31.6,6.54,25.71,13.07,51.43,19.63,77.14.28,1.09.16,1.49-1.04,1.66-3.84.54-7.59,1.54-11.21,2.89-16,5.92-29.01,15.77-38.6,29.93-5.27,7.77-8.72,16.26-9.24,25.76-.72,13.18,6.08,24.06,18.1,28.85,8.34,3.32,16.97,3.48,25.66,1.86,14.1-2.63,26.31-9.15,36.95-18.64,9.13-8.14,16.28-17.69,20.08-29.47,2.25-6.96,2.6-13.93.74-21.19-15.11-59.17-30.44-119.78-45.49-179.18-1.84-7.26-9.86-11.01-16.61-7.78-.04.02-.09.04-.13.06Z"/>
  <path class="cls-18" d="m2444.22,1620.62c.08-1.45.04-2.91-.03-4.37.07-2.65,0-5.42-.22-8.29-.09-1.84-.29-3.66-.6-5.47-2.3-16.24-9.69-35.64-26.57-57.45-1.92-3.68-3.79-7.38-5.8-11.01-2.22-3.99-4.14-8.08-5.39-12.47-2.09-7.29-4.13-14.58-6.22-21.87-1.01-3.52-4.22-5.6-8.32-5.49-3.71.1-6.24,2.21-7.12,5.91-6.97,29.32-13.95,58.65-20.92,87.97-.09-.02-.19-.04-.28-.07-1.25,5.43-2.43,10.87-3.76,16.28-5.93,24.13-11.86,48.26-17.89,72.36-.84,3.38-2.47,6.5-4.88,9.11-2.12,2.3-4.47,2.75-7.3,1.46-.61-.28-1.19-.62-1.75-.98-6.91-4.48-14.42-7.51-22.45-9.22-16.27-3.45-31.96-1.06-47.02,5.4-11.11,4.77-19.7,12.64-25.16,23.58-3,6.02-4.76,12.41-4.1,19.22.91,9.37,5.8,16.54,12.83,22.43,4.04,3.39,8.77,5.51,13.56,7.64,10.24,4.54,20.86,6.02,31.93,5.03,6.73-.6,13.2-2.32,19.65-4.21,8.76-2.57,17.24-5.73,24.87-10.86,9.1-6.12,15.37-14.19,17.95-25.07,6.2-26.18,12.59-52.31,18.86-78.47,3.6-14.98,7.12-29.98,10.69-44.97,1.66-6.99,3.36-13.98,5.03-20.97.53-2.23.86-4.52,1.63-6.66.6-1.67,1.48-3.36,2.65-4.68,2.85-3.21,7.77-3.3,11.75-.46.67.48,1.3,1,1.9,1.55-.62-.52-1.25-1.03-1.9-1.55,0,0,28.13,34.5,20.67,82.64-1.14,3.09-1.27,6.27.05,9.37.86,2.02,2.38,3.3,4.65,3.24,2.46-.06,4.55-1.07,5.94-3.14,0,0,4.43-5.24,8.14-14.84,2.76-6.54,4.52-13.38,4.93-20.63Z"/>
</svg>