<?xml version="1.0" encoding="UTF-8"?>
<svg id="Layer_1" data-name="Layer 1" xmlns="http://www.w3.org/2000/svg" viewBox="0 0 2686.51 3229.1">
  <defs>
    <style>
      .cls-1 {
        fill: #fff;
      }

      .cls-2 {
        fill: #111a28;
      }

      .cls-3 {
        opacity: .7;
      }

      .cls-3, .cls-4, .cls-5, .cls-6 {
        fill: none;
      }

      .cls-7 {
        fill: #a7a9b7;
      }

      .cls-8 {
        fill: #f9f9f9;
      }

      .cls-4 {
        opacity: .6;
      }

      .cls-9 {
        fill: #22a7f0;
      }

      .cls-5 {
        opacity: .5;
      }

      .cls-10 {
        fill: #371a45;
      }

      .cls-6 {
        opacity: .25;
      }
    </style>
  </defs>
  <path class="cls-1" d="m2073.41,2266.93l53.05-29.55c22.54-12.55,35.93-36.88,34.48-62.64l-9.78-173.46s-194.38,134.44-183.04,132.82"/>
  <path class="cls-10" d="m2073.43,2286.37c-6.83,0-13.44-3.6-17-9.98-5.22-9.38-1.86-21.22,7.52-26.44l53.05-29.55c15.92-8.87,25.55-26.36,24.53-44.56l-9.78-173.46c-.6-10.72,7.6-19.9,18.32-20.5,10.59-.6,19.9,7.59,20.5,18.31l9.78,173.46c1.86,32.97-15.59,64.65-44.43,80.71l-53.05,29.55c-2.99,1.67-6.24,2.46-9.44,2.46Z"/>
  <path class="cls-1" d="m934.79,1542.88l-14.88-216.03c-2.47-35.87,21.95-68.01,57.17-75.23,200.27-41.07,836.69-78.41,1053.33-57.94,36.21,3.42,64.95,31.88,68.65,68.07,4.94,48.25,11.54,120.98,14.84,192.46,5.67,122.7,37.26,375.39,37.26,375.39l25.33,129.12c9.44,48.1-18.79,95.61-65.55,110.33l-47.24,14.86-1073.94-455.17"/>
  <path class="cls-1" d="m1112.05,2388.42h-70.98c-46.8,0-84.74-37.94-84.74-84.74v-119.05l95.6-100.73,44.11,113.51"/>
  <path class="cls-10" d="m1112.05,2407.86h-70.98c-57.45,0-104.18-46.74-104.18-104.18v-119.05c0-10.73,8.7-19.44,19.44-19.44s19.44,8.7,19.44,19.44v119.05c0,36.01,29.29,65.31,65.3,65.31h70.98c10.74,0,19.44,8.7,19.44,19.44s-8.7,19.44-19.44,19.44Z"/>
  <path class="cls-10" d="m2063.69,2103.33c-2.59,0-5.17-.52-7.58-1.54l-1073.94-455.17c-9.89-4.19-14.5-15.6-10.31-25.48,4.19-9.88,15.61-14.49,25.48-10.31l1067.35,452.37,40.41-12.72c37.37-11.76,59.86-49.6,52.32-88.04l-25.33-129.12c-.09-.44-.16-.89-.21-1.33-.32-2.54-31.75-254.86-37.39-376.91-3.28-70.97-9.83-143.24-14.76-191.38-2.74-26.83-24.25-48.15-51.14-50.7-206-19.47-842.37,15.55-1047.6,57.63-25.56,5.24-43.48,28.82-41.69,54.86l14.88,216.04c.74,10.71-7.34,19.99-18.05,20.73-10.73.74-19.99-7.34-20.73-18.06l-14.88-216.04c-3.12-45.37,28.11-86.47,72.66-95.61,212.4-43.56,845.86-78.41,1059.06-58.25,45.3,4.28,81.54,40.21,86.16,85.44,4.98,48.62,11.6,121.67,14.92,193.54,5.42,117.47,35.24,358.7,37.04,373.21l25.2,128.45c11.36,57.9-22.51,114.9-78.79,132.61l-47.24,14.87c-1.9.6-3.87.9-5.84.9Z"/>
  <path class="cls-1" d="m2634.68,1342.47s65.6,92.72-14.58,187.48c-80.18,94.76-128.78,82.61-128.78,82.61-22.26,242.63-107.73,383.99-355.57,264.94,0-.05-.05-.05-.1-.1-6.22-2.96-12.54-6.12-18.95-9.43-7.82-4.03-15.74-8.31-23.86-12.83,0,0,21.04,281.85,1.6,443.81-19.44,161.96,103.7,745.1,103.7,745.1,0,0,19.44,84.26-8.12,116.63-8.6,10.11-19.24,18.95-29.79,26.34-24.05,16.81-52.82,25.51-82.12,25.51h-329.42c-21.92,0-41.01-15.26-45.48-36.74-7.39-35.38-10.98-89.51,20.26-130.96,5.39-7.19,11.86-13.95,19.49-20.22,0,0,.15-3.98.05-11.13-.24-35.57-5.15-149.19-55.11-230.19-51.51-83.53-103.02-256.77-116.48-303.81l-.19-.63v-.05c-2.09-7.29-3.21-11.37-3.21-11.37-.15,8.7-.29,17.45-.39,26.29-2.77,188.11,1.55,405.42,9.62,638.29,1.51,43.98-33.68,80.52-77.75,80.52h-431.28c-24.05,0-44.61-16.91-49.61-40.38-8.6-40.28-11.03-102.29,37.13-145.78,20.26-18.37,49.57-33.43,91.11-42.23,0,0-64.78-332.87-89.07-595.28-24.3-262.41-44.66-433.85-44.66-433.85l-254.2-141.02s99.62-431.03,374.18-525.79c274.56-94.76,777.51-46.16,777.51-46.16,0,0,138.64,29.98,294.87,216.24l101.17-192.77c35.13-80.86,78.33-103.26,107.49-65.12,9.28,12.15,14.04,27.16,14.72,42.42l3.3,73.72,119.88-71.24c24.3-11.91,47.77-18.22,69.83-14.87,2.33.34,4.67.87,6.85,1.51,27.6,7.92,43.64,36.93,36.74,65.75-4.08,17.25-14.19,32.27-30.81,44.8Z"/>
  <g class="cls-6">
    <path class="cls-10" d="m1234.35,1370.85c345.07,148.54,628.96,163.99,796.14-74.48l-62.84-35.59c-232.86,145.43-475.94,194.86-733.3,110.07Z"/>
  </g>
  <path class="cls-10" d="m1471,2131.59c-58.15,0-116.84-2.92-175.95-8.78-35.31-3.47-64.24-30.27-70.34-65.17-3.51-19.83-6.74-40.2-9.58-60.52-13.73-96.75-18.81-189.69-15.53-284.1,1.27-37.17,28.73-68.96,65.28-75.6,84.81-15.5,306.53-48.3,532.56-18.12,18.62,2.51,35.83,11.46,48.47,25.21.3.33.6.67.87,1.02,9.43,10.64,15.84,23.6,18.57,37.57,11.7,59.64,30.08,182.73,21.71,336.92v.02c-1.97,35.76-27.8,66.13-62.8,73.84-114.32,25.12-232.6,37.72-353.27,37.72Zm130.73-485.77c-146.12,0-271.31,19.14-329.88,29.84-18.71,3.4-32.74,19.67-33.4,38.69-3.2,92.12,1.77,182.83,15.18,277.33,2.79,19.9,5.94,39.81,9.38,59.21,3.12,17.81,17.87,31.45,35.88,33.22,177.68,17.61,351.64,8.13,517.04-28.22,18.02-3.97,31.32-19.61,32.33-38.02,8.14-149.97-9.69-269.45-21.05-327.33-1.44-7.38-4.88-14.2-9.94-19.73-.2-.22-.4-.44-.59-.67-6.45-6.71-15.08-11.07-24.4-12.33-64.93-8.67-129.58-12.01-190.55-12.01Zm265.93,373.14h.05-.05Z"/>
  <path class="cls-10" d="m2078.12,3229.1h-329.43c-31.07,0-58.2-21.95-64.49-52.2-14.37-68.95-.37-126.77,39.41-164.02-.13-31.18-4.1-144.18-52.26-222.27-31.36-50.85-62.24-132.4-85.1-200.61-.29,150.6,3.16,328.16,10.43,538.44.93,26.62-8.75,51.83-27.25,70.98-18.48,19.13-43.31,29.67-69.91,29.67h-431.31c-32.87,0-61.72-23.46-68.6-55.78-7.82-36.74-10.9-90.16,18.86-135.95,21.73-33.44,57.29-57.14,105.85-70.61-13.8-73.35-65.03-353.57-85.9-578.98-20.75-224.05-38.83-383.37-43.47-423.49l-245.45-136.16c-7.58-4.21-11.46-12.92-9.51-21.37,1.04-4.49,26.1-111.36,85.65-231.62,79.8-161.17,183.93-267.74,301.12-308.19,275.4-95.05,765.01-49.14,785.72-47.14.75.07,1.5.19,2.24.35,5.69,1.23,135.98,31.02,286.84,200.93l87.56-166.85c25.08-57.5,55.3-89.95,87.44-93.88,19.84-2.43,38.7,6.57,53.04,25.34,11.34,14.85,17.8,33.3,18.7,53.36l1.86,41.31,91.96-54.68c.45-.27.92-.52,1.4-.75,30.36-14.85,56.92-20.3,81.27-16.63,20.13,3.03,37.5,14.01,48.91,30.9,11.75,17.4,15.64,39.31,10.69,60.11-3.96,16.6-12.25,31.39-24.73,44.15,22.21,42.66,37.95,122.08-24.74,196.17-56.88,67.22-100.98,85.04-125.95,88.98-16.76,157.75-59.27,249.7-133.23,288.68-65.33,34.44-151,24.19-261.19-31.47,4.96,80.99,14.78,282.75-.8,412.58-18.84,156.98,102.16,732.98,103.39,738.78,2.13,9.24,20.6,94.51-12.31,133.23-8.74,10.29-20,20.27-33.48,29.68-27.14,18.97-59.39,29-93.25,29Zm-510.07-783.99c8.65,0,16.39,5.77,18.73,14.3.6,2.16,59.89,217.12,117.66,310.8,62.29,101.02,58.16,246.08,57.96,252.21-.19,5.61-2.79,10.86-7.14,14.4-42.76,34.91-41.55,91.13-33.01,132.15,2.56,12.31,13.68,21.25,26.44,21.25h329.43c25.85,0,50.4-7.6,70.99-21.99,10.75-7.51,19.54-15.24,26.12-22.99,14.57-17.14,11.09-68.61,3.96-99.68-5.13-24.28-123.62-588.49-104.02-751.79,18.98-158.22-1.49-437.26-1.7-440.06-.53-7.13,2.9-13.98,8.93-17.83,6.04-3.85,13.69-4.08,19.93-.59,111.4,62.17,197.29,78.2,255.31,47.62,62.99-33.2,100.39-123.15,114.34-274.99.55-5.95,2.97-11.56,7.99-14.8,4.9-3.16,10.16-4.18,15.65-2.42,4.42.34,44.41.92,109.64-76.17,69.11-81.67,15.81-160.46,13.51-163.78-5.96-8.57-4.13-20.39,4.21-26.68,12.77-9.63,20.5-20.67,23.61-33.75,2.44-10.25.59-20.95-5.09-29.36-5.25-7.77-13.23-12.82-22.48-14.21-16.09-2.44-34.98,1.75-57.71,12.77l-119.17,70.86c-5.87,3.49-13.14,3.65-19.17.4-6.02-3.24-9.88-9.41-10.19-16.24l-3.31-73.74c-.54-12.1-4.26-23-10.76-31.5-8.72-11.41-15.3-10.62-17.44-10.35-12.56,1.53-34.97,21.16-56.78,71.43-.19.44-.4.87-.62,1.29l-101.16,192.76c-3.01,5.74-8.69,9.6-15.13,10.29-6.43.71-12.81-1.87-16.97-6.84-142.63-170.05-270.83-206.34-283.2-209.51-28.92-2.65-507.44-44.6-767.96,45.31-233.73,80.67-337.97,423.69-357.95,497.72l241.04,133.71c5.46,3.03,9.14,8.5,9.87,14.7.21,1.72,20.69,174.7,44.73,434.36,23.93,258.45,88.17,590.04,88.82,593.36,2.03,10.42-4.68,20.53-15.06,22.73-47.66,10.07-81.24,29.68-99.82,58.26-22.5,34.63-19.73,77.12-13.43,106.68,3.13,14.72,15.7,25,30.57,25h431.31c15.96,0,30.86-6.32,41.95-17.8,11.1-11.5,16.91-26.64,16.36-42.63-9.43-272.34-12.45-490.06-9.24-665.6.18-9.67,7.43-17.73,17.02-18.93.82-.1,1.63-.15,2.43-.15Z"/>
  <path class="cls-10" d="m2437.77,1295.05c30.89,14.87,54.78,45.49,60.37,79.14,2.09,10.23,1.82,20.76,1.28,31.01-1.49-4.91-2.6-9.8-4.37-14.45-7.94-22.05-24.12-41.22-45.12-51.17-7.36-3.39-15.45-6.67-23.29-7.27-24.37-8.1-13.73-43.85,11.13-37.25h0Z"/>
  <path class="cls-10" d="m2487.87,1628.82c-40.46-14.94-75.24-44.52-98.6-80.33,29.75,23.8,66.3,39.81,104.34,42.13.46,0,1.07.03,1.15-.06l-6.9,38.26h0Z"/>
  <path class="cls-10" d="m2411.11,1761.26c-105.4,0-172.05-39.37-211.11-75.67-50.56-46.99-66.77-98.64-67.43-100.82-1.36-4.45-1.08-9.24.79-13.5l54.35-123.69c4.32-9.83,15.79-14.3,25.62-9.98,9.83,4.32,14.3,15.79,9.98,25.62l-51.24,116.6c12.63,31.98,79.43,167.35,296.01,138.64,10.68-1.41,20.41,6.08,21.82,16.72,1.41,10.64-6.07,20.41-16.71,21.82-22.04,2.92-42.71,4.25-62.07,4.25Z"/>
  <path class="cls-10" d="m2113.9,1685.42c-2.55,0-5.15-.51-7.65-1.58-9.86-4.23-14.43-15.66-10.21-25.52l37.26-86.89c4.23-9.86,15.65-14.44,25.53-10.2,9.86,4.23,14.43,15.66,10.21,25.52l-37.26,86.89c-3.16,7.37-10.34,11.78-17.88,11.78Z"/>
  <g>
    <path class="cls-1" d="m847.57,547.41l-77.75,35.47c-45.54,20.78-73.66,67.38-70.81,117.35l13.17,231.03c3.24,56.84,45.54,103.79,101.74,112.91l102.36,16.62"/>
    <path class="cls-1" d="m2121.29,474.78l81.28,26.4c47.61,15.46,80.84,58.57,83.69,108.54l13.17,231.03c3.24,56.84-33.45,108.29-88.24,123.74l-99.81,28.15"/>
    <g class="cls-6">
      <path class="cls-10" d="m916.27,1060.79l-102.39-16.6c-56.13-9.13-98.47-56.1-101.71-112.93l-7.48-131.14c3.24,56.83,45.58,103.8,101.71,112.93l92.12,14.96,17.74,132.78Z"/>
    </g>
    <g class="cls-6">
      <path class="cls-10" d="m2291.93,709.62l7.48,131.14c3.24,56.83-33.42,108.3-88.22,123.76l-99.84,28.13,2.59-134,89.77-25.27c54.8-15.45,91.46-66.93,88.22-123.76Z"/>
    </g>
    <circle class="cls-1" cx="1492.71" cy="719.79" r="700.33"/>
    <g class="cls-6">
      <path class="cls-10" d="m1532.59,1418.98c-160.18,9.13-310.8-36.32-433.88-120.19,73.33,20.93,151.31,30.09,231.68,25.49,386.12-22.01,681.33-352.9,659.32-739.06-12.93-225.98-131.61-420.86-305.28-539.18,278.89,79.29,490.06,328.03,507.47,633.87,22.01,386.16-273.16,717.05-659.32,739.06Z"/>
    </g>
    <path class="cls-10" d="m2193.22,702.86c17.52,307.34-281.28,574.37-667.46,596.39-352.09,20.08-655.22-170.43-719.17-437.22-6.24-25.78-10.21-52.31-11.76-79.43-17.52-307.34,281.28-574.29,667.47-596.31,290.17-16.55,547.07,109.95,664.31,304.21v.08c38.8,64.28,62.26,135.97,66.61,212.29Z"/>
    <g class="cls-3">
      <path class="cls-2" d="m2193.22,702.86c17.52,307.34-281.28,574.37-667.46,596.39-352.09,20.08-655.22-170.43-719.17-437.22,4.76-6.88,7.54-10.65,7.54-10.65,356.02,513.97,1326.98,231.83,1312.48-360.8,38.8,64.28,62.26,135.97,66.61,212.29Z"/>
    </g>
    <path class="cls-10" d="m1491.78,1439.59c-176.8,0-345.22-64.05-478.22-182.7-143.47-127.99-228.5-304.18-239.44-496.13-10.95-191.94,53.51-376.66,181.49-520.13C1083.6,97.17,1259.8,12.14,1451.74,1.19c192.01-10.92,376.66,53.52,520.13,181.5,143.47,127.99,228.5,304.18,239.44,496.13,10.95,191.95-53.51,376.66-181.49,520.13-127.99,143.46-304.18,228.5-496.13,239.45-14,.8-28,1.19-41.9,1.2Zm1.81-1400.72c-13.17,0-26.39.38-39.64,1.13-181.58,10.35-348.26,90.8-469.34,226.51-121.07,135.72-182.05,310.46-171.69,492.04,10.36,181.58,90.8,348.25,226.51,469.33,135.71,121.07,310.47,182.06,492.03,171.69,181.58-10.35,348.26-90.8,469.34-226.51,121.07-135.72,182.05-310.46,171.69-492.04h0c-10.36-181.58-90.8-348.25-226.51-469.33-125.81-112.24-285.15-172.83-452.39-172.83Z"/>
    <path class="cls-10" d="m792.86,765.32c-8.95,0-16.45-6.99-16.97-16.04-9.29-162.89,56.86-320.12,186.25-442.74,128.61-121.88,304.5-194.99,495.27-205.86,190.75-10.88,373.82,41.77,515.46,148.23,142.49,107.12,226.08,255.81,235.37,418.7.53,9.38-6.64,17.41-16.02,17.95-9.23.59-17.41-6.63-17.95-16.01-8.71-152.72-87.5-292.45-221.85-393.44-135.22-101.65-310.38-151.9-493.09-141.46-182.75,10.42-351.02,80.24-473.8,196.59-122,115.61-184.4,263.39-175.69,416.11.53,9.38-6.64,17.41-16.02,17.95-.33.02-.65.03-.98.03Z"/>
    <path class="cls-10" d="m916.3,1080.23c-1.04,0-2.08-.08-3.14-.25l-102.37-16.62c-65.7-10.67-114.23-64.53-118.02-130.99l-13.17-231.03c-3.33-58.42,28.91-111.86,82.15-136.14l77.75-35.47c9.75-4.45,21.29-.15,25.75,9.62,4.45,9.77.15,21.3-9.62,25.75l-77.75,35.47c-38.54,17.58-61.88,56.27-59.47,98.56l13.17,231.04c2.74,48.11,37.88,87.11,85.44,94.83l102.37,16.62c10.6,1.72,17.79,11.71,16.07,22.3-1.55,9.54-9.79,16.33-19.16,16.33Z"/>
    <path class="cls-10" d="m2111.37,1012.09c-8.49,0-16.28-5.6-18.7-14.17-2.92-10.33,3.1-21.07,13.43-23.98l99.81-28.15c46.38-13.08,76.86-55.82,74.12-103.93l-13.17-231.03c-2.41-42.29-30-78.07-70.29-91.16l-81.28-26.4c-10.21-3.32-15.8-14.28-12.48-24.49,3.32-10.21,14.29-15.8,24.49-12.48l81.28,26.4c55.65,18.08,93.76,67.5,97.09,125.92l13.17,231.03c3.79,66.46-38.31,125.49-102.37,143.56l-99.81,28.15c-1.77.5-3.54.73-5.29.73Z"/>
    <g class="cls-5">
      <path class="cls-1" d="m1933.27,1003.95c69.24-293.49-46.93-518.49-322.76-684.53,475.81,101.98,583,476.64,322.76,684.53Z"/>
    </g>
    <g class="cls-5">
      <path class="cls-1" d="m1047.36,771.32c1.9,39.02,9.12,95.84,31.61,157.86,11.56,31.89-3.91,67.26-35.12,80.55h0c-27.9,11.88-60.4,2.61-77.66-22.32-43.56-62.89-73.09-139.48-66.16-219.45,3.91-45.17,48.16-75.61,92.05-64.26h0c31.22,8.07,53.71,35.42,55.28,67.62Z"/>
    </g>
    <g class="cls-5">
      <path class="cls-1" d="m1099.29,460.04h0c16.17,17.8,18.92,44.04,6.79,64.8l-31.92,54.66c-13.68,23.43-42.4,33.4-67.66,23.5l-4.08-1.6c-31.23-12.24-44.54-49.4-27.8-78.46,10.09-17.52,23.39-38,40.51-59.83,21.05-26.84,61.23-28.32,84.16-3.07Z"/>
    </g>
  </g>
  <path class="cls-7" d="m443.12,2136.94c-164.06-8.47-148.23-93.76-148.23-93.76,9.2,1.29,252.66,36.66,252.66,36.66"/>
  <path class="cls-7" d="m594.74,2169.74l328.42,27.51c12.4,1.04,24.6-3.61,33.16-12.63l307.74-324.25c6.92-7.29,10.77-16.95,10.77-27v-22.31c0-19.21-13.92-35.6-32.87-38.71l-608.57-99.89-38.66,497.28Z"/>
  <path class="cls-10" d="m926.67,2216.84c-1.7,0-3.41-.07-5.12-.21l-328.43-27.51c-10.65-.89-18.59-10.22-17.76-20.88l38.66-497.28c.42-5.43,3.1-10.43,7.38-13.79,4.28-3.36,9.77-4.76,15.15-3.89l608.57,99.89c28.49,4.68,49.16,29.02,49.16,57.89v22.31c0,15.09-5.72,29.44-16.12,40.39l-307.73,324.25c-11.5,12.12-27.23,18.84-43.76,18.84Zm-311.05-64.86l309.17,25.9c6.6.56,12.92-1.87,17.44-6.64l307.74-324.25c3.51-3.69,5.43-8.53,5.43-13.62v-22.31c0-9.74-6.98-17.95-16.59-19.53l-587.68-96.46-35.52,456.92Z"/>
  <path class="cls-7" d="m903.02,2128.15l-615.3-85.96c-41.84-5.83-79.65-28.67-103.6-63.51-8.12-11.76-15.94-24.01-23.52-36.64C57.28,1770.3,2.08,1527.28,24.53,1393.5c4.71-27.89,31.83-46.21,59.53-40.38l686.06,143.99c34.21,7.19,61.47,33.19,70.22,67.06,3.94,15.21,7.77,30.37,11.57,45.48,41.31,163.86,75.37,321.74,97.77,471.32,4.08,27.36-19.24,51.02-46.65,47.18Z"/>
  <g class="cls-4">
    <path class="cls-1" d="m69.92,1440.49c-23.81,141.51,39.46,405.37,154.48,577.69-15.7-10.35-29.4-23.71-40.28-39.51C65.83,1806.6.43,1537.09,24.53,1393.5c4.71-27.89,31.83-46.21,59.53-40.38l686.06,143.99c29.59,6.22,53.99,26.48,65.65,53.79-6.41-3.06-13.22-5.34-20.31-6.8l-686.01-143.99c-27.75-5.83-54.86,12.49-59.53,40.38Z"/>
  </g>
  <path class="cls-10" d="m908.92,2147.99c-2.85,0-5.72-.2-8.61-.6h0l-615.27-85.95c-47.54-6.64-90.17-32.8-116.95-71.78C53.34,1822.7-21.17,1548.22,5.38,1390.29c3.14-18.69,13.52-34.89,29.21-45.6,15.78-10.77,34.78-14.53,53.47-10.61l686.04,143.98c41.78,8.77,74.37,39.9,85.04,81.24,51.44,199.36,87.33,369.05,109.73,518.78,2.87,19.18-3.31,38.09-16.94,51.87-11.58,11.69-26.9,18.03-43.01,18.03Zm-3.23-39.1c6.94.95,13.71-1.33,18.62-6.28,4.93-4.98,7.16-11.82,6.12-18.76-22.2-148.38-57.83-316.78-108.93-514.81-6.95-26.92-28.17-47.19-55.38-52.91l-686.04-143.98c-8.24-1.73-16.62-.07-23.57,4.68-6.88,4.69-11.41,11.77-12.78,19.93-21.93,130.47,36.9,397.02,156.41,570.9,20.62,30.01,53.53,50.16,90.29,55.3l615.27,85.95Z"/>
  <path class="cls-10" d="m906.86,2147.92c-8.8,0-16.77-6.02-18.9-14.95l-115.76-487.36c-8.49-35.73-37.15-63.9-73.03-71.76L18.58,1424.86c-10.49-2.3-17.13-12.66-14.83-23.15,2.3-10.48,12.7-17.13,23.14-14.83l680.6,149c50.38,11.03,90.62,50.58,102.54,100.75l115.76,487.35c2.48,10.44-3.97,20.92-14.42,23.4-1.51.36-3.02.53-4.51.53Z"/>
  <path class="cls-10" d="m443.14,2156.38c-.34,0-.67,0-1.02-.03-72.38-3.74-122.34-22.44-148.5-55.59-22.97-29.11-18.44-57.93-17.85-61.12,1.96-10.56,12.17-17.5,22.66-15.57,10.45,1.94,17.39,11.91,15.62,22.35-.15,1.1-1.84,15.75,10.79,31.13,13.24,16.12,44.67,36.13,119.28,39.98,10.72.55,18.96,9.69,18.41,20.41-.54,10.38-9.12,18.44-19.4,18.44Z"/>
  <path class="cls-10" d="m950.12,2091.18c-4.26,0-8.52-1.59-11.82-4.78-6.75-6.53-6.93-17.3-.41-24.05l291.85-301.82c6.53-6.75,17.3-6.93,24.05-.4,6.75,6.53,6.93,17.3.41,24.05l-291.85,301.82c-3.33,3.45-7.78,5.19-12.23,5.19Z"/>
  <g class="cls-6">
    <polyline class="cls-10" points="950.12 2074.17 1241.97 1772.35 1264.68 1784.76 1274.85 1850.64 956.33 2194.54 940.35 2177.84 929.48 2128.56 950.12 2101.71"/>
  </g>
  <path class="cls-10" d="m934.77,2210.24c-9.3,0-17.51-6.69-19.14-16.17l-10.64-62.26c-1.81-10.58,5.3-20.62,15.88-22.43,10.58-1.8,20.62,5.3,22.44,15.89l10.64,62.26c1.81,10.58-5.3,20.62-15.88,22.43-1.11.19-2.21.28-3.3.28Z"/>
  <path class="cls-10" d="m964.24,1869.67c-.76,0-1.53-.06-2.3-.18l-57.37-9.18c-5.91-.94-10.64-5.41-11.93-11.26l-17.32-78.75c-1.04-4.74.34-9.69,3.7-13.21,3.35-3.51,8.23-5.12,13.02-4.29l123.56,21.38c4.98.86,9.15,4.24,11.04,8.92,1.89,4.68,1.22,10.01-1.77,14.08l-48.87,66.54c-2.77,3.77-7.15,5.95-11.75,5.95Zm-45.27-36.58l38.78,6.2,29.66-40.39-78.97-13.67,10.53,47.85Z"/>
  <path class="cls-10" d="m950.11,2020.72c-3.14,0-6.3-1.01-8.96-3.09-6.34-4.96-7.47-14.12-2.51-20.46l59.14-75.73-81.77-8.83c-8.01-.86-13.79-8.05-12.93-16.06.86-8,8.12-13.77,16.05-12.93l107.83,11.64c5.26.57,9.8,3.94,11.87,8.82,2.06,4.87,1.32,10.48-1.94,14.65l-75.27,96.38c-2.88,3.68-7.16,5.61-11.5,5.61Z"/>
  <g class="cls-6">
    <path class="cls-10" d="m903.02,2128.15l-615.3-85.96c-41.84-5.83-79.65-28.67-103.6-63.51-8.12-11.76-15.94-24.01-23.52-36.64,601.89,111.23,630.51-300.9,630.51-300.9l60.79-31.49c41.31,163.86,75.37,321.74,97.77,471.32,4.08,27.36-19.24,51.02-46.65,47.18Z"/>
  </g>
  <path class="cls-8" d="m666.61,2207.4c166.94-47.35,32.8-174.94-49.81-195.59-133.42-40.52-193.64,54.18-167.82,131.78,6.46,19.41,20.2,35.62,37.85,45.97,51.72,30.3,112.39,34.02,179.77,17.84Z"/>
  <g class="cls-6">
    <path class="cls-10" d="m666.61,2207.4c-67.4,16.18-128.05,12.44-179.75-17.83-17.69-10.35-31.44-26.58-37.86-45.97-3.35-10.11-5.3-20.51-5.73-30.86,50.93,28.43,110.31,31.59,176.15,15.79,58.51-16.57,80.04-43.06,79.74-71.29,54.86,47.62,81.78,117.74-32.56,150.16Z"/>
  </g>
  <path class="cls-10" d="m592.74,2236.2c-43.04,0-81.77-9.97-115.73-29.87-22.14-12.97-38.65-33.07-46.47-56.6-15.37-46.18-4.8-95.5,27.56-128.73,21.78-22.36,72-55.69,163.9-27.93,58.13,14.76,142.78,77.34,143.8,142.4.45,29.06-15.46,68.38-93.89,90.62-.25.07-.51.14-.77.2-27.5,6.6-53.67,9.9-78.4,9.9Zm73.87-28.8h.05-.05Zm-110.08-185.88c-29.17,0-53.41,8.97-70.59,26.61-22.18,22.77-29.28,57-18.53,89.33,4.85,14.58,15.24,27.13,29.24,35.33,45.06,26.4,99.03,31.58,165.03,15.81,30.1-8.59,65.67-24.65,65.24-52.51-.62-39.67-65.22-93.02-114.84-105.42-.31-.08-.62-.16-.93-.26-19.57-5.94-37.91-8.88-54.62-8.88Z"/>
  <path class="cls-10" d="m1151.63,2962.42l53.16,33.43-62.65,4.27c-11.26.77-21.02-7.74-21.78-19-1.62-16.26,17.9-27.69,31.28-18.7h0Z"/>
  <path class="cls-10" d="m1728.84,3008.42c38.49-31.71,90.76-41.21,139.05-41.55,25.43.41,51.65,3.97,76.43,9.2,0,0,29.48,7.63,29.48,7.63-17.87-1.93-42.62-3.85-60.25-3.41-5.49.31-17.14.61-22.39,1-4.57.51-17.34,1.99-22.1,2.55-33,5.52-66,15.69-93.15,34.87-6.78,4.77-13.7,10.24-18.8,16.39-18,18.18-45.42-7.57-28.27-26.68h0Z"/>
  <path class="cls-10" d="m1844.75,2862.18c-45.5,0-91.2-4.43-134.33-10.23-10.64-1.43-18.11-11.21-16.67-21.85,1.43-10.64,11.2-18.12,21.85-16.68,219.5,29.49,339.52-7.26,401.26-122.92,5.06-9.47,16.84-13.05,26.3-7.99,9.47,5.05,13.05,16.83,7.99,26.3-65,121.75-184.94,153.37-306.41,153.37Z"/>
  <path class="cls-10" d="m1344.27,2860.31c-124.01,0-230.77-43.4-237.95-46.38-9.91-4.12-14.61-15.49-10.49-25.41,4.12-9.91,15.47-14.62,25.4-10.5h0c2.67,1.1,268.63,108.9,434.8-22.09,8.43-6.66,20.65-5.2,27.29,3.23,6.65,8.43,5.2,20.65-3.23,27.3-71.5,56.36-157.14,73.85-235.82,73.85Z"/>
  <path class="cls-10" d="m1253.05,2324.73c237.08,55.5,354.14,55.83,591.09,0,1.08-.41,2.58.07,2.79,1.36.19.87-.26,1.73-1.02,2.1l-34.73,17.07c-157.44,73.5-328.07,80.2-489.6,15.34-21.22-8.57-49.72-21.95-70.28-32.41-.94-.46-1.33-1.61-.87-2.55.56-1.02,1.6-1.24,2.63-.91h0Z"/>
  <path class="cls-10" d="m1567.92,2489.25c-9.67,0-18.05-7.21-19.27-17.06l-8.41-68.03c-1.32-10.65,6.25-20.36,16.9-21.68,10.65-1.32,20.36,6.25,21.68,16.91l8.41,68.03c1.32,10.65-6.25,20.36-16.9,21.68-.81.1-1.62.15-2.41.15Z"/>
  <path class="cls-10" d="m2073.6,1854.96c-17.88-152.84-50.11-305.71-105.48-449.77,16.82,34.95,32.77,70.48,46.73,106.83,42.26,109.54,74.3,222.19,97.24,337.54,4.13,26.61-35.05,32.29-38.5,5.41h0Z"/>
  <path class="cls-10" d="m1524.49,2110.25l-7.41-189.3c-.78-19.97,7.46-38.91,22.61-51.95l56.1-48.26c5.94-5.11,9.27-12.53,9.14-20.36l-2.88-173.74,38.87-.64,2.88,173.73c.33,19.41-7.93,37.81-22.66,50.48l-56.1,48.26c-6.11,5.26-9.44,12.9-9.12,20.96l7.41,189.3-38.85,1.52Z"/>
  <ellipse class="cls-9" cx="1382.16" cy="1829.58" rx="77.75" ry="81.4"/>
  <path class="cls-10" d="m1382.16,1930.42c-53.59,0-97.19-45.23-97.19-100.83s43.6-100.83,97.19-100.83,97.19,45.23,97.19,100.83-43.6,100.83-97.19,100.83Zm0-162.79c-32.15,0-58.32,27.79-58.32,61.96s26.16,61.96,58.32,61.96,58.31-27.79,58.31-61.96-26.16-61.96-58.31-61.96Z"/>
  <path class="cls-10" d="m1862.63,1818.71c-10.07,0-18.59-7.77-19.37-17.98-.81-10.71,7.22-20.03,17.92-20.84l210.76-15.85c10.75-.83,20.03,7.22,20.84,17.92.81,10.71-7.22,20.04-17.92,20.84l-210.76,15.85c-.5.04-.99.06-1.48.06Z"/>
  <path class="cls-10" d="m2092.87,1970.51h-223.12c-10.74,0-19.44-8.7-19.44-19.44s8.7-19.44,19.44-19.44h223.12c10.74,0,19.44,8.7,19.44,19.44s-8.65,19.39-19.35,19.44h-.09Z"/>
  <path class="cls-10" d="m1234.35,2046.64h-122.3c-10.74,0-19.44-8.7-19.44-19.44s8.7-19.44,19.44-19.44h122.3c10.74,0,19.44,8.7,19.44,19.44s-8.7,19.44-19.44,19.44Z"/>
  <path class="cls-10" d="m1088.16,1454.19c-20.16,50.59-31.54,104.22-38.21,158.03-5.2,41.25-6.41,83.67-5.13,125.15,0,0-38.86-1.14-38.86-1.14,2.72-24.74,5.67-49.4,10.46-73.79,13.73-72.15,35.95-143.98,71.74-208.25h0Z"/>
  <g class="cls-6">
    <path class="cls-10" d="m1867.66,2018.96c-1.51,27.26-20.9,50.05-47.57,55.93-171.2,37.61-345.7,46.16-523.12,28.57-26.68-2.62-48.5-22.79-53.11-49.18-3.5-19.78-6.66-39.75-9.48-59.87,314.89,72.41,530.46-13.51,597.22-336.71,7.29,7.97,12.49,17.93,14.68,29.11,11.81,60.21,29.59,180.82,21.38,332.14Z"/>
  </g>
  <g class="cls-6">
    <path class="cls-10" d="m2190.04,3157.81c-8.6,10.11-19.24,18.95-29.79,26.34-24.05,16.81-52.82,25.51-82.12,25.51h-329.42c-21.92,0-41.01-15.26-45.48-36.74-7.39-35.38-10.98-89.51,20.26-130.96.92,2.14,1.75,4.42,2.48,6.9,21.87,74.88,208.96,92.91,311,27.16,102.05-65.75,7.29-400.9-16.42-575.84-23.76-174.94-107.49-201.67-107.49-201.67,45.85-70.79,73.68-156.95,89.49-247.09,4.2-23.92-13.53-46.13-37.76-47.63l-40.79-2.53s21.87,37.27-29.16,101.66c-51.02,64.39-352.31,66.82-462.86,64.39s-127.56-57.83-127.56-57.83c0,0,86.26,8.02,102.05,2.72,15.79-5.25,343.81-10.5,403.33-28.33,59.53-17.79,59.97-76.92,59.97-76.92l5.64-121.97h95.85c27,0,49.08-21.75,49.26-48.75,1.4-211.08-37.94-394.37-39.12-399.97,40.09,99.81,76.49,232.33,111.48,377.14l23.86,51.71c-7.82-4.03-15.74-8.31-23.86-12.83,0,0,21.04,281.85,1.6,443.81-19.44,161.96,103.7,745.1,103.7,745.1,0,0,19.44,84.26-8.12,116.63Z"/>
  </g>
  <g class="cls-6">
    <path class="cls-10" d="m1577.26,3129.14c1.51,43.98-33.68,80.52-77.75,80.52h-431.28c-24.05,0-44.61-16.91-49.61-40.38-8.6-40.28-11.03-102.29,37.13-145.78,3.01,7.78,5.35,16.23,6.9,25.37,21.87,128.34,157.93,93.11,245.4,92.91,87.47-.19,116.63-175.09,99.62-391.33-17.01-216.24-68.52-386.33-68.52-386.33l65.26,5.69,155.11,25.07s3.11,37.27,8.12,95.97c-2.77,188.11,1.55,405.42,9.62,638.29Z"/>
  </g>
  <g class="cls-6">
    <path class="cls-10" d="m1783.06,2995.85l-40.04,14.77c-.24-35.57-5.15-149.19-55.11-230.19-51.51-83.53-103.02-256.77-116.48-303.81l-.19-.63v-.05l-7.48-87.52h78.38l100.83-24.3s-75.32,75.32-19.44,269.7c55.88,194.38,59.53,362.03,59.53,362.03Z"/>
  </g>
  <g class="cls-6">
    <path class="cls-10" d="m2634.68,1342.47s65.6,92.72-14.58,187.48c-80.18,94.76-128.78,82.61-128.78,82.61-22.26,242.63-107.73,383.99-355.57,264.94,0-.05-.05-.05-.1-.1-25.66-20.36-42.81-34.45-42.81-34.45l-19.44-97.09-21.19-91.16c1.85,3.89,72.7,152.25,173.43,93.5,102.05-59.53,140.92-257.16,140.92-257.16,107.25,74.35,173.34,43.4,183.06-131.59,0,0,87.47-57.92,79.35-119.45-.34-2.77-.44-5.44-.24-8.07,27.6,7.92,43.64,36.93,36.74,65.75-4.08,17.25-14.19,32.27-30.81,44.8Z"/>
  </g>
  <g class="cls-6">
    <path class="cls-10" d="m863.84,1657.7s93.99,48.75,206.33-161c0,0-41.54,143.36-36.68,206.54,4.86,63.17-54.26,33.57-54.26,33.57l-89.68-16.56"/>
  </g>
</svg>