<?xml version="1.0" encoding="UTF-8"?>
<svg id="Layer_1" data-name="Layer 1" xmlns="http://www.w3.org/2000/svg" viewBox="0 0 3254.9 2752.84">
  <defs>
    <style>
      .cls-1 {
        fill: #fff;
      }

      .cls-2 {
        fill: #111a28;
      }

      .cls-3 {
        fill: #fac611;
      }

      .cls-4 {
        opacity: .35;
      }

      .cls-4, .cls-5, .cls-6, .cls-7, .cls-8 {
        fill: none;
      }

      .cls-5 {
        opacity: .3;
      }

      .cls-6 {
        opacity: .5;
      }

      .cls-9 {
        fill: #371b45;
      }

      .cls-7 {
        opacity: .2;
      }

      .cls-8 {
        opacity: .7;
      }

      .cls-10 {
        fill: #4e9de5;
      }
    </style>
  </defs>
  <g class="cls-7">
    <path class="cls-9" d="m2362.46,2670.77c0,45.32-339.47,82.07-758.23,82.07s-758.23-36.75-758.23-82.07,339.47-82.08,758.23-82.08,758.23,36.75,758.23,82.08"/>
  </g>
  <path class="cls-1" d="m1964.04,2056.31h-733.16c-88.47,0-160.19-71.72-160.19-160.19v-614.49c0-88.47,71.72-160.18,160.19-160.18h733.16c88.47,0,160.19,71.72,160.19,160.18v614.49c0,88.47-71.72,160.19-160.19,160.19"/>
  <g class="cls-4">
    <path class="cls-9" d="m2092.78,1885.94v-175.02c-28.01,44.25-77.36,73.65-133.61,73.65h-723.4c-56.25,0-105.6-29.4-133.61-73.65v175.02c0,78.68,63.78,142.46,142.46,142.46h705.71c78.68,0,142.46-63.78,142.46-142.46"/>
  </g>
  <path class="cls-9" d="m1964.04,2073.35h-733.16c-97.73,0-177.23-79.5-177.23-177.23v-614.49c0-97.72,79.5-177.23,177.23-177.23h733.16c97.73,0,177.23,79.5,177.23,177.23v614.49c0,97.73-79.5,177.23-177.23,177.23Zm-733.16-934.86c-78.93,0-143.14,64.21-143.14,143.14v614.49c0,78.93,64.22,143.14,143.14,143.14h733.16c78.93,0,143.14-64.22,143.14-143.14v-614.49c0-78.93-64.22-143.14-143.14-143.14h-733.16Z"/>
  <path class="cls-1" d="m2695.49,1474.2s-227.05,97.02-640.85,111.69c0,0,49.43,529.17-20.1,869.71,0,0,140.96,55.54,101.9,171.52-28.41,84.37-230.01,79.16-359.8,66.66-64.03-6.26-114.17-57.83-118.18-122.01-7.97-127.16-16.18-339.5,4.35-486.05,0,0-28.65,8.55-65.89,8.55s-64.13-8.02-65.8-8.45c-.04-.1-.1-.1-.1-.1,20.58,146.55,12.32,358.89,4.39,486.05-4.06,64.18-54.2,115.75-118.23,122.01-129.78,12.51-331.38,17.72-359.8-66.66-12.17-36.25-6.83-66.56,6.36-91.16,28.93-54.1,95.54-80.36,95.54-80.36-2.82-13.8-5.44-27.89-7.83-42.25-57.83-340.27-12.28-827.46-12.28-827.46-413.8-14.66-640.85-111.69-640.85-111.69-56.77-219.7,161.16-238.04,161.16-238.04,176.15-3.53,355.59-9.78,509.69-16.09,246.24-10.12,427.74-20.48,427.74-20.48,0,0,184.41,10.55,433.66,20.72,152.75,6.26,329.86,12.37,503.81,15.85,0,0,217.89,18.34,161.11,238.04"/>
  <g class="cls-4">
    <path class="cls-9" d="m1535.41,2571.76c-4.06,64.21-54.2,115.79-118.25,122.01-129.75,12.53-331.38,17.72-359.79-66.63-12.18-36.27-6.83-66.58,6.37-91.18-.26,3.85-4.83,106.02,201.16,116.82,209.94,10.99,225.82-65.35,230.7-116.92,0,0,11.8-138.39,9.47-268.09-1.28-71.03-42.72-134.6-106.19-166.51-27.77-13.96-56.13-32.5-76.93-56.34-9.69-11.12,2.91-27.43,16.11-20.84,35.47,17.72,95.98,41.34,192.93,61.68,20.6,146.5,12.33,358.87,4.42,486"/>
  </g>
  <g class="cls-4">
    <path class="cls-9" d="m1658.39,2571.76c4.06,64.21,54.2,115.79,118.25,122.01,129.76,12.53,331.39,17.72,359.79-66.63,12.18-36.27,6.84-66.58-6.37-91.18.26,3.85,4.83,106.02-201.16,116.82-209.94,10.99-225.82-65.35-230.69-116.92,0,0-11.8-138.39-9.47-268.09,1.28-71.03,42.72-134.6,106.19-166.51,27.77-13.96,56.14-32.5,76.92-56.34,9.69-11.12-2.91-27.43-16.11-20.84-35.47,17.72-95.98,41.34-192.92,61.68-20.6,146.5-12.33,358.87-4.42,486"/>
  </g>
  <g class="cls-4">
    <path class="cls-9" d="m1436.99,2578.28c-61.96-204.14-277.7-122.66-277.7-122.66-2.83-13.82-5.44-27.9-7.86-42.28,33.8-8.63,78.13-13.61,135-8.99,168.29,13.71,150.57,173.93,150.57,173.93"/>
  </g>
  <g class="cls-4">
    <path class="cls-9" d="m1756.81,2578.28c61.96-204.14,277.7-122.66,277.7-122.66,2.83-13.82,5.45-27.9,7.86-42.28-33.8-8.63-78.14-13.61-135-8.99-168.28,13.71-150.56,173.93-150.56,173.93"/>
  </g>
  <path class="cls-9" d="m1153.11,2441.73c4.25-1.8,7.66-3.08,11.44-4.37,3.69-1.32,7.4-2.42,11.12-3.49,3.71-1.07,7.46-1.96,11.19-2.94l11.28-2.45c15.07-3.04,30.43-4.55,45.8-4.83,30.74-.84,61.78,4.2,90.62,14.98,3.65,1.11,7.2,2.96,10.77,4.53,3.55,1.65,7.14,3.21,10.6,5.02l10.07,6.06c1.66,1.05,3.38,1.96,4.97,3.11l4.69,3.55c12.75,9.04,23.63,20.5,32.8,32.85,9.2,12.37,16.36,26.06,21.47,40.29,5.06,14.26,8.36,28.98,8.84,44.03.03.98-.74,1.81-1.72,1.83-.82.03-1.51-.49-1.75-1.22l-.05-.16c-8.86-27.38-22.59-52.89-41.05-73.27-9.26-10.12-19.34-19.44-30.94-26.46l-4.23-2.78c-1.43-.9-3-1.57-4.49-2.36l-9-4.61c-3.09-1.36-6.32-2.42-9.44-3.69-3.17-1.17-6.18-2.6-9.58-3.4-26.35-7.92-53.96-11.37-81.46-9.56-13.73.86-27.42,2.7-40.9,5.52l-10.05,2.35c-3.29.94-6.64,1.77-9.9,2.77-3.26,1.02-6.52,2.02-9.71,3.12-3.13,1.04-6.54,2.34-9,3.35l-.64.26c-7.76,3.2-16.65-.49-19.85-8.26-3.18-7.71.45-16.54,8.11-19.79"/>
  <path class="cls-9" d="m1124.03,1584.4c2.38-21.24,5.2-42.22,8.58-63.21,3.28-20.99,6.83-41.94,10.95-62.82,4.09-20.87,8.49-41.7,13.82-62.37,5.44-20.61,11.71-41.22,21.25-60.59.44-.91,1.55-1.28,2.45-.83.74.36,1.12,1.17,1,1.94-3.22,20.96-5.62,41.81-8.32,62.65-2.7,20.83-5.23,41.7-7.36,62.63-2.15,20.93-4.35,41.86-6.28,62.82l-5.83,62.77v.1c-.79,8.36-8.2,14.51-16.56,13.74-8.37-.78-14.52-8.18-13.74-16.55,0-.08.02-.22.03-.3"/>
  <path class="cls-9" d="m1351.6,2293.95c-120.65,0-218.1-27.92-224.2-29.71-8.06-2.36-12.68-10.8-10.33-18.86,2.36-8.06,10.78-12.67,18.86-10.33,2.18.64,219.8,62.84,402.19.21,7.94-2.72,16.59,1.51,19.32,9.45,2.73,7.94-1.5,16.59-9.44,19.32-65.36,22.45-134,29.92-196.41,29.92Z"/>
  <path class="cls-9" d="m1529.31,2100.88c-9.02-.96-17.1-2.44-25.51-4.01-8.32-1.58-16.58-3.33-24.76-5.41-16.37-4.05-32.57-8.7-48.46-14.21-15.92-5.39-31.61-11.47-47-18.14-15.36-6.73-30.2-14.85-43.67-25.42-1.4-1.1-1.65-3.13-.54-4.54.73-.92,1.86-1.34,2.95-1.2h.13c8.5,1.11,16.52,3.16,24.55,5.07,8.05,1.88,15.85,4.26,23.75,6.4,15.59,4.78,31.41,8.74,47.16,12.71,15.79,3.88,31.65,7.27,47.53,10.42l23.8,4.45c7.84,1.34,16.05,2.6,23.44,3.65l.41.06c8.31,1.19,14.09,8.89,12.9,17.2-1.16,8.13-8.58,13.83-16.67,12.97"/>
  <path class="cls-9" d="m2028.33,2469.51c-2.47-1.02-5.87-2.32-9-3.35-3.19-1.1-6.45-2.1-9.71-3.12-3.27-1-6.61-1.84-9.9-2.78l-10.05-2.35c-13.48-2.82-27.17-4.66-40.9-5.52-27.5-1.81-55.11,1.64-81.47,9.56-3.4.8-6.4,2.23-9.57,3.4-3.12,1.27-6.35,2.33-9.44,3.69l-9,4.61c-1.48.8-3.06,1.47-4.49,2.36l-4.23,2.78c-11.6,7.02-21.68,16.34-30.94,26.46-18.46,20.38-32.19,45.89-41.05,73.27l-.05.15c-.3.94-1.3,1.45-2.24,1.15-.77-.25-1.25-.98-1.23-1.76.49-15.04,3.78-29.77,8.84-44.03,5.1-14.23,12.27-27.91,21.47-40.29,9.17-12.34,20.04-23.8,32.8-32.85l4.69-3.54c1.59-1.15,3.31-2.07,4.97-3.11l10.07-6.07c3.46-1.81,7.05-3.37,10.6-5.02,3.57-1.57,7.11-3.41,10.77-4.53,28.83-10.79,59.87-15.82,90.61-14.98,15.38.28,30.73,1.79,45.81,4.82l11.27,2.45c3.73.98,7.48,1.87,11.19,2.94,3.72,1.07,7.43,2.17,11.11,3.5,3.78,1.29,7.2,2.56,11.45,4.37,7.73,3.28,11.34,12.2,8.05,19.93-3.25,7.68-12.09,11.29-19.78,8.12l-.64-.27Z"/>
  <path class="cls-9" d="m2039.52,1587.4l-5.83-62.77c-1.92-20.96-4.13-41.88-6.28-62.82-2.13-20.94-4.67-41.81-7.36-62.63-2.7-20.85-5.1-41.7-8.32-62.65-.16-1,.51-1.94,1.51-2.11.81-.14,1.59.3,1.95,1,9.54,19.37,15.81,39.98,21.25,60.59,5.33,20.67,9.74,41.5,13.82,62.37,4.13,20.88,7.67,41.82,10.95,62.82,3.38,21,6.19,41.97,8.58,63.21.94,8.35-5.07,15.87-13.42,16.81-8.35.94-15.87-5.07-16.81-13.42,0-.07-.02-.14-.02-.21l-.02-.18Z"/>
  <path class="cls-9" d="m1842.21,2293.95c-62.42,0-131.04-7.47-196.41-29.92-7.95-2.73-12.17-11.38-9.44-19.32,2.72-7.95,11.36-12.18,19.32-9.45,182.4,62.63,400.01.42,402.19-.21,8.07-2.34,16.51,2.27,18.86,10.33,2.35,8.06-2.26,16.5-10.33,18.86-6.1,1.78-103.57,29.71-224.2,29.71Z"/>
  <path class="cls-9" d="m1661.14,2070.65c7.38-1.06,15.6-2.31,23.44-3.65l23.81-4.45c15.87-3.15,31.73-6.54,47.52-10.42,15.75-3.97,31.57-7.92,47.16-12.71,7.89-2.14,15.7-4.52,23.75-6.4,8.04-1.91,16.05-3.96,24.55-5.06h.13c1.77-.24,3.39,1,3.61,2.77.15,1.17-.35,2.27-1.21,2.95-13.47,10.57-28.31,18.69-43.67,25.42-15.39,6.67-31.08,12.75-47,18.14-15.89,5.51-32.09,10.15-48.46,14.21-8.17,2.08-16.44,3.82-24.76,5.41-8.41,1.57-16.5,3.05-25.51,4.01-8.35.89-15.84-5.15-16.74-13.5-.87-8.16,4.88-15.5,12.94-16.66l.43-.06Z"/>
  <path class="cls-9" d="m1661.14,2070.65c7.38-1.06,15.6-2.31,23.44-3.65l23.81-4.45c15.87-3.15,31.73-6.54,47.52-10.42,15.75-3.97,31.57-7.92,47.16-12.71,7.89-2.14,15.7-4.52,23.75-6.4,8.04-1.91,16.05-3.96,24.55-5.06h.13c1.77-.24,3.39,1,3.61,2.77.15,1.17-.35,2.27-1.21,2.95-13.47,10.57-28.31,18.69-43.67,25.42-15.39,6.67-31.08,12.75-47,18.14-15.89,5.51-32.09,10.15-48.46,14.21-8.17,2.08-16.44,3.82-24.76,5.41-8.41,1.57-16.5,3.05-25.51,4.01-8.35.89-15.84-5.15-16.74-13.5-.87-8.16,4.88-15.5,12.94-16.66l.43-.06Z"/>
  <path class="cls-9" d="m874.14,1578.81c-2.23,0-4.49-.49-6.62-1.53-7.56-3.66-10.72-12.76-7.05-20.31,81-167.17,14.1-318.87,13.42-320.38-3.46-7.64-.08-16.65,7.56-20.13,7.64-3.47,16.64-.11,20.12,7.52,3.05,6.68,73.71,165.79-13.73,346.25-2.63,5.43-8.05,8.58-13.69,8.58Z"/>
  <path class="cls-9" d="m2319.67,1578.81c-5.65,0-11.07-3.15-13.69-8.58-87.44-180.46-16.78-339.57-13.73-346.25,3.49-7.64,12.5-11.02,20.15-7.52,7.63,3.49,11,12.49,7.53,20.13-.7,1.55-67.57,153.23,13.42,320.38,3.67,7.56.51,16.65-7.05,20.31-2.14,1.04-4.39,1.53-6.62,1.53Z"/>
  <path class="cls-9" d="m1910.27,2716.05c-44.97,0-91.47-2.94-135.1-7.17-71.95-6.98-127.43-64.25-131.93-136.19-7.03-112.56-15.74-318.2,1.75-467.42-12.42,2.17-29.2,4.24-48.08,4.24s-35.66-2.07-48.08-4.24c17.48,149.22,8.78,354.86,1.75,467.42-4.49,71.93-59.98,129.21-131.93,136.19-154.53,14.97-345.14,13.78-375.68-76.91-32.14-95.39,45.09-159.92,99.02-185.42-59.16-305.56-26.72-755.9-19.34-846.07-401.74-16.4-621.05-108.34-630.31-112.29-4.34-1.86-7.57-5.62-8.75-10.18-18.28-70.74-11.32-129.47,20.67-174.57,51.83-73.04,149.76-82.07,153.91-82.42.32-.02.64-.04.97-.05,452.2-9.04,932.1-36.32,936.89-36.6.58-.03,1.16-.03,1.74,0,4.8.28,484.69,27.56,936.89,36.6.33,0,.65.02.97.05,4.14.35,102.08,9.37,153.91,82.42,31.99,45.1,38.95,103.83,20.67,174.57-1.18,4.57-4.41,8.33-8.75,10.18-9.25,3.95-228.57,95.89-630.31,112.29,7.38,90.17,39.82,540.51-19.34,846.07,53.93,25.5,131.16,90.03,99.02,185.42-21.92,65.09-126.29,84.08-240.58,84.08Zm-247.46-645.5c3.6,0,7.14,1.28,9.94,3.69,3.91,3.38,5.85,8.51,5.13,13.63-20.75,147.7-11.59,365.97-4.28,482.92,3.55,56.95,47.5,102.29,104.5,107.81,200,19.38,325.33-1.17,343.92-56.35,33.94-100.74-87.89-150.44-93.1-152.5-6.84-2.72-10.78-9.96-9.3-17.18,68.31-334.41,20.38-859.99,19.89-865.26-.39-4.17.96-8.31,3.72-11.46s6.7-5.01,10.89-5.16c366.94-12.98,587.55-91.85,628.48-107.71,13.61-58.19,7.65-105.87-17.74-141.78-41.96-59.34-124.8-69.15-131.38-69.83-443.47-8.88-913.25-35.26-936.57-36.58-23.32,1.32-493.11,27.7-936.58,36.58-6.42.67-89.37,10.44-131.37,69.83-25.39,35.92-31.36,83.58-17.74,141.77,40.98,15.84,262.06,94.75,628.48,107.72,4.18.15,8.12,2.01,10.89,5.16s4.11,7.29,3.72,11.46c-.49,5.27-48.42,530.86,19.89,865.26,1.48,7.23-2.45,14.48-9.33,17.19-5.18,2.06-127.01,51.76-93.08,152.5,18.59,55.19,143.94,75.73,343.92,56.35,57-5.53,100.94-50.87,104.5-107.81,7.31-116.95,16.47-335.22-4.28-482.92-.72-5.13,1.21-10.27,5.14-13.65,3.92-3.37,9.3-4.52,14.26-3.05.25.07,27.22,7.91,61.57,7.91s61.32-7.84,61.59-7.92c1.42-.42,2.87-.62,4.31-.62Z"/>
  <g class="cls-4">
    <path class="cls-9" d="m2030.57,1220.31c-107.39,86.86-241.9,142.15-390.26,150.89-177.4,10.46-343.04-47.51-471.15-151.13,246.24-10.12,427.75-20.48,427.75-20.48,0,0,184.41,10.55,433.66,20.72"/>
  </g>
  <path class="cls-1" d="m2054,1794.49h-906.68c-24.63,0-44.59-19.96-44.59-44.59v-25.05c0-24.63,19.96-44.59,44.59-44.59h906.68c24.63,0,44.59,19.96,44.59,44.59v25.05c0,24.63-19.96,44.59-44.59,44.59"/>
  <g class="cls-4">
    <path class="cls-9" d="m2054,1739.91h-906.68c-19.44,0-35.94-12.47-42.04-29.83-1.62,4.63-2.55,9.58-2.55,14.76v25.05c0,24.63,19.96,44.59,44.59,44.59h906.68c24.63,0,44.59-19.96,44.59-44.59v-25.05c0-5.19-.93-10.14-2.55-14.76-6.1,17.36-22.6,29.83-42.04,29.83"/>
  </g>
  <path class="cls-9" d="m2047.93,1809.71h-906.68c-32.98,0-59.8-26.83-59.8-59.81v-25.05c0-32.98,26.83-59.8,59.8-59.8h906.68c32.98,0,59.81,26.83,59.81,59.8v25.05c0,32.98-26.83,59.81-59.81,59.81Zm-906.68-114.24c-16.2,0-29.38,13.18-29.38,29.38v25.05c0,16.21,13.18,29.39,29.38,29.39h906.68c16.2,0,29.39-13.18,29.39-29.39v-25.05c0-16.2-13.18-29.38-29.39-29.38h-906.68Z"/>
  <path class="cls-1" d="m1812.74,1941.95h-427.65c-54.5,0-98.69-44.19-98.69-98.69v-211.77c0-54.5,44.18-98.69,98.69-98.69h427.65c54.5,0,98.69,44.19,98.69,98.69v211.77c0,54.5-44.18,98.69-98.69,98.69"/>
  <path class="cls-9" d="m1517.31,1956.41c-7.99,0-14.46-6.47-14.46-14.46v-186.4h-66.76c-7.99,0-14.46-6.47-14.46-14.46v-208.28c0-7.99,6.47-14.46,14.46-14.46s14.46,6.47,14.46,14.46v193.82h66.76c7.99,0,14.46,6.47,14.46,14.46v200.87c0,7.99-6.47,14.46-14.46,14.46Z"/>
  <g class="cls-4">
    <path class="cls-9" d="m1802.3,1776.21h-406.75c-29.6,0-55.95-13.73-73.15-35.12v92.85c0,40.27,32.65,72.92,72.92,72.92h407.22c40.27,0,72.91-32.65,72.91-72.92v-92.85c-17.2,21.4-43.56,35.12-73.15,35.12"/>
  </g>
  <path class="cls-10" d="m1807.27,1741.08c0,36.91-29.93,66.83-66.83,66.83s-66.83-29.92-66.83-66.83,29.92-66.83,66.83-66.83,66.83,29.92,66.83,66.83"/>
  <g class="cls-4">
    <path class="cls-9" d="m1740.44,1766.82c-29.74,0-54.91-19.43-63.58-46.28-2.1,6.47-3.25,13.37-3.25,20.54,0,36.92,29.92,66.83,66.83,66.83s66.83-29.92,66.83-66.83c0-7.17-1.16-14.07-3.26-20.54-8.67,26.85-33.84,46.28-63.57,46.28"/>
  </g>
  <g class="cls-8">
    <path class="cls-1" d="m1740.44,1705.07c31.6,0,58,21.96,64.97,51.42,1.18-4.96,1.86-10.1,1.86-15.41,0-36.91-29.92-66.83-66.83-66.83s-66.83,29.93-66.83,66.83c0,5.31.68,10.45,1.86,15.41,6.97-29.47,33.38-51.42,64.97-51.42"/>
  </g>
  <path class="cls-9" d="m1740.43,1822.38c-44.83,0-81.29-36.47-81.29-81.29s36.47-81.3,81.29-81.3,81.3,36.47,81.3,81.3-36.47,81.29-81.3,81.29Zm0-133.66c-28.88,0-52.36,23.49-52.36,52.37s23.49,52.36,52.36,52.36,52.37-23.49,52.37-52.36-23.49-52.37-52.37-52.37Z"/>
  <path class="cls-9" d="m1812.74,1956.41h-427.65c-62.39,0-113.15-50.76-113.15-113.15v-211.77c0-62.39,50.76-113.16,113.15-113.16h427.65c62.39,0,113.15,50.76,113.15,113.16v211.77c0,62.39-50.76,113.15-113.15,113.15Zm-427.65-409.15c-46.44,0-84.22,37.78-84.22,84.23v211.77c0,46.44,37.78,84.22,84.22,84.22h427.65c46.44,0,84.22-37.78,84.22-84.22v-211.77c0-46.45-37.78-84.23-84.22-84.23h-427.65Z"/>
  <path class="cls-1" d="m977.23,538.52h0c8.49-1,16.15,4.75,17.1,12.84l49.52,421.93c.95,8.09-5.17,15.46-13.66,16.46-89.13,10.49-169.45-49.8-179.41-134.67l-16.89-143.88c-9.96-84.87,54.22-162.18,143.34-172.67"/>
  <path class="cls-9" d="m1009.92,994.12c-36.66,0-71.92-11.56-101.03-33.41-34.59-25.96-56.35-63.35-61.27-105.27l-16.89-143.88c-10.15-86.48,55.41-165.52,146.13-176.2h0c4.93-.59,9.77.71,13.67,3.62,3.93,2.95,6.41,7.22,6.97,12l49.52,421.93c1.16,9.81-6.23,18.78-16.45,19.99-6.91.81-13.8,1.22-20.64,1.22Zm-32.32-452.45c-87.23,10.28-150.28,86.15-140.55,169.14l16.89,143.88c4.71,40.17,25.58,76.01,58.77,100.93,33.22,24.94,74.78,35.92,117.11,30.96,6.74-.8,11.62-6.6,10.88-12.93l-49.52-421.93c-.36-3.04-1.95-5.75-4.47-7.65-2.57-1.93-5.8-2.78-9.1-2.4h0Z"/>
  <g class="cls-4">
    <path class="cls-9" d="m1030.15,856.23l13.72,117.05c.95,8.08-5.2,15.45-13.69,16.46-46.78,5.49-91.18-8.49-124.23-35.34-29.84-24.25-50.41-59.02-55.16-99.32l-7.12-60.62c31.54,50.21,92.26,80.63,157.6,72.95l16.17-1.91c5.9-.71,10.55-4.41,12.7-9.28"/>
  </g>
  <path class="cls-9" d="m1009.91,1006.15c-39.25,0-77.03-12.39-108.24-35.82-37.25-27.96-60.69-68.27-65.99-113.49l-16.89-143.88c-10.92-93.06,59.36-178.09,156.66-189.55h0c7.98-.93,15.92,1.17,22.28,5.95,6.6,4.95,10.75,12.13,11.7,20.23l49.52,421.92c1.93,16.4-10.17,31.35-26.98,33.34-7.38.87-14.75,1.3-22.06,1.3Zm-32.68-467.63l1.78,15.1c-80.65,9.5-138.98,79.39-130.02,155.8l16.89,143.88c4.33,36.88,23.52,69.8,54.05,92.71,30.75,23.08,69.28,33.25,108.48,28.64.17-.05.25-.03.29.03l-49.47-421.54c.03.28.19.51.25.57l-2.25-15.18Z"/>
  <path class="cls-1" d="m2180.96,429.64h0c-8.54.54-15.04,7.57-14.52,15.7l26.99,423.97c.52,8.13,7.86,14.28,16.4,13.74,89.56-5.67,157.76-79.4,152.33-164.68l-9.2-144.58c-5.43-85.28-82.44-149.82-172-144.15"/>
  <path class="cls-9" d="m2208.79,886.26c-9.74,0-17.93-7.29-18.54-16.76l-26.99-423.97c-.31-4.81,1.36-9.44,4.7-13.06,3.3-3.57,7.84-5.7,12.79-6.02,91.1-5.78,169.84,60.23,175.37,147.13l9.2,144.58c2.69,42.12-12.01,82.8-41.38,114.56-29.33,31.71-69.79,50.71-113.92,53.5-.41.02-.83.04-1.24.04Zm-16.94-453.78c-3.54,0-7.1.11-10.69.34h0c-3.31.2-6.33,1.62-8.52,3.98-2.15,2.32-3.22,5.27-3.03,8.33l26.99,423.97c.41,6.36,6.23,11.27,13.03,10.76,42.5-2.69,81.43-20.96,109.65-51.47,28.17-30.45,42.27-69.46,39.7-109.83l-9.2-144.58c-5.09-79.98-74.89-141.51-157.93-141.51Zm-10.89-2.84h.05-.05Z"/>
  <g class="cls-4">
    <path class="cls-9" d="m2185.91,751.69l7.5,117.62c.51,8.12,7.9,14.27,16.43,13.74,47.01-3,88.18-24.72,115.86-57.06,25.01-29.21,39.02-67.11,36.44-107.6l-3.87-60.92c-22.02,55.06-76.3,95.88-141.96,100.05l-16.25,1.03c-5.93.36-11.17-2.44-14.16-6.86"/>
  </g>
  <path class="cls-9" d="m2208.78,898.28c-16.02,0-29.51-12.18-30.53-28.01l-26.99-423.98c-.52-8.13,2.28-15.93,7.87-21.99,5.41-5.85,12.82-9.35,20.87-9.85,97.65-6.29,182.17,64.85,188.13,158.36l9.2,144.58c2.9,45.44-12.93,89.3-44.55,123.49-31.43,33.98-74.76,54.35-121.99,57.33-.67.04-1.35.06-2.01.06Zm-27.13-453.42l26.92,422.89c39.81-2.43,75.81-19.34,101.88-47.52,25.92-28.02,38.89-63.85,36.53-100.9l-9.2-144.58c-4.88-76.78-74.73-135.06-155.86-129.94h0c-.11,0-.2.03-.26.05Zm-.69-15.23h.05-.05Z"/>
  <path class="cls-1" d="m2235.81,649.39c20.7,351.16-247.19,652.61-598.35,673.32-351.16,20.7-652.61-247.18-673.31-598.34-20.7-351.16,247.18-652.61,598.34-673.32,351.16-20.7,652.62,247.18,673.32,598.34"/>
  <path class="cls-9" d="m1599.12,1326.56c-156.66,0-305.97-56.61-424.05-161.54-127.72-113.49-203.59-269.94-213.64-440.5-10.06-170.57,46.91-334.84,160.4-462.56,113.49-127.72,269.93-203.59,440.5-213.65,351.98-20.76,655.45,248.8,676.21,600.9,20.75,352.1-248.82,655.45-600.91,676.21-12.87.76-25.72,1.14-38.5,1.14Zm1.26-1273.91c-12.52,0-25.08.37-37.73,1.11-349.09,20.58-616.35,321.34-595.77,670.43,9.97,169.11,85.2,324.21,211.82,436.74,126.63,112.53,289.53,168.99,458.6,159.04,349.09-20.58,616.36-321.34,595.79-670.43-19.84-336.44-299.93-596.89-632.71-596.89Z"/>
  <g class="cls-4">
    <path class="cls-9" d="m2224.52,561.73c5.74,28.51,9.53,57.77,11.29,87.66,20.66,351.15-247.22,652.6-598.36,673.34-351.15,20.65-652.6-247.22-673.34-598.36-.6-10.1-.96-20.22-1.06-30.2,61.12,306.99,340.74,529.63,662.04,510.7,341.05-20.13,603.5-305.04,599.43-643.13"/>
  </g>
  <path class="cls-9" d="m1599.1,1339.05c-159.71,0-311.94-57.71-432.33-164.7-130.21-115.71-207.56-275.2-217.81-449.09-21.17-358.97,253.65-668.24,612.62-689.4,359.01-21.16,668.24,253.66,689.4,612.62h0c21.16,358.97-253.67,668.24-612.63,689.4-13.12.78-26.22,1.16-39.25,1.16Zm1.27-1273.91c-12.28,0-24.59.36-36.99,1.09-342.23,20.18-604.23,315.02-584.05,657.24,9.77,165.78,83.52,317.83,207.65,428.15,124.14,110.31,283.87,165.66,449.58,155.91,342.2-20.18,604.2-315.04,584.07-657.24h0c-19.45-329.82-294.03-585.15-620.25-585.15Z"/>
  <path class="cls-9" d="m2234.73,665.84c9.22,124.3-22.58,242.69-84.51,343.28-46.43,75.42-249.81,216.46-512.24,238.28-243.33,20.24-474.5-93.16-531.53-160.9-76.08-90.36-124.99-202.77-134.2-327.07-24.39-328.93,248.11-486.23,596.75-512.08,348.64-25.85,641.35,89.56,665.74,418.49"/>
  <g class="cls-4">
    <path class="cls-2" d="m2089.21,368.08c82.63,67.91,135.7,165.64,145.51,297.74,9.22,124.32-22.6,242.71-84.48,343.3-46.44,75.42-249.84,216.46-512.27,238.31-92.66,7.73-183.53-3.95-263.73-25.14,322.01-33.74,569.67-206.7,627.24-300.24,78.61-127.67,118.95-277.95,107.24-435.67-3.1-42.15-9.76-81.55-19.51-118.3"/>
  </g>
  <path class="cls-9" d="m999,490.57c-3.12,0-6.27-.96-8.98-2.95-6.47-4.77-8.1-13.66-3.85-20.34,99.15-171.59,308.06-281.27,573.26-300.94,263.36-19.53,485.88,55.06,610.69,204.64,5.08,5.36,5.62,13.77.95,19.78-5.09,6.56-14.5,7.79-21.12,2.84-.98-.73-1.89-1.58-2.67-2.52-118.34-142.36-331.82-213.19-585.59-194.4-255.24,18.93-455.5,123.26-549.43,286.25-.28.49-.59.97-.94,1.43-2.99,4.06-7.62,6.22-12.32,6.22Z"/>
  <g class="cls-6">
    <path class="cls-1" d="m1138.95,944.6s-123.02-309.62,38.45-448.6c161.47-138.99,407.3-156.7,402.72-140.51,0,0-267.22,86.05-357.74,309.05-69.8,171.97-83.43,280.06-83.43,280.06"/>
  </g>
  <path class="cls-3" d="m552.02,769.05c0,149.14-120.9,270.05-270.05,270.05S11.94,918.19,11.94,769.05s120.9-270.05,270.04-270.05,270.05,120.9,270.05,270.05"/>
  <g class="cls-4">
    <path class="cls-9" d="m464.32,569.89c26.14,41.58,41.32,90.75,41.32,143.5,0,149.14-120.9,270.04-270.04,270.04-70.29,0-134.3-26.87-182.34-70.88,47.78,76,132.32,126.55,228.72,126.55,149.14,0,270.05-120.9,270.05-270.05,0-78.84-33.81-149.79-87.7-199.16"/>
  </g>
  <path class="cls-9" d="m295.78,828.78h74.05c5.17,0,9.37,4.19,9.37,9.37v24.94c0,5.17-4.19,9.37-9.37,9.37h-157.7c-5.17,0-9.37-4.19-9.37-9.37v-24.94c0-5.17,4.19-9.37,9.37-9.37h8.38c5.17,0,9.37-4.19,9.37-9.37v-21.23c0-5.17-4.19-9.37-9.37-9.37h-8.38c-5.17,0-9.37-4.19-9.37-9.37v-13.81c0-5.17,4.19-9.37,9.37-9.37h17.75v-1.71c0-18.27,3.86-33.8,11.57-46.54,7.71-12.76,18.78-22.51,33.25-29.27,14.47-6.74,31.97-10.12,52.53-10.12,11.79,0,22.6,1.1,32.41,3.27,6.44,1.44,12.37,3.32,17.79,5.62,4.6,1.96,6.78,7.26,4.99,11.94l-9.88,25.9c-1.85,4.84-7.3,7.31-12.11,5.39-3.38-1.34-6.88-2.4-10.49-3.17-6.76-1.43-13.37-2.13-19.85-2.13-13.9,0-24.64,3.14-32.26,9.42-7.62,6.28-11.42,15.79-11.42,28.55v2.86h55.15c5.17,0,9.37,4.19,9.37,9.37v13.81c0,5.17-4.19,9.37-9.37,9.37h-45.78c-5.17,0-9.37,4.19-9.37,9.37v21.23c0,5.17,4.19,9.37,9.37,9.37Z"/>
  <g class="cls-5">
    <path class="cls-1" d="m95.13,673.96l194.84,304.84s20.1,1.86,65.43-13.36l-218.47-347.74s-25.84,14.42-41.81,56.26"/>
  </g>
  <g class="cls-5">
    <path class="cls-1" d="m179.77,586l226.77,351.66s11.08-8.81,42.06-39.8l-213.29-339.52s-27.18,5.82-55.54,27.65"/>
  </g>
  <g class="cls-8">
    <path class="cls-1" d="m281.98,499c-149.14,0-270.05,120.9-270.05,270.04s120.91,270.05,270.05,270.05,270.05-120.9,270.05-270.05-120.9-270.04-270.05-270.04m12.17,531.96c-137.93,0-249.75-111.82-249.75-249.75s111.82-249.74,249.75-249.74,249.75,111.82,249.75,249.74-111.82,249.75-249.75,249.75"/>
  </g>
  <path class="cls-9" d="m281.98,991.46c-122.64,0-222.42-99.77-222.42-222.42s99.78-222.41,222.42-222.41,222.41,99.77,222.41,222.41-99.77,222.42-222.41,222.42Zm0-419.26c-108.54,0-196.85,88.3-196.85,196.84s88.31,196.84,196.85,196.84,196.84-88.3,196.84-196.84-88.3-196.84-196.84-196.84Z"/>
  <path class="cls-9" d="m281.98,1051.03C126.5,1051.03,0,924.53,0,769.04s126.5-281.98,281.98-281.98,281.98,126.5,281.98,281.98-126.5,281.99-281.98,281.99Zm0-540.09c-142.32,0-258.1,115.78-258.1,258.1s115.78,258.11,258.1,258.11,258.1-115.78,258.1-258.11-115.78-258.1-258.1-258.1Z"/>
  <path class="cls-3" d="m1025.18,499c0,165.17-133.89,299.06-299.06,299.06s-299.06-133.89-299.06-299.06,133.9-299.06,299.06-299.06,299.06,133.89,299.06,299.06"/>
  <g class="cls-4">
    <path class="cls-9" d="m928.05,278.44c28.95,46.05,45.76,100.5,45.76,158.92,0,165.17-133.89,299.06-299.06,299.06-77.85,0-148.72-29.76-201.93-78.51,52.92,84.16,146.55,140.15,253.3,140.15,165.17,0,299.06-133.9,299.06-299.06,0-87.32-37.44-165.88-97.13-220.56"/>
  </g>
  <path class="cls-9" d="m713.67,569.79h90.59c6.33,0,11.46,5.13,11.46,11.46v30.51c0,6.33-5.13,11.46-11.46,11.46h-192.93c-6.33,0-11.46-5.13-11.46-11.46v-30.51c0-6.33,5.13-11.46,11.46-11.46h10.26c6.33,0,11.46-5.13,11.46-11.46v-25.97c0-6.33-5.13-11.46-11.46-11.46h-10.26c-6.33,0-11.46-5.13-11.46-11.46v-16.89c0-6.33,5.13-11.46,11.46-11.46h21.72v-2.1c0-22.35,4.73-41.35,14.16-56.93,9.43-15.61,22.97-27.54,40.68-35.81,17.7-8.25,39.12-12.39,64.27-12.39,14.43,0,27.65,1.34,39.65,4,7.88,1.77,15.13,4.06,21.76,6.88,5.63,2.4,8.29,8.88,6.11,14.6l-12.09,31.68c-2.26,5.93-8.92,8.94-14.82,6.6-4.13-1.64-8.41-2.94-12.84-3.87-8.28-1.75-16.36-2.61-24.29-2.61-17.01,0-30.14,3.84-39.47,11.53-9.32,7.68-13.97,19.32-13.97,34.93v3.49h67.47c6.33,0,11.46,5.13,11.46,11.46v16.89c0,6.33-5.13,11.46-11.46,11.46h-56.01c-6.33,0-11.46,5.13-11.46,11.46v25.97c0,6.33,5.13,11.46,11.46,11.46Z"/>
  <g class="cls-5">
    <path class="cls-1" d="m519.2,393.7l215.77,337.59s22.26,2.06,72.46-14.79l-241.94-385.11s-28.62,15.96-46.29,62.31"/>
  </g>
  <g class="cls-5">
    <path class="cls-1" d="m612.93,296.29l251.15,389.44s12.27-9.76,46.58-44.07l-236.21-376s-30.11,6.45-61.51,30.62"/>
  </g>
  <g class="cls-8">
    <path class="cls-1" d="m726.12,199.94c-165.17,0-299.06,133.89-299.06,299.06s133.9,299.06,299.06,299.06,299.06-133.89,299.06-299.06-133.89-299.06-299.06-299.06m13.48,589.12c-152.75,0-276.58-123.83-276.58-276.58s123.83-276.58,276.58-276.58,276.58,123.83,276.58,276.58-123.83,276.58-276.58,276.58"/>
  </g>
  <path class="cls-9" d="m726.12,745.32c-135.82,0-246.32-110.5-246.32-246.32s110.5-246.32,246.32-246.32,246.31,110.49,246.31,246.32-110.5,246.32-246.31,246.32Zm0-464.31c-120.2,0-218,97.79-218,217.99s97.8,218,218,218,217.99-97.8,217.99-218-97.79-217.99-217.99-217.99Z"/>
  <path class="cls-9" d="m726.12,810c-171.48,0-311-139.52-311-311s139.52-310.99,311-310.99,311,139.51,311,310.99-139.52,311-311,311Zm0-598.12c-158.32,0-287.12,128.8-287.12,287.12s128.8,287.12,287.12,287.12,287.12-128.8,287.12-287.12-128.8-287.12-287.12-287.12Z"/>
  <path class="cls-3" d="m901.13,998c0,165.17-133.89,299.06-299.06,299.06s-299.06-133.89-299.06-299.06,133.9-299.06,299.06-299.06,299.06,133.89,299.06,299.06"/>
  <g class="cls-4">
    <path class="cls-9" d="m804,777.44c28.95,46.05,45.76,100.5,45.76,158.92,0,165.17-133.9,299.06-299.06,299.06-77.84,0-148.72-29.76-201.93-78.51,52.92,84.16,146.55,140.15,253.3,140.15,165.17,0,299.06-133.9,299.06-299.06,0-87.32-37.45-165.88-97.13-220.56"/>
  </g>
  <path class="cls-9" d="m589.93,1068.79h90.59c6.33,0,11.46,5.13,11.46,11.46v30.51c0,6.33-5.13,11.46-11.46,11.46h-192.93c-6.33,0-11.46-5.13-11.46-11.46v-30.51c0-6.33,5.13-11.46,11.46-11.46h10.26c6.33,0,11.46-5.13,11.46-11.46v-25.97c0-6.33-5.13-11.46-11.46-11.46h-10.26c-6.33,0-11.46-5.13-11.46-11.46v-16.89c0-6.33,5.13-11.46,11.46-11.46h21.72v-2.1c0-22.35,4.73-41.35,14.16-56.93,9.43-15.61,22.97-27.54,40.68-35.81,17.7-8.25,39.12-12.39,64.27-12.39,14.43,0,27.65,1.34,39.65,4,7.88,1.77,15.13,4.06,21.76,6.88,5.63,2.4,8.29,8.88,6.11,14.6l-12.09,31.68c-2.26,5.93-8.92,8.94-14.82,6.6-4.13-1.64-8.41-2.94-12.84-3.87-8.28-1.75-16.36-2.61-24.29-2.61-17.01,0-30.14,3.84-39.47,11.53-9.32,7.68-13.97,19.32-13.97,34.93v3.49h67.47c6.33,0,11.46,5.13,11.46,11.46v16.89c0,6.33-5.13,11.46-11.46,11.46h-56.01c-6.33,0-11.46,5.13-11.46,11.46v25.97c0,6.33,5.13,11.46,11.46,11.46Z"/>
  <g class="cls-5">
    <path class="cls-1" d="m395.15,892.7l215.77,337.6s22.26,2.06,72.47-14.79l-241.94-385.11s-28.62,15.96-46.29,62.31"/>
  </g>
  <g class="cls-5">
    <path class="cls-1" d="m488.88,795.29l251.14,389.44s12.27-9.76,46.58-44.07l-236.22-376s-30.1,6.45-61.51,30.62"/>
  </g>
  <g class="cls-8">
    <path class="cls-1" d="m602.07,698.94c-165.17,0-299.06,133.9-299.06,299.06s133.89,299.06,299.06,299.06,299.06-133.9,299.06-299.06-133.89-299.06-299.06-299.06m13.48,589.12c-152.75,0-276.58-123.83-276.58-276.58s123.83-276.58,276.58-276.58,276.58,123.83,276.58,276.58-123.83,276.58-276.58,276.58"/>
  </g>
  <path class="cls-9" d="m602.07,1244.32c-135.82,0-246.32-110.5-246.32-246.32s110.5-246.32,246.32-246.32,246.31,110.5,246.31,246.32-110.5,246.32-246.31,246.32Zm0-464.31c-120.2,0-218,97.8-218,218s97.8,217.99,218,217.99,217.99-97.79,217.99-217.99-97.79-218-217.99-218Z"/>
  <path class="cls-9" d="m602.07,1309c-171.48,0-311-139.51-311-310.99s139.52-311,311-311,311,139.52,311,311-139.52,310.99-311,310.99Zm0-598.12c-158.32,0-287.12,128.8-287.12,287.12s128.8,287.12,287.12,287.12,287.12-128.8,287.12-287.12-128.8-287.12-287.12-287.12Z"/>
  <path class="cls-1" d="m557.47,1495.23s-198.31-27.73-176.34-223.04c21.97-195.31,155.03-207.51,211.17-166.01,56.15,41.5,99.18,149.22,73.54,235.28-13.28,60.06-48.86,112.84-99.54,147.69l-8.84,6.08Z"/>
  <g class="cls-4">
    <path class="cls-9" d="m444.35,1121.45s-171.25,345.38,520.03,404.07c72.69,6.17,140.81-35,169.57-102.04,12.25-28.55,27.66-59.24,46.4-87.51,0,0-37.54,143.73-37.54,249.93,0,0-413.66-8.24-675.56-124.96,0,0-179.42-93.52-22.92-339.49"/>
  </g>
  <path class="cls-9" d="m569.58,1510.31c-5.71-.68-10.36-1.48-15.42-2.43-4.96-.95-9.87-2.01-14.75-3.19-9.75-2.38-19.42-5.12-28.92-8.46-18.99-6.69-37.55-15.12-55.05-25.91-17.45-10.82-33.85-24-47.91-39.76-14.09-15.68-25.8-33.95-33.71-53.77-8.04-19.77-12.52-40.76-14.05-61.61-1.58-20.77-.04-41.89,2.97-61.39,6.01-39.49,17.19-79.76,40.5-115.63,2.89-4.45,6.19-8.72,9.41-12.99,3.52-4.1,6.8-8.37,10.71-12.18,7.39-7.95,15.92-14.99,24.96-21.3,18.2-12.49,39.51-21.09,61.67-24,22.12-2.92,44.97-.88,66.21,7.26,10.53,4.01,20.97,9.77,29.98,16.9,8.7,6.83,16.37,14.43,23.3,22.43,13.81,16.06,24.83,33.68,33.72,52.12,8.84,18.47,15.81,37.71,20.42,57.58,4.63,19.84,6.11,40.53,3.87,60.86-2.29,20.25-8.44,40.37-19.91,57.14-.59.87-1.78,1.09-2.65.5-.52-.35-.8-.91-.83-1.49v-.05c-.8-19.86-2.04-37.97-4.81-55.84-2.62-17.82-6.32-35.17-10.98-52.32-9.1-34.17-25.31-67.29-48.09-92.67-5.68-6.28-11.79-11.99-18.2-16.79-6.07-4.56-12.58-7.96-19.92-10.6-14.56-5.17-30.81-6.73-46.43-4.46-15.67,2.2-30.65,8.39-43.79,17.55-6.52,4.67-12.79,9.84-18.31,15.93-2.94,2.84-5.4,6.23-8.09,9.35-2.47,3.37-4.99,6.69-7.29,10.22-18.65,28.21-29.06,63.01-34.59,98.61-2.78,18.18-4.37,35.29-3.39,52.62.95,17.19,4.27,33.98,10.31,49.68,11.86,31.53,35.1,58.23,64.46,77.66,14.56,9.88,30.58,18.07,47.28,24.78,8.35,3.37,16.87,6.42,25.51,9.05,4.33,1.31,8.68,2.53,13.03,3.63,4.25,1.07,8.96,2.12,12.69,2.8l.54.1c8.27,1.49,13.76,9.4,12.27,17.66-1.44,7.95-8.85,13.32-16.76,12.41"/>
  <path class="cls-3" d="m3242.96,769.05c0,149.14-120.9,270.05-270.05,270.05s-270.04-120.9-270.04-270.05,120.9-270.05,270.04-270.05,270.05,120.9,270.05,270.05"/>
  <g class="cls-4">
    <path class="cls-9" d="m3155.25,569.89c26.15,41.58,41.32,90.75,41.32,143.5,0,149.14-120.9,270.04-270.04,270.04-70.29,0-134.29-26.87-182.34-70.88,47.78,76,132.32,126.55,228.72,126.55,149.14,0,270.05-120.9,270.05-270.05,0-78.84-33.81-149.79-87.71-199.16"/>
  </g>
  <path class="cls-9" d="m2966.73,828.25h74.05c5.17,0,9.37,4.19,9.37,9.37v24.94c0,5.17-4.19,9.37-9.37,9.37h-157.7c-5.17,0-9.37-4.19-9.37-9.37v-24.94c0-5.17,4.19-9.37,9.37-9.37h8.38c5.17,0,9.37-4.19,9.37-9.37v-21.23c0-5.17-4.19-9.37-9.37-9.37h-8.38c-5.17,0-9.37-4.19-9.37-9.37v-13.81c0-5.17,4.19-9.37,9.37-9.37h17.75v-1.71c0-18.27,3.86-33.8,11.57-46.54,7.71-12.76,18.78-22.51,33.25-29.27,14.47-6.74,31.97-10.12,52.53-10.12,11.79,0,22.6,1.1,32.41,3.27,6.44,1.44,12.37,3.32,17.79,5.62,4.6,1.96,6.78,7.26,4.99,11.94l-9.88,25.9c-1.85,4.84-7.3,7.31-12.11,5.39-3.38-1.34-6.88-2.4-10.49-3.17-6.76-1.43-13.37-2.13-19.85-2.13-13.9,0-24.64,3.14-32.26,9.42-7.62,6.28-11.42,15.79-11.42,28.55v2.86h55.15c5.17,0,9.37,4.19,9.37,9.37v13.81c0,5.17-4.19,9.37-9.37,9.37h-45.78c-5.17,0-9.37,4.19-9.37,9.37v21.23c0,5.17,4.19,9.37,9.37,9.37Z"/>
  <g class="cls-5">
    <path class="cls-1" d="m2786.07,673.96l194.83,304.84s20.1,1.86,65.44-13.36l-218.47-347.74s-25.84,14.42-41.8,56.26"/>
  </g>
  <g class="cls-5">
    <path class="cls-1" d="m2870.71,586l226.77,351.66s11.08-8.81,42.06-39.8l-213.29-339.52s-27.18,5.82-55.54,27.65"/>
  </g>
  <g class="cls-8">
    <path class="cls-1" d="m2972.92,499c-149.14,0-270.05,120.9-270.05,270.04s120.9,270.05,270.05,270.05,270.05-120.9,270.05-270.05-120.9-270.04-270.05-270.04m12.17,531.96c-137.94,0-249.75-111.82-249.75-249.75s111.81-249.74,249.75-249.74,249.74,111.82,249.74,249.74-111.81,249.75-249.74,249.75"/>
  </g>
  <path class="cls-9" d="m2972.92,991.46c-122.64,0-222.42-99.77-222.42-222.42s99.77-222.41,222.42-222.41,222.41,99.77,222.41,222.41-99.77,222.42-222.41,222.42Zm0-419.26c-108.54,0-196.84,88.3-196.84,196.84s88.3,196.84,196.84,196.84,196.84-88.3,196.84-196.84-88.3-196.84-196.84-196.84Z"/>
  <path class="cls-9" d="m2972.92,1051.03c-155.48,0-281.98-126.5-281.98-281.99s126.5-281.98,281.98-281.98,281.98,126.5,281.98,281.98-126.5,281.99-281.98,281.99Zm0-540.09c-142.32,0-258.1,115.78-258.1,258.1s115.78,258.11,258.1,258.11,258.1-115.78,258.1-258.11-115.78-258.1-258.1-258.1Z"/>
  <path class="cls-3" d="m2791.47,499c0,165.17-133.89,299.06-299.06,299.06s-299.06-133.89-299.06-299.06,133.9-299.06,299.06-299.06,299.06,133.89,299.06,299.06"/>
  <g class="cls-4">
    <path class="cls-9" d="m2694.34,278.44c28.95,46.05,45.76,100.5,45.76,158.92,0,165.17-133.89,299.06-299.06,299.06-77.84,0-148.72-29.76-201.93-78.51,52.92,84.16,146.55,140.15,253.3,140.15,165.17,0,299.06-133.9,299.06-299.06,0-87.32-37.44-165.88-97.13-220.56"/>
  </g>
  <path class="cls-9" d="m2496.13,558.62h90.59c6.33,0,11.46,5.13,11.46,11.46v30.51c0,6.33-5.13,11.46-11.46,11.46h-192.93c-6.33,0-11.46-5.13-11.46-11.46v-30.51c0-6.33,5.13-11.46,11.46-11.46h10.26c6.33,0,11.46-5.13,11.46-11.46v-25.97c0-6.33-5.13-11.46-11.46-11.46h-10.26c-6.33,0-11.46-5.13-11.46-11.46v-16.89c0-6.33,5.13-11.46,11.46-11.46h21.72v-2.1c0-22.35,4.73-41.35,14.16-56.93,9.43-15.61,22.97-27.54,40.68-35.81,17.7-8.25,39.12-12.39,64.27-12.39,14.43,0,27.65,1.34,39.65,4,7.88,1.77,15.13,4.06,21.76,6.88,5.63,2.4,8.29,8.88,6.11,14.6l-12.09,31.68c-2.26,5.93-8.92,8.94-14.82,6.6-4.13-1.64-8.41-2.94-12.84-3.87-8.28-1.75-16.36-2.61-24.29-2.61-17.01,0-30.14,3.84-39.47,11.53-9.32,7.68-13.97,19.32-13.97,34.93v3.49h67.47c6.33,0,11.46,5.13,11.46,11.46v16.89c0,6.33-5.13,11.46-11.46,11.46h-56.01c-6.33,0-11.46,5.13-11.46,11.46v25.97c0,6.33,5.13,11.46,11.46,11.46Z"/>
  <g class="cls-5">
    <path class="cls-1" d="m2285.49,393.7l215.77,337.59s22.26,2.06,72.47-14.79l-241.94-385.11s-28.62,15.96-46.29,62.31"/>
  </g>
  <g class="cls-5">
    <path class="cls-1" d="m2379.22,296.29l251.14,389.44s12.27-9.76,46.58-44.07l-236.21-376s-30.11,6.45-61.51,30.62"/>
  </g>
  <g class="cls-8">
    <path class="cls-1" d="m2492.41,199.94c-165.17,0-299.06,133.89-299.06,299.06s133.9,299.06,299.06,299.06,299.06-133.89,299.06-299.06-133.89-299.06-299.06-299.06m13.48,589.12c-152.75,0-276.58-123.83-276.58-276.58s123.84-276.58,276.58-276.58,276.58,123.83,276.58,276.58-123.84,276.58-276.58,276.58"/>
  </g>
  <path class="cls-9" d="m2492.41,745.32c-135.82,0-246.32-110.5-246.32-246.32s110.5-246.32,246.32-246.32,246.31,110.49,246.31,246.32-110.5,246.32-246.31,246.32Zm0-464.31c-120.2,0-217.99,97.79-217.99,217.99s97.79,218,217.99,218,217.99-97.8,217.99-218-97.79-217.99-217.99-217.99Z"/>
  <path class="cls-9" d="m2492.41,810c-171.49,0-311-139.52-311-311s139.52-310.99,311-310.99,311,139.51,311,310.99-139.52,311-311,311Zm0-598.12c-158.33,0-287.13,128.8-287.13,287.12s128.8,287.12,287.13,287.12,287.12-128.8,287.12-287.12-128.8-287.12-287.12-287.12Z"/>
  <path class="cls-3" d="m2975.64,998c0,165.17-133.9,299.06-299.06,299.06s-299.06-133.89-299.06-299.06,133.89-299.06,299.06-299.06,299.06,133.89,299.06,299.06"/>
  <path class="cls-9" d="m2671.24,1062.49h90.59c6.33,0,11.46,5.13,11.46,11.46v30.51c0,6.33-5.13,11.46-11.46,11.46h-192.93c-6.33,0-11.46-5.13-11.46-11.46v-30.51c0-6.33,5.13-11.46,11.46-11.46h10.26c6.33,0,11.46-5.13,11.46-11.46v-25.97c0-6.33-5.13-11.46-11.46-11.46h-10.26c-6.33,0-11.46-5.13-11.46-11.46v-16.89c0-6.33,5.13-11.46,11.46-11.46h21.72v-2.1c0-22.35,4.73-41.35,14.16-56.93,9.43-15.61,22.97-27.54,40.68-35.81,17.7-8.25,39.12-12.39,64.27-12.39,14.43,0,27.65,1.34,39.65,4,7.88,1.77,15.13,4.06,21.76,6.88,5.63,2.4,8.29,8.88,6.11,14.6l-12.09,31.68c-2.26,5.93-8.92,8.94-14.82,6.6-4.13-1.64-8.41-2.94-12.84-3.87-8.28-1.75-16.36-2.61-24.29-2.61-17.01,0-30.14,3.84-39.47,11.53-9.32,7.68-13.97,19.32-13.97,34.93v3.49h67.47c6.33,0,11.46,5.13,11.46,11.46v16.89c0,6.33-5.13,11.46-11.46,11.46h-56.01c-6.33,0-11.46,5.13-11.46,11.46v25.97c0,6.33,5.13,11.46,11.46,11.46Z"/>
  <g class="cls-4">
    <path class="cls-9" d="m2878.51,777.44c28.95,46.05,45.76,100.5,45.76,158.92,0,165.17-133.9,299.06-299.06,299.06-77.85,0-148.72-29.76-201.93-78.51,52.92,84.16,146.54,140.15,253.3,140.15,165.17,0,299.06-133.9,299.06-299.06,0-87.32-37.45-165.88-97.13-220.56"/>
  </g>
  <g class="cls-5">
    <path class="cls-1" d="m2469.65,892.7l215.77,337.6s22.26,2.06,72.47-14.79l-241.94-385.11s-28.61,15.96-46.29,62.31"/>
  </g>
  <g class="cls-5">
    <path class="cls-1" d="m2563.39,795.29l251.14,389.44s12.27-9.76,46.58-44.07l-236.21-376s-30.1,6.45-61.51,30.62"/>
  </g>
  <g class="cls-8">
    <path class="cls-1" d="m2676.58,698.94c-165.17,0-299.06,133.9-299.06,299.06s133.89,299.06,299.06,299.06,299.06-133.9,299.06-299.06-133.9-299.06-299.06-299.06m13.48,589.12c-152.75,0-276.58-123.83-276.58-276.58s123.83-276.58,276.58-276.58,276.58,123.83,276.58,276.58-123.83,276.58-276.58,276.58"/>
  </g>
  <path class="cls-9" d="m2676.57,1244.32c-135.82,0-246.31-110.5-246.31-246.32s110.5-246.32,246.31-246.32,246.32,110.5,246.32,246.32-110.5,246.32-246.32,246.32Zm0-464.31c-120.2,0-217.99,97.8-217.99,218s97.79,217.99,217.99,217.99,218-97.79,218-217.99-97.8-218-218-218Z"/>
  <path class="cls-9" d="m2676.57,1309c-171.48,0-311-139.51-311-310.99s139.52-311,311-311,311,139.52,311,311-139.52,310.99-311,310.99Zm0-598.12c-158.32,0-287.12,128.8-287.12,287.12s128.8,287.12,287.12,287.12,287.13-128.8,287.13-287.12-128.8-287.12-287.13-287.12Z"/>
  <path class="cls-1" d="m2636.35,1495.23s198.31-27.73,176.34-223.04c-21.97-195.31-155.03-207.51-211.17-166.01-56.15,41.5-99.18,149.22-73.54,235.28,13.28,60.06,48.86,112.84,99.54,147.69l8.84,6.08Z"/>
  <g class="cls-4">
    <path class="cls-9" d="m2749.46,1121.45s171.25,345.38-520.03,404.07c-72.69,6.17-140.81-35-169.57-102.04-12.25-28.55-27.66-59.24-46.4-87.51,0,0,37.54,143.73,37.54,249.93,0,0,413.66-8.24,675.56-124.96,0,0,179.42-93.52,22.92-339.49"/>
  </g>
  <path class="cls-9" d="m2620.29,1480.15c3.73-.67,8.44-1.72,12.69-2.8,4.35-1.1,8.7-2.31,13.03-3.63,8.64-2.63,17.17-5.68,25.51-9.04,16.71-6.71,32.72-14.89,47.28-24.78,29.36-19.43,52.6-46.12,64.46-77.65,6.05-15.7,9.36-32.5,10.31-49.69.98-17.33-.61-34.44-3.39-52.62-5.53-35.61-15.94-70.4-34.59-98.62-2.3-3.53-4.82-6.85-7.29-10.21-2.7-3.12-5.16-6.51-8.09-9.35-5.52-6.1-11.79-11.26-18.31-15.93-13.14-9.16-28.12-15.35-43.79-17.54-15.61-2.27-31.87-.71-46.42,4.46-7.34,2.63-13.85,6.03-19.92,10.59-6.41,4.8-12.52,10.51-18.2,16.79-22.78,25.37-38.99,58.5-48.09,92.66-4.66,17.14-8.36,34.5-10.98,52.31-2.77,17.88-4.01,35.98-4.81,55.85v.03c-.04,1.06-.93,1.87-1.98,1.83-.63-.03-1.17-.35-1.49-.83-11.46-16.77-17.62-36.89-19.91-57.13-2.24-20.33-.75-41.02,3.87-60.86,4.61-19.87,11.58-39.12,20.42-57.59,8.89-18.44,19.91-36.07,33.72-52.12,6.93-8,14.6-15.6,23.3-22.43,9.01-7.12,19.45-12.89,29.98-16.9,21.23-8.14,44.09-10.18,66.21-7.26,22.16,2.91,43.47,11.52,61.67,24,9.03,6.31,17.57,13.35,24.96,21.3,3.92,3.82,7.19,8.08,10.71,12.18,3.22,4.27,6.52,8.54,9.41,12.99,23.31,35.87,34.49,76.14,40.51,115.63,3.01,19.5,4.55,40.62,2.97,61.38-1.54,20.85-6.02,41.85-14.05,61.61-7.91,19.82-19.62,38.09-33.71,53.77-14.07,15.75-30.46,28.95-47.91,39.76-17.51,10.79-36.06,19.23-55.05,25.91-9.5,3.34-19.17,6.08-28.92,8.46-4.88,1.17-9.79,2.23-14.75,3.18-5.07.95-9.72,1.75-15.43,2.43-8.34.99-15.9-4.97-16.89-13.31-.95-8.01,4.52-15.32,12.36-16.75l.6-.11Z"/>
  <path class="cls-3" d="m61.77,1351.84l69.93,10.8c14.01,2.16,25.01,13.16,27.17,27.17l10.8,69.94,10.8-69.94c2.16-14.01,13.16-25.01,27.17-27.17l69.93-10.8-69.93-10.8c-14.01-2.16-25.01-13.16-27.17-27.17l-10.8-69.93-10.8,69.93c-2.16,14.01-13.16,25.01-27.17,27.17l-69.93,10.8Z"/>
  <path class="cls-3" d="m147.5,251.87l94.32,14.56c18.9,2.92,33.72,17.74,36.64,36.64l14.56,94.32,14.56-94.32c2.92-18.89,17.74-33.72,36.64-36.64l94.31-14.56-94.31-14.56c-18.9-2.92-33.72-17.74-36.64-36.64l-14.56-94.32-14.56,94.32c-2.92,18.89-17.74,33.72-36.64,36.64l-94.32,14.56Z"/>
  <path class="cls-3" d="m3083.27,1379.01l-69.93,10.8c-14.01,2.16-25.01,13.16-27.17,27.17l-10.8,69.94-10.8-69.94c-2.16-14.01-13.16-25.01-27.17-27.17l-69.93-10.8,69.93-10.8c14.01-2.16,25.01-13.16,27.17-27.17l10.8-69.93,10.8,69.93c2.16,14.01,13.16,25.01,27.17,27.17l69.93,10.8Z"/>
  <path class="cls-3" d="m1101.99,89.66l-58.11,8.97c-11.64,1.8-20.78,10.93-22.57,22.58l-8.97,58.11-8.97-58.11c-1.8-11.65-10.93-20.78-22.58-22.58l-58.11-8.97,58.11-8.97c11.65-1.8,20.78-10.93,22.58-22.58l8.97-58.11,8.97,58.11c1.8,11.64,10.93,20.78,22.57,22.58l58.11,8.97Z"/>
  <path class="cls-3" d="m2099.6,144.31l58.11,8.97c11.64,1.8,20.78,10.93,22.57,22.58l8.97,58.11,8.98-58.11c1.8-11.65,10.93-20.78,22.58-22.58l58.11-8.97-58.11-8.97c-11.65-1.8-20.78-10.93-22.58-22.58l-8.98-58.11-8.97,58.11c-1.8,11.64-10.93,20.78-22.57,22.58l-58.11,8.97Z"/>
  <path class="cls-3" d="m3051.29,266.85l-87.45,13.5c-17.52,2.7-31.27,16.45-33.98,33.97l-13.5,87.45-13.5-87.45c-2.71-17.52-16.45-31.27-33.97-33.97l-87.45-13.5,87.45-13.5c17.52-2.7,31.27-16.45,33.97-33.97l13.5-87.45,13.5,87.45c2.71,17.52,16.46,31.27,33.98,33.97l87.45,13.5Z"/>
  <g class="cls-6">
    <path class="cls-1" d="m1945.04,652.74c-6.54,61.91,24.52,115.93,69.38,120.67,44.86,4.74,86.53-41.6,93.07-103.51,6.54-61.91-24.52-115.94-69.39-120.67-44.86-4.74-86.53,41.6-93.06,103.51"/>
  </g>
  <g class="cls-6">
    <path class="cls-1" d="m1847.22,823.22c-6.9,27.73,6.8,55.01,30.59,60.92,23.79,5.93,48.68-11.76,55.58-39.48,6.9-27.72-6.79-55-30.59-60.92-23.8-5.92-48.68,11.76-55.58,39.48"/>
  </g>
</svg>