<?xml version="1.0" encoding="UTF-8"?>
<svg id="Layer_1" data-name="Layer 1" xmlns="http://www.w3.org/2000/svg" viewBox="0 0 1818.6 2968.19">
  <defs>
    <style>
      .cls-1 {
        fill: #fff;
      }

      .cls-2 {
        fill: #0a0a0a;
      }

      .cls-3 {
        opacity: .4;
      }

      .cls-3, .cls-4, .cls-5, .cls-6 {
        fill: none;
      }

      .cls-7 {
        fill: #39b54a;
      }

      .cls-8 {
        fill: #f74854;
      }

      .cls-4 {
        opacity: .5;
      }

      .cls-5 {
        opacity: .2;
      }

      .cls-6 {
        opacity: .3;
      }

      .cls-9 {
        fill: #191919;
      }

      .cls-10 {
        fill: #231f20;
      }

      .cls-11 {
        fill: #ffc41f;
      }
    </style>
  </defs>
  <g class="cls-5">
    <ellipse class="cls-9" cx="904.73" cy="2879.21" rx="904.73" ry="88.98"/>
  </g>
  <g id="Body">
    <g>
      <g>
        <path class="cls-1" d="m184.93,1234.87c-27.52,27.52-92.87,178.87-79.11,378.37h196.85l277.84-433.41-79.11-41.28c-85.99,10.32-288.94,68.79-316.46,96.31Z"/>
        <g class="cls-5">
          <path class="cls-9" d="m407.65,1156.91s-36.7,23.22-55.62,79.85c32.68-15.61,97.31-29.41,97.31-29.41l29.41-36.66-39.86-27.79-31.23,14.01Z"/>
        </g>
        <path class="cls-9" d="m499.54,1123.19c-84.44,10.13-294.02,69.2-325.56,100.74-30.43,30.43-97.71,185.99-83.61,390.38l.99,14.42h219.75l291.54-454.78-98.37-51.32-4.76.57Zm-205.34,474.57H120.4c-10.02-196.91,56.16-332.63,75.48-351.95,22.39-22.39,211.44-79.18,302.65-91.29l59.81,31.21-264.14,412.03Z"/>
      </g>
      <path class="cls-9" d="m184.88,1221.97l.1,25.8c69.94-.25,152.38,26.6,153.2,26.87l8.08-24.5c-3.5-1.16-86.22-28.17-160.28-28.17-.36,0-.73,0-1.1,0Z"/>
      <g>
        <path class="cls-1" d="m73.57,1594.32c-28.38,36.12-33.54,100.61-36.12,252.82s101.9,138.02,101.9,138.02l123.83-408.9c-38.7-2.58-161.24-18.06-189.62,18.06Z"/>
        <g class="cls-5">
          <path class="cls-9" d="m77.13,1705.23c-3.87,40.52-11.84,175.57,0,205.63,1.92-6.91,31.4-13,42.85-43.64,27.03-72.33,48.05-198.5,48.05-198.5,0,0-25.12,51.45-90.9,36.5Z"/>
        </g>
        <path class="cls-9" d="m247.62,1559.5c-75.48-6.38-158.36-10.2-186.23,25.26-32.37,41.2-36.87,111.51-39.42,262.12-1.01,59.36,13.4,102.7,42.82,128.84,24.91,22.13,53.58,25.25,67.78,25.25,5.16,0,8.41-.41,8.87-.47l9.85-1.34,132.35-437.05-19.43-1.29c-4.48-.3-10.11-.78-16.59-1.32Zm-119.81,410.37c-10.38-.71-27.56-4.06-42.46-17.29-22.36-19.86-33.27-55.25-32.42-105.17,2.58-152.18,7.92-211.85,32.81-243.52,10.87-13.84,46.07-17.55,81.99-17.55,28.53,0,57.51,2.34,75.08,3.82l-114.99,379.71Z"/>
      </g>
    </g>
    <g>
      <path class="cls-1" d="m1728.92,1832.22c-20.66-30.29-119.88-200.24-140.05-229.77,0,0-117.77,94-241.16,153.72l14.47,64.71s99.06,140.73,110.22,161.13c-1.76,20.08,6.74,66.32,12.48,104.37,5.74,38.05,19.41,74.21,47.79,95.24,39.17,25.87,120.45,24.34,174.55-2.01,54.1-26.35,87.27-70.06,94.67-135.02,7.4-64.96-21.02-134.77-21.02-134.77-5.57-17.65-26.97-52.12-51.94-77.61Z"/>
      <path class="cls-9" d="m1740.97,1822.41c-10.78-16.08-40.49-65.72-69.25-113.76-30.73-51.33-59.75-99.83-70.07-114.93l-9.41-13.77-13.03,10.4c-1.16.93-117.92,93.65-238.25,151.89l-11.04,5.34,17.83,79.69,1.77,2.52c25.85,36.73,92.32,131.86,107.19,156.07-.39,18.77,4.35,48.71,9.34,80.24,1.21,7.67,2.42,15.28,3.52,22.59,7.37,48.88,25.5,84.33,53.87,105.37l.69.48c21.33,14.08,53.31,21.1,87.41,21.1s72.21-7.39,102.44-22.11c60.77-29.6,95.51-79.12,103.27-147.18,7.48-65.68-18.85-134.29-21.84-141.79-6.36-19.46-28.21-55.04-54.45-82.16Zm45.53,220.44c-6.57,57.66-34.73,97.85-86.07,122.85-49.17,23.94-124.71,25.46-158.89,3.24-21.37-16.04-35.29-44.59-41.36-84.87-1.11-7.38-2.33-15.07-3.56-22.81-4.72-29.81-10.06-63.59-8.81-77.91l.41-4.67-2.25-4.11c-10.77-19.67-93.28-137.2-109.37-160.08l-11.14-49.82c96.48-48.32,186.22-114.2,219.54-139.64,13.78,22.04,37.27,61.28,60.15,99.5,31.04,51.85,60.35,100.83,70.97,116.4l1.73,2.11c24.72,25.23,43.9,57.7,48.24,71.43l.42,1.18c.27.66,26.86,66.85,19.98,127.18Z"/>
    </g>
    <path class="cls-9" d="m1543.37,2055.8c-33.17,26.48-50.74,56.56-49.47,84.69.93,20.61,12.18,39.04,31.66,51.91l14.22-21.53c-12.78-8.44-19.55-19.06-20.11-31.55-.88-19.38,13.63-42.47,39.79-63.36,46.63-37.23,104.87-12.94,107.29-11.9l10.29-23.66c-3.03-1.32-74.74-31.66-133.67,15.4Z"/>
    <g>
      <path class="cls-1" d="m1566.44,1997.7c31.55,39.01,95.64,31.66,95.64,31.66-29.01,20.77-52.71,54.96-38.97,75.58,13.74,20.62,60.44,29.45,106.72-6.21,46.28-35.66,59.69-110.27,36.7-183.06l-200.08,82.03Z"/>
      <path class="cls-9" d="m1768.56,1913.71c22.08,69.92-6.36,143.78-46.61,174.8-21.51,16.58-45.6,24.15-66.15,20.77-10.06-1.66-18.26-5.96-21.95-11.49-7.63-11.46,9.41-39.07,35.75-57.94l40.45-28.97-49.43,5.67c-.57.06-57.36,6.16-84.14-26.96,0,0,.08,43.78,52.71,52.03-20.28,22.88-30.5,49.93-16.82,70.48,7.69,11.55,21.99,19.8,39.23,22.64,4.55.75,9.21,1.12,13.94,1.12,23.87,0,49.49-9.44,72.16-26.91,54.82-42.25,78.66-129.52,55.46-203l-24.6,7.77Z"/>
    </g>
    <g>
      <path class="cls-8" d="m1417.56,1901.31c30.16,43.21,47.67,67.59,54.85,80.71,108.68-23.74,250.98-158.26,250.98-158.26h0c-15.98-25.08-23.88-43.55-54.11-93.99,0,0-59.87,68.72-251.73,171.55Z"/>
      <g class="cls-6">
        <path class="cls-1" d="m1484.98,1858.95l-1.06,20.13,5.73,7.87s69.3-27.94,160.88-95.66c10.96,11.61,26.89,36.38,32.89,57.79,15.48-12.64,32.89-32.63,32.89-32.63l-47.08-83.2-184.26,125.7Z"/>
      </g>
      <g class="cls-5">
        <path class="cls-9" d="m1644.06,2079.46c4.47-33,66.24-68.66,66.24-68.66,0,0-101.33,4.71-168.4-60.65-35.05-34.16-88.42-112.93-131.39-180.37,1.25,47.04-3.82,98,.88,144.82,29.05,29,69.7,72.29,87.52,103.97,29.24,51.97,22,95.84,22,95.84,0,0,19.44-43.98,59.34-50.95-23.74,36.03-34.9,70.72-21.14,93.08,13.76,22.36,60.11,45.8,121.21,28.92,61.1-16.88,81.48-111,87.02-166.44-19.04,24.01-107.09,107.2-123.26,60.44Z"/>
      </g>
      <path class="cls-10" d="m1465.73,1996.68l-4.64-8.47c-5.54-10.11-18.82-29.09-38.94-57.82l-23.48-33.6,12.79-6.85c186.68-100.05,247.52-168,248.11-168.68l11.67-13.28,9.1,15.14c15.68,26.16,25.45,43.89,33.31,58.14,7.31,13.26,13.08,23.73,20.62,35.55l5.74,9.01-7.79,7.32c-5.96,5.61-147,137.43-257.06,161.46l-9.43,2.06Zm-29.3-90.9l6.87,9.82c16.63,23.75,28.12,40.16,35.32,51.63,88.45-23.96,198.4-118.94,228.19-145.76-5.36-8.91-10.1-17.51-15.72-27.7-6.23-11.3-13.69-24.83-24.39-43.07-25.19,23.78-92.08,79.85-230.27,155.1Z"/>
    </g>
    <g>
      <path class="cls-1" d="m1563.41,1491.13c-95.45-139.31-206.38-263.14-265.72-283.78l-90.26,27.52,175.1,551.95c117.72-70.23,226.87-174.13,226.87-174.13l9.22-11.71c6.38-8.1,6.75-19.41.93-27.92-19.56-28.6-38.59-56.31-56.14-81.92Z"/>
      <path class="cls-8" d="m1362.2,1721.16l12.86,22.36c136.12-78.26,228.82-180.82,232.7-185.15l-19.21-17.22c-.92,1.03-93.97,103.9-226.35,180.01Z"/>
      <g class="cls-6">
        <polygon class="cls-1" points="1544.79 1541.15 1590.07 1616.33 1623.45 1586.2 1576.56 1522.48 1544.79 1541.15"/>
      </g>
      <path class="cls-9" d="m1595.58,1510.67l-19.4-28.29c-87.11-127.14-205.44-266.01-273.4-289.65l-4.77-1.66-110.07,33.55,185.74,585.5,16.78-10.01c117.85-70.31,225.1-171.92,229.61-176.21l10.71-13.35c10.62-13.48,11.24-32.06,1.55-46.23-12.55-18.36-24.89-36.34-36.75-53.64Zm10.88,80.72l-8.52,10.82c-9.52,8.95-103.37,96.28-206.63,161.08l-164.39-518.19,70.18-21.39c53.68,22.84,156.66,134.77,253.54,276.16l19.41,28.31c11.86,17.29,24.18,35.26,36.72,53.6,2.02,2.95,1.89,6.81-.31,9.6Z"/>
    </g>
    <g>
      <g>
        <g>
          <path class="cls-8" d="m263.57,2150.62c-12.88,105.3,6.14,262.4,180.7,414.88,174.56,152.47,529.24,271.74,802.46,275.18l-122.58-426.53-860.58-263.53Z"/>
          <g class="cls-5">
            <path class="cls-9" d="m302.58,2209.55c-1.29,37.08,9.71,159.51,100.31,255.66,4.17-13.49,15.78-74.11,15.78-74.11l-76.83-42.31,51.03-160.21-90.29,20.97Z"/>
          </g>
          <g class="cls-5">
            <path class="cls-9" d="m923.03,2472.96l-20.1,62.46-59.87,186.01s110.93,57.94,303.56,75.14c-3.44-21.5-28.38-66.22-28.38-66.22,0,0-144.42-10.47-184-30.6,59.31,1.36,126.33.14,168.52,0-5.16-15.83-25.8-82.91-25.8-82.91l-179.44-44.72,7.22-30.96s81.07,24.94,159.32,39.56c2.58-11.18-27.37-107.76-27.37-107.76h-113.66Z"/>
          </g>
          <path class="cls-9" d="m252.64,2133.78l-1.87,15.27c-13.34,109.04,7.94,271.49,185.02,426.16,174.67,152.57,530.81,274.84,810.78,278.37l17.35.22-129.3-449.93-881.99-270.08Zm200.12,422c-160.37-140.08-186.63-285.83-177.97-388.24l838.9,256.89,115.81,402.98c-271.83-8.12-609.67-125.7-776.74-271.63Z"/>
        </g>
        <path class="cls-9" d="m880.54,2581.52c22.83,7.77,140.99,46.7,226.13,50.19l1.06-25.78c-81.6-3.34-196.64-41.26-218.87-48.82l-8.31,24.42Z"/>
        <path class="cls-9" d="m934.24,2699.74s91.34,44.15,226.6,50.76c2.93,0,5.82-.04,8.65-.12l-.76-25.79c-84.65,2.51-234.5-24.85-234.5-24.85Z"/>
      </g>
      <g>
        <path class="cls-1" d="m1555.67,2667.52s-72.23-399.87-82.55-460.42c-6.77-39.73-46.96-122.34-64.95-233.31,17.63-8.97,19.06-34.06,16.27-52-6.92-44.49-14.03-92.63-20.98-143.66-28.38-208.31-72.23-354.08-100.61-413.42l-40.12-146.71-658.14-31.3-223.58,694.83s44.72,133.29,70.51,210.68c0,64.5-70.51,635.49-70.51,635.49-89.43,80.83-44.72,147.91-20.64,159.95,24.08,12.04,220.14,13.76,302.7,8.6,82.55-5.16,116.95-39.56,147.91-111.79,30.96-72.23,156.51-476.41,156.51-476.41,0,0,44.72,84.27,87.71,220.14,43,135.87,84.27,299.26,152.24,326.78,67.97,27.52,296.65,29.24,349.96,18.92,53.32-10.32,120.39-29.24,104.91-113.51-15.48-84.27-106.63-92.87-106.63-92.87Z"/>
        <g class="cls-5">
          <path class="cls-9" d="m745.87,2513.4c-37.62,144.01-65.61,214.62-86.87,253.27-21.26,38.65-45.77,117.68-274.3,119.44,99.97,17.24,247.98,17.16,307.27,0,47.97-18.69,81.64-96.27,129.8-242.46,15.96-48.45,35.76-108.99,55.1-168.29-39.79-3.01-80-5.52-119.6-10.15-3.46,16.23-7.26,32.35-11.4,48.19Z"/>
        </g>
        <g class="cls-5">
          <path class="cls-9" d="m1303.33,2703.84c-33.44-77.31-68-174.69-94.17-252.81-46.26,7.72-93.23,12.3-138.88,17.75,7.88,22.11,15.74,45.92,23.23,71.33,44.72,151.69,94.76,291.72,133.37,313.72,38.62,22,208.99,20.68,250.24,19.14-55.11-12.62-113.7-30.21-173.78-169.13Z"/>
        </g>
        <path class="cls-9" d="m1568.93,2653.87c-11.65-64.57-71.32-395.19-80.56-449.36-2.71-15.9-9.88-36.76-18.96-63.17-14.03-40.8-33-95.98-44.39-160.69,13.39-12.74,18.84-34.68,14.71-61.22-7.48-48.11-14.53-96.35-20.94-143.37-28.79-211.34-72.93-357.26-101.99-418.01l-27.92,13.36c30.31,63.37,72.74,214.36,99.24,408.83,6.43,47.21,13.51,95.64,21.03,143.95,2.28,14.65.69,31.41-8,35.82l-10.07,5.12,1.81,11.16c11.56,71.34,32.19,131.32,47.24,175.12,8.62,25.08,15.43,44.89,17.72,58.3,10.21,59.93,81.86,456.57,82.58,460.57l2.12,11.49,11.61,1.17c3.25.32,79.79,8.81,92.91,80.26,11.46,62.39-26.95,82.81-92.63,95.52-55.17,10.68-278.76,7.22-341.22-18.06-52.34-21.2-91.78-149.76-126.58-263.19-5.58-18.19-11.13-36.28-16.71-53.91-42.92-135.65-86.95-219.23-88.8-222.72l-17.43-32.84-11.03,35.51c-1.25,4.03-125.66,404.22-155.95,474.9-27.46,64.08-55.83,97.51-134.65,102.44-88.98,5.56-274.15,2.42-294.81-7-6.33-3.16-20.41-17.11-23.54-40.01-4.1-30.02,12.37-62.74,47.64-94.61l4.28-3.86.71-5.72c2.88-23.35,70.63-572.69,70.63-637.39v-2.51l-.79-2.38c-22.89-68.67-60.67-181.34-68.91-205.89l218.4-678.7,646.3,30.73,1.47-30.92-669.99-31.86-228.77,710.95,1.62,4.82s43.77,130.47,69.69,208.18c-1.52,69.61-62.45,566.77-69.68,625.55-50.64,47.72-57.02,90.24-53.26,117.8,4.36,31.95,23.98,55.32,40.37,63.51,19.52,9.75,109.97,12.88,191.06,12.88,49.33,0,95.2-1.15,119.52-2.68,93.89-5.87,130.19-48.87,161.17-121.14,25.66-59.86,113.35-338.09,145.39-440.49,16.76,36.57,43.73,100.25,69.85,182.8,5.55,17.54,11.08,35.54,16.63,53.65,40.4,131.69,78.56,256.08,144.56,282.8,73.26,29.66,304.74,30.21,358.72,19.77,40.84-7.91,136.49-26.42,117.19-131.5-12.51-68.09-71.05-96.28-108.59-103.73Z"/>
      </g>
      <g>
        <g>
          <path class="cls-1" d="m920.25,2020.29c-352.24-2.58-479.52-80.79-479.52-80.79l-14.61,46.01v108.73l-84.27,254.54c128.99,73.95,313.02,128.99,637.23,123.83,324.22-5.16,576.59-106.63,576.59-106.63l-147.5-392.19c-32.68,20.58-250.95,48.23-487.92,46.5Z"/>
          <g class="cls-5">
            <path class="cls-9" d="m562.64,1739.63s-29.25,111-32.43,147.12c-3.19,36.12,76.79,65.9,143.86,74.87,67.08,8.97,339.25,23.13,497.9,12.18,158.66-10.95,211.56-24.34,222.02-52.22-4.03,24.51,4.03,46.62-15.48,56.2,14.03,5.71,8.82,19.95,8.82,19.95l11.33,31.83s-31.77-.93-54.42,5.52c-22.65,6.45-38.97,15.55-40.42,63.02s14.9,128.06,14.9,128.06c0,0-57.87-134.33-89.41-154.97-31.54-20.64-63.79-20.28-81.85-17.24-18.06,3.05-81.38-10.8-78.74,140.59-18-54.99-39.93-92.4-48.96-109.17-9.03-16.77-63.21-21.93-94.16-21.93s-76.23-8.17-100.03,43c-23.8,51.17-48.61,138.28-48.61,138.28,0,0-2.29-62.29-6.15-121.79-3.87-59.49-45.16-76.19-79.33-80.09-34.18-3.91-65.72-7.78-87.36,27.05-21.63,34.83-72.2,139.07-72.2,139.07,0,0,24.77-142.87,17.03-166.12-7.74-23.25-36.23-37.57-43.27-35.57-7.04,2-22.96-8.62-23.29,46.68-.34,55.3,29.45,91.94-13.91,138.43-8.53,27.14-25.38,80.03-87.9,64.55,7.14-23.22,28.36-93.75,28.36-93.75,0,0,44.44-24.15,52.88-42.6,8.44-18.44,2.65-78.79-18.65-122.87-21.3-44.08,25.3-116.24,25.3-116.24l52.68-103.4,41.48-38.47Z"/>
          </g>
          <path class="cls-9" d="m1399.92,1960.7c-25.67,16.16-232.48,45.95-479.55,44.11-341.69-2.5-469.97-77.57-471.57-78.52l-16.83-10.34-21.33,67.16v108.64l-87.46,264.17,10.97,6.29c149.69,85.82,342.11,126.22,603.08,126.22,13.84,0,27.87-.11,42.1-.34,323.35-5.15,579.57-106.72,582.12-107.75l14.04-5.64-159.5-424.12-16.06,10.11Zm-421.09,496.44c-270.09,4.37-467.11-32.47-618.28-115.6l81.05-244.8v-108.83l8.35-26.3c45.62,21.11,184.94,72.07,470.19,74.16,209.38,1.43,412.57-19.79,479.17-41.55l136.42,362.73c-57.38,20.82-282.39,95.83-556.9,100.19Z"/>
        </g>
        <g>
          <path class="cls-1" d="m600.55,1990.99l-68.65,217.98s40.27-124.85,68.65-217.98Z"/>
          <path class="cls-9" d="m531.93,2208.98s52.87-122.07,80.96-214.23l-24.68-7.52c-28.02,91.96-56.28,221.75-56.28,221.75Z"/>
        </g>
        <g>
          <path class="cls-1" d="m809.44,2016.75c-15.89,75.76-32.46,227.99-32.46,227.99l32.46-227.99Z"/>
          <path class="cls-9" d="m776.97,2244.74s29.51-151.08,45.08-225.35l-25.25-5.29c-15.83,75.51-19.83,230.64-19.83,230.64Z"/>
        </g>
        <g>
          <path class="cls-1" d="m1068.73,2194.56c-4.92-78.56-25.58-173.45-25.58-173.45l25.58,173.45Z"/>
          <path class="cls-9" d="m1030.54,2023.85c.2.94,38.19,170.71,38.19,170.71,0,0-12.13-172.28-12.98-176.2l-25.2,5.49Z"/>
        </g>
        <g>
          <path class="cls-1" d="m1318.74,2226.17c-15.48-93.38-72-218.88-72-218.88l72,218.88Z"/>
          <path class="cls-9" d="m1234.97,2012.58c.56,1.24,83.76,213.59,83.76,213.59,0,0-26.15-151.74-60.24-224.18l-23.52,10.59Z"/>
        </g>
      </g>
      <path class="cls-9" d="m510.41,2683.72c-42.62-2.63-101.27,1.85-138.42,38.1l18.01,18.46c23.71-23.13,65.91-34.08,118.82-30.82,66.55,4.1,131.2,29.79,147.6,50.28,0,0-9.43-42.73-58.37-59.76-27.01-8.49-57.63-14.42-87.64-16.27Z"/>
      <path class="cls-9" d="m1396.18,2713.08c65.67-38.11,143.18-31.79,158.07-30.16l2.84-25.64c-10.44-1.17-32.82-2.86-60.81-.44-75.35,10.3-100.1,56.23-100.1,56.23Z"/>
      <path class="cls-9" d="m411.53,2495.99l-8.63,29.73c18.26,5.3,147.24,40.89,316.34,40.89,55.89,0,116.17-3.89,178.28-14.04l-5-30.55c-243.28,39.79-457.38-19.17-480.99-26.02Z"/>
      <path class="cls-9" d="m1059.53,2513.36l-8.7,29.71c26.84,7.86,79.31,14.41,142.34,14.41,105.57,0,240.74-18.4,334.41-79.88l-16.98-25.88c-134.65,88.36-377.21,83.24-451.07,61.64Z"/>
    </g>
    <g>
      <g>
        <rect class="cls-1" x="505.69" y="1613.24" width="304.42" height="153.93"/>
        <g class="cls-5">
          <path class="cls-9" d="m566.28,1687.36s169.55,13.25,180.09-24.16c9.25,19.35,0,79.19,0,79.19h-203.79l23.7-55.03Z"/>
        </g>
        <path class="cls-9" d="m490.21,1782.65h335.37v-184.88h-335.37v184.88Zm30.96-153.93h273.46v122.97h-273.46v-122.97Z"/>
      </g>
      <g>
        <path class="cls-1" d="m809.99,1496.29c-27.13,0-49.13,21.99-49.13,49.13v287.22c0,27.13,21.99,49.13,49.13,49.13l110.26-1.08-1.05-384.39h-109.21Z"/>
        <g class="cls-5">
          <path class="cls-9" d="m790.45,1663.2v165.11c0,27.58,17.62,21.31,90.07,20.97v-163s-78.46,64.63-90.07-23.09Z"/>
        </g>
        <path class="cls-9" d="m809.99,1480.81c-35.62,0-64.61,28.98-64.61,64.61v287.22c0,35.62,28.98,64.61,64.76,64.61l125.63-1.23-1.13-415.2h-124.65Zm0,385.48c-18.55,0-33.65-15.1-33.65-33.65v-287.22c0-18.55,15.09-33.65,33.65-33.65h93.77l.97,353.59-94.74.93Z"/>
      </g>
      <g>
        <path class="cls-1" d="m1345.84,1496.29h-426.64c-19.06,0-34.51,15.45-34.51,34.51v315.39c0,19.47,16.1,35.08,35.56,34.49l427.05-12.98c26.01-.79,46.69-22.11,46.69-48.13v-275.12c0-26.6-21.56-48.16-48.16-48.16Z"/>
        <g class="cls-5">
          <path class="cls-9" d="m918.07,1693.64s9.56,68.36,95.45,94.16c73.93,22.2,214.33,14.19,261.63,4.1,36.83-7.85,58.55-41.39,58.55-41.39,0,0-42.21,3.75-58.55,0-10.86-2.49-28.18-8.15-42.95-24.01l94.04-4.49,36.36-35.72-1.1,129.49c-.11,12.55-10.19,22.72-22.75,22.87-9.65.12-23.34.33-42.74.69-61.49,1.14-292.18,7.78-359.43,9.73-10.16.29-18.51-7.86-18.51-18.02v-137.41Z"/>
        </g>
        <path class="cls-9" d="m1345.85,1480.81h-426.64c-27.56,0-49.99,22.43-49.99,49.99v315.39c0,13.64,5.39,26.38,15.18,35.88,9.42,9.14,21.71,14.11,34.76,14.11.52,0,1.04,0,1.56-.02l427.05-12.98c34.6-1.05,61.7-28.99,61.7-63.61v-275.12c0-35.09-28.54-63.64-63.63-63.64Zm32.68,338.76c0,17.78-13.92,32.12-31.68,32.66l-427.05,12.98c-5.17.3-10.1-1.75-13.83-5.36-3.73-3.62-5.78-8.47-5.78-13.66v-315.39c0-10.5,8.54-19.03,19.03-19.03h426.64c18.02,0,32.68,14.66,32.68,32.68v275.12Z"/>
      </g>
      <polygon class="cls-9" points="1056.05 1496.29 1030.25 1496.29 1030.25 1666.34 1185.04 1735.14 1185.04 1872.24 1210.83 1872.24 1210.83 1718.37 1056.05 1649.57 1056.05 1496.29"/>
      <g>
        <path class="cls-8" d="m1190.63,1631.08c0,47.37,27.14,85.78,60.63,85.78h51.6v-171.56h-51.6c-33.48,0-60.63,38.4-60.63,85.78Z"/>
        <g class="cls-3">
          <polygon class="cls-1" points="1216.12 1576.78 1256.11 1576.78 1240.2 1616.33 1189.44 1616.33 1216.12 1576.78"/>
        </g>
        <g class="cls-5">
          <path class="cls-9" d="m1243.21,1650.73h-46.87s1.22,54.99,66.85,65.62c-10.09-19.19-19.98-65.62-19.98-65.62Z"/>
        </g>
        <path class="cls-9" d="m1177.72,1631.08c0,54.41,32.98,98.68,73.52,98.68h64.5v-197.36h-64.5c-40.54,0-73.52,44.26-73.52,98.68Zm112.22,72.88h-38.7c-25.87,0-47.73-33.38-47.73-72.88s21.86-72.88,47.73-72.88h38.7v145.76Z"/>
      </g>
      <g>
        <ellipse class="cls-8" cx="1302.85" cy="1631.08" rx="60.63" ry="85.78"/>
        <g class="cls-3">
          <path class="cls-1" d="m1242.22,1631.08l13.89,14.46c-.92-17.45,15.12-69.67,47.73-71.6,32.61-1.93,48.35,51.84,46.4,65.39,8.78-20.89-3.12-86.19-53.93-93.53-30.81,4.27-58.66,49.54-54.09,85.28Z"/>
        </g>
        <g class="cls-5">
          <path class="cls-9" d="m1306.41,1669.65c-23.75,0-36.98-12.04-45.58-30.31,0,33.6,19.25,60.84,43,60.84s43-27.24,43-60.84c-6.88,18.27-16.67,30.31-40.42,30.31Z"/>
        </g>
        <path class="cls-9" d="m1302.85,1532.4c-40.54,0-73.52,44.26-73.52,98.68s32.98,98.68,73.52,98.68,73.52-44.26,73.52-98.68-32.98-98.68-73.52-98.68Zm0,171.56c-25.87,0-47.73-33.38-47.73-72.88s21.86-72.88,47.73-72.88,47.73,33.38,47.73,72.88-21.86,72.88-47.73,72.88Z"/>
      </g>
    </g>
    <g>
      <g>
        <path class="cls-1" d="m342.22,1384.5c-53.71,81.69-99.05,164.14-134.62,234.15-35.57,70.01-76.44,179.78-87.62,248.58-74.38,89.86-62.27,199.83-41.69,243.06,51.6,108.35,202.89,100.77,249.35,96.82,38.3-3.26,77.75-20.3,85.62-56.49,0,0,39.73-9.08,48.56-30.01,33.09-78.38-41.91-120.06-30.55-154.49,43.86-132.86,192.22-404.47,211.14-442.31l46.44-303.56-144.47-24.94c-37.84,10.32-94.75,25.8-202.17,189.19Z"/>
        <path class="cls-9" d="m543.59,1179.48l-3.32.9c-39.98,10.9-100.4,27.38-210.99,195.61-46.03,70.02-91.61,149.3-135.48,235.64-33.56,66.05-75.46,174.78-88.4,248.99-74.51,92.9-64.96,206.17-41.08,256.32,42.34,88.92,143.72,107.48,220.96,107.48,15.8,0,30.61-.78,43.68-1.89,38.64-3.29,82.75-20.65,96.74-59.27,14.87-4.61,41.49-15.55,50.39-36.64,23.31-55.22-.07-94.65-17.14-123.44-7.8-13.15-15.17-25.57-12.97-32.21,36.21-109.69,144.83-315.75,191.22-403.75,9.21-17.47,15.86-30.09,19.06-36.49l-27.69-13.85c-3.05,6.1-9.64,18.6-18.76,35.9-46.74,88.68-156.21,296.34-193.23,408.48-6.61,20.02,4.25,38.32,15.74,57.71,15.97,26.93,32.48,54.78,15.24,95.6-3.89,9.21-24.84,17.95-37.76,20.95l-9.59,2.19-2.09,9.61c-6.24,28.73-41.18,41.75-71.8,44.35-68.97,5.86-191.08,2.22-234.07-88.06-17.62-37-31.12-141.05,39.63-226.53l2.68-3.24.67-4.15c11.15-68.58,52.55-177.95,86.14-244.05,43.35-85.33,88.35-163.6,133.75-232.66,100.98-153.6,154.46-172.04,190-181.85l141.07,24.35,5.27-30.5-144.47-24.94-3.42-.58Z"/>
      </g>
      <g>
        <path class="cls-8" d="m119.98,1867.23s212.71,42.88,310.16,106.57c-.02-2.6.31-5.16,1.14-7.68,8.81-26.7,21.85-59,37.2-93.88-.18-.16-85.18-78.33-318.17-116.46-14.03,40.56-25.25,80.23-30.33,111.45Z"/>
        <g class="cls-6">
          <path class="cls-1" d="m426.93,1844.08l-5.32,11.97-3.64,10.23s-106.36-50.91-219.87-68.97c-7.74,15.48-19.78,78.25-19.78,78.25l-58.34-8.34,30.33-111.45s250.84,56.27,276.61,88.31Z"/>
        </g>
        <path class="cls-9" d="m152.39,1743.04l-10.72-1.76-3.55,10.27c-15.31,44.24-25.98,83.53-30.87,113.61l-1.99,12.25,12.17,2.46c2.1.42,211.37,43.1,305.65,104.72l20.09,13.14-.14-24.01c0-1.38.15-2.54.49-3.56,8.07-24.44,20.43-55.64,36.76-92.73l3.72-8.46-6.81-6.24c-3.61-3.31-91.05-81.43-324.8-119.68Zm269.49,210.61c-89.26-51.13-242.2-86.75-286.98-96.46,4.83-24.33,13.03-53.94,24.08-86.88,182.3,31.44,269.69,87.9,293.72,105.82-12.98,29.9-23.31,55.89-30.82,77.52Z"/>
      </g>
      <g>
        <path class="cls-1" d="m202.02,1590.95c-3.83,7.83-.83,17.32,6.84,21.47,65.5,35.43,229.61,119,319.01,159.19,8.18,3.68,17.76.09,21.55-8.04l54.7-117.34-340.55-175.43s-29.29,54.1-61.55,120.16Z"/>
        <path class="cls-8" d="m212.88,1566.65c9.46,5.75,233,141.17,349.76,172.98l6.78-24.89c-113.25-30.85-340.86-168.75-343.14-170.14l-13.4,22.05Z"/>
        <g class="cls-6">
          <polygon class="cls-1" points="291.99 1555.31 255.45 1631.08 198.49 1602.45 250.65 1505.41 291.99 1555.31"/>
        </g>
        <path class="cls-9" d="m249.96,1463.43c-.29.54-29.81,55.14-61.85,120.73-7.5,15.36-1.63,33.75,13.39,41.88,68.98,37.31,231.8,120.03,320.03,159.69,4.19,1.88,8.59,2.77,12.93,2.77,12.03,0,23.62-6.84,29-18.39l60.99-130.83-367.26-189.18-7.22,13.34Zm333.85,189.74l-48.42,103.85c-.21.46-.73.66-1.18.46-87.6-39.38-249.41-121.59-317.99-158.68-.36-.2-.49-.67-.3-1.07,22.37-45.8,43.49-86.17,54.11-106.2l313.77,161.63Z"/>
      </g>
      <path class="cls-9" d="m379.27,2054.08c-5.13-.42-11.86.19-19.36,3.79-40.88,23.49-20.68,74.12-20.68,74.12,13.42-39.75,28.83-52.93,37.87-52.2,8.46.72,19.46,14.11,23.19,37.55,1.2,7.58,1.11,14.65-.27,21.03l25.21,5.47c2.07-9.52,2.25-19.8.54-30.55-5.41-34.04-23.66-57.28-46.5-59.21Z"/>
    </g>
    <g>
      <g>
        <path class="cls-1" d="m936.92,1389.1c-182.89-.91-257.98-73.09-256.26-135.31l-123.62-86.2s-82.59,205.51,147.7,312.94c230.29,107.43,434.61-83.23,434.61-83.23l51.96-109.22c-32.83,59.61-93.74,101.82-254.38,101.02Z"/>
        <path class="cls-8" d="m1113.8,1391.18c-61.47,17.98-145.65,42.59-301.13,11.08-114.41-23.19-172.42-82.35-172.42-175.82h-25.8c0,105.95,66.77,175.49,193.09,201.1,56.35,11.42,103.7,15.75,144.21,15.75,75.76,0,127.55-15.15,169.28-27.35l3.12-.91-7.24-24.76-3.12.91Z"/>
        <path class="cls-1" d="m1191.31,1288.08c4.55-8.25,8.56-16.84,12.22-25.69l-12.22,25.69Z"/>
        <path class="cls-9" d="m1178.9,1284.12c-27.15,48.3-80.66,92.09-237.67,92.09-1.41,0-2.82,0-4.24,0-136-.68-195.03-40.78-218.11-64.62-17.12-17.69-25.87-37.55-25.32-57.44l.19-6.96-142.63-99.45-6.05,15.05c-.87,2.17-84.39,218.13,154.22,329.44,48.38,22.57,99.47,33.85,151.86,33.85,53.28,0,107.9-11.67,162.35-35.01,81-34.73,132.51-82.32,134.66-84.33l1.79-1.67,52.7-110.79c4.72-8.59,8.94-17.59,12.8-26.95l-23.57-10.47-12.97,27.28Zm-50.09,105.3c-20.13,17.68-210.07,176.71-418.62,79.42-182.55-85.16-159.69-232.3-146.29-280.74l103.95,72.47c1.25,24.48,12.39,48.17,32.49,68.95,44.72,46.2,128.72,71.94,236.52,72.48,100.33.54,163.68-15.18,206.25-42.64l-14.3,30.06Z"/>
      </g>
      <g>
        <g>
          <path class="cls-8" d="m1360.67,1225.71s9.66-29.84-23.01-30.4c-32.68-.56-139.72,97.32-139.72,97.32l129.4,83.27c48.16-43.55,61.1-85.44,66.67-113.51,5.57-28.07-13.76-33.23-33.33-36.67Z"/>
          <path class="cls-9" d="m1377.37,1213.54c-.37-5.95-2.02-12.64-6.36-18.72-4.76-6.66-14.36-14.66-33.1-14.98-.14,0-.28,0-.42,0-36.3,0-123.93,77.54-150,101.38l-14.83,13.56,156.27,100.56,8.79-7.95c51.64-46.7,65.52-91.98,71.47-121.98,2.76-13.88.98-25.55-5.27-34.68-6.48-9.46-16.27-14.26-26.54-17.18Zm1.45,45.84c-4.76,23.96-15.48,59.38-53.31,96.94l-102.1-65.71c46.45-40.75,99.38-79.82,113.85-79.82h.14c5.57.1,7.95,1.36,8.42,2.01,1,1.36.86,5.67.13,8.15l-5.48,16.93,17.53,3.08c5.69,1,17.52,3.08,20.38,7.26,1.34,1.95,1.49,5.91.45,11.16Z"/>
        </g>
        <g>
          <path class="cls-9" d="m1303.51,1275.77l8.34,9.84,8.34,9.84c.95-.81,23.7-20.32,51.28-62.69l-21.63-14.07c-25.18,38.7-45.94,56.74-46.34,57.09Z"/>
          <polygon class="cls-9" points="1303.49 1275.79 1311.85 1285.6 1303.51 1275.77 1303.49 1275.79"/>
        </g>
        <g>
          <g>
            <path class="cls-8" d="m720.22,1452.74c-115.23-55.04-141.03-137.59-151.35-178.87-10.32-41.28,1.72-73.95-44.72-99.75-46.44-25.8-74.81,33.23-74.81,33.23-90.79-6.24-134.15,94.24-136.73,126.71-56.76,23.22-90.29,95.45-72.64,146.47,17.65,51.01,178.42,225.03,482.83,226.7,304.42,1.67,495.32-179.68,536.6-246.75l-128.13-93.32c-110.07,131.13-295.82,140.61-411.05,85.58Z"/>
            <g class="cls-6">
              <path class="cls-1" d="m578.7,1317.68l-14.33-5.99s-35.28-16.4-38.45-18.03c18.31,34.99,33.6,89.98,125.06,156.44,91.46,66.45,198.1,70.29,298.35,50.51,100.25-19.79,174.83-85.57,174.83-85.57l-10.36-23.85s-90.76,96.86-229.1,92.89c-138.34-3.96-276.26-78.9-306-166.4Z"/>
            </g>
            <g class="cls-6">
              <path class="cls-1" d="m269.92,1526.07l13.72-12.71s-36.94-49.97,11-109.82c11.82,31.74,61.22,75.93,124.88,77.7-43.4-25.32-81.52-54.65-77.3-96.74,4.22-42.09,25.19-95.18,62.43-109.27,6.29,38.8,21.01,188.9,214.88,243.48-44.77-31.84-115.32-89.52-135.51-125.17-20.19-35.66-53.03-141.95-34.67-186.19-38.4,4.77-148.61,31.05-137.17,133.12-41.84,19.99-119.23,68.64-42.25,185.6Z"/>
            </g>
            <g class="cls-5">
              <path class="cls-9" d="m438.74,1814.06c-36.12,80.89-45.3,139.18-43.29,190.01,2.01,50.83-56.46,103.84-139.02,107.44-82.55,3.59-149.95-63.68-151.51-107.44-3.28,62.49.31,142.58,96.5,182.94,96.2,40.37,166.36,8.28,183.78,0,17.42-8.28,29.05-33.3,29.05-33.3,0,0,73.24-22.18,61.76-87.15-11.48-64.97-45.88-113.13-22.66-157.85,13.68-26.34,75.01-128.72,116.07-209.43-14.55-9.51-38.41-19.23-53.95-27.01-24.09,36.79-50.01,83.2-76.74,141.78Z"/>
            </g>
            <path class="cls-9" d="m1119.41,1357.21c-104.7,124.73-280.37,135.12-392.52,81.56-102.64-49.02-130.77-119.73-143-168.66-2.49-9.95-3.58-19.66-4.64-29.04-3.19-28.35-6.49-57.66-47.58-80.49-15.71-8.72-32.18-10.73-47.64-5.82-21.75,6.92-36.32,25.44-43.53,36.83-86.31.48-133.29,86.6-142.01,131.91-57.67,28.99-92.88,105.08-73.15,162.09,11.52,33.3,63.41,92.05,140.33,139.93,70.39,43.83,189.48,96.26,357.05,97.18,1.41.01,2.77.01,4.17.01,294,0,494.49-170.91,545.69-254.13l7.51-12.19-151.39-110.26-9.29,11.07Zm118.7,106.91c-47.35,63.08-222.81,227.64-511.06,227.64-1.38,0-2.78,0-4.17-.01-295.64-1.62-452.61-170.94-468.29-216.28-15.44-44.63,16.2-107.57,63.88-127.08l8.82-3.61.76-9.49c1.88-23.74,36.34-112.74,113.22-112.74,2.3,0,4.64.08,7.01.24l10.47.72,4.55-9.45c2.98-6.19,14.9-24.95,30.12-29.79,7.34-2.33,14.94-1.22,23.23,3.38,27.15,15.08,28.92,30.82,31.85,56.89,1.11,9.91,2.38,21.14,5.36,33.09,7.92,31.69,32.03,128.1,159.7,189.08,119.29,56.97,304.45,47.64,420.04-78.71l104.52,76.12Z"/>
          </g>
          <path class="cls-9" d="m967.67,1522.48s129.12-21.02,214.59-116.59l-19.23-17.2c-80.39,89.87-195.37,133.78-195.37,133.78Z"/>
          <path class="cls-9" d="m1016.34,1576.97s124.76-39.36,214.39-135.45l-18.87-17.59c-85.86,92.04-195.53,153.04-195.53,153.04Z"/>
          <path class="cls-9" d="m503.99,1399.24c-55.54-84.94-49-173.88-43.42-185.55l-.1.19-22.26-13.05c-10.43,17.8-17.06,118.85,44.19,212.53,60.92,93.17,200,131.21,231.9,133.09,0,0-126.01-33.09-210.31-147.21Z"/>
          <path class="cls-9" d="m328.21,1333.25l-24.71-7.4c-3.81,12.71.15,44.28,17.99,80.43,37.42,71.14,98.02,74.97,98.02,74.97-80.57-56.95-94.59-136.16-91.3-147.99Z"/>
          <g class="cls-6">
            <path class="cls-1" d="m501.08,1559.43s45.3,82.68,221.16,88.68c74.78,2.55,140.51-58.11,140.51-58.11-195.11,57.85-360.02-29.68-361.66-30.57Z"/>
          </g>
          <path class="cls-9" d="m501.08,1559.43s69.81,73.2,221.16,73.2c74.82,0,140.51-42.63,140.51-42.63-195.11,57.85-360.02-29.68-361.66-30.57Z"/>
        </g>
        <g>
          <g>
            <circle class="cls-11" cx="1230.88" cy="1367.16" r="113.37" transform="translate(-606.21 1270.8) rotate(-45)"/>
            <g class="cls-5">
              <path class="cls-9" d="m1230.74,1441.53c-58.08-1.09-89.28-59.44-93.51-76.91,0,51.72,41.93,93.65,93.65,93.65s93.65-41.93,93.65-93.65c-12.68,39.71-42.08,77.88-93.8,76.91Z"/>
            </g>
            <path class="cls-9" d="m1230.88,1240.89c-69.62,0-126.27,56.64-126.27,126.27s56.65,126.27,126.27,126.27,126.27-56.64,126.27-126.27-56.64-126.27-126.27-126.27Zm0,226.75c-55.4,0-100.47-45.07-100.47-100.47s45.07-100.47,100.47-100.47,100.47,45.07,100.47,100.47-45.07,100.47-100.47,100.47Z"/>
          </g>
          <circle class="cls-8" cx="1230.88" cy="1367.16" r="65.57" transform="translate(-128.73 127.94) rotate(-5.65)"/>
          <g class="cls-5">
            <path class="cls-9" d="m1230.88,1402.11c-29.14,0-44.71-15.85-52.76-34.95,0,29.14,23.62,52.76,52.76,52.76s52.76-23.62,52.76-52.76c-9.76,23.4-23.62,34.95-52.76,34.95Z"/>
          </g>
          <g class="cls-5">
            <path class="cls-9" d="m443.18,1240.89s161.18,145.83,514.29,141.09c353.11-4.74,446.26-124.91,446.26-124.91l-66.08-61.75s-189.75,126.91-395.71,126.22c-317.5-1.06-463.2-150.85-463.2-150.85l-35.56,70.2Z"/>
          </g>
        </g>
      </g>
    </g>
  </g>
  <g>
    <path class="cls-1" d="m902.12,15.48c-371.4,0-662.15,302.54-662.15,663.01s295.92,637.21,667.31,637.21c438.57,0,667.31-287.06,667.31-647.53S1273.51,15.48,902.12,15.48Z"/>
    <g class="cls-5">
      <path class="cls-9" d="m913.54,1044.06c-348.63,0-521.44-139.61-621.56-363.12,0,338.37,277.77,598.15,626.4,598.15,411.68,0,626.4-269.46,626.4-607.84-62.28,199.23-282.62,372.81-631.25,372.81Z"/>
    </g>
    <path class="cls-9" d="m902.12,0C528.47,0,224.49,304.37,224.49,678.49s299.92,652.69,682.79,652.69c211.9,0,388.01-66.86,509.29-193.36,113.5-118.38,173.5-280.79,173.5-469.65C1590.07,299.74,1281.46,0,902.12,0Zm5.16,1300.22c-365.51,0-651.83-273.1-651.83-621.73S545.54,30.96,902.12,30.96s656.99,285.85,656.99,637.21c0,383.96-255.86,632.05-651.83,632.05Z"/>
  </g>
  <path class="cls-9" d="m865.29,1255.64c-292.01-66.86-412.22-314.19-442.11-388.4l-28.72,11.56c31.31,77.73,157.28,336.8,463.91,407.01,64.91,14.86,129.96,22.33,194.2,22.33,23.21,0,46.32-.98,69.27-2.93l-2.62-30.85c-83.28,7.1-168.72.79-253.93-18.73Z"/>
  <path class="cls-9" d="m705.79,185.11c-176.31,95.87-299.83,263.76-357.2,485.51l29.97,7.75c55.17-213.23,173.44-374.4,342.02-466.07,198.75-108.07,418.72-96.9,558.33-50.4,9.19,3.06,32.22,12.12,53.58,24.51l15.53-26.79c-20.44-11.85-45.09-22.35-59.33-27.09-145.76-48.55-375.44-60.24-582.9,52.58Z"/>
  <path class="cls-9" d="m1246.74,216.7c-226.83-66.75-666.24,3.44-787.49,472.11l30.45,182.09c35.76,88.79,147.11,290.01,394.99,346.77,231.13,52.92,458.73-7,566.31-144.68,6.75-9.11,13.25-18.4,19.45-27.9.64-1.03,1.34-2.03,1.97-3.07,67.73-105.26,102.17-234.02,102.17-373.85,0-75.85-13.38-148.66-37.89-216.38-10.61-27.29-76.04-172.14-289.96-235.09Z"/>
  <path class="cls-2" d="m1544.79,671.25c-62.28,199.23-282.62,372.81-631.25,372.81-149.1,0-265.96-25.61-358.81-72.32,60.55,93.32,167.19,204.2,341.08,244.01,118.71,27.18,236.45,24.53,337.52-3.08,205.59-100.21,311.46-303.82,311.46-541.42Z"/>
  <g>
    <path class="cls-7" d="m686.68,129.29c-51.6,12.9-90.29,46.44-90.29,46.44l-24.51,50.31s36.12,30.96,113.51,15.48c77.39-15.48,127.29-99.32,127.29-99.32,0,0-74.41-25.8-126-12.9Z"/>
    <g class="cls-6">
      <path class="cls-1" d="m631.94,144.94l-6.02,25.37s.99,8.41,4.1,11.18c9.23-7.74,80.6-46.88,159.71-24.52,10.32-10.31,11.2-18.41,11.2-18.41,0,0-84.72-32.74-169,6.38Z"/>
    </g>
    <g class="cls-5">
      <path class="cls-9" d="m626.06,166.01s-5.29,23.22,27.17,23.22,90.94-18.94,121.03-32.26c-6.88,10.76-38.62,38.79-80.37,66.48-30.56-9.29-84.74-10.15-84.74-10.15l16.9-47.3Z"/>
    </g>
    <path class="cls-9" d="m683.55,116.78c-53.96,13.49-93.94,47.75-95.61,49.2l-1.99,1.73-30.03,61.64,7.57,6.49c1.34,1.15,27.48,22.91,80.46,22.91,13.03,0,27.67-1.32,43.97-4.58,82.07-16.42,133.69-101.75,135.85-105.38l8.1-13.6-14.96-5.18c-3.19-1.11-78.66-26.9-133.36-13.23Zm-.69,112.09c-50.11,10.03-80.71-.49-94.35-7.52l18.24-37.44c8.18-6.56,41.45-31.7,83.06-42.1,33.33-8.33,78.43,1.25,102.28,7.7-17.24,23.34-56.78,68.87-109.23,79.36Z"/>
  </g>
  <g>
    <path class="cls-7" d="m583.49,214.43s-79.97,46.44-18.06,77.39c61.92,30.96,157.37,20.64,199.1,0-52.44-99.32-181.04-77.39-181.04-77.39Z"/>
    <g class="cls-6">
      <path class="cls-1" d="m610.58,214.71l.24,22.55s37.79.02,68.42,11.95c30.64,11.93,52.26,23.58,66.6,36.46.15-7.11-18.35-39.06-55.53-55.82-37.19-16.76-79.73-15.14-79.73-15.14Z"/>
    </g>
    <g class="cls-5">
      <path class="cls-9" d="m610.87,229.22s-4.62,15.83,16.07,29.52c20.69,13.69,106.47,21.47,106.47,21.47,0,0-48.37,21.89-142.53,2.54-14.19-4.51-14.83-15.44-14.83-15.44l34.83-38.09Z"/>
    </g>
    <path class="cls-9" d="m581.32,201.71l-2.3.39-2.01,1.17c-5.02,2.91-48.97,29.38-47.97,61.47.49,15.71,10.79,28.71,30.62,38.62,30.1,15.05,66.65,20.93,101.76,20.93,43.55,0,84.88-9.06,108.83-20.91l11.87-5.87-6.18-11.71c-56.15-106.36-193.24-84.33-194.61-84.09Zm-10.12,78.57c-7.35-3.67-16.15-9.49-16.37-16.34-.37-11.39,18.81-28.28,33.08-37.12,15.81-2.05,110.73-11.11,157.93,58.85-43.83,15.55-122.52,20.68-174.64-5.38Z"/>
  </g>
  <g>
    <path class="cls-7" d="m499.65,175.73c-47.45,57.19-47.73,135.63-47.73,135.63l99.32-12.1c83.84-73.83,59.34-186.7,59.34-186.7,0,0-63.48,5.99-110.93,63.18Z"/>
    <g class="cls-6">
      <path class="cls-1" d="m472.85,219.76l7.51,15.36s2.25,1.84,11.56,6.57c6.3-18.92,24.79-71.24,100.46-103.13,3.44,14.12.94,70.82-4.48,88.26,13.93-22.11,19.8-84.74,22.67-114.27-29.37,7.88-105.26,49.64-137.73,107.2Z"/>
    </g>
    <g class="cls-5">
      <path class="cls-9" d="m554.82,267.31s26.58-39.28,36.06-85.82c-18.7,19.78-63.42,91.83-113.3,51.5-12.04,15.57-11.76,38.79-11.76,38.79l89-4.48Z"/>
    </g>
    <path class="cls-9" d="m620.76,98.64l-11.39,1.08c-2.81.26-69.36,7.19-119.65,67.78-49.84,60.06-50.69,140.43-50.7,143.82l-.05,14.62,117.8-14.35,3-2.64c88.51-77.94,64.48-194.21,63.41-199.12l-2.43-11.18Zm-75.12,188.31l-79.81,9.73c2.56-24.32,11.65-74.02,43.75-112.71,31.35-37.78,70.7-51.54,90.16-56.27,3.07,29.53,4.22,105.41-54.1,159.25Z"/>
  </g>
  <g>
    <path class="cls-7" d="m518.99,267.31c-60.29-.65-110.17,44.05-110.17,44.05l-1.17,50.12c97.62,34.83,218.4-34.83,218.4-34.83,0,0-46.77-58.68-107.06-59.34Z"/>
    <g class="cls-6">
      <path class="cls-1" d="m471.66,278.23l-5.83,13.22s-3.85,7.26-1.05,13.14c14.96-6.15,66.98-31.14,142.66,21.34-3.87-10.72-34.2-61.89-135.77-47.7Z"/>
    </g>
    <g class="cls-5">
      <path class="cls-9" d="m447.4,298.58l18.43-7.13s-11.62,21.9,24.38,32.84c30.96,9.41,100.67,0,100.67,0,0,0-82.46,28.58-119.22,27.48-41.28-6.26-44.6-9.04-44.6-9.04l20.34-44.15Z"/>
    </g>
    <path class="cls-9" d="m519.13,254.41c-64.54-.64-116.73,45.38-118.92,47.34l-4.16,3.73-1.51,65.01,8.78,3.13c21.16,7.55,43.16,10.56,64.81,10.56,82.79,0,160.3-44.01,164.37-46.36l12.99-7.49-9.34-11.72c-2.07-2.59-51.35-63.49-117.01-64.2Zm-98.36,97.73l.8-34.59c12.56-9.9,51.99-37.85,97.28-37.34,37.44.41,70,26.87,86.2,42.76-32.64,15.74-114.25,49.14-184.28,29.17Z"/>
  </g>
  <path class="cls-7" d="m342.28,401.46l55.06-21.93s85.54-77.39,54.59-202.52c-54.59,24.51-138.02,105.77-109.64,224.44Z"/>
  <g class="cls-6">
    <path class="cls-1" d="m347.41,308.91l4.78,13.03s3.89,6.25,8.96,8.14c2.06-9.61,24.63-84.44,75.58-118.13,5.16,10.17,6.69,44.52-1.65,83.45,15.84-22.33,17.78-90.7,13.26-113.92-26.44,17.74-88.35,64.91-100.93,127.42Z"/>
  </g>
  <g class="cls-5">
    <path class="cls-9" d="m347.79,306.27s-.49,20.98,18.43,25.71c18.92,4.73,59.2-57.19,72.38-90.29-3.59,28.81-16.92,73.95-36.27,103.62-14.19,6.02-64.53,30.83-64.53,30.83l9.98-69.87Z"/>
  </g>
  <path class="cls-9" d="m460.73,158.92l-14.09,6.33c-63.2,28.38-146.49,115.5-116.91,239.21l3.47,14.5,71.07-28.3,1.72-1.56c3.73-3.37,90.89-84.08,58.45-215.18l-3.71-15Zm-70.48,209.55l-38.4,15.29c-16.36-99.46,50.02-162.7,90.95-187.35,16.83,98.6-41.71,161.4-52.56,172.05Z"/>
  <g>
    <path class="cls-7" d="m373.23,362.77c-58.32,28.79-84.25,81.26-84.25,81.26l24.92,7.74c110.93,20.64,202.96-38.7,219.02-58.24-9.3-18.25-101.36-59.55-159.68-30.76Z"/>
    <g class="cls-6">
      <path class="cls-1" d="m350.68,369.83v23.41s5.34,6.27,12.81,11.2c10.47-7.54,44.13-50.31,151.13-11.3-8.23-16.02-97.36-59.85-163.94-23.32Z"/>
    </g>
    <g class="cls-5">
      <path class="cls-9" d="m346.86,383.76s1.73,19.59,30.97,25.61c29.24,6.02,103.99-9.38,120.39-12.81-22.36,11.08-67.51,34.07-138.45,41.18-31.82-4.3-42.82-9.27-42.82-9.27l29.91-44.71Z"/>
    </g>
    <path class="cls-9" d="m367.53,351.2c-61.53,30.37-88.97,84.81-90.11,87.12l-6.7,13.55,39.35,12.22,1.47.36c16.93,3.15,33.4,4.53,49.25,4.53,95.17,0,167.84-49.92,182.09-67.27l5.36-6.52-3.83-7.52c-13.34-26.19-113.28-67.87-176.88-36.47Zm-50.53,88.02l-8.41-2.61c11.17-16.4,34.19-44.42,70.37-62.28,44.52-21.97,113.11,3.12,135.67,18.82-27.18,21.79-105.2,62.96-197.62,46.07Z"/>
  </g>
  <g>
    <path class="cls-7" d="m231.34,478.86l64.5-22.79c19.35-18.49,64.5-78.4,28.38-194.2,0,0-108.35,46.73-92.87,216.99Z"/>
    <g class="cls-6">
      <path class="cls-1" d="m250.99,351.8l2.04,19.96,3.12,16.72s21.03-66.32,55.02-89.9c7.54,29.96,13.09,75.62,5.79,98.02,13.36-18.4,16.05-90.64,3.42-124.82-24.24,12.25-69.39,80.02-69.39,80.02Z"/>
    </g>
    <g class="cls-5">
      <path class="cls-9" d="m251.42,355.63s1.96,34.91,10.01,45.84c8.05,10.92,41.56,2.75,52.75-54.86,2.59,17.63.33,37.84-14.66,75.24-19.29,4.3-69.17,19.35-69.17,19.35l21.07-85.56Z"/>
    </g>
    <path class="cls-9" d="m332.27,244.35l-13.16,5.67c-4.78,2.06-116.75,52.47-100.61,230l1.5,16.52,82.75-29.24,2-1.91c17.43-16.66,71.24-80.84,31.78-207.37l-4.27-13.68Zm-43.44,200.51l-45.77,16.17c-5.05-112.78,47.9-162.54,73.29-179.8,25.29,97.62-12.01,147.81-27.51,163.63Z"/>
  </g>
  <g>
    <path class="cls-7" d="m314.42,432.74c-63.98-11.29-111.45,35.8-111.45,35.8,0,0-5.16,52.89,26.86,65.79,93.94,30.96,189.84-46.44,189.84-46.44,0,0-41.28-43.86-105.25-55.15Z"/>
    <g class="cls-6">
      <path class="cls-1" d="m231.37,471.29c26.93-10.32,76.68-35.17,165.96,20.47,6.72.6,15.75-5.45,15.75-5.45,0,0-84.6-79.09-178.6-36.09-.27,11.61-3.12,21.07-3.12,21.07Z"/>
    </g>
    <g class="cls-5">
      <path class="cls-9" d="m231.37,463.17s-4.19,26.82,50.06,33.38c54.26,6.56,100.69-10.23,100.69-10.23,0,0-61.41,45.95-135.62,39.97-12.21-4.07-29.6-25.05-29.6-25.05l14.46-38.06Z"/>
    </g>
    <path class="cls-9" d="m316.66,420.04c-69.77-12.3-120.64,37.23-122.78,39.34l-3.3,3.28-.45,4.63c-.25,2.55-5.63,62.68,34.88,79l.78.29c17.19,5.67,34.35,8.02,51,8.02,79.66,0,147.56-53.91,150.98-56.67l10.83-8.74-9.54-10.14c-1.8-1.92-44.99-47.11-112.4-59.01Zm-82.36,102.18c-17.5-7.42-18.86-36.23-18.69-47.7,11.43-9.65,49.21-37.42,96.56-29.07,40.34,7.12,71.38,28.47,86.98,41.27-27.74,18.44-97.54,57.42-164.85,35.5Z"/>
  </g>
  <g>
    <path class="cls-7" d="m191.36,509.82c1.29,20.64,11.3,24.51,11.3,24.51,0,0,46.74-99.32,20.94-207.67-27.09,16.77-85.6,93.8-32.25,183.17Z"/>
    <g class="cls-6">
      <path class="cls-1" d="m182.5,481.18l8.15-2.32s-2.43-43.69,5.74-70.77c8.17-27.09,13.76-34.4,13.76-34.4,0,0,5.5,37.89,4.04,73.12,9.29-39.15,6.71-112.68,6.71-112.68,0,0-61.84,52.82-38.39,147.05Z"/>
    </g>
    <path class="cls-9" d="m232.01,306.27l-15.2,9.41c-29.01,17.96-93.89,101.21-38.07,198.13,2.62,24.86,16.42,31.44,19.26,32.54l11.21,4.33,5.12-10.87c1.99-4.22,48.36-104.69,21.82-216.16l-4.14-17.39Zm-30.74,194.95c-38.08-65.83-10.37-123.36,13.93-150.28,9.35,61.4-3.66,118.09-13.93,150.28Z"/>
  </g>
  <g>
    <path class="cls-7" d="m192.65,491.76c-27.09,47.73-11.61,86.42,10.01,126.41,40.97-30.96,45.45-76.53,45.45-76.53,0,0-32.01-44.48-55.47-49.88Z"/>
    <g class="cls-5">
      <path class="cls-9" d="m212.79,577.06s-16.27-36.12,0-64.5c13.69,6.02,33.72,37.79,33.72,37.79l-33.72,26.7Z"/>
    </g>
    <path class="cls-9" d="m195.54,479.18l-9.37-2.15-4.74,8.36c-30.82,54.31-12.02,98.4,9.88,138.91l7.14,13.21,11.98-9.05c44.96-33.97,50.31-83.47,50.51-85.56l.48-4.84-2.84-3.95c-5.82-8.09-36.22-48.74-63.04-54.91Zm10.96,118.43c-14.13-28.6-22.18-56.38-7.9-89.04,11.52,7.63,26.03,23.47,35.88,36.35-2.01,9.65-8.58,32.75-27.98,52.69Z"/>
  </g>
  <g>
    <g>
      <path class="cls-7" d="m1388.39,138.32c-54.18-37.41-136.73-27.09-162.53-12.64,34.83,50.56,100.61,75.85,139.31,69.49,0,0,77.39-19.44,23.22-56.85Z"/>
      <g class="cls-6">
        <path class="cls-1" d="m1242.07,127.32l7.93,7.58s70.33-3.28,117.19,13.06c-5.59-12.9-7.17-22.61-7.17-22.61,0,0-81.95-13.34-117.95,1.98Z"/>
      </g>
      <g class="cls-5">
        <path class="cls-9" d="m1260.55,137.2c12.9,11.61,45.15,35.31,92.87,42.38,18.92.19,26.14-8.36,26.14-8.36l-18.82-24.66s-2.59,12.55-25.38,10.41c-22.79-2.14-74.81-19.77-74.81-19.77Z"/>
      </g>
      <path class="cls-9" d="m1395.72,127.71c-58.77-40.58-145.92-30.21-176.16-13.28l-12.35,6.92,8.03,11.65c34.11,49.52,93.99,76.03,137.31,76.03,5.16,0,10.09-.38,14.71-1.14l1.05-.22c7.83-1.97,47.09-13.08,51.77-38.92,2.58-14.29-5.61-28.1-24.37-41.05Zm-33.18,54.82c-31.54,4.86-83.32-14.73-115.84-51.19,31.37-8.8,92.18-11.53,134.36,17.6,11.53,7.96,13.97,13.44,13.64,15.22-1.07,5.94-18.03,14.67-32.16,18.37Z"/>
    </g>
    <g>
      <path class="cls-7" d="m1474.81,311.17l51.6,26.13s18.06-23.26,19.35-69.84c1.29-46.58-27.09-77.54-50.31-100.76-23.22-23.22-34.5,78.55-20.64,144.47Z"/>
      <g class="cls-6">
        <path class="cls-1" d="m1485.02,175.47l8.58,21.17s22.05,19.44,28.65,43.64c6.6,24.2,11.43,45.1-.01,77.64,14.78-19.91,20.8-54.98,14.35-77.64-6.45-22.67-36.5-61.92-47.06-69.38-1.03-2.92-4.52,4.58-4.52,4.58Z"/>
      </g>
      <g class="cls-5">
        <path class="cls-9" d="m1493.6,196.64s8.35,18.31,15.78,34.69c7.43,16.38,18.23,35.85,16.03,60.24-2.19,24.39-12.47,30.15-12.47,30.15l-10.83-12.88s5.24-53.39-20.13-74.88c7.74-19.78,11.61-37.31,11.61-37.31Z"/>
      </g>
      <path class="cls-9" d="m1479.76,152.78c-28.2,15.27-27.4,114.34-17.57,161.05l1.27,6.06,66.61,33.73,6.53-8.4c.84-1.09,20.66-27.17,22.05-77.39,1.51-54.64-34.65-90.81-54.08-110.23-7.4-7.41-16.67-9.2-24.81-4.8Zm41.56,167.49l-35.07-17.76c-8.9-48.76-3.53-105.24,3.8-122.92,22.79,23.21,43.86,49.41,42.8,87.51-.71,25.54-6.91,43.32-11.54,53.17Z"/>
    </g>
    <g>
      <path class="cls-7" d="m1360.01,71.25c2.58,60.63,16.77,89,47.63,123.92l69.76,50.68c30.55-95.88-68.36-161.7-117.38-174.6Z"/>
      <g class="cls-6">
        <path class="cls-1" d="m1367.19,76.15l8.5,25.38s19.99,6.43,44.87,28.79c24.88,22.36,46.65,52.52,41.36,79.36,10.18,13.94,17.81,15.1,17.81,15.1,0,0,4.97-53.66-30.14-90.83-35.1-37.17-82.4-57.81-82.4-57.81Z"/>
      </g>
      <g class="cls-5">
        <path class="cls-9" d="m1382.24,105.82s3.98,34.03,38.32,73.77c23.16,14.37,41.36,30.1,41.36,30.1,0,0-1.43-17.62-3.58-25.92-8.17-.99-53.32-38.82-76.1-77.95Z"/>
      </g>
      <path class="cls-9" d="m1363.3,58.77l-16.91-4.45.74,17.47c2.81,66.05,19.33,96.25,50.85,131.91l.94,1.06,85.35,62.01,5.42-17.02c11.08-34.78,7.78-68.63-9.79-100.62-28.14-51.2-85.15-82.1-116.59-90.37Zm105.94,165.21l-52.87-38.41c-24.23-27.61-37.61-50.73-42.13-95.61,27.11,11.78,63.64,36.31,83.04,71.61,10.99,20.01,14.99,40.93,11.96,62.41Z"/>
    </g>
    <g>
      <path class="cls-7" d="m1366.46,185.77c-55.47,9.31-82.55,60.08-82.55,60.08,0,0,46.32,23.65,89,21.46,42.69-2.19,89-43.86,89-43.86-18.06-21.93-39.99-47-95.45-37.69Z"/>
      <g class="cls-6">
        <path class="cls-1" d="m1309.14,223.46l-5.93,16.82s28.89-24.61,61.83-30.59c32.94-5.98,55.25-1.03,73.63,6.88-6.55-14.87-45.25-31.21-74.06-26.48-28.81,4.73-55.47,33.37-55.47,33.37Z"/>
      </g>
      <g class="cls-5">
        <path class="cls-9" d="m1313.88,238.39s31.25,9.26,59.15,7.46,48.25-15.56,70.57-29.2c-14.93-1.62-74.92,23.86-129.72,21.74Z"/>
      </g>
      <path class="cls-9" d="m1364.33,173.05c-61.02,10.24-90.57,64.43-91.8,66.73l-6.18,11.59,11.7,5.97c1.93.98,45.6,23.01,89.22,23.01,2.1,0,4.21-.05,6.31-.16,46.72-2.39,94.94-45.32,96.97-47.15l9.18-8.26-7.85-9.53c-17.36-21.08-43.59-52.94-107.55-42.21Zm7.93,81.38c-25.6,1.3-53.12-7.77-69.05-14.15,10.85-14.01,32.76-36.31,65.39-41.79,41.28-6.94,60.11,6.73,75.01,23.32-16.74,12.79-46.17,31.34-71.35,32.63Z"/>
    </g>
    <g>
      <path class="cls-7" d="m1461.91,223.46c-26.11,19.58-63.21,50.31-73.52,108.35,19.35,10.32,74.69,5.16,94.75-7.74,20.05-12.9,24.14-40.55,17.47-56.61,0,0-7.15-32.23-38.7-44Z"/>
      <g class="cls-6">
        <path class="cls-1" d="m1401.58,313.06l1.85,10.13s14.06-22.61,30.4-42.81c16.34-20.2,30.78-30.45,30.78-30.45,0,0,24.61,9.72,25.29,41.59,5.41-17.58-1.62-39.59-27.99-60.18-16.04,12.94-60.33,81.74-60.33,81.74Z"/>
      </g>
      <g class="cls-5">
        <path class="cls-9" d="m1414.16,317.9s58.63,1.61,68.98-21.93c4.22-11.93,0-24.83,0-24.83,0,0-10.93,30.31-68.98,46.76Z"/>
      </g>
      <path class="cls-9" d="m1466.43,211.37l-6.61-2.46-5.64,4.23c-21.64,16.22-66.68,49.99-78.48,116.42l-1.64,9.23,8.27,4.41c9.11,4.85,23.16,6.97,38.41,6.97,25.88,0,55.18-6.1,69.39-15.24,25.2-16.21,31.37-49.43,22.79-71.46-1.81-6.79-12.1-39.25-46.48-52.08Zm9.73,101.85c-14.02,9.02-52.36,13.6-72.73,9.97,10.13-39.81,34.29-64.6,60.19-84.8,19.04,10.47,24.13,30.72,24.41,31.92l.67,2.09c4.48,10.8,1.87,31.55-12.54,40.82Z"/>
    </g>
    <g>
      <path class="cls-7" d="m1522.54,353.74c-2.58,21.93,12.9,92.87,12.9,92.87,29.67-5.16,46.44-37.33,46.44-73.48s-22.77-92.75-22.77-92.75c0,0-33.99,51.43-36.57,73.36Z"/>
      <g class="cls-6">
        <path class="cls-1" d="m1547.77,316.07c7.74,15.48,19.71,55.91,7.74,105.77,15.05-3.01,21.93-34.85,21.07-51.82-.86-16.97-17.88-77.6-17.88-77.6l-10.93,23.65Z"/>
      </g>
      <path class="cls-9" d="m1561.9,252.76l-13.55,20.51c-5.96,9.02-35.82,55.19-38.61,78.96-2.76,23.4,11.47,89.65,13.11,97.13l2.64,12.08,12.18-2.12c34.17-5.94,57.12-40.58,57.12-86.19,0-38.22-22.73-95.16-23.7-97.56l-9.18-22.81Zm-16.85,176.68c-5.33-26.8-11.11-62.14-9.69-74.19,1.09-9.23,10.66-28.11,20.61-45.24,6.06,18.71,13.02,44.29,13.02,63.12,0,22.36-7.5,46.2-23.93,56.31Z"/>
    </g>
    <g>
      <path class="cls-7" d="m1468.77,341.21c-18.47,22.84-17.18,77.02-17.18,77.02,0,0,54.26,14.19,94.21,0,0,0-2.62-57.39-19.39-80.93-16.77-23.55-39.17-18.93-57.64,3.92Z"/>
      <g class="cls-6">
        <path class="cls-1" d="m1461.91,394.97l2.7,12.86s10.64-40.59,20.4-52.52c9.76-11.93,24.28-15.77,31.54,1.79,7.25,17.56,12.32,40.6,12.04,54.55,5.53-1.2,10.57-2.81,10.57-2.81,0,0-6.65-60.42-22.61-74.23-15.97-13.81-32.41-1.88-39.83,9.41-7.42,11.29-14.81,50.95-14.81,50.95Z"/>
      </g>
      <g class="cls-5">
        <path class="cls-9" d="m1471.67,401.64s33.01-12.64,44.88-33.84c4.13,6.32,8.15,18.36,9.15,33.84-7.6,2.15-18.78,4.73-54.03,0Z"/>
      </g>
      <path class="cls-9" d="m1536.92,329.82c-11.98-16.83-25.54-20.7-34.8-20.98-15.2-.52-30.16,7.93-43.38,24.27-20.83,25.78-20.18,79.4-20.03,85.43l.23,9.71,9.4,2.46c1.56.41,26.21,6.72,55.17,6.72,15.26,0,31.71-1.75,46.62-7.05l9-3.2-.44-9.55c-.28-6.26-3.33-61.93-21.77-87.83Zm-72.31,78.01c.68-17.53,3.91-45.79,14.19-58.51,7.71-9.55,16.13-14.97,22.52-14.71,4.98.15,9.89,3.57,14.58,10.16,9.83,13.8,14.55,45.08,16.29,63.98-24.49,5.62-52.96,1.8-67.58-.93Z"/>
    </g>
  </g>
  <g>
    <g>
      <path class="cls-1" d="m387.01,541.76h-98.03v438.57h98.03c65.54,0,118.67-98.18,118.67-219.28s-53.13-219.28-118.67-219.28Z"/>
      <g class="cls-5">
        <path class="cls-9" d="m369.19,940.57h77.95s37.84-32.68,43.86-139.31h-82.55l-39.25,139.31Z"/>
      </g>
      <path class="cls-9" d="m387.02,526.28h-98.03l-15.48,469.53h113.51c75.23,0,134.15-103.12,134.15-234.76s-58.92-234.76-134.15-234.76Zm0,438.57h-82.55v-407.61h82.55c55.94,0,103.19,93.33,103.19,203.81s-47.26,203.81-103.19,203.81Z"/>
    </g>
    <g>
      <ellipse class="cls-1" cx="288.98" cy="761.04" rx="118.67" ry="219.28"/>
      <g class="cls-5">
        <path class="cls-9" d="m289.77,858.54c-47.39,0-73.09-34.47-85.81-73.62,0,87.57,38.42,158.57,85.81,158.57s85.81-70.99,85.81-158.57c-12.72,31.82-38.42,73.62-85.81,73.62Z"/>
      </g>
      <path class="cls-9" d="m288.98,526.28c-75.23,0-134.15,103.12-134.15,234.76s58.92,234.76,134.15,234.76,134.15-103.12,134.15-234.76-58.92-234.76-134.15-234.76Zm0,438.57c-55.94,0-103.19-93.33-103.19-203.81s47.26-203.81,103.19-203.81,103.19,93.33,103.19,203.81-47.26,203.81-103.19,203.81Z"/>
    </g>
  </g>
  <g class="cls-4">
    <ellipse class="cls-1" cx="738.73" cy="633.16" rx="73.95" ry="82.8"/>
  </g>
  <g class="cls-4">
    <path class="cls-1" d="m750.88,821.84c-28.78,6.23-46,39.5-38.46,74.32,7.54,34.81,36.98,57.98,65.76,51.75,28.78-6.23,46-39.5,38.46-74.32-7.54-34.81-36.98-57.98-65.76-51.75Z"/>
  </g>
  <g class="cls-4">
    <path class="cls-1" d="m1197.93,299.26c156.48,186.43,173.71,491.88,168.55,540.04,49.88-49.88,110.07-164.8,60.2-335.38-44.03-150.57-178.87-204.67-228.74-204.67Z"/>
  </g>
</svg>