<?xml version="1.0" encoding="UTF-8"?>
<svg id="Layer_1" data-name="Layer 1" xmlns="http://www.w3.org/2000/svg" viewBox="0 0 2490.01 2939.86">
  <defs>
    <style>
      .cls-1 {
        opacity: .5;
      }

      .cls-2 {
        fill: #220f2d;
      }

      .cls-2, .cls-3, .cls-4, .cls-5 {
        stroke-width: 0px;
      }

      .cls-6 {
        opacity: .2;
      }

      .cls-3 {
        fill: #371a45;
      }

      .cls-4 {
        fill: #fff;
      }

      .cls-7 {
        opacity: .3;
      }

      .cls-5 {
        fill: #0cccff;
      }
    </style>
  </defs>
  <g class="cls-6">
    <ellipse class="cls-3" cx="1495.56" cy="2838.18" rx="978.63" ry="101.68"/>
  </g>
  <g>
    <path class="cls-4" d="m1034.83,2172.33s-117.93,97.69-183.83,92.04c-65.91-5.65-289.99-459.46-357.77-611.98-67.79-152.52-54.61-193.95-30.13-222.2,24.48-28.25,112.45-66.62,112.45-66.62l56.71,10.47,171.67,84.4,252.4,670.36-16.62,35.6"/>
    <g class="cls-7">
      <path class="cls-3" d="m1060.3,2110.05s-117.93,97.69-183.83,92.04c-65.91-5.65-289.99-459.46-357.77-611.98-67.79-152.52-31.4-166.48-6.92-194.72,24.48-28.25,75.6-31.82,75.6-31.82l54.84,15.37,187.17,17.22,252.4,670.36-16.62,35.6"/>
    </g>
    <path class="cls-3" d="m856.5,2280.41c-2.33,0-4.61-.09-6.86-.28-15.46-1.33-51.67-4.43-190.7-259.09-75.68-138.62-149.21-292.57-180.17-362.22-66.25-149.08-59.69-201.97-27.63-238.97,26.07-30.08,108.74-66.68,118.07-70.76,2.89-1.26,6.09-1.63,9.19-1.06l56.71,10.47c1.42.26,2.8.72,4.11,1.36l171.67,84.4c3.6,1.78,6.4,4.86,7.82,8.62l252.41,670.36c1.5,3.98,1.33,8.4-.47,12.26l-16.63,35.6c-.96,2.05-2.29,3.79-3.89,5.19-.8,3.12-2.55,6.02-5.22,8.23-12.18,10.09-117.88,95.91-188.42,95.91Zm-279.03-900.4c-26.4,11.85-85.33,40.8-102.43,60.54-18.76,21.66-33.27,57.17,32.63,205.42,30.64,68.95,103.48,221.47,178.56,359.07,127.05,232.84,162.5,243.17,166.12,243.58,48.45,4.23,140.25-61.94,172.04-88.17.24-.92.57-1.84.99-2.74l13.81-29.57-247.86-658.27-164.09-80.68-49.76-9.18Z"/>
    <path class="cls-4" d="m1293.01,1120.23s160.56,1.15,358.9,110.37l67.79-134.32s-26.36-85.36,0-130.56c26.36-45.19,66.53-51.47,66.53-51.47,0,0,26.36-66.53,131.81-46.45,105.45,20.09,164.45,128.03,166.33,179.51s-22.6,128.68-77.2,149.39c0,0-62.14,203.37-184.54,327.65-37.66,30.13-144.99,16.95-144.99,16.95l26.36,48.96s480.17-15.06,493.35-20.71c13.18-5.65,67.79-124.28,137.46-131.81,69.67-7.53,141.23,47.08,139.34,135.58-1.88,88.5-120.51,273.04-163.82,306.93s-542.31,135.58-638.34,190.19c-96.03,54.61-126.16,116.75-150.64,218.43-24.48,101.68-13.18,474.52-33.89,506.53-20.71,32.01-329.53,58.37-410.5,32.01-80.97-26.36-52.72-133.69,0-154.41,0,0,9.42-269.27-62.14-453.81-71.55-184.54-141.23-263.62-141.23-263.62l-22.13,8.16-56.96-75.32s-116.75,106.7-257.35,94.15c-140.6-12.55-154.41-236.01-94.15-351.5,60.26-115.49,185.79-249.65,185.79-249.65,0,0,459.71-79.04,664.21-261.17Z"/>
    <circle class="cls-5" cx="1373.53" cy="1481.98" r="59.32"/>
    <g>
      <g class="cls-7">
        <path class="cls-3" d="m415.4,1714.93s-1.27,186.02,145.61,173.47c146.88-12.55,283.39-176.69,296.58-209.64,13.18-32.95,51.78-67.79,93.21-62.14,41.43,5.65,8.88-118.99,8.88-118.99,0,0,80.48,76.62,74.87,160.42-5.61,83.79-59.71,80.34-74.87,79.71-15.16-.63-20.18-3.14-32.73,5.65-12.55,8.79-36.58,42.05-54.17,52.72-17.58,10.67-29.94,19.46-29.94,19.46l-39.41,60.82s-18.88,20.4-21.36,22.34c-2.48,1.94-101.58,76.91-198.34,83.81-96.77,6.9-141.64-38.72-164.4-116.97-22.76-78.25-3.92-150.66-3.92-150.66Z"/>
      </g>
      <g class="cls-7">
        <path class="cls-3" d="m1027.75,2773.74s291.49,2.19,321.61-50.53c30.13-52.72,30.13-336.43,0-399.2-30.13-62.77-210.6-73.96-253.58-20.09,0,0-91.08-258.13-189.59-373.86l-31.98,14.83-54.61-83.48s20.49-41.29,28.76-45.44c8.27-4.15,48.9-38.23,55.29-44.39,6.39-6.15,22.66-25.04,22.66-25.04,0,0,14.44-7.2,18.2-6.11,3.77,1.09,34.52,0,34.52,0l20.09-6.44s-60.26,51.47-71.55,73.44c-11.3,21.97,33.46,71.55,32.11,73.44-1.35,1.88-.2,1.88,5.55,3.14,5.76,1.26,55.86-35.4,55.86-35.4l18.22-2.27s63.38,89.77,76.56,89.77,92.42-47.7,92.42-47.7c0,0,162.42,131.94,309.29,94.84,146.88-37.1,215.29-229.07,238.52-217.82,23.22,11.25,3.19,102.83-9.73,139.58-12.92,36.75,510.61-69.32,552.04-100.71,41.43-31.38,171.66-216.52,161.15-297.82,0,0,26.65,46.08-2.6,139.31-29.25,93.23-137.77,232.6-156.65,240.13s-182.75,53.13-317.34,88.84c-134.58,35.71-277.08,78.72-328.55,105.08-51.47,26.36-127.25,105.97-137.23,230.95-9.98,124.98-17.68,374.75-17.68,374.75,0,0,3.76,103.94-15,112.96-18.75,9.02-100.41,31.42-229.19,38-128.78,6.58-179.21-7.37-202.01-21.11-22.8-13.74-25.56-41.66-25.56-41.66Z"/>
      </g>
      <g class="cls-7">
        <path class="cls-3" d="m1015.87,1575.54l34.72-21.06s71.55,161.94,155.66,175.75c84.11,13.81,344.28-129.3,344.28-129.3,0,0,38.08,57.25,34.15,60.34-3.92,3.08-384.86,228.39-386.75,229.33-1.88.94-56.49,29.66-56.49,29.66,0,0-12.18,7.53-11.03,3.77,1.15-3.77-74.8-102.15-74.8-102.15,0,0-4.57-19.06-5.33-20.55-.76-1.48-38.86-58.94-38.86-58.94,0,0,4.21-22.92,6.28-25.53s15.99-25.86,16.42-42.33c.43-16.47-6.7-59.49-8.18-64.15s-10.07-34.83-10.07-34.83Z"/>
      </g>
      <g class="cls-7">
        <path class="cls-3" d="m1320.81,1465.86s18.2,31.49,55.86,34.95c37.66,3.45,56.14-17.24,56.14-17.24,0,0-4.1,61.72-61.19,57.68-57.09-4.04-60.86-59.81-50.81-75.39Z"/>
      </g>
      <g class="cls-7">
        <path class="cls-3" d="m1543.38,1498.44c5.59-2.34,64.59-40,64.59-40l21.97,27.62s-47.34,43.28-49.26,44.81c-1.92,1.53-16.64,0-16.64,0l-20.66-32.42Z"/>
      </g>
      <g class="cls-7">
        <path class="cls-3" d="m1487.83,1298.71s155.92,147.81,258.54,149.06c102.62,1.26,175.85-261.11,180.04-268.64,4.19-7.53,138.78-26.08,157.48-137.95,0,0,3.43,65.65-24.09,106.51-27.52,40.85-50.11,46.5-50.11,46.5l-8.79,17.57s-51.73,128.68-102.44,216.24c-50.71,87.55-69.87,99.92-94.1,106.17-24.23,6.25-102.86,9-105.37,7.12-2.51-1.88-27.51-8.8-31.11-13.93-3.6-5.14-25.21-32.37-25.21-32.37v-13.5l9.25-7.36-77.83-110.47-19.46,8.16-18.91-20.98-47.87-52.13Z"/>
      </g>
      <g class="cls-7">
        <path class="cls-3" d="m1808.16,996.05s55.43,28.82,77.08,29.76c21.65.94,29.19-14.59,29.19-17.42s-35.06-67-35.06-67c0,0,58.12,58.53,97.67,76.41,39.54,17.89,64.96,16.48,65.44,19.3.47,2.82-6.84,21.79-26.71,24.48-19.87,2.69-58.28-.29-72.83-4.34s-25.93-6.05-27.84-4.39-14.41,22.09-46.14,9.76c-31.73-12.33-55.03-52.08-60.8-66.57Z"/>
      </g>
    </g>
    <path class="cls-3" d="m1190.12,2854.02c-48.21,0-92.2-3.17-118.05-11.59-37.95-12.36-60.39-41.95-61.55-81.2-1.19-39.69,20.53-80.5,50.85-98.18.78-48.9.83-277.95-61.29-438.15-56.81-146.51-112.8-226.05-131.68-250.58l-11.46,4.23c-6.53,2.42-13.88.25-18.08-5.3l-46.94-62.08c-35.35,28.01-136.62,97.78-256.16,87.11-47.78-4.27-86.29-30.77-111.38-76.64-48.32-88.34-35.6-220.85,4.61-297.92,60.56-116.06,183.09-247.6,188.27-253.14,2.35-2.52,5.47-4.19,8.86-4.78,4.56-.78,457.64-80.4,656.37-257.39,2.92-2.6,6.83-4.26,10.62-4,6.56.05,159.19,2.32,352,104.54l57.68-114.3c-5.82-21.69-22.13-93.41,3.24-136.9,22.58-38.71,54.45-52.52,69.42-57.08,11.38-19.39,49.64-66.66,145.54-48.4,113.76,21.67,177.11,138.11,179.18,194.46,1.89,51.8-21.88,133.93-80.14,161.65-12.36,37.8-73.9,213.09-186.14,327.06-.44.44-.9.86-1.39,1.25-29.55,23.64-90.18,24.69-127.13,22.77l7.91,14.69c179.61-5.68,441.76-15.1,476.93-19.36,3.18-3.9,9-12.61,13.83-19.84,26.66-39.9,71.29-106.69,129.06-112.93,39.73-4.3,79.66,9.03,109.67,36.55,31.39,28.78,48.14,69.65,47.18,115.08-2.03,95.13-125.98,284.68-169.88,319.05-21.68,16.96-119.04,42.49-276.09,82.72-147.51,37.79-314.71,80.62-364.18,108.76-91,51.74-119.58,110.77-143.09,208.38-12.14,50.42-15.32,174.46-18.12,283.9-3.79,147.92-6.47,209.91-17.87,227.52-16.52,25.53-114.97,38.6-194.65,45.06-36.63,2.97-77.63,4.98-115.96,4.98Zm-316.53-914.27c4.46,0,8.81,1.88,11.87,5.36,2.92,3.32,72.36,83.33,144.11,268.35,71.9,185.43,63.59,448.95,63.2,460.08-.22,6.29-4.16,11.86-10.02,14.16-22.92,9-41.53,42.24-40.62,72.58.54,18.03,7.87,41.69,39.74,52.07,33.66,10.96,118.43,13.15,215.96,5.62,106.51-8.25,166.83-23.28,176.56-31.57,7.63-16.49,10.39-124.14,12.61-210.77,2.98-116.43,6.07-236.82,18.99-290.49,25.06-104.09,57.7-171.32,158.2-228.47,53.15-30.22,215.22-71.74,371.96-111.9,115.73-29.65,246.89-63.25,264.45-76.99,38.56-30.18,155.98-211.15,157.76-294.82.77-36.2-12.35-68.55-36.94-91.1-23.31-21.38-54.26-31.73-84.9-28.42-43.09,4.66-84.13,66.07-106.17,99.07-12.91,19.33-18.81,28.15-26.76,31.56-10.56,4.53-178.48,11.92-499.08,21.98-6.1.18-11.58-3.03-14.42-8.31l-26.36-48.96c-2.8-5.2-2.47-11.53.87-16.41,3.33-4.88,9.1-7.5,14.98-6.78,38.61,4.72,108.29,5.27,132.52-13.08,117.84-120.2,179.36-318.45,179.97-320.44,1.43-4.68,4.94-8.43,9.51-10.16,48.38-18.35,68.59-90.83,67.01-134.03-1.69-46.25-57.41-146.25-153.5-164.56-90.26-17.19-113.28,34.68-114.22,36.9-2.13,5.05-6.78,8.8-12.19,9.64-1.23.21-33.38,6.21-55.32,43.82-18.69,32.04-5.29,96,1.45,117.94,1.2,3.9.84,8.13-.99,11.78l-67.79,134.32c-1.93,3.83-5.34,6.71-9.44,7.98-4.1,1.27-8.54.81-12.3-1.25-171.31-94.33-315.32-106.62-345.57-108.18-197.91,171.61-607.77,250.03-661.9,259.78-20.7,22.63-126.83,140.84-179.79,242.33-40.8,78.19-42.99,198.47-4.9,268.12,20.06,36.69,49.15,56.98,86.45,60.31,131.83,11.8,244.16-89.06,245.28-90.08,3.29-2.99,7.73-4.45,12.1-4.06,4.43.41,8.48,2.66,11.16,6.2l49.88,65.97,11.12-4.1c1.78-.66,3.63-.98,5.46-.98Zm601.16,846.32h0s0,0,0,0Z"/>
    <path class="cls-3" d="m794.49,1904.21c-3.28,0-6.59-1.02-9.42-3.12-7.01-5.21-8.46-15.11-3.25-22.12l60.69-81.6c1.36-1.84,3.11-3.35,5.12-4.45,46.4-25.3,72.89-63.66,73.14-64.04,3.57-5.24,9.95-7.87,16.18-6.62,29.01,5.81,51.67,1.61,65.56-12.14,15.03-14.88,19.91-41.02,13.73-73.61-11.56-60.97-76.41-189.57-193.96-174.32-114.47,14.81-155.48,133.73-155.88,134.93-1.1,3.3-3.28,6.17-6.16,8.12l-158.17,106.71c-7.23,4.89-17.07,2.98-21.95-4.26s-2.97-17.07,4.26-21.95l153.92-103.84c9.94-25.86,58.9-135.41,179.93-151.06,141.04-18.27,215.22,126.72,229.07,199.79,8.2,43.24.2,79.45-22.54,101.97-14.1,13.96-39.87,28.61-84.05,22.37-11.08,13.93-36.61,42.4-74.85,64.01l-58.66,78.86c-3.1,4.17-7.87,6.38-12.7,6.38Z"/>
    <path class="cls-3" d="m919,1743.19c-7.61-19.82-14.17-39.21-15.31-60.84.05-4.13,1.19-8.39,3.98-11.57,4.18-4.45,8.85-5.75,13.49-6.64,15.7-2.08,29.17-3.46,43.98,5.13.76.45,1.01,1.44.56,2.2-12.29,11.53-26.56,11.41-39.55,17.98-.34.18-.64.71.86-.33,1.55-1.13,2.63-3.13,3.37-4.79.36-.79.55-1.69.54-2.56,0-.15.06.03.06.03.2.36.2.44.53,1.46,5.05,15.7,12.39,33.09,17.2,49.06,5.64,19.23-21.62,29.11-29.69,10.86h0Z"/>
    <path class="cls-3" d="m655.37,1979.68c-1.24,0-2.5-.19-3.74-.59-3.35-1.08-82.58-27.27-132.07-100.19-49.89-73.53-31.62-182.61-30.82-187.22,1.15-6.62,7.44-11.04,14.06-9.89,6.62,1.15,11.05,7.44,9.91,14.06-.18,1.03-17.33,104.08,26.98,169.39,44.83,66.07,118.66,90.46,119.4,90.69,6.39,2.06,9.9,8.92,7.85,15.31-1.66,5.15-6.44,8.43-11.57,8.43Z"/>
    <path class="cls-3" d="m1309.97,2180.7c114.94.83,235.38-29.44,320.48-109.29,22.12-20.22,41.78-44.3,58.31-69.23,26.68-40.8,46.65-86.32,62.22-133.85.9-2.78,3.88-4.3,6.66-3.4,2.51.81,3.99,3.34,3.59,5.86-8.04,50.26-24.7,99.73-50.31,145.01-65.86,117.43-192.84,182.57-325.71,182.66-25.8.08-51.36-1.7-76.79-7.35-2.85-.63-4.64-3.45-4.01-6.3.58-2.61,2.99-4.3,5.55-4.13h0Z"/>
    <path class="cls-3" d="m2047,1970.49c-1.05,0-2.12-.14-3.18-.42-6.48-1.75-10.32-8.43-8.56-14.91,62.34-230.6-70.66-364.09-72.01-365.41-4.8-4.7-4.88-12.39-.19-17.2,4.7-4.79,12.39-4.88,17.2-.19,5.93,5.8,144.5,144.92,78.48,389.14-1.46,5.42-6.37,8.99-11.73,8.99Z"/>
    <path class="cls-3" d="m1288.11,2533.54c-127.59,0-216.84-34.85-222.4-37.08-6.23-2.5-9.26-9.57-6.77-15.8,2.49-6.23,9.55-9.28,15.8-6.78,1.98.79,200.72,78.1,426.61-.2,6.36-2.22,13.28,1.17,15.47,7.5,2.2,6.35-1.16,13.28-7.5,15.47-79.76,27.65-155.57,36.88-221.21,36.88Z"/>
    <path class="cls-3" d="m1072.28,2657.89c21.43-6.6,44.41-6.11,66.23-2.09,21.09,5.06,43.43,9.4,56.98,28.54.65.92.05,2.27-1.07,2.41-11.01,2.08-20.48.85-30.82-.69-27.81-4.24-56.07-3.21-83.48,2.31-19.26,3.25-26.2-24.12-7.84-30.49h0Z"/>
    <path class="cls-3" d="m2206.06,1556.34c31,19.57,80.87,74.7,73.51,113.84-.19,1.1-1.59,1.61-2.43.88-9.85-8.12-15.77-16.35-22.03-24.72-18.63-24.73-42.76-45.45-67.16-64.14-15.61-12.51,1.06-36.2,18.11-25.86h0Z"/>
    <path class="cls-3" d="m1907.58,1394.42c-148.75,0-260.6-149.97-265.48-156.63-3.97-5.41-2.8-13.02,2.61-16.99,5.41-3.98,13.02-2.81,17,2.6,1.17,1.59,118.61,159.09,263.6,145.9,6.66-.6,12.61,4.32,13.21,11.01.61,6.69-4.32,12.6-11.01,13.21-6.71.61-13.35.9-19.93.9Z"/>
    <path class="cls-3" d="m2010.08,1212.24c-14.93,3.9-30.63,4.28-46.08,3.75-5.22-.12-10.63-1.27-16.85-6.7-.75-.66-.93-1.74-.49-2.59,3.83-7.31,8.46-10.34,13.28-12.35,14.21-6.09,28.98-11.43,44.31-13.2,19.38-1.77,24.41,25.81,5.83,31.08h0Z"/>
    <path class="cls-3" d="m1918.05,1065.64c-1.08,0-2.17-.11-3.27-.34-8.54-1.8-14.01-10.19-12.21-18.73.07-.35,8.03-41.8-17.53-78.01-20.89-29.59-78.77-37.83-99.32-38.51-8.72-.29-15.57-7.58-15.29-16.3.27-8.72,7.58-15.61,16.28-15.3,3.65.11,89.88,3.31,124.16,51.88,33.72,47.76,23.11,100.53,22.64,102.76-1.57,7.45-8.13,12.56-15.45,12.56Z"/>
    <path class="cls-3" d="m1812.82,992.9c12.78,17.85,30.99,34.65,48.28,47.59,13.8,11.19,29.5,12.65,43.21,1.1.5-.36,1.81-1.72,1.63-1.45l17.45-4.87c29.09,9.64,81.27,28.93,108.72,11.07,2.36-1.93,5.92-1.51,7.71.98,1.32,1.82,1.32,4.21.18,6-6.53,10.23-18.26,16.25-29.56,19.28-32.55,8-66.31,1.55-97.72-8.21,0,0,17.44-4.88,17.44-4.88-10.88,13.01-27.14,20.99-44.08,21.52-30.86,1.37-53.52-25.93-68.67-48.9-6.96-11.78-14.38-24.16-15.08-38.28-.21-4.76,6.41-6.91,9.04-3,0,0,1.46,2.04,1.46,2.04h0Z"/>
    <path class="cls-3" d="m1677.66,1557.1c-4.98,0-9.88-2.35-12.96-6.73l-34.99-49.89c-5.01-7.15-3.28-17.01,3.87-22.02,7.16-5.01,17.01-3.28,22.02,3.87l34.99,49.89c5.01,7.15,3.28,17.01-3.87,22.02-2.76,1.94-5.93,2.87-9.06,2.87Z"/>
    <path class="cls-3" d="m863.04,1971.61c-3.9,0-7.73-1.88-10.09-5.36-3.76-5.56-2.29-13.12,3.27-16.88,81.3-54.93,171.53-117.96,187.57-132.62-3.09-11.61-25.1-45.13-45.51-71.57-4.11-5.32-3.12-12.95,2.19-17.06,5.32-4.11,12.96-3.12,17.06,2.19,60.31,78.12,52.04,91.91,48.51,97.8-7.76,12.93-126.26,94.15-196.21,141.41-2.08,1.41-4.45,2.08-6.8,2.08Z"/>
    <path class="cls-3" d="m1115.11,1948.31c-7.68,0-25.98-6.5-90.54-101.98-3.76-5.56-2.3-13.12,3.26-16.88,5.56-3.76,13.12-2.3,16.88,3.26,25.92,38.32,59.28,81.99,71.29,90.49,45.27-19.17,451.88-248.6,474.17-283.62.02-.04,2.73-4.76-2.84-23.62-23.8-80.62-149.86-262.29-175.23-277.81-32.27,4.66-268.52,132.91-412,213.87-5.85,3.29-13.27,1.24-16.57-4.61-3.3-5.85-1.24-13.27,4.61-16.57.98-.56,99.5-56.11,200.12-110.19,207.36-111.44,220.96-108.35,229.06-106.51,30.87,7.01,150.74,188.4,184.73,271.01,14.01,34.04,16.67,54.86,8.63,67.5-15.71,24.69-145,102.84-250.68,164.05-44.52,25.79-227.72,130.24-243.12,131.53-.53.04-1.12.09-1.78.09Zm295.97-610.73h0s0,0,0,0Z"/>
    <path class="cls-3" d="m1192.05,1909.44c-4.11,0-8.12-2.08-10.4-5.84l-160.27-263.72c-3.49-5.74-1.67-13.22,4.07-16.71,5.75-3.49,13.23-1.66,16.71,4.07l160.27,263.72c3.49,5.74,1.66,13.22-4.07,16.71-1.98,1.2-4.16,1.77-6.31,1.77Z"/>
    <path class="cls-3" d="m1446.04,1763.98c-4.23,0-8.34-2.21-10.58-6.15l-73.25-128.73c-57.77-2.5-139.52-5.97-144.65-5.97-8.55,0-14.73,0-97.8-151.42-3.23-5.89-1.07-13.28,4.81-16.51,5.89-3.21,13.28-1.07,16.51,4.81,32.6,59.43,70.29,124.66,81.35,138.92,25.25.85,134.09,5.57,147.55,6.16,4.18.18,7.97,2.5,10.04,6.13l76.58,134.58c3.32,5.84,1.28,13.26-4.56,16.59-1.9,1.08-3.96,1.59-6.01,1.59Z"/>
    <path class="cls-3" d="m1373.53,1553.45c-39.41,0-71.47-32.07-71.47-71.48s32.07-71.47,71.47-71.47,71.48,32.07,71.48,71.47-32.07,71.48-71.48,71.48Zm0-118.63c-26,0-47.15,21.15-47.15,47.15s21.15,47.15,47.15,47.15,47.15-21.15,47.15-47.15-21.15-47.15-47.15-47.15Z"/>
    <path class="cls-3" d="m1567.59,1553.45c-3.58,0-7.12-1.57-9.52-4.59-4.18-5.25-3.32-12.91,1.93-17.09l75.46-60.1c-22.71-33.02-53.53-77.42-65.42-93.57-13.98,7.11-46.77,26.55-75.8,44.58-5.69,3.54-13.2,1.8-16.75-3.92-3.54-5.71-1.79-13.2,3.92-16.75,89.13-55.34,91.92-53.47,99.4-48.48,2.41,1.61,5.72,3.82,81.11,113.71,3.61,5.26,2.54,12.42-2.45,16.39l-84.33,67.16c-2.24,1.78-4.92,2.65-7.57,2.65Z"/>
    <path class="cls-3" d="m1538,1378.62c-20.36-24.55-44.03-52-65.82-75.76-22.57-26.21-49.01-46.23-68.35-75.91-.71-1.02.36-2.53,1.57-2.12,34.48,10.59,59.79,35.56,86.4,58.17,25.95,23.41,50.07,48.28,71.29,76.37,11.92,16.77-11.94,35.12-25.08,19.25h0Z"/>
    <path class="cls-3" d="m1717.43,1581.9c15.04,23.05,24.26,48.4,30.75,74.88,2.25,8.67,3.03,17.96-.55,28.18-.3.85-1.23,1.3-2.08,1-16.4-11.71-20.38-28.18-30.35-43.69-7.19-12.77-18.25-31.57-24.88-44.15-8.96-17.75,15.73-32.42,27.1-16.22h0Z"/>
  </g>
  <g class="cls-7">
    <path class="cls-3" d="m605.8,1406.94s171.87,79.68,405.62,0c233.75-79.68,286.78-272.57,286.78-272.57,0,0-162.61,43.5-216.41,63.59-53.79,20.09-215.73,56.49-253.39,74.07-37.66,17.57-74.55,26.1-106.95,53.85-32.4,27.75-94.72,28.94-115.66,81.07Z"/>
  </g>
  <g>
    <g>
      <path class="cls-4" d="m1342.97,383.71s78.7,1.59,102.92,26.91c37.07,38.75,106.86,183.67,70.48,331.15-11.15,45.74-89.37,86.06-89.37,86.06,0,0-86.43-285.78-84.03-444.12Z"/>
      <g class="cls-7">
        <path class="cls-3" d="m1309.6,404s74.95,5.8,102.92,26.91c48.02,36.25,106.52,204.45,70.48,331.15-11.15,45.74-89.37,86.06-89.37,86.06,0,0-86.43-285.78-84.03-444.12Z"/>
      </g>
      <path class="cls-3" d="m1426.99,843.64c-2.09,0-4.19-.42-6.17-1.25-4.32-1.83-7.61-5.49-8.96-9.98-3.56-11.77-87.11-289.96-84.7-448.94.13-8.64,7.17-15.57,15.81-15.57.03,0,.06,0,.09,0,2.76.01,68.09.71,111.56,29.54,31.5,20.89,123.82,193.82,76.99,348.53-12.83,51.05-88.74,91.46-97.38,95.91-2.27,1.17-4.75,1.76-7.24,1.76Zm-68.15-443.14c2.87,132.19,59.48,339.93,77.7,403.6,24.14-15.1,58.41-41.23,64.46-66.07.07-.29.15-.58.23-.86,23.1-75.89,7.89-153.54-8.93-205.32-20.23-62.28-48.03-103.07-55.18-108.06-24.01-15.92-58.36-21.4-78.29-23.29Z"/>
    </g>
    <g>
      <g>
        <path class="cls-4" d="m1426,715.8c-3.35,114.12-35.57,228.1-97.61,330.73-12.66,20.92-26.49,41.34-41.58,61.18-7.31,9.67-15.02,19.22-22.95,28.7-24.07,28.42-49.95,54.43-77.38,78.01-23.6,20.38-48.38,38.93-74.02,55.67-30.95,20.23-63.28,37.76-96.56,52.63-12.16,5.38-24.42,10.43-36.78,15.15-226.49,85.88-491.07,52.05-689.33-111.31C-2.32,985.97-39.74,555.52,206.08,265.14c47.38-55.89,101.81-102.65,160.94-139.74,6.87-4.4,13.9-8.62,21-12.69,18.92-11.01,38.26-21.07,57.96-30.17,45.57-21.02,93.08-36.94,141.52-47.7,48.41-10.8,97.88-16.45,147.35-16.84,15.73-.14,31.46.24,47.21,1.18,23.6,1.42,47.13,3.97,70.6,7.83,116.9,18.86,230.2,67.8,327.49,147.97,168.04,138.39,251.76,339.58,245.85,540.81Z"/>
        <path class="cls-3" d="m730.1,1385.33c-159.23,0-316.05-54.02-441.48-157.37-141.08-116.2-227.76-280.05-244.06-461.36-16.43-182.76,40.43-361.27,160.12-502.66,46.73-55.12,101.03-102.26,161.37-140.1,6.56-4.2,13.46-8.37,21.06-12.72,18.88-10.98,38.43-21.16,58.11-30.24,45.24-20.87,92.97-36.96,141.88-47.82,48.44-10.81,98.14-16.49,147.73-16.88,15.94-.15,31.88.26,47.33,1.18,24.11,1.45,47.93,4.09,70.8,7.84,120.65,19.47,234.2,70.78,328.36,148.37,162.85,134.11,252.7,331.76,246.52,542.28h0c-3.43,116.7-37.28,231.38-97.87,331.63-12.84,21.21-26.87,41.85-41.69,61.34-6.76,8.94-14.29,18.35-23.01,28.76-23.78,28.09-49.89,54.41-77.59,78.23-23.14,20-48.12,38.77-74.22,55.81-30.52,19.95-63.09,37.7-96.82,52.77-12.12,5.37-24.52,10.48-36.87,15.19-81.05,30.73-165.7,45.76-249.67,45.76Zm10.83-1365.52c-2.02,0-4.04,0-6.07.02-49.33.4-98.77,6.05-146.96,16.8-48.66,10.81-96.14,26.81-141.15,47.57-19.57,9.04-39.02,19.16-57.81,30.09-7.56,4.33-14.4,8.46-20.93,12.64-60.04,37.66-114.05,84.55-160.54,139.38C88.43,406.96,31.87,584.51,48.21,766.28c16.21,180.32,102.42,343.28,242.74,458.86,190.56,157.02,454,199.55,687.51,111.01,12.28-4.69,24.63-9.78,36.68-15.11,33.54-14.99,65.94-32.64,96.3-52.49,25.97-16.95,50.81-35.63,73.83-55.52,27.56-23.69,53.53-49.87,77.18-77.81,8.68-10.36,16.17-19.72,22.89-28.62,14.76-19.39,28.71-39.92,41.48-61.02,60.27-99.71,93.93-213.76,97.34-329.83l1.84.05-1.84-.05c6.15-209.37-83.22-405.95-245.18-539.34-93.66-77.18-206.6-128.21-326.62-147.58-22.75-3.74-46.44-6.36-70.42-7.81-13.41-.8-27.18-1.2-41.02-1.2Z"/>
      </g>
      <g class="cls-7">
        <path class="cls-3" d="m289.78,1226.54c198.25,163.39,462.87,197.22,689.34,111.3,12.37-4.7,24.62-9.75,36.76-15.13,33.3-14.86,65.61-32.41,96.57-52.61,25.63-16.76,50.44-35.3,74.02-55.66,27.46-23.58,53.32-49.58,77.41-78.02,7.9-9.5,15.61-19.02,22.95-28.69,15.09-19.85,28.88-40.29,41.56-61.21,62.03-102.63,94.28-216.6,97.61-330.74,1.85-62.69-5.01-125.42-20.41-186.22-5.71,108.85-37.78,217.07-96.96,314.99-12.63,20.95-26.47,41.35-41.56,61.21-7.3,9.66-15.01,19.19-22.95,28.69-24.09,28.44-49.96,54.43-77.37,78.02-23.62,20.37-48.39,38.9-74.02,55.66-30.96,20.2-63.32,37.75-96.57,52.61-12.18,5.39-24.43,10.43-36.8,15.14-226.47,85.92-491.05,52.09-689.34-111.3-115.7-95.28-191.39-220.37-225.39-354.69-10.95,206.51,72.73,414.68,245.15,556.67Z"/>
      </g>
      <path class="cls-3" d="m730.1,1397.62c-162.06,0-321.65-54.97-449.31-160.17-143.64-118.31-231.89-285.14-248.49-469.75-16.73-186.06,41.16-367.79,162.98-511.7,47.56-56.09,102.81-104.06,164.22-142.58,6.64-4.25,13.7-8.52,21.48-12.98,19.14-11.13,39.03-21.49,59.06-30.74,46.04-21.24,94.61-37.61,144.38-48.66,49.27-11,99.84-16.77,150.3-17.18,16.21-.14,32.43.27,48.16,1.21,24.54,1.48,48.77,4.17,72.06,7.99,122.77,19.81,238.34,72.03,334.18,151.01,165.8,136.54,257.29,337.79,250.99,552.13h0c-3.5,118.82-37.95,235.57-99.64,337.62-13.07,21.59-27.34,42.59-42.43,62.42-6.86,9.07-14.51,18.64-23.36,29.21-24.25,28.63-50.81,55.41-79,79.65-23.54,20.33-48.96,39.45-75.51,56.79-31.06,20.3-64.21,38.36-98.53,53.69-12.35,5.47-24.95,10.67-37.5,15.45-82.47,31.27-168.61,46.56-254.05,46.56Zm10.83-1365.51c-1.99,0-3.98,0-5.97.03-48.47.39-97.05,5.94-144.39,16.5-47.81,10.62-94.46,26.34-138.67,46.74-19.22,8.87-38.33,18.82-56.78,29.55-7.46,4.27-14.13,8.3-20.48,12.37-59.07,37.05-112.12,83.11-157.79,136.98C99.96,412.37,44.41,586.71,60.46,765.18c15.91,177.02,100.55,337,238.31,450.46,187.16,154.22,445.94,195.99,675.34,109,12.06-4.6,24.2-9.61,36.06-14.86,32.92-14.7,64.74-32.05,94.56-51.54,25.51-16.66,49.91-35,72.51-54.53,27.09-23.29,52.6-49.01,75.84-76.45,8.5-10.15,15.86-19.36,22.47-28.09,14.51-19.08,28.22-39.24,40.76-59.97,59.17-97.89,92.22-209.87,95.57-323.83,6.04-205.54-81.7-398.54-240.71-529.48-91.98-75.8-202.9-125.91-320.76-144.93-22.37-3.67-45.64-6.25-69.2-7.67-13.16-.78-26.68-1.18-40.27-1.18Zm685.07,683.68h.05-.05Z"/>
      <path class="cls-3" d="m730.1,1401.48c-162.93,0-323.4-55.28-451.76-161.04-144.45-118.97-233.19-286.73-249.88-472.38-16.82-187.09,41.38-369.83,163.88-514.54,47.81-56.4,103.36-104.62,165.12-143.35,6.66-4.27,13.77-8.57,21.62-13.06,19.21-11.18,39.22-21.59,59.36-30.89,46.29-21.36,95.12-37.82,145.15-48.93C633.13,6.24,683.98.43,734.7.02c16.3-.13,32.6.27,48.42,1.21,24.67,1.48,49.04,4.19,72.45,8.03,123.43,19.92,239.64,72.43,336.01,151.84,166.73,137.3,258.72,339.67,252.39,555.21h0c-3.51,119.48-38.16,236.88-100.2,339.51-13.13,21.7-27.49,42.82-42.66,62.76-6.89,9.12-14.58,18.73-23.48,29.36-24.39,28.8-51.1,55.73-79.45,80.1-23.66,20.44-49.21,39.66-75.91,57.09-31.23,20.41-64.56,38.57-99.06,53.99-12.42,5.5-25.09,10.72-37.7,15.54-82.92,31.44-169.52,46.81-255.42,46.81Zm10.83-1365.51c-1.98,0-3.95,0-5.94.03-48.2.38-96.51,5.91-143.58,16.41-47.55,10.56-93.94,26.19-137.9,46.47-19.11,8.82-38.11,18.71-56.45,29.39-7.42,4.25-14.04,8.25-20.34,12.28-58.77,36.86-111.52,82.66-156.93,136.22-116.23,137.3-171.45,310.63-155.5,488.06,15.82,175.98,99.96,335.03,236.92,447.83,186.1,153.35,443.41,194.87,671.52,108.37,11.99-4.58,24.07-9.56,35.87-14.78,32.72-14.61,64.37-31.86,94.01-51.24,25.37-16.56,49.62-34.8,72.1-54.22,26.95-23.17,52.31-48.74,75.42-76.02,8.45-10.09,15.77-19.24,22.33-27.92,14.44-18.98,28.07-39.03,40.54-59.64,58.83-97.32,91.68-208.65,95.01-321.95,6-204.35-81.23-396.21-239.31-526.4-91.45-75.36-201.73-125.19-318.92-144.1-22.25-3.65-45.39-6.22-68.82-7.63-13.09-.78-26.53-1.18-40.04-1.18Zm685.07,679.83h.05-.05Z"/>
      <path class="cls-3" d="m1398.2,888.81c-234.05,431.58-816.8,503.34-1062.85,87.44-167.4-282.95-14.86-665.47,271.83-809,208.66-104.46,457.93-116.64,708.08,157.65,0,0,91.62,138.46,101.31,256.62,9.69,118.16-1.09,234.84-1.09,234.84l-17.27,72.44Z"/>
      <path class="cls-2" d="m335.37,976.25c246.03,415.89,828.79,344.12,1062.84-87.42l3.49-14.69c-362,271.24-878.64,237.58-1135.37-178.28-3.83,96.29,17.4,193.07,69.04,280.39Z"/>
      <path class="cls-3" d="m809.56,1338.95c-52.56,0-104.67-6.11-155.17-18.54-166.42-40.95-302.94-144.65-394.81-299.88-84.35-142.56-102.91-315.81-52.29-487.84,56.25-191.15,192.32-356.58,364.01-442.53,95.42-47.77,189.86-74.05,280.69-78.12l1.54-.07,1.52.24c122.96,19.84,238.67,72.13,334.63,151.2,166.01,136.71,257.6,338.21,251.3,552.82h0c-3.5,118.97-37.99,235.86-99.76,338.04-13.08,21.61-27.37,42.64-42.48,62.5-6.87,9.08-14.53,18.66-23.39,29.24-24.28,28.67-50.87,55.49-79.1,79.75l-1.88,1.38c-118.77,73.46-253.18,111.79-384.8,111.79ZM851.8,42.06c-86.13,4.1-175.98,29.3-267.08,74.9-164.38,82.29-294.73,240.87-348.68,424.18-48.25,163.97-30.73,328.79,49.34,464.11,87.67,148.15,217.75,247.06,376.17,286.04,168.85,41.54,356.85,9.09,516.04-89.02,26.7-23.04,51.88-48.46,74.82-75.56,8.49-10.14,15.85-19.33,22.44-28.05,14.49-19.06,28.18-39.19,40.71-59.9,59.1-97.76,92.1-209.6,95.45-323.41,6.03-205.28-81.6-398.02-240.4-528.8-91.46-75.37-201.69-125.32-318.83-144.5Zm574.2,673.74h.05-.05Z"/>
      <path class="cls-3" d="m813.54,1263.45c-203.74,0-380.78-102.28-487.07-281.94-74.6-126.1-91.02-279.39-46.22-431.63,49.81-169.26,170.3-315.75,322.31-391.85,261.7-131.02,504.05-77.22,720.32,159.92l.98,1.26c3.8,5.74,93.19,142.05,102.98,261.47,9.65,117.69-.99,235.46-1.1,236.64l-.23,1.44-17.59,73.77-.65,1.2c-121.24,223.54-344.37,365.17-582.33,369.61-3.81.07-7.63.11-11.41.11Zm59.33-1154.08c-84.54,0-171.64,22.35-261.06,67.11-146.98,73.59-263.53,215.35-311.75,379.23-43.16,146.68-27.48,294.17,44.18,415.29,104.37,176.42,279.45,275.47,480.33,271.71,230.12-4.29,446.08-141.28,563.92-357.62l16.78-70.38c.87-9.96,10.13-121.24,1.02-232.34-9.02-110.05-92.49-240.77-99.2-251.12-134.99-147.77-280.33-221.88-434.21-221.88Zm525.34,779.44h.05-.05Z"/>
      <path class="cls-4" d="m47.97,1088.07c53.88,123.31,173.01,194.7,266.09,159.42,93.08-35.28,124.86-163.85,70.97-287.16-.32-.78-.7-1.59-1.07-2.35-54.34-121.87-172.59-192.1-265.02-157.06-71.91,27.25-107.22,110.18-94.75,203.34,3.69,27.42,11.52,55.78,23.77,83.82Z"/>
      <g class="cls-7">
        <path class="cls-3" d="m47.97,1088.07c53.88,123.31,173.01,194.7,266.09,159.42,93.08-35.28,124.86-163.85,70.97-287.16-.32-.78-.7-1.59-1.07-2.35-4.7,16.53-15.19,35.03-38.6,39.01-41.02,6.95-143.49-46.63-143.49-46.63,0,0-77.2,22.87-177.68,53.9,3.69,27.42,11.52,55.78,23.77,83.82Z"/>
      </g>
      <path class="cls-3" d="m264.48,1274.35c-89.33,0-185.59-70.58-233-179.07h0c-33.23-76.04-36.94-156.13-10.18-219.73,18.62-44.26,50.18-75.88,91.25-91.45,101.78-38.57,231.39,37.25,288.96,169.01,33.23,76.04,36.94,156.13,10.18,219.73-18.62,44.26-50.18,75.88-91.25,91.45-17.96,6.81-36.81,10.05-55.96,10.05Zm-94.99-464.53c-15.17,0-30.03,2.56-44.18,7.92-31.64,11.99-56.14,36.81-70.85,71.76-22.62,53.76-18.89,125.31,9.98,191.38h0c50.02,114.47,159.16,181.66,243.25,149.78,31.64-11.99,56.14-36.81,70.85-71.76,22.62-53.76,18.89-125.31-9.98-191.38-41.6-95.2-124.09-157.7-199.06-157.7Z"/>
      <g>
        <ellipse class="cls-4" cx="171.45" cy="1065.85" rx="146.43" ry="193.71" transform="translate(-496.76 217.96) rotate(-29.1)"/>
        <path class="cls-3" d="m208.69,1251.38c-46.84,0-95.52-24.4-134.03-67.31h0c-70.68-78.73-84.93-195.81-31.76-261,22.11-27.12,52.58-41.89,88.13-42.74,47.93-1.08,97.83,23.39,137.22,67.27,70.68,78.73,84.92,195.81,31.76,261-22.11,27.12-52.58,41.89-88.13,42.74-1.06.02-2.12.04-3.18.04Zm-74.48-367.27c-1.04,0-2.07.01-3.1.04-34.4.82-63.89,15.11-85.27,41.33-52.02,63.8-37.83,178.66,31.65,256.04h0c38.65,43.05,87.68,67.14,134.29,66,34.4-.82,63.89-15.11,85.27-41.33,52.03-63.79,37.83-178.65-31.64-256.05-37.8-42.1-85.45-66.04-131.2-66.04Z"/>
      </g>
      <g class="cls-7">
        <path class="cls-3" d="m331.3,1086.06c-5.92-36.2-21.93-70.85-44.29-100.22,6.45,83.72-47.81,142.49-126.99,133.62-51.17-5.71-100.97-38.39-135.55-83.85.37,5.28,1.06,10.71,1.95,16.2,15.12,92.18,95.63,174.57,179.83,184.02,84.2,9.45,140.16-57.65,125.06-149.78Z"/>
      </g>
      <path class="cls-3" d="m214.95,1267.17c-71.1,0-150.14-60.11-190.34-151.13h0c-28.46-64.44-32.5-133.55-10.78-184.87,14.09-33.3,37.73-56.9,68.38-68.24,79.17-29.28,182.59,35.34,230.62,144.07,28.46,64.44,32.5,133.54,10.79,184.87-14.09,33.3-37.73,56.9-68.38,68.25-12.9,4.77-26.45,7.05-40.29,7.05Zm-157.44-165.66c40.49,91.67,123.58,147.69,185.23,124.88,21.11-7.81,37.62-24.59,47.74-48.53,17.92-42.35,13.97-100.79-10.56-156.32-40.5-91.68-123.61-147.68-185.23-124.88-21.11,7.81-37.62,24.59-47.75,48.52-17.91,42.35-13.96,100.79,10.56,156.32h0Z"/>
      <g class="cls-1">
        <path class="cls-4" d="m514.22,348.06s289.37-122.8,524.19-41.18c.25.09.49.17.74.26,49.41,17.22,93.1,47.38,126.72,86.97,44.46,52.36,67.29,94.94,85.91,133.2,56.58,116.38,60.97,181.54,60.97,181.54,37.37-93.8,41.34-181.82-4.81-279.23-4.58-9.59-9.65-19.31-15.19-29.12-1.27-2.27-2.57-4.48-3.93-6.7.04-.05,0-.09-.1-.12-12.63-19.08-30.18-43.54-52.33-69.46-66.75-78.24-175.06-170.1-315.36-169.48-262.34,1.15-422.48,185.85-406.82,193.32Z"/>
      </g>
      <g class="cls-1">
        <ellipse class="cls-4" cx="445.55" cy="717.54" rx="92.5" ry="106.25" transform="translate(-120.53 90.7) rotate(-10.25)"/>
      </g>
      <g class="cls-1">
        <ellipse class="cls-4" cx="481.51" cy="907.2" rx="38.18" ry="43.89" transform="translate(-75.95 44.59) rotate(-4.91)"/>
      </g>
    </g>
  </g>
</svg>