<?xml version="1.0" encoding="UTF-8"?>
<svg id="Layer_1" data-name="Layer 1" xmlns="http://www.w3.org/2000/svg" viewBox="0 0 3123.7 2765.85">
  <defs>
    <style>
      .cls-1 {
        opacity: .6;
      }

      .cls-1, .cls-2, .cls-3, .cls-4, .cls-5 {
        fill: none;
      }

      .cls-6 {
        fill: #fff;
      }

      .cls-7 {
        fill: #e2ecf9;
      }

      .cls-8 {
        fill: #b3c8e0;
      }

      .cls-9 {
        fill: #fc3c53;
      }

      .cls-2 {
        opacity: .15;
      }

      .cls-3 {
        opacity: .3;
      }

      .cls-10 {
        fill: #25295b;
      }

      .cls-4 {
        opacity: .4;
      }

      .cls-11 {
        fill: #e95373;
      }

      .cls-5 {
        opacity: .25;
      }

      .cls-12 {
        fill: #ffd571;
      }

      .cls-13 {
        fill: #39a1ff;
      }
    </style>
  </defs>
  <path class="cls-12" d="m1582.12,2477.53h0c-676.74,0-1225.33-548.61-1225.33-1225.34h0C356.78,575.46,905.38,26.86,1582.12,26.86s1225.34,548.6,1225.34,1225.34h0c0,676.73-548.6,1225.34-1225.34,1225.34"/>
  <g class="cls-5">
    <path class="cls-10" d="m2395.22,2697.14c0,37.94-364.04,68.71-813.1,68.71s-813.1-30.77-813.1-68.71,364.04-68.71,813.1-68.71,813.1,30.77,813.1,68.71"/>
  </g>
  <path class="cls-13" d="m2934.17,408.84l-158.14,528.25c-2.07,6.93-4.44,13.78-7.06,20.48-.38,1.04-.77,2.08-1.2,3.11-2.37,5.96-4.94,11.9-7.76,17.71l-659.63,1368.39c-20.36,42.22-66.35,65.72-112.52,57.48l-1663.88-296.5c-39.99-7.13-72.27-36.78-82.68-76.03l-15.16-56.92c-5.16-19.42-4.58-39.75,1.45-58.54,2.5-7.91,5.95-15.61,10.39-22.82L1016.19,620.49l3.02-4.96,184.98-523.48c17.92-50.73,68.7-82.22,122.1-75.8l1453.01,174.59c57.78,6.94,110.12,39.36,139.4,89.67,11.61,19.83,20.22,43.17,22.31,70.02,1.51,19.65-1.23,39.42-6.85,58.31"/>
  <path class="cls-8" d="m2934.17,408.84l-158.14,528.25c-2.4,7.98-5.16,15.85-8.25,23.59l-107.01-107.41-1644.58-232.78,3.02-4.96,184.98-523.48c17.92-50.73,68.7-82.22,122.1-75.8l1453.01,174.59c57.78,6.94,110.12,39.36,139.4,89.67,1.33,2.22,2.6,4.54,3.83,6.86.96,1.87,1.93,3.74,2.83,5.71.87,1.76,1.69,3.56,2.5,5.42.93,2.12,1.86,4.25,2.68,6.47.05,0,.05.06.05.06,5.41,13.82,9.17,28.99,10.44,45.51,1.51,19.65-1.23,39.42-6.85,58.31"/>
  <g class="cls-1">
    <path class="cls-7" d="m2660.76,853.27l-4.61,23.31-1550.8-208.24c-41.32-5.59-82.01,13.8-103.8,49.39L259.16,1932.14c-14.9,24.34-28.06-11.48-20.72,16.1l24.05,122.18c.24.96.6,1.88.85,2.84-10.2-11.81-17.86-25.9-22.02-41.53l-15.16-56.92c-7.33-27.58-3.07-57.02,11.84-81.37L1016.19,620.49l1644.58,232.78Z"/>
  </g>
  <path class="cls-6" d="m2930.53,304.96c-30.37-42.12-77.94-69.16-130.06-75.43L1347.47,54.94c-53.4-6.41-91.98.47-109.9,51.19l-186.94,519.12,1610.14,228.02-1644.58-232.78,3.02-4.96,184.99-523.48c17.92-50.73,68.7-82.22,122.1-75.8l1453,174.59c57.78,6.94,110.13,39.36,139.4,89.67,1.33,2.22,2.6,4.55,3.83,6.86.96,1.87,1.93,3.74,2.83,5.71.87,1.76,1.69,3.56,2.5,5.42.93,2.12,1.86,4.25,2.68,6.47"/>
  <g class="cls-3">
    <path class="cls-10" d="m2647.05,892.62c-24.33,42.57-50.7,87.54-78.58,131.8l23.21-16.52-586.47,1194.1s-11.82,58.38-88.58,44.36l-1326.15-244.41h-.05c-72.26-2.95-136.69-8.68-191.31-15.24-56.71-6.82-101.71-14.4-132.76-20.29l14.59,54.79c6.29,23.74,26,41.86,50.23,46.17l1663.93,296.5c1.16.24,2.38.39,3.6.54,26.93,3.23,52.97-10.99,64.74-35.45l641.07-1329.88c9.39-19.48,5.51-42.77-9.7-58.15l-47.76-48.31Zm-151.55,240.11c-60.49,82.69-124.9,151.54-188.4,180.57l-83.88,161.27c-7.32,14.1-22.87,21.84-38.51,19.18l-51.41-8.76c-28.3,24.95-56.94,48.78-85.8,71.49l47.6,7.89c8.36,1.37,15.81,5.47,21.45,11.46.05.06.1.06.14.12,4.96,3.85,8.95,8.87,11.6,14.82l2.8,6.32c4.88,10.97,4.35,23.56-1.46,34.07l-98.52,179.08c-8,14.58-24.58,22.36-40.98,19.15l-216.48-42.18c-14.22-2.79-25.66-13.31-29.62-27.21l-1.41-5.08c-79.74,42.17-159.76,77.64-239.2,107.34-1.19.48-2.38.95-3.57,1.38.55,1,1.04,2.04,1.54,3.08l2.74,6.01c2.33,5.08,3.37,10.63,3.18,16.08v.05c-.16,5.61-1.61,11.17-4.34,16.26l-92.59,171.07c-7.38,13.73-22.63,21.14-37.98,18.67-1.43-.12-2.86-.29-4.27-.56l-212.77-39.92c-13.93-2.66-25.2-12.9-29.19-26.54l-3.7-12.59c-2.98-10.42-1.38-21.65,4.41-30.71l13.69-21.54c-35.99,6.78-71.43,12.54-106.3,17.44l-16.8,31.03c-7.51,13.92-23.23,21.43-38.84,18.52l-155.91-29.27c-20.68,1.08-41.01,1.83-60.97,2.39l1144.9,201.26c27.95,4.91,55.81-9.1,68.54-34.46l520.32-1037.18Zm-576.96,834.68l-95.87,177.18c-7.83,14.5-24.1,22.25-40.31,19.17l-213.68-40.08c-14.04-2.67-25.41-12.92-29.39-26.62l-3.63-12.68c-3.09-10.44-1.47-21.71,4.38-30.87l103.97-163.46c8.1-12.76,22.99-19.44,37.9-17.09l206.45,32.81c12.62,1.98,23.35,10.19,28.57,21.82l2.81,6.22c4.85,10.76,4.44,23.2-1.19,33.58"/>
  </g>
  <path class="cls-6" d="m1507.3,1888.82c.19-5.45-.85-11-3.18-16.08l-2.74-6.01c-.5-1.04-.99-2.08-1.54-3.08,1.19-.43,2.38-.91,3.57-1.38l1.44,3.12c3.34,7.42,4.16,15.63,2.45,23.43"/>
  <g class="cls-3">
    <path class="cls-10" d="m2808.31,200.04s-132.55,535.07-1249.5,466.81l1047.11,144.08c19.22,2.64,37.58-8.86,43.57-27.31l132.78-408.58s47.34-139.72,26.04-175"/>
  </g>
  <g class="cls-3">
    <path class="cls-10" d="m2660.76,853.27l175.81-553.19s72.93,15.25,55.7,97.37l-160.8,526.8-70.7-70.98Z"/>
  </g>
  <g class="cls-3">
    <g>
      <path class="cls-10" d="m1242.88,989.06l89.69-172.57c5.26-10.12,5.49-22.12.62-32.43l-2.82-5.97c-5.25-11.12-15.74-18.85-27.91-20.58l-199.82-28.33c-14.41-2.04-28.66,4.67-36.27,17.08l-97.72,159.44c-5.49,8.95-6.86,19.84-3.75,29.88l3.75,12.15c4.07,13.15,15.19,22.9,28.76,25.22l206.92,35.28c15.64,2.67,31.23-5.08,38.55-19.16"/>
      <path class="cls-10" d="m1636.82,1047.22l89.68-172.57c5.26-10.12,5.49-22.12.62-32.43l-2.81-5.97c-5.25-11.12-15.74-18.85-27.91-20.58l-199.82-28.33c-14.41-2.04-28.66,4.67-36.27,17.08l-97.72,159.44c-5.49,8.95-6.86,19.84-3.75,29.88l3.75,12.15c4.07,13.15,15.19,22.9,28.76,25.22l206.91,35.28c15.65,2.67,31.23-5.08,38.55-19.16"/>
      <path class="cls-10" d="m2030.77,1105.37l89.69-172.57c5.26-10.12,5.49-22.12.62-32.43l-2.82-5.97c-5.25-11.12-15.74-18.85-27.91-20.58l-199.82-28.33c-14.42-2.04-28.67,4.67-36.27,17.08l-97.72,159.44c-5.49,8.95-6.86,19.85-3.75,29.88l3.75,12.15c4.07,13.15,15.19,22.9,28.76,25.21l206.92,35.28c15.65,2.67,31.23-5.08,38.55-19.16"/>
      <path class="cls-10" d="m1050.38,1297.47l89.69-172.57c5.26-10.12,5.49-22.12.62-32.43l-2.82-5.97c-5.25-11.12-15.74-18.85-27.91-20.58l-199.82-28.33c-14.42-2.04-28.67,4.67-36.27,17.08l-97.72,159.45c-5.49,8.95-6.86,19.84-3.75,29.87l3.75,12.15c4.07,13.15,15.19,22.9,28.76,25.21l206.92,35.28c15.65,2.68,31.23-5.08,38.55-19.16"/>
      <path class="cls-10" d="m1444.33,1355.63l89.68-172.57c5.26-10.12,5.49-22.12.62-32.43l-2.81-5.97c-5.25-11.12-15.74-18.85-27.91-20.57l-199.82-28.33c-14.41-2.04-28.66,4.67-36.27,17.08l-97.72,159.45c-5.49,8.95-6.86,19.84-3.75,29.87l3.75,12.15c4.07,13.15,15.19,22.9,28.76,25.22l206.91,35.28c15.65,2.67,31.23-5.08,38.55-19.16"/>
      <path class="cls-10" d="m1838.27,1413.78l89.69-172.57c5.26-10.12,5.49-22.12.62-32.43l-2.82-5.97c-5.25-11.12-15.73-18.85-27.91-20.58l-199.82-28.33c-14.42-2.04-28.66,4.67-36.27,17.08l-97.72,159.44c-5.49,8.95-6.86,19.84-3.75,29.87l3.75,12.15c4.07,13.15,15.19,22.9,28.76,25.22l206.91,35.28c15.65,2.67,31.23-5.08,38.55-19.16"/>
      <path class="cls-10" d="m847.38,1626.87l93.74-170.4c5.5-9.99,6.01-21.98,1.39-32.41l-2.68-6.04c-4.98-11.24-15.29-19.22-27.41-21.23l-199.09-33.06c-14.36-2.38-28.77,3.99-36.66,16.22l-101.47,157.08c-5.7,8.83-7.33,19.67-4.46,29.78l3.47,12.23c3.75,13.26,14.64,23.26,28.16,25.9l206.02,40.17c15.58,3.04,31.34-4.34,39-18.25"/>
      <path class="cls-10" d="m1240.73,1686.86l93.74-170.39c5.5-10,6.01-21.99,1.39-32.41l-2.67-6.04c-4.98-11.24-15.29-19.22-27.41-21.23l-199.09-33.06c-14.36-2.38-28.77,3.99-36.66,16.22l-101.48,157.08c-5.7,8.83-7.32,19.68-4.46,29.78l3.47,12.23c3.75,13.25,14.64,23.26,28.16,25.9l206.02,40.17c15.58,3.04,31.34-4.34,39-18.25"/>
      <path class="cls-10" d="m1633.19,1754.33l93.74-170.4c5.5-10,6.01-21.99,1.39-32.41l-2.67-6.04c-4.98-11.24-15.29-19.22-27.41-21.23l-199.09-33.06c-14.36-2.38-28.77,3.99-36.66,16.22l-101.48,157.09c-5.7,8.82-7.32,19.67-4.46,29.78l3.47,12.23c3.75,13.25,14.64,23.26,28.16,25.9l206.02,40.17c15.58,3.04,31.34-4.34,39-18.25"/>
      <path class="cls-10" d="m649.39,1954.89l92.56-171.05c5.43-10.03,5.86-22.03,1.16-32.42l-2.72-6.02c-5.06-11.21-15.42-19.11-27.56-21.04l-199.31-31.66c-14.38-2.29-28.74,4.19-36.55,16.47l-100.38,157.79c-5.63,8.87-7.18,19.73-4.25,29.81l3.55,12.21c3.85,13.22,14.8,23.16,28.33,25.7l206.3,38.73c15.61,2.93,31.31-4.55,38.87-18.51"/>
      <path class="cls-10" d="m2441.19,1169.24l89.69-172.57c5.26-10.12,5.49-22.12.62-32.43l-2.81-5.97c-5.25-11.12-15.74-18.85-27.91-20.58l-199.82-28.33c-14.41-2.04-28.66,4.67-36.27,17.08l-97.72,159.44c-5.49,8.95-6.86,19.84-3.75,29.88l3.75,12.15c4.07,13.15,15.19,22.9,28.76,25.22l206.92,35.28c15.64,2.67,31.23-5.08,38.55-19.16"/>
    </g>
  </g>
  <path class="cls-10" d="m1936.24,2264.15c-5.09,0-10.21-.44-15.33-1.35L220.42,1952.36c-8.36-1.52-13.9-9.54-12.37-17.9,1.53-8.35,9.51-13.91,17.9-12.37l1700.41,310.42c25.21,4.47,50.82-8.47,62.2-31.5l670.63-1365.52,160.32-535.82c5.03-16.79,5.85-33.97,2.4-49.69-5.86-26.65-20.4-41-44.45-43.89-8.44-1.01-14.46-8.67-13.44-17.1,1.01-8.44,8.68-14.44,17.1-13.44,37.03,4.44,62.19,28.53,70.83,67.82,4.58,20.81,3.55,43.33-2.97,65.12l-160.69,537.05c-.24.82-.56,1.61-.93,2.37l-671.22,1366.7c-15.12,30.58-46.6,49.53-79.92,49.53Z"/>
  <path class="cls-10" d="m2766.39,970.46c-3.97,0-7.94-1.52-10.94-4.57l-95.72-96.92-1641.07-232.69c-8.41-1.19-14.26-8.98-13.07-17.39,1.19-8.41,8.97-14.29,17.39-13.07l1646.21,233.42c3.33.47,6.42,2.03,8.78,4.42l99.37,100.62c5.97,6.04,5.91,15.79-.13,21.76-3,2.96-6.9,4.43-10.81,4.43Z"/>
  <path class="cls-10" d="m2051.26,2411.08c-5.52,0-10.86-2.98-13.62-8.21l-81.65-154.81c-3.96-7.51-1.09-16.82,6.43-20.79,7.5-3.96,16.82-1.08,20.78,6.43l81.65,154.81c3.96,7.51,1.09,16.82-6.43,20.79-2.29,1.21-4.74,1.78-7.16,1.78Z"/>
  <path class="cls-10" d="m2006.05,2421.27c-6.92,0-13.9-.61-20.87-1.85l-1663.9-296.52c-45.69-8.14-82.93-42.39-94.86-87.24l-15.13-56.89c-8.38-31.51-3.43-65.54,13.57-93.36L1005.24,608.87l184.46-521.93c20.49-57.95,77.44-93.33,138.44-85.98l1453,174.59c63.45,7.63,119.85,43.96,150.88,97.19,14.07,24.14,22.25,49.91,24.33,76.59h0c1.6,20.52-.91,42.03-7.46,63.93l-158.12,528.22c-4.45,14.88-10.14,29.56-16.91,43.61l-659.61,1368.34c-20.18,41.87-62.81,67.83-108.19,67.84ZM1312.3,30.78c-41.87,0-79.32,26.02-93.59,66.42l-185.53,524.97-.84,1.38L251.11,1901.46c-12.64,20.69-16.32,45.99-10.09,69.41l15.13,56.89c8.87,33.34,36.55,58.8,70.52,64.85l1663.9,296.52c39.21,7.02,78.66-13.18,95.95-49.06l659.61-1368.34c6.07-12.59,11.16-25.73,15.15-39.07l158.12-528.22c5.46-18.25,7.57-36,6.26-52.72h0c-1.71-22.03-8.52-43.38-20.24-63.48-26.2-44.95-74.04-75.65-127.97-82.14L1324.47,31.51c-4.08-.49-8.15-.73-12.17-.73Z"/>
  <path class="cls-10" d="m2724.45,323.68l-119.75,393.59c-6.48,21.27-26.84,34.67-48.17,31.7l-530.37-73.86-164.43-22.85-159.48-22.21-338.79-47.16-174.93-24.38c-27.48-3.82-44.51-32.72-35.21-59.85l125.2-366.8c6.92-20.19,26.4-32.77,46.87-30.32l1362.54,163.73c27.23,3.27,44.78,31.3,36.52,58.4"/>
  <path class="cls-11" d="m1946.89,401.4c-1.64,0-3.31-.26-4.95-.82-8.04-2.73-12.35-11.47-9.61-19.52l29.06-85.51-94.11-12.32-14.77,41.43c-2.85,8-11.64,12.16-19.66,9.33-8-2.86-12.18-11.66-9.32-19.66l18.94-53.12c2.43-6.83,9.32-11.01,16.49-10.09l125.03,16.37c4.57.6,8.63,3.21,11.06,7.13,2.43,3.91,2.99,8.71,1.5,13.08l-35.11,103.28c-2.18,6.4-8.16,10.43-14.56,10.43Z"/>
  <path class="cls-11" d="m1887.56,575.93c-1.64,0-3.31-.26-4.95-.82-8.04-2.73-12.35-11.47-9.61-19.52l38.13-112.19c2.74-8.04,11.49-12.34,19.52-9.61,8.04,2.73,12.35,11.47,9.61,19.52l-38.13,112.19c-2.18,6.4-8.16,10.43-14.56,10.43Z"/>
  <path class="cls-11" d="m2501.33,665.34c-1.66,0-3.34-.27-5-.84-8.04-2.76-12.31-11.51-9.56-19.55l98.31-286.34c2.76-8.03,11.5-12.3,19.55-9.56,8.04,2.76,12.31,11.51,9.56,19.55l-98.31,286.34c-2.19,6.38-8.16,10.39-14.55,10.39Z"/>
  <path class="cls-11" d="m1664.95,546.78c-.66,0-1.33-.04-2.01-.13l-139.17-18.22c-4.6-.61-8.69-3.25-11.12-7.21-2.43-3.96-2.94-8.8-1.39-13.17l41.79-118.2c2.83-8.01,11.63-12.21,19.63-9.38,8.01,2.83,12.21,11.62,9.38,19.63l-35.46,100.29,107.87,14.13,34.42-100.25c2.76-8.03,11.5-12.3,19.55-9.56,8.04,2.76,12.31,11.51,9.55,19.55l-38.5,112.14c-2.15,6.27-8.05,10.39-14.54,10.39Z"/>
  <path class="cls-11" d="m1724.84,372.32c-1.66,0-3.34-.27-5-.84-8.03-2.76-12.31-11.51-9.55-19.55l29.33-85.42-105.45-13.81-32.3,91.36c-2.84,8.01-11.63,12.2-19.63,9.38-8.01-2.83-12.21-11.62-9.38-19.63l36.45-103.11c2.42-6.85,9.29-11.08,16.5-10.13l136.47,17.87c4.58.6,8.65,3.22,11.08,7.15,2.43,3.93,2.97,8.74,1.47,13.1l-35.45,103.23c-2.19,6.38-8.16,10.39-14.55,10.39Z"/>
  <path class="cls-11" d="m2278.65,627.14c-.66,0-1.33-.04-2.01-.13l-101.42-13.28c-8.43-1.1-14.36-8.83-13.26-17.25,1.11-8.42,8.81-14.36,17.25-13.26l88.96,11.65,88.12-256.65-83.65-10.95c-8.43-1.1-14.36-8.83-13.26-17.25,1.1-8.42,8.83-14.37,17.25-13.26l102.32,13.4c4.58.6,8.65,3.22,11.08,7.15,2.43,3.93,2.98,8.74,1.47,13.1l-98.31,286.34c-2.16,6.27-8.05,10.39-14.54,10.39Z"/>
  <path class="cls-11" d="m2542.82,544.55c-.67,0-1.34-.04-2.02-.13l-123.08-16.12c-4.58-.6-8.64-3.22-11.07-7.14-2.43-3.92-2.98-8.73-1.48-13.1l56.69-165.57c2.76-8.04,11.5-12.3,19.54-9.57,8.04,2.75,12.32,11.5,9.57,19.54l-50.6,147.77,104.43,13.68c8.43,1.1,14.36,8.83,13.26,17.25-1.02,7.74-7.63,13.39-15.23,13.39Z"/>
  <path class="cls-11" d="m2267.17,476.02c-.66,0-1.34-.04-2.01-.13l-44.4-5.81c-8.42-1.1-14.36-8.82-13.26-17.25,1.1-8.43,8.82-14.36,17.25-13.26l44.4,5.81c8.43,1.1,14.36,8.82,13.26,17.25-1.01,7.75-7.63,13.39-15.23,13.39Z"/>
  <path class="cls-11" d="m2156.46,428.84c-1.64,0-3.31-.26-4.95-.82-8.04-2.73-12.35-11.47-9.61-19.52l29.07-85.51-94.11-12.32-14.77,41.42c-2.85,8-11.64,12.16-19.66,9.33-8-2.86-12.18-11.66-9.32-19.66l18.94-53.12c2.43-6.83,9.29-11.01,16.49-10.09l125.04,16.37c4.57.6,8.63,3.21,11.06,7.13,2.43,3.91,2.99,8.71,1.5,13.08l-35.11,103.28c-2.18,6.4-8.16,10.43-14.56,10.43Z"/>
  <path class="cls-11" d="m2097.13,603.37c-1.64,0-3.31-.26-4.95-.82-8.04-2.73-12.35-11.47-9.61-19.52l38.13-112.19c2.74-8.04,11.48-12.33,19.52-9.61,8.04,2.73,12.35,11.47,9.61,19.52l-38.13,112.19c-2.18,6.4-8.16,10.43-14.56,10.43Z"/>
  <path class="cls-11" d="m1763.39,550.83l-9.68-1.16c-6.34-.77-10.15-6.44-8.5-12.68l2.52-9.52c1.66-6.24,8.14-10.68,14.49-9.92l9.68,1.16c6.34.76,10.15,6.44,8.49,12.68l-2.52,9.52c-1.65,6.24-8.14,10.68-14.49,9.92"/>
  <g class="cls-2">
    <polygon class="cls-7" points="2143.63 199.87 1702.25 630.06 1363.45 582.9 1798.98 158.46 2143.63 199.87"/>
  </g>
  <g class="cls-2">
    <polygon class="cls-7" points="2473.21 239.47 2026.15 675.13 1861.73 652.27 2305.92 219.37 2473.21 239.47"/>
  </g>
  <g class="cls-4">
    <path class="cls-7" d="m1178.95,543.08l125.24-366.82c6.89-20.17,26.39-32.78,46.89-30.32l1362.5,163.72c4.58.55,8.85,1.85,12.8,3.67,1.69-23.51-14.66-45.21-38.45-48.07L1325.42,101.54c-20.5-2.46-40,10.15-46.89,30.33l-125.23,366.82c-7.82,22.91,3.14,47.02,23.28,56.28.28-3.95,1.01-7.93,2.37-11.89"/>
  </g>
  <path class="cls-10" d="m2562.55,765.4c-2.71,0-5.46-.19-8.21-.57l-1368-190.45c-17.52-2.44-32.96-12.61-42.37-27.89-9.77-15.87-11.89-35.18-5.81-52.97l125.23-366.82c9.26-27.11,36.14-44.4,63.94-41.04h0l1362.5,163.72c17.38,2.08,32.9,11.81,42.6,26.67,10.07,15.44,12.74,34.51,7.32,52.31l-119.74,393.56c-7.97,26.2-31.38,43.47-57.46,43.47ZM1320.26,117.23c-11.83,0-22.49,7.78-26.59,19.8l-125.23,366.83c-2.98,8.72-1.97,18.14,2.78,25.86,4.45,7.23,11.38,11.83,19.53,12.97l1368,190.45c13.56,1.86,26.45-6.75,30.65-20.53l119.74-393.56c2.65-8.73,1.37-18.03-3.51-25.52-4.58-7.02-11.54-11.41-19.61-12.38L1323.51,117.43c-1.09-.13-2.18-.2-3.25-.2Z"/>
  <path class="cls-6" d="m1414.06,2045.64l92.56-171.05c5.43-10.03,5.86-22.02,1.16-32.41l-2.72-6.02c-5.06-11.21-15.42-19.11-27.56-21.04l-199.31-31.66c-14.38-2.29-28.74,4.19-36.56,16.47l-100.37,157.79c-5.64,8.87-7.19,19.73-4.25,29.81l3.55,12.21c3.85,13.22,14.81,23.16,28.34,25.7l206.3,38.73c15.6,2.93,31.31-4.56,38.87-18.51"/>
  <g class="cls-5">
    <path class="cls-10" d="m1357.8,1997.32l-111.81-19.99c83.57,3.56,115.25,1.84,177.74-81.15l-52.69,94.85c-2.61,4.71-7.94,7.24-13.24,6.29"/>
  </g>
  <g class="cls-5">
    <path class="cls-10" d="m1506.64,1874.59l-92.59,171.07c-7.52,13.97-23.23,21.43-38.84,18.52l-206.31-38.74c-13.53-2.55-24.47-12.49-28.31-25.71l-3.59-12.21c-1.83-6.31-1.91-12.93-.34-19.14,2.51,1.07,5.09,1.95,7.81,2.48l15.16,2.81c6.66,1.26,13.31,2.27,19.93,3.06,13.8,1.66,27.55,2.33,41.21,2.11l149.59,28.1,70.47-128.28c15.84-17.57,29.77-37.17,41.39-58.65.54-1.07,1.03-2.15,1.53-3.28,9.37,3.25,17.16,10.23,21.32,19.45l2.74,6c4.69,10.38,4.23,22.36-1.16,32.4"/>
  </g>
  <path class="cls-10" d="m1368.6,2027.32c-1.38,0-2.78-.12-4.17-.38l-230.65-41.83c-5.83-1.06-9.71-6.65-8.65-12.48,1.06-5.84,6.64-9.69,12.48-8.65l230.65,41.83c.78.14,1.58-.23,1.98-.94l105.8-189.97c2.89-5.19,9.43-7.04,14.61-4.16,5.18,2.89,7.04,9.43,4.16,14.61l-105.8,189.98c-4.18,7.49-12.04,11.99-20.4,11.99Z"/>
  <path class="cls-10" d="m1396.9,2072.31c-4.01,0-7.86-2.26-9.7-6.13l-19.53-41.02c-2.55-5.35-.27-11.76,5.08-14.31,5.35-2.54,11.76-.28,14.31,5.08l19.53,41.02c2.55,5.35.27,11.76-5.08,14.31-1.49.71-3.06,1.05-4.61,1.05Z"/>
  <path class="cls-10" d="m1382.03,2080.9c-3.25,0-6.53-.3-9.81-.92l-206.29-38.73c-19.61-3.68-35.25-17.87-40.84-37.03l-3.55-12.21c-4.23-14.52-1.99-30.18,6.13-42.95l100.37-157.8c11.26-17.71,31.94-27.02,52.68-23.73l199.31,31.66c17.55,2.79,32.4,14.13,39.71,30.32l2.72,6.03c6.72,14.87,6.1,32.33-1.68,46.7l-92.56,171.05h0c-9.34,17.26-27.13,27.6-46.19,27.6Zm-109.59-281.8c-6.91,0-13.44,3.51-17.22,9.46l-100.37,157.79c-3.15,4.96-4.02,11.03-2.38,16.66l3.55,12.21c2.16,7.43,8.23,12.94,15.84,14.37l206.3,38.73c8.75,1.65,17.49-2.52,21.73-10.35l92.56-171.05c3.02-5.57,3.26-12.34.65-18.11l-2.72-6.04c-2.83-6.27-8.6-10.67-15.41-11.76l-199.31-31.66c-1.08-.17-2.15-.25-3.22-.25Zm141.62,246.53h.05-.05Z"/>
  <path class="cls-6" d="m1021.58,1977.3l92.55-171.05c5.43-10.03,5.86-22.03,1.16-32.42l-2.72-6.02c-5.06-11.2-15.42-19.11-27.56-21.04l-199.31-31.67c-14.38-2.28-28.74,4.19-36.55,16.47l-100.38,157.79c-5.63,8.87-7.18,19.73-4.25,29.81l3.55,12.21c3.85,13.22,14.8,23.16,28.33,25.7l206.3,38.73c15.6,2.93,31.31-4.55,38.87-18.51"/>
  <g class="cls-5">
    <path class="cls-10" d="m965.32,1928.99l-111.8-19.99c83.56,3.56,115.25,1.84,177.74-81.16l-52.69,94.85c-2.61,4.71-7.94,7.24-13.25,6.29"/>
  </g>
  <g class="cls-5">
    <path class="cls-10" d="m1114.15,1806.25l-92.59,171.07c-7.52,13.97-23.23,21.42-38.84,18.51l-206.31-38.73c-13.53-2.55-24.48-12.49-28.31-25.71l-3.59-12.21c-1.82-6.31-1.91-12.94-.33-19.15,2.51,1.08,5.08,1.96,7.81,2.49l15.16,2.8c6.66,1.27,13.31,2.27,19.92,3.07,13.8,1.66,27.56,2.33,41.21,2.11l149.59,28.1,70.47-128.28c15.85-17.57,29.77-37.17,41.39-58.65.54-1.07,1.03-2.15,1.53-3.28,9.37,3.24,17.16,10.22,21.32,19.45l2.74,6.01c4.69,10.38,4.23,22.36-1.16,32.4"/>
  </g>
  <path class="cls-10" d="m976.13,1958.99c-1.38,0-2.78-.12-4.17-.38l-230.65-41.83c-5.84-1.06-9.71-6.65-8.65-12.48,1.06-5.83,6.63-9.69,12.48-8.65l230.65,41.83c.8.13,1.58-.23,1.97-.93l105.81-189.98c2.89-5.19,9.43-7.04,14.61-4.16,5.18,2.89,7.04,9.43,4.16,14.61l-105.81,189.98c-4.17,7.49-12.03,11.99-20.39,11.99Z"/>
  <path class="cls-10" d="m1004.42,2003.97c-4.01,0-7.86-2.26-9.7-6.12l-19.53-41.02c-2.55-5.36-.28-11.77,5.08-14.32,5.35-2.54,11.76-.27,14.31,5.08l19.53,41.02c2.55,5.36.28,11.77-5.08,14.32-1.49.71-3.06,1.04-4.61,1.04Z"/>
  <path class="cls-10" d="m989.56,2012.56c-3.25,0-6.53-.3-9.82-.92l-206.3-38.73c-19.61-3.69-35.26-17.88-40.83-37.03l-3.55-12.2c-4.23-14.53-1.99-30.19,6.12-42.95l100.38-157.8c11.27-17.71,31.96-27.02,52.67-23.73l199.32,31.66c17.56,2.8,32.4,14.13,39.71,30.32l2.72,6.03c6.72,14.87,6.1,32.33-1.68,46.7l-92.55,171.04c-9.34,17.26-27.13,27.6-46.19,27.6Zm-109.59-281.8c-6.91,0-13.44,3.51-17.23,9.46l-100.37,157.79c-3.15,4.95-4.02,11.03-2.38,16.67l3.55,12.2c2.16,7.44,8.23,12.94,15.84,14.37l206.3,38.73c8.78,1.64,17.49-2.51,21.73-10.35h0l92.55-171.05c3.02-5.57,3.26-12.34.65-18.12l-2.72-6.04c-2.83-6.27-8.59-10.67-15.41-11.75l-199.31-31.66c-1.07-.17-2.15-.25-3.21-.25Z"/>
  <path class="cls-6" d="m628.23,1916.19l92.55-171.05c5.43-10.03,5.86-22.02,1.17-32.41l-2.72-6.02c-5.06-11.21-15.41-19.11-27.55-21.04l-199.32-31.66c-14.38-2.29-28.74,4.19-36.55,16.47l-100.37,157.79c-5.64,8.87-7.19,19.73-4.26,29.81l3.55,12.21c3.85,13.22,14.8,23.16,28.33,25.7l206.3,38.73c15.6,2.93,31.31-4.56,38.87-18.51"/>
  <g class="cls-5">
    <path class="cls-10" d="m571.96,1867.87l-111.8-19.99c83.57,3.56,115.25,1.84,177.74-81.15l-52.69,94.85c-2.61,4.71-7.94,7.24-13.25,6.29"/>
  </g>
  <g class="cls-5">
    <path class="cls-10" d="m720.8,1745.13l-92.59,171.07c-7.51,13.97-23.23,21.43-38.84,18.52l-206.31-38.74c-13.53-2.55-24.47-12.49-28.31-25.71l-3.6-12.21c-1.82-6.31-1.91-12.94-.33-19.14,2.51,1.07,5.08,1.95,7.81,2.48l15.16,2.81c6.66,1.26,13.31,2.27,19.92,3.06,13.8,1.66,27.56,2.33,41.22,2.11l149.59,28.1,70.47-128.28c15.85-17.57,29.77-37.17,41.39-58.65.54-1.07,1.03-2.15,1.53-3.28,9.37,3.25,17.16,10.23,21.32,19.45l2.74,6c4.69,10.38,4.23,22.36-1.16,32.4"/>
  </g>
  <path class="cls-10" d="m582.77,1897.87c-1.38,0-2.78-.12-4.17-.38l-230.65-41.83c-5.83-1.06-9.71-6.65-8.65-12.48,1.06-5.84,6.66-9.7,12.48-8.65l230.65,41.83c.79.14,1.58-.23,1.97-.93l105.81-189.98c2.89-5.19,9.43-7.04,14.61-4.16,5.18,2.89,7.04,9.43,4.16,14.61l-105.81,189.98c-4.17,7.49-12.04,11.99-20.39,11.99Z"/>
  <path class="cls-10" d="m611.07,1942.84c-4.01,0-7.86-2.26-9.7-6.12l-19.53-41.01c-2.55-5.36-.28-11.77,5.08-14.32,5.35-2.55,11.76-.28,14.31,5.08l19.53,41.01c2.55,5.36.28,11.77-5.08,14.32-1.49.71-3.06,1.04-4.61,1.04Z"/>
  <path class="cls-10" d="m596.19,1951.45c-3.24,0-6.52-.3-9.8-.92l-206.31-38.74c-19.6-3.68-35.25-17.87-40.83-37.03l-3.55-12.21c-4.23-14.52-1.99-30.18,6.13-42.95l100.38-157.79c11.26-17.71,31.92-27.03,52.67-23.73l199.32,31.67c17.56,2.79,32.4,14.13,39.71,30.33l2.71,6c6.73,14.9,6.1,32.36-1.67,46.72l-92.55,171.05h0c-9.34,17.26-27.14,27.6-46.2,27.6Zm-109.58-281.8c-6.91,0-13.43,3.51-17.22,9.46l-100.37,157.79c-3.15,4.96-4.02,11.03-2.38,16.66l3.55,12.21c2.17,7.44,8.23,12.94,15.84,14.37l206.31,38.74c8.76,1.66,17.49-2.51,21.73-10.35l92.55-171.05c3.02-5.57,3.26-12.35.65-18.12l-2.71-6c-2.84-6.3-8.6-10.69-15.41-11.78l-199.32-31.67c-1.07-.17-2.15-.25-3.22-.25Zm141.62,246.54h.05-.05Z"/>
  <path class="cls-6" d="m1612.91,1715.03l92.56-171.05c5.43-10.03,5.86-22.02,1.16-32.41l-2.72-6.02c-5.06-11.2-15.42-19.11-27.56-21.04l-199.32-31.66c-14.38-2.29-28.74,4.19-36.55,16.47l-100.37,157.79c-5.64,8.87-7.19,19.73-4.26,29.81l3.55,12.21c3.85,13.22,14.81,23.16,28.33,25.7l206.3,38.73c15.6,2.93,31.31-4.56,38.87-18.52"/>
  <g class="cls-5">
    <path class="cls-10" d="m1556.65,1666.71l-111.81-19.99c83.57,3.56,115.25,1.84,177.74-81.15l-52.69,94.85c-2.61,4.71-7.94,7.24-13.25,6.29"/>
  </g>
  <g class="cls-5">
    <path class="cls-10" d="m1705.49,1543.98l-92.6,171.07c-7.51,13.97-23.23,21.42-38.84,18.52l-206.31-38.74c-13.53-2.55-24.47-12.49-28.31-25.71l-3.59-12.21c-1.83-6.31-1.91-12.94-.34-19.15,2.51,1.08,5.09,1.96,7.81,2.49l15.16,2.81c6.66,1.26,13.31,2.26,19.92,3.06,13.8,1.66,27.56,2.33,41.22,2.11l149.59,28.1,70.46-128.28c15.85-17.57,29.77-37.17,41.39-58.65.54-1.07,1.03-2.15,1.53-3.28,9.37,3.25,17.16,10.23,21.32,19.45l2.74,6.01c4.69,10.38,4.23,22.36-1.16,32.4"/>
  </g>
  <path class="cls-10" d="m1567.46,1696.71c-1.38,0-2.78-.12-4.17-.38l-230.65-41.83c-5.83-1.06-9.71-6.65-8.65-12.48,1.06-5.83,6.64-9.7,12.48-8.65l230.65,41.83c.8.13,1.59-.23,1.98-.94l105.79-189.97c2.89-5.18,9.43-7.04,14.61-4.16,5.18,2.89,7.04,9.43,4.16,14.61l-105.8,189.98c-4.19,7.49-12.05,11.98-20.4,11.98Z"/>
  <path class="cls-10" d="m1595.76,1741.69c-4.01,0-7.86-2.26-9.7-6.13l-19.53-41.02c-2.55-5.35-.27-11.76,5.08-14.31,5.35-2.55,11.76-.28,14.31,5.08l19.53,41.02c2.55,5.35.27,11.76-5.08,14.31-1.49.71-3.06,1.04-4.61,1.04Z"/>
  <path class="cls-10" d="m1580.89,1750.29c-3.25,0-6.53-.3-9.81-.92l-206.3-38.73c-19.6-3.68-35.25-17.87-40.83-37.03l-3.55-12.21c-4.23-14.53-1.99-30.19,6.13-42.96l100.37-157.79c11.27-17.71,31.96-27.02,52.68-23.73l199.32,31.66c17.55,2.8,32.4,14.13,39.71,30.32l2.72,6.04c6.72,14.87,6.1,32.33-1.68,46.7l-92.56,171.04c-9.34,17.26-27.13,27.6-46.19,27.6Zm-109.59-281.8c-6.91,0-13.43,3.51-17.22,9.46l-100.37,157.79c-3.15,4.96-4.02,11.03-2.38,16.66l3.55,12.21c2.17,7.44,8.23,12.94,15.84,14.37l206.3,38.73c8.75,1.65,17.49-2.51,21.73-10.36h0l92.56-171.04c3.02-5.57,3.26-12.34.65-18.11l-2.72-6.04c-2.83-6.26-8.59-10.66-15.41-11.75l-199.31-31.66c-1.07-.17-2.15-.25-3.22-.25Z"/>
  <path class="cls-6" d="m1219.61,1650.16l92.56-171.05c5.43-10.03,5.86-22.03,1.16-32.42l-2.72-6.02c-5.06-11.2-15.42-19.11-27.56-21.04l-199.31-31.67c-14.38-2.28-28.74,4.19-36.56,16.47l-100.37,157.79c-5.63,8.87-7.19,19.73-4.25,29.81l3.55,12.21c3.85,13.22,14.8,23.16,28.33,25.7l206.3,38.73c15.61,2.93,31.31-4.55,38.87-18.51"/>
  <g class="cls-5">
    <path class="cls-10" d="m1163.34,1601.84l-111.8-19.98c83.56,3.56,115.24,1.84,177.74-81.16l-52.7,94.85c-2.61,4.71-7.94,7.24-13.24,6.29"/>
  </g>
  <g class="cls-5">
    <path class="cls-10" d="m1312.18,1479.11l-92.59,171.07c-7.52,13.97-23.23,21.43-38.84,18.52l-206.31-38.73c-13.53-2.55-24.47-12.5-28.31-25.71l-3.59-12.2c-1.83-6.31-1.91-12.94-.34-19.15,2.51,1.07,5.09,1.96,7.81,2.49l15.16,2.8c6.66,1.27,13.31,2.27,19.92,3.07,13.8,1.66,27.55,2.33,41.21,2.11l149.59,28.1,70.47-128.28c15.84-17.57,29.77-37.17,41.39-58.65.54-1.07,1.03-2.15,1.53-3.28,9.37,3.24,17.16,10.22,21.32,19.45l2.74,6.01c4.69,10.37,4.23,22.36-1.16,32.4"/>
  </g>
  <path class="cls-10" d="m1174.14,1631.85c-1.38,0-2.76-.12-4.15-.37l-230.66-41.84c-5.83-1.06-9.71-6.65-8.65-12.49,1.06-5.83,6.68-9.68,12.48-8.65l230.65,41.84c.77.14,1.58-.24,1.98-.94l105.8-189.97c2.89-5.19,9.43-7.04,14.61-4.16,5.18,2.89,7.04,9.43,4.16,14.61l-105.81,189.98c-4.18,7.49-12.05,11.99-20.41,11.99Z"/>
  <path class="cls-10" d="m1202.45,1676.82c-4.01,0-7.86-2.26-9.7-6.12l-19.53-41.01c-2.55-5.36-.28-11.77,5.08-14.32,5.35-2.54,11.76-.27,14.31,5.08l19.53,41.01c2.55,5.36.28,11.77-5.08,14.32-1.49.71-3.06,1.05-4.61,1.05Z"/>
  <path class="cls-10" d="m1187.57,1685.43c-3.24,0-6.52-.3-9.8-.92l-206.3-38.73c-19.62-3.69-35.26-17.88-40.83-37.03l-3.55-12.2c-4.23-14.52-2-30.18,6.12-42.95l100.38-157.79c11.27-17.71,31.95-27.03,52.67-23.74l199.32,31.67c17.55,2.78,32.4,14.12,39.71,30.32l2.72,6.02c6.72,14.88,6.1,32.35-1.67,46.71l-92.56,171.04c-9.33,17.26-27.13,27.6-46.2,27.6Zm-109.57-281.8c-6.91,0-13.44,3.51-17.23,9.47l-100.37,157.78c-3.15,4.96-4.02,11.03-2.38,16.66l3.55,12.21c2.16,7.44,8.23,12.94,15.84,14.37l206.29,38.73c8.75,1.64,17.49-2.52,21.73-10.35h0l92.56-171.04c3.02-5.57,3.26-12.35.65-18.12l-2.72-6.02c-2.84-6.28-8.59-10.68-15.4-11.76l-199.32-31.67c-1.07-.17-2.15-.25-3.21-.25Z"/>
  <path class="cls-6" d="m827.33,1587.6l92.56-171.05c5.43-10.03,5.86-22.02,1.16-32.41l-2.72-6.02c-5.06-11.2-15.42-19.11-27.56-21.04l-199.31-31.66c-14.38-2.29-28.74,4.19-36.55,16.47l-100.38,157.79c-5.63,8.87-7.18,19.73-4.25,29.81l3.55,12.21c3.85,13.22,14.8,23.16,28.33,25.7l206.3,38.73c15.61,2.93,31.32-4.56,38.87-18.52"/>
  <g class="cls-5">
    <path class="cls-10" d="m771.07,1539.28l-111.8-19.99c83.56,3.56,115.25,1.84,177.74-81.15l-52.69,94.85c-2.62,4.71-7.94,7.24-13.25,6.29"/>
  </g>
  <g class="cls-5">
    <path class="cls-10" d="m919.9,1416.55l-92.59,171.07c-7.52,13.97-23.23,21.42-38.84,18.52l-206.31-38.74c-13.53-2.55-24.47-12.49-28.31-25.71l-3.59-12.21c-1.83-6.31-1.91-12.94-.33-19.15,2.51,1.08,5.08,1.96,7.81,2.49l15.16,2.81c6.66,1.26,13.31,2.26,19.92,3.06,13.8,1.66,27.56,2.33,41.21,2.11l149.59,28.1,70.47-128.28c15.85-17.57,29.77-37.17,41.39-58.65.54-1.07,1.03-2.15,1.53-3.28,9.37,3.25,17.16,10.23,21.32,19.45l2.74,6.01c4.69,10.38,4.23,22.36-1.16,32.4"/>
  </g>
  <path class="cls-10" d="m781.88,1569.29c-1.39,0-2.79-.13-4.19-.38l-230.64-41.83c-5.84-1.06-9.71-6.65-8.65-12.48,1.06-5.83,6.62-9.7,12.48-8.65l230.65,41.83c.78.14,1.58-.23,1.97-.93l105.81-189.98c2.89-5.19,9.43-7.03,14.61-4.16,5.18,2.89,7.04,9.43,4.16,14.61l-105.81,189.98c-4.17,7.49-12.03,11.99-20.38,11.99Z"/>
  <path class="cls-10" d="m810.17,1614.26c-4.01,0-7.86-2.26-9.7-6.12l-19.53-41.01c-2.55-5.36-.28-11.77,5.08-14.32,5.35-2.54,11.76-.27,14.31,5.08l19.53,41.01c2.55,5.36.28,11.77-5.08,14.32-1.49.71-3.06,1.04-4.61,1.04Z"/>
  <path class="cls-10" d="m795.3,1622.86c-3.25,0-6.53-.3-9.81-.92l-206.3-38.73c-19.61-3.68-35.26-17.87-40.83-37.03l-3.55-12.2c-4.23-14.52-1.99-30.18,6.12-42.95l100.38-157.8c11.27-17.71,31.93-27.02,52.67-23.73l199.31,31.67c17.55,2.79,32.4,14.12,39.71,30.31l2.72,6.04c6.72,14.87,6.1,32.33-1.68,46.7l-92.55,171.04c-9.33,17.26-27.12,27.61-46.19,27.61Zm-109.59-281.8c-6.91,0-13.43,3.51-17.22,9.46l-100.38,157.79c-3.15,4.95-4.02,11.03-2.38,16.67l3.55,12.21c2.16,7.44,8.23,12.94,15.84,14.37l206.3,38.73c8.75,1.64,17.49-2.51,21.73-10.35h0s92.56-171.05,92.56-171.05c3.02-5.57,3.26-12.34.65-18.11l-2.72-6.04c-2.83-6.27-8.59-10.66-15.4-11.75l-199.31-31.67c-1.08-.17-2.15-.25-3.22-.25Z"/>
  <path class="cls-6" d="m1816.03,1376.03l91.02-171.86c5.34-10.08,5.66-22.08.88-32.43l-2.77-5.99c-5.16-11.16-15.59-18.98-27.75-20.79l-199.59-29.89c-14.4-2.16-28.7,4.44-36.41,16.8l-98.96,158.68c-5.56,8.91-7.01,19.79-3.98,29.85l3.66,12.18c3.97,13.18,15.01,23.02,28.56,25.44l206.64,36.89c15.63,2.79,31.27-4.83,38.7-18.86"/>
  <g class="cls-5">
    <path class="cls-10" d="m1759.34,1328.22l-111.99-18.99c83.6,2.82,115.26.81,177.02-82.74l-51.84,95.31c-2.58,4.74-7.88,7.32-13.19,6.41"/>
  </g>
  <g class="cls-5">
    <path class="cls-10" d="m1907.08,1204.16l-91.07,171.89c-7.39,14.03-23.04,21.63-38.67,18.86l-206.65-36.89c-13.56-2.43-24.58-12.28-28.54-25.46l-3.7-12.18c-1.88-6.29-2.02-12.91-.51-19.14,2.51,1.05,5.1,1.91,7.83,2.42l15.18,2.67c6.68,1.21,13.33,2.15,19.95,2.88,13.81,1.54,27.57,2.09,41.24,1.75l149.83,26.76,69.32-128.9c15.69-17.7,29.43-37.43,40.86-59.02.53-1.07,1.01-2.15,1.5-3.29,9.39,3.16,17.24,10.07,21.48,19.26l2.79,5.98c4.78,10.34,4.43,22.32-.87,32.41"/>
  </g>
  <path class="cls-10" d="m1770.21,1358.13c-1.31,0-2.64-.11-3.96-.34l-231.02-39.77c-5.85-1.01-9.77-6.56-8.76-12.41,1.01-5.84,6.59-9.74,12.4-8.76l231.02,39.77c.81.15,1.58-.24,1.96-.95l104.1-190.91c2.84-5.21,9.36-7.12,14.57-4.29,5.21,2.84,7.13,9.37,4.29,14.57l-104.11,190.91c-4.14,7.59-12.06,12.17-20.49,12.17Z"/>
  <path class="cls-10" d="m1799.02,1402.85c-3.98,0-7.8-2.22-9.66-6.04l-19.89-40.84c-2.6-5.33-.38-11.76,4.95-14.36,5.33-2.59,11.76-.38,14.36,4.95l19.89,40.84c2.6,5.33.38,11.76-4.95,14.36-1.51.74-3.12,1.09-4.69,1.09Z"/>
  <path class="cls-10" d="m1783.85,1411.59c-3.09,0-6.22-.27-9.35-.83l-206.64-36.89c-19.63-3.51-35.41-17.55-41.16-36.66l-3.66-12.18c-4.36-14.48-2.27-30.16,5.74-43.01l98.96-158.68c11.12-17.81,31.73-27.32,52.47-24.2l199.59,29.88c17.56,2.63,32.51,13.83,39.98,29.96l2.77,6c6.86,14.82,6.38,32.3-1.26,46.73l-91.02,171.86h0c-9.26,17.48-27.18,28.01-46.42,28.01Zm-111.45-280.82c-6.98,0-13.55,3.58-17.32,9.62l-98.96,158.68c-3.11,4.98-3.92,11.06-2.22,16.68l3.66,12.18c2.23,7.41,8.35,12.86,15.96,14.21l206.64,36.89c8.76,1.57,17.46-2.67,21.63-10.54l91.02-171.86c2.97-5.6,3.15-12.38.49-18.13l-2.77-5.99c-2.9-6.26-8.7-10.61-15.51-11.63l-199.59-29.89c-1.02-.16-2.03-.23-3.04-.23Zm143.63,245.26h.05-.05Z"/>
  <path class="cls-6" d="m1422.18,1317.61l91.02-171.86c5.34-10.08,5.66-22.08.88-32.43l-2.77-5.99c-5.16-11.16-15.59-18.98-27.75-20.79l-199.59-29.89c-14.4-2.16-28.7,4.44-36.41,16.8l-98.96,158.68c-5.56,8.91-7.01,19.79-3.99,29.85l3.66,12.18c3.97,13.18,15.01,23.02,28.56,25.44l206.64,36.89c15.63,2.79,31.27-4.83,38.7-18.86"/>
  <g class="cls-5">
    <path class="cls-10" d="m1365.48,1269.8l-111.98-18.99c83.59,2.82,115.26.81,177.01-82.74l-51.84,95.31c-2.57,4.74-7.88,7.32-13.19,6.41"/>
  </g>
  <g class="cls-5">
    <path class="cls-10" d="m1513.22,1145.73l-91.07,171.89c-7.39,14.03-23.04,21.63-38.67,18.86l-206.65-36.89c-13.55-2.43-24.59-12.28-28.54-25.46l-3.7-12.18c-1.88-6.29-2.02-12.91-.51-19.14,2.52,1.05,5.1,1.91,7.83,2.42l15.18,2.67c6.68,1.21,13.33,2.15,19.95,2.88,13.81,1.54,27.57,2.09,41.24,1.75l149.84,26.76,69.32-128.9c15.69-17.7,29.43-37.43,40.87-59.02.53-1.07,1.01-2.15,1.5-3.29,9.39,3.16,17.24,10.07,21.49,19.26l2.79,5.98c4.78,10.34,4.43,22.32-.87,32.41"/>
  </g>
  <path class="cls-10" d="m1376.34,1299.7c-1.31,0-2.63-.11-3.96-.34l-231.02-39.77c-5.85-1.01-9.77-6.56-8.76-12.41,1.01-5.84,6.59-9.72,12.4-8.76l231.02,39.77c.79.14,1.58-.25,1.96-.95l104.11-190.91c2.84-5.21,9.36-7.12,14.57-4.29,5.21,2.84,7.13,9.37,4.29,14.57l-104.11,190.91c-4.14,7.59-12.06,12.17-20.5,12.17Z"/>
  <path class="cls-10" d="m1405.16,1344.42c-3.98,0-7.8-2.22-9.66-6.04l-19.89-40.84c-2.6-5.33-.38-11.76,4.95-14.36,5.33-2.59,11.76-.38,14.36,4.95l19.89,40.84c2.6,5.33.38,11.76-4.95,14.36-1.51.74-3.12,1.09-4.69,1.09Z"/>
  <path class="cls-10" d="m1390,1353.16c-3.09,0-6.22-.27-9.35-.83l-206.64-36.89c-19.64-3.51-35.41-17.55-41.16-36.65l-3.66-12.19c-4.36-14.49-2.26-30.17,5.75-43.01l98.96-158.68c11.11-17.81,31.69-27.34,52.46-24.2l199.59,29.88c17.57,2.63,32.52,13.83,39.98,29.96l2.77,6c6.85,14.82,6.38,32.29-1.26,46.72l-91.02,171.86c-9.26,17.49-27.17,28.02-46.42,28.02Zm-111.45-280.82c-6.98,0-13.55,3.57-17.31,9.61l-98.96,158.68c-3.11,4.98-3.92,11.06-2.23,16.68l3.66,12.18c2.23,7.4,8.35,12.85,15.96,14.21l206.64,36.89c8.76,1.58,17.47-2.67,21.63-10.54h0s91.02-171.87,91.02-171.87c2.97-5.6,3.15-12.38.49-18.12l-2.77-6c-2.89-6.25-8.69-10.6-15.51-11.62l-199.59-29.89c-1.02-.16-2.03-.23-3.04-.23Z"/>
  <path class="cls-6" d="m1028.23,1259.45l91.02-171.87c5.34-10.08,5.66-22.07.88-32.42l-2.77-5.99c-5.16-11.16-15.59-18.98-27.75-20.79l-199.59-29.89c-14.4-2.15-28.7,4.44-36.41,16.8l-98.96,158.68c-5.56,8.91-7.01,19.79-3.99,29.85l3.66,12.18c3.97,13.18,15.01,23.02,28.57,25.44l206.63,36.89c15.63,2.79,31.27-4.83,38.71-18.86"/>
  <g class="cls-5">
    <path class="cls-10" d="m971.54,1211.64l-111.99-18.99c83.59,2.82,115.26.82,177.01-82.73l-51.84,95.31c-2.58,4.74-7.88,7.32-13.19,6.41"/>
  </g>
  <g class="cls-5">
    <path class="cls-10" d="m1119.28,1087.58l-91.07,171.89c-7.39,14.04-23.04,21.64-38.67,18.86l-206.65-36.89c-13.55-2.43-24.58-12.28-28.54-25.46l-3.7-12.18c-1.88-6.3-2.02-12.91-.51-19.14,2.51,1.05,5.1,1.91,7.83,2.42l15.18,2.67c6.68,1.2,13.33,2.15,19.96,2.88,13.81,1.54,27.57,2.09,41.23,1.75l149.84,26.76,69.32-128.9c15.68-17.71,29.43-37.43,40.86-59.02.53-1.07,1.01-2.15,1.5-3.29,9.4,3.16,17.25,10.06,21.49,19.26l2.79,5.98c4.78,10.34,4.43,22.32-.87,32.41"/>
  </g>
  <path class="cls-10" d="m982.39,1241.55c-1.3,0-2.62-.11-3.94-.34l-231.03-39.77c-5.85-1.01-9.77-6.56-8.76-12.41,1.01-5.84,6.57-9.73,12.4-8.76l231.01,39.77c.8.17,1.59-.25,1.98-.96l104.09-190.9c2.84-5.21,9.36-7.12,14.57-4.29,5.21,2.84,7.13,9.37,4.29,14.57l-104.1,190.91c-4.16,7.59-12.08,12.17-20.52,12.17Z"/>
  <path class="cls-10" d="m1011.21,1286.27c-3.98,0-7.8-2.22-9.66-6.04l-19.89-40.84c-2.6-5.33-.38-11.76,4.95-14.36,5.33-2.59,11.76-.38,14.36,4.95l19.89,40.84c2.6,5.33.38,11.76-4.95,14.36-1.51.74-3.12,1.09-4.69,1.09Z"/>
  <path class="cls-10" d="m996.03,1295.01c-3.09,0-6.2-.27-9.33-.83l-206.64-36.89c-19.63-3.5-35.4-17.54-41.16-36.65l-3.66-12.19c-4.36-14.49-2.26-30.17,5.75-43.01l98.96-158.68c11.1-17.81,31.66-27.32,52.46-24.21l199.59,29.89c17.58,2.64,32.52,13.84,39.99,29.97l2.77,6c6.85,14.83,6.38,32.3-1.26,46.72l-91.02,171.86h0c-9.26,17.48-27.19,28.01-46.43,28.01Zm-111.43-280.82c-6.98,0-13.55,3.58-17.32,9.62l-98.96,158.68c-3.11,4.98-3.92,11.06-2.23,16.68l3.66,12.18c2.23,7.4,8.35,12.85,15.97,14.21l206.64,36.89c8.76,1.59,17.47-2.68,21.64-10.55l91.02-171.87c2.97-5.6,3.15-12.37.49-18.12l-2.77-6c-2.89-6.25-8.69-10.6-15.52-11.62l-199.59-29.89c-1.01-.15-2.03-.23-3.03-.23Zm143.63,245.26h.05-.05Z"/>
  <path class="cls-6" d="m2009.2,1062.86l90.96-171.9c5.34-10.08,5.65-22.08.87-32.43l-2.78-5.99c-5.16-11.16-15.59-18.97-27.75-20.78l-199.6-29.81c-14.4-2.15-28.7,4.45-36.4,16.81l-98.9,158.71c-5.56,8.92-7.01,19.8-3.97,29.85l3.66,12.17c3.98,13.18,15.02,23.01,28.57,25.43l206.65,36.82c15.63,2.78,31.27-4.84,38.7-18.88"/>
  <g class="cls-5">
    <path class="cls-10" d="m1952.49,1015.07l-111.99-18.95c83.6,2.79,115.26.77,176.98-82.8l-51.8,95.33c-2.57,4.74-7.88,7.32-13.19,6.42"/>
  </g>
  <g class="cls-5">
    <path class="cls-10" d="m2100.18,890.96l-91.01,171.92c-7.38,14.04-23.03,21.64-38.67,18.87l-206.66-36.81c-13.56-2.43-24.58-12.27-28.55-25.45l-3.7-12.17c-1.88-6.3-2.03-12.92-.52-19.15,2.52,1.05,5.11,1.91,7.83,2.42l15.18,2.66c6.68,1.21,13.33,2.14,19.96,2.88,13.81,1.53,27.57,2.07,41.23,1.73l149.85,26.7,69.28-128.93c15.68-17.71,29.42-37.44,40.84-59.04.53-1.07,1.01-2.15,1.5-3.29,9.39,3.16,17.25,10.06,21.49,19.25l2.79,5.98c4.79,10.34,4.44,22.32-.85,32.41"/>
  </g>
  <path class="cls-10" d="m1963.35,1044.97c-1.31,0-2.63-.11-3.96-.34l-231.03-39.68c-5.84-1.01-9.77-6.56-8.76-12.4,1-5.84,6.55-9.76,12.4-8.77l231.03,39.68c.79.15,1.57-.24,1.96-.95l104.04-190.95c2.84-5.21,9.35-7.13,14.57-4.29,5.21,2.84,7.13,9.36,4.29,14.57l-104.04,190.94c-4.13,7.6-12.06,12.19-20.5,12.19Z"/>
  <path class="cls-10" d="m1992.19,1089.68c-3.98,0-7.8-2.22-9.66-6.04l-19.91-40.83c-2.6-5.33-.38-11.76,4.95-14.36,5.34-2.6,11.76-.38,14.36,4.95l19.91,40.83c2.6,5.33.38,11.76-4.95,14.36-1.52.74-3.12,1.09-4.7,1.09Z"/>
  <path class="cls-10" d="m1977,1098.42c-3.08,0-6.2-.27-9.32-.83l-206.66-36.82c-19.63-3.5-35.41-17.54-41.17-36.64l-3.66-12.18c-4.37-14.48-2.28-30.16,5.73-43.02l98.9-158.71c11.1-17.81,31.69-27.33,52.45-24.22l199.6,29.81c17.58,2.62,32.53,13.82,39.99,29.96l2.77,5.97c6.87,14.84,6.4,32.31-1.25,46.75l-90.95,171.89h0c-9.26,17.49-27.19,28.03-46.44,28.03Zm-111.52-280.78c-6.98,0-13.55,3.58-17.31,9.62l-98.9,158.72c-3.11,4.99-3.92,11.07-2.22,16.68l3.66,12.18c2.23,7.41,8.36,12.86,15.97,14.21l206.65,36.82c8.8,1.56,17.47-2.69,21.63-10.56l90.96-171.89c2.97-5.6,3.15-12.38.49-18.13l-2.77-5.98c-2.9-6.27-8.69-10.61-15.51-11.63l-199.61-29.81c-1.01-.15-2.03-.23-3.03-.23Zm143.72,245.21h.05-.05Z"/>
  <path class="cls-6" d="m1614.51,1005.95l90.96-171.9c5.34-10.08,5.65-22.07.86-32.42l-2.77-5.99c-5.16-11.16-15.6-18.97-27.75-20.78l-199.6-29.81c-14.4-2.15-28.7,4.45-36.4,16.81l-98.9,158.71c-5.55,8.92-7,19.8-3.97,29.85l3.66,12.17c3.97,13.19,15.02,23.02,28.57,25.44l206.65,36.82c15.63,2.78,31.27-4.84,38.7-18.88"/>
  <g class="cls-5">
    <path class="cls-10" d="m1557.81,958.15l-111.99-18.95c83.59,2.79,115.26.77,176.98-82.8l-51.8,95.34c-2.57,4.74-7.87,7.32-13.19,6.41"/>
  </g>
  <g class="cls-5">
    <path class="cls-10" d="m1705.5,834.04l-91,171.92c-7.39,14.04-23.03,21.64-38.67,18.88l-206.66-36.81c-13.56-2.43-24.59-12.27-28.55-25.45l-3.7-12.17c-1.88-6.29-2.03-12.92-.51-19.15,2.51,1.06,5.1,1.91,7.83,2.42l15.18,2.66c6.68,1.21,13.33,2.15,19.96,2.88,13.81,1.53,27.57,2.07,41.22,1.73l149.85,26.7,69.27-128.93c15.68-17.71,29.42-37.45,40.84-59.04.54-1.07,1.01-2.16,1.5-3.29,9.4,3.15,17.25,10.06,21.49,19.25l2.8,5.98c4.79,10.34,4.44,22.31-.86,32.41"/>
  </g>
  <path class="cls-10" d="m1568.68,988.06c-1.32,0-2.64-.11-3.97-.34l-231.02-39.68c-5.84-1.01-9.77-6.56-8.76-12.4,1-5.84,6.53-9.76,12.4-8.77l231.03,39.68c.78.15,1.57-.24,1.96-.95l104.04-190.95c2.84-5.21,9.35-7.13,14.57-4.29,5.21,2.84,7.13,9.36,4.29,14.57l-104.04,190.95c-4.14,7.6-12.05,12.18-20.49,12.18Z"/>
  <path class="cls-10" d="m1597.5,1032.77c-3.98,0-7.8-2.22-9.66-6.04l-19.91-40.83c-2.6-5.33-.38-11.76,4.95-14.36,5.34-2.59,11.76-.38,14.36,4.95l19.91,40.83c2.6,5.33.38,11.76-4.95,14.36-1.52.74-3.12,1.09-4.7,1.09Z"/>
  <path class="cls-10" d="m1582.32,1041.51c-3.08,0-6.2-.27-9.32-.83l-206.65-36.82c-19.65-3.51-35.42-17.55-41.17-36.66l-3.66-12.17c-4.36-14.49-2.28-30.17,5.72-43.02l98.9-158.72c11.11-17.81,31.69-27.3,52.45-24.22l199.61,29.81c17.57,2.62,32.52,13.82,39.99,29.96l2.77,5.99c6.86,14.82,6.4,32.29-1.25,46.72l-90.96,171.89c-9.25,17.5-27.18,28.04-46.44,28.04Zm-111.51-280.78c-6.98,0-13.56,3.58-17.33,9.62l-98.9,158.71c-3.1,4.98-3.91,11.07-2.22,16.69l3.66,12.17c2.23,7.41,8.36,12.86,15.98,14.23l206.64,36.81c8.77,1.55,17.47-2.68,21.63-10.55h0s90.96-171.91,90.96-171.91c2.97-5.6,3.14-12.37.48-18.12l-2.77-6c-2.9-6.26-8.69-10.6-15.51-11.62l-199.61-29.81c-1.01-.15-2.02-.22-3.02-.22Z"/>
  <path class="cls-6" d="m1222.19,949.91l88.94-172.96c5.21-10.14,5.39-22.14.48-32.43l-2.84-5.96c-5.3-11.1-15.82-18.79-28-20.46l-199.94-27.46c-14.43-1.99-28.65,4.79-36.2,17.23l-97.03,159.87c-5.45,8.98-6.77,19.87-3.62,29.9l3.81,12.13c4.12,13.14,15.28,22.84,28.87,25.09l207.07,34.38c15.67,2.6,31.21-5.21,38.47-19.33"/>
  <g class="cls-5">
    <path class="cls-10" d="m1164.93,902.79l-112.21-17.63c83.63,1.8,115.27-.58,176-84.87l-50.68,95.93c-2.52,4.77-7.79,7.41-13.11,6.57"/>
  </g>
  <g class="cls-5">
    <path class="cls-10" d="m1311.15,776.95l-88.98,172.98c-7.21,14.12-22.77,21.91-38.43,19.33l-207.08-34.38c-13.58-2.27-24.73-11.98-28.84-25.11l-3.85-12.13c-1.96-6.27-2.17-12.89-.73-19.13,2.53,1.02,5.12,1.84,7.85,2.32l15.22,2.48c6.69,1.13,13.35,1.99,19.99,2.65,13.82,1.36,27.59,1.75,41.25,1.24l150.15,24.94,67.75-129.74c15.48-17.89,28.98-37.78,40.15-59.51.52-1.08.98-2.17,1.46-3.3,9.43,3.04,17.37,9.86,21.72,19l2.87,5.95c4.9,10.28,4.7,22.26-.48,32.41"/>
  </g>
  <path class="cls-10" d="m1175.87,932.57c-1.22,0-2.45-.1-3.69-.29l-231.49-36.97c-5.86-.94-9.85-6.44-8.91-12.3.94-5.85,6.43-9.85,12.3-8.91l231.48,36.97c.78.13,1.57-.26,1.94-.97l101.79-192.16c2.77-5.24,9.27-7.23,14.52-4.46,5.24,2.78,7.24,9.28,4.46,14.52l-101.79,192.16c-4.09,7.72-12.08,12.42-20.62,12.42Z"/>
  <path class="cls-10" d="m1205.37,976.93c-3.93,0-7.72-2.17-9.6-5.92l-20.38-40.59c-2.66-5.3-.52-11.76,4.78-14.42,5.31-2.65,11.76-.52,14.42,4.78l20.38,40.59c2.66,5.3.52,11.76-4.78,14.42-1.55.78-3.19,1.14-4.81,1.14Z"/>
  <path class="cls-10" d="m1189.8,985.85c-2.89,0-5.8-.23-8.72-.72l-207.07-34.38c-19.68-3.27-35.62-17.12-41.6-36.15l-3.81-12.13c-4.53-14.44-2.63-30.14,5.22-43.08l97.03-159.87c10.89-17.95,31.35-27.71,52.17-24.83l199.94,27.47c17.6,2.41,32.68,13.43,40.34,29.48l2.85,5.97c7.03,14.73,6.77,32.2-.7,46.72l-88.94,172.96h0c-9.15,17.79-27.23,28.57-46.71,28.57Zm-113.95-279.45c-7.07,0-13.71,3.67-17.45,9.83l-97.03,159.87c-3.04,5.01-3.78,11.11-2.02,16.72l3.81,12.12c2.32,7.38,8.5,12.75,16.14,14.02l207.07,34.38c8.79,1.43,17.43-2.89,21.51-10.81l88.94-172.95c2.9-5.63,3-12.41.27-18.12l-2.84-5.97c-2.97-6.22-8.82-10.49-15.64-11.43l-199.94-27.47c-.93-.13-1.87-.19-2.79-.19Zm146.34,243.51h.05-.05Z"/>
  <path class="cls-9" d="m2420.01,1130.55l89.69-172.57c5.26-10.12,5.49-22.12.62-32.43l-2.82-5.97c-5.25-11.12-15.74-18.85-27.91-20.58l-199.82-28.33c-14.42-2.04-28.67,4.67-36.27,17.08l-97.72,159.44c-5.49,8.95-6.86,19.84-3.75,29.88l3.75,12.15c4.07,13.15,15.19,22.9,28.76,25.22l206.92,35.28c15.65,2.67,31.23-5.08,38.55-19.16"/>
  <g class="cls-3">
    <path class="cls-10" d="m2510.32,925.55l-2.82-5.97c-4.06-8.61-11.29-15.16-19.99-18.48-.68,2.54-1.61,5.03-2.84,7.4l-89.69,172.57c-7.32,14.09-22.9,21.83-38.55,19.17l-206.92-35.28c-3.11-.53-6.06-1.49-8.85-2.75-.56,4.95-.13,10.01,1.37,14.87l3.76,12.15c4.06,13.15,15.19,22.9,28.75,25.22l206.92,35.28c15.65,2.67,31.23-5.08,38.55-19.16l89.69-172.57c5.26-10.12,5.49-22.12.62-32.43"/>
  </g>
  <g class="cls-1">
    <path class="cls-7" d="m2161.86,1085.27l97.72-159.44c7.61-12.41,21.86-19.12,36.27-17.08l199.82,28.33c6.68.95,12.81,3.75,17.89,7.89.69-6.57-.35-13.29-3.24-19.42l-2.82-5.97c-5.24-11.12-15.74-18.85-27.91-20.58l-199.82-28.33c-14.41-2.04-28.67,4.67-36.27,17.09l-97.72,159.44c-5.49,8.96-6.86,19.84-3.75,29.89l3.75,12.14c2.03,6.56,5.82,12.27,10.78,16.64-.29-7.17,1.48-14.34,5.31-20.58"/>
  </g>
  <path class="cls-10" d="m2373.87,1113c-1.26,0-2.52-.1-3.79-.31l-231.32-37.97c-5.85-.96-9.82-6.48-8.86-12.33.96-5.85,6.45-9.84,12.34-8.86l231.32,37.97c.77.1,1.58-.26,1.96-.97l102.62-191.71c2.8-5.23,9.3-7.21,14.54-4.4,5.23,2.8,7.2,9.31,4.4,14.54l-102.62,191.71c-4.11,7.68-12.08,12.33-20.58,12.33Z"/>
  <path class="cls-10" d="m2403.12,1157.5c-3.95,0-7.75-2.19-9.63-5.97l-20.21-40.68c-2.64-5.31-.47-11.75,4.84-14.39,5.31-2.64,11.76-.47,14.4,4.84l20.21,40.68c2.64,5.31.47,11.75-4.84,14.39-1.54.76-3.16,1.12-4.77,1.12Z"/>
  <path class="cls-10" d="m2387.71,1166.35c-2.96,0-5.95-.25-8.96-.76l-206.92-35.28c-19.66-3.35-35.54-17.28-41.44-36.33l-3.75-12.15c-4.47-14.45-2.5-30.14,5.41-43.05l97.72-159.44c10.96-17.89,31.47-27.54,52.27-24.61l199.82,28.33c17.6,2.5,32.63,13.58,40.21,29.65l2.82,5.97c6.97,14.77,6.63,32.24-.9,46.73l-89.69,172.57c-9.18,17.68-27.2,28.38-46.6,28.38Zm-113.06-279.94c-7.04,0-13.66,3.63-17.4,9.75l-97.72,159.45c-3.07,5-3.83,11.09-2.1,16.69l3.75,12.16c2.29,7.39,8.45,12.79,16.08,14.09l206.92,35.28c8.77,1.5,17.44-2.81,21.55-10.71h0l89.68-172.57c2.92-5.62,3.05-12.4.35-18.13l-2.82-5.97c-2.94-6.23-8.78-10.53-15.61-11.5l-199.81-28.33c-.96-.14-1.92-.2-2.87-.2Z"/>
  <path class="cls-9" d="m2227.52,1438.96l89.68-172.57c5.26-10.12,5.49-22.12.62-32.43l-2.81-5.97c-5.25-11.12-15.74-18.85-27.91-20.57l-199.82-28.33c-14.41-2.04-28.66,4.67-36.27,17.08l-97.72,159.45c-5.49,8.95-6.86,19.84-3.75,29.87l3.75,12.15c4.07,13.15,15.19,22.9,28.76,25.22l206.91,35.28c15.65,2.67,31.23-5.08,38.55-19.16"/>
  <g class="cls-3">
    <path class="cls-10" d="m2317.83,1233.96l-2.82-5.97c-4.06-8.61-11.29-15.15-19.99-18.48-.68,2.54-1.61,5.03-2.85,7.41l-89.69,172.57c-7.32,14.09-22.9,21.83-38.55,19.17l-206.92-35.28c-3.1-.53-6.06-1.49-8.85-2.76-.56,4.95-.12,10.01,1.38,14.87l3.76,12.15c4.06,13.15,15.19,22.9,28.76,25.22l206.91,35.28c15.65,2.67,31.23-5.08,38.55-19.16l89.69-172.57c5.26-10.12,5.49-22.12.62-32.43"/>
  </g>
  <g class="cls-1">
    <path class="cls-7" d="m1974.46,1394.29l97.72-159.45c7.61-12.41,21.86-19.12,36.27-17.08l199.82,28.33c4.66.66,9.05,2.21,13.01,4.48.16-5.66-.97-11.36-3.46-16.63l-2.82-5.97c-5.24-11.12-15.73-18.85-27.91-20.58l-199.81-28.33c-14.42-2.04-28.67,4.67-36.28,17.08l-97.72,159.44c-5.49,8.96-6.86,19.84-3.75,29.88l3.75,12.15c2.7,8.75,8.56,15.92,16.14,20.47-1.07-8.22.63-16.63,5.03-23.8"/>
  </g>
  <path class="cls-10" d="m2181.37,1421.41c-1.25,0-2.52-.1-3.79-.31l-231.31-37.97c-5.85-.96-9.82-6.48-8.86-12.33.96-5.85,6.46-9.84,12.34-8.86l231.31,37.97c.77.12,1.58-.25,1.96-.96l102.62-191.71c2.8-5.22,9.3-7.2,14.54-4.4,5.23,2.8,7.2,9.31,4.4,14.54l-102.62,191.71c-4.11,7.68-12.07,12.33-20.58,12.33Z"/>
  <path class="cls-10" d="m2210.63,1465.9c-3.95,0-7.75-2.19-9.62-5.96l-20.21-40.68c-2.64-5.31-.47-11.76,4.84-14.4,5.3-2.64,11.76-.47,14.39,4.84l20.21,40.68c2.64,5.31.47,11.76-4.84,14.4-1.53.76-3.16,1.12-4.77,1.12Z"/>
  <path class="cls-10" d="m2195.21,1474.77c-2.96,0-5.95-.25-8.95-.76l-206.91-35.28c-19.66-3.35-35.54-17.28-41.44-36.34l-3.76-12.15c-4.48-14.44-2.51-30.14,5.41-43.05l97.72-159.45c10.97-17.9,31.48-27.55,52.27-24.6l199.81,28.33c17.58,2.48,32.62,13.56,40.21,29.64l2.82,5.99c6.97,14.76,6.63,32.23-.9,46.73l-89.68,172.57h0c-9.19,17.68-27.21,28.38-46.6,28.38Zm-113.07-279.95c-7.03,0-13.65,3.64-17.4,9.75l-97.72,159.45c-3.07,5-3.83,11.08-2.1,16.68l3.76,12.16c2.29,7.39,8.45,12.8,16.08,14.1l206.92,35.28c8.77,1.5,17.44-2.8,21.56-10.71l89.68-172.57c2.92-5.62,3.05-12.41.35-18.13l-2.82-5.98c-2.94-6.23-8.77-10.52-15.59-11.48l-199.83-28.34c-.96-.14-1.93-.21-2.88-.21Zm145.38,244.14h.05-.05Z"/>
  <path class="cls-9" d="m2033.1,1780.79l93.74-170.39c5.5-10,6.01-21.99,1.39-32.41l-2.68-6.04c-4.98-11.24-15.29-19.22-27.41-21.23l-199.09-33.06c-14.36-2.38-28.77,3.99-36.66,16.22l-101.47,157.08c-5.7,8.83-7.33,19.67-4.46,29.78l3.47,12.23c3.75,13.25,14.64,23.26,28.16,25.89l206.02,40.18c15.58,3.04,31.34-4.34,39-18.25"/>
  <g class="cls-3">
    <path class="cls-10" d="m2128.23,1577.99l-2.68-6.03c-3.99-9.02-11.44-15.87-20.47-19.3-.75,2.85-1.84,5.62-3.28,8.25l-93.75,170.39c-7.65,13.91-23.41,21.29-39,18.25l-206.02-40.17c-2.7-.53-5.26-1.42-7.71-2.5-.5,4.61-.17,9.31,1.12,13.87l3.47,12.23c3.75,13.25,14.64,23.26,28.15,25.89l206.02,40.18c15.59,3.04,31.34-4.34,39-18.25l93.74-170.39c5.5-9.99,6.01-21.98,1.39-32.41"/>
  </g>
  <g class="cls-1">
    <path class="cls-7" d="m1782.05,1726.26l99.96-154.73c7.78-12.04,21.97-18.32,36.11-15.97l196.11,32.56c4.23.7,8.2,2.17,11.83,4.22.13-5.25-.86-10.54-3.05-15.47l-2.63-5.95c-4.9-11.08-15.05-18.94-27.01-20.92l-196.11-32.56c-14.15-2.35-28.33,3.92-36.12,15.97l-99.95,154.74c-5.62,8.68-7.22,19.38-4.39,29.33l3.41,12.05c2.57,9.07,8.59,16.53,16.45,21.15-1.16-8.47.68-17.14,5.38-24.42"/>
  </g>
  <path class="cls-10" d="m1987.93,1762.16c-1.44,0-2.89-.13-4.34-.41l-230.35-43.43c-5.83-1.1-9.66-6.71-8.56-12.54,1.1-5.83,6.72-9.66,12.54-8.56l230.35,43.43c.81.14,1.59-.22,1.98-.93l107.12-189.22c2.92-5.16,9.48-6.98,14.64-4.05,5.16,2.92,6.98,9.47,4.06,14.64l-107.13,189.23c-4.21,7.41-12.03,11.84-20.32,11.84Z"/>
  <path class="cls-10" d="m2015.83,1807.33c-4.04,0-7.91-2.29-9.74-6.19l-19.24-41.14c-2.51-5.38-.19-11.77,5.18-14.28,5.37-2.51,11.76-.2,14.28,5.18l19.24,41.14c2.51,5.38.19,11.77-5.18,14.28-1.47.69-3.02,1.02-4.54,1.02Z"/>
  <path class="cls-10" d="m2001.19,1815.84c-3.36,0-6.77-.32-10.17-.99l-206.03-40.18c-19.59-3.81-35.13-18.11-40.57-37.31l-3.47-12.23c-4.13-14.57-1.78-30.21,6.43-42.92l101.47-157.08c11.38-17.63,32.1-26.84,52.83-23.36l199.09,33.06c17.54,2.91,32.3,14.35,39.5,30.6l2.67,6.04c6.62,14.92,5.87,32.38-2,46.69l-93.75,170.4s0,0,0,0c-9.4,17.08-27.1,27.28-46.02,27.28Zm-108.13-282.56c-6.86,0-13.34,3.45-17.14,9.34l-101.47,157.09c-3.19,4.93-4.1,11-2.5,16.65l3.47,12.23c2.11,7.45,8.14,13,15.74,14.48l206.03,40.18c8.74,1.72,17.5-2.39,21.8-10.21l93.74-170.39c3.05-5.55,3.34-12.32.78-18.11l-2.68-6.05c-2.79-6.3-8.52-10.73-15.32-11.87l-199.09-33.06c-1.12-.19-2.24-.27-3.35-.27Zm140.04,247.51h.05-.05Z"/>
  <path class="cls-9" d="m1835.14,2110.79l92.56-171.05c5.43-10.03,5.86-22.03,1.16-32.42l-2.72-6.02c-5.06-11.2-15.42-19.11-27.56-21.04l-199.31-31.67c-14.38-2.28-28.74,4.19-36.55,16.47l-100.38,157.79c-5.63,8.87-7.18,19.73-4.25,29.81l3.55,12.21c3.85,13.22,14.8,23.16,28.33,25.7l206.3,38.73c15.61,2.93,31.32-4.55,38.87-18.51"/>
  <g class="cls-3">
    <path class="cls-10" d="m1928.86,1907.33l-2.72-6.01c-4.01-8.89-11.39-15.65-20.32-19.05-.73,2.75-1.78,5.44-3.17,8l-92.55,171.05c-7.56,13.96-23.26,21.44-38.87,18.51l-206.3-38.73c-2.82-.53-5.49-1.45-8.05-2.58-.52,4.7-.16,9.52,1.2,14.17l3.55,12.21c3.85,13.22,14.8,23.15,28.33,25.69l206.3,38.73c15.6,2.93,31.31-4.56,38.87-18.52l92.55-171.05c5.43-10.03,5.86-22.02,1.16-32.42"/>
  </g>
  <g class="cls-1">
    <path class="cls-7" d="m1579.03,2055.85l100.37-157.79c7.81-12.28,22.18-18.75,36.55-16.47l199.32,31.66c6.21.99,11.93,3.55,16.74,7.3-.22-4.51-1.24-9.01-3.15-13.23l-2.72-6.02c-5.06-11.2-15.42-19.11-27.56-21.04l-199.31-31.67c-14.38-2.29-28.74,4.19-36.55,16.47l-100.38,157.79c-5.63,8.86-7.18,19.73-4.25,29.81l3.55,12.21c2.18,7.49,6.69,13.86,12.61,18.49-2.09-9.42-.43-19.32,4.79-27.52"/>
  </g>
  <path class="cls-10" d="m1789.68,2092.49c-1.38,0-2.78-.12-4.17-.38l-230.65-41.83c-5.83-1.06-9.71-6.65-8.65-12.48,1.06-5.84,6.64-9.69,12.48-8.65l230.65,41.83c.79.14,1.58-.23,1.97-.94l105.81-189.97c2.89-5.19,9.43-7.04,14.61-4.16,5.18,2.89,7.04,9.43,4.16,14.61l-105.81,189.98c-4.18,7.5-12.04,11.99-20.4,11.99Z"/>
  <path class="cls-10" d="m1817.98,2137.46c-4.01,0-7.86-2.26-9.7-6.12l-19.53-41.01c-2.55-5.36-.28-11.77,5.08-14.32,5.35-2.55,11.76-.28,14.31,5.08l19.53,41.01c2.55,5.36.28,11.77-5.08,14.32-1.49.71-3.06,1.04-4.61,1.04Z"/>
  <path class="cls-10" d="m1803.12,2146.06c-3.25,0-6.53-.3-9.82-.92l-206.3-38.73c-19.62-3.69-35.26-17.88-40.83-37.03l-3.55-12.2c-4.23-14.53-1.99-30.19,6.12-42.95l100.38-157.79c11.26-17.7,31.94-27.03,52.67-23.74l199.32,31.67c17.56,2.79,32.4,14.12,39.71,30.32l2.72,6.03c6.72,14.87,6.1,32.34-1.68,46.71l-92.55,171.04c-9.33,17.26-27.12,27.6-46.19,27.6Zm-109.58-281.8c-6.91,0-13.44,3.51-17.23,9.47l-100.38,157.78c-3.15,4.95-4.02,11.03-2.38,16.67l3.55,12.2c2.16,7.44,8.23,12.94,15.84,14.37l206.29,38.73c8.75,1.64,17.49-2.51,21.73-10.34h0s92.56-171.05,92.56-171.05c3.02-5.57,3.26-12.34.65-18.12l-2.72-6.04c-2.83-6.27-8.59-10.66-15.4-11.75l-199.31-31.67c-1.07-.17-2.15-.25-3.21-.25Z"/>
  <path class="cls-10" d="m1865.77,950.24c-2.27,9.11.34,16.29,14.85,18.03,24.51,2.94,44.91-20.18,59.7-40.37-11.92,7.95-26.46,12.41-43.13,10.41-28.25-3.39-33.42-21.61-19.25-42.73,15.68-23.39,45.54-38.6,75.29-35.02,32.6,3.92,37.57,25.66,13.06,62.21-22.98,34.27-55.99,65.59-96.22,60.75-30.54-3.66-31.21-21.74-25.27-35.78l20.97,2.52Zm34.46-53.26c-9.44,14.08-5.44,24.44,11.4,26.46,16.68,2,32.71-5.47,41-17.83,7.27-10.84,11.41-26.84-10.3-29.45-17.41-2.09-33.29,7.66-42.1,20.81"/>
  <path class="cls-10" d="m582.36,1777.13c-23,34.28-56.7,61.05-93.29,56.65-34.25-4.11-32.87-33.39-9.79-67.8,23.09-34.43,58.55-59.71,92.95-55.58,33.9,4.07,32.35,33.57,10.13,66.72m-81.38-8.71c-14.32,21.36-23.4,46.48-.89,49.19,23.22,2.79,44.48-18.82,60.69-42.99,14.15-21.1,23.54-45.34.71-48.09-21.52-2.58-43.05,15.85-60.51,41.88"/>
  <path class="cls-10" d="m686.03,1488.42l57.3-85.43c-5.22,1.87-12.52,3.53-19.27,4.69-6.05,1.04-10.38-5.71-6.96-10.8,1.1-1.65,2.85-2.71,4.82-2.99,15.16-2.24,30.49-7.9,40.43-12.92,1.25-.63,2.61-.88,4-.72l2.08.25c5.18.62,7.88,6.5,4.97,10.84l-70.74,105.47c-1.46,2.18-4.03,3.36-6.64,3.05l-5.01-.6c-5.18-.62-7.88-6.51-4.98-10.84"/>
  <path class="cls-10" d="m1170.18,1443.82c-22.45-3.86-45.6,3.58-63.25,17.84-5.53,4.46-2.87,13.44,4.2,14.29,2.63.45,5.27-.45,7.21-2.28,12.39-11.72,25.74-17.08,39.81-14.66,17.67,3.04,17.03,13.61,10.13,22.84-8.54,11.44-17.8,14.45-49.67,23.14-37.64,10.32-62.19,23.53-77.73,40.09-2.83,3.03-1.03,8.03,3.07,8.73l81.69,14.05c2.7.46,5.46-.44,7.36-2.42l.7-.73c4.6-4.77,1.98-12.75-4.56-13.87l-57.91-9.96c10.5-8.91,29.42-15.93,54.32-22.57,33.54-8.89,49.71-14.2,63.77-33.03,13.82-18.51,9.68-36.49-19.15-41.45"/>
  <path class="cls-10" d="m1498.05,1535.72c-5.41-.65-7.46-7.48-3.25-10.94,13.25-10.89,33.61-20.66,59-17.61,31.2,3.75,33.99,21.17,23.01,37.54-10.62,15.83-26.71,20.67-35.1,21.77l-.24.35c7.66,3.42,17.49,13.15,4.42,32.63-14.59,21.75-42.77,34.99-74.73,31.16-30.02-3.61-34.96-19.6-28.66-36.48,1-2.69,3.73-4.34,6.58-4l9.5,1.14c3.37.41,5.76,3.46,5.39,6.84-.97,8.77,4.75,15.09,18.78,16.78,15.44,1.85,31.69-3.37,41.92-18.61,8.59-12.8,4.31-21.37-14.75-23.66-4.6-.55-6.99-5.76-4.41-9.61l3.07-4.58c1.3-1.93,3.57-2.97,5.89-2.7l4.2.51c19.06,2.29,29.03-2.94,35.88-13.16,6.19-9.23,4.88-18.28-11.87-20.3-15.4-1.85-26.51,4.08-34.79,11.8-1.36,1.28-3.18,1.94-5.03,1.71l-4.79-.57Z"/>
  <path class="cls-10" d="m894.23,1165.57l9.92-14.3c2.33-3.35.29-7.98-3.75-8.53l-47.93-6.51c-4.04-.54-6.09-5.17-3.76-8.53l5.7-8.23c.47-.67,1.08-1.23,1.8-1.64l108.87-61.81c1.04-.59,2.25-.83,3.44-.66l12.77,1.73c4.04.55,6.09,5.18,3.76,8.53l-39.77,57.38c-2.33,3.35-.29,7.98,3.76,8.53,4.28.58,6.23,5.65,3.44,8.94l-5.13,6.07c-1.2,1.43-3.06,2.14-4.91,1.89l-10.19-1.38c-2.04-.28-4.06.61-5.23,2.3l-16.26,23.47c-1.18,1.69-3.19,2.58-5.23,2.3l-7.53-1.02c-4.05-.55-6.08-5.18-3.76-8.54m44.72-64.52c1.05-1.53,2.4-3.46,3.9-5.59,3.36-4.81-2.16-10.84-7.22-7.87-12.79,7.5-29,16.89-45.12,26.13-4.53,2.59-3.19,9.45,1.98,10.16l24.69,3.35c2.03.28,4.05-.61,5.22-2.3l16.54-23.87Z"/>
  <path class="cls-10" d="m1394.75,1138.19l-52.74-7.41c-2.62-.36-5.25.59-7.01,2.59-2.27,2.58-4.76,5.38-7.28,8.2-4.68,5.25-.64,13.33,6.38,13.07,3.97-.14,8.26.06,12.93.71,25.7,3.61,32.89,21.24,16.27,44.98-17.73,25.33-47.95,40.12-79.5,35.69-27.11-3.81-33.65-18.51-27.94-34.63,1.22-3.45,4.84-5.46,8.46-4.95l6.57.93c4.01.56,6.61,4.14,6.54,8.18-.15,7.91,5.59,13.09,17.89,14.83,17.99,2.53,35.42-6.27,46.38-21.91,8.38-11.96,10.33-25.59-10.4-28.5-15.96-2.24-27.23,2.35-36.84,8.86-2.01,1.36-4.51,1.82-6.85,1.12l-.59-.18c-5.58-1.68-7.5-8.59-3.56-12.89,14.66-15.93,35.29-39.17,46.03-51.81,1.75-2.06,4.42-3.07,7.1-2.7l61.65,8.67c6.21.87,8.97,8.27,4.86,13l-1.31,1.5c-1.76,2.02-4.41,3.01-7.06,2.64"/>
  <path class="cls-10" d="m1773.95,1203.87c-4.83-.58-9.27-3.81-10.36-8.55-1.04-4.59-5.04-8.35-14.58-9.5-22.12-2.66-41.81,14.44-58.15,37.44,12.05-7.78,27.98-13.82,46.38-11.61,25.92,3.12,32.96,20.72,17.25,44.14-18.49,27.58-50.26,41.34-78.66,37.93-31.82-3.83-37.16-26.84-10.66-66.36,20.46-30.5,54.98-61.58,95.18-56.76,20.72,2.49,27.24,12.29,26.64,22.78-.38,6.55-6.52,11.27-13.04,10.48m-41.65,50.78c9.52-14.19,8.01-25.86-10.68-28.11-18.89-2.26-36.51,8.04-44.52,19.98-5.64,8.41-13.1,28.69,9.51,31.41,17.51,2.1,34.82-7.07,45.69-23.28"/>
  <path class="cls-10" d="m1192.43,766.97l-1.39,2.08c-.7,1.05-1.62,1.92-2.71,2.57-39.88,24.01-83.91,58.65-116.05,92.55-1.91,2.01-4.63,3-7.38,2.67l-1-.12c-7.3-.88-10.35-9.76-5.16-14.97,24.75-24.83,57.87-50.82,87.14-69.95,6.87-4.48,4.38-15.07-3.77-16.05l-32.22-3.88c-6.51-.78-9.9-8.16-6.25-13.61,1.84-2.75,5.06-4.23,8.34-3.83l74.21,8.91c6.51.79,9.9,8.17,6.24,13.61"/>
  <path class="cls-10" d="m1448.44,885.57c10.34-15.42,27.55-23.73,43.65-26.89-7.05-5.81-8.57-15.38-.54-27.35,12.74-19,38.52-30.54,67.03-27.11,24.07,2.89,35.95,16.87,21.74,38.05-8.62,12.85-22.73,20.14-34.66,22.16,12.06,6.41,13.42,18.58,3.82,32.88-16.52,24.62-48.95,33.3-75.11,30.15-28.03-3.36-41.26-19.05-25.92-41.9m79.91,9.17c7.61-11.34,6.88-22.24-14.87-24.86-22.45-2.7-36.09,6.32-43.51,17.41-9.66,14.39-.74,23.39,14.78,25.26,14.86,1.79,33.3-2.44,43.6-17.81m-16.25-60.95c-6.23,9.29-5.59,18.71,12.52,20.89,16.74,2.02,27.69-4.21,34.87-14.9,7.23-10.79,3.04-19.16-11.45-20.89-13.74-1.66-27.89,2.91-35.93,14.91"/>
  <path class="cls-10" d="m919.12,1874.85c-1.38,11.52-11.85,19.75-23.37,18.36-11.53-1.38-19.75-11.85-18.36-23.37,1.38-11.53,11.85-19.75,23.37-18.36,11.52,1.38,19.74,11.85,18.36,23.37"/>
  <path class="cls-10" d="m1402.16,1882.03h0c-4.59,6.21-13.81,10.32-20.6,9.19l-107.9-18.05c-6.78-1.14-8.56-7.08-3.97-13.29,4.59-6.21,13.82-10.32,20.6-9.19l107.9,18.05c6.78,1.14,8.56,7.08,3.97,13.29m-41.86,56.59l-.05.06c-4.59,6.2-13.81,10.32-20.6,9.18l-107.9-18.04c-6.78-1.14-8.56-7.09-3.97-13.3l.04-.06c4.6-6.21,13.81-10.32,20.6-9.19l107.9,18.05c6.78,1.13,8.56,7.08,3.97,13.29"/>
  <path class="cls-10" d="m1783.19,1914.93l-19.24,26.01c-4.63,6.26-2.84,12.26,4,13.4l28.5,4.77c6.85,1.15,8.63,7.15,4,13.41-4.63,6.26-13.93,10.41-20.77,9.26l-28.49-4.77c-6.85-1.15-16.15,3-20.78,9.26l-21.07,28.48c-4.63,6.26-13.93,10.41-20.78,9.26l-.98-.16c-6.85-1.14-8.63-7.14-4-13.4l21.07-28.48c4.63-6.26,2.84-12.26-4.01-13.41l-28.64-4.79c-6.85-1.15-8.63-7.15-4-13.41,4.63-6.26,13.93-10.41,20.77-9.26l28.65,4.79c6.84,1.15,16.14-3,20.77-9.26l19.24-26.01c4.63-6.26,13.93-10.4,20.78-9.26l.98.17c6.85,1.14,8.63,7.15,4,13.41"/>
  <path class="cls-10" d="m2160.7,1297.79h0c-5.25,7.1-15.8,11.8-23.56,10.5l-49.91-8.35c-7.76-1.3-9.8-8.11-4.54-15.21,5.25-7.1,15.8-11.81,23.56-10.5l49.91,8.35c7.76,1.3,9.79,8.11,4.54,15.21"/>
  <path class="cls-10" d="m2372.31,1000.58l-116.86-16.56c-6.01-.85-7.71-6.06-3.8-11.62l2.24-3.2c3.91-5.57,11.95-9.4,17.95-8.55l116.87,16.56c6,.85,7.7,6.05,3.79,11.63l-2.24,3.2c-3.91,5.57-11.94,9.4-17.95,8.55"/>
  <path class="cls-10" d="m2377.56,933.4c-7.31,10.41-22.33,17.57-33.56,15.97-11.22-1.59-14.4-11.32-7.08-21.73,7.31-10.41,22.33-17.57,33.55-15.98,11.22,1.59,14.4,11.32,7.09,21.74"/>
  <path class="cls-10" d="m2307.24,1033.58c-7.31,10.41-22.33,17.57-33.55,15.97-11.22-1.59-14.4-11.32-7.09-21.73,7.31-10.41,22.34-17.57,33.56-15.98,11.22,1.59,14.39,11.32,7.08,21.74"/>
  <path class="cls-10" d="m2006.3,1594.72c-1.17-4.43-7.34-5.53-13.77-2.46l-52.4,25.04-10.21-35.76c-1.26-4.39-7.47-5.41-13.89-2.28-6.42,3.13-10.61,9.23-9.35,13.62l10.15,35.55-52.1,24.89c-6.44,3.08-10.7,9.16-9.53,13.59.68,2.6,3.08,4.05,6.24,4.19,2.24.1,4.86-.46,7.53-1.73l52.4-25.04,10.22,35.76c.72,2.53,3.1,3.94,6.21,4.08,2.29.11,4.97-.48,7.68-1.8,6.42-3.13,10.61-9.23,9.35-13.62l-10.15-35.55,52.1-24.89c6.43-3.08,10.7-9.16,9.53-13.59"/>
  <path class="cls-10" d="m0,1424.66l48.22,7.45c9.66,1.49,17.24,9.07,18.73,18.73l7.45,48.22,7.44-48.22c1.49-9.66,9.07-17.24,18.74-18.73l48.21-7.45-48.21-7.44c-9.67-1.49-17.24-9.07-18.74-18.73l-7.44-48.22-7.45,48.22c-1.49,9.66-9.07,17.24-18.73,18.73l-48.22,7.44Z"/>
  <path class="cls-10" d="m941.79,101.25l48.22,7.45c9.66,1.49,17.24,9.07,18.73,18.73l7.45,48.22,7.44-48.22c1.49-9.66,9.07-17.24,18.73-18.73l48.22-7.45-48.22-7.44c-9.66-1.49-17.24-9.07-18.74-18.73l-7.44-48.22-7.45,48.22c-1.49,9.66-9.07,17.24-18.73,18.73l-48.22,7.44Z"/>
  <path class="cls-10" d="m2925.78,793.63l64.14,9.9c12.85,1.99,22.94,12.07,24.92,24.92l9.9,64.14,9.9-64.14c1.99-12.85,12.07-22.93,24.92-24.92l64.14-9.9-64.14-9.91c-12.85-1.99-22.93-12.06-24.92-24.91l-9.9-64.14-9.9,64.14c-1.98,12.85-12.07,22.93-24.92,24.91l-64.14,9.91Z"/>
  <path class="cls-10" d="m677.52,935.47c0,10.09-8.17,18.27-18.26,18.27s-18.27-8.18-18.27-18.27,8.18-18.26,18.27-18.26,18.26,8.17,18.26,18.26"/>
  <path class="cls-10" d="m855.27,2336.55c0,10.09-8.17,18.27-18.26,18.27s-18.27-8.18-18.27-18.27,8.18-18.27,18.27-18.27,18.26,8.18,18.26,18.27"/>
  <path class="cls-10" d="m2518.14,2106.21c0,20.37-16.51,36.88-36.88,36.88s-36.88-16.51-36.88-36.88,16.51-36.88,36.88-36.88,36.88,16.51,36.88,36.88"/>
</svg>