<?xml version="1.0" encoding="utf-8"?>
<!-- Generator: Adobe Illustrator 27.5.0, SVG Export Plug-In . SVG Version: 6.00 Build 0)  -->
<svg version="1.1" xmlns="http://www.w3.org/2000/svg" xmlns:xlink="http://www.w3.org/1999/xlink" x="0px" y="0px"
	 viewBox="0 0 3710 3710" style="enable-background:new 0 0 3710 3710;" xml:space="preserve">
<g id="Background">
	<g>
		<g>
			<rect style="fill:#FFFFFF;" width="3710" height="3710"/>
		</g>
	</g>
</g>
<g id="Illustration">
	<g>
		<linearGradient id="SVGID_1_" gradientUnits="userSpaceOnUse" x1="3422.9534" y1="3616.459" x2="1367.042" y2="1397.38">
			<stop  offset="0" style="stop-color:#DAE3FE"/>
			<stop  offset="1" style="stop-color:#E9EFFD"/>
		</linearGradient>
		<path style="fill:url(#SVGID_1_);" d="M3136.448,2351.889c-282.497,660.304-1028.198,943.92-1612.467,895.563
			c-159.529-13.203-480.505-39.769-731.126-276.773c-481.3-455.151-407.175-1406.542,53.567-1966.669
			c59.334-72.133,470.036-555.414,1110.037-548.946c468.574,4.736,797.462,269.428,837.454,302.403
			c50.52,41.657,161.947,140.647,262.369,297.688C3292.24,1424.149,3312.981,1939.265,3136.448,2351.889z"/>
		<g>
			<path style="fill:#91B3FA;" d="M1452.346,2143.69c0,0-233.124-1070.975-745.938-1662.304
				c-34.473-39.75-99.221-25.858-114.04,24.627C493.278,843.601,296.229,1869.484,1452.346,2143.69z"/>
			<path style="opacity:0.5;fill:#FFFFFF;" d="M1347.368,2072.988c2.557,2.593-0.963,6.554-3.844,4.328
				c-106.234-82.062-515.419-483.222-654.817-1270.318c-0.448-2.529,3.274-3.421,3.939-0.94
				C741.602,988.812,943.075,1663.077,1347.368,2072.988z"/>
		</g>
		<g>
			<path style="fill:#BDD0FB;" d="M950.52,532.467c-44.315,273.234-186.698,1508.504,763.88,1973.05
				c18.491,9.036,40.006-4.61,39.633-25.186c-3.962-218.805-61.197-1211.342-756.147-1962.068
				C982.307,501.434,954.191,509.83,950.52,532.467z"/>
			<path style="opacity:0.5;fill:#FFFFFF;" d="M1046.97,836.75c-0.716-4.723-7.714-4.005-7.405,0.762
				c14.149,218.344,101.329,890.275,634.164,1560.141C1673.729,2397.653,1179.296,1709.626,1046.97,836.75z"/>
		</g>
		<g>
			
				<linearGradient id="SVGID_00000085251357274619016230000013381045284441624208_" gradientUnits="userSpaceOnUse" x1="2534.3198" y1="1049.3623" x2="2751.9622" y2="796.7419" gradientTransform="matrix(0.9998 -0.0168 0.0168 0.9998 -1233.1075 378.2129)">
				<stop  offset="0" style="stop-color:#FF928E"/>
				<stop  offset="1" style="stop-color:#FE7062"/>
			</linearGradient>
			
				<circle style="fill:url(#SVGID_00000085251357274619016230000013381045284441624208_);" cx="1535.999" cy="1123.387" r="162.251"/>
			
				<linearGradient id="SVGID_00000183946526952933962020000004464293635669303231_" gradientUnits="userSpaceOnUse" x1="2874.9441" y1="612.49" x2="2231.3704" y2="1584.7466" gradientTransform="matrix(0.9998 -0.0168 0.0168 0.9998 -1233.1075 378.2129)">
				<stop  offset="0" style="stop-color:#FF928E"/>
				<stop  offset="1" style="stop-color:#FE7062"/>
			</linearGradient>
			
				<circle style="fill:url(#SVGID_00000183946526952933962020000004464293635669303231_);" cx="1535.999" cy="1123.387" r="156.856"/>
			<path style="opacity:0.78;fill:#FFFFFF;" d="M1405.645,1064.404c-0.604,0.01-1.221-0.116-1.804-0.399
				c-1.987-0.963-2.818-3.353-1.856-5.336c24.629-50.898,75.025-83.106,131.517-84.053c9.003-0.151,18.045,0.509,26.876,1.965
				c2.176,0.358,3.651,2.414,3.293,4.59c-0.36,2.177-2.398,3.682-4.594,3.294c-8.358-1.374-16.917-2-25.442-1.857
				c-53.458,0.897-101.148,31.376-124.457,79.539C1408.5,1063.552,1407.107,1064.379,1405.645,1064.404z"/>
			
				<ellipse transform="matrix(0.7071 -0.7071 0.7071 0.7071 -345.8291 1418.5887)" style="opacity:0.78;fill:#FFFFFF;" cx="1539.474" cy="1126.747" rx="132.759" ry="132.759"/>
			<g>
				
					<linearGradient id="SVGID_00000014613382188932700860000000324317560968827778_" gradientUnits="userSpaceOnUse" x1="1758.1202" y1="4394.0815" x2="1747.9647" y2="3520.7043" gradientTransform="matrix(0.9694 0.2456 -0.2456 0.9694 -59.3834 484.2198)">
					<stop  offset="0" style="stop-color:#FF928E"/>
					<stop  offset="1" style="stop-color:#FE7062"/>
				</linearGradient>
				<path style="fill:url(#SVGID_00000014613382188932700860000000324317560968827778_);" d="M1528.103,1225.646l-0.242-14.441
					c-15.065-0.35-30.016-3.653-40.67-8.106c-3.804-1.59-5.8-5.796-4.782-9.791l3.443-13.513c1.264-4.957,6.588-7.599,11.338-5.702
					c10.566,4.222,23.578,7.485,37.546,7.25c14.5-0.243,25.232-5.341,25.062-15.418c-0.152-9.093-8.599-14.359-28.843-19.427
					c-28.887-7.382-49.742-19.571-50.167-44.885c-0.383-22.857,16.036-40.587,44.959-45.742l-0.242-14.443
					c-0.078-4.647,3.626-8.478,8.273-8.556l8.485-0.143c4.648-0.078,8.478,3.626,8.556,8.274l0.218,12.967
					c13.94,0.324,24.12,2.536,32.215,5.229c4.147,1.379,6.475,5.783,5.402,10.02l-3.165,12.498
					c-1.221,4.819-6.304,7.533-10.983,5.853c-7.456-2.677-17.98-5.419-31.597-5.19c-17.204,0.289-21.999,7.497-21.892,13.888
					c0.132,7.864,10.544,13.098,33.025,19.604c32.111,9.049,45.605,22.098,46.005,45.938c0.367,21.874-15.523,41.807-46.9,47.251
					l0.271,16.162c0.078,4.647-3.626,8.478-8.273,8.556l-8.486,0.143C1532.011,1233.998,1528.181,1230.293,1528.103,1225.646z"/>
			</g>
		</g>
		<g>
			
				<linearGradient id="SVGID_00000064314528759288898750000016210806442753864076_" gradientUnits="userSpaceOnUse" x1="1605.5504" y1="3062.3088" x2="2231.959" y2="1183.078">
				<stop  offset="0" style="stop-color:#4F52FF"/>
				<stop  offset="1" style="stop-color:#4042E2"/>
			</linearGradient>
			<path style="fill:url(#SVGID_00000064314528759288898750000016210806442753864076_);" d="M3259.419,1590.011l-31.519,1333.91
				l-4.894,206.538c0,26.962-22.11,49.03-49.071,49.03H521.684c-26.962,0-49.071-22.068-49.071-49.03l-2.996-206.538
				l-19.072-1317.623c0-26.962,31.771-79.577,89.956-75.611l2592.083-67.088c33.839-0.844,66.582,12.152,90.547,36.076
				C3247.098,1523.556,3260.221,1556.214,3259.419,1590.011z"/>
			<g style="opacity:0.29;">
				<path style="fill:#91B3FA;" d="M3158.152,3088.758c0,25.149-21.025,45.727-46.722,45.727H584.87
					c-25.697,0-46.722-20.577-46.722-45.727L517.124,1666.38c0-25.15,30.247-74.249,85.679-70.559l2469.234-62.591
					c32.242-0.817,63.417,11.34,86.249,33.635c22.833,22.295,35.326,52.777,34.564,84.334L3158.152,3088.758z"/>
			</g>
			<path style="fill:#91B3FA;" d="M3109.914,3145.646h-280.089c-1.871,0-3.385-1.516-3.385-3.385s1.514-3.385,3.385-3.385h280.089
				c38.44,0,65.226-38.976,65.226-73.956v-867.198c0-1.87,1.514-3.385,3.385-3.385c1.871,0,3.385,1.516,3.385,3.385v867.198
				C3181.91,3103.101,3152.344,3145.646,3109.914,3145.646z"/>
			<path style="fill:#91B3FA;" d="M524.336,2194.336c-1.871,0-3.385-1.516-3.385-3.385v-509.632
				c0-53.875,36.688-92.977,87.231-92.977h227.615c1.871,0,3.385,1.516,3.385,3.385c0,1.87-1.514,3.385-3.385,3.385H608.182
				c-46.623,0-80.461,36.255-80.461,86.206v509.632C527.722,2192.82,526.208,2194.336,524.336,2194.336z"/>
			<g>
				
					<linearGradient id="SVGID_00000162345725147932241150000003226170491306080387_" gradientUnits="userSpaceOnUse" x1="1374.6367" y1="2126.3567" x2="290.0476" y2="2539.0769">
					<stop  offset="0" style="stop-color:#FF928E"/>
					<stop  offset="1" style="stop-color:#FE7062"/>
				</linearGradient>
				<path style="fill:url(#SVGID_00000162345725147932241150000003226170491306080387_);" d="M1154.031,2165.537
					c0-27.099-21.968-49.067-49.067-49.067H779.917c-27.099,0-49.067,21.968-49.067,49.067v250.568
					c0,27.099,21.968,49.067,49.067,49.067h325.047c27.099,0,49.067-21.968,49.067-49.067V2165.537z"/>
				<g>
					<path style="opacity:0.8;fill:#FFFFFF;" d="M986.784,2346.681h-98.842c-10.084,0-18.289-8.204-18.289-18.289v-78.526
						c0-10.085,8.206-18.289,18.289-18.289h98.842c10.084,0,18.286,8.204,18.286,18.289v78.526
						C1005.07,2338.477,996.867,2346.681,986.784,2346.681z M887.941,2238.346c-6.351,0-11.518,5.167-11.518,11.519v78.526
						c0,6.351,5.167,11.519,11.518,11.519h98.842c6.351,0,11.515-5.167,11.515-11.519v-78.526c0-6.351-5.164-11.519-11.515-11.519
						H887.941z"/>
					<g>
						<path style="fill:#FFFFFF;" d="M873.037,2268.815H730.849c-1.871,0-3.385-1.516-3.385-3.385s1.514-3.385,3.385-3.385h142.189
							c1.871,0,3.385,1.516,3.385,3.385S874.909,2268.815,873.037,2268.815z"/>
						<path style="fill:#FFFFFF;" d="M873.037,2299.284H730.849c-1.871,0-3.385-1.516-3.385-3.385s1.514-3.385,3.385-3.385h142.189
							c1.871,0,3.385,1.516,3.385,3.385S874.909,2299.284,873.037,2299.284z"/>
					</g>
					<g>
						<path style="fill:#FFFFFF;" d="M1157.415,2268.815H998.299c-1.871,0-3.385-1.516-3.385-3.385s1.514-3.385,3.385-3.385h159.116
							c1.871,0,3.385,1.516,3.385,3.385S1159.286,2268.815,1157.415,2268.815z"/>
						<path style="fill:#FFFFFF;" d="M1157.415,2299.284H998.299c-1.871,0-3.385-1.516-3.385-3.385s1.514-3.385,3.385-3.385h159.116
							c1.871,0,3.385,1.516,3.385,3.385S1159.286,2299.284,1157.415,2299.284z"/>
					</g>
					<g>
						<g>
							<path style="fill:#FFFFFF;" d="M897.056,2237.361c-1.534,0-2.923-1.048-3.29-2.605l-28.875-121.922
								c-0.433-1.82,0.694-3.643,2.513-4.075c1.815-0.427,3.643,0.694,4.073,2.514l28.875,121.922
								c0.433,1.82-0.694,3.643-2.513,4.075C897.578,2237.332,897.314,2237.361,897.056,2237.361z"/>
							<path style="fill:#FFFFFF;" d="M975.136,2237.361c-0.268,0-0.539-0.031-0.81-0.098c-1.815-0.446-2.926-2.28-2.479-4.096
								l29.947-121.922c0.443-1.815,2.288-2.917,4.093-2.479c1.815,0.446,2.926,2.28,2.48,4.096l-29.947,121.922
								C978.042,2236.328,976.657,2237.361,975.136,2237.361z"/>
						</g>
						<g>
							<path style="fill:#FFFFFF;" d="M868.187,2465.163c-0.258,0-0.522-0.03-0.784-0.091c-1.818-0.431-2.946-2.255-2.513-4.075
								l28.875-121.922c0.43-1.82,2.252-2.941,4.073-2.514c1.818,0.431,2.946,2.255,2.513,4.075l-28.875,121.922
								C871.11,2464.115,869.721,2465.163,868.187,2465.163z"/>
							<path style="fill:#FFFFFF;" d="M1005.076,2465.163c-1.521,0-2.906-1.033-3.283-2.577l-29.947-121.922
								c-0.446-1.817,0.665-3.65,2.479-4.096c1.809-0.438,3.65,0.665,4.093,2.479l29.947,121.922c0.446,1.817-0.664,3.65-2.48,4.096
								C1005.615,2465.132,1005.344,2465.163,1005.076,2465.163z"/>
						</g>
					</g>
				</g>
			</g>
			<g style="opacity:0.6;">
				<path style="fill:#91B3FA;" d="M1191.271,2663.395c0,30.754-24.931,55.684-55.684,55.684H732.367
					c-30.754,0-55.684-24.931-55.684-55.684v-0.351c0-30.753,24.931-55.684,55.684-55.684h403.219
					c30.754,0,55.684,24.931,55.684,55.684V2663.395z"/>
				<path style="fill:#91B3FA;" d="M1780.338,2663.395c0,30.754-24.931,55.684-55.684,55.684h-403.219
					c-30.754,0-55.684-24.931-55.684-55.684v-0.351c0-30.753,24.931-55.684,55.684-55.684h403.219
					c30.754,0,55.684,24.931,55.684,55.684V2663.395z"/>
				<path style="fill:#91B3FA;" d="M2366.02,2663.395c0,30.754-24.931,55.684-55.684,55.684h-403.219
					c-30.754,0-55.684-24.931-55.684-55.684v-0.351c0-30.753,24.931-55.684,55.684-55.684h403.219
					c30.754,0,55.684,24.931,55.684,55.684V2663.395z"/>
				<path style="fill:#91B3FA;" d="M2955.087,2663.395c0,30.754-24.931,55.684-55.684,55.684h-403.219
					c-30.754,0-55.684-24.931-55.684-55.684v-0.351c0-30.753,24.931-55.684,55.684-55.684h403.219
					c30.753,0,55.684,24.931,55.684,55.684V2663.395z"/>
			</g>
			<g style="opacity:0.6;">
				<path style="fill:#91B3FA;" d="M1583.982,2916.041c0,23.972-19.433,43.406-43.405,43.406H784.412
					c-23.972,0-43.405-19.433-43.405-43.406v-1.211c0-23.972,19.433-43.406,43.405-43.406h756.165
					c23.972,0,43.405,19.433,43.405,43.406V2916.041z"/>
				<path style="fill:#91B3FA;" d="M2890.764,2895.728c0,23.972-19.433,43.406-43.406,43.406H2517.76
					c-23.972,0-43.405-19.433-43.405-43.406v-1.211c0-23.972,19.433-43.405,43.405-43.405h329.599
					c23.972,0,43.406,19.433,43.406,43.405V2895.728z"/>
			</g>
			<g>
				<path style="fill:#FFFFFF;" d="M721.602,1864.924c0.866,0,1.732,0.162,2.595,0.486c0.863,0.326,1.693,0.884,2.486,1.676
					l14.484,15.243c-6.341,8.288-14.286,14.539-23.834,18.755c-9.551,4.215-20.845,6.323-33.891,6.323
					c-11.961,0-22.683-2.035-32.158-6.106c-9.479-4.071-17.512-9.693-24.105-16.864c-6.599-7.171-11.661-15.674-15.188-25.511
					c-3.534-9.837-5.3-20.521-5.3-32.053c0-11.745,2.017-22.539,6.053-32.375c4.033-9.837,9.674-18.324,16.921-25.459
					c7.24-7.135,15.906-12.684,25.996-16.648c10.087-3.962,21.222-5.944,33.402-5.944c5.911,0,11.479,0.522,16.702,1.567
					c5.224,1.045,10.11,2.486,14.646,4.324c4.543,1.837,8.721,4.037,12.543,6.594c3.819,2.559,7.204,5.387,10.16,8.485
					l-12.322,16.54c-0.793,1.01-1.732,1.927-2.81,2.756c-1.084,0.83-2.595,1.243-4.542,1.243c-1.296,0-2.523-0.288-3.676-0.865
					c-1.151-0.575-2.377-1.279-3.673-2.108c-1.299-0.828-2.721-1.731-4.268-2.703c-1.554-0.974-3.392-1.873-5.515-2.703
					c-2.129-0.828-4.615-1.531-7.459-2.108c-2.85-0.577-6.182-0.865-10.001-0.865c-6.629,0-12.686,1.172-18.16,3.513
					c-5.478,2.342-10.18,5.693-14.107,10.054c-3.931,4.361-6.992,9.639-9.188,15.836c-2.202,6.199-3.299,13.153-3.299,20.863
					c0,8.072,1.098,15.243,3.299,21.513c2.195,6.27,5.187,11.55,8.973,15.836c3.782,4.288,8.196,7.551,13.241,9.783
					c5.042,2.235,10.451,3.352,16.216,3.352c3.313,0,6.341-0.164,9.078-0.488c2.737-0.324,5.277-0.881,7.624-1.675
					c2.341-0.793,4.576-1.82,6.698-3.081c2.129-1.26,4.271-2.828,6.434-4.703c0.866-0.719,1.798-1.314,2.81-1.784
					C719.476,1865.159,720.524,1864.924,721.602,1864.924z"/>
				<path style="fill:#FFFFFF;" d="M794.355,1847.412v58.267h-36.539v-157.502h51.238c11.386,0,21.099,1.172,29.133,3.513
					c8.034,2.342,14.593,5.605,19.675,9.783c5.081,4.181,8.771,9.118,11.079,14.81c2.308,5.695,3.462,11.892,3.462,18.594
					c0,5.118-0.684,9.946-2.053,14.486c-1.369,4.541-3.405,8.74-6.11,12.595c-2.701,3.857-6.017,7.297-9.945,10.323
					c-3.928,3.027-8.45,5.513-13.568,7.458c2.453,1.227,4.741,2.741,6.867,4.541c2.126,1.802,3.981,3.999,5.567,6.594l33.511,54.807
					h-33.078c-6.129,0-10.527-2.306-13.191-6.918l-26.158-45.727c-1.154-2.017-2.506-3.46-4.053-4.324
					c-1.554-0.865-3.729-1.298-6.539-1.298H794.355z M794.355,1822.224h14.699c4.972,0,9.204-0.63,12.702-1.891
					c3.495-1.26,6.361-3.008,8.596-5.243c2.232-2.233,3.855-4.845,4.863-7.837c1.008-2.989,1.514-6.215,1.514-9.675
					c0-6.918-2.255-12.323-6.758-16.215c-4.506-3.891-11.475-5.837-20.918-5.837h-14.699V1822.224z"/>
				<path style="fill:#FFFFFF;" d="M1002.987,1748.176v28.105h-64.644v36.755h49.509v27.024h-49.509v37.511h64.644v28.107H901.586
					v-157.502H1002.987z"/>
				<path style="fill:#FFFFFF;" d="M1166.649,1826.873c0,11.388-1.964,21.891-5.891,31.512c-3.928,9.621-9.459,17.944-16.593,24.971
					c-7.135,7.027-15.727,12.504-25.784,16.431c-10.051,3.929-21.205,5.891-33.454,5.891h-61.186v-157.502h61.186
					c12.249,0,23.404,1.982,33.454,5.946c10.057,3.964,18.65,9.441,25.784,16.431c7.135,6.991,12.666,15.296,16.593,24.917
					C1164.685,1805.091,1166.649,1815.559,1166.649,1826.873z M1129.247,1826.873c0-7.782-1.008-14.81-3.025-21.08
					c-2.02-6.27-4.919-11.583-8.705-15.944c-3.786-4.361-8.414-7.712-13.889-10.054c-5.481-2.341-11.714-3.514-18.703-3.514h-24.429
					v101.291h24.429c6.989,0,13.221-1.17,18.703-3.513c5.475-2.341,10.104-5.692,13.889-10.054
					c3.785-4.359,6.685-9.674,8.705-15.944C1128.238,1841.792,1129.247,1834.73,1129.247,1826.873z"/>
				<path style="fill:#FFFFFF;" d="M1224.155,1905.679h-36.754v-157.502h36.754V1905.679z"/>
				<path style="fill:#FFFFFF;" d="M1367.712,1748.176v28.971h-44.322v128.531h-36.539v-128.531h-44.322v-28.971H1367.712z"/>
				<path style="fill:#FFFFFF;" d="M1530.402,1864.924c0.863,0,1.729,0.162,2.595,0.486c0.863,0.326,1.693,0.884,2.486,1.676
					l14.484,15.243c-6.344,8.288-14.286,14.539-23.834,18.755c-9.551,4.215-20.848,6.323-33.894,6.323
					c-11.961,0-22.68-2.035-32.155-6.106c-9.482-4.071-17.516-9.693-24.108-16.864c-6.596-7.171-11.657-15.674-15.188-25.511
					c-3.531-9.837-5.297-20.521-5.297-32.053c0-11.745,2.017-22.539,6.05-32.375c4.037-9.837,9.677-18.324,16.921-25.459
					c7.24-7.135,15.909-12.684,25.999-16.648c10.087-3.962,21.222-5.944,33.401-5.944c5.908,0,11.475,0.522,16.699,1.567
					c5.227,1.045,10.11,2.486,14.649,4.324c4.539,1.837,8.718,4.037,12.54,6.594c3.822,2.559,7.207,5.387,10.163,8.485
					l-12.325,16.54c-0.794,1.01-1.729,1.927-2.81,2.756c-1.081,0.83-2.592,1.243-4.539,1.243c-1.299,0-2.523-0.288-3.676-0.865
					c-1.154-0.575-2.377-1.279-3.673-2.108c-1.299-0.828-2.724-1.731-4.271-2.703c-1.551-0.974-3.389-1.873-5.515-2.703
					c-2.126-0.828-4.612-1.531-7.458-2.108c-2.85-0.577-6.182-0.865-9.998-0.865c-6.632,0-12.686,1.172-18.164,3.513
					c-5.475,2.342-10.176,5.693-14.104,10.054c-3.931,4.361-6.992,9.639-9.191,15.836c-2.199,6.199-3.296,13.153-3.296,20.863
					c0,8.072,1.098,15.243,3.296,21.513c2.198,6.27,5.191,11.55,8.973,15.836c3.782,4.288,8.199,7.551,13.244,9.783
					c5.042,2.235,10.447,3.352,16.213,3.352c3.313,0,6.341-0.164,9.079-0.488c2.741-0.324,5.28-0.881,7.624-1.675
					c2.341-0.793,4.576-1.82,6.702-3.081c2.126-1.26,4.268-2.828,6.43-4.703c0.866-0.719,1.802-1.314,2.81-1.784
					C1528.276,1865.159,1529.321,1864.924,1530.402,1864.924z"/>
				<path style="fill:#FFFFFF;" d="M1713.199,1905.679h-28.323c-3.171,0-5.782-0.739-7.839-2.217
					c-2.05-1.476-3.478-3.367-4.268-5.675l-9.297-27.457h-59.89l-9.297,27.457c-0.721,2.018-2.122,3.838-4.212,5.46
					c-2.093,1.622-4.648,2.432-7.677,2.432h-28.538l60.968-157.502h37.402L1713.199,1905.679z M1612.016,1845.466h43.022
					l-14.484-43.131c-0.936-2.739-2.036-5.963-3.296-9.675c-1.263-3.711-2.506-7.73-3.729-12.054
					c-1.154,4.397-2.344,8.47-3.567,12.216c-1.227,3.747-2.377,6.991-3.462,9.728L1612.016,1845.466z"/>
				<path style="fill:#FFFFFF;" d="M1762.493,1847.412v58.267h-36.539v-157.502h51.238c11.386,0,21.099,1.172,29.133,3.513
					c8.037,2.342,14.596,5.605,19.678,9.783c5.078,4.181,8.771,9.118,11.079,14.81c2.304,5.695,3.462,11.892,3.462,18.594
					c0,5.118-0.688,9.946-2.056,14.486c-1.369,4.541-3.405,8.74-6.11,12.595c-2.698,3.857-6.017,7.297-9.945,10.323
					c-3.928,3.027-8.45,5.513-13.565,7.458c2.45,1.227,4.738,2.741,6.867,4.541c2.123,1.802,3.981,3.999,5.568,6.594l33.511,54.807
					h-33.081c-6.126,0-10.523-2.306-13.188-6.918l-26.161-45.727c-1.151-2.017-2.506-3.46-4.053-4.324
					c-1.551-0.865-3.729-1.298-6.54-1.298H1762.493z M1762.493,1822.224h14.699c4.976,0,9.207-0.63,12.702-1.891
					c3.498-1.26,6.361-3.008,8.596-5.243c2.235-2.233,3.855-4.845,4.867-7.837c1.005-2.989,1.514-6.215,1.514-9.675
					c0-6.918-2.255-12.323-6.758-16.215c-4.506-3.891-11.479-5.837-20.921-5.837h-14.699V1822.224z"/>
				<path style="fill:#FFFFFF;" d="M2012.636,1826.873c0,11.388-1.964,21.891-5.891,31.512c-3.928,9.621-9.459,17.944-16.593,24.971
					c-7.135,7.027-15.73,12.504-25.781,16.431c-10.054,3.929-21.205,5.891-33.458,5.891h-61.186v-157.502h61.186
					c12.252,0,23.404,1.982,33.458,5.946c10.051,3.964,18.646,9.441,25.781,16.431c7.135,6.991,12.666,15.296,16.593,24.917
					C2010.672,1805.091,2012.636,1815.559,2012.636,1826.873z M1975.234,1826.873c0-7.782-1.012-14.81-3.028-21.08
					c-2.017-6.27-4.92-11.583-8.702-15.944c-3.782-4.361-8.414-7.712-13.892-10.054c-5.475-2.341-11.71-3.514-18.699-3.514h-24.432
					v101.291h24.432c6.989,0,13.224-1.17,18.699-3.513c5.478-2.341,10.11-5.692,13.892-10.054c3.782-4.359,6.685-9.674,8.702-15.944
					C1974.223,1841.792,1975.234,1834.73,1975.234,1826.873z"/>
			</g>
		</g>
		<g>
			
				<linearGradient id="SVGID_00000150081626061421489000000003050006784028275870_" gradientUnits="userSpaceOnUse" x1="23998.8457" y1="1389.8086" x2="23516.6973" y2="1665.0117" gradientTransform="matrix(1 0 0 1 -21136.9434 0)">
				<stop  offset="0" style="stop-color:#FEBBBA"/>
				<stop  offset="1" style="stop-color:#FF928E"/>
			</linearGradient>
			<path style="fill:url(#SVGID_00000150081626061421489000000003050006784028275870_);" d="M2788.6,1838.454
				c-0.569-0.218-306.39-535.785-347.716-586.185c-6.953-8.477-17.712-12.794-28.6-11.497l-85.36,10.172l-100.28,216.942
				l167.063-97.295c-16.531,114.329,198.084,284.236,271.688,346.234c7.47,6.292,8.083,17.561,1.336,24.623l-29.385,30.761
				c48.242,48.9,103.91,80.299,166.74,94.821L2788.6,1838.454z"/>
			
				<linearGradient id="SVGID_00000103972354424783349810000011005033247106954401_" gradientUnits="userSpaceOnUse" x1="-12919.7109" y1="-6904.7788" x2="-12956.7227" y2="-6337.252" gradientTransform="matrix(-0.8974 -0.4412 -0.4412 0.8974 -11841.6631 2161.1482)">
				<stop  offset="0" style="stop-color:#09005D"/>
				<stop  offset="1" style="stop-color:#1A0F91"/>
			</linearGradient>
			<path style="fill:url(#SVGID_00000103972354424783349810000011005033247106954401_);" d="M2654.346,1755.607
				c0,0-18.754,6.058-25.104,22.761c-3.038,7.992,0.237,17.043,7.187,22.022c30.881,22.125,132.744,93.553,179.751,107.542
				c3.853,1.147,7.519-2.34,6.652-6.265c-2.412-10.92-10.215-32.727-35.354-64.65l2.255,4.562c2.854,5.773-3.432,11.784-9.041,8.618
				C2749.253,1832.45,2685.214,1793.604,2654.346,1755.607z"/>
			
				<linearGradient id="SVGID_00000086689581103678615940000013302336559658859166_" gradientUnits="userSpaceOnUse" x1="23952.2031" y1="1458.4419" x2="25601.873" y2="425.7228" gradientTransform="matrix(1 0 0 1 -21136.9434 0)">
				<stop  offset="0" style="stop-color:#FEBBBA"/>
				<stop  offset="1" style="stop-color:#FF928E"/>
			</linearGradient>
			<path style="fill:url(#SVGID_00000086689581103678615940000013302336559658859166_);" d="M2669.48,1969.9
				c-0.513-0.329-46.396-110.877-46.909-111.205c-42.069-256.137-144.711-475.499-174.981-533.221
				c-5.093-9.708-14.756-16.113-25.681-17.046l-85.652-7.313l-142.109,192.158l183.296-61.472
				c-39.326,108.618,136.462,318.443,195.997,394.053c6.042,7.673,4.362,18.834-3.674,24.384l-35.002,24.177
				c37.348,57.651,85.51,99.666,144.1,126.603L2669.48,1969.9z"/>
			
				<linearGradient id="SVGID_00000037663318160961764310000017356200254460153509_" gradientUnits="userSpaceOnUse" x1="-10654.3281" y1="-10041.2354" x2="-10691.3389" y2="-9473.7451" gradientTransform="matrix(-0.7895 -0.6137 -0.6137 0.7895 -11859.252 3191.1018)">
				<stop  offset="0" style="stop-color:#09005D"/>
				<stop  offset="1" style="stop-color:#1A0F91"/>
			</linearGradient>
			<path style="fill:url(#SVGID_00000037663318160961764310000017356200254460153509_);" d="M2554.771,1861.597
				c0,0-19.592,2.137-29.191,17.21c-4.592,7.211-3.217,16.738,2.581,23.021c25.765,27.916,111.065,118.481,154.267,141.694
				c3.542,1.903,7.837-0.769,7.783-4.789c-0.152-11.182-3.381-34.117-21.539-70.466l1.285,4.924
				c1.626,6.232-5.746,10.846-10.597,6.61C2632.162,1956.057,2577.31,1905.055,2554.771,1861.597z"/>
			<g>
				
					<linearGradient id="SVGID_00000078755251615134384980000012952006881676870580_" gradientUnits="userSpaceOnUse" x1="-2861.3235" y1="-105.6986" x2="-3315.0457" y2="1304.3263" gradientTransform="matrix(-1 0 0 1 -1189.3698 0)">
					<stop  offset="0" style="stop-color:#09005D"/>
					<stop  offset="1" style="stop-color:#1A0F91"/>
				</linearGradient>
				<path style="fill:url(#SVGID_00000078755251615134384980000012952006881676870580_);" d="M1935.33,1260.645
					c0,0-77.483,115.247-83.841,167.817c-6.358,52.57,21.425,70.75,102.525,77.455c241.337,19.951,360.307-52.379,360.307-52.379
					c16.124-102.802-14.216-153.37,112.796-208.991c2.341-1.025,1.648-4.513-0.907-4.523c-13.779-0.053-45.505,0.994-117.659,6.691
					C2271.02,1249.678,1935.33,1260.645,1935.33,1260.645z"/>
			</g>
			<g>
				
					<linearGradient id="SVGID_00000083091337354989357280000009732320980169109135_" gradientUnits="userSpaceOnUse" x1="-3825.884" y1="1179.7458" x2="-3552.2988" y2="1414.5731" gradientTransform="matrix(-0.9942 0.1076 0.1076 0.9942 -1495.8109 19.8083)">
					<stop  offset="0" style="stop-color:#FEBBBA"/>
					<stop  offset="1" style="stop-color:#FF928E"/>
				</linearGradient>
				<path style="fill:url(#SVGID_00000083091337354989357280000009732320980169109135_);" d="M2326.711,869.876
					c-0.263,1.19-1.286,4.783-0.362,8.807c0.253,1.077,0.609,2.026,1.111,3.007c-3.793,26.351-22.854,92.976-26.771,118.694
					c4.463-7.18,33.11-9.273,37.177-15.86c17.709-28.904,25.471-100.562,32.615-132.827c0.008-0.036,0.008-0.036,0.016-0.072
					c1.099-3.085,1.998-6.289,2.72-9.722c1.516-7.19,1.904-14.403,2.57-21.857c0,0,0.033-1.165,0.048-2.258
					c0.191-11.795-3.944-53.062-15.38-54.195c-4.321-0.465-8.267,5.052-12.526,11.144
					C2324.99,807.625,2331.505,849.76,2326.711,869.876z"/>
				
					<linearGradient id="SVGID_00000032615186602825195430000008010605639196883586_" gradientUnits="userSpaceOnUse" x1="3453.1504" y1="311.3671" x2="2833.6443" y2="656.6657">
					<stop  offset="0" style="stop-color:#4F52FF"/>
					<stop  offset="1" style="stop-color:#4042E2"/>
				</linearGradient>
				<path style="fill:url(#SVGID_00000032615186602825195430000008010605639196883586_);" d="M2305.304,934.802l43.325,33.614
					c8.288,6.647-33.455,82.651-39.417,93.323c-18.687,33.448-39.176,66.302-66.079,93.844
					c-10.828,11.085-23.272,21.579-38.361,25.111c-38.36,8.977-66.567-47.461-82.708-75.098
					c-16.776-28.724-18.045-61.594-21.38-94.054c-2.261-98.305,52.424-162.709,116.517-183.907l-0.617,154.774
					c-0.044,10.945,5.922,41.611,16.786,42.944c6.943,0.852,16.119-22.272,21.259-28.561L2305.304,934.802z"/>
				
					<linearGradient id="SVGID_00000052067495712587096790000012516664393288592289_" gradientUnits="userSpaceOnUse" x1="-15847.7285" y1="-3553.6882" x2="-15729.1689" y2="-3256.2842" gradientTransform="matrix(-0.9095 -0.4158 -0.4158 0.9095 -13518.7383 -2882.6279)">
					<stop  offset="0" style="stop-color:#09005D"/>
					<stop  offset="1" style="stop-color:#1A0F91"/>
				</linearGradient>
				<path style="fill:url(#SVGID_00000052067495712587096790000012516664393288592289_);" d="M2275.038,626.522
					c0,0-47.716-68.648-112.209,3.944c-11.681,13.148-50.313-2.263-67.675,25.926c-8.964,14.555-26.03,21.691-42.473,17.022
					c-40.953-11.629-109.02-18.717-148.832,43.418c-30.389,47.427-13.325,78.479,10.768,97.54
					c17.695,14.001,22.078,39.441,8.849,57.719c-12.689,17.532-17.122,42.479,8.248,75.405
					c56.853,73.786,192.566-25.207,192.566-25.207l121.65-225.562L2275.038,626.522z"/>
				
					<linearGradient id="SVGID_00000068661318399467123970000014311810826871852981_" gradientUnits="userSpaceOnUse" x1="4393.314" y1="335.4469" x2="3714.1682" y2="1284.0046" gradientTransform="matrix(1 0 0 1 -1752.7947 0)">
					<stop  offset="0" style="stop-color:#4F52FF"/>
					<stop  offset="1" style="stop-color:#4042E2"/>
				</linearGradient>
				<path style="fill:url(#SVGID_00000068661318399467123970000014311810826871852981_);" d="M2122.417,1263.505
					c0,0,101.782-107.742,146.198-164.649c24.009-30.761,29.555-72.359,18.452-109.767
					c-20.278-68.317-41.844-134.861-46.701-145.278c-19.5-41.824-135.375-4.529-135.375-4.529s-166.531,373.301-169.661,421.363
					C2019.511,1288.141,2123.519,1278.572,2122.417,1263.505z"/>
				
					<linearGradient id="SVGID_00000157291600939289611130000011821693508354528942_" gradientUnits="userSpaceOnUse" x1="-3265.6885" y1="375.4742" x2="-3127.2378" y2="596.2471" gradientTransform="matrix(-0.9956 -0.0941 -0.0941 0.9956 -923.3465 15.7457)">
					<stop  offset="0" style="stop-color:#FEBBBA"/>
					<stop  offset="1" style="stop-color:#FF928E"/>
				</linearGradient>
				<path style="fill:url(#SVGID_00000157291600939289611130000011821693508354528942_);" d="M2226.03,713.325l-79.598,119.482
					c1.872,27.901,71.008,35.22,83.25,19.823c1.247-1.567,2.051-3.44,2.649-5.351l48.449-80.282
					c2.514-8.037-17.358-37.799-24.386-42.438l-25.553-16.867C2221.001,701.198,2264.275,704.852,2226.03,713.325z"/>
				<g>
					
						<linearGradient id="SVGID_00000077315534035879158210000004030672090270789300_" gradientUnits="userSpaceOnUse" x1="-3303.1169" y1="213.084" x2="-3258.2144" y2="455.0601" gradientTransform="matrix(-0.9956 -0.0941 -0.0941 0.9956 -923.3465 15.7457)">
						<stop  offset="0" style="stop-color:#FEBBBA"/>
						<stop  offset="1" style="stop-color:#FF928E"/>
					</linearGradient>
					<path style="fill:url(#SVGID_00000077315534035879158210000004030672090270789300_);" d="M2365.827,696.736
						c0,0,3.62,43.252-34.92,94.166c-38.541,50.914-71.596,45.325-86.685,24.442c-15.088-20.883-32.309-54.917-17.992-107.979
						C2240.547,654.303,2359.409,641.409,2365.827,696.736z"/>
					
						<linearGradient id="SVGID_00000171696970774504818690000014648542313382658197_" gradientUnits="userSpaceOnUse" x1="-11668.6172" y1="-9409.4561" x2="-11558.0898" y2="-9132.2002" gradientTransform="matrix(-0.4645 -0.8856 -0.8856 0.4645 -11266.873 -5303.0234)">
						<stop  offset="0" style="stop-color:#09005D"/>
						<stop  offset="1" style="stop-color:#1A0F91"/>
					</linearGradient>
					<path style="fill:url(#SVGID_00000171696970774504818690000014648542313382658197_);" d="M2266.143,717.052
						c0,0,60.85-65.978,96.546-0.071l-2.725,21.344c0,0,54.278,2.583,53.127-47.778c-1.15-50.363-42.052-88.559-104.823-77.325
						c-62.771,11.234-100.342,27.235-111.263,69.046c-10.922,41.811,24.408,38.152,24.408,38.152s16.015-28.048,32.198-28.537
						c16.182-0.489,8.212,22.141,8.212,22.141L2266.143,717.052z"/>
					
						<linearGradient id="SVGID_00000075138259037890572980000004995405519887911317_" gradientUnits="userSpaceOnUse" x1="-3256.1863" y1="204.3735" x2="-3211.2839" y2="446.3479" gradientTransform="matrix(-0.9956 -0.0941 -0.0941 0.9956 -923.3465 15.7457)">
						<stop  offset="0" style="stop-color:#FEBBBA"/>
						<stop  offset="1" style="stop-color:#FF928E"/>
					</linearGradient>
					<path style="fill:url(#SVGID_00000075138259037890572980000004995405519887911317_);" d="M2253.901,713.982
						c0,0,31.479-33.733,6.67-43.697c-24.809-9.965-27.94,33.328-27.797,49.558L2253.901,713.982z"/>
				</g>
				<g>
					
						<linearGradient id="SVGID_00000145763401148315234080000016334730150493078402_" gradientUnits="userSpaceOnUse" x1="-3489.3137" y1="833.6713" x2="-3511.7659" y2="1129.2928" gradientTransform="matrix(-1 0 0 1 -1189.3698 0)">
						<stop  offset="0" style="stop-color:#FEBBBA"/>
						<stop  offset="1" style="stop-color:#FF928E"/>
					</linearGradient>
					<path style="fill:url(#SVGID_00000145763401148315234080000016334730150493078402_);" d="M2253.082,790.028
						c-1.968,7.625-2.149,25.427-3.1,32.461c-2.009,14.906-6.528,45.603,1.942,55.141c7.328,8.251,3.89,4.31,12.449,8.725
						c5.18,2.673,13.025,5.082,22.59,3.127c4.149-0.848,8.294-2.204,12.357-4.358c0,0,8.512-4.536,15.329-13.165
						c53.915-68.24,31.442-116.176,31.442-116.176c-5.09-10.855-16.123-26.613-25.712-25.131
						c-12.596,1.946-25.177,34.025-35.43,60.167c-1.584,4.039-4.943,12.915-8.701,12.6c-4.566-0.383-6.214-7.252-6.458-11.365
						c-0.459-7.885,3.722-15.223,2.218-23.909c-0.311-1.813-1.764-7.131-4.862-7.877c-1.776-0.428-3.551-0.058-5.124,0.8
						C2258.227,771.016,2255.922,779.037,2253.082,790.028z"/>
				</g>
				
					<linearGradient id="SVGID_00000036964356292703821020000017004705675098639271_" gradientUnits="userSpaceOnUse" x1="-3446.6331" y1="836.9128" x2="-3469.085" y2="1132.5338" gradientTransform="matrix(-1 0 0 1 -1189.3698 0)">
					<stop  offset="0" style="stop-color:#FEBBBA"/>
					<stop  offset="1" style="stop-color:#FF928E"/>
				</linearGradient>
				<path style="fill:url(#SVGID_00000036964356292703821020000017004705675098639271_);" d="M2224.623,928.956
					c16.152,6.373,24.806,25.415,40.961,31.78c10.737-29.027,24.033-57.057,34.16-86.285c-15.525-5.239-30.959-10.747-46.51-15.912
					C2241.4,886.415,2235.044,900.449,2224.623,928.956z"/>
				
					<linearGradient id="SVGID_00000018235509098678654680000008405565506454881924_" gradientUnits="userSpaceOnUse" x1="3661.7312" y1="1120.9108" x2="2733.7046" y2="1629.8287" gradientTransform="matrix(1 0 0 1 -1752.7947 0)">
					<stop  offset="0" style="stop-color:#4F52FF"/>
					<stop  offset="1" style="stop-color:#4042E2"/>
				</linearGradient>
				<path style="fill:url(#SVGID_00000018235509098678654680000008405565506454881924_);" d="M2226.646,923.468
					c0,0,41.965,29.282,41.971,29.286c10.454,7.308-39.413,100.601-45.278,111.618c-23.808,44.721-82.499,153.418-144.978,109.723
					c-29.018-20.293-49.741-55.302-62.819-87.565c-14.271-35.205-24.359-72.838-22.618-110.785
					c1.715-37.381,19.697-76.034,47.788-102.718c26.2-24.889,63.702-33.831,64.277-33.748c4.733,0.686,13.756,71.411,15.159,78.468
					c4.348,21.882,8.962,43.711,13.839,65.481c1.201,5.363,9.656,55.426,21.683,38.008
					C2178.703,988.049,2202.401,955.755,2226.646,923.468z"/>
			</g>
		</g>
		<g>
			
				<linearGradient id="SVGID_00000135689437317688963360000012643760956865575330_" gradientUnits="userSpaceOnUse" x1="-1713.6766" y1="2077.3127" x2="-1789.1136" y2="3291.1558" gradientTransform="matrix(0.5973 -0.802 0.802 0.5973 -1332.6644 -770.0363)">
				<stop  offset="0" style="stop-color:#09005D"/>
				<stop  offset="1" style="stop-color:#1A0F91"/>
			</linearGradient>
			<path style="fill:url(#SVGID_00000135689437317688963360000012643760956865575330_);" d="M1004.795,3212.977
				c-0.945,24.098-21.319,42.935-45.416,41.989l-76.822-3.013c-24.097-0.945-42.933-21.32-41.988-45.417
				c0.945-24.098,21.319-42.933,45.416-41.988l76.822,3.013C986.905,3168.506,1005.74,3188.879,1004.795,3212.977z M859.04,3207.26
				c-0.546,13.913,10.329,25.676,24.242,26.222l76.822,3.013c13.913,0.545,25.675-10.33,26.221-24.243
				c0.546-13.913-10.329-25.676-24.242-26.221l-76.822-3.013C871.349,3182.472,859.586,3193.348,859.04,3207.26z"/>
			
				<linearGradient id="SVGID_00000005253128795066876330000000061317348481101244_" gradientUnits="userSpaceOnUse" x1="-1540.1484" y1="2088.0825" x2="-1615.5858" y2="3301.9329" gradientTransform="matrix(0.5973 -0.802 0.802 0.5973 -1332.6644 -770.0363)">
				<stop  offset="0" style="stop-color:#09005D"/>
				<stop  offset="1" style="stop-color:#1A0F91"/>
			</linearGradient>
			<path style="fill:url(#SVGID_00000005253128795066876330000000061317348481101244_);" d="M1241.935,3160.949
				c7.315,22.98-5.427,47.627-28.407,54.943l-73.258,23.322c-22.98,7.316-47.627-5.429-54.942-28.409
				c-7.316-22.98,5.428-47.626,28.408-54.942l73.258-23.322C1209.973,3125.226,1234.619,3137.969,1241.935,3160.949z
				 M1102.941,3205.198c4.224,13.268,18.454,20.625,31.721,16.402l73.258-23.322c13.267-4.224,20.625-18.454,16.401-31.722
				c-4.223-13.267-18.453-20.625-31.72-16.401l-73.258,23.322C1106.075,3177.7,1098.717,3191.931,1102.941,3205.198z"/>
			
				<linearGradient id="SVGID_00000127735225833345337480000003494289341278313640_" gradientUnits="userSpaceOnUse" x1="-1357.2169" y1="2099.4482" x2="-1432.6544" y2="3313.2998" gradientTransform="matrix(0.5973 -0.802 0.802 0.5973 -1332.6644 -770.0363)">
				<stop  offset="0" style="stop-color:#09005D"/>
				<stop  offset="1" style="stop-color:#1A0F91"/>
			</linearGradient>
			<path style="fill:url(#SVGID_00000127735225833345337480000003494289341278313640_);" d="M1451.017,3095.81
				c8.12,22.708-3.748,47.789-26.456,55.909l-72.391,25.886c-22.708,8.12-47.788-3.749-55.908-26.457
				c-8.12-22.708,3.748-47.788,26.456-55.908l72.392-25.886C1417.817,3061.234,1442.897,3073.102,1451.017,3095.81z
				 M1313.667,3144.924c4.689,13.111,19.168,19.963,32.279,15.275l72.392-25.886c13.11-4.688,19.962-19.168,15.274-32.28
				c-4.688-13.11-19.168-19.962-32.279-15.274l-72.391,25.886C1315.831,3117.334,1308.979,3131.814,1313.667,3144.924z"/>
			
				<linearGradient id="SVGID_00000016783902386398135420000014751273196341761668_" gradientUnits="userSpaceOnUse" x1="-1106.0554" y1="2115.0522" x2="-1181.4937" y2="3328.9148" gradientTransform="matrix(0.5973 -0.802 0.802 0.5973 -1332.6644 -770.0363)">
				<stop  offset="0" style="stop-color:#09005D"/>
				<stop  offset="1" style="stop-color:#1A0F91"/>
			</linearGradient>
			<path style="fill:url(#SVGID_00000016783902386398135420000014751273196341761668_);" d="M1677.995,2946.18
				c14.677,19.136,11.05,46.645-8.086,61.322l-61.004,46.788c-19.136,14.677-46.645,11.048-61.321-8.088
				c-14.677-19.136-11.049-46.645,8.087-61.321l61.004-46.788C1635.811,2923.416,1663.319,2927.044,1677.995,2946.18z
				 M1562.251,3034.952c8.474,11.049,24.356,13.144,35.404,4.67l61.005-46.788c11.048-8.473,13.142-24.355,4.669-35.404
				c-8.474-11.048-24.356-13.143-35.403-4.669l-61.005,46.788C1555.872,3008.022,1553.777,3023.904,1562.251,3034.952z"/>
			
				<linearGradient id="SVGID_00000114773548661941093610000005607372024898086079_" gradientUnits="userSpaceOnUse" x1="-828.9408" y1="2132.2739" x2="-904.3789" y2="3346.1353" gradientTransform="matrix(0.5973 -0.802 0.802 0.5973 -1332.6644 -770.0363)">
				<stop  offset="0" style="stop-color:#09005D"/>
				<stop  offset="1" style="stop-color:#1A0F91"/>
			</linearGradient>
			<path style="fill:url(#SVGID_00000114773548661941093610000005607372024898086079_);" d="M1875.537,2747.222
				c17.892,16.171,19.292,43.882,3.122,61.774l-51.55,57.037c-16.17,17.891-43.882,19.291-61.774,3.121
				c-17.891-16.17-19.292-43.882-3.121-61.773l51.55-57.037C1829.935,2732.452,1857.646,2731.052,1875.537,2747.222z
				 M1777.73,2855.439c10.331,9.337,26.329,8.528,35.665-1.801l51.551-57.037c9.336-10.33,8.527-26.329-1.803-35.666
				c-10.33-9.336-26.329-8.527-35.665,1.802l-51.55,57.037C1766.592,2830.104,1767.4,2846.104,1777.73,2855.439z"/>
			
				<linearGradient id="SVGID_00000065786113380424178950000001916466346796292258_" gradientUnits="userSpaceOnUse" x1="4155.0498" y1="-1885.9513" x2="4079.7852" y2="-674.8801" gradientTransform="matrix(0.7419 0.3171 -0.2917 0.6825 -242.9593 224.4128)">
				<stop  offset="0" style="stop-color:#09005D"/>
				<stop  offset="1" style="stop-color:#1A0F91"/>
			</linearGradient>
			<path style="fill:url(#SVGID_00000065786113380424178950000001916466346796292258_);" d="M2641.266,1855.872l-0.133-24.273
				c-0.042-7.808-6.794-14.489-15.078-14.92l-89.28-4.649c-8.283-0.431-14.966,5.549-14.923,13.358l0.134,24.274
				c0.042,7.809,6.792,14.488,15.078,14.92l89.278,4.648C2634.628,1869.662,2641.31,1863.682,2641.266,1855.872z"/>
			
				<linearGradient id="SVGID_00000087410043205772793730000009036091229919540114_" gradientUnits="userSpaceOnUse" x1="-39.6831" y1="2181.4951" x2="-115.1174" y2="3395.2952" gradientTransform="matrix(0.5973 -0.802 0.802 0.5973 -1332.6644 -770.0363)">
				<stop  offset="0" style="stop-color:#09005D"/>
				<stop  offset="1" style="stop-color:#1A0F91"/>
			</linearGradient>
			<path style="fill:url(#SVGID_00000087410043205772793730000009036091229919540114_);" d="M2343.088,2109.172
				c21.204,11.489,29.109,38.086,17.62,59.29l-36.624,67.597c-11.489,21.204-38.086,29.107-59.29,17.619
				c-21.204-11.489-29.108-38.085-17.62-59.289l36.624-67.597C2295.287,2105.588,2321.884,2097.684,2343.088,2109.172z
				 M2273.6,2237.425c12.243,6.633,27.598,2.069,34.231-10.172l36.624-67.597c6.633-12.242,2.07-27.598-10.173-34.231
				c-12.242-6.633-27.598-2.069-34.231,10.173l-36.624,67.597C2256.794,2215.437,2261.358,2230.792,2273.6,2237.425z"/>
			
				<linearGradient id="SVGID_00000152946081081137742430000017945697395923322508_" gradientUnits="userSpaceOnUse" x1="219.3484" y1="2197.5935" x2="143.9141" y2="3411.3938" gradientTransform="matrix(0.5973 -0.802 0.802 0.5973 -1332.6644 -770.0363)">
				<stop  offset="0" style="stop-color:#09005D"/>
				<stop  offset="1" style="stop-color:#1A0F91"/>
			</linearGradient>
			<path style="fill:url(#SVGID_00000152946081081137742430000017945697395923322508_);" d="M2474.371,1879.846
				c20.953,11.94,28.287,38.7,16.347,59.653l-38.063,66.797c-11.939,20.953-38.7,28.286-59.653,16.346
				c-20.953-11.94-28.286-38.699-16.347-59.652l38.063-66.798C2426.658,1875.24,2453.418,1867.907,2474.371,1879.846z
				 M2402.154,2006.583c12.098,6.894,27.548,2.66,34.441-9.437l38.063-66.798c6.894-12.097,2.659-27.547-9.439-34.441
				c-12.097-6.893-27.547-2.659-34.44,9.438l-38.062,66.797C2385.824,1984.24,2390.057,1999.689,2402.154,2006.583z"/>
			
				<linearGradient id="SVGID_00000147221338765403675690000011102913999161873289_" gradientUnits="userSpaceOnUse" x1="-552.8268" y1="2149.4395" x2="-628.2652" y2="3363.304" gradientTransform="matrix(0.5973 -0.802 0.802 0.5973 -1332.6644 -770.0363)">
				<stop  offset="0" style="stop-color:#09005D"/>
				<stop  offset="1" style="stop-color:#1A0F91"/>
			</linearGradient>
			<path style="fill:url(#SVGID_00000147221338765403675690000011102913999161873289_);" d="M2061.321,2541.98
				c18.274,15.736,20.34,43.406,4.604,61.681l-50.166,58.258c-15.736,18.275-43.406,20.339-61.681,4.603
				c-18.275-15.736-20.34-43.406-4.603-61.68l50.166-58.258C2015.376,2528.309,2043.046,2526.244,2061.321,2541.98z
				 M1966.139,2652.514c10.551,9.085,26.526,7.893,35.612-2.657l50.166-58.258c9.085-10.551,7.893-26.526-2.658-35.612
				c-10.551-9.085-26.526-7.893-35.611,2.658l-50.166,58.258C1954.396,2627.454,1955.588,2643.429,1966.139,2652.514z"/>
			
				<linearGradient id="SVGID_00000031175928864977382920000013976457525986156168_" gradientUnits="userSpaceOnUse" x1="-290.1269" y1="2165.927" x2="-365.5611" y2="3379.7246" gradientTransform="matrix(0.5973 -0.802 0.802 0.5973 -1332.6644 -770.0363)">
				<stop  offset="0" style="stop-color:#09005D"/>
				<stop  offset="1" style="stop-color:#1A0F91"/>
			</linearGradient>
			<path style="fill:url(#SVGID_00000031175928864977382920000013976457525986156168_);" d="M2212.228,2325.341
				c19.782,13.793,24.656,41.108,10.863,60.891l-43.971,63.065c-13.793,19.783-41.109,24.655-60.891,10.862
				c-19.782-13.792-24.655-41.108-10.862-60.891l43.971-63.065C2165.131,2316.421,2192.446,2311.548,2212.228,2325.341z
				 M2128.802,2444.996c11.422,7.964,27.193,5.15,35.156-6.271l43.97-63.065c7.964-11.421,5.15-27.191-6.272-35.155
				c-11.421-7.964-27.192-5.15-35.155,6.271l-43.971,63.065C2114.567,2421.262,2117.381,2437.032,2128.802,2444.996z"/>
			
				<linearGradient id="SVGID_00000047745764534604755120000000589441741518634895_" gradientUnits="userSpaceOnUse" x1="-1631.4742" y1="2082.3843" x2="-1706.9125" y2="3296.2476" gradientTransform="matrix(0.5973 -0.802 0.802 0.5973 -1332.6644 -770.0363)">
				<stop  offset="0" style="stop-color:#09005D"/>
				<stop  offset="1" style="stop-color:#1A0F91"/>
			</linearGradient>
			<path style="fill:url(#SVGID_00000047745764534604755120000000589441741518634895_);" d="M1131.441,3209.666
				c-1.849,2.482-4.75,4.151-8.082,4.317l-151.659,7.594c-5.926,0.296-10.97-4.267-11.266-10.191
				c-0.3-5.924,4.264-10.97,10.191-11.267l151.66-7.594c5.926-0.295,10.97,4.268,11.266,10.191
				C1133.681,3205.309,1132.879,3207.734,1131.441,3209.666z"/>
			
				<linearGradient id="SVGID_00000011751188156077031800000016117681390024501137_" gradientUnits="userSpaceOnUse" x1="-1442.485" y1="2094.106" x2="-1517.9237" y2="3307.9778" gradientTransform="matrix(0.5973 -0.802 0.802 0.5973 -1332.6644 -770.0363)">
				<stop  offset="0" style="stop-color:#09005D"/>
				<stop  offset="1" style="stop-color:#1A0F91"/>
			</linearGradient>
			<path style="fill:url(#SVGID_00000011751188156077031800000016117681390024501137_);" d="M1341.337,3143.664
				c-1.452,1.95-3.573,3.42-6.125,4.029l-117.216,27.891c-5.771,1.373-11.565-2.194-12.938-7.965
				c-1.368-5.772,2.195-11.564,7.965-12.938l117.216-27.891c5.771-1.373,11.565,2.194,12.938,7.965
				C1343.942,3137.975,1343.171,3141.202,1341.337,3143.664z"/>
			
				<linearGradient id="SVGID_00000049942537950529608460000013810688910930613397_" gradientUnits="userSpaceOnUse" x1="-1236.63" y1="2106.8359" x2="-1312.0709" y2="3320.7407" gradientTransform="matrix(0.5973 -0.802 0.802 0.5973 -1332.6644 -770.0363)">
				<stop  offset="0" style="stop-color:#09005D"/>
				<stop  offset="1" style="stop-color:#1A0F91"/>
			</linearGradient>
			<path style="fill:url(#SVGID_00000049942537950529608460000013810688910930613397_);" d="M1580.32,3035.017
				c-0.952,1.279-2.206,2.365-3.722,3.14l-153.572,78.501c-5.282,2.7-11.755,0.608-14.454-4.676
				c-2.702-5.28-0.605-11.755,4.675-14.454l153.572-78.501c5.282-2.701,11.755-0.608,14.454,4.675
				C1583.199,3027.468,1582.687,3031.84,1580.32,3035.017z"/>
			
				<linearGradient id="SVGID_00000121984029625017975310000006635263887396301967_" gradientUnits="userSpaceOnUse" x1="-969.1827" y1="2123.301" x2="-1044.6283" y2="3337.2834" gradientTransform="matrix(0.5973 -0.802 0.802 0.5973 -1332.6644 -770.0363)">
				<stop  offset="0" style="stop-color:#09005D"/>
				<stop  offset="1" style="stop-color:#1A0F91"/>
			</linearGradient>
			<path style="fill:url(#SVGID_00000121984029625017975310000006635263887396301967_);" d="M1800.922,2852.377
				c-0.472,0.634-1.022,1.224-1.647,1.758l-144.086,123.072c-4.51,3.853-11.292,3.32-15.144-1.191
				c-3.855-4.512-3.318-11.303,1.192-15.144l144.086-123.072c4.51-3.853,11.292-3.32,15.144,1.192
				C1803.786,2842.876,1803.849,2848.446,1800.922,2852.377z"/>
			
				<linearGradient id="SVGID_00000169554345310501188450000003203347236970249360_" gradientUnits="userSpaceOnUse" x1="-690.5457" y1="2140.396" x2="-765.9982" y2="3354.4897" gradientTransform="matrix(0.5973 -0.802 0.802 0.5973 -1332.6644 -770.0363)">
				<stop  offset="0" style="stop-color:#09005D"/>
				<stop  offset="1" style="stop-color:#1A0F91"/>
			</linearGradient>
			<path style="fill:url(#SVGID_00000169554345310501188450000003203347236970249360_);" d="M1987.662,2639.179
				c-0.244,0.328-0.511,0.647-0.799,0.953l-134.122,142.549c-4.064,4.322-10.863,4.529-15.184,0.463
				c-4.321-4.066-4.558-10.838-0.464-15.184l134.122-142.549c4.066-4.32,10.864-4.529,15.184-0.463
				C1990.414,2628.726,1990.878,2634.861,1987.662,2639.179z"/>
			
				<linearGradient id="SVGID_00000164484481301500596100000016556421979018614946_" gradientUnits="userSpaceOnUse" x1="-419.877" y1="2158.2874" x2="-495.2982" y2="3371.8767" gradientTransform="matrix(0.5973 -0.802 0.802 0.5973 -1332.6644 -770.0363)">
				<stop  offset="0" style="stop-color:#09005D"/>
				<stop  offset="1" style="stop-color:#1A0F91"/>
			</linearGradient>
			<path style="fill:url(#SVGID_00000164484481301500596100000016556421979018614946_);" d="M2150.28,2430.804l-108.445,145.6
				c-3.545,4.759-10.274,5.743-15.033,2.199c-4.758-3.544-5.743-10.274-2.198-15.032l108.445-145.6
				c3.544-4.759,10.274-5.743,15.032-2.198S2153.824,2426.045,2150.28,2430.804z"/>
			
				<linearGradient id="SVGID_00000071521477409445692460000007690723771341856149_" gradientUnits="userSpaceOnUse" x1="-164.7913" y1="2174.0505" x2="-240.2153" y2="3387.6851" gradientTransform="matrix(0.5973 -0.802 0.802 0.5973 -1332.6644 -770.0363)">
				<stop  offset="0" style="stop-color:#09005D"/>
				<stop  offset="1" style="stop-color:#1A0F91"/>
			</linearGradient>
			<path style="fill:url(#SVGID_00000071521477409445692460000007690723771341856149_);" d="M2199.045,2365.333
				c-3.439,4.617-9.945,5.716-14.719,2.417c-4.88-3.374-6.104-10.067-2.731-14.945l95.378-138.013
				c3.401-4.91,10.067-6.104,14.946-2.731c4.881,3.373,6.104,10.066,2.731,14.945l-95.378,138.013
				C2199.198,2365.124,2199.121,2365.23,2199.045,2365.333z"/>
			
				<linearGradient id="SVGID_00000005974033570117916990000013937357100466229640_" gradientUnits="userSpaceOnUse" x1="90.0652" y1="2189.8381" x2="14.6396" y2="3403.4978" gradientTransform="matrix(0.5973 -0.802 0.802 0.5973 -1332.6644 -770.0363)">
				<stop  offset="0" style="stop-color:#09005D"/>
				<stop  offset="1" style="stop-color:#1A0F91"/>
			</linearGradient>
			<path style="fill:url(#SVGID_00000005974033570117916990000013937357100466229640_);" d="M2328.376,2144.21
				c-3.344,4.489-9.641,5.683-14.42,2.61c-4.99-3.209-6.433-9.856-3.224-14.846l94.361-146.714
				c3.228-4.952,9.856-6.433,14.846-3.224c4.99,3.209,6.433,9.856,3.224,14.846l-94.361,146.714
				C2328.667,2143.806,2328.524,2144.011,2328.376,2144.21z"/>
			
				<linearGradient id="SVGID_00000096031611417176678920000015385157858166647170_" gradientUnits="userSpaceOnUse" x1="1743.0588" y1="2451.355" x2="1687.5295" y2="3344.8674" gradientTransform="matrix(0.5912 -0.4895 0.6378 0.7702 -1191.0088 -623.1966)">
				<stop  offset="0" style="stop-color:#09005D"/>
				<stop  offset="1" style="stop-color:#1A0F91"/>
			</linearGradient>
			<path style="fill:url(#SVGID_00000096031611417176678920000015385157858166647170_);" d="M2466.117,1908.575
				c-2.436,2.017-6.525,1.258-9.356-1.815c-2.956-3.209-3.418-7.726-1.033-10.089l70.113-69.487
				c2.394-2.335,6.714-1.678,9.669,1.531c2.956,3.209,3.418,7.726,1.034,10.09l-70.114,69.487
				C2466.33,1908.391,2466.225,1908.486,2466.117,1908.575z"/>
		</g>
		
			<linearGradient id="SVGID_00000017514440351493965510000015621400950641482414_" gradientUnits="userSpaceOnUse" x1="2916.6877" y1="-1541.3582" x2="2850.6475" y2="-1356.4452" gradientTransform="matrix(0.8941 0.4479 -0.4479 0.8941 6.9363 545.058)">
			<stop  offset="0" style="stop-color:#FF928E"/>
			<stop  offset="1" style="stop-color:#FE7062"/>
		</linearGradient>
		<polygon style="fill:url(#SVGID_00000017514440351493965510000015621400950641482414_);" points="2409.726,1056.361 
			2607.554,1043.937 2611.962,1102.339 2803.097,1096.15 2803.32,1227.211 2540.021,1169.368 2534.283,1102.83 		"/>
		
			<linearGradient id="SVGID_00000054234087446671952290000008613779469180384401_" gradientUnits="userSpaceOnUse" x1="2828.3083" y1="143.8774" x2="2762.2639" y2="328.8024">
			<stop  offset="0" style="stop-color:#FF928E"/>
			<stop  offset="1" style="stop-color:#FE7062"/>
		</linearGradient>
		<polygon style="fill:url(#SVGID_00000054234087446671952290000008613779469180384401_);" points="2398.983,906.7 
			2495.289,738.596 2541.429,773.596 2690.283,589.768 2785.736,702.369 2561.628,879.995 2504.032,821.767 		"/>
		
			<linearGradient id="SVGID_00000029765459340466123570000014725643463096477065_" gradientUnits="userSpaceOnUse" x1="1938.0385" y1="305.8936" x2="1871.9911" y2="490.8264" gradientTransform="matrix(0.9892 -0.1463 0.1463 0.9892 -44.2973 -209.4744)">
			<stop  offset="0" style="stop-color:#FF928E"/>
			<stop  offset="1" style="stop-color:#FE7062"/>
		</linearGradient>
		<polygon style="fill:url(#SVGID_00000029765459340466123570000014725643463096477065_);" points="1899.69,895.52 
			1749.658,825.636 1774.535,736.234 1572.516,572.442 1535.999,733.414 1695.352,801.919 1677.717,918.824 		"/>
		<g>
			
				<linearGradient id="SVGID_00000157996648447275324120000006596545412633138833_" gradientUnits="userSpaceOnUse" x1="2174.8623" y1="1254.4971" x2="2478.187" y2="902.4242" gradientTransform="matrix(0.9998 -0.0168 0.0168 0.9998 -1233.1075 378.2129)">
				<stop  offset="0" style="stop-color:#FF928E"/>
				<stop  offset="1" style="stop-color:#FE7062"/>
			</linearGradient>
			<circle style="fill:url(#SVGID_00000157996648447275324120000006596545412633138833_);" cx="1265.75" cy="1231.61" r="226.127"/>
			
				<linearGradient id="SVGID_00000052074312138397215860000007984570820437325971_" gradientUnits="userSpaceOnUse" x1="2649.5852" y1="645.6349" x2="1752.6455" y2="2000.655" gradientTransform="matrix(0.9998 -0.0168 0.0168 0.9998 -1233.1075 378.2129)">
				<stop  offset="0" style="stop-color:#FF928E"/>
				<stop  offset="1" style="stop-color:#FE7062"/>
			</linearGradient>
			
				<circle style="fill:url(#SVGID_00000052074312138397215860000007984570820437325971_);" cx="1265.751" cy="1231.61" r="218.607"/>
			<path style="opacity:0.78;fill:#FFFFFF;" d="M1084.058,1148.037c-0.636,0.01-1.284-0.122-1.896-0.42
				c-2.089-1.011-2.962-3.523-1.95-5.607c34.098-70.469,103.868-115.06,182.084-116.372c12.482-0.209,25.001,0.704,37.209,2.723
				c2.289,0.375,3.839,2.536,3.461,4.827c-0.378,2.287-2.536,3.861-4.827,3.457c-11.711-1.932-23.724-2.809-35.701-2.609
				c-75.027,1.259-141.955,44.034-174.666,111.629C1087.057,1147.142,1085.594,1148.011,1084.058,1148.037z"/>
			
				<ellipse transform="matrix(0.7071 -0.7071 0.7071 0.7071 -502.0426 1260.5468)" style="opacity:0.78;fill:#FFFFFF;" cx="1270.593" cy="1236.292" rx="185.024" ry="185.024"/>
			<g>
				
					<linearGradient id="SVGID_00000069373682939069535750000003852861317778296249_" gradientUnits="userSpaceOnUse" x1="1523.2256" y1="4396.8135" x2="1513.0701" y2="3523.4375" gradientTransform="matrix(0.9694 0.2456 -0.2456 0.9694 -59.3834 484.2198)">
					<stop  offset="0" style="stop-color:#FF928E"/>
					<stop  offset="1" style="stop-color:#FE7062"/>
				</linearGradient>
				<path style="fill:url(#SVGID_00000069373682939069535750000003852861317778296249_);" d="M1254.746,1374.127l-0.338-20.127
					c-20.996-0.488-41.832-5.092-56.68-11.296c-5.302-2.216-8.084-8.078-6.665-13.647l4.798-18.833
					c1.76-6.909,9.18-10.592,15.801-7.946c14.724,5.884,32.859,10.43,52.327,10.104c20.209-0.339,35.165-7.444,34.93-21.487
					c-0.213-12.672-11.985-20.012-40.199-27.076c-40.258-10.289-69.325-27.276-69.917-62.555
					c-0.534-31.856,22.35-56.566,62.658-63.751l-0.338-20.129c-0.109-6.477,5.054-11.815,11.53-11.924l11.826-0.198
					c6.477-0.109,11.816,5.054,11.924,11.53l0.303,18.072c19.427,0.452,33.616,3.534,44.898,7.287
					c5.78,1.922,9.024,8.06,7.528,13.965l-4.411,17.418c-1.701,6.716-8.785,10.498-15.306,8.157
					c-10.391-3.732-25.059-7.553-44.037-7.234c-23.977,0.402-30.659,10.45-30.51,19.356c0.184,10.96,14.696,18.254,46.026,27.323
					c44.753,12.611,63.559,30.797,64.116,64.022c0.512,30.485-21.635,58.266-65.363,65.853l0.378,22.524
					c0.109,6.477-5.054,11.816-11.53,11.924l-11.827,0.198C1260.193,1385.767,1254.855,1380.604,1254.746,1374.127z"/>
			</g>
		</g>
		<g>
			
				<linearGradient id="SVGID_00000159468233454590412560000003256552228167063949_" gradientUnits="userSpaceOnUse" x1="1813.0142" y1="1461.113" x2="2150.7007" y2="1069.1559" gradientTransform="matrix(0.9998 -0.0168 0.0168 0.9998 -1233.1075 378.2129)">
				<stop  offset="0" style="stop-color:#FF928E"/>
				<stop  offset="1" style="stop-color:#FE7062"/>
			</linearGradient>
			
				<circle style="fill:url(#SVGID_00000159468233454590412560000003256552228167063949_);" cx="941.811" cy="1402.993" r="251.743"/>
			
				<linearGradient id="SVGID_00000132052224763323973810000006202849598400246463_" gradientUnits="userSpaceOnUse" x1="2341.5156" y1="783.2763" x2="1342.9675" y2="2291.7976" gradientTransform="matrix(0.9998 -0.0168 0.0168 0.9998 -1233.1075 378.2129)">
				<stop  offset="0" style="stop-color:#FF928E"/>
				<stop  offset="1" style="stop-color:#FE7062"/>
			</linearGradient>
			
				<circle style="fill:url(#SVGID_00000132052224763323973810000006202849598400246463_);" cx="941.811" cy="1402.993" r="243.372"/>
			<path style="opacity:0.78;fill:#FFFFFF;" d="M739.534,1309.821c-0.688,0.012-1.389-0.132-2.051-0.454
				c-2.26-1.094-3.203-3.811-2.11-6.067c37.938-78.406,115.566-128.018,202.594-129.478c13.886-0.233,27.815,0.785,41.401,3.029
				c2.477,0.407,4.153,2.744,3.745,5.222c-0.409,2.474-2.728,4.164-5.223,3.74c-13.049-2.15-26.43-3.129-39.771-2.905
				c-83.578,1.402-158.131,49.049-194.568,124.347C742.779,1308.853,741.195,1309.793,739.534,1309.821z"/>
			
				<ellipse transform="matrix(0.7071 -0.7071 0.7071 0.7071 -718.3231 1082.2272)" style="opacity:0.78;fill:#FFFFFF;" cx="947.202" cy="1408.206" rx="205.985" ry="205.985"/>
			<g>
				
					<linearGradient id="SVGID_00000112616219125058162810000000122332921430941083_" gradientUnits="userSpaceOnUse" x1="1249.4685" y1="4399.9736" x2="1239.3129" y2="3526.5964" gradientTransform="matrix(0.9694 0.2456 -0.2456 0.9694 -59.3834 484.2198)">
					<stop  offset="0" style="stop-color:#FF928E"/>
					<stop  offset="1" style="stop-color:#FE7062"/>
				</linearGradient>
				<path style="fill:url(#SVGID_00000112616219125058162810000000122332921430941083_);" d="M929.56,1561.655l-0.376-22.407
					c-23.375-0.544-46.571-5.669-63.101-12.577c-5.903-2.467-9-8.993-7.42-15.192l5.342-20.967c1.96-7.692,10.22-11.792,17.59-8.846
					c16.393,6.551,36.582,11.612,58.255,11.249c22.498-0.377,39.149-8.286,38.886-23.922c-0.237-14.108-13.342-22.279-44.752-30.143
					c-44.82-11.454-77.179-30.365-77.838-69.642c-0.595-35.465,24.883-62.974,69.757-70.973l-0.376-22.409
					c-0.121-7.211,5.627-13.154,12.837-13.275l13.165-0.221c7.211-0.121,13.154,5.626,13.275,12.836l0.337,20.12
					c21.63,0.502,37.425,3.935,49.985,8.113c6.435,2.14,10.046,8.973,8.381,15.547l-4.911,19.39
					c-1.894,7.478-9.781,11.688-17.04,9.082c-11.569-4.155-27.898-8.408-49.025-8.054c-26.694,0.448-34.133,11.634-33.967,21.548
					c0.205,12.202,16.361,20.322,51.24,30.419c49.823,14.04,70.759,34.286,71.379,71.275c0.569,33.938-24.085,64.867-72.767,73.313
					l0.421,25.076c0.121,7.211-5.626,13.154-12.837,13.275l-13.167,0.221C935.625,1574.613,929.681,1568.866,929.56,1561.655z"/>
			</g>
		</g>
	</g>
</g>
</svg>
