<?xml version="1.0" encoding="UTF-8"?>
<svg xmlns="http://www.w3.org/2000/svg" viewBox="0 0 1889.99 3477.83">
  <defs>
    <style>
      .cls-1 {
        opacity: .7;
      }

      .cls-2 {
        opacity: .5;
      }

      .cls-3 {
        fill: #fcd5b4;
      }

      .cls-3, .cls-4, .cls-5, .cls-6, .cls-7, .cls-8, .cls-9, .cls-10, .cls-11 {
        stroke-width: 0px;
      }

      .cls-12 {
        opacity: .6;
      }

      .cls-13 {
        isolation: isolate;
      }

      .cls-4 {
        fill: #01bca8;
      }

      .cls-14, .cls-15 {
        opacity: .2;
      }

      .cls-5 {
        fill: #787a75;
      }

      .cls-6 {
        fill: #dbd4df;
      }

      .cls-7 {
        fill: #b39ec0;
      }

      .cls-8 {
        fill: #fff;
      }

      .cls-15 {
        mix-blend-mode: color-burn;
      }

      .cls-9 {
        fill: #d1623c;
      }

      .cls-10 {
        fill: #3b0372;
      }

      .cls-11 {
        fill: #ff67a0;
      }
    </style>
  </defs>
  <g class="cls-13">
    <g id="Layer_1" data-name="Layer 1">
      <g>
        <g class="cls-15">
          <ellipse class="cls-10" cx="1070.68" cy="3398.21" rx="800.07" ry="79.62"/>
        </g>
        <g>
          <path class="cls-5" d="m1558.74,3391.1c-82.72,2.13-185.66-9.33-237.06-15.92-18.91-2.43-33-18.4-33.25-37.46-.2-16.63-.15-33.96.05-51.4,1.37-93.52,8.36-189.72,8.36-189.72l4.51-8.62h224.19s75.42,169.9,104.57,215.62c29.14,45.77,43.74,84.44-71.37,87.49Z"/>
          <g class="cls-14">
            <path class="cls-10" d="m1558.74,3391.1c-82.72,2.13-185.66-9.33-237.06-15.92-18.91-2.43-33-18.4-33.25-37.46-.2-16.63-.15-33.96.05-51.4,6.74-.25,10.8-.46,10.85-.81.51-2.99,245.83,43.24,221.2-50.28-24.63-93.47-85.46-133.71-85.46-133.71l18.7-13.53h71.77s75.42,169.9,104.57,215.62c29.14,45.77,43.74,84.44-71.37,87.49Z"/>
          </g>
          <path class="cls-10" d="m1537.36,3406.56c-78.55,0-168.49-9.98-217.62-16.3-26.18-3.37-46.18-25.86-46.53-52.31-1.4-105.11,8.36-241.08,8.46-242.44.15-2.08.73-4.11,1.69-5.95l4.52-8.64c2.62-5.01,7.81-8.15,13.47-8.15h224.19c6.01,0,11.46,3.54,13.9,9.04.75,1.69,75.27,169.38,103.48,213.64,15.56,24.41,31.09,52.47,18.32,76.49-11.81,22.22-43.31,32.81-102.12,34.35-7.13.19-14.4.27-21.77.27Zm-225.74-303.38c-1.79,26.33-9.22,142.46-8,234.37.16,11.6,8.57,21.08,20.01,22.55,52.87,6.81,153.66,17.92,234.7,15.79,60.76-1.59,73.43-13.28,76.06-18.22,5.51-10.38-10.34-35.25-17.11-45.87-25.85-40.56-85.41-172.42-101.6-208.62h-204.06Z"/>
          <path class="cls-5" d="m916.04,3370.72h-406.41s-20.83-27.88,3.6-62.19c7.6-10.64,19.56-21.95,37.86-33.2,77.3-47.49,143.29-178.72,143.29-178.72l176.34,16.73,18.96,1.77s44.45,92.35,26.36,255.61Z"/>
          <g class="cls-14">
            <path class="cls-10" d="m916.04,3370.72h-406.41s-20.83-27.88,3.6-62.19c.05.05.1,0,.1-.05,4.66-7.45,267.02,31.32,331.59-30.51,64.57-61.84,9.28-161.34,9.28-161.34l16.52-3.29,18.96,1.77s44.45,92.35,26.36,255.61Z"/>
          </g>
          <path class="cls-10" d="m916.05,3385.93h-406.41c-4.8,0-9.31-2.26-12.18-6.1-1.6-2.13-15.44-21.66-10.12-49.53,4.83-25.27,23.6-48.12,55.81-67.92,72.66-44.66,137-171.33,137.64-172.61,3.77-7.5,12.91-10.53,20.42-6.75,7.5,3.77,10.53,12.91,6.75,20.42-2.77,5.52-68.84,135.66-148.88,184.85-24.27,14.92-38.75,31.42-41.86,47.71-1.54,8.09-.06,14.94,1.62,19.52h383.47c13.54-147.92-25.94-232.97-26.36-233.84-3.6-7.57-.41-16.65,7.16-20.27,7.55-3.61,16.62-.45,20.26,7.1,1.89,3.93,46.16,98.2,27.8,263.88-.85,7.71-7.36,13.53-15.11,13.53Z"/>
          <path class="cls-4" d="m1538.62,3088.96l-150.49,7.65-106.9,5.42-188.5-439.81-81.91,6.03s-83.94,448.88-85.46,451.36c-.86,1.47-87.74-4.41-161.28-9.68-54.18-3.85-101.12-7.4-101.12-7.4-45.36-204.42-49.11-442.75-19.77-707.99.56-4.97,1.11-9.88,1.67-14.85l585.99,35.43,206.75,12.52c53.68,202.39,84.9,425.01,101.02,661.31Z"/>
          <g class="cls-14">
            <path class="cls-10" d="m844.92,2574.74c134.74,28,258.2,35.17,354.39-8.04-85.54,144.59-281.19,112.07-354.39,8.04Z"/>
          </g>
          <g class="cls-14">
            <path class="cls-10" d="m764.08,3109.94c-54.18-3.85-101.12-7.4-101.12-7.4-45.36-204.42-49.11-442.75-19.77-707.99l146.74,21.9s-62.65,99.19-75.73,333.31c-9.48,170.41,28.49,301.48,49.88,360.18Z"/>
          </g>
          <g class="cls-14">
            <path class="cls-10" d="m1388.13,3096.61c81-123.62,7.6-377.77-25.44-509.81-37.2-148.82-153.83-149.42-153.83-149.42l22-22.25,206.75,12.52c53.68,202.39,84.9,425.01,101.02,661.31l-150.49,7.65Z"/>
          </g>
          <path class="cls-10" d="m921.35,3135.06c-2.46,0-5.21-.11-8.33-.24-7.35-.3-17.77-.86-30.22-1.61-21.88-1.32-52.25-3.33-90.28-6-65.45-4.59-130.71-9.5-130.71-9.5-6.69-.5-12.26-5.32-13.71-11.87-44.58-200.84-50.75-445.74-18.36-727.88.93-8.03,8.08-13.94,16.03-13.44l792.76,47.95c6.54.4,12.1,4.95,13.78,11.28,50.88,191.88,84.07,409.14,101.47,664.18.28,4.07-1.09,8.08-3.8,11.13-2.71,3.05-6.53,4.89-10.6,5.09l-257.37,13.07c-6.3.36-12.24-3.34-14.75-9.19l-184.24-429.87-59.43,4.38c-82.32,440.12-83.34,441.81-85.21,444.92-3.79,6.32-8.73,7.6-17.04,7.6Zm-245.95-46.83c82.28,6.14,200.92,14.58,237.61,16.17,11.66-59.05,62.35-329.38,82.85-438.96,1.27-6.79,6.95-11.87,13.83-12.37l81.93-6.04c6.52-.42,12.54,3.21,15.09,9.17l184.34,430.11,231.32-11.75c-17.21-241.76-48.87-448.91-96.66-632.41l-767.36-46.42c-29.6,267.61-23.88,500.42,17.05,692.49Z"/>
          <g>
            <path class="cls-3" d="m1805.54,2014.76c1.52,148.82-86.98,283.49-86.98,283.49,0,0-12.82,75.93-37.2,102.54-24.38,26.66-137.21,20.88-175.43-29.65,0,0-32.39,29.65-57.78,11.56-15.16-10.8-7.91-33.1.41-49.27,5.58-10.9,11.66-19.06,11.66-19.06,0,0-20.07-28.99-22.35-54.29-.86-9.73.86-18.86,7.4-25.65,23.47-24.38,92.86-53.78,92.86-53.78l12.32-78.92-40.35-19.21-8.41-4,142.12-237.31s141.06,21.8,159.71,147.45c1.22,8.21,1.93,16.93,2.03,26.1Z"/>
            <g class="cls-15">
              <path class="cls-10" d="m1805.54,2014.76c1.52,148.82-86.98,283.49-86.98,283.49,0,0-12.82,75.93-37.2,102.54-24.38,26.66-137.21,20.88-175.43-29.65,0,0-32.39,29.65-57.78,11.56-15.16-10.8-7.91-33.1.41-49.27,36.9,24.68,77.09-10.95,76.64-13.79-.46-3.04,109.43,72.03,131.68,21.9,22.25-50.13-24.13-74.66-24.13-74.66,87.89-3.65,144.56-97.06,170.76-278.22,1.22,8.21,1.93,16.93,2.03,26.1Z"/>
            </g>
            <g class="cls-15">
              <path class="cls-10" d="m1612.78,2036.1s-44.1,167.42-46.02,167.77c-1.88.41-47.75,21.49-69.09,43.54-21.39,22.1-37.46,53.73-37.46,53.73,0,0-11.71-21.09-22.35-41.06-.86-9.73.86-18.86,7.4-25.65,23.47-24.38,92.86-53.78,92.86-53.78l12.32-78.92-40.35-19.21,48.2-77.3,54.49,30.87Z"/>
            </g>
            <path class="cls-10" d="m1623.34,2431.65c-3.67,0-6.93-.1-9.59-.22-36-1.69-81.5-13.15-109.74-39.79-17.36,11.01-42.75,19.09-64.7,3.45-8.04-5.73-13.11-14.03-14.68-24.01-3.18-20.3,9.37-44.2,17.4-56.99-11.52-19.41-33.12-63.91-7.74-90.22,20.89-21.66,70.25-44.97,90.1-53.82l9.28-59.47-38.53-18.34c-3.87-1.85-6.78-5.23-8.02-9.33-1.24-4.1-.69-8.54,1.51-12.21l142.12-237.3c3.18-5.31,9.28-8.14,15.37-7.22,1.73.27,173.01,28.58,174.63,188.42,1.44,141.82-74.77,268.77-87.72,289.31-2.97,16.36-15.89,80.36-40.43,107.17-16.12,17.62-49,20.58-69.25,20.58Zm-117.41-75.69c.48,0,.95.02,1.43.07,4.24.41,8.14,2.55,10.71,5.95,16.44,21.74,54.56,37.08,97.09,39.07,31.93,1.49,50.38-5.47,55-10.51,17.48-19.1,30.05-74.92,33.42-94.81.35-2.07,1.13-4.05,2.28-5.81.86-1.31,85.91-132.79,84.47-275.01-1.17-115.4-105.72-148.94-139-156.69l-128.02,213.75,33.66,16.03c6.07,2.89,9.52,9.43,8.49,16.07l-12.31,78.92c-.81,5.2-4.25,9.6-9.09,11.66-18.51,7.85-70.38,32.2-87.88,50.34-10.5,10.89,5.59,44.91,16.53,60.71,3.72,5.37,3.59,12.5-.31,17.74-8.38,11.31-19.43,32.12-17.71,42.95.34,2.18,1.13,3.12,2.29,3.95,14.75,10.52,38.52-10.23,38.75-10.43,2.81-2.53,6.46-3.93,10.21-3.93Z"/>
            <path class="cls-10" d="m1446.93,2306.93l53.26-79.61c5.22-7.67,17.09-1,13.27,7.42,0,0-39.99,87.03-39.99,87.03-9.89,19.36-37.87,3.75-26.54-14.85h0Z"/>
          </g>
          <g>
            <path class="cls-3" d="m706.2,2043.44l-37.71,81.91c-131.68,136.95-297.23,106.69-429.52-68.43-62.4-27.78-120.23-62.29-148.71-140.6-6.03-16.68-10.8-35.38-13.94-56.41,0,0-2.74-15.31,3.8-24.84,0,0-22.3-55.4,15-58.75,37.25-3.34,100.87,40.85,102.08,42.63,1.27,1.77,22.91,53.02,66.4,53.78,0,0,29.65-51.5,19.56-89.97-10.04-38.47,37.96-20.83,37.96-20.83,0,0,20.12,3.5,32.19,60.06,12.06,56.52-14.85,110.09-12.57,110.34,2.28.2,100.97,49.67,148.87-.05,26.61-27.62,90.43,9.73,141.97,48.41,41.26,30.92,74.61,62.75,74.61,62.75Z"/>
            <g class="cls-15">
              <path class="cls-10" d="m706.2,2043.44l-37.71,81.91c-131.68,136.95-297.23,106.69-429.52-68.43-62.4-27.78-120.23-62.29-148.71-140.6,5.17-6.74,9.23-10.09,9.23-10.09,40.75,62.7,98.64,103.15,207.56,77.35-13.03,20.63-36.44,34.16-36.44,34.16,70.45,76.44,240.05,181.1,316.44,0l44.55-37.05c41.26,30.92,74.61,62.75,74.61,62.75Z"/>
            </g>
            <path class="cls-10" d="m488.88,2226.29c-4.41,0-8.83-.13-13.26-.4-86.78-5.15-171.93-59.31-246.43-156.68-71.66-32.24-148.57-78.33-167.9-207.02-.47-2.6-2.42-15.74,2.31-28.12-4.11-12.63-10.03-37.98.9-55.84,4.25-6.96,12.78-15.57,29.24-17.05,43.19-3.86,111.26,42.49,115.87,48.96.23.33.99,1.51,1.99,3.5,7.16,14.32,21.72,37.26,43.35,42.71,8.16-17.21,19.25-47.85,13.53-69.74-5.09-19.46,1.2-30.22,7.36-35.83,15.46-14.06,42.45-5.97,49.67-3.44,8.72,2.37,30.42,14.08,42.67,71.45,9.2,43.15-2.12,84.06-8.89,104.69,35.69,13.98,90.59,28.11,119.37-1.76,55.62-57.71,208.02,82.08,238.02,110.69,4.7,4.48,6.03,11.46,3.32,17.36l-37.7,81.91c-.71,1.54-1.67,2.96-2.85,4.18-57.06,59.34-122.68,90.41-190.56,90.41Zm-389.43-434.95c-1.03,0-2.02.04-2.99.13-4.67.42-5.62,1.97-6.03,2.63-4.05,6.62-.34,25.05,3.77,35.27,1.9,4.72,1.31,10.07-1.56,14.27-1.98,2.89-1.94,10.39-1.36,13.6,17.44,116.07,85.56,155.41,153.83,185.79,2.35,1.04,4.4,2.67,5.95,4.73,69.53,92.01,147.8,143.12,226.35,147.78,62.7,3.75,124.35-23.54,178.33-78.91l32.04-69.61c-64.14-59.31-162.74-129.61-187.22-104.18-32.75,33.99-90.58,35.64-162.84,4.68-.76-.33-1.36-.59-1.77-.76-3.32-1.1-6.22-3.32-8.12-6.29-4.2-6.58-2.27-12.24.41-20.07,5.14-15.02,18.79-54.94,10.19-95.24-8.39-39.34-19.97-47.64-21.6-48.63-.3-.09-.61-.19-.9-.3h0c-6.58-2.37-15.17-3.65-18.93-2.96,0,1.04.15,2.84.89,5.65,11.5,43.98-19.8,99.09-21.14,101.42-2.76,4.79-8.09,7.62-13.44,7.62-31.13-.54-58.82-21.5-78.11-59.1-11.94-8.62-58.87-37.51-85.76-37.51Zm239.66,156.1s.02,0,.02,0c0,0-.01,0-.02,0Zm-.02,0h0,0Zm-.02,0s0,0,0,0t0,0Zm-20.57-170.53s.02,0,.03,0c0,0-.02,0-.03,0Zm-.04,0s.02,0,.03,0c0,0-.02,0-.03,0Z"/>
            <path class="cls-10" d="m75.55,1920.26c-14.33-46.55,48.32-74.62,68.45-27.88,1.21,3.57,2.98,7.81,4.84,10.87,0,0,13.13,24.82,13.13,24.82,2.04,3.72.65,8.41-3.11,10.4-3.45,1.83-7.66.73-9.82-2.4-4.26-6.53-20.14-28.27-23.42-34.78-1.88-3.54-4.92-6.58-8.34-8.11-10.46-3.5-18.33,7.76-12.9,17.3,7.76,20.33-22.6,30.65-28.83,9.79h0Z"/>
            <path class="cls-10" d="m74.21,1821.03c32.49-10.04,55.88,6.99,62.99,38.92,1.96,8.23,2.88,15.52,2.28,24.28-.31,4.17-3.95,7.3-8.12,6.99-8.54-.89-6.58-10.08-8.92-16.37-2.52-8.78-7.24-17.66-13.11-24.32-6.29-6.86-16.16-5.21-23.33-1.46-18.66,7.32-30.09-19.79-11.79-28.03h0Z"/>
            <path class="cls-10" d="m190.15,1943.53c19.41-7.18,40-9.62,60.57-8.53,7.3,1.22,28.05.56,25.14,12.12-.82,2.74-3.19,4.58-5.87,4.88-12.87,1.72-25.49,2.39-38.39,3.33-12.96.77-26.11,1.76-39.12,1.47-7.37-.09-9.15-10.73-2.33-13.26h0Z"/>
          </g>
          <g>
            <path class="cls-4" d="m1656.87,1816.12l-60.67,116.38h-.05s-.1.25-.3.71l-9.28,17.74-77.85,149.27-79.17-21.69c2.28,120.79,19.62,348.42,19.62,348.42-138.02,8.72-255,11.4-353.59,10.19-25.85-.3-50.38-.91-73.75-1.72-297.73-10.34-397.59-57.23-397.59-57.23,25.14-83.78,39.59-198.29,47.75-330.78-46.99-14.5-83.63-33.1-111.81-51.7-5.83-3.85-11.25-7.65-16.37-11.46-.15-.15-.35-.25-.51-.36-47.95-35.89-65.34-68.68-65.34-68.68,0,0,61.33-102.54,115.11-165.34,53.83-62.85,228.75-51.29,228.75-51.29,0,0,89.46-5.52,93.47-4.31,4.06,1.22,243.8-26.86,243.8-26.86l80.19,42.02c214.91,15.86,417.61,106.7,417.61,106.7Z"/>
            <g class="cls-12">
              <path class="cls-8" d="m1656.87,1816.12l-13.08,25.09c-56.77-23.11-222.87-85.2-396.98-98.08l-80.19-42.02s-239.75,28.08-243.8,26.91c-4-1.22-93.47,4.26-93.47,4.26,0,0-174.92-11.56-228.75,51.29-42.42,49.57-89.56,123.83-107.56,152.97-10.64-12.93-15.11-21.34-15.11-21.34,0,0,61.33-102.54,115.11-165.34,53.83-62.85,228.75-51.29,228.75-51.29,0,0,89.46-5.52,93.47-4.31,4.06,1.22,243.8-26.86,243.8-26.86l80.19,42.02c214.91,15.86,417.61,106.7,417.61,106.7Z"/>
            </g>
            <g class="cls-14">
              <path class="cls-10" d="m1032.92,2422.94s-3.9,4.92-11.1,12.47c-297.73-10.34-397.59-57.23-397.59-57.23,25.14-83.78,39.59-198.29,47.75-330.78-46.99-14.5-83.63-33.1-111.81-51.7,36.65,6.69,98.03-73.85,137.16-147.7-2.08,11.25-102.49,562.27,335.6,574.94Z"/>
            </g>
            <g class="cls-14">
              <path class="cls-10" d="m1508.72,2100.21l-79.17-21.69c2.28,120.79,19.62,348.42,19.62,348.42-138.02,8.72-255,11.4-353.59,10.19,16.22-6.59,36.14-12.67,60.11-18.2,258.5-59.35,245.22-537.38,245.22-537.38l24.79,67.36c90.17,86.62,141.16,33.61,160.88,2.03l-77.85,149.27Z"/>
            </g>
            <polyline class="cls-3" points="1155.69 1799.11 965.81 1788.57 898.71 1694.26 931.13 1672.68 1208.61 1688.52 1203.28 1758.08"/>
            <path class="cls-10" d="m1139.87,2452.66c-387.33,0-515.67-57.7-522.08-60.71-6.82-3.2-10.27-10.92-8.11-18.13,22.19-73.98,37.38-177.29,46.39-315.56-143.54-47.87-189.61-132.27-191.54-135.93-2.49-4.7-2.34-10.36.39-14.92,2.53-4.23,62.61-104.38,116.61-167.47,56.47-65.97,224.19-57.59,240.28-56.62,68.64-4.24,87.68-4.68,94.19-4.25,11.89-.31,150.56-16.16,241.33-26.78,3.01-.36,6.11.21,8.83,1.63l77.39,40.56c213.92,16.54,417.5,106.85,419.55,107.77,3.82,1.71,6.77,4.93,8.14,8.89,1.37,3.96,1.05,8.31-.88,12.02l-148.16,284.07c-3.31,6.34-10.59,9.51-17.5,7.63l-59.45-16.3c3.56,122.63,18.91,325.07,19.07,327.22.31,4.06-1.02,8.07-3.69,11.14-2.67,3.07-6.46,4.94-10.51,5.2-118.23,7.48-221.1,10.54-310.24,10.54Zm-497.13-83.7c50.05,17.18,264.34,75.64,790.11,43.76-3.91-53.3-16.6-232.26-18.51-333.95-.09-4.79,2.08-9.35,5.87-12.29,3.79-2.94,8.73-3.94,13.36-2.66l67.34,18.46,134.87-258.59c-50.34-20.71-220.88-86.07-397.62-99.13-2.08-.15-4.1-.73-5.94-1.69l-76.01-39.83c-223.49,26.15-240.11,26.94-244.54,25.97.99.24,1.66.29,1.75.3-5.8-.38-50.67,1.96-90.67,4.43-.64.04-1.28.04-1.94,0-46.54-3.06-176.17-.74-216.17,45.99-43.73,51.08-93.31,130.16-108.76,155.33,14.37,20.67,65.15,82.18,180.62,117.82,6.71,2.07,11.13,8.46,10.69,15.47-8.54,138.27-23.11,243.39-44.45,320.62Zm273.33-689.87c.91.06,1.57.14,2.09.23-.96-.18-1.71-.22-2.09-.23Zm-2.65,30.22h.05-.05Z"/>
            <path class="cls-10" d="m1414.35,2079.33c.13-48.37.87-96.43,3.81-144.72.7-9.48,14.75-9.33,15.21.19,2.13,47.65,6.46,95.51,11.36,142.94,1.43,21.09-29.57,22.79-30.37,1.59h0Z"/>
            <path class="cls-10" d="m656.84,2046.29c7.38-54.17,15.94-107.64,33.27-159.78,1.37-3.97,5.69-6.09,9.67-4.72,3.79,1.3,5.89,5.32,4.89,9.12-11.85,51.24-15.37,105.16-17.5,157.72-1.38,20.97-32.15,18.68-30.32-2.34h0Z"/>
            <path class="cls-10" d="m1052.85,1973.62c-2.38,0-4.77-.56-6.95-1.68-198.73-102.12-259.03-262.17-261.5-268.93-2.88-7.89,1.18-16.62,9.07-19.5,7.87-2.88,16.61,1.17,19.5,9.06.88,2.37,58.24,152.23,239.66,248.57,34.58-19.47,189.86-109.59,310.44-223.92,6.1-5.78,15.72-5.52,21.5.57,5.78,6.09,5.52,15.72-.57,21.5-138.8,131.6-322.07,231.5-323.9,232.49-2.26,1.23-4.75,1.84-7.24,1.84Z"/>
            <path class="cls-10" d="m1047,1877.65c-2.71,0-5.41-.72-7.79-2.15-59.28-35.36-160.09-164.53-164.48-175.65-3.09-7.81.74-16.64,8.55-19.73,7.35-2.9,15.64.33,19.15,7.26,6.81,10.86,92.8,121.68,146.18,158.04,23.52-10.01,106.2-49.82,194.07-146.56,5.64-6.22,15.26-6.67,21.48-1.03,6.22,5.65,6.68,15.26,1.03,21.48-109.08,120.07-208.96,156.01-213.16,157.48-1.64.57-3.34.85-5.03.85Zm-144.46-190.06c.17.35.33.71.47,1.08-.1-.25-.23-.62-.47-1.08Z"/>
            <path class="cls-10" d="m1155.71,1814.31c-.28,0-.57,0-.86-.02l-189.88-10.54c-8.38-.46-14.8-7.64-14.34-16.03.46-8.38,7.62-14.91,16.03-14.34l189.88,10.54c8.38.46,14.8,7.64,14.34,16.03-.45,8.1-7.15,14.36-15.17,14.36Z"/>
            <path class="cls-10" d="m672,1998.26c-1.25,0-2.53-.24-3.77-.73-136.78-54.92-173.33-113.27-174.81-115.72-2.9-4.79-1.37-11.02,3.42-13.93,4.78-2.88,10.99-1.37,13.9,3.37.46.74,35.79,55.56,165.06,107.46,5.2,2.09,7.71,7.99,5.63,13.19-1.59,3.96-5.4,6.36-9.41,6.36Z"/>
            <path class="cls-10" d="m1471.77,2092.76c-.81,0-1.63-.1-2.45-.3-5.43-1.35-8.75-6.85-7.4-12.28,35.91-144.78,130.73-281.15,134.75-286.88,3.22-4.58,9.54-5.7,14.12-2.49,4.59,3.21,5.7,9.53,2.49,14.12-.96,1.38-96.69,139.1-131.67,280.14-1.14,4.61-5.28,7.7-9.83,7.7Z"/>
            <path class="cls-10" d="m1189.36,2395.49c-297.3,0-553.69-43.43-556.97-43.99-5.51-.95-9.22-6.2-8.27-11.71.95-5.52,6.21-9.25,11.71-8.27,4.17.72,422.1,71.47,808.36,31.46,5.57-.6,10.55,3.47,11.13,9.04s-3.47,10.55-9.04,11.13c-85.69,8.88-172.96,12.34-256.92,12.34Z"/>
            <g>
              <circle class="cls-7" cx="1231.99" cy="2066.28" r="96.51"/>
              <path class="cls-10" d="m1231.98,2172.93c-58.81,0-106.65-47.84-106.65-106.65s47.84-106.65,106.65-106.65,106.65,47.84,106.65,106.65-47.84,106.65-106.65,106.65Zm0-193.03c-47.63,0-86.38,38.75-86.38,86.38s38.75,86.38,86.38,86.38,86.38-38.75,86.38-86.38-38.75-86.38-86.38-86.38Z"/>
              <path class="cls-7" d="m1253.81,1810.64c0-.36-.05-.71-.05-1.06-1.01-20.63-2.64-38.37-4.71-53.58-8.06-59.05-23.01-80.49-35.68-87.33-22.5-12.87-205.48-112.98-280.2-17.59-18.65,23.82-33.15,53.12-44.3,83.28-30.11,81-36.7,168.48-37.05,173.5-.86,12.52,8.57,23.42,21.14,24.33,12.62.76,23.47-8.57,24.38-21.14.1-1.17,6.84-90.98,36.75-167.47,9.28-23.72,20.78-46.23,34.97-64.37,42.73-54.54,171.07.66,219.88,28.03,2.08,3.09,9.12,15.71,14.34,50.84,2.03,13.89,3.8,31.38,4.92,53.17l.1,187.95c.05,12.57,10.24,22.81,22.81,22.81h.05c12.57-.05,22.81-10.24,22.76-22.86l-.1-188.5Z"/>
              <g class="cls-15">
                <path class="cls-10" d="m1249.05,1756c-18.6-1.93-34.82-.05-45.77,2.08-5.22-35.13-12.27-47.75-14.34-50.84-48.81-27.37-177.15-82.57-219.88-28.03-14.19,18.15-25.7,40.65-34.97,64.37-18.65-6.39-33.55-8.87-45.21-9.23,11.15-30.16,25.65-59.46,44.3-83.28,74.71-95.39,257.69,4.71,280.2,17.59,12.67,6.84,27.62,28.28,35.68,87.33Z"/>
              </g>
              <path class="cls-10" d="m1231.14,2032.12h-.02c-18.15,0-32.93-14.77-32.94-32.92l-.15-187.95c-2.11-42.5-7.03-67.54-10.78-80.99-2.67-9.57-9.4-17.68-18.48-22.26-69.24-34.91-161-61.77-191.72-22.54-58.09,74.14-69.5,224.79-69.6,226.31-1.28,17.92-17.05,31.73-35.08,30.54-18.24-1.3-31.93-17.08-30.65-35.19.5-7,13-172.36,83.47-262.3,80.14-102.31,271.66,2.71,293.23,15.02,25.96,14.03,41.33,64.27,45.47,149.22.02.58.03,1.08.03,1.58l.15,188.51c0,8.8-3.41,17.08-9.63,23.31s-14.49,9.65-23.29,9.65Zm-29.23-319.17c2.07,3.73,3.71,7.71,4.87,11.87,5.85,21,9.73,49.9,11.51,85.92l.16,188.44c0,6.98,5.69,12.67,12.67,12.67h.02c3.38,0,6.56-1.32,8.95-3.71,2.39-2.39,3.7-5.57,3.7-8.95l-.16-189.21c-5.13-105.16-26.23-127.62-35.06-132.4-20.22-11.54-197.78-109.16-267.43-20.24-66.68,85.11-78.72,244.48-79.2,251.23-.49,6.96,4.78,13.03,11.75,13.53,7.06.42,13.04-4.74,13.54-11.75.11-1.55,11.69-158.02,73.87-237.38,48.12-61.45,178.12-2.57,216.81,16.94,4.83,2.44,9.25,5.53,13.12,9.14,2.05-.26,4.18.14,5.94,1.05.03.01.04.02.05.02,0,0,.01,0,.02,0,3.55,1.77,5.61,5.35,5.61,9.07,0,1.26-.23,2.53-.73,3.75Z"/>
              <path class="cls-6" d="m969.26,2232.2c-.66,11.4-9.68,20.58-21.09,21.44l-37.3,2.79-19.51,1.47c-12.57.96-23.52-8.46-24.43-20.98-.96-12.57,8.46-23.52,21.04-24.48l22.3-1.67,14.34-1.06c2.08-55.86-.66-109.18-4.76-153.68-4.56-49.37-10.85-87.84-14.29-106.9-28.94-7.15-58.59-4.11-74.21-1.52-10.09,29.3-19.06,65.99-26.61,102.94-12.62,61.58-21.44,123.98-25.39,154.19,6.99,1.88,13.79,3.4,19.67,4.56,10.64,2.18,18.25,3.24,18.4,3.29,12.47,1.72,21.19,13.23,19.46,25.7-1.57,11.46-11.35,19.72-22.56,19.72-1.06,0-2.13-.1-3.14-.2-.76-.1-9.43-1.32-21.49-3.8-12.42-2.53-28.43-6.39-43.13-11.71-9.93-3.6-16.12-13.53-14.9-24.08.61-5.32,10.54-89.56,27.93-174.77,9.12-44.81,20.38-89.82,33.4-123.83,2.59-6.79,8.31-11.96,15.36-13.84,2.69-.71,65.64-17.23,124.74,4.06,7.45,2.69,12.98,9.02,14.6,16.73.76,3.5,11.51,54.84,18.14,129.45,4.51,50.59,7.1,111.86,3.45,176.19Z"/>
              <g class="cls-1">
                <path class="cls-8" d="m740.75,2170.71c1.32-1.13,36.95,1.89,36.95,1.89l-3.39,29.78s-34.12-.57-36.19,24.88"/>
              </g>
              <path class="cls-7" d="m965.81,2056.02c-20.38,4.05-45.97,0-45.97,0-4.56-49.37-10.85-87.84-14.29-106.9-28.94-7.15-58.59-4.11-74.21-1.52-10.09,29.3-19.06,65.99-26.61,102.94-31.43,3.9-45.16-7.1-45.16-7.1,9.12-44.81,20.38-89.82,33.4-123.83,2.59-6.79,8.31-11.96,15.36-13.84,2.69-.71,65.64-17.23,124.74,4.06,7.45,2.69,12.98,9.02,14.6,16.73.76,3.5,11.51,54.84,18.14,129.45Z"/>
              <g class="cls-12">
                <path class="cls-8" d="m789,1936.97c.18-2.26,4.02-33.5,31.98-33.91,0,0,25.14,10.41,18.45,43.36l-8.09,1.17-3.57,10.82s-40.46-.53-38.77-21.45Z"/>
              </g>
              <path class="cls-10" d="m814.31,2268.14c-1.41,0-2.82-.12-4.16-.25-2.04-.26-11.01-1.59-22.51-3.96-16.88-3.45-31.88-7.52-44.54-12.11-14.44-5.23-23.29-19.53-21.52-34.78,2.47-20.86,24.99-204.74,61.93-301.06,3.74-9.81,12.05-17.29,22.22-20,7.04-1.86,70.33-17.46,130.78,4.32,10.68,3.85,18.75,13.11,21.08,24.17,1.26,5.92,30.96,147.58,21.79,308.3h0c-.95,16.43-14.04,29.74-30.45,30.97l-56.82,4.26c-8.71.7-17.3-2.12-23.98-7.88-6.66-5.74-10.69-13.72-11.33-22.48-1.38-18.08,12.24-33.94,30.38-35.33l27.59-2.07c2.96-105.68-10.69-200.43-18.03-242.7-21.9-4.24-43.69-2.77-57.77-.86-23.92,72.7-41.05,185.96-48.39,240.4,3.4.8,6.88,1.55,10.4,2.25,8.43,1.73,14.97,2.74,17.11,3.08.25.04.49.08.7.12h0c17.99,2.49,30.61,19.14,28.12,37.12-2.23,16.23-16.25,28.47-32.6,28.47Zm52-358.95c-30.56,0-53.83,5.98-55.39,6.4-3.86,1.03-7.04,3.89-8.47,7.64-36.07,94.04-58.3,275.6-60.71,295.99-.7,6.03,2.71,11.53,8.27,13.54,11.58,4.19,26,8.1,41.7,11.31,12.25,2.51,20.68,3.67,20.76,3.68.42.04,1.13.12,1.85.12,6.28,0,11.66-4.71,12.51-10.96.96-6.92-3.89-13.33-10.81-14.28-.16-.02-.32-.05-.48-.08l-.57-.09c-2.27-.35-9.16-1.43-18-3.24-6.94-1.38-13.77-2.96-20.25-4.7-4.91-1.31-8.09-6.06-7.43-11.11,6.79-51.85,25.5-180.9,52.47-259.12,1.22-3.52,4.26-6.09,7.93-6.69,15.99-2.65,47.41-5.95,78.29,1.68,3.88.96,6.83,4.11,7.54,8.04,7.22,39.94,23.55,145.49,19.22,262.75-.19,5.16-4.23,9.35-9.38,9.73l-36.65,2.74c-6.97.54-12.22,6.64-11.68,13.6.25,3.38,1.79,6.43,4.34,8.62,2.57,2.21,5.86,3.28,9.22,3.02l56.83-4.26c6.32-.48,11.36-5.6,11.72-11.92,9.01-158.03-20.14-297.1-21.38-302.94-.9-4.26-4.01-7.82-8.12-9.3-21.59-7.78-43.93-10.19-63.33-10.19Zm102.95,323.01h.05-.05Z"/>
              <path class="cls-10" d="m791.74,2061.52c-24.94,0-37-8.98-38.49-10.17-4.37-3.5-5.08-9.88-1.58-14.25,3.46-4.32,9.74-5.06,14.1-1.7.54.37,12.18,8.25,37.72,5.09,5.53-.71,10.62,3.26,11.3,8.82.69,5.56-3.26,10.62-8.82,11.3-5.14.63-9.88.91-14.23.91Z"/>
              <path class="cls-10" d="m944.78,2067.96c-14.12,0-25.77-1.82-26.5-1.93-5.53-.88-9.29-6.06-8.42-11.59.87-5.53,6.01-9.31,11.6-8.43.23.04,24.08,3.72,42.37.07,5.51-1.09,10.83,2.48,11.92,7.96,1.09,5.49-2.47,10.83-7.96,11.92-7.53,1.5-15.61,2-23.01,2Z"/>
              <path class="cls-10" d="m836.87,2238.28c-1.57,11.46-11.35,19.72-22.56,19.72-1.06,0-2.13-.1-3.14-.2-.76-.1-9.43-1.32-21.49-3.8-.56-19.01,4-33.91,9.33-44.71,10.64,2.18,18.25,3.24,18.4,3.29,12.47,1.72,21.19,13.23,19.46,25.7Z"/>
              <path class="cls-10" d="m910.87,2256.43l-19.51,1.47c-12.57.96-23.52-8.46-24.43-20.98-.96-12.57,8.46-23.52,21.04-24.48l22.3-1.67c3.7,15.92,2.03,33.86.61,45.67Z"/>
              <circle class="cls-6" cx="1231.99" cy="2066.28" r="61.08"/>
              <path class="cls-10" d="m1231.98,2137.49c-39.27,0-71.21-31.94-71.21-71.21s31.94-71.21,71.21-71.21,71.21,31.94,71.21,71.21-31.94,71.21-71.21,71.21Zm0-122.15c-28.09,0-50.94,22.85-50.94,50.94s22.85,50.94,50.94,50.94,50.94-22.85,50.94-50.94-22.85-50.94-50.94-50.94Z"/>
            </g>
            <g class="cls-14">
              <path class="cls-10" d="m543.34,1983.58c.15.2.3.46.46.66-.15-.15-.35-.25-.51-.36l.05-.3Z"/>
            </g>
          </g>
          <g>
            <path class="cls-11" d="m211.04,1852.41c-321.71-150.84-192.66-448.98,0-293.58,192.71-155.41,321.71,142.73,0,293.58Z"/>
            <g class="cls-12">
              <path class="cls-8" d="m364.87,1621.16c0,38.59-19.41,69.87-43.36,69.87s-13.2-28.02-13.2-66.6-10.75-73.14,13.2-73.14,43.36,31.28,43.36,69.87Z"/>
            </g>
            <path class="cls-10" d="m211.04,1867.61c-2.21,0-4.41-.48-6.45-1.44C76.96,1806.33.48,1714.21,0,1619.74c-.25-50,22.63-90.95,61.22-109.52,42.72-20.56,96.82-9.8,149.81,29.4,53.02-39.2,107.14-49.95,149.85-29.39,38.58,18.57,61.46,59.51,61.21,109.51-.48,94.47-76.97,186.6-204.6,246.44-2.05.96-4.25,1.44-6.46,1.44Zm-103.61-337.21c-11.84,0-22.94,2.38-33.01,7.23-27.74,13.35-44.19,43.99-44,81.96.32,62.64,48.09,151.74,180.62,215.98,132.55-64.24,180.32-153.35,180.64-215.98.19-37.96-16.25-68.6-43.98-81.95-34.29-16.5-80.62-4.46-127.11,33.04-5.58,4.49-13.53,4.49-19.09,0-32.83-26.48-65.58-40.27-94.07-40.27Z"/>
            <path class="cls-10" d="m211.05,1801.72c-.26,0-.53,0-.8-.02-5.22-.33-9.7-3.82-11.28-8.81l-51.12-160.78-24.44,66.52c-1.83,4.99-6.58,8.3-11.89,8.3H33.31c-7,0-12.67-5.67-12.67-12.67s5.67-12.67,12.67-12.67h69.37l34.15-92.95c1.87-5.08,6.83-8.45,12.17-8.3,5.42.12,10.16,3.67,11.8,8.83l52.44,164.92,31.56-68.37c2.07-4.49,6.56-7.36,11.5-7.36h127.68c7,0,12.67,5.67,12.67,12.67s-5.67,12.67-12.67,12.67h-119.58l-41.85,90.66c-2.08,4.51-6.58,7.36-11.5,7.36Z"/>
          </g>
          <g>
            <path class="cls-9" d="m1835.95,856.82l-46.73-12.06,22.61,64.88s-6.03,19.62-18.04,50.59c-26.81,68.93-83.58,193.98-170.46,283.03-4.71,4.81-10.59,9.28-17.59,13.33-138.88,80.95-708.14,14.5-958.43-19.62-73.14-9.99-119.06-17.23-119.06-17.23-71.67-97.01-123.22-215.27-138.17-371.94l-77.6,19.97,53.53-96.51c-43.24-35.23-77.6-82.21-94.13-152.92l51.29,12.06c-32.59-72.08-49.77-172.94-92.5-250.34,0,0,92.1-61.08,306.96-62.19,20.48-.15,42.07.3,64.78,1.37l-95.04-95.04s127.48-8.67,215.67,25.65c0,0-29.8-129.71-35.43-215.62,0,0,256.32-96.71,602.87,146.43,11.56,8.06,23.27,16.57,35.02,25.44,0,0-5.27-54.29-31.68-134.22l.05.05c4.21.91,199.86,45.77,341.53,307.62l55.05-108.57s36.19,52-8.26,177.15c2.03-2.69,67.57-88.75,192.61-101.78l-134.98,122.91s46.38,6.79,88.25,64.12l-110.85-21.14s84.44,89.36,118,193.42l-50.13-.41s33.15,67.51,50.89,151.55Z"/>
            <g class="cls-15">
              <path class="cls-10" d="m1804.16,932.33c-26.81,68.93-93.97,221.87-180.85,310.93-4.71,4.81-10.59,9.28-17.59,13.33-54.23-42.93-112.02-148.16-117.39-174.31-6.54-31.68-42.73-309.64-42.73-309.64l90.98-157.08s-23.11,85.71,26.66,153.58c49.77,67.87,135.21,292.55,186.48,239.75,19.7-20.29,44.9-63.47,54.43-76.55Z"/>
            </g>
            <g class="cls-15">
              <path class="cls-10" d="m1413.7,718.85s63.34-73.96,51.27-206.63c0,0,73.77,27.81,67.61,94.03-31.17,58.88-72.36,92.47-118.88,112.6Z"/>
            </g>
            <g class="cls-15">
              <path class="cls-10" d="m1455.19,343.37s-81.66-82.21-164.73-162.7c11.56,8.06,23.27,16.57,35.02,25.44,0,0-5.27-54.29-31.68-134.22l.05.05c3.04,2.03,99.7,68.07,161.34,271.43Z"/>
            </g>
            <g class="cls-15">
              <path class="cls-10" d="m977.88,343.37s-125.91-11.3-254.85-93.52c0,0-29.8-129.71-35.43-215.62,0,0,180.95,109.33,290.28,309.14Z"/>
            </g>
            <g class="cls-15">
              <path class="cls-10" d="m537.61,317.87c20.48-.15,42.07.3,64.78,1.37l-95.04-95.04s165.14,44.5,246.59,137.26c0,0-121.04-16.93-216.33-43.59Z"/>
            </g>
            <g class="cls-15">
              <path class="cls-10" d="m769.3,743.74s-91.59,435.4-122,493.23c-73.14-9.99-119.06-17.23-119.06-17.23-57.78-78.21-102.49-170.26-125.5-285.16,57.93-64.37,67.21-158.4,67.21-158.4-21.85,30.56-52,56.16-79.48,75.62-.15-1.32-.25-2.69-.41-4l-77.6,19.97,53.53-96.51c-5.07-4.11-9.99-8.41-14.8-12.87,86.57,7.6,117.74-41.56,117.74-41.56-131.73-18.09-197.07-98.48-197.07-98.48l51.29,12.06c-32.59-72.08-49.77-172.94-92.5-250.34,78.16,115.36,167.37,214.56,300.12,249.83l-55.05-93.52s128.79,127.27,219.73,100.97l73.85,106.39Z"/>
            </g>
            <path class="cls-10" d="m1336.73,1310.58c-85.27,0-188.26-5.19-309.46-15.53-255.61-21.81-498.96-59.92-501.39-60.3-3.95-.62-7.5-2.77-9.87-5.99-77.71-105.21-123.34-223.73-139.23-361.85l-60.52,15.59c-5.9,1.51-12.11-.62-15.83-5.42-3.72-4.81-4.21-11.36-1.26-16.68l47.49-85.62c-45.69-40.41-75.04-90.6-89.59-153.01-1.19-5.12.35-10.5,4.07-14.22,3.73-3.72,9.12-5.23,14.22-4.04l22.48,5.29c-9.15-24.23-17.22-50.37-25.62-77.59-15.29-49.52-31.09-100.73-54.87-143.82-3.83-6.93-1.69-15.64,4.91-20.02,4.44-2.95,106.66-68.73,342.17-64.61l-67.8-67.8c-4.22-4.22-5.58-10.51-3.49-16.09,2.09-5.58,7.26-9.43,13.21-9.83,4.84-.33,109.31-7.04,196.1,17.89-9.03-42.64-25.84-128.16-30.03-191.73-.44-6.68,3.54-12.86,9.8-15.22,2.92-1.11,72.89-26.91,188.89-18.19,100.41,7.56,255.08,43.7,433.51,170.2-4.52-23.08-12.29-56.12-25.24-95.32-1.71-5.18-.52-10.88,3.13-14.94,3.65-4.05,9.18-5.84,14.53-4.69,8.11,1.76,194.29,44.65,337.65,290.24l42.17-83.19c2.42-4.77,7.17-7.92,12.51-8.29,5.4-.36,10.48,2.09,13.54,6.48,1.4,2.01,28.95,43.23,9.67,134.59,33.74-26.89,87.37-58.02,160.63-65.63,6.54-.67,12.77,2.92,15.45,8.91,2.69,6,1.22,13.04-3.64,17.46l-116.03,105.65c19.33,9.05,46.25,26.8,71.32,61.13,3.68,5.04,3.91,11.82.57,17.1-3.33,5.27-9.55,7.99-15.69,6.8l-68.54-13.07c28.44,36.04,70.98,97.42,93.02,165.76,1.5,4.65.67,9.73-2.22,13.67-2.86,3.9-7.42,6.21-12.26,6.21h-.11l-26.44-.2c11.45,26.98,30.18,76.05,42.18,133.04,1.08,5.15-.57,10.49-4.37,14.13-3.8,3.64-9.22,5.05-14.31,3.73l-19.23-4.96,13.26,38.01c1.06,3.05,1.13,6.37.19,9.46-2.6,8.5-65.12,209.62-192.16,339.82-36.94,37.86-135.04,56.69-297.48,56.69Zm-799.93-104.9c272.1,42.45,977.61,127.45,1075.63,26.98,111.57-114.35,173.21-291.92,183.35-322.83l-20.94-60.04c-1.85-5.3-.63-11.18,3.16-15.31,3.8-4.13,9.57-5.83,14.99-4.43l22.46,5.8c-17.7-69.83-43.76-123.27-44.05-123.86-2.32-4.73-2.04-10.33.77-14.8,2.78-4.43,7.65-7.12,12.88-7.12h.11l28.39.21c-35.6-90.84-106.66-166.81-107.42-167.62-4.53-4.8-5.45-11.97-2.28-17.75,3.17-5.78,9.73-8.86,16.18-7.63l65.65,12.52c-25.76-21.57-46.99-25.31-48.2-25.51-5.76-.94-10.53-5.1-12.19-10.69-1.66-5.59-.03-11.65,4.28-15.58l94.32-85.89c-84.49,25.94-129.04,84.39-129.56,85.09-4.5,6.03-12.73,7.87-19.37,4.32-6.63-3.55-9.68-11.4-7.16-18.48,22.41-63.06,23.26-106.15,19.45-132.22l-38.31,75.57c-2.56,5.04-7.71,8.25-13.36,8.33-5.66-.03-10.88-2.99-13.58-7.97-107.73-199.02-247.5-269.76-304.98-291.51,19.1,64.95,23.39,107.37,23.59,109.38.58,6.01-2.44,11.79-7.71,14.74-5.27,2.94-11.77,2.5-16.6-1.14-184.33-139.29-344.04-178.02-445.56-185.98-84.6-6.65-143.94,6.39-167.08,12.84,7.25,83.43,33.89,200.11,34.17,201.34,1.26,5.49-.62,11.23-4.87,14.91-4.26,3.69-10.21,4.71-15.46,2.67-56.55-21.99-131.44-25.55-174.37-25.54l69.99,69.99c4.44,4.44,5.69,11.16,3.15,16.9-2.54,5.75-8.39,9.37-14.63,9.04-205.17-9.76-315.94,34.58-350.6,51.77,21.34,42.53,35.99,90,50.21,136.06,11.44,37.06,22.25,72.07,35.73,101.87,2.38,5.28,1.57,11.46-2.11,15.93-3.69,4.47-9.58,6.46-15.22,5.14l-26.37-6.21c15.62,49.07,42.17,87.78,82.31,120.49,5.71,4.65,7.27,12.73,3.69,19.16l-36.38,65.6,43.35-11.16c4.32-1.1,8.88-.28,12.52,2.28,3.64,2.55,5.98,6.57,6.41,11,13.18,137.84,56.25,255.46,131.61,359.34Z"/>
            <ellipse class="cls-3" cx="1660.02" cy="1359.51" rx="124.35" ry="104.05" transform="translate(-156.47 2501.58) rotate(-71.48)"/>
            <g class="cls-15">
              <path class="cls-10" d="m1758.7,1392.58c-21.85,65.13-83.68,103.1-138.17,84.85-50.08-16.78-76.54-75.22-63.51-135.13,8.06,35.48,30.72,64.32,63.51,75.27,54.49,18.3,116.33-19.72,138.17-84.8,1.77-5.27,3.19-10.59,4.36-15.86,5.32,23.42,4.31,49.72-4.36,75.67Z"/>
            </g>
            <path class="cls-10" d="m1648.82,1497.25c-11.21,0-22.34-1.79-33.14-5.41-30.69-10.29-54.67-34-67.52-66.78-12.47-31.83-12.91-68.56-1.22-103.44,11.68-34.87,34.16-63.93,63.3-81.82,30-18.42,63.43-22.9,94.13-12.62,30.69,10.29,54.67,34,67.52,66.78,12.47,31.83,12.91,68.56,1.22,103.44-11.68,34.87-34.16,63.93-63.3,81.82-19.45,11.94-40.34,18.02-60.99,18.02Zm22.5-245.02c-15.14,0-30.61,4.56-45.17,13.49-23.06,14.16-40.95,37.45-50.37,65.56-9.42,28.12-9.17,57.48.7,82.68,9.5,24.25,26.86,41.67,48.87,49.04,22,7.38,46.35,3.93,68.55-9.69,23.06-14.16,40.95-37.45,50.37-65.56h0c9.42-28.12,9.17-57.48-.7-82.68-9.5-24.25-26.86-41.66-48.87-49.04-7.58-2.54-15.43-3.8-23.38-3.8Z"/>
            <ellipse class="cls-3" cx="496.36" cy="1331.36" rx="104.05" ry="124.35" transform="translate(-397.28 226.69) rotate(-18.53)"/>
            <g class="cls-15">
              <path class="cls-10" d="m397.68,1364.43c21.85,65.13,83.68,103.1,138.17,84.85,50.08-16.78,76.54-75.22,63.51-135.13-8.06,35.48-30.72,64.32-63.51,75.27-54.49,18.3-116.33-19.72-138.17-84.8-1.77-5.27-3.19-10.59-4.36-15.86-5.32,23.42-4.31,49.72,4.36,75.67Z"/>
            </g>
            <path class="cls-10" d="m507.91,1469.02c-52.59,0-104.4-39.41-124.63-99.77h0c-11.68-34.87-11.25-71.61,1.22-103.44,12.85-32.78,36.83-56.5,67.52-66.78,30.7-10.28,64.12-5.8,94.13,12.62,29.13,17.89,51.61,46.95,63.29,81.82,11.68,34.87,11.25,71.6-1.22,103.43-12.85,32.78-36.83,56.49-67.52,66.78-10.78,3.61-21.8,5.33-32.79,5.33Zm-95.79-109.43c19.12,57.06,72.44,90.84,118.92,75.26,22.01-7.38,39.37-24.79,48.87-49.04,9.87-25.2,10.12-54.56.7-82.68-9.42-28.12-27.31-51.4-50.37-65.56-22.2-13.63-46.54-17.08-68.55-9.69-22.01,7.37-39.37,24.79-48.87,49.04-9.87,25.2-10.12,54.56-.7,82.68h0Z"/>
            <path class="cls-3" d="m1635.38,998.59l-8.41,170.31-3.65,74.36c-16.93,363.12-255.46,463.58-590.4,449.79-365.4-18.1-543.61-168.84-504.69-473.31-1.12-36.65-.81-74.21.2-109.28.61-21.14,1.47-41.31,2.43-59.86.05-.3.05-.66.1-.96,3.14-59.4,7.3-101.52,7.3-101.52,50.28-119.06,127.43-204.37,127.43-204.37l28.28,22.61c-17.34-193.01,46.38-230.72,46.38-230.72,93.11-56.92,313.7,45.52,313.7,45.52,255.51-150.18,447.87-34.21,340.82,149.78,108.37-42.42,134.57-114.86,137.46-123.73l-36.95,140.81,140,250.59Z"/>
            <g class="cls-15">
              <path class="cls-10" d="m1626.97,1168.9l-3.65,74.36c-16.93,363.12-255.46,463.58-590.4,449.79-365.4-18.1-543.61-168.84-504.69-473.31-1.12-36.65-.81-74.21.2-109.28,5.93,611.08,995.18,630.54,1098.53,58.44Z"/>
            </g>
            <path class="cls-10" d="m667.12,960.25c48.08-64.9,149.14-80.2,207.4-18.98,8.35,8.72-2.89,22.18-12.93,15.62-59.46-39.3-127.26-28.39-179.67,17.21-9.16,7.89-22.08-4.24-14.8-13.85h0Z"/>
            <path class="cls-10" d="m1220.25,965.12c57.53-42.91,140.37-41.82,198.21-.11,9.73,6.88,1.55,22.13-9.51,17.91-43.24-16.5-89.04-25.83-134.52-14.59-14.89,3.4-29.59,8.56-44.37,14.52-11.04,4.43-19.4-10.77-9.81-17.73h0Z"/>
            <path class="cls-10" d="m1220.87,1236.26c35.67-27.24,85.29-37.01,127.92-22.07,14.48,4.56,27.32,12.88,38.73,22.09,3.63,2.93,4.2,8.26,1.27,11.89-2.66,3.31-7.18,3.98-10.74,2.1-47.42-24.67-99.96-22.09-147.77.02-9.07,4.83-17.39-7.58-9.41-14.03h0Z"/>
            <path class="cls-10" d="m1232.41,1252.81c31.01-7.61,63.48-5.83,93.93,2.92,10.16,2.86,19.96,7.11,29.19,12.19,3.29,1.81,4.5,5.94,2.69,9.23-1.54,2.82-4.79,4.09-7.75,3.3-28.59-7.01-57.25-12.13-86.67-13.5-9.87-.55-20.05-.75-29.68-.8-7.83-.05-9.23-11.35-1.71-13.34h0Z"/>
            <path class="cls-10" d="m1173.77,1378.78c7.94,11.5,17.17,22.88,27.67,32.34,3.59,3.45,7.54,6.7,11.29,10.51,4.98,4.82-.01,13.43-6.6,11.62-22.98-6.2-41.97-26.83-45.36-50.77-.67-7.74,9.37-10.35,13-3.7h0Z"/>
            <path class="cls-10" d="m993.79,1452.63c63.92-3.88,129.7-15.96,183.88-51.99,8.42-5.95,18.2,5.57,10.94,12.87-24.93,25.23-58.27,41.04-92.3,49.54-34.11,8.17-68.72,11.11-103.68,6.44-4.63-.66-7.84-4.95-7.18-9.58.6-4.23,4.23-7.24,8.34-7.28h0Z"/>
            <path class="cls-10" d="m1090.31,1709.46c-18.81,0-38.13-.41-58.01-1.23-211.84-10.49-361.31-66.11-444.39-165.33-66.76-79.72-91.96-188.69-74.91-323.9-3.89-129.16,10.01-270.96,10.16-272.38.15-1.52.53-3.01,1.12-4.41,50.69-120.08,126.94-205.11,130.16-208.67,5.4-5.97,14.51-6.7,20.78-1.67l1.25,1c-7.59-167.33,49.24-206.23,56.15-210.32,89.93-54.98,280.25,23.75,320.54,41.51,163.03-93.3,293.35-78.09,350.82-20.87,38.49,38.32,46.25,94.72,23.03,155.87,74.75-41.8,90.75-96.24,90.92-96.87,2.24-8.04,10.56-12.79,18.62-10.6,8.06,2.18,12.86,10.46,10.74,18.54l-35.64,135.83,137.01,245.24c1.39,2.49,2.05,5.32,1.91,8.17l-12.07,244.68c-8.3,178.34-68.07,302.04-182.71,378.14-88.25,58.58-208.21,87.3-365.48,87.3Zm-537.11-757.56c-1.76,18.71-13.44,148.79-9.77,267.36.02.8-.01,1.6-.12,2.4-16.23,127.01,6.62,228.53,67.91,301.72,77.42,92.45,219.55,144.43,422.45,154.47,179.39,7.39,312.02-19.11,405.3-81.03,106-70.36,161.33-186.24,169.15-354.26l11.86-240.36-137.87-246.78c-1.91-3.43-2.43-7.47-1.43-11.28l15.14-57.7c-21.92,20.65-52.67,41.89-95.42,58.63-6.04,2.36-12.89.64-17.09-4.27-4.21-4.91-4.85-11.95-1.6-17.54,37.31-64.12,37.61-121.9.82-158.54-48.36-48.16-169.38-59.48-320.78,29.5-4.31,2.53-9.58,2.78-14.11.68-59.32-27.52-228.73-89.48-299.34-46.31-.42.28-55.12,38.74-39.16,216.4.54,6.07-2.58,11.88-7.95,14.76-5.36,2.88-11.93,2.28-16.69-1.52l-16.76-13.41c-21.55,26.14-76.09,96.94-114.53,187.08Z"/>
            <path class="cls-10" d="m654.75,754.26c-19.1-24.61-33.7-51.53-44.56-80.48-1.46-3.95.55-8.34,4.5-9.8,3.57-1.32,7.5.2,9.3,3.42,14.15,24.19,32.17,47.09,52.74,65.84,15.87,15.14-7.52,37.57-21.98,21.02h0Z"/>
            <g class="cls-12">
              <path class="cls-8" d="m877.54,64.73c93.76,18.12,297.68,74.61,453.73,238.96,10.59,11.15-.67,29.1-15.32,24.44-165.56-52.75-318.44-127.35-450.75-237.39-11.79-9.81-2.71-28.92,12.35-26.01Z"/>
            </g>
            <g class="cls-12">
              <path class="cls-8" d="m339.15,389.93c62.6-14.04,208.05-37.14,357.78,6.48,8.18,2.38,7.61,14.26-.79,15.73-117.56,20.55-236.48,19.62-356.98-6.46-8.42-1.82-8.42-13.87-.01-15.75Z"/>
            </g>
            <g>
              <ellipse class="cls-10" cx="769.3" cy="1189.35" rx="92.69" ry="127.94"/>
              <ellipse class="cls-8" cx="746.96" cy="1124.33" rx="39.9" ry="27.66" transform="translate(-579.92 1372.21) rotate(-66.98)"/>
              <g class="cls-2">
                <path class="cls-8" d="m784.83,1256.39c-3.88,12.59.14,25.13,8.99,27.99s19.17-5.02,23.05-17.62c3.88-12.59-.14-25.13-8.99-27.99-8.85-2.86-19.17,5.02-23.05,17.62Z"/>
              </g>
            </g>
          </g>
        </g>
      </g>
    </g>
  </g>
</svg>