<?xml version="1.0" encoding="UTF-8"?>
<svg id="Layer_1" data-name="Layer 1" xmlns="http://www.w3.org/2000/svg" viewBox="0 0 222.94 217.08">
  <defs>
    <style>
      .cls-1 {
        fill: #f22761;
      }

      .cls-2 {
        fill: #24a7ff;
      }
    </style>
  </defs>
  <path class="cls-2" d="m217.68,113.57c-.35-.32-82.04-4.17-81.99-5.02-.04-.75,81.72-4.71,81.99-4.98,6.99-.12,7.02,10.1,0,10h0Z"/>
  <path class="cls-2" d="m87.02,108.86l-81.72,4.71c-2.76.16-5.13-1.95-5.29-4.71-.19-2.96,2.33-5.48,5.29-5.29,0,0,81.72,4.71,81.72,4.71.16,0,.28.15.27.3,0,.15-.13.26-.27.27h0Z"/>
  <path class="cls-2" d="m106.49,211.82l2.25-38.54,2.39-40.92c.01-.2.18-.35.38-.34.94-.1,4.63,79.48,4.98,79.79.12,6.99-10.11,7.03-10,0h0Z"/>
  <path class="cls-2" d="m111.49,84.78l-5-79.45c-.17-2.76,1.92-5.14,4.69-5.31,2.76-.17,5.14,1.92,5.31,4.69.08.97-5,79.18-5,80.08h0Z"/>
  <g>
    <line class="cls-1" x1="167.49" y1="163.02" x2="128.8" y2="125.4"/>
    <path class="cls-2" d="m164,166.61l-35.21-41.21,42.18,34.04c5.43,4.82-1.99,12.46-6.97,7.17h0Z"/>
  </g>
  <g>
    <line class="cls-1" x1="94.18" y1="91.75" x2="55.48" y2="54.12"/>
    <path class="cls-2" d="m94.18,91.75l-42.19-34.04c-2.16-1.74-2.5-4.9-.75-7.06,1.93-2.44,5.73-2.48,7.73-.11,0,0,35.22,41.21,35.22,41.21h0Z"/>
  </g>
  <g>
    <line class="cls-1" x1="94.18" y1="125.4" x2="55.48" y2="163.02"/>
    <path class="cls-2" d="m94.18,125.4l-35.22,41.21c-1.8,2.11-4.97,2.36-7.08.55-2.38-1.99-2.32-5.8.11-7.73,0,0,42.19-34.04,42.19-34.04h0Z"/>
  </g>
  <g>
    <line class="cls-1" x1="167.49" y1="54.12" x2="128.8" y2="91.75"/>
    <path class="cls-2" d="m170.98,57.7l-42.18,34.05,35.21-41.21c4.97-5.29,12.4,2.34,6.97,7.17h0Z"/>
  </g>
</svg>