<?xml version="1.0" encoding="UTF-8"?>
<svg id="Layer_1" data-name="Layer 1" xmlns="http://www.w3.org/2000/svg" viewBox="0 0 435.38 435.39">
  <defs>
    <style>
      .cls-1 {
        fill: #ffd400;
      }
    </style>
  </defs>
  <path class="cls-1" d="m428.13,224.73c-.43-.42-162.42-5.84-162.31-7.02-.18-1.09,162-6.59,162.31-6.99,9.63.02,9.7,13.95,0,14h0Z"/>
  <path class="cls-1" d="m169.21,218.13l-161.92,6.6c-3.87.16-7.13-2.85-7.29-6.71-.16-3.87,2.85-7.13,6.71-7.29.1-.09,162.23,6.63,162.49,6.6.22,0,.4.2.39.42,0,.21-.18.38-.39.39h0Z"/>
  <path class="cls-1" d="m210.71,428.14c.52-.54,5.57-162.53,7.02-162.4,1.35-.09,6.5,161.92,6.98,162.4-.03,9.62-13.94,9.7-14,0h0Z"/>
  <path class="cls-1" d="m217.71,169.23l-7-161.92c-.17-3.87,2.83-7.14,6.7-7.3,3.87-.17,7.14,2.83,7.3,6.7.09.36-7.03,162.06-7,162.53h0Z"/>
  <path class="cls-1" d="m323.72,333.64l-71.72-81.62,81.62,71.72c2.91,2.56,3.2,6.99.64,9.9-2.75,3.17-7.79,3.17-10.54,0h0Z"/>
  <path class="cls-1" d="m183.42,183.44l-81.64-71.74c-2.91-2.56-3.2-6.99-.64-9.9,2.56-2.91,6.99-3.2,9.9-.64,1.17,1.02,71.38,81.27,72.38,82.28h0Z"/>
  <path class="cls-1" d="m183.42,252.02l-71.74,81.62c-2.56,2.91-6.99,3.2-9.9.64-2.91-2.56-3.2-6.99-.64-9.9,1.02-1.17,81.27-71.37,82.28-72.36h0Z"/>
  <path class="cls-1" d="m333.62,111.7l-81.62,71.74,71.72-81.64c2.56-2.91,6.99-3.2,9.9-.64,3.17,2.75,3.17,7.79,0,10.54h0Z"/>
</svg>