<?xml version="1.0" encoding="UTF-8"?>
<svg id="Layer_1" data-name="Layer 1" xmlns="http://www.w3.org/2000/svg" viewBox="0 0 267.56 267.57">
  <defs>
    <style>
      .cls-1 {
        fill: #f22761;
      }
    </style>
  </defs>
  <path class="cls-1" d="m261.8,139.32c-.36-.34-98.87-4.59-98.8-5.52-.06-.81,98.51-5.19,98.8-5.48,7.65-.08,7.7,11.06,0,11h0Z"/>
  <path class="cls-1" d="m104.3,134.13l-98.5,5.18c-3.04.16-5.63-2.17-5.79-5.21-.19-3.24,2.55-5.98,5.79-5.79,0,0,98.5,5.18,98.5,5.18.17,0,.31.16.3.33,0,.16-.14.29-.3.3h0Z"/>
  <path class="cls-1" d="m128.3,261.82c.42-.46,4.37-98.95,5.52-98.87.2,0,.36.17.37.37l5.11,98.5c.07,7.65-11.05,7.69-11,0h0Z"/>
  <path class="cls-1" d="m133.8,104.32l-5.5-98.5c-.17-3.04,2.16-5.64,5.19-5.81,3.04-.17,5.64,2.16,5.81,5.19.07.5-5.5,98.55-5.5,99.11h0Z"/>
  <path class="cls-1" d="m197.41,205.2l-42.75-50.53,50.53,42.75c5.79,5.39-2.37,13.57-7.78,7.78h0Z"/>
  <path class="cls-1" d="m112.94,112.96l-50.54-42.76c-2.33-1.97-2.62-5.45-.65-7.78,2.16-2.6,6.27-2.59,8.43,0,0,0,42.76,50.54,42.76,50.54h0Z"/>
  <path class="cls-1" d="m112.94,154.68l-42.76,50.53c-1.97,2.33-5.45,2.62-7.78.65-2.6-2.16-2.59-6.27,0-8.43,0,0,50.54-42.75,50.54-42.75h0Z"/>
  <path class="cls-1" d="m205.19,70.19l-50.53,42.76,42.75-50.54c5.39-5.79,13.57,2.37,7.78,7.78h0Z"/>
</svg>