<?xml version="1.0" encoding="UTF-8"?>
<svg id="PRINT" xmlns="http://www.w3.org/2000/svg" viewBox="0 0 269.81 253.17">
  <defs>
    <style>
      .cls-1 {
        fill: #fff;
      }

      .cls-2 {
        stroke: #390176;
        stroke-miterlimit: 10;
        stroke-width: 6px;
      }

      .cls-2, .cls-3, .cls-4 {
        fill: #ffd400;
      }

      .cls-5 {
        opacity: .15;
      }

      .cls-6 {
        fill: #e1eaf8;
      }

      .cls-7 {
        fill: #390176;
      }

      .cls-4 {
        opacity: .72;
      }
    </style>
  </defs>
  <path class="cls-4" d="m78.54,94.02c0,5.95-3.75,10.77-8.39,10.77h-23.48c-4.63,0-8.39-4.82-8.39-10.77v-56c0-5.95,3.75-10.77,8.39-10.77h23.48c4.63,0,8.39,4.82,8.39,10.77v56Z"/>
  <g>
    <path class="cls-1" d="m83.01,36.7c0,3.09-2.5,5.59-5.59,5.59h-38.02c-3.09,0-5.59-2.5-5.59-5.59v-8.39c0-3.09,2.5-5.59,5.59-5.59h38.02c3.09,0,5.59,2.5,5.59,5.59v8.39Z"/>
    <path class="cls-1" d="m58.92,249.04c-11.97,0-21.68-9.71-21.68-21.68v-108.4c0-6.09,2.56-11.9,7.06-16.01L120.29,33.56c4.14-3.78,9.38-5.67,14.62-5.67s10.48,1.89,14.62,5.67l75.99,69.38c4.5,4.11,7.06,9.92,7.06,16.01v108.4c0,11.97-9.71,21.68-21.68,21.68H58.92Z"/>
    <path class="cls-1" d="m222.11,122.66v104.69c0,11.97-9.71,21.68-21.68,21.68h10.46c11.97,0,21.68-9.71,21.68-21.68v-104.69h-10.46Z"/>
  </g>
  <path class="cls-6" d="m53.52,156.63c0-6.09,2.56-11.9,7.06-16.01l75.99-69.38c4.14-3.78,9.38-5.67,14.62-5.67s10.48,1.89,14.62,5.67l66.76,60.95v-13.24c0-6.09-2.56-11.9-7.06-16.01l-75.99-69.38c-4.14-3.78-9.38-5.67-14.62-5.67s-10.48,1.89-14.62,5.67L44.3,102.94c-4.5,4.11-7.06,9.92-7.06,16.01v108.4c0,10.11,6.92,18.61,16.29,21v-91.73Z"/>
  <path class="cls-3" d="m237.42,138.95c-3.54,0-6.96-1.32-9.58-3.71l-92.94-84.86-92.94,84.86c-2.62,2.39-6.03,3.71-9.58,3.71h-14.04c-5.86,0-11.12-3.6-13.24-9.07-2.12-5.47-.66-11.67,3.66-15.62L125.33,7.84c2.71-2.47,6.14-3.71,9.57-3.71s6.86,1.24,9.58,3.71l116.55,106.42c4.33,3.95,5.78,10.16,3.66,15.62-2.12,5.47-7.38,9.07-13.24,9.07h-14.04Z"/>
  <path class="cls-1" d="m261.03,114.26L146.59,9.77c-2.17.56-4.23,1.65-5.99,3.25l-3.16,2.88,107.42,98.07c4.33,3.95,5.78,10.16,3.66,15.62-2.12,5.47-7.38,9.07-13.24,9.07h-.64c.91.18,1.83.28,2.77.28h14.04c5.86,0,11.12-3.6,13.24-9.07,2.12-5.47.66-11.67-3.66-15.62Z"/>
  <path class="cls-5" d="m20.38,135.06c-2.12-5.47-.66-11.67,3.66-15.62L140.6,13.03c1.76-1.61,3.82-2.69,5.99-3.25l-2.11-1.93c-2.71-2.47-6.14-3.71-9.58-3.71s-6.86,1.24-9.58,3.71L8.77,114.26c-4.33,3.95-5.78,10.16-3.66,15.62,2.12,5.47,7.38,9.07,13.24,9.07h4.31c-.94-1.15-1.72-2.45-2.28-3.88Z"/>
  <path class="cls-7" d="m263.81,111.21L147.26,4.79c-3.38-3.09-7.77-4.79-12.36-4.79s-8.97,1.7-12.36,4.79l-35.42,32.34c0-.14.02-.29.02-.43v-8.39c0-5.36-4.36-9.72-9.72-9.72h-38.02c-5.36,0-9.72,4.36-9.72,9.72v8.39c0,3.43,1.79,6.44,4.47,8.17v40.62l-28.17,25.72c-5.63,5.14-7.49,13.05-4.73,20.16,2.72,7,9.58,11.7,17.09,11.7h14.04c.24,0,.48,0,.72-.02v84.3c0,14.23,11.58,25.81,25.81,25.81h151.97c14.23,0,25.81-11.58,25.81-25.81v-84.3c.24,0,.48.02.72.02h14.04c7.51,0,14.38-4.7,17.09-11.7,2.76-7.11.9-15.02-4.73-20.17ZM42.42,46.42h31.99v2.32l-31.99,29.21v-31.53Zm-4.47-18.11c0-.8.66-1.46,1.46-1.46h38.02c.81,0,1.46.66,1.46,1.46v8.39c0,.81-.65,1.46-1.46,1.46h-38.02c-.8,0-1.46-.65-1.46-1.46v-8.39Zm190.5,199.04c0,9.68-7.87,17.55-17.55,17.55H58.92c-9.68,0-17.55-7.88-17.55-17.55v-86.63c1.21-.68,2.34-1.5,3.38-2.45l90.15-82.31,90.15,82.31c1.04.95,2.18,1.77,3.39,2.45v86.63Zm32.41-98.97c-1.49,3.85-5.27,6.43-9.39,6.43h-14.04c-2.52,0-4.93-.94-6.79-2.63l-95.72-87.4-95.72,87.4c-1.86,1.7-4.27,2.63-6.79,2.63h-14.04c-4.13,0-7.9-2.58-9.39-6.43-1.51-3.9-.49-8.25,2.6-11.08L128.11,10.89c1.86-1.7,4.27-2.63,6.79-2.63s4.93.93,6.79,2.63l116.55,106.42c3.09,2.83,4.11,7.18,2.6,11.08Z"/>
  <path class="cls-2" d="m120.84,164.42h27.36c6.66,0,12.07,5.41,12.07,12.07v70.42h-51.51v-70.42c0-6.66,5.41-12.07,12.07-12.07Z"/>
</svg>