<?xml version="1.0" encoding="UTF-8"?>
<svg id="Layer_1" data-name="Layer 1" xmlns="http://www.w3.org/2000/svg" viewBox="0 0 1099.33 266.33">
  <defs>
    <style>
      .cls-1, .cls-2 {
        fill: #ffbbba;
      }

      .cls-3 {
        stroke: #fe7062;
      }

      .cls-3, .cls-4, .cls-5, .cls-6, .cls-7, .cls-8, .cls-2, .cls-9, .cls-10, .cls-11, .cls-12 {
        fill-rule: evenodd;
      }

      .cls-3, .cls-13 {
        fill: #fe7062;
      }

      .cls-3, .cls-7, .cls-2, .cls-10, .cls-11 {
        stroke-miterlimit: 8;
        stroke-width: 1.33px;
      }

      .cls-4 {
        fill: #fff;
      }

      .cls-5 {
        fill: rgba(255, 187, 186, .1);
      }

      .cls-6 {
        fill: rgba(72, 75, 242, .1);
      }

      .cls-14, .cls-10 {
        fill: #1a0f91;
      }

      .cls-7 {
        stroke: #484bf2;
      }

      .cls-7, .cls-15 {
        fill: #484bf2;
      }

      .cls-8 {
        fill: rgba(26, 15, 145, .1);
      }

      .cls-2 {
        stroke: #ffbbba;
      }

      .cls-16, .cls-11 {
        fill: #91b3fa;
      }

      .cls-9 {
        fill: rgba(254, 112, 98, .1);
      }

      .cls-10 {
        stroke: #1a0f91;
      }

      .cls-11 {
        stroke: #91b3fa;
      }

      .cls-12 {
        fill: rgba(145, 179, 250, .1);
      }
    </style>
  </defs>
  <path class="cls-8" d="m265.17,132.57c.05,73.18-59.23,132.54-132.41,132.59C59.58,265.22.22,205.94.17,132.76c0-.03,0-.06,0-.09h57.08c0,41.65,33.77,75.42,75.42,75.42,41.65,0,75.42-33.77,75.42-75.42v-.05l57.08-.04Z"/>
  <path class="cls-6" d="m208.17,132.67C208.17,59.49,267.49.17,340.67.17s132.5,59.32,132.5,132.5h-57.08c0-41.66-33.77-75.42-75.42-75.43-41.66,0-75.42,33.77-75.42,75.43h-57.08Z"/>
  <path class="cls-12" d="m681.17,132.57c.05,73.18-59.23,132.54-132.41,132.59-73.18.05-132.54-59.23-132.59-132.41v-.09h57.08c0,41.65,33.77,75.42,75.42,75.42,41.65,0,75.42-33.77,75.42-75.42v-.05l57.08-.04Z"/>
  <path class="cls-5" d="m625.17,132.67C625.17,59.49,684.49.17,757.67.17s132.5,59.32,132.5,132.5h-57.08c0-41.66-33.77-75.42-75.42-75.43-41.66,0-75.42,33.77-75.42,75.43h-57.08Z"/>
  <path class="cls-10" d="m.67,133.17C.67,59.99,59.99.67,133.17.67s132.5,59.32,132.5,132.5h-57.08c0-41.66-33.77-75.42-75.42-75.42-41.66,0-75.42,33.77-75.42,75.42H.67Z"/>
  <path class="cls-7" d="m473.67,133.07c.05,73.18-59.23,132.54-132.41,132.59-73.18.05-132.54-59.23-132.59-132.41v-.09h57.08c0,41.65,33.77,75.42,75.42,75.42,41.65,0,75.42-33.77,75.42-75.42v-.05l57.08-.04Z"/>
  <path class="cls-11" d="m416.67,133.17C416.67,59.99,475.99.67,549.17.67s132.5,59.32,132.5,132.5h-57.08c0-41.66-33.77-75.42-75.42-75.42-41.66,0-75.42,33.77-75.42,75.42h-57.08Z"/>
  <path class="cls-4" d="m468.04,70.91l3.72,2.74,1.49-2.02c.56-.76.82-1.46.77-2.07-.05-.62-.36-1.14-.95-1.57-.59-.44-1.19-.59-1.79-.45-.6.14-1.19.59-1.75,1.35l-1.49,2.02Zm-3.85.99l3.41-4.64c.71-.96,1.47-1.67,2.29-2.13.82-.46,1.66-.67,2.52-.62.86.05,1.69.37,2.5.97.8.59,1.35,1.28,1.65,2.09.3.81.36,1.67.16,2.59-.2.92-.65,1.86-1.36,2.82l-1.59,2.16,2.95,2.18-1.83,2.48-10.71-7.89Z"/>
  <path class="cls-4" d="m482.51,63.57c-.48.5-.73.93-.75,1.27-.01.35.1.64.35.87.27.26.59.36.96.3.37-.06.73-.28,1.09-.65.34-.36.57-.76.67-1.2.1-.44.05-.89-.15-1.33l-.75-.72-1.41,1.47Zm-4.35-4.28c1.08-1.12,2.18-1.74,3.31-1.85,1.13-.11,2.25.37,3.38,1.45l4.21,4.04-1.92,2-.98-.94.13.39c.04.32.03.63-.04.96-.15.65-.53,1.3-1.16,1.94-.55.58-1.12.98-1.72,1.2s-1.16.28-1.71.17c-.55-.1-1.03-.36-1.45-.76-.44-.42-.72-.9-.84-1.43-.12-.53-.05-1.12.21-1.76.26-.65.75-1.34,1.47-2.09l1.63-1.7c-.46-.44-.95-.64-1.47-.61-.52.03-1.06.34-1.61.91-.38.39-.69.84-.93,1.33-.24.5-.38.98-.43,1.45l-2.23-.67c.1-.67.35-1.37.74-2.09.39-.71.86-1.36,1.43-1.95Z"/>
  <path class="cls-4" d="m488.79,49.54l1.77,2.08c-.11.07-.2.14-.28.2-.08.06-.17.13-.25.2-.62.52-.97,1.13-1.05,1.8-.08.68.19,1.39.82,2.13l3.13,3.68-2.26,1.92-6.62-7.79,2.16-1.83.91,1.08-.05-.36c0-.37.08-.73.21-1.09.27-.72.77-1.39,1.51-2.01Z"/>
  <path class="cls-4" d="m495.8,47.24c-.42.29-.72.63-.92,1.03-.19.4-.27.83-.22,1.28l.33.82,4.01-2.75-.66-.6c-.4-.2-.82-.29-1.26-.26-.44.03-.87.19-1.29.48Zm-1.28-1.84c.83-.57,1.69-.9,2.59-1.01.9-.11,1.77.04,2.61.42.84.39,1.56,1.04,2.19,1.94.06.09.13.21.21.33.07.13.14.25.2.36l-6.29,4.32.58.51c.44.21.91.28,1.41.21.5-.07.99-.28,1.5-.62.45-.31.8-.65,1.04-1.02.25-.37.42-.79.51-1.25l2.27.52c-.09.7-.34,1.37-.76,2.01-.42.64-1.02,1.22-1.78,1.74-.96.66-1.93,1.05-2.92,1.17s-1.9,0-2.74-.39c-.85-.38-1.55-.99-2.13-1.82-.58-.85-.9-1.73-.96-2.65-.06-.92.13-1.8.55-2.64.42-.84,1.06-1.55,1.92-2.14Z"/>
  <path class="cls-4" d="m506.78,38.19c.72-.37,1.44-.56,2.16-.56.72,0,1.39.21,2.02.63s1.18,1.1,1.66,2.02l2.67,5.21-2.64,1.35-2.46-4.8c-.38-.73-.81-1.19-1.31-1.38-.5-.18-1.04-.13-1.63.17-.42.21-.75.49-.99.84-.24.35-.36.75-.37,1.2,0,.46.14.97.43,1.53l2.3,4.5-2.64,1.35-4.66-9.1,2.52-1.29.57,1.12.04-.23c.11-.35.28-.69.5-1.01.44-.64,1.05-1.16,1.83-1.56Z"/>
  <path class="cls-4" d="m513.07,33.01l2.77-1.05.89,2.33,2.38-.91.81,2.13-2.38.91,1.48,3.89c.15.4.38.67.67.81.3.14.63.14.99,0,.44-.17.77-.43.98-.78l1.49,1.67c-.21.31-.49.59-.85.84-.36.25-.75.46-1.18.62-1.12.43-2.11.47-2.96.14-.85-.34-1.48-1.07-1.92-2.21l-1.49-3.93-1.47.56-.81-2.13,1.47-.56-.89-2.33Z"/>
  <path class="cls-4" d="m525.62,31.02c.67-.18,1.38-.3,2.11-.35.74-.05,1.38,0,1.92.16l-.39,2.3c-.55-.15-1.09-.21-1.6-.18-.51.03-.99.11-1.44.23-.63.18-1.08.39-1.32.64-.24.25-.33.51-.26.78.07.24.22.4.47.46.25.06.56.08.93.06.37-.03.78-.07,1.22-.13.44-.06.88-.1,1.34-.1.46,0,.89.04,1.29.15.4.11.76.3,1.08.59.32.29.55.71.71,1.27.17.61.13,1.2-.1,1.77-.24.57-.66,1.09-1.28,1.55-.61.46-1.42.82-2.41,1.1-.84.23-1.68.36-2.51.37-.83.01-1.51-.07-2.05-.25l.39-2.31c.53.16,1.13.24,1.79.24.66,0,1.3-.07,1.9-.24.66-.18,1.1-.39,1.34-.62.23-.24.31-.49.23-.77-.06-.23-.22-.38-.46-.43-.25-.06-.55-.07-.93-.03-.37.04-.77.08-1.21.14-.44.05-.89.09-1.34.1-.46.01-.89-.03-1.3-.14-.41-.11-.77-.31-1.09-.61-.31-.29-.54-.72-.7-1.29-.17-.62-.14-1.22.09-1.8.23-.58.65-1.1,1.25-1.56.61-.46,1.39-.83,2.34-1.09Z"/>
  <path class="cls-4" d="m532.2,25.52c.52-.1.98-.02,1.38.24.4.26.65.66.76,1.2.03.16.05.32.07.48.01.16,0,.35-.02.58-.03.23-.08.53-.16.9l-.56,2.9-1.85.36.25-3.23-.55-.09c-.4-.25-.66-.65-.76-1.2-.11-.54-.02-1,.27-1.4.28-.4.68-.65,1.19-.74Z"/>
  <path class="cls-4" d="m541.7,27.79l2.79-.06,2.55,6.88,2.37-6.97,2.51-.05,2.58,6.88,2.34-6.97,2.62-.05-3.5,10.29-2.87.06-2.42-6.3-2.24,6.4-2.85.06-3.89-10.15Z"/>
  <path class="cls-4" d="m566.16,30.79c-.49-.07-.94-.01-1.36.16-.42.17-.77.45-1.06.84-.29.38-.47.87-.55,1.46-.08.58-.03,1.09.15,1.54.18.45.44.82.8,1.1s.78.45,1.27.52c.49.06.94.01,1.36-.16.42-.17.77-.46,1.05-.85.28-.39.46-.87.54-1.45.08-.59.03-1.11-.14-1.55-.17-.44-.43-.81-.79-1.08s-.78-.45-1.27-.51Zm.32-2.41c1.07.14,1.99.49,2.77,1.05.78.56,1.36,1.26,1.73,2.1.37.84.49,1.78.35,2.81-.14,1-.49,1.87-1.08,2.59-.58.72-1.32,1.25-2.23,1.59-.9.34-1.89.44-2.95.29-1.08-.14-2.01-.5-2.78-1.06-.78-.56-1.35-1.27-1.73-2.12-.38-.85-.5-1.78-.37-2.78.14-1.02.5-1.88,1.09-2.6.59-.72,1.33-1.25,2.22-1.58.89-.33,1.88-.43,2.96-.28Z"/>
  <path class="cls-4" d="m580.56,31.23l-.65,2.66c-.12-.04-.23-.08-.33-.11-.1-.03-.2-.06-.31-.09-.79-.19-1.48-.12-2.07.21-.6.33-1.01.97-1.24,1.92l-1.14,4.69-2.88-.7,2.41-9.93,2.75.67-.33,1.37.26-.26c.3-.21.64-.36,1.01-.47.74-.21,1.58-.19,2.51.03Z"/>
  <path class="cls-4" d="m584.13,28.36l2.79,1-2.7,7.51,5.47-2.4,3.33,1.19-5.47,2.64,2.37,7.11-3.38-1.21-1.68-4.86-1.82.84-.88,2.44-2.79-1,4.76-13.27Z"/>
  <path class="cls-4" d="m598.72,38.34c.62.31,1.22.69,1.8,1.15.58.46,1.02.92,1.32,1.4l-1.82,1.45c-.31-.48-.67-.88-1.07-1.2-.4-.32-.81-.58-1.23-.79-.59-.29-1.06-.43-1.41-.4-.35.02-.59.16-.71.41-.11.23-.1.45.04.66.14.21.36.43.66.66.29.23.63.47.99.72.37.24.72.52,1.07.82.35.3.64.62.86.97.23.35.37.73.41,1.16.04.43-.06.9-.32,1.42-.28.57-.7.99-1.26,1.25-.56.27-1.22.37-1.98.3-.77-.07-1.61-.33-2.53-.79-.78-.39-1.49-.86-2.12-1.4-.63-.54-1.08-1.06-1.36-1.56l1.83-1.47c.29.47.68.93,1.17,1.38.49.45,1.02.81,1.57,1.09.61.3,1.08.45,1.41.43.33-.02.56-.16.69-.42.11-.21.09-.43-.06-.63-.15-.21-.37-.42-.67-.64-.3-.22-.63-.46-1-.71-.36-.25-.72-.52-1.07-.82-.35-.29-.64-.62-.87-.97-.23-.36-.37-.75-.4-1.18-.04-.43.08-.9.34-1.42.29-.58.71-1.01,1.26-1.28.55-.28,1.21-.39,1.97-.32.76.06,1.59.31,2.47.75Z"/>
  <path class="cls-4" d="m606.68,38.29l2.48,1.62-2.71,4.15h0c.36-.08.74-.1,1.13-.07.77.07,1.53.34,2.26.82.68.44,1.2.98,1.56,1.6.36.62.51,1.31.45,2.07-.06.76-.37,1.57-.94,2.44l-3.2,4.9-2.48-1.62,2.95-4.52c.45-.69.63-1.3.54-1.82-.09-.53-.41-.97-.96-1.33-.39-.26-.8-.4-1.22-.44-.42-.04-.83.05-1.23.28-.4.22-.77.6-1.11,1.13l-2.76,4.23-2.48-1.62,7.71-11.8Z"/>
  <path class="cls-4" d="m618.11,54.15c-.38-.32-.79-.52-1.23-.61-.45-.08-.89-.04-1.34.12-.45.16-.87.47-1.26.93-.38.44-.62.9-.72,1.38-.1.48-.07.93.08,1.35.15.43.41.8.79,1.13.38.32.79.52,1.23.61.45.08.9.04,1.34-.14.45-.17.86-.48,1.24-.93.39-.45.63-.91.73-1.38s.07-.91-.08-1.34c-.15-.43-.41-.8-.79-1.12Zm1.58-1.85c.82.7,1.4,1.5,1.75,2.39.35.89.46,1.8.31,2.7-.15.91-.56,1.76-1.23,2.55-.66.77-1.43,1.3-2.31,1.59-.88.29-1.79.33-2.73.12-.94-.21-1.82-.66-2.64-1.36-.83-.71-1.41-1.51-1.75-2.4-.34-.9-.44-1.8-.3-2.72.15-.92.55-1.76,1.21-2.53.67-.78,1.45-1.31,2.33-1.59.89-.28,1.79-.32,2.73-.11s1.81.66,2.64,1.37Z"/>
  <path class="cls-4" d="m627.67,63.55c-.33-.37-.71-.62-1.14-.76-.43-.14-.88-.15-1.34-.04-.46.11-.92.36-1.36.76-.43.39-.73.81-.89,1.26-.16.45-.2.9-.1,1.35.09.44.3.85.64,1.22.33.37.71.62,1.14.75.43.13.88.15,1.35.04.47-.11.92-.36,1.36-.75.44-.4.74-.82.9-1.28.16-.45.19-.9.1-1.34-.09-.44-.3-.84-.63-1.21Zm2.15-1.24c.64.72,1.06,1.51,1.25,2.37.19.86.14,1.72-.14,2.58-.28.86-.82,1.64-1.61,2.36-.8.72-1.64,1.18-2.53,1.37-.89.19-1.74.15-2.58-.14-.83-.28-1.57-.78-2.22-1.5-.58-.64-.94-1.33-1.09-2.06l-.04-1.06-3.56,3.2-1.98-2.2,10.34-9.3,1.89,2.11-.89.8h.07c.38-.02.75.03,1.11.14.71.23,1.37.67,1.97,1.34Z"/>
  <path class="cls-4" d="m636.99,71.41c.4.57.75,1.19,1.04,1.87.29.68.46,1.3.5,1.86l-2.29.41c-.05-.57-.17-1.09-.37-1.56-.2-.47-.44-.9-.71-1.28-.38-.54-.73-.88-1.05-1.03-.32-.15-.59-.14-.82.02-.21.15-.3.35-.27.6.02.25.11.55.26.9.15.34.33.71.53,1.1.21.39.39.8.55,1.23.16.43.26.85.3,1.26.04.42-.03.82-.19,1.21-.16.39-.48.76-.96,1.1-.52.37-1.09.53-1.7.5-.62-.03-1.25-.25-1.89-.68-.64-.42-1.26-1.05-1.85-1.89-.5-.71-.9-1.46-1.2-2.24-.29-.78-.45-1.45-.46-2.01l2.31-.42c.03.55.16,1.14.38,1.77.22.63.51,1.2.87,1.7.39.56.74.91,1.04,1.04s.57.12.8-.05c.2-.14.28-.33.25-.58-.03-.25-.12-.54-.28-.88-.16-.34-.34-.7-.54-1.1-.2-.39-.38-.8-.55-1.23-.17-.42-.27-.85-.31-1.27-.04-.42.03-.83.21-1.23.17-.39.5-.76.97-1.09.53-.37,1.1-.55,1.72-.53.62.02,1.25.24,1.89.65.64.42,1.25,1.03,1.82,1.83Z"/>
  <path class="cls-4" d="m51.19,58.72c.54-.64,1.15-1.2,1.82-1.69.67-.49,1.36-.85,2.06-1.07l1.17,2.24c-.67.24-1.27.55-1.81.91-.53.36-.99.77-1.38,1.23-.39.45-.65.87-.79,1.25-.14.38-.18.7-.12.97s.21.5.43.69c.26.22.56.29.9.22.34-.08.71-.25,1.1-.51.39-.27.81-.57,1.27-.91.45-.34.92-.66,1.4-.98.48-.31.98-.55,1.48-.72.51-.17,1.03-.21,1.56-.13.53.08,1.06.34,1.6.79.57.48.96,1.09,1.16,1.81.2.72.18,1.52-.07,2.4-.25.88-.78,1.8-1.6,2.77-.69.81-1.46,1.5-2.3,2.06-.85.56-1.64.92-2.37,1.08l-1.09-2.3c.68-.17,1.37-.47,2.07-.9.7-.43,1.31-.94,1.83-1.55.39-.46.66-.88.81-1.24.15-.36.2-.68.15-.96-.05-.27-.18-.5-.39-.68-.27-.23-.58-.31-.92-.23-.34.08-.71.25-1.1.51-.4.26-.82.56-1.27.91-.45.34-.92.67-1.41.97-.49.31-.99.54-1.5.71-.51.17-1.03.21-1.56.13s-1.07-.35-1.61-.8c-.58-.49-.98-1.1-1.19-1.82-.21-.72-.19-1.52.06-2.39.25-.87.78-1.79,1.59-2.75Z"/>
  <path class="cls-4" d="m62.32,51.73c.79-.73,1.63-1.21,2.52-1.42.89-.21,1.76-.15,2.61.21l-.84,2.47c-.52-.17-1.01-.21-1.46-.1-.45.1-.84.32-1.19.64-.37.35-.63.74-.77,1.18-.14.44-.16.9-.04,1.36.11.47.37.92.78,1.35.41.44.84.73,1.29.87.46.15.91.17,1.36.06.45-.11.86-.34,1.23-.68.34-.32.59-.7.73-1.13.14-.43.14-.92,0-1.47l2.54-.65c.28.86.28,1.73,0,2.6-.28.87-.81,1.68-1.6,2.41-.81.75-1.68,1.26-2.62,1.51-.94.26-1.86.26-2.76,0s-1.7-.75-2.39-1.49c-.7-.75-1.14-1.58-1.32-2.49-.18-.91-.11-1.83.21-2.74.32-.92.89-1.75,1.7-2.5Z"/>
  <path class="cls-4" d="m65.32,44.12l2.4-1.74,2.9,4.01h0c.06-.37.17-.73.34-1.08.34-.7.86-1.3,1.57-1.82.66-.48,1.34-.77,2.05-.88.71-.11,1.4,0,2.09.32.69.32,1.33.91,1.94,1.75l3.43,4.74-2.4,1.74-3.16-4.37c-.48-.67-.99-1.05-1.51-1.16-.52-.11-1.05.03-1.58.42-.38.27-.66.6-.85.98-.19.38-.25.79-.18,1.24.07.45.29.93.66,1.45l2.96,4.1-2.4,1.74-8.26-11.43Z"/>
  <path class="cls-4" d="m84.22,39.13c-.44.24-.77.55-1.01.93-.24.39-.36.82-.37,1.3,0,.48.13.98.41,1.5.28.51.62.9,1.03,1.16.41.26.84.4,1.29.41.45.01.9-.1,1.33-.33.43-.24.77-.55,1.01-.93.24-.39.35-.82.35-1.3,0-.48-.14-.98-.42-1.49-.28-.52-.62-.92-1.02-1.17-.4-.26-.83-.39-1.28-.41-.45-.01-.9.1-1.33.33Zm-1.16-2.14c.95-.51,1.9-.77,2.86-.78.96,0,1.84.22,2.64.68.8.46,1.44,1.15,1.94,2.06.48.89.7,1.8.65,2.72-.05.93-.33,1.79-.86,2.6-.53.8-1.27,1.46-2.22,1.98-.96.52-1.92.78-2.87.78-.96,0-1.84-.23-2.64-.7-.81-.46-1.45-1.14-1.93-2.03-.49-.9-.71-1.82-.65-2.75.05-.93.34-1.79.87-2.59s1.27-1.45,2.23-1.97Z"/>
  <path class="cls-4" d="m95.78,33.81c-.46.18-.83.44-1.12.8-.28.35-.46.77-.53,1.24-.07.48,0,.99.22,1.54.21.54.5.97.87,1.28.37.31.78.5,1.23.57.45.07.9.02,1.36-.16.46-.18.83-.44,1.12-.8.28-.35.46-.77.51-1.25.06-.48-.02-.99-.23-1.53-.21-.56-.5-.99-.87-1.29-.36-.31-.77-.5-1.22-.57-.45-.07-.9-.02-1.36.16Zm-.88-2.27c1-.39,1.98-.53,2.94-.41.95.11,1.8.45,2.53,1.01.73.56,1.29,1.32,1.66,2.29.36.95.47,1.87.3,2.79-.16.91-.56,1.73-1.18,2.46-.63.73-1.44,1.29-2.45,1.68-1.02.39-2,.53-2.95.41-.95-.12-1.8-.46-2.54-1.03-.74-.56-1.29-1.32-1.66-2.26-.37-.96-.47-1.89-.3-2.81.17-.91.56-1.73,1.19-2.46.62-.72,1.44-1.28,2.46-1.68Z"/>
  <path class="cls-4" d="m101.42,25.38l2.85-.81,3.83,13.57-2.85.81-3.84-13.57Z"/>
  <path class="cls-4" d="m112.97,26.2l2.78-.27,3.07,6.66,1.82-7.14,2.5-.25,3.1,6.65,1.79-7.13,2.61-.26-2.69,10.54-2.86.28-2.9-6.1-1.73,6.55-2.84.28-4.67-9.81Z"/>
  <path class="cls-4" d="m137.66,27.3c-.49-.03-.94.06-1.35.27-.4.21-.74.51-.99.91-.26.4-.4.9-.44,1.5-.03.58.06,1.09.26,1.53.21.44.51.78.88,1.03s.82.39,1.31.42c.49.03.94-.06,1.35-.27.4-.21.73-.51.99-.92.25-.41.39-.91.43-1.49.03-.59-.05-1.11-.26-1.54-.2-.43-.5-.77-.88-1.02s-.82-.39-1.31-.42Zm.14-2.43c1.07.06,2.02.34,2.85.84.82.5,1.45,1.15,1.89,1.96.44.81.62,1.74.57,2.77-.06,1.01-.35,1.9-.87,2.66-.53.76-1.22,1.35-2.1,1.76s-1.85.58-2.92.52c-1.09-.06-2.04-.34-2.85-.85-.82-.5-1.44-1.16-1.89-1.98s-.63-1.73-.58-2.74c.06-1.02.35-1.92.88-2.68s1.23-1.35,2.1-1.75c.87-.4,1.84-.57,2.93-.51Z"/>
  <path class="cls-4" d="m151.98,26.61l-.43,2.7c-.12-.03-.23-.06-.33-.08-.1-.02-.21-.04-.32-.06-.8-.13-1.48,0-2.05.37-.57.38-.93,1.05-1.08,2.01l-.77,4.76-2.93-.47,1.63-10.09,2.79.45-.23,1.39.24-.28c.28-.23.61-.41.97-.54.72-.26,1.56-.32,2.51-.16Z"/>
  <path class="cls-4" d="m155.31,23.47l2.86.78-2.1,7.7,5.26-2.82,3.41.93-5.25,3.06,2.93,6.91-3.46-.94-2.06-4.71-1.75.98-.68,2.5-2.86-.78,3.71-13.6Z"/>
  <path class="cls-4" d="m170.64,32.27c.65.26,1.28.6,1.89,1.01.61.41,1.09.84,1.43,1.29l-1.7,1.59c-.35-.45-.74-.83-1.16-1.11-.42-.29-.85-.52-1.29-.69-.61-.24-1.09-.34-1.44-.29-.35.05-.57.21-.68.46-.09.24-.06.45.1.65s.39.4.71.61c.31.21.66.42,1.05.63.38.22.76.46,1.13.73.37.27.68.57.94.9.26.33.42.7.5,1.12.08.42,0,.9-.21,1.44-.24.59-.62,1.04-1.16,1.35-.54.31-1.19.46-1.95.45-.77,0-1.63-.2-2.58-.59-.81-.32-1.55-.74-2.22-1.23-.67-.49-1.16-.97-1.48-1.44l1.71-1.61c.33.44.75.87,1.28,1.28.52.41,1.07.73,1.65.96.63.26,1.11.36,1.44.31.33-.05.54-.2.65-.47.09-.22.06-.43-.11-.63-.16-.19-.4-.39-.72-.58-.32-.2-.67-.4-1.05-.63-.38-.22-.76-.47-1.13-.73-.37-.26-.69-.57-.95-.9-.26-.34-.42-.72-.49-1.14-.07-.42,0-.91.22-1.45.24-.6.63-1.06,1.16-1.38.53-.32,1.18-.48,1.94-.48s1.6.18,2.52.55Z"/>
  <path class="cls-4" d="m178.57,31.61l2.6,1.42-2.38,4.34h0c.36-.11.73-.16,1.12-.15.78,0,1.55.22,2.32.64.71.39,1.27.88,1.68,1.47.41.59.61,1.26.61,2.03,0,.76-.24,1.6-.74,2.51l-2.81,5.13-2.6-1.42,2.59-4.73c.39-.72.53-1.34.4-1.86-.13-.52-.48-.93-1.06-1.25-.41-.23-.83-.34-1.25-.35s-.82.12-1.2.37c-.38.26-.72.66-1.02,1.22l-2.43,4.43-2.6-1.42,6.77-12.37Z"/>
  <path class="cls-4" d="m191.21,46.53c-.4-.29-.82-.46-1.28-.51-.45-.05-.9.03-1.33.23-.44.2-.83.54-1.18,1.02-.34.47-.55.95-.61,1.43-.06.48,0,.93.18,1.35.18.42.47.77.87,1.06.4.29.82.46,1.28.51.45.05.89-.03,1.33-.24.43-.21.82-.55,1.17-1.02.35-.48.56-.96.62-1.43.06-.47,0-.92-.18-1.33-.18-.42-.47-.77-.87-1.06Zm1.43-1.96c.87.63,1.51,1.38,1.93,2.25.42.86.59,1.75.52,2.67-.07.92-.42,1.8-1.03,2.64-.6.82-1.32,1.4-2.18,1.76-.85.35-1.76.47-2.71.33-.95-.13-1.87-.52-2.74-1.15-.88-.64-1.52-1.4-1.94-2.26-.41-.87-.58-1.76-.51-2.69s.41-1.8,1.01-2.62c.61-.83,1.34-1.42,2.2-1.77.86-.35,1.76-.46,2.71-.33.95.13,1.86.52,2.74,1.16Z"/>
  <path class="cls-4" d="m201.47,55.15c-.36-.34-.76-.56-1.2-.67-.44-.11-.89-.09-1.34.06s-.88.43-1.29.87c-.4.42-.67.87-.79,1.33-.13.46-.13.91,0,1.35.13.44.37.82.73,1.16.36.34.76.56,1.19.66.44.1.89.08,1.35-.07.46-.15.89-.43,1.3-.85.41-.43.68-.88.79-1.34.12-.46.12-.91,0-1.34-.12-.43-.36-.82-.72-1.16Zm2.05-1.41c.7.66,1.17,1.42,1.43,2.26.25.85.27,1.71.06,2.59-.22.88-.69,1.7-1.42,2.48-.74.78-1.55,1.3-2.41,1.56s-1.73.28-2.58.06c-.85-.22-1.63-.66-2.32-1.32-.62-.59-1.04-1.25-1.24-1.97l-.12-1.06-3.3,3.47-2.15-2.04,9.59-10.08,2.05,1.95-.82.87.07-.02c.38-.04.75-.01,1.11.07.73.17,1.42.56,2.07,1.18Z"/>
  <path class="cls-4" d="m211.37,62.27c.45.54.84,1.13,1.18,1.78.34.65.56,1.26.64,1.81l-2.25.59c-.09-.57-.25-1.08-.49-1.53-.24-.45-.51-.86-.8-1.22-.42-.51-.8-.82-1.13-.94-.33-.12-.6-.09-.82.09-.2.16-.27.37-.23.62.04.25.15.54.33.87.18.33.38.68.62,1.06.24.37.45.77.65,1.18.2.41.33.83.4,1.24.07.41.04.82-.09,1.23-.13.41-.42.8-.87,1.17-.49.4-1.04.62-1.66.63-.62.02-1.26-.16-1.93-.53-.67-.37-1.34-.95-1.99-1.74-.56-.67-1.01-1.38-1.37-2.14-.35-.75-.56-1.41-.61-1.97l2.27-.6c.08.55.25,1.12.51,1.73.27.61.6,1.15,1,1.63.44.53.81.85,1.12.96.31.11.57.08.8-.11.18-.15.25-.35.2-.6-.05-.25-.17-.53-.35-.86-.19-.32-.39-.67-.62-1.05-.23-.38-.45-.77-.65-1.18-.2-.41-.34-.82-.4-1.24-.07-.42-.03-.83.11-1.24.14-.41.44-.79.88-1.17.5-.41,1.06-.63,1.67-.66.62-.03,1.26.14,1.94.5.67.36,1.32.93,1.96,1.69Z"/>
  <path class="cls-3" d="m832.67,133.17C832.67,59.99,892.21.67,965.67.67s133,59.32,133,132.5h-57.08c0-41.66-33.99-75.42-75.92-75.42s-75.92,33.77-75.92,75.42h-57.08Z"/>
  <path class="cls-4" d="m876.23,71.13l6.75-9.42,2.04,1.46-2.48,3.46,8.77,6.29-1.79,2.5-8.77-6.29-2.48,3.46-2.04-1.46Z"/>
  <path class="cls-4" d="m891.55,59.91c-.34.37-.56.78-.66,1.21-.1.43-.07.87.08,1.29l.5.73,3.29-3.58-.78-.44c-.43-.11-.86-.1-1.28.03-.42.13-.8.38-1.14.75Zm-1.66-1.5c.68-.74,1.44-1.26,2.3-1.56.86-.3,1.73-.36,2.64-.17s1.76.66,2.57,1.4c.08.08.18.17.27.28.1.11.19.21.28.3l-5.16,5.62.68.37c.48.1.95.07,1.42-.12.47-.18.91-.49,1.32-.94.37-.4.63-.81.79-1.22.16-.41.23-.86.22-1.33h2.33c.08.7-.02,1.41-.29,2.12-.27.72-.72,1.41-1.34,2.1-.79.86-1.65,1.46-2.58,1.8-.93.34-1.85.42-2.76.24-.91-.18-1.74-.62-2.48-1.3-.75-.69-1.26-1.48-1.53-2.37-.26-.89-.28-1.78-.05-2.69.23-.91.69-1.75,1.39-2.51Z"/>
  <path class="cls-4" d="m902.49,54.7c-.53.45-.82.85-.87,1.19-.05.34.04.64.26.9.25.29.55.42.92.4.37-.02.75-.21,1.15-.54.38-.32.64-.7.78-1.13.15-.43.14-.88-.02-1.34l-.68-.79-1.55,1.32Zm-3.9-4.69c1.18-1.01,2.34-1.52,3.48-1.52,1.13,0,2.2.59,3.22,1.77l3.79,4.43-2.11,1.8-.88-1.03.09.4c.01.32-.03.63-.14.95-.21.63-.66,1.24-1.34,1.82-.61.52-1.22.86-1.83,1.02s-1.18.16-1.72,0c-.54-.16-.99-.46-1.37-.9-.39-.46-.63-.96-.7-1.5-.07-.54.06-1.12.38-1.74.32-.62.88-1.26,1.67-1.94l1.79-1.53c-.41-.48-.88-.73-1.4-.75-.52-.02-1.09.23-1.7.75-.41.35-.77.77-1.05,1.24-.29.47-.48.94-.57,1.4l-2.15-.88c.17-.66.48-1.33.94-2,.46-.67.99-1.27,1.61-1.8Z"/>
  <path class="cls-4" d="m909.06,42.11c.9-.6,1.8-.93,2.71-1,.91-.07,1.76.14,2.54.62l-1.22,2.3c-.49-.25-.96-.36-1.42-.33-.46.03-.88.18-1.27.44-.42.28-.74.63-.95,1.05-.21.41-.29.86-.26,1.34.04.48.22.96.55,1.46.33.49.71.85,1.14,1.07.43.22.87.31,1.34.27.46-.04.91-.19,1.33-.48.39-.26.69-.6.9-1,.21-.41.28-.89.23-1.45l2.61-.24c.14.89,0,1.75-.4,2.57-.41.82-1.07,1.53-1.96,2.12-.92.61-1.86.97-2.82,1.08-.97.11-1.87-.04-2.72-.43-.85-.39-1.56-1.01-2.12-1.85-.57-.85-.87-1.74-.91-2.67-.04-.93.18-1.82.64-2.67.47-.85,1.16-1.59,2.07-2.2Z"/>
  <path class="cls-4" d="m913.23,35.07l2.65-1.33,2.23,4.42h0c.12-.36.29-.7.51-1.01.45-.64,1.06-1.15,1.84-1.54.72-.37,1.44-.55,2.16-.55.72,0,1.39.22,2.02.64.63.43,1.17,1.11,1.64,2.03l2.63,5.23-2.65,1.33-2.43-4.82c-.37-.74-.81-1.2-1.3-1.38-.5-.19-1.04-.14-1.63.16-.42.21-.75.49-.99.83-.25.34-.37.74-.38,1.2,0,.46.14.97.42,1.53l2.27,4.51-2.65,1.33-6.34-12.59Z"/>
  <path class="cls-4" d="m932.48,33.01c-.48.17-.86.42-1.15.76s-.47.73-.54,1.18l.1.88,4.59-1.61-.48-.76c-.33-.3-.72-.49-1.15-.57-.43-.08-.89-.04-1.36.13Zm-.76-2.11c.94-.33,1.87-.43,2.77-.3.9.13,1.7.5,2.41,1.09.7.59,1.24,1.41,1.6,2.45.04.11.08.23.11.37.04.14.07.27.1.4l-7.2,2.53.43.65c.37.32.81.51,1.31.57.5.06,1.03,0,1.61-.21.51-.18.94-.42,1.27-.71.33-.29.61-.65.82-1.07l2.05,1.09c-.27.66-.69,1.24-1.26,1.74-.57.5-1.3.91-2.17,1.22-1.1.39-2.14.51-3.12.37-.98-.14-1.83-.5-2.55-1.09-.72-.59-1.24-1.36-1.58-2.32-.34-.97-.42-1.9-.23-2.81.19-.9.59-1.71,1.22-2.4.63-.7,1.43-1.22,2.41-1.56Z"/>
  <path class="cls-4" d="m945.39,27.09l.63,2.66c-.13.02-.24.03-.34.05-.1.02-.2.04-.32.06-.79.19-1.37.57-1.75,1.13-.38.57-.46,1.32-.23,2.27l1.12,4.69-2.88.69-2.37-9.94,2.75-.66.33,1.37.12-.35c.17-.32.4-.61.69-.87.57-.52,1.32-.89,2.25-1.11Z"/>
  <path class="cls-4" d="m951.61,26.11c.69-.1,1.4-.12,2.14-.07.74.05,1.36.18,1.88.41l-.68,2.23c-.53-.22-1.05-.35-1.56-.38-.51-.04-1-.02-1.46.04-.65.09-1.12.25-1.39.46s-.4.47-.36.74c.04.25.17.42.41.52.24.09.54.15.92.18.37.02.78.03,1.22.03.44,0,.89.02,1.34.07s.88.15,1.26.31c.39.16.72.4.99.72.28.33.46.78.54,1.35.09.63-.02,1.21-.33,1.74-.31.54-.8.99-1.47,1.37-.67.38-1.51.63-2.53.78-.86.12-1.71.13-2.54.04-.83-.1-1.49-.27-2-.51l.68-2.24c.51.22,1.09.38,1.75.47.66.09,1.3.1,1.91,0,.68-.1,1.15-.25,1.4-.45.26-.2.37-.45.33-.74-.03-.24-.17-.4-.41-.49-.24-.09-.54-.14-.91-.15-.37-.01-.78-.02-1.22-.02-.44,0-.89-.02-1.34-.07-.45-.04-.88-.15-1.27-.31-.39-.16-.73-.41-1-.74-.27-.33-.45-.79-.53-1.36-.09-.64.02-1.23.32-1.77.3-.54.78-1,1.44-1.38.66-.38,1.48-.64,2.46-.78Z"/>
  <path class="cls-4" d="m958.84,21.5c.53-.03.98.11,1.34.42.36.31.56.74.6,1.29.01.16.01.33,0,.48,0,.16-.04.35-.1.57-.06.22-.15.51-.28.87l-.93,2.8-1.88.12.66-3.17-.54-.16c-.37-.3-.57-.73-.6-1.29-.03-.54.11-.99.45-1.35.33-.36.76-.55,1.28-.59Z"/>
  <path class="cls-4" d="m975.43,25.57l-.16,2.73c-.13-.02-.24-.04-.34-.05-.1-.01-.21-.02-.32-.03-.81-.05-1.48.14-2.01.58-.52.43-.82,1.13-.87,2.11l-.29,4.82-2.96-.18.61-10.2,2.82.17-.08,1.41.21-.3c.26-.26.57-.47.91-.64.69-.33,1.52-.47,2.48-.41Z"/>
  <path class="cls-4" d="m982,28.75c-.5-.08-.96-.04-1.38.11-.41.16-.76.41-1.04.77l-.33.82,4.8.78-.06-.9c-.15-.42-.39-.77-.73-1.05-.34-.28-.76-.46-1.26-.54Zm.34-2.22c.99.16,1.84.51,2.57,1.06.73.55,1.26,1.25,1.59,2.11.34.86.42,1.83.24,2.92-.02.11-.04.24-.08.38-.04.14-.07.27-.1.4l-7.53-1.22.06.77c.18.46.47.83.88,1.12.41.29.91.48,1.51.58.54.09,1.03.08,1.46-.01.43-.1.84-.28,1.23-.55l1.29,1.94c-.55.45-1.2.76-1.94.93-.75.17-1.58.18-2.49.03-1.15-.19-2.12-.57-2.92-1.17-.8-.59-1.37-1.32-1.72-2.17-.35-.86-.44-1.79-.28-2.79.17-1.01.55-1.87,1.14-2.58.6-.71,1.34-1.21,2.22-1.53.89-.31,1.84-.38,2.87-.22Z"/>
  <path class="cls-4" d="m993.96,29.13c.67.19,1.33.45,1.99.79.65.34,1.17.72,1.55,1.13l-1.52,1.76c-.4-.41-.82-.74-1.27-.98-.46-.24-.91-.42-1.36-.55-.63-.18-1.12-.22-1.46-.13-.34.09-.55.27-.62.54-.07.24-.02.46.16.64.18.18.44.36.77.53.33.17.7.35,1.11.52.4.17.8.37,1.2.6.4.23.74.49,1.03.79.29.3.5.65.62,1.06.12.41.1.89-.05,1.46-.18.61-.51,1.1-1.01,1.46-.5.37-1.13.59-1.89.66s-1.64-.03-2.63-.3c-.84-.24-1.62-.56-2.34-.98-.72-.42-1.26-.84-1.62-1.27l1.52-1.78c.38.41.85.79,1.41,1.14.57.35,1.15.61,1.75.78.66.18,1.14.24,1.46.15.32-.08.52-.26.6-.54.06-.23.01-.44-.17-.61-.18-.18-.44-.34-.78-.5s-.71-.33-1.11-.51-.8-.38-1.2-.6c-.4-.22-.75-.49-1.04-.79-.3-.31-.5-.67-.62-1.08-.11-.41-.09-.9.07-1.46.17-.62.51-1.12,1-1.49.49-.38,1.12-.6,1.88-.69.76-.08,1.62,0,2.57.28Z"/>
  <path class="cls-4" d="m1003.9,35.15c-.46-.19-.91-.25-1.36-.19s-.86.24-1.24.54c-.37.3-.67.72-.9,1.27-.22.54-.3,1.05-.25,1.53.06.48.23.9.5,1.26.28.36.65.63,1.1.82.46.19.91.25,1.36.19.45-.06.86-.25,1.24-.55.37-.31.66-.73.89-1.27.22-.55.31-1.06.26-1.54-.06-.47-.22-.89-.5-1.25-.27-.36-.64-.63-1.1-.82Zm.92-2.25c1,.41,1.81.98,2.42,1.72.61.74,1,1.56,1.14,2.47.15.91.03,1.84-.37,2.81-.38.94-.95,1.68-1.69,2.23-.75.55-1.6.87-2.56.97-.96.1-1.93-.05-2.93-.46-1.01-.41-1.81-.99-2.42-1.73s-.99-1.57-1.14-2.49c-.15-.92-.03-1.85.35-2.78.39-.95.96-1.7,1.71-2.24.76-.55,1.61-.87,2.56-.97.95-.1,1.93.06,2.93.48Z"/>
  <path class="cls-4" d="m1012.21,36.32l2.58,1.47-2.65,4.63c-.43.74-.58,1.37-.46,1.89.11.53.46.95,1.03,1.28.39.23.79.34,1.2.35.4,0,.8-.12,1.18-.38s.72-.65,1.03-1.19l2.51-4.39,2.57,1.47-5.07,8.87-2.44-1.4.61-1.08-.19.09c-.35.11-.72.16-1.1.15-.75-.02-1.47-.22-2.15-.61-.74-.42-1.32-.94-1.73-1.56-.41-.62-.61-1.31-.59-2.08.01-.77.28-1.61.81-2.53l2.86-5.01Z"/>
  <path class="cls-4" d="m1029.1,46.97l-1.61,2.21c-.09-.08-.18-.16-.26-.22-.07-.06-.16-.13-.25-.2-.66-.48-1.32-.68-2-.6-.68.08-1.3.51-1.87,1.3l-2.84,3.9-2.4-1.74,6.01-8.27,2.29,1.66-.83,1.14.34-.14c.36-.08.73-.09,1.11-.05.76.09,1.53.42,2.31.99Z"/>
  <path class="cls-4" d="m1034.63,51.71c.81.72,1.36,1.51,1.66,2.37.29.87.31,1.74.03,2.62l-2.53-.6c.12-.54.1-1.02-.04-1.46-.15-.43-.4-.81-.75-1.12-.38-.34-.79-.56-1.25-.65-.45-.1-.91-.07-1.36.09-.45.16-.88.46-1.27.9-.4.45-.65.9-.75,1.37-.1.47-.08.92.07,1.36.16.44.42.83.8,1.17.35.31.75.52,1.19.62.45.1.93.05,1.46-.14l.89,2.47c-.83.36-1.7.45-2.59.25-.9-.19-1.75-.65-2.55-1.36-.83-.73-1.41-1.55-1.75-2.46-.35-.91-.44-1.82-.27-2.74.16-.92.58-1.76,1.26-2.52.68-.77,1.46-1.28,2.35-1.55.89-.27,1.81-.28,2.75-.05.95.24,1.83.72,2.65,1.45Z"/>
  <path class="cls-4" d="m1041.1,61.43c-.33-.38-.71-.64-1.14-.78-.42-.14-.85-.16-1.29-.06l-.78.43,3.23,3.64.52-.73c.15-.42.18-.85.1-1.28-.09-.43-.3-.84-.64-1.22Zm1.67-1.5c.66.75,1.1,1.56,1.32,2.45.21.88.18,1.76-.1,2.64-.28.88-.83,1.68-1.66,2.41-.08.08-.19.16-.3.24-.12.09-.23.17-.33.24l-5.07-5.71-.43.64c-.15.47-.17.94-.03,1.42.13.48.4.95.8,1.41.36.41.74.71,1.14.91.39.2.83.32,1.3.35l-.23,2.32c-.71,0-1.41-.17-2.09-.51-.68-.34-1.33-.86-1.95-1.55-.77-.87-1.28-1.79-1.52-2.75-.24-.96-.23-1.88.04-2.77.28-.89.79-1.67,1.55-2.34.77-.68,1.61-1.11,2.51-1.28.91-.17,1.81-.1,2.69.22.88.32,1.67.87,2.36,1.64Z"/>
  <path class="cls-4" d="m1050.13,69.29c.4.57.74,1.19,1.03,1.87.3.68.46,1.3.5,1.86l-2.29.41c-.05-.57-.17-1.09-.37-1.57-.2-.47-.44-.9-.71-1.28-.38-.54-.73-.88-1.05-1.03-.32-.15-.59-.14-.82.02-.2.15-.3.35-.27.6.02.25.11.55.26.9.15.35.32.71.53,1.1.2.39.39.8.55,1.23.16.43.26.85.3,1.26.03.42-.03.82-.19,1.22-.17.39-.49.76-.97,1.09-.51.36-1.08.53-1.7.5-.62-.03-1.24-.26-1.88-.68-.64-.42-1.26-1.06-1.85-1.9-.5-.71-.9-1.46-1.19-2.24-.29-.78-.44-1.45-.46-2.01l2.31-.42c.04.55.16,1.14.38,1.77.22.63.5,1.2.86,1.71.39.56.74.91,1.04,1.05.3.14.57.12.8-.04.2-.14.28-.33.26-.58-.03-.25-.13-.54-.29-.88-.16-.34-.34-.7-.54-1.1-.2-.39-.38-.8-.55-1.23-.16-.43-.26-.85-.3-1.27-.04-.42.03-.83.21-1.23.17-.39.49-.76.97-1.09.53-.37,1.1-.55,1.72-.52.62.02,1.25.24,1.89.66s1.25,1.03,1.82,1.84Z"/>
  <path class="cls-9" d="m1098.17,129.07c.05,73.45-59.45,133.04-132.91,133.09-73.45.05-133.04-59.45-133.09-132.91v-.09h57.29c0,41.81,33.9,75.71,75.71,75.71s75.71-33.89,75.71-75.71v-.05l57.29-.04Z"/>
  <path class="cls-2" d="m889.67,133.07c.05,73.18-59.23,132.54-132.41,132.59-73.18.05-132.54-59.23-132.59-132.41v-.09h57.08c0,41.65,33.77,75.42,75.42,75.42,41.65,0,75.42-33.77,75.42-75.42v-.05l57.08-.04Z"/>
  <path class="cls-4" d="m252.39,178.11c-.61-1.17-1.54-1.94-2.78-2.31-1.25-.37-2.47-.25-3.65.37-1.19.62-1.99,1.54-2.4,2.78-.41,1.24-.32,2.44.29,3.61.61,1.17,1.54,1.94,2.79,2.31,1.25.37,2.47.25,3.65-.37s1.99-1.54,2.4-2.78c.41-1.24.32-2.44-.29-3.61Zm1.82-.95c.91,1.75,1.09,3.53.55,5.32-.54,1.8-1.68,3.14-3.42,4.05-1.74.9-3.5,1.06-5.28.47-1.78-.59-3.13-1.76-4.04-3.51-.91-1.75-1.09-3.53-.55-5.32.54-1.8,1.68-3.15,3.42-4.05,1.74-.9,3.5-1.06,5.28-.47,1.78.59,3.13,1.76,4.04,3.51Z"/>
  <path class="cls-4" d="m258.48,190.41c.66.93.91,1.88.75,2.86-.16.98-.78,1.85-1.85,2.61l-5.05,3.58-1.23-1.74,4.53-3.21c1.52-1.08,1.83-2.25.94-3.51-.43-.6-.99-.98-1.71-1.14-.71-.16-1.45.03-2.22.57l-4.46,3.16-1.23-1.74,8.25-5.84,1.23,1.74-1.5,1.07c.7-.08,1.38.02,2.01.31s1.16.71,1.56,1.28Z"/>
  <path class="cls-4" d="m265.05,192.64l1.37,1.63-10.78,9.09-1.37-1.63,10.78-9.08Z"/>
  <path class="cls-4" d="m265.17,198.86l1.45,1.56-7.39,6.89-1.45-1.56,7.39-6.89Zm3.89-2.15c.25.27.37.59.36.97s-.15.69-.42.94c-.27.25-.59.37-.97.36s-.69-.15-.94-.42c-.25-.27-.37-.59-.35-.97.01-.38.15-.69.42-.94.27-.25.59-.37.97-.36.38.01.69.15.94.42Z"/>
  <path class="cls-4" d="m272.46,205.85c.84.77,1.29,1.65,1.34,2.63.05.99-.37,1.97-1.25,2.94l-4.17,4.58-1.57-1.43,3.73-4.1c1.25-1.38,1.31-2.59.17-3.63-.54-.49-1.18-.74-1.91-.75-.73,0-1.41.34-2.04,1.03l-3.68,4.05-1.57-1.43,6.8-7.48,1.57,1.43-1.24,1.36c.67-.23,1.35-.27,2.03-.13.68.14,1.28.45,1.8.92Z"/>
  <path class="cls-4" d="m279.39,213.74c-.63-.46-1.34-.68-2.12-.65-.78.02-1.41.36-1.89,1.02l4.69,3.4c.5-.69.67-1.37.5-2.05-.16-.68-.56-1.25-1.19-1.71Zm1.02-1.51c1.11.81,1.82,1.83,2.11,3.07.29,1.24.01,2.44-.84,3.62l-.86,1.18-6.41-4.65c-.39.62-.47,1.3-.23,2.03.24.73.68,1.33,1.33,1.8,1.03.74,2.04.98,3.04.73l.2,1.79c-1.54.27-3.02-.1-4.44-1.13-1.15-.83-1.85-1.92-2.1-3.27-.25-1.35.09-2.66,1.02-3.95.93-1.29,2.08-2.01,3.45-2.18s2.61.16,3.73.96Z"/>
  <path class="cls-4" d="m294.05,220.5c1.35.69,2.26,1.75,2.71,3.17l-1.82.8c-.43-1.07-1.04-1.82-1.83-2.22-.79-.41-1.61-.49-2.46-.27-.85.23-1.49.75-1.91,1.58-.43.83-.5,1.68-.22,2.55.28.87.84,1.52,1.68,1.95.84.43,1.83.46,2.96.07l.49,1.79c-1.66.54-3.21.45-4.64-.29-1.25-.64-2.11-1.62-2.57-2.93s-.34-2.66.36-4.03c.7-1.37,1.75-2.25,3.13-2.63,1.38-.38,2.75-.22,4.1.47Z"/>
  <path class="cls-4" d="m300.2,219.28l1.98.77-2.09,5.42c.51-.47,1.11-.76,1.81-.87.7-.11,1.38-.04,2.04.22,1.06.41,1.8,1.07,2.2,1.97.41.9.37,1.97-.1,3.2l-2.23,5.78-1.99-.77,2-5.18c.67-1.74.28-2.88-1.16-3.44-.69-.27-1.37-.27-2.05,0-.68.26-1.19.83-1.53,1.7l-1.97,5.11-1.98-.77,5.07-13.13Z"/>
  <path class="cls-4" d="m311.48,233.17c-1.48-.4-2.35-.13-2.59.8-.13.48-.04.89.26,1.24.3.35.78.61,1.43.79.65.18,1.28.15,1.86-.09.59-.24.96-.66,1.13-1.29l.22-.83-2.31-.62Zm1.92-5.33c1.15.31,2.01.85,2.58,1.63.57.78.69,1.79.36,3.04l-1.69,6.3-1.87-.5.35-1.3c-1.07.75-2.28.94-3.64.58-1.02-.27-1.78-.79-2.29-1.54-.51-.75-.64-1.61-.38-2.57.26-.96.8-1.58,1.64-1.87.84-.29,1.86-.27,3.07.06l2.66.71.1-.37c.35-1.3-.2-2.14-1.64-2.53-.9-.24-1.94-.16-3.09.23l-.57-1.53c1.44-.62,2.91-.73,4.42-.33Z"/>
  <path class="cls-4" d="m320.3,225.52l2.09.4-2.64,13.85-2.09-.4,2.64-13.85Z"/>
  <path class="cls-4" d="m324.9,226.33l2.11.3-1.98,13.96-2.11-.3,1.98-13.96Z"/>
  <path class="cls-4" d="m333.35,232.92c-.78-.05-1.49.14-2.14.57-.65.43-1,1.05-1.05,1.86l5.78.38c.06-.85-.17-1.52-.67-2.01-.5-.49-1.14-.76-1.92-.81Zm.06-1.82c1.37.09,2.51.58,3.42,1.47.91.89,1.31,2.06,1.22,3.52l-.1,1.46-7.9-.52c0,.74.3,1.35.89,1.84.59.49,1.28.76,2.08.81,1.26.08,2.25-.25,2.96-1l1.13,1.41c-1.16,1.05-2.61,1.52-4.36,1.41-1.42-.09-2.59-.64-3.52-1.65s-1.34-2.3-1.24-3.89c.11-1.59.69-2.81,1.77-3.68,1.07-.87,2.3-1.26,3.67-1.17Z"/>
  <path class="cls-4" d="m345.29,231.19c1.14-.05,2.07.27,2.8.93.73.67,1.12,1.66,1.17,2.98l.24,6.19-2.13.08-.22-5.54c-.07-1.86-.88-2.76-2.43-2.7-.73.03-1.36.3-1.89.81-.52.51-.77,1.23-.73,2.17l.22,5.47-2.13.08-.4-10.1,2.13-.08.07,1.84c.32-.63.77-1.14,1.36-1.52.59-.38,1.23-.58,1.92-.61Z"/>
  <path class="cls-4" d="m355.54,231.9c-.85.13-1.48.54-1.9,1.23-.42.69-.56,1.44-.44,2.26.12.82.48,1.49,1.08,2.01.6.52,1.32.71,2.18.59.86-.13,1.51-.52,1.96-1.18.45-.65.61-1.41.48-2.27-.13-.86-.51-1.54-1.13-2.06-.63-.51-1.37-.71-2.22-.58Zm-.58-1.64c1.32-.2,2.48.19,3.47,1.15l-.22-1.48,2.11-.31,1.3,8.72c.26,1.77-.02,3.16-.84,4.19-.83,1.03-1.99,1.65-3.5,1.88-1.5.22-2.93-.04-4.29-.8l.76-1.75c1.09.59,2.13.82,3.13.67,1-.15,1.75-.52,2.25-1.12.51-.6.67-1.47.51-2.59l-.19-1.28c-.23.64-.6,1.17-1.13,1.61-.53.44-1.16.71-1.89.82-1.33.2-2.49-.1-3.48-.9-.99-.8-1.59-1.89-1.79-3.27s.05-2.59.76-3.65c.71-1.05,1.73-1.68,3.05-1.88Z"/>
  <path class="cls-4" d="m367.16,229.63c-.75.2-1.37.6-1.85,1.22-.48.62-.62,1.32-.41,2.1l5.61-1.47c-.22-.82-.64-1.38-1.27-1.69-.63-.31-1.32-.36-2.08-.16Zm-.52-1.75c1.33-.35,2.57-.24,3.71.32,1.14.56,1.9,1.54,2.27,2.95l.37,1.42-7.66,2.01c.23.7.71,1.18,1.42,1.46.71.28,1.46.32,2.23.11,1.23-.32,2.05-.95,2.49-1.89l1.51.98c-.77,1.37-2,2.27-3.69,2.72-1.37.36-2.66.21-3.86-.45-1.2-.66-2-1.76-2.41-3.3-.4-1.54-.23-2.89.51-4.05.74-1.16,1.78-1.92,3.11-2.27Z"/>
  <path class="cls-4" d="m382.91,228.23c-1.41.61-1.92,1.35-1.54,2.24.2.45.52.72.97.81.45.09.99,0,1.61-.27.62-.27,1.09-.68,1.4-1.23.32-.55.34-1.12.09-1.71l-.34-.79-2.2.95Zm-1.8-5.37c1.09-.47,2.1-.58,3.04-.33.93.25,1.65.97,2.17,2.16l2.59,5.98-1.78.77-.54-1.24c-.37,1.25-1.2,2.15-2.49,2.71-.96.42-1.88.49-2.75.22-.87-.27-1.5-.86-1.9-1.78-.4-.91-.35-1.74.12-2.49.48-.75,1.29-1.37,2.44-1.86l2.53-1.09-.15-.35c-.53-1.23-1.49-1.55-2.86-.96-.86.37-1.62,1.07-2.28,2.1l-1.4-.84c.74-1.38,1.83-2.38,3.26-3Z"/>
  <path class="cls-4" d="m390.89,217.96c1.33-.74,2.71-.91,4.14-.51l-.34,1.96c-1.13-.24-2.09-.14-2.86.29-.77.43-1.3,1.07-1.58,1.9-.28.83-.2,1.65.26,2.47.45.81,1.12,1.34,2,1.59.88.25,1.73.14,2.55-.32.82-.46,1.39-1.27,1.7-2.43l1.76.58c-.47,1.68-1.4,2.92-2.81,3.7-1.23.69-2.52.86-3.87.52-1.35-.34-2.4-1.18-3.16-2.53-.75-1.35-.91-2.7-.46-4.07.45-1.36,1.34-2.41,2.67-3.15Z"/>
  <path class="cls-4" d="m394.27,212.37l1.76-1.2,1.79,2.62,2.2-1.49.96,1.41-2.2,1.5,2.89,4.24c.27.4.59.64.96.74.37.09.74.01,1.12-.24.38-.26.61-.69.71-1.29l1.57.75c-.24.97-.74,1.72-1.48,2.23-.75.51-1.56.68-2.45.52-.88-.16-1.62-.68-2.22-1.56l-2.85-4.2-1.05.72-.96-1.41,1.05-.72-1.78-2.62Z"/>
  <path class="cls-4" d="m401.72,211l1.68-1.3,6.18,8-1.68,1.3-6.18-8Zm-1.78-4.07c.29-.22.62-.31,1-.27.37.05.67.22.9.51.23.29.31.62.27.99-.05.37-.22.67-.51.9-.29.23-.62.31-1,.27-.37-.05-.67-.22-.9-.51-.23-.29-.31-.62-.27-1,.05-.37.22-.67.51-.9Z"/>
  <path class="cls-4" d="m404.39,209.08l1.64-1.48,7.4,3.61-2.83-7.73,1.64-1.48,3.75,10.23-1.81,1.63-9.79-4.79Z"/>
  <path class="cls-4" d="m412.83,201.2l1.47-1.54,7.31,6.98-1.47,1.54-7.32-6.98Zm-2.37-3.76c.25-.27.57-.4.95-.41.38,0,.7.11.96.37.26.25.4.57.41.95,0,.38-.11.7-.37.96-.25.27-.57.4-.95.41-.38,0-.7-.11-.96-.37-.27-.25-.4-.57-.41-.95,0-.38.11-.7.37-.96Z"/>
  <path class="cls-4" d="m413.97,195.32l1.37-1.63,2.43,2.04,1.71-2.04,1.31,1.1-1.71,2.04,3.93,3.3c.37.31.74.46,1.12.45.38-.01.72-.19,1.01-.54s.4-.83.33-1.43l1.71.3c.03,1-.24,1.85-.83,2.55-.58.69-1.32,1.08-2.21,1.17-.89.09-1.74-.21-2.56-.9l-3.88-3.26-.82.98-1.31-1.1.82-.98-2.43-2.04Z"/>
  <path class="cls-4" d="m420.75,191.98l1.26-1.71,8.13,6-1.26,1.71-8.13-6Zm-2.83-3.43c.22-.3.51-.47.89-.53s.71.02,1,.24c.3.22.47.51.53.88.06.37-.02.71-.24,1-.22.29-.51.47-.89.53s-.71-.03-1-.24c-.29-.22-.47-.51-.53-.89-.06-.37.02-.71.24-1Z"/>
  <path class="cls-4" d="m427.31,185.32c-.41.66-.58,1.38-.5,2.16.08.78.46,1.38,1.15,1.8l3.05-4.93c-.72-.45-1.42-.56-2.08-.35-.67.21-1.21.65-1.62,1.31Zm-1.58-.91c.72-1.17,1.69-1.95,2.9-2.33s2.44-.19,3.68.57l1.24.77-4.17,6.74c.65.34,1.33.37,2.04.08.71-.29,1.27-.78,1.69-1.46.67-1.08.83-2.11.5-3.09l1.77-.33c.39,1.52.12,3.02-.8,4.51-.75,1.21-1.78,1.98-3.11,2.33-1.33.35-2.67.11-4.02-.73-1.35-.83-2.16-1.93-2.43-3.29-.26-1.35-.04-2.62.69-3.79Z"/>
  <path class="cls-4" d="m430.48,175.66c.51-1.05,1.29-1.89,2.36-2.53l1.08,1.4c-.85.5-1.48,1.19-1.9,2.06-.22.46-.31.87-.29,1.23.03.36.21.63.54.79.3.14.58.1.86-.13.2-.16.44-.4.71-.72.27-.33.52-.61.75-.85.23-.24.46-.47.71-.68.24-.21.54-.42.9-.63.71-.42,1.49-.42,2.36,0,.87.42,1.41,1.06,1.63,1.94.22.88.09,1.81-.38,2.79-.32.66-.77,1.29-1.35,1.89-.58.6-1.22,1.07-1.92,1.41l-1.05-1.64c1.31-.68,2.2-1.51,2.68-2.5.21-.43.27-.82.2-1.17-.08-.35-.27-.6-.58-.74-.46-.22-1.16.19-2.11,1.22-.08.08-.13.13-.17.17-1.43,1.65-2.74,2.18-3.94,1.61-.85-.41-1.36-1.06-1.55-1.96-.19-.9-.04-1.88.47-2.93Z"/>
  <path class="cls-4" d="m672.83,187.48l-4.39,3,1.47,2.15c.7,1.02,1.37,1.59,2.02,1.69.65.1,1.35-.11,2.11-.62.76-.52,1.13-1.12,1.12-1.81s-.35-1.53-1.04-2.53l-1.29-1.88Zm.41-3l2.57,3.77c1.14,1.66,1.65,3.09,1.53,4.29-.12,1.2-.84,2.25-2.17,3.16-1.33.91-2.57,1.18-3.72.83-1.15-.36-2.28-1.34-3.38-2.95l-1.33-1.95-3.22,2.2-1.27-1.85,10.96-7.5Z"/>
  <path class="cls-4" d="m675.68,202.24c-1.01-1.16-1.87-1.42-2.6-.79-.37.32-.53.71-.48,1.17.05.46.3.94.75,1.45.44.51.98.83,1.6.97.62.13,1.17-.01,1.66-.44l.64-.56-1.57-1.81Zm4.57-3.35c.78.9,1.19,1.83,1.23,2.79.04.96-.43,1.87-1.4,2.72l-4.92,4.28-1.27-1.46,1.02-.89c-1.3.03-2.42-.49-3.34-1.55-.69-.79-1.04-1.65-1.04-2.56,0-.91.37-1.69,1.12-2.35.75-.65,1.55-.86,2.41-.63.85.23,1.69.82,2.52,1.77l1.81,2.08.29-.25c1.01-.88,1.03-1.89.05-3.01-.61-.71-1.51-1.22-2.69-1.53l.38-1.59c1.54.29,2.83,1.02,3.85,2.19Z"/>
  <path class="cls-4" d="m688.38,207.24l-1.48,1.56s-.05-.05-.08-.08c-.76-.73-1.57-1.03-2.42-.91-.86.12-1.69.6-2.49,1.43l-3.01,3.12-1.53-1.48,7.01-7.28,1.53,1.48-1.41,1.46c.69-.22,1.38-.27,2.09-.15s1.3.4,1.78.85Z"/>
  <path class="cls-4" d="m691.72,212.4c-.61-.49-1.3-.74-2.08-.76-.78-.02-1.43.29-1.93.92l4.52,3.63c.53-.66.73-1.34.6-2.02-.13-.69-.5-1.28-1.1-1.76Zm1.1-1.46c1.07.86,1.72,1.92,1.95,3.17.23,1.25-.11,2.44-1.02,3.58l-.92,1.14-6.17-4.97c-.42.6-.53,1.28-.33,2.02.2.74.61,1.36,1.24,1.86.99.79,1.99,1.09,3,.88l.11,1.8c-1.55.2-3.01-.25-4.38-1.35-1.11-.89-1.75-2.01-1.93-3.37-.18-1.36.22-2.66,1.22-3.9,1-1.24,2.18-1.91,3.56-2,1.38-.1,2.6.29,3.67,1.15Z"/>
  <path class="cls-4" d="m702.43,217.74c.96.61,1.55,1.4,1.77,2.37.22.97-.03,2-.73,3.12l-3.33,5.23-1.8-1.14,2.98-4.68c1-1.57.85-2.77-.46-3.6-.62-.4-1.29-.53-2.01-.41-.72.12-1.33.57-1.84,1.36l-2.94,4.62-1.79-1.14,5.43-8.53,1.79,1.14-.99,1.56c.62-.34,1.28-.5,1.98-.48.7.02,1.34.22,1.93.6Z"/>
  <path class="cls-4" d="m709.32,218.26l1.89.97-1.45,2.82,2.37,1.21-.78,1.52-2.37-1.21-2.34,4.56c-.22.43-.28.83-.19,1.2.1.37.35.66.75.87.41.21.9.21,1.47,0l.09,1.73c-.97.26-1.86.18-2.67-.24-.8-.41-1.35-1.04-1.63-1.89-.28-.85-.18-1.75.3-2.7l2.32-4.51-1.13-.58.78-1.52,1.13.58,1.45-2.82Z"/>
  <path class="cls-4" d="m715.23,230.6c-1.42-.58-2.31-.42-2.67.47-.19.46-.15.88.1,1.26.25.38.7.7,1.32.96.63.26,1.25.3,1.86.14.61-.16,1.04-.54,1.28-1.14l.32-.79-2.22-.9Zm2.57-5.05c1.1.45,1.89,1.09,2.36,1.94.47.84.46,1.86-.02,3.06l-2.46,6.04-1.8-.73.51-1.25c-1.15.61-2.38.65-3.68.12-.97-.4-1.67-1-2.08-1.81-.42-.81-.43-1.68-.06-2.6.38-.92.99-1.47,1.86-1.65.87-.18,1.88-.03,3.04.44l2.55,1.04.14-.35c.51-1.24.07-2.15-1.32-2.71-.87-.35-1.9-.4-3.1-.15l-.38-1.59c1.51-.44,2.98-.37,4.42.22Z"/>
  <path class="cls-4" d="m724.93,224.1l2.03.65-4.33,13.42-2.02-.65,4.33-13.42Z"/>
  <path class="cls-4" d="m737.06,233.15c-.91-.17-1.72,0-2.42.48-.7.49-1.15,1.22-1.33,2.18-.18.96-.03,1.79.45,2.51.48.71,1.17,1.16,2.08,1.33.91.17,1.71,0,2.42-.48.7-.49,1.15-1.22,1.33-2.18.18-.96.03-1.79-.45-2.51-.48-.71-1.17-1.16-2.08-1.33Zm.35-1.87c1.49.28,2.65,1.01,3.46,2.18.81,1.18,1.08,2.48.81,3.91-.27,1.43-.99,2.55-2.17,3.35-1.18.8-2.52,1.07-4.01.79-1.49-.28-2.65-1.01-3.46-2.18-.81-1.18-1.08-2.48-.81-3.91.27-1.43.99-2.55,2.17-3.35,1.18-.8,2.52-1.07,4.01-.79Z"/>
  <path class="cls-4" d="m749.56,232.81c1.14.09,2.03.5,2.68,1.25.65.75.92,1.78.82,3.09l-.47,6.18-2.12-.16.42-5.53c.14-1.86-.56-2.84-2.1-2.96-.73-.05-1.39.14-1.97.58-.58.45-.9,1.14-.98,2.07l-.41,5.46-2.12-.16.76-10.08,2.12.16-.14,1.84c.39-.59.9-1.04,1.52-1.35.63-.31,1.29-.44,1.98-.38Z"/>
  <path class="cls-4" d="m755.57,229.19h2.13s.02,14.1.02,14.1h-2.13s-.02-14.1-.02-14.1Z"/>
  <path class="cls-4" d="m760.47,233.11l2.13-.1.48,10.1-2.12.1-.48-10.1Zm.88-4.36c.37-.02.69.1.97.35.28.25.43.56.44.93.02.37-.1.69-.35.97-.25.28-.56.43-.93.44-.37.02-.69-.1-.97-.35-.28-.25-.43-.56-.44-.93-.02-.37.1-.69.35-.97.25-.28.56-.43.93-.44Z"/>
  <path class="cls-4" d="m770.55,232.09c1.13-.14,2.09.09,2.87.69.78.6,1.26,1.56,1.42,2.87l.77,6.15-2.11.27-.69-5.51c-.23-1.85-1.11-2.68-2.65-2.48-.73.09-1.33.41-1.81.96-.48.55-.66,1.29-.54,2.22l.68,5.43-2.11.26-1.26-10.03,2.11-.26.23,1.83c.26-.66.67-1.2,1.22-1.63.55-.43,1.17-.68,1.87-.77Z"/>
  <path class="cls-4" d="m781.08,231.97c-.76.18-1.39.57-1.88,1.18-.49.61-.65,1.3-.46,2.09l5.64-1.33c-.2-.83-.6-1.4-1.23-1.72-.62-.32-1.31-.39-2.07-.21Zm-.47-1.76c1.34-.32,2.57-.18,3.7.41s1.86,1.59,2.19,3.01l.34,1.42-7.71,1.82c.22.7.68,1.2,1.39,1.5.71.3,1.45.35,2.23.17,1.23-.29,2.08-.9,2.54-1.83l1.49,1.01c-.8,1.35-2.05,2.22-3.75,2.62-1.38.33-2.66.14-3.85-.55s-1.96-1.81-2.33-3.36-.16-2.89.61-4.04c.77-1.14,1.82-1.88,3.16-2.19Z"/>
  <path class="cls-4" d="m794.76,225.72c1.08-.43,2.23-.51,3.45-.26l-.16,1.76c-.97-.2-1.9-.13-2.79.23-.47.19-.82.42-1.05.71-.23.29-.27.6-.14.94.12.31.36.47.72.49.25.02.59,0,1.01-.05.42-.06.8-.1,1.13-.12.33-.02.66-.03.98-.02.32,0,.69.06,1.09.14.8.17,1.38.71,1.74,1.6.35.89.31,1.74-.12,2.53-.44.79-1.16,1.39-2.17,1.79-.68.27-1.44.43-2.28.47-.83.04-1.62-.05-2.36-.27l.35-1.91c1.42.39,2.64.39,3.67-.02.45-.18.76-.42.94-.73.18-.31.2-.62.08-.94-.19-.47-.98-.65-2.38-.53-.11,0-.19,0-.24.01-2.16.24-3.49-.25-3.98-1.49-.35-.87-.28-1.7.19-2.5.47-.79,1.25-1.4,2.33-1.83Z"/>
  <path class="cls-4" d="m799.53,223.95l1.89-.98,2.54,4.93c.85,1.65,1.97,2.13,3.34,1.42.65-.34,1.11-.85,1.37-1.53.26-.68.18-1.44-.25-2.27l-2.51-4.86,1.89-.98,4.63,8.98-1.89.97-.85-1.64c-.02.71-.21,1.36-.59,1.95-.37.59-.87,1.05-1.49,1.37-1.01.52-1.99.64-2.94.34-.94-.3-1.72-1.03-2.32-2.2l-2.84-5.5Z"/>
  <path class="cls-4" d="m814.77,217.21c-.71.47-1.12,1.14-1.25,1.99-.13.86.08,1.68.61,2.48.54.8,1.22,1.29,2.04,1.48.83.19,1.59.05,2.28-.42.69-.47,1.13-1.12,1.31-1.97.18-.85,0-1.68-.54-2.48-.54-.81-1.24-1.3-2.1-1.5-.86-.19-1.64-.05-2.35.42Zm-.78-1.72c1.12-.75,2.35-1.01,3.67-.77,1.32.24,2.42,1.01,3.28,2.3.87,1.29,1.18,2.61.92,3.96-.25,1.34-.9,2.37-1.96,3.08-1.06.71-2.32.88-3.78.52l2.9,4.32-1.77,1.18-7.68-11.46,1.77-1.18.98,1.47c-.02-1.53.54-2.67,1.66-3.42Z"/>
  <path class="cls-4" d="m824.22,209.97c-.64.55-.98,1.26-1.01,2.13-.03.86.27,1.66.9,2.39.63.73,1.36,1.14,2.2,1.23.84.09,1.58-.14,2.21-.68.64-.54.99-1.25,1.07-2.11.08-.87-.2-1.67-.83-2.4-.63-.74-1.39-1.15-2.26-1.24-.88-.09-1.64.14-2.28.69Zm-.98-1.61c1.03-.88,2.21-1.28,3.55-1.2,1.34.08,2.52.72,3.53,1.9,1.01,1.18,1.47,2.46,1.38,3.82-.09,1.36-.62,2.46-1.59,3.29-.97.83-2.2,1.15-3.69.96l3.39,3.95-1.62,1.38-8.98-10.47,1.62-1.38,1.15,1.34c-.2-1.52.22-2.71,1.25-3.6Z"/>
  <path class="cls-4" d="m832.48,202.03c-.63.68-.92,1.45-.87,2.31.04.86.42,1.62,1.14,2.28.72.66,1.51.98,2.36.95.86-.03,1.6-.38,2.23-1.06.63-.68.92-1.45.87-2.31s-.42-1.62-1.14-2.28c-.72-.66-1.51-.98-2.37-.95-.86.03-1.6.38-2.23,1.06Zm-1.4-1.29c1.03-1.12,2.26-1.71,3.68-1.77,1.43-.06,2.68.4,3.75,1.39,1.07.99,1.64,2.19,1.69,3.62.05,1.43-.43,2.7-1.46,3.82-1.03,1.12-2.26,1.71-3.68,1.77-1.43.06-2.68-.4-3.75-1.39-1.07-.99-1.63-2.19-1.69-3.62-.05-1.43.43-2.7,1.46-3.82Z"/>
  <path class="cls-4" d="m838.82,191.24l1.72,1.28s-.05.06-.07.09c-.64.84-.84,1.67-.62,2.51.22.84.79,1.6,1.71,2.3l3.45,2.62-1.29,1.69-8.05-6.11,1.29-1.7,1.62,1.23c-.3-.65-.43-1.34-.4-2.05.03-.71.24-1.34.63-1.87Z"/>
  <path class="cls-4" d="m837.35,187.99l1.16-1.79,2.66,1.73,1.45-2.23,1.43.93-1.45,2.23,4.3,2.79c.4.26.79.36,1.17.31.38-.06.69-.28.94-.66.25-.38.3-.87.15-1.46l1.73.08c.16.99-.01,1.87-.5,2.63-.49.76-1.18,1.24-2.05,1.43-.87.2-1.76,0-2.65-.57l-4.26-2.76-.69,1.07-1.43-.93.69-1.07-2.66-1.73Z"/>
  <g>
    <path class="cls-14" d="m129.78,150.31c0,2.51-2.03,4.54-4.54,4.54s-4.54-2.03-4.54-4.54,2.03-4.54,4.54-4.54,4.54,2.03,4.54,4.54Z"/>
    <path class="cls-14" d="m134.17,165.17v-4.54c-.01-.71-.35-1.37-.9-1.81-1.31-1.01-2.8-1.74-4.39-2.16-1.2-.37-2.45-.56-3.71-.56-1.26.02-2.5.21-3.71.56-1.57.47-3.06,1.2-4.39,2.16-.55.44-.88,1.1-.9,1.81v4.54h18Z"/>
    <path class="cls-14" d="m149.64,150.31c0,2.51-2.03,4.54-4.54,4.54s-4.54-2.03-4.54-4.54,2.03-4.54,4.54-4.54,4.54,2.03,4.54,4.54Z"/>
    <path class="cls-14" d="m154.17,165.17v-4.54c-.01-.71-.35-1.37-.9-1.81-1.31-1.01-2.8-1.74-4.39-2.16-1.2-.37-2.45-.56-3.71-.56-1.26.02-2.5.21-3.71.56-1.57.47-3.06,1.2-4.39,2.16-.55.44-.88,1.1-.9,1.81v4.54h18Z"/>
    <path class="cls-14" d="m169.64,150.31c0,2.51-2.03,4.54-4.54,4.54s-4.54-2.03-4.54-4.54,2.03-4.54,4.54-4.54,4.54,2.03,4.54,4.54Z"/>
    <path class="cls-14" d="m174.17,165.17v-4.54c-.01-.71-.35-1.37-.9-1.81-1.31-1.01-2.8-1.74-4.39-2.16-1.2-.37-2.45-.56-3.71-.56-1.26.02-2.5.21-3.71.56-1.57.47-3.06,1.2-4.39,2.16-.55.44-.88,1.1-.9,1.81v4.54h18Z"/>
    <path class="cls-14" d="m111.59,108.33c0,3.28-2.66,5.94-5.94,5.94s-5.94-2.66-5.94-5.94,2.66-5.94,5.94-5.94,5.94,2.66,5.94,5.94Z"/>
    <path class="cls-14" d="m140.68,106.04c-.59-.58-1.53-.58-2.12,0l-12.92,12.92c-1.03-.29-2.14,0-2.91.74-.21.21-3.94,6.31-3.94,6.31l-1.12-4.77c-.15-.62-.46-1.18-.89-1.64-1.84-1.49-3.96-2.6-6.24-3.26-1.61-.34-3.25-.54-4.89-.59-1.66.03-3.31.27-4.9.74-2.3.6-4.43,1.72-6.23,3.26-.44.46-.75,1.02-.89,1.64,0,0-4.31,18.1-4.31,18.4,0,1.66,1.34,3,3,3,1.33-.03,2.47-.94,2.82-2.22l3.12-12.91v41.51h5.91v-26.71h3v26.71h5.9v-41.7l1.1,4.7c.08.33.29.6.59.75,1.15.88,2.55,1.38,4,1.41.94.13,1.88-.29,2.4-1.09l6.1-10c.39-.62.54-1.35.41-2.07l13-13c.59-.59.59-1.54,0-2.13Z"/>
    <path class="cls-14" d="m161.17,92.17h-49c-2.21,0-4,1.79-4,4v3.6c1.53.42,2.91,1.25,4,2.4v-6h49v33h-34.13l-2.44,4h36.57c2.21,0,4-1.79,4-4v-33c0-2.21-1.79-4-4-4Z"/>
  </g>
  <g>
    <path class="cls-15" d="m362.17,84.17h-44c-2.21,0-3.99,1.79-4,4v84c0,2.21,1.79,3.99,4,4h44c2.21,0,3.99-1.79,4-4v-84c0-2.21-1.79-3.99-4-4Zm-25.5,4h7c.83,0,1.5.67,1.5,1.5s-.67,1.5-1.5,1.5h-7c-.83,0-1.5-.67-1.5-1.5s.67-1.5,1.5-1.5Zm25.5,77h-44v-70h44v70Z"/>
    <path class="cls-15" d="m334.17,122.17c4.42,0,8-3.58,8-8s-3.58-8-8-8-8,3.58-8,8,3.58,8,8,8Zm-.02-12.91c1.24,0,2.24,1,2.24,2.24s-1,2.24-2.24,2.24-2.24-1-2.24-2.24c0-1.24,1.01-2.24,2.24-2.24Zm-4.48,7.29c0-.35.17-.68.45-.9.66-.48,1.4-.84,2.19-1.07.6-.17,1.22-.27,1.85-.28.63,0,1.25.1,1.85.28.79.21,1.54.57,2.19,1.07.28.22.44.55.45.9v1.71h-8.97v-1.71Z"/>
    <path class="cls-15" d="m336.75,140.47c.61.8,1.08,1.7,1.41,2.65l5.98-3.59c-.68-.74-1.23-1.59-1.64-2.51l-5.74,3.44Z"/>
    <path class="cls-15" d="m338.91,122.39l4.6,5.18c.6-.81,1.32-1.53,2.14-2.11l-4.41-4.96c-.67.75-1.45,1.39-2.32,1.9Z"/>
    <path class="cls-15" d="m351.17,125.17c-4.42,0-8,3.58-8,8s3.58,8,8,8,8-3.58,8-8-3.58-8-8-8Zm-.02,3.09c1.24,0,2.24,1,2.24,2.24s-1,2.24-2.24,2.24-2.24-1-2.24-2.24c0-1.24,1.01-2.24,2.24-2.24Zm4.48,9h-8.97v-1.71c0-.35.17-.68.45-.9.66-.48,1.4-.84,2.19-1.07.6-.17,1.22-.27,1.85-.28.63,0,1.25.1,1.85.28.79.21,1.54.57,2.19,1.07.28.22.44.55.45.9v1.71Z"/>
    <path class="cls-15" d="m331.24,123.2l-1.84,13.48c1.01.02,2,.21,2.95.55l1.85-13.56h-.04c-.99,0-1.98-.16-2.93-.47Z"/>
    <path class="cls-15" d="m337.17,146.17c0-4.42-3.58-8-8-8s-8,3.58-8,8,3.58,8,8,8,8-3.58,8-8Zm-8.02-4.91c1.24,0,2.24,1,2.24,2.24s-1,2.24-2.24,2.24-2.24-1-2.24-2.24c0-1.24,1.01-2.24,2.24-2.24Zm4.48,9h-8.97v-1.71c0-.35.17-.68.45-.9.66-.48,1.4-.84,2.19-1.07.6-.17,1.22-.27,1.85-.28.63,0,1.25.1,1.85.28.79.21,1.54.57,2.19,1.07.28.22.44.55.45.9v1.71Z"/>
  </g>
  <g>
    <path class="cls-16" d="m533.17,112.97c0,4.97-4.03,9-9,9s-9-4.03-9-9,4.03-9,9-9,9,4.03,9,9Z"/>
    <path class="cls-16" d="m581.17,112.97c0,4.97-4.03,9-9,9s-9-4.03-9-9,4.03-9,9-9,9,4.03,9,9Z"/>
    <path class="cls-16" d="m566.17,156.37v-9c0-1.4-.6-2.8-1.8-3.6-2.4-2-5.6-3.4-8.8-4.2-2.2-.6-4.8-1.2-7.4-1.2-2.4,0-5,.4-7.4,1.2-3.2.8-6.2,2.4-8.8,4.2-1.2,1-1.8,2.2-1.8,3.6v9h36Z"/>
    <path class="cls-16" d="m557.17,126.97c0,4.97-4.03,9-9,9s-9-4.03-9-9,4.03-9,9-9,9,4.03,9,9Z"/>
    <path class="cls-16" d="m588.37,129.77c-2.4-2-5.6-3.4-8.8-4.2-2.2-.6-4.8-1.2-7.4-1.2-2.4,0-5,.4-7.4,1.2-1.2.4-2.4.8-3.6,1.4v.2c0,3.4-1.4,6.6-3.6,8.8,3.8,1.2,6.8,2.8,9.2,4.6.6.6,1.2,1,1.6,1.8h21.8v-9c0-1.4-.6-2.8-1.8-3.6Z"/>
    <path class="cls-16" d="m529.57,140.57h0c2.8-2,6-3.6,9.2-4.6-2.2-2.4-3.6-5.4-3.6-8.8v-.4c-1.2-.4-2.4-1-3.6-1.2-2.2-.6-4.8-1.2-7.4-1.2-2.4,0-5,.4-7.4,1.2-3.2,1-6.2,2.4-8.8,4.2-1.2.8-1.8,2.2-1.8,3.6v9h21.6c.6-.8,1-1.2,1.8-1.8Z"/>
  </g>
  <path class="cls-1" d="m791.07,118.27h-.9l-2.6-7c6-3.4,8.1-11,4.8-17-3.4-6-11-8.1-17-4.8-2.9,1.6-5.1,4.4-5.9,7.6l-9.3-1c-.7-4.4-4.8-7.5-9.2-6.8-4,.6-6.9,4-6.9,8,0,1.4.4,2.8,1.1,4.1l-11.2,11c-2.1-1.6-4.7-2.5-7.4-2.5-6.9,0-12.5,5.6-12.5,12.5s5.6,12.5,12.5,12.5l2.5,15c-4.1,1.8-6,6.6-4.2,10.7s6.6,6,10.7,4.2c3.8-1.6,5.7-5.8,4.6-9.8l8.8-4.6c5.7,6.3,15.5,6.8,21.9,1.1,3.2-2.9,5.1-7.1,5.1-11.4,0-1.1-.1-2.3-.4-3.4l9.7-5c3,3.4,8.1,3.7,11.5.7,3.4-3,3.7-8.1.7-11.5-1.9-1.6-4.1-2.6-6.4-2.6h0Zm0,3c1.3,0,2.3,1,2.3,2.3s-1,2.3-2.3,2.3-2.3-1-2.3-2.3h0c0-1.3,1-2.3,2.3-2.3h0Zm-9.6-28.5c1.9,0,3.5,1.6,3.5,3.5s-1.6,3.5-3.5,3.5-3.5-1.6-3.5-3.5h0c0-1.9,1.5-3.5,3.5-3.5Zm-7.1,11.4c0-.5.3-1.1.7-1.4,1-.7,2.2-1.3,3.4-1.6.9-.3,1.9-.4,2.9-.4s2,.2,2.9.4c1.2.3,2.4.9,3.4,1.7.4.3.7.9.7,1.4v2.7h-14v-2.8Zm-22.3-12c1.3,0,2.3,1,2.3,2.3s-1,2.3-2.3,2.3-2.3-1-2.3-2.3h0c0-1.2,1-2.3,2.3-2.3h0Zm-4.7,7.5c0-.4.2-.7.5-.9.7-.5,1.5-.8,2.3-1,.6-.2,1.3-.3,1.9-.3s1.3.1,1.9.3c.8.2,1.5.6,2.2,1.1.3.2.5.6.5.9v1.8h-9.2v-1.9h-.1Zm-21,15.1c1.9,0,3.5,1.6,3.5,3.5s-1.6,3.5-3.5,3.5-3.5-1.6-3.5-3.5h0c.1-1.9,1.6-3.5,3.5-3.5h0Zm-7,14.1v-2.7c0-.5.3-1.1.7-1.4,1-.7,2.2-1.3,3.4-1.6.9-.3,1.9-.4,2.9-.4s2,.2,2.9.4c1.2.3,2.4.9,3.4,1.7.4.3.7.9.7,1.4v2.7l-14-.1Zm17.3,32.6h-9.3v-1.8c0-.4.2-.7.5-.9.7-.5,1.5-.9,2.3-1.1.6-.2,1.3-.3,1.9-.3s1.3.1,1.9.3c.8.2,1.5.6,2.2,1.1.3.2.5.6.5.9v1.8Zm-7-7c0-1.3,1-2.3,2.3-2.3s2.3,1,2.3,2.3-1,2.3-2.3,2.3c-1.2.1-2.2-1-2.3-2.3h0Zm8-2.8c-1.3-1.3-3.1-2.1-4.9-2.3l-2.5-15c2.4-.8,4.5-2.3,6-4.3l9.3,4.9c-1.5,4-1.2,8.5.8,12.3l-8.7,4.4Zm9.8-20.4l-9.2-4.8c.4-1.3.6-2.6.6-4,0-2.6-.8-5.1-2.3-7.2l11.2-10.9c3.8,2.3,8.8,1.2,11.1-2.6.3-.5.5-1,.7-1.5l9.3,1c.2,3.6,2,7,4.9,9.2l-8.2,15.3c-6.5-2.6-14-.3-18.1,5.5h0Zm17,3.7c0,2.4-2,4.3-4.4,4.3s-4.3-1.9-4.3-4.3,1.9-4.3,4.3-4.3h.1c2.4,0,4.3,1.9,4.3,4.3h0Zm4.3,13.1h-17.3v-3.3c0-.7.3-1.3.9-1.7,1.3-.9,2.7-1.6,4.2-2.1,1.2-.3,2.4-.5,3.6-.5s2.4.2,3.6.5c1.5.4,3,1.1,4.2,2.1.5.4.9,1.1.9,1.7l-.1,3.3Zm14.2-21.6c0,.6.1,1.2.3,1.8l-9.2,4.8c-1.1-2.2-2.8-4-4.8-5.4l8.2-15.3c1.3.5,2.7.7,4.1.7.8,0,1.6-.1,2.4-.2l2.6,7c-2.4,1.4-3.7,3.9-3.6,6.6Zm12.7,4h-9.3v-1.8c0-.4.2-.7.5-.9.7-.5,1.5-.9,2.3-1.1.6-.2,1.3-.3,1.9-.3s1.3.1,1.9.3c.8.2,1.5.6,2.2,1.1.3.2.5.6.5.9v1.8Z"/>
  <path class="cls-13" d="m1007.77,115.47l-5.2-1.9v-10.9l5.2-2.2-35.2-13-42.8,15c-4.1,2-4.2,7.5-4.2,12,0,1.5.2,3,.5,4.4-3.4,2.2-3.5,7.3-3.5,11.6,0,3.5.8,6.7,3,8.7-.5,1.7-.2,3.8-.2,6.3,0,4.5,1.2,8.6,5.2,10l27.8,11.5,49.2-20.4-5.2-1.9v-11l5.2-2.2-8-3v-9.6l8.2-3.4Zm-76.8-6l27.8,10.9,39.9-16.1v8.6l-39.9,16.6-27.8-11v-9Zm67.5,34.5l-39.9,16.5-27.9-11v-7.8l24.9,10.2,43-17-.1,9.1Zm-2.8-15l-39.9,16.5-27.8-11v-9l28.6,11.4,39.2-16.4v8.5h-.1Z"/>
</svg>