<?xml version="1.0" encoding="UTF-8"?>
<svg id="Layer_1" data-name="Layer 1" xmlns="http://www.w3.org/2000/svg" xmlns:xlink="http://www.w3.org/1999/xlink" viewBox="0 0 1676.98 2805.64">
  <defs>
    <style>
      .cls-1 {
        fill: #e9b62e;
      }

      .cls-1, .cls-2, .cls-3, .cls-4, .cls-5, .cls-6, .cls-7, .cls-8, .cls-9, .cls-10, .cls-11, .cls-12, .cls-13, .cls-14, .cls-15, .cls-16, .cls-17, .cls-18, .cls-19, .cls-20, .cls-21, .cls-22, .cls-23, .cls-24, .cls-25, .cls-26, .cls-27, .cls-28, .cls-29, .cls-30, .cls-31, .cls-32, .cls-33, .cls-34, .cls-35, .cls-36, .cls-37, .cls-38, .cls-39, .cls-40, .cls-41, .cls-42, .cls-43, .cls-44, .cls-45, .cls-46, .cls-47, .cls-48, .cls-49, .cls-50, .cls-51, .cls-52, .cls-53, .cls-54, .cls-55, .cls-56, .cls-57, .cls-58, .cls-59, .cls-60, .cls-61, .cls-62, .cls-63, .cls-64, .cls-65, .cls-66, .cls-67, .cls-68, .cls-69, .cls-70 {
        stroke-width: 0px;
      }

      .cls-71 {
        opacity: .7;
      }

      .cls-2 {
        fill: #e48e34;
      }

      .cls-3 {
        fill: #eac02c;
      }

      .cls-4 {
        fill: #e69d32;
      }

      .cls-5 {
        fill: #ebc62b;
      }

      .cls-6 {
        fill: #ebc32c;
      }

      .cls-7 {
        fill: #e9b82d;
      }

      .cls-8 {
        fill: #e7a231;
      }

      .cls-9 {
        fill: #e49034;
      }

      .cls-10 {
        fill: #e69c32;
      }

      .cls-11 {
        fill: #e8ad2f;
      }

      .cls-12 {
        fill: #e48c35;
      }

      .cls-13 {
        fill: #eabc2d;
      }

      .cls-14 {
        fill: #e69f32;
      }

      .cls-15 {
        fill: #e48b35;
      }

      .cls-16 {
        fill: #e69b32;
      }

      .cls-17 {
        fill: #e69a32;
      }

      .cls-18 {
        fill: #e9b72e;
      }

      .cls-19 {
        fill: #e59533;
      }

      .cls-20 {
        fill: #e59234;
      }

      .cls-21 {
        fill: #e59433;
      }

      .cls-22 {
        fill: #e9b22e;
      }

      .cls-23 {
        fill: #e59833;
      }

      .cls-24 {
        fill: #e7a830;
      }

      .cls-25 {
        fill: none;
      }

      .cls-26 {
        fill: #e8b12f;
      }

      .cls-27 {
        fill: #e9b52e;
      }

      .cls-28 {
        fill: #e8af2f;
      }

      .cls-29 {
        fill: #e8ae2f;
      }

      .cls-30 {
        fill: #e7a930;
      }

      .cls-31 {
        fill: #eac12c;
      }

      .cls-32 {
        fill: #e7a131;
      }

      .cls-33 {
        fill: #e7a331;
      }

      .cls-34 {
        fill: #e69e32;
      }

      .cls-35 {
        fill: #e9b32e;
      }

      .cls-36 {
        fill: #ebc42b;
      }

      .cls-37 {
        fill: #fff;
      }

      .cls-72 {
        opacity: .3;
      }

      .cls-38 {
        fill: #e7a631;
      }

      .cls-39 {
        fill: #e38536;
      }

      .cls-40 {
        fill: #e9b92d;
      }

      .cls-41 {
        fill: url(#linear-gradient-2);
      }

      .cls-42 {
        fill: #e7a431;
      }

      .cls-43 {
        fill: #e59733;
      }

      .cls-44 {
        fill: #eabf2c;
      }

      .cls-45 {
        fill: #e48935;
      }

      .cls-46 {
        fill: url(#linear-gradient);
        mix-blend-mode: multiply;
      }

      .cls-73 {
        clip-path: url(#clippath);
      }

      .cls-47 {
        fill: #ebc22c;
      }

      .cls-48 {
        fill: #e8aa30;
      }

      .cls-49 {
        fill: #eabb2d;
      }

      .cls-50 {
        fill: #e8ab30;
      }

      .cls-51 {
        fill: #e6a031;
      }

      .cls-52 {
        fill: #e59134;
      }

      .cls-53 {
        fill: #e59633;
      }

      .cls-54 {
        fill: #e7a730;
      }

      .cls-55 {
        fill: #e59334;
      }

      .cls-74 {
        filter: url(#luminosity-noclip);
      }

      .cls-75 {
        mask: url(#mask-1);
      }

      .cls-76 {
        mask: url(#mask);
      }

      .cls-56 {
        fill: #e38835;
      }

      .cls-57 {
        fill: #e8ac2f;
      }

      .cls-58 {
        fill: #e48d35;
      }

      .cls-59 {
        fill: #e8b02f;
      }

      .cls-60 {
        fill: #eabd2d;
      }

      .cls-61 {
        fill: #3d1d55;
      }

      .cls-62 {
        fill: #ebc52b;
      }

      .cls-63 {
        fill: #e48a35;
      }

      .cls-64 {
        fill: #eabe2c;
      }

      .cls-65 {
        fill: #e69933;
      }

      .cls-66 {
        fill: #e38636;
      }

      .cls-67 {
        fill: #e9b42e;
      }

      .cls-68 {
        fill: #e48f34;
      }

      .cls-69 {
        fill: #eaba2d;
      }

      .cls-70 {
        fill: #e38736;
      }
    </style>
    <clipPath id="clippath">
      <polygon class="cls-25" points="1599.77 1345.38 1263.61 1744.5 504.97 2645.24 971.01 1572.94 69.78 1572.94 102.7 1536.07 1302.99 191.84 1322.89 169.56 1291.41 231.54 1235.49 341.53 732.04 1332.45 725.48 1345.38 1599.77 1345.38"/>
    </clipPath>
    <filter id="luminosity-noclip" x="312.3" y="761.54" width="1009" height="1344.34" color-interpolation-filters="sRGB" filterUnits="userSpaceOnUse">
      <feFlood flood-color="#fff" result="bg"/>
      <feBlend in="SourceGraphic" in2="bg"/>
    </filter>
    <filter id="luminosity-noclip-2" x="312.3" y="-9695.35" width="1009" height="32766" color-interpolation-filters="sRGB" filterUnits="userSpaceOnUse">
      <feFlood flood-color="#fff" result="bg"/>
      <feBlend in="SourceGraphic" in2="bg"/>
    </filter>
    <mask id="mask-1" x="312.3" y="-9695.35" width="1009" height="32766" maskUnits="userSpaceOnUse"/>
    <linearGradient id="linear-gradient" x1="684.41" y1="1868.8" x2="947.89" y2="1003.52" gradientUnits="userSpaceOnUse">
      <stop offset="0" stop-color="#000"/>
      <stop offset="1" stop-color="#fff"/>
    </linearGradient>
    <mask id="mask" x="312.3" y="761.54" width="1009" height="1344.34" maskUnits="userSpaceOnUse">
      <g class="cls-74">
        <g class="cls-75">
          <polygon class="cls-46" points="920.1 761.54 312.3 1460.65 1131.18 1460.65 834.77 2105.87 1321.3 1407.39 532.37 1407.39 920.1 761.54"/>
        </g>
      </g>
    </mask>
    <linearGradient id="linear-gradient-2" x1="684.41" y1="1868.8" x2="947.89" y2="1003.52" gradientUnits="userSpaceOnUse">
      <stop offset="0" stop-color="#ebc62b"/>
      <stop offset="1" stop-color="#ece1b0"/>
    </linearGradient>
  </defs>
  <polygon class="cls-39" points="69.78 1572.93 801.83 1701.67 504.99 2645.23 1072.8 1519.04 69.78 1572.93"/>
  <path class="cls-61" d="m504.98,2663.19c-2.26,0-4.55-.43-6.76-1.32-8.67-3.53-13.18-13.11-10.37-22.04l290.7-924.01-711.88-125.2c-8.99-1.58-15.37-9.66-14.82-18.77.55-9.12,7.85-16.37,16.97-16.86l1003.01-53.9c6.43-.28,12.5,2.75,16,8.12,3.51,5.36,3.89,12.19,1,17.91l-567.81,1126.19c-3.14,6.23-9.45,9.88-16.05,9.88ZM227.58,1582.44l577.37,101.54c5.09.89,9.55,3.94,12.24,8.36,2.69,4.42,3.33,9.79,1.78,14.72l-230.51,732.7,454.34-901.12-815.21,43.8Z"/>
  <polygon class="cls-39" points="1322.88 169.56 873.69 1345.38 562.51 1357.18 1322.88 169.56"/>
  <path class="cls-61" d="m562.51,1375.14c-6.43,0-12.38-3.44-15.59-9.04-3.32-5.81-3.14-12.97.46-18.61L1307.75,159.87c4.97-7.75,15-10.5,23.22-6.35,8.23,4.15,11.98,13.85,8.69,22.45l-449.19,1175.82c-2.57,6.72-8.91,11.27-16.1,11.54l-311.18,11.8c-.23,0-.46.01-.68.01ZM1243.64,326.64l-647.47,1011.28,264.98-10.04,382.49-1001.24Z"/>
  <g class="cls-73">
    <rect class="cls-39" x="69.78" y="169.56" width="1529.98" height="2475.67"/>
    <path class="cls-39" d="m1604.77,1407.4v654.5h23.99c-20.97,25.41-43.13,49.79-66.41,73.07-186.2,186.2-443.44,301.37-727.57,301.37s-541.37-115.17-727.57-301.37c-23.28-23.28-45.44-47.66-66.41-73.07h23.99V752.9h-23.99c20.97-25.41,43.13-49.79,66.41-73.07,186.2-186.2,443.44-301.37,727.57-301.37s541.37,115.17,727.57,301.37c23.28,23.28,45.44,47.66,66.41,73.07h-23.99v654.5Z"/>
    <path class="cls-66" d="m1604.77,1407.4v644.43h11.78c-20.65,25.02-42.47,49.03-65.39,71.95-183.34,183.34-436.62,296.73-716.38,296.73s-533.04-113.4-716.38-296.73c-22.92-22.92-44.74-46.93-65.39-71.95h11.78V762.97h-11.78c20.65-25.02,42.47-49.03,65.39-71.95,183.34-183.34,436.62-296.73,716.38-296.73s533.04,113.4,716.38,296.73c22.92,22.92,44.74,46.93,65.39,71.95h-11.78v644.43Z"/>
    <path class="cls-70" d="m1604.77,1407.4v596.69h29.17c-9.57,12.8-19.44,25.36-29.61,37.67-20.32,24.63-41.81,48.26-64.37,70.82-180.47,180.47-429.79,292.1-705.19,292.1s-524.71-111.62-705.19-292.1c-22.56-22.56-44.04-46.19-64.37-70.82-10.16-12.31-20.03-24.88-29.61-37.67h29.17V810.71h-29.17c9.57-12.8,19.44-25.36,29.61-37.67,20.32-24.63,41.81-48.26,64.37-70.82,180.47-180.47,429.79-292.1,705.19-292.1s524.71,111.62,705.19,292.1c22.56,22.56,44.04,46.19,64.37,70.82,10.16,12.31,20.03,24.88,29.61,37.67h-29.17v596.69Z"/>
    <path class="cls-56" d="m1604.77,1407.4v587.22h16.48c-9.42,12.6-19.14,24.96-29.14,37.08-20,24.24-41.14,47.5-63.34,69.7-177.61,177.61-422.97,287.46-693.99,287.46s-516.38-109.85-693.99-287.46c-22.2-22.2-43.34-45.46-63.34-69.7-10-12.12-19.72-24.48-29.14-37.08h16.48V820.18h-16.48c9.42-12.6,19.14-24.96,29.14-37.08,20-24.24,41.14-47.5,63.34-69.7,177.61-177.61,422.97-287.46,693.99-287.46s516.38,109.85,693.99,287.46c22.2,22.2,43.34,45.46,63.34,69.7,10,12.12,19.72,24.48,29.14,37.08h-16.48v587.22Z"/>
    <path class="cls-45" d="m1604.77,1407.4v539.89h30.72c-34.71,51.37-74.23,99.22-117.91,142.91-174.74,174.74-416.15,282.83-682.8,282.83s-508.06-108.08-682.8-282.83c-43.69-43.69-83.21-91.54-117.91-142.91h30.72V867.51h-30.72c34.71-51.37,74.23-99.22,117.91-142.91,174.74-174.74,416.15-282.82,682.8-282.82s508.06,108.08,682.8,282.82c43.69,43.69,83.21,91.54,117.91,142.91h-30.72v539.89Z"/>
    <path class="cls-63" d="m1604.77,1407.4v531.04h17.59c-34.14,50.53-73.01,97.6-115.98,140.57-171.88,171.88-409.33,278.19-671.61,278.19s-499.73-106.31-671.61-278.19c-42.97-42.97-81.84-90.04-115.98-140.57h17.59V876.36h-17.59c34.14-50.53,73.01-97.6,115.98-140.57,171.88-171.88,409.33-278.19,671.61-278.19s499.73,106.31,671.61,278.19c42.97,42.97,81.84,90.04,115.98,140.57h-17.59v531.04Z"/>
    <path class="cls-15" d="m1604.77,1407.4v522.19h4.47c-33.57,49.69-71.79,95.97-114.05,138.22-169.01,169.01-402.51,273.55-660.41,273.55s-491.4-104.54-660.41-273.55c-42.25-42.25-80.48-88.54-114.05-138.22h4.47V885.21h-4.47c33.57-49.69,71.79-95.97,114.05-138.22,169.01-169.01,402.51-273.55,660.41-273.55s491.4,104.54,660.41,273.55c42.25,42.25,80.48,88.54,114.05,138.22h-4.47v522.19Z"/>
    <path class="cls-12" d="m1604.77,1407.4v476.09h15.22c-7.67,12.62-15.63,25.04-23.88,37.25-33,48.85-70.58,94.34-112.11,135.88-166.15,166.15-395.68,268.92-649.22,268.92s-483.07-102.77-649.22-268.92c-41.54-41.54-79.11-87.04-112.11-135.88-8.25-12.21-16.21-24.63-23.88-37.25h15.22v-952.17h-15.22c7.67-12.62,15.63-25.04,23.88-37.25,33-48.85,70.58-94.34,112.11-135.88,166.15-166.15,395.68-268.92,649.22-268.92s483.07,102.77,649.22,268.92c41.54,41.54,79.11,87.04,112.11,135.88,8.25,12.21,16.21,24.63,23.88,37.25h-15.22v476.09Z"/>
    <path class="cls-58" d="m1604.77,1407.4v430.09h23.41c-13.89,25.57-28.98,50.39-45.2,74.4-32.43,48-69.36,92.72-110.18,133.54-163.29,163.29-388.86,264.28-638.03,264.28s-474.74-100.99-638.03-264.28c-40.82-40.82-77.75-85.54-110.18-133.54-16.22-24-31.31-48.83-45.2-74.4h23.41v-860.18h-23.41c13.89-25.57,28.98-50.39,45.2-74.4,32.43-48,69.36-92.72,110.18-133.54,163.29-163.29,388.86-264.28,638.03-264.28s474.74,100.99,638.03,264.28c40.82,40.82,77.75,85.54,110.18,133.54,16.22,24,31.31,48.83,45.2,74.4h-23.41v430.09Z"/>
    <path class="cls-2" d="m1604.77,1407.4v422.55h9.49c-13.65,25.12-28.47,49.51-44.4,73.09-31.86,47.16-68.14,91.09-108.25,131.2-160.42,160.42-382.04,259.64-626.83,259.64s-466.41-99.22-626.83-259.64c-40.11-40.11-76.39-84.04-108.25-131.2-15.93-23.58-30.76-47.97-44.4-73.09h9.49v-845.09h-9.49c13.65-25.12,28.47-49.51,44.4-73.09,31.86-47.16,68.14-91.09,108.25-131.2,160.42-160.42,382.04-259.64,626.83-259.64s466.41,99.22,626.83,259.64c40.11,40.11,76.39,84.04,108.25,131.2,15.93,23.58,30.76,47.97,44.4,73.09h-9.49v422.55Z"/>
    <path class="cls-68" d="m1604.77,1407.4v338.89h32.23c-44.06,104.16-107.81,197.97-186.59,276.74-157.56,157.56-375.22,255.01-615.64,255.01s-458.08-97.45-615.64-255.01c-78.78-78.78-142.53-172.58-186.59-276.74h32.23v-677.79h-32.23c44.06-104.16,107.81-197.97,186.59-276.74,157.56-157.56,375.22-255.01,615.64-255.01s458.08,97.45,615.64,255.01c78.78,78.78,142.53,172.58,186.59,276.74h-32.23v338.89Z"/>
    <path class="cls-9" d="m1604.77,1407.4v332.73h17.65c-43.26,102.27-105.85,194.37-183.19,271.71-154.69,154.69-368.39,250.37-604.45,250.37s-449.75-95.68-604.45-250.37c-77.35-77.35-139.94-169.44-183.19-271.71h17.65v-665.47h-17.65c43.26-102.27,105.85-194.37,183.19-271.71,154.69-154.69,368.4-250.37,604.45-250.37s449.75,95.68,604.45,250.37c77.35,77.35,139.94,169.44,183.19,271.71h-17.65v332.73Z"/>
    <path class="cls-52" d="m1604.77,1407.4v326.57h3.06c-42.45,100.37-103.89,190.77-179.8,266.68-151.83,151.83-361.57,245.73-593.25,245.73s-441.43-93.91-593.25-245.73c-75.91-75.91-137.35-166.31-179.8-266.68h3.06v-653.14h-3.06c42.45-100.37,103.89-190.77,179.8-266.68,151.83-151.83,361.57-245.73,593.25-245.73s441.43,93.91,593.25,245.73c75.91,75.91,137.35,166.31,179.8,266.68h-3.06v326.57Z"/>
    <path class="cls-20" d="m1604.77,1407.4v244.78h16.16c-8.02,25.78-17.27,51.01-27.68,75.63-41.65,98.48-101.93,187.17-176.41,261.65-148.96,148.96-354.75,241.1-582.06,241.1s-433.1-92.13-582.06-241.1c-74.48-74.48-134.76-163.17-176.41-261.65-10.41-24.62-19.66-49.85-27.68-75.63h16.16v-489.56h-16.16c8.02-25.78,17.27-51.01,27.68-75.63,41.65-98.48,101.93-187.17,176.41-261.65,148.96-148.96,354.75-241.1,582.06-241.1s433.1,92.13,582.06,241.1c74.48,74.48,134.76,163.17,176.41,261.65,10.41,24.62,19.66,49.85,27.68,75.63h-16.16v244.78Z"/>
    <path class="cls-55" d="m1604.77,1407.4v162.7h20.93c-10.75,52.56-26.62,103.25-47.04,151.54-40.85,96.59-99.97,183.57-173.02,256.62-146.1,146.1-347.93,236.46-570.87,236.46s-424.77-90.36-570.87-236.46c-73.05-73.05-132.16-160.03-173.02-256.62-20.43-48.29-36.29-98.99-47.04-151.54h20.93v-325.41h-20.93c10.75-52.56,26.62-103.25,47.04-151.54,40.85-96.59,99.97-183.57,173.02-256.62,146.1-146.1,347.93-236.46,570.87-236.46s424.77,90.36,570.87,236.46c73.05,73.05,132.16,160.03,173.02,256.62,20.43,48.29,36.29,98.99,47.04,151.54h-20.93v162.7Z"/>
    <circle class="cls-21" cx="834.78" cy="1407.4" r="791.5"/>
    <circle class="cls-19" cx="834.78" cy="1407.4" r="775.67"/>
    <circle class="cls-53" cx="834.78" cy="1407.4" r="759.84"/>
    <circle class="cls-43" cx="834.78" cy="1407.4" r="744.01"/>
    <circle class="cls-23" cx="834.78" cy="1407.4" r="728.18"/>
    <circle class="cls-65" cx="834.78" cy="1407.4" r="712.35"/>
    <circle class="cls-17" cx="834.78" cy="1407.4" r="696.52"/>
    <circle class="cls-16" cx="834.78" cy="1407.4" r="680.69"/>
    <circle class="cls-10" cx="834.78" cy="1407.4" r="664.86"/>
    <circle class="cls-4" cx="834.78" cy="1407.4" r="649.03"/>
    <circle class="cls-34" cx="834.78" cy="1407.4" r="633.2"/>
    <circle class="cls-14" cx="834.78" cy="1407.4" r="617.37"/>
    <circle class="cls-51" cx="834.78" cy="1407.4" r="601.54"/>
    <circle class="cls-32" cx="834.78" cy="1407.4" r="585.71"/>
    <circle class="cls-8" cx="834.78" cy="1407.4" r="569.88"/>
    <circle class="cls-33" cx="834.78" cy="1407.4" r="554.05"/>
    <circle class="cls-42" cx="834.78" cy="1407.4" r="538.22"/>
    <circle class="cls-38" cx="834.78" cy="1407.4" r="522.39"/>
    <circle class="cls-54" cx="834.78" cy="1407.4" r="506.56"/>
    <circle class="cls-24" cx="834.78" cy="1407.4" r="490.73"/>
    <circle class="cls-30" cx="834.78" cy="1407.4" r="474.9"/>
    <circle class="cls-48" cx="834.78" cy="1407.4" r="459.07"/>
    <circle class="cls-50" cx="834.78" cy="1407.4" r="443.24"/>
    <circle class="cls-57" cx="834.78" cy="1407.4" r="427.41"/>
    <circle class="cls-11" cx="834.78" cy="1407.4" r="411.58"/>
    <circle class="cls-29" cx="834.78" cy="1407.4" r="395.75"/>
    <circle class="cls-28" cx="834.78" cy="1407.4" r="379.92"/>
    <circle class="cls-59" cx="834.78" cy="1407.4" r="364.09"/>
    <circle class="cls-26" cx="834.78" cy="1407.4" r="348.26"/>
    <circle class="cls-22" cx="834.78" cy="1407.4" r="332.43"/>
    <circle class="cls-35" cx="834.78" cy="1407.4" r="316.6"/>
    <circle class="cls-67" cx="834.78" cy="1407.4" r="300.77"/>
    <circle class="cls-27" cx="834.78" cy="1407.4" r="284.94"/>
    <circle class="cls-1" cx="834.78" cy="1407.4" r="269.11"/>
    <circle class="cls-18" cx="834.78" cy="1407.4" r="253.28"/>
    <circle class="cls-7" cx="834.78" cy="1407.4" r="237.45" transform="translate(-750.68 1002.49) rotate(-45)"/>
    <circle class="cls-40" cx="834.78" cy="1407.4" r="221.62" transform="translate(-750.68 1002.49) rotate(-45)"/>
    <circle class="cls-69" cx="834.78" cy="1407.4" r="205.79"/>
    <circle class="cls-49" cx="834.78" cy="1407.4" r="189.96" transform="translate(-750.68 1002.49) rotate(-45)"/>
    <circle class="cls-13" cx="834.78" cy="1407.4" r="174.13" transform="translate(-750.68 1002.49) rotate(-45)"/>
    <circle class="cls-60" cx="834.78" cy="1407.4" r="158.3" transform="translate(-750.68 1002.49) rotate(-45)"/>
    <circle class="cls-64" cx="834.78" cy="1407.4" r="142.47" transform="translate(-750.68 1002.49) rotate(-45)"/>
    <circle class="cls-44" cx="834.78" cy="1407.4" r="126.64" transform="translate(-750.68 1002.49) rotate(-45)"/>
    <circle class="cls-3" cx="834.78" cy="1407.4" r="110.81"/>
    <circle class="cls-31" cx="834.78" cy="1407.4" r="94.98"/>
    <circle class="cls-47" cx="834.78" cy="1407.4" r="79.15" transform="translate(-688.17 2005.96) rotate(-80.78)"/>
    <circle class="cls-6" cx="834.78" cy="1407.4" r="63.32" transform="translate(-688.17 2005.96) rotate(-80.78)"/>
    <circle class="cls-36" cx="834.78" cy="1407.4" r="47.49" transform="translate(-475.05 426.59) rotate(-22.5)"/>
    <circle class="cls-62" cx="834.78" cy="1407.4" r="31.66" transform="translate(-475.05 426.59) rotate(-22.5)"/>
    <circle class="cls-5" cx="834.78" cy="1407.4" r="15.83" transform="translate(-475.05 426.59) rotate(-22.5)"/>
  </g>
  <g class="cls-71">
    <polygon class="cls-37" points="1263.61 1744.5 1514.44 1381.31 688.07 1381.31 731.46 1324.41 732.04 1332.45 732.98 1345.38 1599.77 1345.38 1263.61 1744.5"/>
  </g>
  <g class="cls-71">
    <path class="cls-37" d="m1302.99,191.84l-11.59,39.7-21.02,71.9-34.9,38.08L108.18,1572.94l-5.48,5.97v-42.85L1302.99,191.84Z"/>
  </g>
  <path class="cls-61" d="m1322.88,169.56l-449.18,1175.82h726.06L504.99,2645.22l296.85-943.55-732.05-128.75L1322.88,169.56M1426.11,0l-130.04,145.63L42.98,1549,0,1597.14l63.56,11.18,691.71,121.65-284.56,904.48-53.86,171.2,115.61-137.27,1094.77-1299.84,49.75-59.07h-751.11L1356.44,182.38,1426.11,0h0Z"/>
  <path class="cls-61" d="m504.98,2663.19c-3.25,0-6.52-.88-9.46-2.7-7.58-4.7-10.56-14.25-7.01-22.43l455.09-1047.17H69.78c-7.08,0-13.5-4.16-16.4-10.62-2.89-6.46-1.72-14.02,3-19.3L1309.48,157.6c6.01-6.73,16.09-7.95,23.54-2.87,7.45,5.09,9.97,14.93,5.88,22.97l-584.13,1149.72h844.99c6.99,0,13.34,4.05,16.29,10.39,2.95,6.34,1.95,13.81-2.55,19.15l-1094.77,1299.84c-3.52,4.18-8.6,6.39-13.75,6.39ZM109.91,1554.97h861.09c6.05,0,11.7,3.05,15.02,8.12,3.32,5.06,3.87,11.46,1.46,17.01l-416.98,959.47,990.64-1176.21h-835.65c-6.25,0-12.04-3.24-15.31-8.57-3.27-5.32-3.53-11.96-.7-17.53L1244.33,284.5,109.91,1554.97Z"/>
  <g class="cls-76">
    <polygon class="cls-41" points="920.1 761.54 312.3 1460.65 1131.18 1460.65 834.77 2105.87 1321.3 1407.39 532.37 1407.39 920.1 761.54"/>
  </g>
  <rect class="cls-61" x="780.12" y="1619.34" width="212.58" height="35.93" transform="translate(-810.47 871.1) rotate(-37.27)"/>
  <g class="cls-72">
    <polygon class="cls-61" points="801.83 1701.67 971 1572.93 69.78 1572.93 801.83 1701.67"/>
  </g>
</svg>