<?xml version="1.0" encoding="utf-8"?>
<!-- Generator: Adobe Illustrator 27.9.2, SVG Export Plug-In . SVG Version: 6.00 Build 0)  -->
<svg version="1.1" id="Layer_1" xmlns="http://www.w3.org/2000/svg" xmlns:xlink="http://www.w3.org/1999/xlink" x="0px" y="0px"
	 viewBox="0 0 2000 2000" style="enable-background:new 0 0 2000 2000;" xml:space="preserve">
<style type="text/css">
	.st0{fill:#FFFFFF;}
	.st1{fill:none;}
	.st2{fill:#FE7062;}
</style>
<g>
	<path class="st0" d="M1000,50C475.3,50,50,475.3,50,1000s425.3,950,950,950s950-425.3,950-950S1524.7,50,1000,50z M1521.1,1521
		c-86.3,0-156.3-70-156.3-156.3s70-156.3,156.3-156.3s156.3,70,156.3,156.3S1607.4,1521,1521.1,1521z M1644.8,1071.6l-162.3-162.3
		c-7.5-7.5-19.6-7.5-27,0l-389.8,389.8c-7.5,7.5-19.6,7.5-27,0L668,928.5c-12-12-32.6-3.5-32.6,13.5l1.3,559.9
		c0,10.6-8.5,19.1-19.1,19.1H341.7c-10.5,0-19.1-8.5-19.1-19.1V498c0-10.5,8.5-19.1,19.1-19.1h285.6c5.1,0,9.9,2,13.5,5.6
		l397.7,397.7c7.5,7.5,19.6,7.5,27,0L1247,700.9c7.5-7.5,7.5-19.5,0-27l-162.3-162.3c-12-12-3.5-32.6,13.5-32.6h560.1
		c10.5,0,19.1,8.5,19.1,19.1v560.1C1677.4,1075.1,1656.8,1083.6,1644.8,1071.6L1644.8,1071.6z"/>
	<path class="st1" d="M1677.4,498v560.1c0,17-20.6,25.5-32.6,13.5l-162.3-162.3c-7.5-7.5-19.6-7.5-27,0l-389.8,389.8
		c-7.5,7.5-19.6,7.5-27,0L668,928.5c-12-12-32.6-3.5-32.6,13.5l1.3,559.9c0,10.6-8.5,19.1-19.1,19.1H341.7
		c-10.5,0-19.1-8.5-19.1-19.1V498c0-10.5,8.5-19.1,19.1-19.1h285.6c5.1,0,9.9,2,13.5,5.6l397.7,397.7c7.5,7.5,19.6,7.5,27,0
		L1247,700.9c7.5-7.5,7.5-19.5,0-27l-162.3-162.3c-12-12-3.5-32.6,13.5-32.6h560.1C1668.8,478.9,1677.4,487.5,1677.4,498L1677.4,498
		z"/>
	<path class="st2" d="M1677.4,1364.7c0,86.3-70,156.3-156.3,156.3s-156.3-70-156.3-156.3s70-156.3,156.3-156.3
		S1677.4,1278.4,1677.4,1364.7L1677.4,1364.7z"/>
	<path class="st2" d="M1677.4,498v560.1c0,17-20.6,25.5-32.6,13.5l-162.3-162.3c-7.5-7.5-19.6-7.5-27,0l-389.8,389.8
		c-7.5,7.5-19.6,7.5-27,0L668,928.5c-12-12-32.6-3.5-32.6,13.5l1.3,559.9c0,10.6-8.5,19.1-19.1,19.1H341.7
		c-10.5,0-19.1-8.5-19.1-19.1V498c0-10.5,8.5-19.1,19.1-19.1h285.6c5.1,0,9.9,2,13.5,5.6l397.7,397.7c7.5,7.5,19.6,7.5,27,0
		L1247,700.9c7.5-7.5,7.5-19.5,0-27l-162.3-162.3c-12-12-3.5-32.6,13.5-32.6h560.1C1668.8,478.9,1677.4,487.5,1677.4,498L1677.4,498
		z"/>
</g>
</svg>
