<?xml version="1.0" encoding="UTF-8"?>
<svg data-bbox="50 50 1900 1900" viewBox="0 0 2000 2000" xmlns="http://www.w3.org/2000/svg" data-type="ugc">
    <g>
        <path d="M1000 50C475.33 50 50 475.33 50 1000s425.33 950 950 950 950-425.33 950-950-425.33-950-950-950Zm521.05 1471.04c-86.33 0-156.32-69.98-156.32-156.31s69.99-156.31 156.32-156.31 156.31 69.98 156.31 156.31-69.98 156.31-156.31 156.31Zm123.72-449.43-162.32-162.32c-7.46-7.46-19.55-7.46-27.01 0l-389.83 389.83c-7.46 7.46-19.55 7.46-27.01 0L667.97 928.49c-12.04-12.04-32.64-3.49-32.6 13.55l1.3 559.87c.02 10.56-8.53 19.13-19.1 19.13H341.73c-10.54 0-19.09-8.54-19.09-19.09V498.04c0-10.54 8.55-19.09 19.09-19.09h285.63c5.06 0 9.92 2.01 13.5 5.59l397.74 397.74c7.46 7.46 19.55 7.46 27.01 0l181.41-181.41c7.46-7.46 7.46-19.55 0-27L1084.7 511.55c-12.03-12.03-3.51-32.6 13.5-32.6h560.07c10.54 0 19.09 8.55 19.09 19.09v560.07c0 17.01-20.57 25.53-32.59 13.5Z" fill="#fe7062"/>
        <path d="M1677.36 498.04v560.07c0 17.01-20.57 25.53-32.59 13.5l-162.32-162.32c-7.46-7.46-19.55-7.46-27.01 0l-389.83 389.83c-7.46 7.46-19.55 7.46-27.01 0L667.97 928.49c-12.04-12.04-32.64-3.49-32.6 13.55l1.3 559.87c.02 10.56-8.53 19.13-19.1 19.13H341.73c-10.54 0-19.09-8.54-19.09-19.09V498.04c0-10.54 8.55-19.09 19.09-19.09h285.63c5.06 0 9.92 2.01 13.5 5.59l397.74 397.74c7.46 7.46 19.55 7.46 27.01 0l181.41-181.41c7.46-7.46 7.46-19.55 0-27L1084.7 511.55c-12.03-12.03-3.51-32.6 13.5-32.6h560.07c10.54 0 19.09 8.55 19.09 19.09Z" fill="none"/>
        <path d="M1677.36 1364.73c0 86.33-69.98 156.31-156.31 156.31s-156.32-69.98-156.32-156.31 69.99-156.31 156.32-156.31 156.31 69.98 156.31 156.31Z" fill="none"/>
        <path d="M1677.36 498.04v560.07c0 17.01-20.57 25.53-32.59 13.5l-162.32-162.32c-7.46-7.46-19.55-7.46-27.01 0l-389.83 389.83c-7.46 7.46-19.55 7.46-27.01 0L667.97 928.49c-12.04-12.04-32.64-3.49-32.6 13.55l1.3 559.87c.02 10.56-8.53 19.13-19.1 19.13H341.73c-10.54 0-19.09-8.54-19.09-19.09V498.04c0-10.54 8.55-19.09 19.09-19.09h285.63c5.06 0 9.92 2.01 13.5 5.59l397.74 397.74c7.46 7.46 19.55 7.46 27.01 0l181.41-181.41c7.46-7.46 7.46-19.55 0-27L1084.7 511.55c-12.03-12.03-3.51-32.6 13.5-32.6h560.07c10.54 0 19.09 8.55 19.09 19.09Z" fill="none"/>
    </g>
</svg>
