<?xml version="1.0" encoding="UTF-8"?>
<svg id="Layer_1" data-name="Layer 1" xmlns="http://www.w3.org/2000/svg" viewBox="0 0 1900 1900">
  <defs>
    <style>
      .cls-1 {
        fill: none;
      }

      .cls-2 {
        fill: #231f20;
      }
    </style>
  </defs>
  <path class="cls-2" d="m805.53,1437.97c-5.05-12.08-12.06-22.63-21.04-31.63-8.99-9.01-19.56-15.97-31.74-20.91-12.18-4.93-25.41-7.4-39.68-7.4s-27.87,2.47-40.05,7.4c-12.18,4.94-22.83,11.9-31.93,20.91-9.11,9-16.18,19.54-21.22,31.63-5.05,12.08-7.57,25.28-7.57,39.59s2.52,27.49,7.57,39.58c5.04,12.09,12.11,22.63,21.22,31.64,9.1,9,19.74,15.96,31.93,20.9,12.18,4.94,25.52,7.4,40.05,7.4s27.49-2.46,39.68-7.4c12.17-4.94,22.75-11.9,31.74-20.9,8.98-9.01,15.99-19.54,21.04-31.64,5.04-12.08,7.57-25.27,7.57-39.58s-2.53-27.5-7.57-39.59Zm0,0c-5.05-12.08-12.06-22.63-21.04-31.63-8.99-9.01-19.56-15.97-31.74-20.91-12.18-4.93-25.41-7.4-39.68-7.4s-27.87,2.47-40.05,7.4c-12.18,4.94-22.83,11.9-31.93,20.91-9.11,9-16.18,19.54-21.22,31.63-5.05,12.08-7.57,25.28-7.57,39.59s2.52,27.49,7.57,39.58c5.04,12.09,12.11,22.63,21.22,31.64,9.1,9,19.74,15.96,31.93,20.9,12.18,4.94,25.52,7.4,40.05,7.4s27.49-2.46,39.68-7.4c12.17-4.94,22.75-11.9,31.74-20.9,8.98-9.01,15.99-19.54,21.04-31.64,5.04-12.08,7.57-25.27,7.57-39.58s-2.53-27.5-7.57-39.59Zm0,0c-5.05-12.08-12.06-22.63-21.04-31.63-8.99-9.01-19.56-15.97-31.74-20.91-12.18-4.93-25.41-7.4-39.68-7.4s-27.87,2.47-40.05,7.4c-12.18,4.94-22.83,11.9-31.93,20.91-9.11,9-16.18,19.54-21.22,31.63-5.05,12.08-7.57,25.28-7.57,39.59s2.52,27.49,7.57,39.58c5.04,12.09,12.11,22.63,21.22,31.64,9.1,9,19.74,15.96,31.93,20.9,12.18,4.94,25.52,7.4,40.05,7.4s27.49-2.46,39.68-7.4c12.17-4.94,22.75-11.9,31.74-20.9,8.98-9.01,15.99-19.54,21.04-31.64,5.04-12.08,7.57-25.27,7.57-39.58s-2.53-27.5-7.57-39.59Zm0,0c-5.05-12.08-12.06-22.63-21.04-31.63-8.99-9.01-19.56-15.97-31.74-20.91-12.18-4.93-25.41-7.4-39.68-7.4s-27.87,2.47-40.05,7.4c-12.18,4.94-22.83,11.9-31.93,20.91-9.11,9-16.18,19.54-21.22,31.63-5.05,12.08-7.57,25.28-7.57,39.59s2.52,27.49,7.57,39.58c5.04,12.09,12.11,22.63,21.22,31.64,9.1,9,19.74,15.96,31.93,20.9,12.18,4.94,25.52,7.4,40.05,7.4s27.49-2.46,39.68-7.4c12.17-4.94,22.75-11.9,31.74-20.9,8.98-9.01,15.99-19.54,21.04-31.64,5.04-12.08,7.57-25.27,7.57-39.58s-2.53-27.5-7.57-39.59Zm-335.02,293.93c-2.06-4.93-4.92-9.23-8.57-12.9-3.66-3.67-7.97-6.5-12.94-8.51-4.97-2.01-10.35-3.02-16.17-3.02s-11.36,1.01-16.33,3.02c-4.97,2.01-9.3,4.85-13.01,8.51-3.71,3.67-6.59,7.97-8.66,12.9-2.05,4.93-3.09,10.3-3.09,16.13s1.04,11.21,3.09,16.13c2.06,4.93,4.95,9.22,8.66,12.89,3.71,3.67,8.04,6.51,13.01,8.52s10.4,3.02,16.33,3.02,11.21-1.01,16.17-3.02,9.28-4.86,12.94-8.52c3.66-3.67,6.51-7.96,8.57-12.89,2.05-4.93,3.09-10.3,3.09-16.13s-1.04-11.21-3.09-16.13Zm335.02-293.93c-5.05-12.08-12.06-22.63-21.04-31.63-8.99-9.01-19.56-15.97-31.74-20.91-12.18-4.93-25.41-7.4-39.68-7.4s-27.87,2.47-40.05,7.4c-12.18,4.94-22.83,11.9-31.93,20.91-9.11,9-16.18,19.54-21.22,31.63-5.05,12.08-7.57,25.28-7.57,39.59s2.52,27.49,7.57,39.58c5.04,12.09,12.11,22.63,21.22,31.64,9.1,9,19.74,15.96,31.93,20.9,12.18,4.94,25.52,7.4,40.05,7.4s27.49-2.46,39.68-7.4c12.17-4.94,22.75-11.9,31.74-20.9,8.98-9.01,15.99-19.54,21.04-31.64,5.04-12.08,7.57-25.27,7.57-39.58s-2.53-27.5-7.57-39.59Zm0,0c-5.05-12.08-12.06-22.63-21.04-31.63-8.99-9.01-19.56-15.97-31.74-20.91-12.18-4.93-25.41-7.4-39.68-7.4s-27.87,2.47-40.05,7.4c-12.18,4.94-22.83,11.9-31.93,20.91-9.11,9-16.18,19.54-21.22,31.63-5.05,12.08-7.57,25.28-7.57,39.59s2.52,27.49,7.57,39.58c5.04,12.09,12.11,22.63,21.22,31.64,9.1,9,19.74,15.96,31.93,20.9,12.18,4.94,25.52,7.4,40.05,7.4s27.49-2.46,39.68-7.4c12.17-4.94,22.75-11.9,31.74-20.9,8.98-9.01,15.99-19.54,21.04-31.64,5.04-12.08,7.57-25.27,7.57-39.58s-2.53-27.5-7.57-39.59Zm-335.02,293.93c-2.06-4.93-4.92-9.23-8.57-12.9-3.66-3.67-7.97-6.5-12.94-8.51-4.97-2.01-10.35-3.02-16.17-3.02s-11.36,1.01-16.33,3.02c-4.97,2.01-9.3,4.85-13.01,8.51-3.71,3.67-6.59,7.97-8.66,12.9-2.05,4.93-3.09,10.3-3.09,16.13s1.04,11.21,3.09,16.13c2.06,4.93,4.95,9.22,8.66,12.89,3.71,3.67,8.04,6.51,13.01,8.52s10.4,3.02,16.33,3.02,11.21-1.01,16.17-3.02,9.28-4.86,12.94-8.52c3.66-3.67,6.51-7.96,8.57-12.89,2.05-4.93,3.09-10.3,3.09-16.13s-1.04-11.21-3.09-16.13Zm0,0c-2.06-4.93-4.92-9.23-8.57-12.9-3.66-3.67-7.97-6.5-12.94-8.51-4.97-2.01-10.35-3.02-16.17-3.02s-11.36,1.01-16.33,3.02c-4.97,2.01-9.3,4.85-13.01,8.51-3.71,3.67-6.59,7.97-8.66,12.9-2.05,4.93-3.09,10.3-3.09,16.13s1.04,11.21,3.09,16.13c2.06,4.93,4.95,9.22,8.66,12.89,3.71,3.67,8.04,6.51,13.01,8.52s10.4,3.02,16.33,3.02,11.21-1.01,16.17-3.02,9.28-4.86,12.94-8.52c3.66-3.67,6.51-7.96,8.57-12.89,2.05-4.93,3.09-10.3,3.09-16.13s-1.04-11.21-3.09-16.13Zm335.02-293.93c-5.05-12.08-12.06-22.63-21.04-31.63-8.99-9.01-19.56-15.97-31.74-20.91-12.18-4.93-25.41-7.4-39.68-7.4s-27.87,2.47-40.05,7.4c-12.18,4.94-22.83,11.9-31.93,20.91-9.11,9-16.18,19.54-21.22,31.63-5.05,12.08-7.57,25.28-7.57,39.59s2.52,27.49,7.57,39.58c5.04,12.09,12.11,22.63,21.22,31.64,9.1,9,19.74,15.96,31.93,20.9,12.18,4.94,25.52,7.4,40.05,7.4s27.49-2.46,39.68-7.4c12.17-4.94,22.75-11.9,31.74-20.9,8.98-9.01,15.99-19.54,21.04-31.64,5.04-12.08,7.57-25.27,7.57-39.58s-2.53-27.5-7.57-39.59Zm0,0c-5.05-12.08-12.06-22.63-21.04-31.63-8.99-9.01-19.56-15.97-31.74-20.91-12.18-4.93-25.41-7.4-39.68-7.4s-27.87,2.47-40.05,7.4c-12.18,4.94-22.83,11.9-31.93,20.91-9.11,9-16.18,19.54-21.22,31.63-5.05,12.08-7.57,25.28-7.57,39.59s2.52,27.49,7.57,39.58c5.04,12.09,12.11,22.63,21.22,31.64,9.1,9,19.74,15.96,31.93,20.9,12.18,4.94,25.52,7.4,40.05,7.4s27.49-2.46,39.68-7.4c12.17-4.94,22.75-11.9,31.74-20.9,8.98-9.01,15.99-19.54,21.04-31.64,5.04-12.08,7.57-25.27,7.57-39.58s-2.53-27.5-7.57-39.59Zm-335.02,293.93c-2.06-4.93-4.92-9.23-8.57-12.9-3.66-3.67-7.97-6.5-12.94-8.51-4.97-2.01-10.35-3.02-16.17-3.02s-11.36,1.01-16.33,3.02c-4.97,2.01-9.3,4.85-13.01,8.51-3.71,3.67-6.59,7.97-8.66,12.9-2.05,4.93-3.09,10.3-3.09,16.13s1.04,11.21,3.09,16.13c2.06,4.93,4.95,9.22,8.66,12.89,3.71,3.67,8.04,6.51,13.01,8.52s10.4,3.02,16.33,3.02,11.21-1.01,16.17-3.02,9.28-4.86,12.94-8.52c3.66-3.67,6.51-7.96,8.57-12.89,2.05-4.93,3.09-10.3,3.09-16.13s-1.04-11.21-3.09-16.13Zm0,0c-2.06-4.93-4.92-9.23-8.57-12.9-3.66-3.67-7.97-6.5-12.94-8.51-4.97-2.01-10.35-3.02-16.17-3.02s-11.36,1.01-16.33,3.02c-4.97,2.01-9.3,4.85-13.01,8.51-3.71,3.67-6.59,7.97-8.66,12.9-2.05,4.93-3.09,10.3-3.09,16.13s1.04,11.21,3.09,16.13c2.06,4.93,4.95,9.22,8.66,12.89,3.71,3.67,8.04,6.51,13.01,8.52s10.4,3.02,16.33,3.02,11.21-1.01,16.17-3.02,9.28-4.86,12.94-8.52c3.66-3.67,6.51-7.96,8.57-12.89,2.05-4.93,3.09-10.3,3.09-16.13s-1.04-11.21-3.09-16.13Zm335.02-293.93c-5.05-12.08-12.06-22.63-21.04-31.63-8.99-9.01-19.56-15.97-31.74-20.91-12.18-4.93-25.41-7.4-39.68-7.4s-27.87,2.47-40.05,7.4c-12.18,4.94-22.83,11.9-31.93,20.91-9.11,9-16.18,19.54-21.22,31.63-5.05,12.08-7.57,25.28-7.57,39.59s2.52,27.49,7.57,39.58c5.04,12.09,12.11,22.63,21.22,31.64,9.1,9,19.74,15.96,31.93,20.9,12.18,4.94,25.52,7.4,40.05,7.4s27.49-2.46,39.68-7.4c12.17-4.94,22.75-11.9,31.74-20.9,8.98-9.01,15.99-19.54,21.04-31.64,5.04-12.08,7.57-25.27,7.57-39.58s-2.53-27.5-7.57-39.59Zm0,0c-5.05-12.08-12.06-22.63-21.04-31.63-8.99-9.01-19.56-15.97-31.74-20.91-12.18-4.93-25.41-7.4-39.68-7.4s-27.87,2.47-40.05,7.4c-12.18,4.94-22.83,11.9-31.93,20.91-9.11,9-16.18,19.54-21.22,31.63-5.05,12.08-7.57,25.28-7.57,39.59s2.52,27.49,7.57,39.58c5.04,12.09,12.11,22.63,21.22,31.64,9.1,9,19.74,15.96,31.93,20.9,12.18,4.94,25.52,7.4,40.05,7.4s27.49-2.46,39.68-7.4c12.17-4.94,22.75-11.9,31.74-20.9,8.98-9.01,15.99-19.54,21.04-31.64,5.04-12.08,7.57-25.27,7.57-39.58s-2.53-27.5-7.57-39.59Zm-335.02,293.93c-2.06-4.93-4.92-9.23-8.57-12.9-3.66-3.67-7.97-6.5-12.94-8.51-4.97-2.01-10.35-3.02-16.17-3.02s-11.36,1.01-16.33,3.02c-4.97,2.01-9.3,4.85-13.01,8.51-3.71,3.67-6.59,7.97-8.66,12.9-2.05,4.93-3.09,10.3-3.09,16.13s1.04,11.21,3.09,16.13c2.06,4.93,4.95,9.22,8.66,12.89,3.71,3.67,8.04,6.51,13.01,8.52s10.4,3.02,16.33,3.02,11.21-1.01,16.17-3.02,9.28-4.86,12.94-8.52c3.66-3.67,6.51-7.96,8.57-12.89,2.05-4.93,3.09-10.3,3.09-16.13s-1.04-11.21-3.09-16.13Zm0,0c-2.06-4.93-4.92-9.23-8.57-12.9-3.66-3.67-7.97-6.5-12.94-8.51-4.97-2.01-10.35-3.02-16.17-3.02s-11.36,1.01-16.33,3.02c-4.97,2.01-9.3,4.85-13.01,8.51-3.71,3.67-6.59,7.97-8.66,12.9-2.05,4.93-3.09,10.3-3.09,16.13s1.04,11.21,3.09,16.13c2.06,4.93,4.95,9.22,8.66,12.89,3.71,3.67,8.04,6.51,13.01,8.52s10.4,3.02,16.33,3.02,11.21-1.01,16.17-3.02,9.28-4.86,12.94-8.52c3.66-3.67,6.51-7.96,8.57-12.89,2.05-4.93,3.09-10.3,3.09-16.13s-1.04-11.21-3.09-16.13Zm335.02-293.93c-5.05-12.08-12.06-22.63-21.04-31.63-8.99-9.01-19.56-15.97-31.74-20.91-12.18-4.93-25.41-7.4-39.68-7.4s-27.87,2.47-40.05,7.4c-12.18,4.94-22.83,11.9-31.93,20.91-9.11,9-16.18,19.54-21.22,31.63-5.05,12.08-7.57,25.28-7.57,39.59s2.52,27.49,7.57,39.58c5.04,12.09,12.11,22.63,21.22,31.64,9.1,9,19.74,15.96,31.93,20.9,12.18,4.94,25.52,7.4,40.05,7.4s27.49-2.46,39.68-7.4c12.17-4.94,22.75-11.9,31.74-20.9,8.98-9.01,15.99-19.54,21.04-31.64,5.04-12.08,7.57-25.27,7.57-39.58s-2.53-27.5-7.57-39.59Zm207.85,289.25c-3.51-5.93-8.44-10.56-14.82-13.87-6.36-3.32-13.91-4.98-22.64-4.98h-28.44v79.32h28.44c8.73,0,16.28-1.66,22.64-4.98,6.37-3.32,11.31-7.97,14.82-13.95,3.51-5.97,5.27-12.89,5.27-20.73s-1.76-14.88-5.27-20.81Zm0,0c-3.51-5.93-8.44-10.56-14.82-13.87-6.36-3.32-13.91-4.98-22.64-4.98h-28.44v79.32h28.44c8.73,0,16.28-1.66,22.64-4.98,6.37-3.32,11.31-7.97,14.82-13.95,3.51-5.97,5.27-12.89,5.27-20.73s-1.76-14.88-5.27-20.81Zm-207.85-289.25c-5.05-12.08-12.06-22.63-21.04-31.63-8.99-9.01-19.56-15.97-31.74-20.91-12.18-4.93-25.41-7.4-39.68-7.4s-27.87,2.47-40.05,7.4c-12.18,4.94-22.83,11.9-31.93,20.91-9.11,9-16.18,19.54-21.22,31.63-5.05,12.08-7.57,25.28-7.57,39.59s2.52,27.49,7.57,39.58c5.04,12.09,12.11,22.63,21.22,31.64,9.1,9,19.74,15.96,31.93,20.9,12.18,4.94,25.52,7.4,40.05,7.4s27.49-2.46,39.68-7.4c12.17-4.94,22.75-11.9,31.74-20.9,8.98-9.01,15.99-19.54,21.04-31.64,5.04-12.08,7.57-25.27,7.57-39.58s-2.53-27.5-7.57-39.59Zm-335.02,293.93c-2.06-4.93-4.92-9.23-8.57-12.9-3.66-3.67-7.97-6.5-12.94-8.51-4.97-2.01-10.35-3.02-16.17-3.02s-11.36,1.01-16.33,3.02c-4.97,2.01-9.3,4.85-13.01,8.51-3.71,3.67-6.59,7.97-8.66,12.9-2.05,4.93-3.09,10.3-3.09,16.13s1.04,11.21,3.09,16.13c2.06,4.93,4.95,9.22,8.66,12.89,3.71,3.67,8.04,6.51,13.01,8.52s10.4,3.02,16.33,3.02,11.21-1.01,16.17-3.02,9.28-4.86,12.94-8.52c3.66-3.67,6.51-7.96,8.57-12.89,2.05-4.93,3.09-10.3,3.09-16.13s-1.04-11.21-3.09-16.13Zm0,0c-2.06-4.93-4.92-9.23-8.57-12.9-3.66-3.67-7.97-6.5-12.94-8.51-4.97-2.01-10.35-3.02-16.17-3.02s-11.36,1.01-16.33,3.02c-4.97,2.01-9.3,4.85-13.01,8.51-3.71,3.67-6.59,7.97-8.66,12.9-2.05,4.93-3.09,10.3-3.09,16.13s1.04,11.21,3.09,16.13c2.06,4.93,4.95,9.22,8.66,12.89,3.71,3.67,8.04,6.51,13.01,8.52s10.4,3.02,16.33,3.02,11.21-1.01,16.17-3.02,9.28-4.86,12.94-8.52c3.66-3.67,6.51-7.96,8.57-12.89,2.05-4.93,3.09-10.3,3.09-16.13s-1.04-11.21-3.09-16.13Zm335.02-293.93c-5.05-12.08-12.06-22.63-21.04-31.63-8.99-9.01-19.56-15.97-31.74-20.91-12.18-4.93-25.41-7.4-39.68-7.4s-27.87,2.47-40.05,7.4c-12.18,4.94-22.83,11.9-31.93,20.91-9.11,9-16.18,19.54-21.22,31.63-5.05,12.08-7.57,25.28-7.57,39.59s2.52,27.49,7.57,39.58c5.04,12.09,12.11,22.63,21.22,31.64,9.1,9,19.74,15.96,31.93,20.9,12.18,4.94,25.52,7.4,40.05,7.4s27.49-2.46,39.68-7.4c12.17-4.94,22.75-11.9,31.74-20.9,8.98-9.01,15.99-19.54,21.04-31.64,5.04-12.08,7.57-25.27,7.57-39.58s-2.53-27.5-7.57-39.59Zm207.85,289.25c-3.51-5.93-8.44-10.56-14.82-13.87-6.36-3.32-13.91-4.98-22.64-4.98h-28.44v79.32h28.44c8.73,0,16.28-1.66,22.64-4.98,6.37-3.32,11.31-7.97,14.82-13.95,3.51-5.97,5.27-12.89,5.27-20.73s-1.76-14.88-5.27-20.81Zm0,0c-3.51-5.93-8.44-10.56-14.82-13.87-6.36-3.32-13.91-4.98-22.64-4.98h-28.44v79.32h28.44c8.73,0,16.28-1.66,22.64-4.98,6.37-3.32,11.31-7.97,14.82-13.95,3.51-5.97,5.27-12.89,5.27-20.73s-1.76-14.88-5.27-20.81Zm-207.85-289.25c-5.05-12.08-12.06-22.63-21.04-31.63-8.99-9.01-19.56-15.97-31.74-20.91-12.18-4.93-25.41-7.4-39.68-7.4s-27.87,2.47-40.05,7.4c-12.18,4.94-22.83,11.9-31.93,20.91-9.11,9-16.18,19.54-21.22,31.63-5.05,12.08-7.57,25.28-7.57,39.59s2.52,27.49,7.57,39.58c5.04,12.09,12.11,22.63,21.22,31.64,9.1,9,19.74,15.96,31.93,20.9,12.18,4.94,25.52,7.4,40.05,7.4s27.49-2.46,39.68-7.4c12.17-4.94,22.75-11.9,31.74-20.9,8.98-9.01,15.99-19.54,21.04-31.64,5.04-12.08,7.57-25.27,7.57-39.58s-2.53-27.5-7.57-39.59Zm-335.02,293.93c-2.06-4.93-4.92-9.23-8.57-12.9-3.66-3.67-7.97-6.5-12.94-8.51-4.97-2.01-10.35-3.02-16.17-3.02s-11.36,1.01-16.33,3.02c-4.97,2.01-9.3,4.85-13.01,8.51-3.71,3.67-6.59,7.97-8.66,12.9-2.05,4.93-3.09,10.3-3.09,16.13s1.04,11.21,3.09,16.13c2.06,4.93,4.95,9.22,8.66,12.89,3.71,3.67,8.04,6.51,13.01,8.52s10.4,3.02,16.33,3.02,11.21-1.01,16.17-3.02,9.28-4.86,12.94-8.52c3.66-3.67,6.51-7.96,8.57-12.89,2.05-4.93,3.09-10.3,3.09-16.13s-1.04-11.21-3.09-16.13Zm0,0c-2.06-4.93-4.92-9.23-8.57-12.9-3.66-3.67-7.97-6.5-12.94-8.51-4.97-2.01-10.35-3.02-16.17-3.02s-11.36,1.01-16.33,3.02c-4.97,2.01-9.3,4.85-13.01,8.51-3.71,3.67-6.59,7.97-8.66,12.9-2.05,4.93-3.09,10.3-3.09,16.13s1.04,11.21,3.09,16.13c2.06,4.93,4.95,9.22,8.66,12.89,3.71,3.67,8.04,6.51,13.01,8.52s10.4,3.02,16.33,3.02,11.21-1.01,16.17-3.02,9.28-4.86,12.94-8.52c3.66-3.67,6.51-7.96,8.57-12.89,2.05-4.93,3.09-10.3,3.09-16.13s-1.04-11.21-3.09-16.13Zm335.02-293.93c-5.05-12.08-12.06-22.63-21.04-31.63-8.99-9.01-19.56-15.97-31.74-20.91-12.18-4.93-25.41-7.4-39.68-7.4s-27.87,2.47-40.05,7.4c-12.18,4.94-22.83,11.9-31.93,20.91-9.11,9-16.18,19.54-21.22,31.63-5.05,12.08-7.57,25.28-7.57,39.59s2.52,27.49,7.57,39.58c5.04,12.09,12.11,22.63,21.22,31.64,9.1,9,19.74,15.96,31.93,20.9,12.18,4.94,25.52,7.4,40.05,7.4s27.49-2.46,39.68-7.4c12.17-4.94,22.75-11.9,31.74-20.9,8.98-9.01,15.99-19.54,21.04-31.64,5.04-12.08,7.57-25.27,7.57-39.58s-2.53-27.5-7.57-39.59Zm207.85,289.25c-3.51-5.93-8.44-10.56-14.82-13.87-6.36-3.32-13.91-4.98-22.64-4.98h-28.44v79.32h28.44c8.73,0,16.28-1.66,22.64-4.98,6.37-3.32,11.31-7.97,14.82-13.95,3.51-5.97,5.27-12.89,5.27-20.73s-1.76-14.88-5.27-20.81Zm0,0c-3.51-5.93-8.44-10.56-14.82-13.87-6.36-3.32-13.91-4.98-22.64-4.98h-28.44v79.32h28.44c8.73,0,16.28-1.66,22.64-4.98,6.37-3.32,11.31-7.97,14.82-13.95,3.51-5.97,5.27-12.89,5.27-20.73s-1.76-14.88-5.27-20.81Zm-207.85-289.25c-5.05-12.08-12.06-22.63-21.04-31.63-8.99-9.01-19.56-15.97-31.74-20.91-12.18-4.93-25.41-7.4-39.68-7.4s-27.87,2.47-40.05,7.4c-12.18,4.94-22.83,11.9-31.93,20.91-9.11,9-16.18,19.54-21.22,31.63-5.05,12.08-7.57,25.28-7.57,39.59s2.52,27.49,7.57,39.58c5.04,12.09,12.11,22.63,21.22,31.64,9.1,9,19.74,15.96,31.93,20.9,12.18,4.94,25.52,7.4,40.05,7.4s27.49-2.46,39.68-7.4c12.17-4.94,22.75-11.9,31.74-20.9,8.98-9.01,15.99-19.54,21.04-31.64,5.04-12.08,7.57-25.27,7.57-39.58s-2.53-27.5-7.57-39.59Zm-335.02,293.93c-2.06-4.93-4.92-9.23-8.57-12.9-3.66-3.67-7.97-6.5-12.94-8.51-4.97-2.01-10.35-3.02-16.17-3.02s-11.36,1.01-16.33,3.02c-4.97,2.01-9.3,4.85-13.01,8.51-3.71,3.67-6.59,7.97-8.66,12.9-2.05,4.93-3.09,10.3-3.09,16.13s1.04,11.21,3.09,16.13c2.06,4.93,4.95,9.22,8.66,12.89,3.71,3.67,8.04,6.51,13.01,8.52s10.4,3.02,16.33,3.02,11.21-1.01,16.17-3.02,9.28-4.86,12.94-8.52c3.66-3.67,6.51-7.96,8.57-12.89,2.05-4.93,3.09-10.3,3.09-16.13s-1.04-11.21-3.09-16.13Zm0,0c-2.06-4.93-4.92-9.23-8.57-12.9-3.66-3.67-7.97-6.5-12.94-8.51-4.97-2.01-10.35-3.02-16.17-3.02s-11.36,1.01-16.33,3.02c-4.97,2.01-9.3,4.85-13.01,8.51-3.71,3.67-6.59,7.97-8.66,12.9-2.05,4.93-3.09,10.3-3.09,16.13s1.04,11.21,3.09,16.13c2.06,4.93,4.95,9.22,8.66,12.89,3.71,3.67,8.04,6.51,13.01,8.52s10.4,3.02,16.33,3.02,11.21-1.01,16.17-3.02,9.28-4.86,12.94-8.52c3.66-3.67,6.51-7.96,8.57-12.89,2.05-4.93,3.09-10.3,3.09-16.13s-1.04-11.21-3.09-16.13Zm335.02-293.93c-5.05-12.08-12.06-22.63-21.04-31.63-8.99-9.01-19.56-15.97-31.74-20.91-12.18-4.93-25.41-7.4-39.68-7.4s-27.87,2.47-40.05,7.4c-12.18,4.94-22.83,11.9-31.93,20.91-9.11,9-16.18,19.54-21.22,31.63-5.05,12.08-7.57,25.28-7.57,39.59s2.52,27.49,7.57,39.58c5.04,12.09,12.11,22.63,21.22,31.64,9.1,9,19.74,15.96,31.93,20.9,12.18,4.94,25.52,7.4,40.05,7.4s27.49-2.46,39.68-7.4c12.17-4.94,22.75-11.9,31.74-20.9,8.98-9.01,15.99-19.54,21.04-31.64,5.04-12.08,7.57-25.27,7.57-39.58s-2.53-27.5-7.57-39.59Zm207.85,289.25c-3.51-5.93-8.44-10.56-14.82-13.87-6.36-3.32-13.91-4.98-22.64-4.98h-28.44v79.32h28.44c8.73,0,16.28-1.66,22.64-4.98,6.37-3.32,11.31-7.97,14.82-13.95,3.51-5.97,5.27-12.89,5.27-20.73s-1.76-14.88-5.27-20.81Zm0,0c-3.51-5.93-8.44-10.56-14.82-13.87-6.36-3.32-13.91-4.98-22.64-4.98h-28.44v79.32h28.44c8.73,0,16.28-1.66,22.64-4.98,6.37-3.32,11.31-7.97,14.82-13.95,3.51-5.97,5.27-12.89,5.27-20.73s-1.76-14.88-5.27-20.81Zm-207.85-289.25c-5.05-12.08-12.06-22.63-21.04-31.63-8.99-9.01-19.56-15.97-31.74-20.91-12.18-4.93-25.41-7.4-39.68-7.4s-27.87,2.47-40.05,7.4c-12.18,4.94-22.83,11.9-31.93,20.91-9.11,9-16.18,19.54-21.22,31.63-5.05,12.08-7.57,25.28-7.57,39.59s2.52,27.49,7.57,39.58c5.04,12.09,12.11,22.63,21.22,31.64,9.1,9,19.74,15.96,31.93,20.9,12.18,4.94,25.52,7.4,40.05,7.4s27.49-2.46,39.68-7.4c12.17-4.94,22.75-11.9,31.74-20.9,8.98-9.01,15.99-19.54,21.04-31.64,5.04-12.08,7.57-25.27,7.57-39.58s-2.53-27.5-7.57-39.59Zm-335.02,293.93c-2.06-4.93-4.92-9.23-8.57-12.9-3.66-3.67-7.97-6.5-12.94-8.51-4.97-2.01-10.35-3.02-16.17-3.02s-11.36,1.01-16.33,3.02c-4.97,2.01-9.3,4.85-13.01,8.51-3.71,3.67-6.59,7.97-8.66,12.9-2.05,4.93-3.09,10.3-3.09,16.13s1.04,11.21,3.09,16.13c2.06,4.93,4.95,9.22,8.66,12.89,3.71,3.67,8.04,6.51,13.01,8.52s10.4,3.02,16.33,3.02,11.21-1.01,16.17-3.02,9.28-4.86,12.94-8.52c3.66-3.67,6.51-7.96,8.57-12.89,2.05-4.93,3.09-10.3,3.09-16.13s-1.04-11.21-3.09-16.13Zm0,0c-2.06-4.93-4.92-9.23-8.57-12.9-3.66-3.67-7.97-6.5-12.94-8.51-4.97-2.01-10.35-3.02-16.17-3.02s-11.36,1.01-16.33,3.02c-4.97,2.01-9.3,4.85-13.01,8.51-3.71,3.67-6.59,7.97-8.66,12.9-2.05,4.93-3.09,10.3-3.09,16.13s1.04,11.21,3.09,16.13c2.06,4.93,4.95,9.22,8.66,12.89,3.71,3.67,8.04,6.51,13.01,8.52s10.4,3.02,16.33,3.02,11.21-1.01,16.17-3.02,9.28-4.86,12.94-8.52c3.66-3.67,6.51-7.96,8.57-12.89,2.05-4.93,3.09-10.3,3.09-16.13s-1.04-11.21-3.09-16.13Zm335.02-293.93c-5.05-12.08-12.06-22.63-21.04-31.63-8.99-9.01-19.56-15.97-31.74-20.91-12.18-4.93-25.41-7.4-39.68-7.4s-27.87,2.47-40.05,7.4c-12.18,4.94-22.83,11.9-31.93,20.91-9.11,9-16.18,19.54-21.22,31.63-5.05,12.08-7.57,25.28-7.57,39.59s2.52,27.49,7.57,39.58c5.04,12.09,12.11,22.63,21.22,31.64,9.1,9,19.74,15.96,31.93,20.9,12.18,4.94,25.52,7.4,40.05,7.4s27.49-2.46,39.68-7.4c12.17-4.94,22.75-11.9,31.74-20.9,8.98-9.01,15.99-19.54,21.04-31.64,5.04-12.08,7.57-25.27,7.57-39.58s-2.53-27.5-7.57-39.59Zm207.85,289.25c-3.51-5.93-8.44-10.56-14.82-13.87-6.36-3.32-13.91-4.98-22.64-4.98h-28.44v79.32h28.44c8.73,0,16.28-1.66,22.64-4.98,6.37-3.32,11.31-7.97,14.82-13.95,3.51-5.97,5.27-12.89,5.27-20.73s-1.76-14.88-5.27-20.81Zm0,0c-3.51-5.93-8.44-10.56-14.82-13.87-6.36-3.32-13.91-4.98-22.64-4.98h-28.44v79.32h28.44c8.73,0,16.28-1.66,22.64-4.98,6.37-3.32,11.31-7.97,14.82-13.95,3.51-5.97,5.27-12.89,5.27-20.73s-1.76-14.88-5.27-20.81Zm-207.85-289.25c-5.05-12.08-12.06-22.63-21.04-31.63-8.99-9.01-19.56-15.97-31.74-20.91-12.18-4.93-25.41-7.4-39.68-7.4s-27.87,2.47-40.05,7.4c-12.18,4.94-22.83,11.9-31.93,20.91-9.11,9-16.18,19.54-21.22,31.63-5.05,12.08-7.57,25.28-7.57,39.59s2.52,27.49,7.57,39.58c5.04,12.09,12.11,22.63,21.22,31.64,9.1,9,19.74,15.96,31.93,20.9,12.18,4.94,25.52,7.4,40.05,7.4s27.49-2.46,39.68-7.4c12.17-4.94,22.75-11.9,31.74-20.9,8.98-9.01,15.99-19.54,21.04-31.64,5.04-12.08,7.57-25.27,7.57-39.58s-2.53-27.5-7.57-39.59Zm-335.02,293.93c-2.06-4.93-4.92-9.23-8.57-12.9-3.66-3.67-7.97-6.5-12.94-8.51-4.97-2.01-10.35-3.02-16.17-3.02s-11.36,1.01-16.33,3.02c-4.97,2.01-9.3,4.85-13.01,8.51-3.71,3.67-6.59,7.97-8.66,12.9-2.05,4.93-3.09,10.3-3.09,16.13s1.04,11.21,3.09,16.13c2.06,4.93,4.95,9.22,8.66,12.89,3.71,3.67,8.04,6.51,13.01,8.52s10.4,3.02,16.33,3.02,11.21-1.01,16.17-3.02,9.28-4.86,12.94-8.52c3.66-3.67,6.51-7.96,8.57-12.89,2.05-4.93,3.09-10.3,3.09-16.13s-1.04-11.21-3.09-16.13Zm0,0c-2.06-4.93-4.92-9.23-8.57-12.9-3.66-3.67-7.97-6.5-12.94-8.51-4.97-2.01-10.35-3.02-16.17-3.02s-11.36,1.01-16.33,3.02c-4.97,2.01-9.3,4.85-13.01,8.51-3.71,3.67-6.59,7.97-8.66,12.9-2.05,4.93-3.09,10.3-3.09,16.13s1.04,11.21,3.09,16.13c2.06,4.93,4.95,9.22,8.66,12.89,3.71,3.67,8.04,6.51,13.01,8.52s10.4,3.02,16.33,3.02,11.21-1.01,16.17-3.02,9.28-4.86,12.94-8.52c3.66-3.67,6.51-7.96,8.57-12.89,2.05-4.93,3.09-10.3,3.09-16.13s-1.04-11.21-3.09-16.13Zm335.02-293.93c-5.05-12.08-12.06-22.63-21.04-31.63-8.99-9.01-19.56-15.97-31.74-20.91-12.18-4.93-25.41-7.4-39.68-7.4s-27.87,2.47-40.05,7.4c-12.18,4.94-22.83,11.9-31.93,20.91-9.11,9-16.18,19.54-21.22,31.63-5.05,12.08-7.57,25.28-7.57,39.59s2.52,27.49,7.57,39.58c5.04,12.09,12.11,22.63,21.22,31.64,9.1,9,19.74,15.96,31.93,20.9,12.18,4.94,25.52,7.4,40.05,7.4s27.49-2.46,39.68-7.4c12.17-4.94,22.75-11.9,31.74-20.9,8.98-9.01,15.99-19.54,21.04-31.64,5.04-12.08,7.57-25.27,7.57-39.58s-2.53-27.5-7.57-39.59Zm207.85,289.25c-3.51-5.93-8.44-10.56-14.82-13.87-6.36-3.32-13.91-4.98-22.64-4.98h-28.44v79.32h28.44c8.73,0,16.28-1.66,22.64-4.98,6.37-3.32,11.31-7.97,14.82-13.95,3.51-5.97,5.27-12.89,5.27-20.73s-1.76-14.88-5.27-20.81Zm0,0c-3.51-5.93-8.44-10.56-14.82-13.87-6.36-3.32-13.91-4.98-22.64-4.98h-28.44v79.32h28.44c8.73,0,16.28-1.66,22.64-4.98,6.37-3.32,11.31-7.97,14.82-13.95,3.51-5.97,5.27-12.89,5.27-20.73s-1.76-14.88-5.27-20.81Zm-207.85-289.25c-5.05-12.08-12.06-22.63-21.04-31.63-8.99-9.01-19.56-15.97-31.74-20.91-12.18-4.93-25.41-7.4-39.68-7.4s-27.87,2.47-40.05,7.4c-12.18,4.94-22.83,11.9-31.93,20.91-9.11,9-16.18,19.54-21.22,31.63-5.05,12.08-7.57,25.28-7.57,39.59s2.52,27.49,7.57,39.58c5.04,12.09,12.11,22.63,21.22,31.64,9.1,9,19.74,15.96,31.93,20.9,12.18,4.94,25.52,7.4,40.05,7.4s27.49-2.46,39.68-7.4c12.17-4.94,22.75-11.9,31.74-20.9,8.98-9.01,15.99-19.54,21.04-31.64,5.04-12.08,7.57-25.27,7.57-39.58s-2.53-27.5-7.57-39.59Zm-335.02,293.93c-2.06-4.93-4.92-9.23-8.57-12.9-3.66-3.67-7.97-6.5-12.94-8.51-4.97-2.01-10.35-3.02-16.17-3.02s-11.36,1.01-16.33,3.02c-4.97,2.01-9.3,4.85-13.01,8.51-3.71,3.67-6.59,7.97-8.66,12.9-2.05,4.93-3.09,10.3-3.09,16.13s1.04,11.21,3.09,16.13c2.06,4.93,4.95,9.22,8.66,12.89,3.71,3.67,8.04,6.51,13.01,8.52s10.4,3.02,16.33,3.02,11.21-1.01,16.17-3.02,9.28-4.86,12.94-8.52c3.66-3.67,6.51-7.96,8.57-12.89,2.05-4.93,3.09-10.3,3.09-16.13s-1.04-11.21-3.09-16.13ZM-5-5v1910h1910V-5H-5Zm254.21,1769.24c2.05,4.98,4.94,9.28,8.65,12.9,3.71,3.62,8.1,6.43,13.17,8.44,5.06,2.01,10.56,3.02,16.47,3.02s11.09-1.04,16.1-3.1c5.02-2.05,9.53-5.25,13.54-9.57l9.77,9.5c-4.8,5.43-10.66,9.55-17.52,12.36-6.88,2.81-14.42,4.22-22.64,4.22s-15.42-1.34-22.2-4c-6.77-2.66-12.64-6.43-17.6-11.31-4.97-4.88-8.85-10.58-11.66-17.11-2.8-6.53-4.21-13.72-4.21-21.56s1.41-15.03,4.21-21.56c2.81-6.53,6.73-12.23,11.74-17.12,5.01-4.88,10.91-8.65,17.67-11.31,6.78-2.65,14.16-3.99,22.2-3.99s15.61,1.38,22.49,4.14c6.87,2.77,12.72,6.87,17.52,12.29l-9.77,9.5c-4.01-4.22-8.52-7.37-13.54-9.43-5.02-2.05-10.38-3.09-16.1-3.09s-11.41,1.01-16.47,3.02c-5.07,2.01-9.46,4.83-13.17,8.44-3.71,3.62-6.59,7.91-8.65,12.89-2.06,4.98-3.09,10.38-3.09,16.22s1.03,11.23,3.09,16.2Zm235.29,5.36c-2.76,6.53-6.67,12.23-11.73,17.11-5.07,4.88-10.99,8.65-17.75,11.31-6.78,2.66-14.17,4-22.2,4s-15.47-1.36-22.34-4.07c-6.88-2.71-12.82-6.5-17.83-11.39-5.02-4.88-8.93-10.58-11.73-17.11-2.8-6.53-4.21-13.67-4.21-21.41s1.41-14.88,4.21-21.41c2.8-6.53,6.72-12.24,11.73-17.12s10.94-8.67,17.75-11.38c6.83-2.71,14.3-4.07,22.42-4.07s15.42,1.34,22.2,3.99c6.77,2.66,12.69,6.43,17.75,11.31,5.06,4.89,8.97,10.59,11.73,17.12,2.75,6.53,4.13,13.72,4.13,21.56s-1.38,15.03-4.13,21.56Zm-.99-162.56l-.34-188.84-93.41,157.39h-16.98l-93.38-156.22v187.66h-35.44v-258.96h30.27l107.72,181.89,106.35-181.89h30.27l.37,258.96h-35.44Zm157.83,193.77h-12.33l-63.18-78.64v78.64h-15.05v-105.55h12.33l63.19,78.66v-78.66h15.04v105.55Zm145.03-92.43h-59.27v36.79h52.81v12.97h-52.81v42.67h-15.05v-105.55h74.32v13.12Zm24.71-135.93c-12.43,11.96-26.95,21.21-43.56,27.75-16.61,6.53-34.75,9.8-54.43,9.8s-37.96-3.33-54.82-9.99c-16.86-6.65-31.43-15.96-43.73-27.93-12.31-11.96-21.9-25.96-28.79-41.99-6.9-16.02-10.33-33.54-10.33-52.53s3.44-36.5,10.33-52.53c6.89-16.03,16.48-30.03,28.79-41.99,12.29-11.95,26.81-21.27,43.55-27.93,16.73-6.66,35.06-9.99,55-9.99s37.83,3.28,54.43,9.8c16.61,6.54,31.12,15.79,43.56,27.75,12.41,11.97,22.02,25.97,28.79,41.99,6.76,16.03,10.14,33.67,10.14,52.91s-3.39,36.86-10.14,52.9c-6.78,16.03-16.38,30.03-28.79,41.99Zm50.67,228.37h-15.05v-105.55h15.05v105.55Zm27.69-532.86h-14.44v-105.55h12.33l43.91,74.15,43.35-74.15h12.33l.15,105.55h-14.45l-.14-76.96-38.07,64.15h-6.92l-38.07-63.67v76.49Zm17.05,80.13h30.26l155.02,192.96v-192.96h36.9v258.96h-30.26l-155.02-192.96v192.96h-36.9v-258.96Zm134.9-185.68h16.1l33.71,55.68,33.84-55.68h14.9l-41.82,69.01v36.54h-14.9v-36.75l-41.83-68.8Zm-14.83,613.23c-4.76,7.94-11.44,14.12-20.01,18.55-8.57,4.42-18.48,6.63-29.71,6.63h-44.38v-105.55h44.38c11.23,0,21.13,2.21,29.71,6.63,8.57,4.42,15.25,10.61,20.01,18.55,4.77,7.94,7.15,17.14,7.15,27.59s-2.38,19.65-7.15,27.59Zm145.7,25.18h-76.43v-105.55h74.32v13.12h-59.27v32.42h52.81v12.82h-52.81v34.08h61.38v13.12Zm200.38-341.02v31.44h-129.55v83.61h150.59v32.19h-187.49v-258.96h182.32v32.18h-145.42v79.54h129.55Zm-46.32,341.02h-12.33l-63.19-78.64v78.64h-15.05v-105.55h12.34l63.18,78.64v-78.64h15.05v105.55Zm80.26-36.57c2.05,4.98,4.94,9.28,8.65,12.9,3.71,3.62,8.1,6.43,13.17,8.44,5.07,2.01,10.56,3.02,16.48,3.02s11.08-1.04,16.09-3.1c5.02-2.05,9.53-5.25,13.54-9.57l9.78,9.5c-4.82,5.43-10.67,9.55-17.53,12.36-6.87,2.81-14.42,4.22-22.64,4.22s-15.42-1.34-22.2-4c-6.77-2.66-12.64-6.43-17.6-11.31-4.96-4.88-8.85-10.58-11.65-17.11-2.81-6.53-4.22-13.72-4.22-21.56s1.41-15.03,4.22-21.56c2.8-6.53,6.72-12.23,11.73-17.12,5.02-4.88,10.91-8.65,17.67-11.31,6.78-2.65,14.16-3.99,22.2-3.99s15.62,1.38,22.49,4.14c6.87,2.77,12.72,6.87,17.53,12.29l-9.78,9.5c-4.01-4.22-8.52-7.37-13.54-9.43-5.02-2.05-10.38-3.09-16.09-3.09s-11.41,1.01-16.48,3.02c-5.07,2.01-9.46,4.83-13.17,8.44-3.71,3.62-6.59,7.91-8.65,12.89-2.06,4.98-3.09,10.38-3.09,16.22s1.03,11.23,3.09,16.2Zm214.75,36.57h-76.42v-105.55h74.32v13.12h-59.28v32.42h52.81v12.82h-52.81v34.08h61.38v13.12Zm-71.9-283.37v89.6h-36.54v-90.18l-102.61-168.77h39.5l82.7,136.62,83.01-136.62h36.54l-102.61,169.36Zm-58.13-249.44c-89.68,0-162.39-72.04-162.39-160.9s72.71-160.89,162.39-160.89,162.39,72.04,162.39,160.89-72.7,160.9-162.39,160.9Zm162.39-511.48c0,30.41-37.11,45.65-58.82,24.14l-133.34-132.11c-13.45-13.33-35.26-13.33-48.73,0l-384.31,380.78c-13.45,13.33-35.26,13.33-48.73,0l-349.66-346.44c-21.73-21.54-58.89-6.24-58.82,24.22l1.27,541.19c.02,10.88-8.87,19.7-19.84,19.7h-271.93c-19.03,0-34.46-15.29-34.46-34.14V229.5c0-18.86,15.43-34.14,34.46-34.14h276.05c9.14,0,17.9,3.6,24.37,10l398.58,394.92c13.46,13.33,35.27,13.33,48.73,0l167.8-166.25c13.45-13.33,13.45-34.95,0-48.28l-133.34-132.11c-21.7-21.5-6.33-58.28,24.37-58.28h531.91c19.03,0,34.45,15.28,34.45,34.14v527.03Zm-655.12,956.83c-6.36-3.32-13.91-4.98-22.64-4.98h-28.44v79.32h28.44c8.73,0,16.28-1.66,22.64-4.98,6.37-3.32,11.31-7.97,14.82-13.95,3.51-5.97,5.27-12.89,5.27-20.73s-1.76-14.88-5.27-20.81c-3.51-5.93-8.44-10.56-14.82-13.87Zm-214.07-307.01c-8.99-9.01-19.56-15.97-31.74-20.91-12.18-4.93-25.41-7.4-39.68-7.4s-27.87,2.47-40.05,7.4c-12.18,4.94-22.83,11.9-31.93,20.91-9.11,9-16.18,19.54-21.22,31.63-5.05,12.08-7.57,25.28-7.57,39.59s2.52,27.49,7.57,39.58c5.04,12.09,12.11,22.63,21.22,31.64,9.1,9,19.74,15.96,31.93,20.9,12.18,4.94,25.52,7.4,40.05,7.4s27.49-2.46,39.68-7.4c12.17-4.94,22.75-11.9,31.74-20.9,8.98-9.01,15.99-19.54,21.04-31.64,5.04-12.08,7.57-25.27,7.57-39.58s-2.53-27.5-7.57-39.59c-5.05-12.08-12.06-22.63-21.04-31.63Zm-322.56,312.66c-3.66-3.67-7.97-6.5-12.94-8.51-4.97-2.01-10.35-3.02-16.17-3.02s-11.36,1.01-16.33,3.02c-4.97,2.01-9.3,4.85-13.01,8.51-3.71,3.67-6.59,7.97-8.66,12.9-2.05,4.93-3.09,10.3-3.09,16.13s1.04,11.21,3.09,16.13c2.06,4.93,4.95,9.22,8.66,12.89,3.71,3.67,8.04,6.51,13.01,8.52s10.4,3.02,16.33,3.02,11.21-1.01,16.17-3.02,9.28-4.86,12.94-8.52c3.66-3.67,6.51-7.96,8.57-12.89,2.05-4.93,3.09-10.3,3.09-16.13s-1.04-11.21-3.09-16.13c-2.06-4.93-4.92-9.23-8.57-12.9Zm8.57,12.9c-2.06-4.93-4.92-9.23-8.57-12.9-3.66-3.67-7.97-6.5-12.94-8.51-4.97-2.01-10.35-3.02-16.17-3.02s-11.36,1.01-16.33,3.02c-4.97,2.01-9.3,4.85-13.01,8.51-3.71,3.67-6.59,7.97-8.66,12.9-2.05,4.93-3.09,10.3-3.09,16.13s1.04,11.21,3.09,16.13c2.06,4.93,4.95,9.22,8.66,12.89,3.71,3.67,8.04,6.51,13.01,8.52s10.4,3.02,16.33,3.02,11.21-1.01,16.17-3.02,9.28-4.86,12.94-8.52c3.66-3.67,6.51-7.96,8.57-12.89,2.05-4.93,3.09-10.3,3.09-16.13s-1.04-11.21-3.09-16.13Zm335.02-293.93c-5.05-12.08-12.06-22.63-21.04-31.63-8.99-9.01-19.56-15.97-31.74-20.91-12.18-4.93-25.41-7.4-39.68-7.4s-27.87,2.47-40.05,7.4c-12.18,4.94-22.83,11.9-31.93,20.91-9.11,9-16.18,19.54-21.22,31.63-5.05,12.08-7.57,25.28-7.57,39.59s2.52,27.49,7.57,39.58c5.04,12.09,12.11,22.63,21.22,31.64,9.1,9,19.74,15.96,31.93,20.9,12.18,4.94,25.52,7.4,40.05,7.4s27.49-2.46,39.68-7.4c12.17-4.94,22.75-11.9,31.74-20.9,8.98-9.01,15.99-19.54,21.04-31.64,5.04-12.08,7.57-25.27,7.57-39.58s-2.53-27.5-7.57-39.59Zm207.85,289.25c-3.51-5.93-8.44-10.56-14.82-13.87-6.36-3.32-13.91-4.98-22.64-4.98h-28.44v79.32h28.44c8.73,0,16.28-1.66,22.64-4.98,6.37-3.32,11.31-7.97,14.82-13.95,3.51-5.97,5.27-12.89,5.27-20.73s-1.76-14.88-5.27-20.81Zm0,0c-3.51-5.93-8.44-10.56-14.82-13.87-6.36-3.32-13.91-4.98-22.64-4.98h-28.44v79.32h28.44c8.73,0,16.28-1.66,22.64-4.98,6.37-3.32,11.31-7.97,14.82-13.95,3.51-5.97,5.27-12.89,5.27-20.73s-1.76-14.88-5.27-20.81Zm-207.85-289.25c-5.05-12.08-12.06-22.63-21.04-31.63-8.99-9.01-19.56-15.97-31.74-20.91-12.18-4.93-25.41-7.4-39.68-7.4s-27.87,2.47-40.05,7.4c-12.18,4.94-22.83,11.9-31.93,20.91-9.11,9-16.18,19.54-21.22,31.63-5.05,12.08-7.57,25.28-7.57,39.59s2.52,27.49,7.57,39.58c5.04,12.09,12.11,22.63,21.22,31.64,9.1,9,19.74,15.96,31.93,20.9,12.18,4.94,25.52,7.4,40.05,7.4s27.49-2.46,39.68-7.4c12.17-4.94,22.75-11.9,31.74-20.9,8.98-9.01,15.99-19.54,21.04-31.64,5.04-12.08,7.57-25.27,7.57-39.58s-2.53-27.5-7.57-39.59Zm-335.02,293.93c-2.06-4.93-4.92-9.23-8.57-12.9-3.66-3.67-7.97-6.5-12.94-8.51-4.97-2.01-10.35-3.02-16.17-3.02s-11.36,1.01-16.33,3.02c-4.97,2.01-9.3,4.85-13.01,8.51-3.71,3.67-6.59,7.97-8.66,12.9-2.05,4.93-3.09,10.3-3.09,16.13s1.04,11.21,3.09,16.13c2.06,4.93,4.95,9.22,8.66,12.89,3.71,3.67,8.04,6.51,13.01,8.52s10.4,3.02,16.33,3.02,11.21-1.01,16.17-3.02,9.28-4.86,12.94-8.52c3.66-3.67,6.51-7.96,8.57-12.89,2.05-4.93,3.09-10.3,3.09-16.13s-1.04-11.21-3.09-16.13Zm0,0c-2.06-4.93-4.92-9.23-8.57-12.9-3.66-3.67-7.97-6.5-12.94-8.51-4.97-2.01-10.35-3.02-16.17-3.02s-11.36,1.01-16.33,3.02c-4.97,2.01-9.3,4.85-13.01,8.51-3.71,3.67-6.59,7.97-8.66,12.9-2.05,4.93-3.09,10.3-3.09,16.13s1.04,11.21,3.09,16.13c2.06,4.93,4.95,9.22,8.66,12.89,3.71,3.67,8.04,6.51,13.01,8.52s10.4,3.02,16.33,3.02,11.21-1.01,16.17-3.02,9.28-4.86,12.94-8.52c3.66-3.67,6.51-7.96,8.57-12.89,2.05-4.93,3.09-10.3,3.09-16.13s-1.04-11.21-3.09-16.13Zm335.02-293.93c-5.05-12.08-12.06-22.63-21.04-31.63-8.99-9.01-19.56-15.97-31.74-20.91-12.18-4.93-25.41-7.4-39.68-7.4s-27.87,2.47-40.05,7.4c-12.18,4.94-22.83,11.9-31.93,20.91-9.11,9-16.18,19.54-21.22,31.63-5.05,12.08-7.57,25.28-7.57,39.59s2.52,27.49,7.57,39.58c5.04,12.09,12.11,22.63,21.22,31.64,9.1,9,19.74,15.96,31.93,20.9,12.18,4.94,25.52,7.4,40.05,7.4s27.49-2.46,39.68-7.4c12.17-4.94,22.75-11.9,31.74-20.9,8.98-9.01,15.99-19.54,21.04-31.64,5.04-12.08,7.57-25.27,7.57-39.58s-2.53-27.5-7.57-39.59Zm207.85,289.25c-3.51-5.93-8.44-10.56-14.82-13.87-6.36-3.32-13.91-4.98-22.64-4.98h-28.44v79.32h28.44c8.73,0,16.28-1.66,22.64-4.98,6.37-3.32,11.31-7.97,14.82-13.95,3.51-5.97,5.27-12.89,5.27-20.73s-1.76-14.88-5.27-20.81Zm0,0c-3.51-5.93-8.44-10.56-14.82-13.87-6.36-3.32-13.91-4.98-22.64-4.98h-28.44v79.32h28.44c8.73,0,16.28-1.66,22.64-4.98,6.37-3.32,11.31-7.97,14.82-13.95,3.51-5.97,5.27-12.89,5.27-20.73s-1.76-14.88-5.27-20.81Zm-207.85-289.25c-5.05-12.08-12.06-22.63-21.04-31.63-8.99-9.01-19.56-15.97-31.74-20.91-12.18-4.93-25.41-7.4-39.68-7.4s-27.87,2.47-40.05,7.4c-12.18,4.94-22.83,11.9-31.93,20.91-9.11,9-16.18,19.54-21.22,31.63-5.05,12.08-7.57,25.28-7.57,39.59s2.52,27.49,7.57,39.58c5.04,12.09,12.11,22.63,21.22,31.64,9.1,9,19.74,15.96,31.93,20.9,12.18,4.94,25.52,7.4,40.05,7.4s27.49-2.46,39.68-7.4c12.17-4.94,22.75-11.9,31.74-20.9,8.98-9.01,15.99-19.54,21.04-31.64,5.04-12.08,7.57-25.27,7.57-39.58s-2.53-27.5-7.57-39.59Zm-335.02,293.93c-2.06-4.93-4.92-9.23-8.57-12.9-3.66-3.67-7.97-6.5-12.94-8.51-4.97-2.01-10.35-3.02-16.17-3.02s-11.36,1.01-16.33,3.02c-4.97,2.01-9.3,4.85-13.01,8.51-3.71,3.67-6.59,7.97-8.66,12.9-2.05,4.93-3.09,10.3-3.09,16.13s1.04,11.21,3.09,16.13c2.06,4.93,4.95,9.22,8.66,12.89,3.71,3.67,8.04,6.51,13.01,8.52s10.4,3.02,16.33,3.02,11.21-1.01,16.17-3.02,9.28-4.86,12.94-8.52c3.66-3.67,6.51-7.96,8.57-12.89,2.05-4.93,3.09-10.3,3.09-16.13s-1.04-11.21-3.09-16.13Zm0,0c-2.06-4.93-4.92-9.23-8.57-12.9-3.66-3.67-7.97-6.5-12.94-8.51-4.97-2.01-10.35-3.02-16.17-3.02s-11.36,1.01-16.33,3.02c-4.97,2.01-9.3,4.85-13.01,8.51-3.71,3.67-6.59,7.97-8.66,12.9-2.05,4.93-3.09,10.3-3.09,16.13s1.04,11.21,3.09,16.13c2.06,4.93,4.95,9.22,8.66,12.89,3.71,3.67,8.04,6.51,13.01,8.52s10.4,3.02,16.33,3.02,11.21-1.01,16.17-3.02,9.28-4.86,12.94-8.52c3.66-3.67,6.51-7.96,8.57-12.89,2.05-4.93,3.09-10.3,3.09-16.13s-1.04-11.21-3.09-16.13Zm335.02-293.93c-5.05-12.08-12.06-22.63-21.04-31.63-8.99-9.01-19.56-15.97-31.74-20.91-12.18-4.93-25.41-7.4-39.68-7.4s-27.87,2.47-40.05,7.4c-12.18,4.94-22.83,11.9-31.93,20.91-9.11,9-16.18,19.54-21.22,31.63-5.05,12.08-7.57,25.28-7.57,39.59s2.52,27.49,7.57,39.58c5.04,12.09,12.11,22.63,21.22,31.64,9.1,9,19.74,15.96,31.93,20.9,12.18,4.94,25.52,7.4,40.05,7.4s27.49-2.46,39.68-7.4c12.17-4.94,22.75-11.9,31.74-20.9,8.98-9.01,15.99-19.54,21.04-31.64,5.04-12.08,7.57-25.27,7.57-39.58s-2.53-27.5-7.57-39.59Zm207.85,289.25c-3.51-5.93-8.44-10.56-14.82-13.87-6.36-3.32-13.91-4.98-22.64-4.98h-28.44v79.32h28.44c8.73,0,16.28-1.66,22.64-4.98,6.37-3.32,11.31-7.97,14.82-13.95,3.51-5.97,5.27-12.89,5.27-20.73s-1.76-14.88-5.27-20.81Zm0,0c-3.51-5.93-8.44-10.56-14.82-13.87-6.36-3.32-13.91-4.98-22.64-4.98h-28.44v79.32h28.44c8.73,0,16.28-1.66,22.64-4.98,6.37-3.32,11.31-7.97,14.82-13.95,3.51-5.97,5.27-12.89,5.27-20.73s-1.76-14.88-5.27-20.81Zm-207.85-289.25c-5.05-12.08-12.06-22.63-21.04-31.63-8.99-9.01-19.56-15.97-31.74-20.91-12.18-4.93-25.41-7.4-39.68-7.4s-27.87,2.47-40.05,7.4c-12.18,4.94-22.83,11.9-31.93,20.91-9.11,9-16.18,19.54-21.22,31.63-5.05,12.08-7.57,25.28-7.57,39.59s2.52,27.49,7.57,39.58c5.04,12.09,12.11,22.63,21.22,31.64,9.1,9,19.74,15.96,31.93,20.9,12.18,4.94,25.52,7.4,40.05,7.4s27.49-2.46,39.68-7.4c12.17-4.94,22.75-11.9,31.74-20.9,8.98-9.01,15.99-19.54,21.04-31.64,5.04-12.08,7.57-25.27,7.57-39.58s-2.53-27.5-7.57-39.59Zm-335.02,293.93c-2.06-4.93-4.92-9.23-8.57-12.9-3.66-3.67-7.97-6.5-12.94-8.51-4.97-2.01-10.35-3.02-16.17-3.02s-11.36,1.01-16.33,3.02c-4.97,2.01-9.3,4.85-13.01,8.51-3.71,3.67-6.59,7.97-8.66,12.9-2.05,4.93-3.09,10.3-3.09,16.13s1.04,11.21,3.09,16.13c2.06,4.93,4.95,9.22,8.66,12.89,3.71,3.67,8.04,6.51,13.01,8.52s10.4,3.02,16.33,3.02,11.21-1.01,16.17-3.02,9.28-4.86,12.94-8.52c3.66-3.67,6.51-7.96,8.57-12.89,2.05-4.93,3.09-10.3,3.09-16.13s-1.04-11.21-3.09-16.13Zm0,0c-2.06-4.93-4.92-9.23-8.57-12.9-3.66-3.67-7.97-6.5-12.94-8.51-4.97-2.01-10.35-3.02-16.17-3.02s-11.36,1.01-16.33,3.02c-4.97,2.01-9.3,4.85-13.01,8.51-3.71,3.67-6.59,7.97-8.66,12.9-2.05,4.93-3.09,10.3-3.09,16.13s1.04,11.21,3.09,16.13c2.06,4.93,4.95,9.22,8.66,12.89,3.71,3.67,8.04,6.51,13.01,8.52s10.4,3.02,16.33,3.02,11.21-1.01,16.17-3.02,9.28-4.86,12.94-8.52c3.66-3.67,6.51-7.96,8.57-12.89,2.05-4.93,3.09-10.3,3.09-16.13s-1.04-11.21-3.09-16.13Zm335.02-293.93c-5.05-12.08-12.06-22.63-21.04-31.63-8.99-9.01-19.56-15.97-31.74-20.91-12.18-4.93-25.41-7.4-39.68-7.4s-27.87,2.47-40.05,7.4c-12.18,4.94-22.83,11.9-31.93,20.91-9.11,9-16.18,19.54-21.22,31.63-5.05,12.08-7.57,25.28-7.57,39.59s2.52,27.49,7.57,39.58c5.04,12.09,12.11,22.63,21.22,31.64,9.1,9,19.74,15.96,31.93,20.9,12.18,4.94,25.52,7.4,40.05,7.4s27.49-2.46,39.68-7.4c12.17-4.94,22.75-11.9,31.74-20.9,8.98-9.01,15.99-19.54,21.04-31.64,5.04-12.08,7.57-25.27,7.57-39.58s-2.53-27.5-7.57-39.59Zm207.85,289.25c-3.51-5.93-8.44-10.56-14.82-13.87-6.36-3.32-13.91-4.98-22.64-4.98h-28.44v79.32h28.44c8.73,0,16.28-1.66,22.64-4.98,6.37-3.32,11.31-7.97,14.82-13.95,3.51-5.97,5.27-12.89,5.27-20.73s-1.76-14.88-5.27-20.81Zm0,0c-3.51-5.93-8.44-10.56-14.82-13.87-6.36-3.32-13.91-4.98-22.64-4.98h-28.44v79.32h28.44c8.73,0,16.28-1.66,22.64-4.98,6.37-3.32,11.31-7.97,14.82-13.95,3.51-5.97,5.27-12.89,5.27-20.73s-1.76-14.88-5.27-20.81Zm-207.85-289.25c-5.05-12.08-12.06-22.63-21.04-31.63-8.99-9.01-19.56-15.97-31.74-20.91-12.18-4.93-25.41-7.4-39.68-7.4s-27.87,2.47-40.05,7.4c-12.18,4.94-22.83,11.9-31.93,20.91-9.11,9-16.18,19.54-21.22,31.63-5.05,12.08-7.57,25.28-7.57,39.59s2.52,27.49,7.57,39.58c5.04,12.09,12.11,22.63,21.22,31.64,9.1,9,19.74,15.96,31.93,20.9,12.18,4.94,25.52,7.4,40.05,7.4s27.49-2.46,39.68-7.4c12.17-4.94,22.75-11.9,31.74-20.9,8.98-9.01,15.99-19.54,21.04-31.64,5.04-12.08,7.57-25.27,7.57-39.58s-2.53-27.5-7.57-39.59Zm-335.02,293.93c-2.06-4.93-4.92-9.23-8.57-12.9-3.66-3.67-7.97-6.5-12.94-8.51-4.97-2.01-10.35-3.02-16.17-3.02s-11.36,1.01-16.33,3.02c-4.97,2.01-9.3,4.85-13.01,8.51-3.71,3.67-6.59,7.97-8.66,12.9-2.05,4.93-3.09,10.3-3.09,16.13s1.04,11.21,3.09,16.13c2.06,4.93,4.95,9.22,8.66,12.89,3.71,3.67,8.04,6.51,13.01,8.52s10.4,3.02,16.33,3.02,11.21-1.01,16.17-3.02,9.28-4.86,12.94-8.52c3.66-3.67,6.51-7.96,8.57-12.89,2.05-4.93,3.09-10.3,3.09-16.13s-1.04-11.21-3.09-16.13Zm0,0c-2.06-4.93-4.92-9.23-8.57-12.9-3.66-3.67-7.97-6.5-12.94-8.51-4.97-2.01-10.35-3.02-16.17-3.02s-11.36,1.01-16.33,3.02c-4.97,2.01-9.3,4.85-13.01,8.51-3.71,3.67-6.59,7.97-8.66,12.9-2.05,4.93-3.09,10.3-3.09,16.13s1.04,11.21,3.09,16.13c2.06,4.93,4.95,9.22,8.66,12.89,3.71,3.67,8.04,6.51,13.01,8.52s10.4,3.02,16.33,3.02,11.21-1.01,16.17-3.02,9.28-4.86,12.94-8.52c3.66-3.67,6.51-7.96,8.57-12.89,2.05-4.93,3.09-10.3,3.09-16.13s-1.04-11.21-3.09-16.13Zm335.02-293.93c-5.05-12.08-12.06-22.63-21.04-31.63-8.99-9.01-19.56-15.97-31.74-20.91-12.18-4.93-25.41-7.4-39.68-7.4s-27.87,2.47-40.05,7.4c-12.18,4.94-22.83,11.9-31.93,20.91-9.11,9-16.18,19.54-21.22,31.63-5.05,12.08-7.57,25.28-7.57,39.59s2.52,27.49,7.57,39.58c5.04,12.09,12.11,22.63,21.22,31.64,9.1,9,19.74,15.96,31.93,20.9,12.18,4.94,25.52,7.4,40.05,7.4s27.49-2.46,39.68-7.4c12.17-4.94,22.75-11.9,31.74-20.9,8.98-9.01,15.99-19.54,21.04-31.64,5.04-12.08,7.57-25.27,7.57-39.58s-2.53-27.5-7.57-39.59Zm207.85,289.25c-3.51-5.93-8.44-10.56-14.82-13.87-6.36-3.32-13.91-4.98-22.64-4.98h-28.44v79.32h28.44c8.73,0,16.28-1.66,22.64-4.98,6.37-3.32,11.31-7.97,14.82-13.95,3.51-5.97,5.27-12.89,5.27-20.73s-1.76-14.88-5.27-20.81Zm0,0c-3.51-5.93-8.44-10.56-14.82-13.87-6.36-3.32-13.91-4.98-22.64-4.98h-28.44v79.32h28.44c8.73,0,16.28-1.66,22.64-4.98,6.37-3.32,11.31-7.97,14.82-13.95,3.51-5.97,5.27-12.89,5.27-20.73s-1.76-14.88-5.27-20.81Zm-207.85-289.25c-5.05-12.08-12.06-22.63-21.04-31.63-8.99-9.01-19.56-15.97-31.74-20.91-12.18-4.93-25.41-7.4-39.68-7.4s-27.87,2.47-40.05,7.4c-12.18,4.94-22.83,11.9-31.93,20.91-9.11,9-16.18,19.54-21.22,31.63-5.05,12.08-7.57,25.28-7.57,39.59s2.52,27.49,7.57,39.58c5.04,12.09,12.11,22.63,21.22,31.64,9.1,9,19.74,15.96,31.93,20.9,12.18,4.94,25.52,7.4,40.05,7.4s27.49-2.46,39.68-7.4c12.17-4.94,22.75-11.9,31.74-20.9,8.98-9.01,15.99-19.54,21.04-31.64,5.04-12.08,7.57-25.27,7.57-39.58s-2.53-27.5-7.57-39.59Zm-335.02,293.93c-2.06-4.93-4.92-9.23-8.57-12.9-3.66-3.67-7.97-6.5-12.94-8.51-4.97-2.01-10.35-3.02-16.17-3.02s-11.36,1.01-16.33,3.02c-4.97,2.01-9.3,4.85-13.01,8.51-3.71,3.67-6.59,7.97-8.66,12.9-2.05,4.93-3.09,10.3-3.09,16.13s1.04,11.21,3.09,16.13c2.06,4.93,4.95,9.22,8.66,12.89,3.71,3.67,8.04,6.51,13.01,8.52s10.4,3.02,16.33,3.02,11.21-1.01,16.17-3.02,9.28-4.86,12.94-8.52c3.66-3.67,6.51-7.96,8.57-12.89,2.05-4.93,3.09-10.3,3.09-16.13s-1.04-11.21-3.09-16.13Zm0,0c-2.06-4.93-4.92-9.23-8.57-12.9-3.66-3.67-7.97-6.5-12.94-8.51-4.97-2.01-10.35-3.02-16.17-3.02s-11.36,1.01-16.33,3.02c-4.97,2.01-9.3,4.85-13.01,8.51-3.71,3.67-6.59,7.97-8.66,12.9-2.05,4.93-3.09,10.3-3.09,16.13s1.04,11.21,3.09,16.13c2.06,4.93,4.95,9.22,8.66,12.89,3.71,3.67,8.04,6.51,13.01,8.52s10.4,3.02,16.33,3.02,11.21-1.01,16.17-3.02,9.28-4.86,12.94-8.52c3.66-3.67,6.51-7.96,8.57-12.89,2.05-4.93,3.09-10.3,3.09-16.13s-1.04-11.21-3.09-16.13Zm335.02-293.93c-5.05-12.08-12.06-22.63-21.04-31.63-8.99-9.01-19.56-15.97-31.74-20.91-12.18-4.93-25.41-7.4-39.68-7.4s-27.87,2.47-40.05,7.4c-12.18,4.94-22.83,11.9-31.93,20.91-9.11,9-16.18,19.54-21.22,31.63-5.05,12.08-7.57,25.28-7.57,39.59s2.52,27.49,7.57,39.58c5.04,12.09,12.11,22.63,21.22,31.64,9.1,9,19.74,15.96,31.93,20.9,12.18,4.94,25.52,7.4,40.05,7.4s27.49-2.46,39.68-7.4c12.17-4.94,22.75-11.9,31.74-20.9,8.98-9.01,15.99-19.54,21.04-31.64,5.04-12.08,7.57-25.27,7.57-39.58s-2.53-27.5-7.57-39.59Zm0,0c-5.05-12.08-12.06-22.63-21.04-31.63-8.99-9.01-19.56-15.97-31.74-20.91-12.18-4.93-25.41-7.4-39.68-7.4s-27.87,2.47-40.05,7.4c-12.18,4.94-22.83,11.9-31.93,20.91-9.11,9-16.18,19.54-21.22,31.63-5.05,12.08-7.57,25.28-7.57,39.59s2.52,27.49,7.57,39.58c5.04,12.09,12.11,22.63,21.22,31.64,9.1,9,19.74,15.96,31.93,20.9,12.18,4.94,25.52,7.4,40.05,7.4s27.49-2.46,39.68-7.4c12.17-4.94,22.75-11.9,31.74-20.9,8.98-9.01,15.99-19.54,21.04-31.64,5.04-12.08,7.57-25.27,7.57-39.58s-2.53-27.5-7.57-39.59Zm-335.02,293.93c-2.06-4.93-4.92-9.23-8.57-12.9-3.66-3.67-7.97-6.5-12.94-8.51-4.97-2.01-10.35-3.02-16.17-3.02s-11.36,1.01-16.33,3.02c-4.97,2.01-9.3,4.85-13.01,8.51-3.71,3.67-6.59,7.97-8.66,12.9-2.05,4.93-3.09,10.3-3.09,16.13s1.04,11.21,3.09,16.13c2.06,4.93,4.95,9.22,8.66,12.89,3.71,3.67,8.04,6.51,13.01,8.52s10.4,3.02,16.33,3.02,11.21-1.01,16.17-3.02,9.28-4.86,12.94-8.52c3.66-3.67,6.51-7.96,8.57-12.89,2.05-4.93,3.09-10.3,3.09-16.13s-1.04-11.21-3.09-16.13Zm0,0c-2.06-4.93-4.92-9.23-8.57-12.9-3.66-3.67-7.97-6.5-12.94-8.51-4.97-2.01-10.35-3.02-16.17-3.02s-11.36,1.01-16.33,3.02c-4.97,2.01-9.3,4.85-13.01,8.51-3.71,3.67-6.59,7.97-8.66,12.9-2.05,4.93-3.09,10.3-3.09,16.13s1.04,11.21,3.09,16.13c2.06,4.93,4.95,9.22,8.66,12.89,3.71,3.67,8.04,6.51,13.01,8.52s10.4,3.02,16.33,3.02,11.21-1.01,16.17-3.02,9.28-4.86,12.94-8.52c3.66-3.67,6.51-7.96,8.57-12.89,2.05-4.93,3.09-10.3,3.09-16.13s-1.04-11.21-3.09-16.13Zm335.02-293.93c-5.05-12.08-12.06-22.63-21.04-31.63-8.99-9.01-19.56-15.97-31.74-20.91-12.18-4.93-25.41-7.4-39.68-7.4s-27.87,2.47-40.05,7.4c-12.18,4.94-22.83,11.9-31.93,20.91-9.11,9-16.18,19.54-21.22,31.63-5.05,12.08-7.57,25.28-7.57,39.59s2.52,27.49,7.57,39.58c5.04,12.09,12.11,22.63,21.22,31.64,9.1,9,19.74,15.96,31.93,20.9,12.18,4.94,25.52,7.4,40.05,7.4s27.49-2.46,39.68-7.4c12.17-4.94,22.75-11.9,31.74-20.9,8.98-9.01,15.99-19.54,21.04-31.64,5.04-12.08,7.57-25.27,7.57-39.58s-2.53-27.5-7.57-39.59Zm0,0c-5.05-12.08-12.06-22.63-21.04-31.63-8.99-9.01-19.56-15.97-31.74-20.91-12.18-4.93-25.41-7.4-39.68-7.4s-27.87,2.47-40.05,7.4c-12.18,4.94-22.83,11.9-31.93,20.91-9.11,9-16.18,19.54-21.22,31.63-5.05,12.08-7.57,25.28-7.57,39.59s2.52,27.49,7.57,39.58c5.04,12.09,12.11,22.63,21.22,31.64,9.1,9,19.74,15.96,31.93,20.9,12.18,4.94,25.52,7.4,40.05,7.4s27.49-2.46,39.68-7.4c12.17-4.94,22.75-11.9,31.74-20.9,8.98-9.01,15.99-19.54,21.04-31.64,5.04-12.08,7.57-25.27,7.57-39.58s-2.53-27.5-7.57-39.59Zm-335.02,293.93c-2.06-4.93-4.92-9.23-8.57-12.9-3.66-3.67-7.97-6.5-12.94-8.51-4.97-2.01-10.35-3.02-16.17-3.02s-11.36,1.01-16.33,3.02c-4.97,2.01-9.3,4.85-13.01,8.51-3.71,3.67-6.59,7.97-8.66,12.9-2.05,4.93-3.09,10.3-3.09,16.13s1.04,11.21,3.09,16.13c2.06,4.93,4.95,9.22,8.66,12.89,3.71,3.67,8.04,6.51,13.01,8.52s10.4,3.02,16.33,3.02,11.21-1.01,16.17-3.02,9.28-4.86,12.94-8.52c3.66-3.67,6.51-7.96,8.57-12.89,2.05-4.93,3.09-10.3,3.09-16.13s-1.04-11.21-3.09-16.13Zm0,0c-2.06-4.93-4.92-9.23-8.57-12.9-3.66-3.67-7.97-6.5-12.94-8.51-4.97-2.01-10.35-3.02-16.17-3.02s-11.36,1.01-16.33,3.02c-4.97,2.01-9.3,4.85-13.01,8.51-3.71,3.67-6.59,7.97-8.66,12.9-2.05,4.93-3.09,10.3-3.09,16.13s1.04,11.21,3.09,16.13c2.06,4.93,4.95,9.22,8.66,12.89,3.71,3.67,8.04,6.51,13.01,8.52s10.4,3.02,16.33,3.02,11.21-1.01,16.17-3.02,9.28-4.86,12.94-8.52c3.66-3.67,6.51-7.96,8.57-12.89,2.05-4.93,3.09-10.3,3.09-16.13s-1.04-11.21-3.09-16.13Zm335.02-293.93c-5.05-12.08-12.06-22.63-21.04-31.63-8.99-9.01-19.56-15.97-31.74-20.91-12.18-4.93-25.41-7.4-39.68-7.4s-27.87,2.47-40.05,7.4c-12.18,4.94-22.83,11.9-31.93,20.91-9.11,9-16.18,19.54-21.22,31.63-5.05,12.08-7.57,25.28-7.57,39.59s2.52,27.49,7.57,39.58c5.04,12.09,12.11,22.63,21.22,31.64,9.1,9,19.74,15.96,31.93,20.9,12.18,4.94,25.52,7.4,40.05,7.4s27.49-2.46,39.68-7.4c12.17-4.94,22.75-11.9,31.74-20.9,8.98-9.01,15.99-19.54,21.04-31.64,5.04-12.08,7.57-25.27,7.57-39.58s-2.53-27.5-7.57-39.59Zm0,0c-5.05-12.08-12.06-22.63-21.04-31.63-8.99-9.01-19.56-15.97-31.74-20.91-12.18-4.93-25.41-7.4-39.68-7.4s-27.87,2.47-40.05,7.4c-12.18,4.94-22.83,11.9-31.93,20.91-9.11,9-16.18,19.54-21.22,31.63-5.05,12.08-7.57,25.28-7.57,39.59s2.52,27.49,7.57,39.58c5.04,12.09,12.11,22.63,21.22,31.64,9.1,9,19.74,15.96,31.93,20.9,12.18,4.94,25.52,7.4,40.05,7.4s27.49-2.46,39.68-7.4c12.17-4.94,22.75-11.9,31.74-20.9,8.98-9.01,15.99-19.54,21.04-31.64,5.04-12.08,7.57-25.27,7.57-39.58s-2.53-27.5-7.57-39.59Zm-335.02,293.93c-2.06-4.93-4.92-9.23-8.57-12.9-3.66-3.67-7.97-6.5-12.94-8.51-4.97-2.01-10.35-3.02-16.17-3.02s-11.36,1.01-16.33,3.02c-4.97,2.01-9.3,4.85-13.01,8.51-3.71,3.67-6.59,7.97-8.66,12.9-2.05,4.93-3.09,10.3-3.09,16.13s1.04,11.21,3.09,16.13c2.06,4.93,4.95,9.22,8.66,12.89,3.71,3.67,8.04,6.51,13.01,8.52s10.4,3.02,16.33,3.02,11.21-1.01,16.17-3.02,9.28-4.86,12.94-8.52c3.66-3.67,6.51-7.96,8.57-12.89,2.05-4.93,3.09-10.3,3.09-16.13s-1.04-11.21-3.09-16.13Zm335.02-293.93c-5.05-12.08-12.06-22.63-21.04-31.63-8.99-9.01-19.56-15.97-31.74-20.91-12.18-4.93-25.41-7.4-39.68-7.4s-27.87,2.47-40.05,7.4c-12.18,4.94-22.83,11.9-31.93,20.91-9.11,9-16.18,19.54-21.22,31.63-5.05,12.08-7.57,25.28-7.57,39.59s2.52,27.49,7.57,39.58c5.04,12.09,12.11,22.63,21.22,31.64,9.1,9,19.74,15.96,31.93,20.9,12.18,4.94,25.52,7.4,40.05,7.4s27.49-2.46,39.68-7.4c12.17-4.94,22.75-11.9,31.74-20.9,8.98-9.01,15.99-19.54,21.04-31.64,5.04-12.08,7.57-25.27,7.57-39.58s-2.53-27.5-7.57-39.59Zm0,0c-5.05-12.08-12.06-22.63-21.04-31.63-8.99-9.01-19.56-15.97-31.74-20.91-12.18-4.93-25.41-7.4-39.68-7.4s-27.87,2.47-40.05,7.4c-12.18,4.94-22.83,11.9-31.93,20.91-9.11,9-16.18,19.54-21.22,31.63-5.05,12.08-7.57,25.28-7.57,39.59s2.52,27.49,7.57,39.58c5.04,12.09,12.11,22.63,21.22,31.64,9.1,9,19.74,15.96,31.93,20.9,12.18,4.94,25.52,7.4,40.05,7.4s27.49-2.46,39.68-7.4c12.17-4.94,22.75-11.9,31.74-20.9,8.98-9.01,15.99-19.54,21.04-31.64,5.04-12.08,7.57-25.27,7.57-39.58s-2.53-27.5-7.57-39.59Zm0,0c-5.05-12.08-12.06-22.63-21.04-31.63-8.99-9.01-19.56-15.97-31.74-20.91-12.18-4.93-25.41-7.4-39.68-7.4s-27.87,2.47-40.05,7.4c-12.18,4.94-22.83,11.9-31.93,20.91-9.11,9-16.18,19.54-21.22,31.63-5.05,12.08-7.57,25.28-7.57,39.59s2.52,27.49,7.57,39.58c5.04,12.09,12.11,22.63,21.22,31.64,9.1,9,19.74,15.96,31.93,20.9,12.18,4.94,25.52,7.4,40.05,7.4s27.49-2.46,39.68-7.4c12.17-4.94,22.75-11.9,31.74-20.9,8.98-9.01,15.99-19.54,21.04-31.64,5.04-12.08,7.57-25.27,7.57-39.58s-2.53-27.5-7.57-39.59Zm0,0c-5.05-12.08-12.06-22.63-21.04-31.63-8.99-9.01-19.56-15.97-31.74-20.91-12.18-4.93-25.41-7.4-39.68-7.4s-27.87,2.47-40.05,7.4c-12.18,4.94-22.83,11.9-31.93,20.91-9.11,9-16.18,19.54-21.22,31.63-5.05,12.08-7.57,25.28-7.57,39.59s2.52,27.49,7.57,39.58c5.04,12.09,12.11,22.63,21.22,31.64,9.1,9,19.74,15.96,31.93,20.9,12.18,4.94,25.52,7.4,40.05,7.4s27.49-2.46,39.68-7.4c12.17-4.94,22.75-11.9,31.74-20.9,8.98-9.01,15.99-19.54,21.04-31.64,5.04-12.08,7.57-25.27,7.57-39.58s-2.53-27.5-7.57-39.59Z"/>
  <polygon class="cls-1" points="1391.35 1571.58 1391.35 1603.6 1204.84 1603.6 1204.84 1346 1386.21 1346 1386.21 1378.01 1241.55 1378.01 1241.55 1457.13 1370.42 1457.13 1370.42 1488.41 1241.55 1488.41 1241.55 1571.58 1391.35 1571.58"/>
</svg>