<?xml version="1.0" encoding="UTF-8"?>
<svg id="Layer_1" data-name="Layer 1" xmlns="http://www.w3.org/2000/svg" viewBox="0 0 909.63 724.45">
  <defs>
    <style>
      .cls-1 {
        fill: #fff;
      }

      .cls-1, .cls-2, .cls-3, .cls-4, .cls-5, .cls-6 {
        stroke: #231f20;
        stroke-miterlimit: 10;
        stroke-width: 2px;
      }

      .cls-2 {
        fill: #bc8d39;
      }

      .cls-3 {
        fill: #845a07;
      }

      .cls-4 {
        fill: #231f20;
      }

      .cls-5 {
        fill: #f1f2f2;
      }

      .cls-6 {
        fill: #3d1f0f;
      }
    </style>
  </defs>
  <ellipse class="cls-6" cx="443.74" cy="367.94" rx="339.76" ry="325.38"/>
  <path class="cls-2" d="m759.77,375.56c28.76,79.27-33.08,331.79-307.01,326.63-322.98-6.08-345.66-259.75-312.91-332.74,192.97-430.06,266.68-83.26,309.46-84.37,74.03-1.92,153.7-341.6,310.46,90.47Z"/>
  <polygon class="cls-6" points="487.31 22.31 456.97 40.42 452.16 2.36 417.33 42.83 501.21 46.88 487.31 22.31"/>
  <path class="cls-3" d="m165.46,266.28c-68.65,60.99-10.95,182.76-56.29,213.02-43.01,28.7-87.5-113.74-103.21-158.37-16.27-46.18,8.68-97.68,57.2-115.56,48.52-17.88,143.24,24.53,102.31,60.9Z"/>
  <path class="cls-3" d="m891.8,282.2c-23.55-41.78-113.42-108.17-144.2-50.57-33.69,63.06,10.8,76.39,25.35,135.82,11.16,45.61-66.64,251.74,112.9,22.37,30.25-38.65,28.45-67.72,5.96-107.62Z"/>
  <path class="cls-2" d="m130.44,284.32c-13.5,11.65-12.47,77.53-17.65,160.99-1.96,31.58-93.41-100.16-94.55-137.78-1.18-38.94,13.77-85.78,48.79-81.84,31.44,3.53,142.41-9.59,63.41,58.63Z"/>
  <path class="cls-2" d="m780.46,473.65c-16.03,5.72,40.99-136.62-15.72-191.7-52.49-50.98,29.81-73.1,81.16-34.09,30.73,23.34,49.7,53.24,51.05,84.85,1.23,28.71-56.09,119.37-116.49,140.94Z"/>
  <ellipse class="cls-4" cx="608.45" cy="327.54" rx="49.7" ry="104.01"/>
  <ellipse class="cls-4" cx="298.77" cy="327.54" rx="49.7" ry="104.01"/>
  <ellipse class="cls-5" cx="608.45" cy="369.45" rx="27.1" ry="41.91"/>
  <ellipse class="cls-5" cx="298.77" cy="369.45" rx="27.1" ry="41.91"/>
  <ellipse class="cls-2" cx="452.76" cy="583.42" rx="252.17" ry="140.03"/>
  <path class="cls-1" d="m562.73,598.97c14.48,43.73-54.09,59.32-120.8,59.32s-105.57-20.82-100.67-53.21c12.52-82.69,40.93,7.94,107.65,7.94s88.23-91.35,113.82-14.05Z"/>
  <path class="cls-3" d="m430.92,500.84c-8.2,11.93-6.69-10.76-30.16-8.96-21.3,1.64-18.28,17.24-23.53,10.19-15.6-20.92.33-20.09,21.38-19.33,26.49.96,47.96-4.68,32.31,18.1Z"/>
  <path class="cls-3" d="m529.23,500.84c-8.2,11.93-6.69-10.76-30.16-8.96-21.3,1.64-18.28,17.24-23.53,10.19-15.6-20.92.33-20.09,21.38-19.33,26.49.96,47.96-4.68,32.31,18.1Z"/>
</svg>