<?xml version="1.0" encoding="utf-8"?>
<!-- Generator: Adobe Illustrator 27.5.0, SVG Export Plug-In . SVG Version: 6.00 Build 0)  -->
<svg version="1.1" xmlns="http://www.w3.org/2000/svg" xmlns:xlink="http://www.w3.org/1999/xlink" x="0px" y="0px"
	 viewBox="0 0 3710 3710" style="enable-background:new 0 0 3710 3710;" xml:space="preserve">
<g id="Background">
	<g>
		<g>
			<rect style="fill:#FFFFFF;" width="3710" height="3710"/>
		</g>
	</g>
</g>
<g id="Illustration">
	<g>
		<linearGradient id="SVGID_1_" gradientUnits="userSpaceOnUse" x1="3489.6338" y1="3904.6814" x2="1134.0508" y2="979.1951">
			<stop  offset="0" style="stop-color:#DAE3FE"/>
			<stop  offset="1" style="stop-color:#E9EFFD"/>
		</linearGradient>
		<path style="fill:url(#SVGID_1_);" d="M2841.598,2750.975c-54.107,56.961-105.302,93.695-145.75,122.717
			c-475.464,341.15-1038.063,241.707-1157.632,217.422c-176.565-35.861-517.861-105.18-764.612-395.354
			c-373.313-439.009-315.183-1130.655-25.616-1587.221c52.966-83.514,332.75-547.033,901.409-621.367
			c344.146-44.986,745.311,45.745,1035.823,289.137C3295.031,1287.209,3251.619,2319.318,2841.598,2750.975z"/>
		<g>
			<path style="fill:#91B3FA;" d="M2991.215,471.618c3.811-11.763-9.905-21.428-19.816-14.036
				c-100.648,75.063-348.221,305.963-344.57,759.073c4.581,568.494-135.482,759.822-295.062,868.099
				c0,0,206.344-35.993,355.57-229.328C3053.719,1380.743,2923.454,680.76,2991.215,471.618z"/>
			<path style="fill:#FFFFFF;" d="M2902.1,638.888c-18.473,61.13-35.73,122.591-50.715,184.596
				c-15.308,61.915-28.733,124.266-40.195,186.945c-11.22,62.718-21.262,125.637-28.617,188.889
				c-7.638,63.216-12.553,126.689-17.264,190.435c-5.065,63.682-9.805,127.865-21.13,191.758
				c-11.243,63.769-30.279,127.22-60.344,185.313c-7.51,14.476-15.314,28.871-23.888,42.664
				c-8.322,13.957-17.264,27.549-26.446,40.976c-18.502,26.768-38.812,52.354-60.927,76.316
				c-44.36,47.819-95.969,88.845-151.479,122.222c-5.843,3.513-13.426,1.624-16.94-4.219c-3.449-5.736-1.69-13.153,3.906-16.745
				l0.04-0.025c13.271-8.5,26.429-17.142,39.157-26.34c6.439-4.498,12.664-9.273,18.977-13.928
				c6.128-4.889,12.449-9.541,18.42-14.614c24.22-19.882,47.015-41.441,68.102-64.578c42.356-46.017,78.055-98.602,106.874-154.048
				c14.101-27.894,26.122-56.778,35.879-86.488c9.735-29.72,17.201-60.234,22.932-91.197
				c11.472-61.961,16.688-125.448,22.21-189.091c5.606-63.649,11.677-127.571,20.368-191.144c4.259-31.794,9.09-63.508,14.485-95.12
				c2.607-15.82,5.52-31.588,8.403-47.358c3.035-15.742,6.157-31.466,9.406-47.16c13.114-62.758,28.136-125.085,45.106-186.851
				c17.266-61.684,36.164-122.889,57.386-183.263c0.607-1.726,2.497-2.633,4.222-2.026
				C2901.704,635.396,2902.605,637.205,2902.1,638.888z"/>
		</g>
		<g>
			<g>
				<path style="fill:#BDD0FB;" d="M2515.311,2412.801c2.297,22.666,26.997,35.62,47.091,24.884
					c110.876-59.236,409.215-255.065,491.917-681.071c69.838-359.743,141.894-548.173,180.532-631.447
					c8.17-17.609-10.888-35.413-27.919-26.098C3019.029,1201.84,2432.069,1591.478,2515.311,2412.801z"/>
				<path style="fill:#FFFFFF;" d="M2545.182,2420.503c0.38,0.418,0.805,0.803,1.276,1.153c3.941,2.931,9.513,2.113,12.445-1.828
					c3.323-4.469,333.69-452.53,453.391-948.341c1.15-4.772-1.784-9.577-6.56-10.735c-4.776-1.151-9.58,1.784-10.736,6.56
					c-118.829,492.203-447.069,937.461-450.369,941.9C2542.046,2412.682,2542.373,2417.418,2545.182,2420.503z"/>
			</g>
		</g>
		<g>
			
				<linearGradient id="SVGID_00000078757375349483719170000006129705847545251509_" gradientUnits="userSpaceOnUse" x1="1036.5828" y1="1924.7402" x2="2728.5725" y2="1924.7402">
				<stop  offset="0" style="stop-color:#09005D"/>
				<stop  offset="1" style="stop-color:#1A0F91"/>
			</linearGradient>
			<path style="fill:url(#SVGID_00000078757375349483719170000006129705847545251509_);" d="M1067.588,790.234
				c-9.979,402.553-42.345,1791.112-26.894,2283.175c1.637,52.13,43.427,93.97,95.554,95.676
				c257.824,8.437,999.509,29.822,1421.222,12.129c87.836-3.685,157.686-74.833,159.509-162.727
				c8.763-422.531,28.097-1610.952-17.858-2155.368c-5.506-65.229-56.703-117.174-121.839-123.69
				c-280.782-28.089-1026.533-96.749-1390.866-73.106C1120.707,670.586,1069.219,724.407,1067.588,790.234z"/>
			
				<linearGradient id="SVGID_00000153668307771503802440000016873052387332950406_" gradientUnits="userSpaceOnUse" x1="1125.2196" y1="1846.566" x2="2639.9358" y2="1846.566">
				<stop  offset="0" style="stop-color:#4F52FF"/>
				<stop  offset="1" style="stop-color:#4042E2"/>
			</linearGradient>
			<path style="fill:url(#SVGID_00000153668307771503802440000016873052387332950406_);" d="M1172.349,915.315
				c-14.082,329.688-58.498,1426.483-44.401,1832.056c2.06,59.28,48.783,107.212,107.997,110.677
				c243.804,14.267,869.139,45.727,1226.739,17.091c64.392-5.156,114.921-57.232,118.396-121.736
				c18.122-336.352,70.154-1357.622,56.641-1758.649c-2.156-63.975-51.712-116.222-115.467-121.947
				c-263.757-23.681-941.174-80.028-1245.053-63.448C1220.158,812.473,1174.787,858.238,1172.349,915.315z"/>
			<path style="opacity:0.5;fill:#FFFFFF;" d="M1704.771,736.662L1704.771,736.662c0,12.352,9.627,22.539,21.961,23.185
				c60.896,3.189,232.443,12.213,309.108,16.661c15.116,0.877,26.98-12.711,24.113-27.579l-0.49-2.537
				c-1.957-10.145-10.37-17.781-20.659-18.724c-51.823-4.749-208.194-17.916-311.8-14.217
				C1714.56,713.897,1704.771,724.209,1704.771,736.662z"/>
		</g>
		<path style="fill:#91B3FA;" d="M2414.6,1986.348H1318.653c-39.417,0-71.37-36.311-71.37-81.103v-902.446
			c0-59.991,43.675-108.088,96.441-106.205l1091.819,40.949c92.596,6.67,91.347,106.064,91.347,176.884l-0.001,744.32
			C2526.888,1929.218,2476.615,1986.348,2414.6,1986.348z"/>
		<g style="opacity:0.86;">
			<path style="fill:#FFFFFF;" d="M2443.079,1264.175h-711.401c-5.404,0-9.826-4.422-9.826-9.826v-50.279
				c0-5.404,4.422-9.826,9.826-9.826h711.401c5.404,0,9.826,4.422,9.826,9.826v50.279
				C2452.905,1259.753,2448.483,1264.175,2443.079,1264.175z"/>
			<path style="fill:#FFFFFF;" d="M2443.079,1395.399h-711.401c-5.404,0-9.826-4.422-9.826-9.826v-50.279
				c0-5.404,4.422-9.826,9.826-9.826h711.401c5.404,0,9.826,4.422,9.826,9.826v50.279
				C2452.905,1390.977,2448.483,1395.399,2443.079,1395.399z"/>
		</g>
		<g style="opacity:0.86;">
			<path style="fill:#FFFFFF;" d="M2439.913,1691.282h-711.401c-5.404,0-9.826-4.422-9.826-9.826v-50.279
				c0-5.404,4.422-9.826,9.826-9.826h711.401c5.404,0,9.826,4.422,9.826,9.826v50.279
				C2449.739,1686.86,2445.317,1691.282,2439.913,1691.282z"/>
			<path style="fill:#FFFFFF;" d="M2439.913,1822.506h-711.401c-5.404,0-9.826-4.422-9.826-9.826v-50.279
				c0-5.404,4.422-9.826,9.826-9.826h711.401c5.404,0,9.826,4.422,9.826,9.826v50.279
				C2449.739,1818.084,2445.317,1822.506,2439.913,1822.506z"/>
		</g>
		<path style="opacity:0.86;fill:#FFFFFF;" d="M2162.052,1061.734h-495.64c-5.404,0-9.826-4.422-9.826-9.826v-50.279
			c0-5.404,4.422-9.826,9.826-9.826h495.64c5.404,0,9.826,4.422,9.826,9.826v50.279
			C2171.878,1057.312,2167.456,1061.734,2162.052,1061.734z"/>
		<g>
			<path style="opacity:0.7;fill:#FFFFFF;" d="M1666.772,1483.125h-317.924c-15.747,0-28.513-12.766-28.513-28.513v-317.923
				c0-15.747,12.766-28.513,28.513-28.513h317.924c15.747,0,28.513,12.766,28.513,28.513v317.923
				C1695.286,1470.36,1682.52,1483.125,1666.772,1483.125z"/>
			<g>
				
					<linearGradient id="SVGID_00000081619631267227540730000008104828774556199818_" gradientUnits="userSpaceOnUse" x1="1471.3405" y1="944.5731" x2="1531.6007" y2="1624.1704">
					<stop  offset="0" style="stop-color:#FF928E"/>
					<stop  offset="1" style="stop-color:#FE7062"/>
				</linearGradient>
				<path style="fill:url(#SVGID_00000081619631267227540730000008104828774556199818_);" d="M1414.347,1240.168
					c14.178,102.848,66.684,151.043,137.766,172.763l41.036-32.982c-74.745-30.243-127.223-83.987-149.49-169.621L1414.347,1240.168
					z"/>
				
					<linearGradient id="SVGID_00000160153235890569477000000016520774081662643867_" gradientUnits="userSpaceOnUse" x1="1552.0439" y1="937.4177" x2="1612.3043" y2="1617.0148">
					<stop  offset="0" style="stop-color:#FF928E"/>
					<stop  offset="1" style="stop-color:#FE7062"/>
				</linearGradient>
				<path style="fill:url(#SVGID_00000160153235890569477000000016520774081662643867_);" d="M1549.625,1412.144
					c43.273,7.107,48.422,7.518,83.823-15.958c3.967-2.63,4.352-8.363,0.731-11.451l-62.535-53.328
					c-2.443-2.083-6.202-1.244-7.526,1.681l-10.312,22.775L1549.625,1412.144z"/>
				
					<linearGradient id="SVGID_00000084493704265073804440000015565562845824881049_" gradientUnits="userSpaceOnUse" x1="1428.8002" y1="948.3455" x2="1489.0605" y2="1627.9427">
					<stop  offset="0" style="stop-color:#FF928E"/>
					<stop  offset="1" style="stop-color:#FE7062"/>
				</linearGradient>
				<path style="fill:url(#SVGID_00000084493704265073804440000015565562845824881049_);" d="M1412.87,1242.688
					c-4.279-39.543-3.548-45.505,20.897-78.406c2.839-3.82,8.584-3.899,11.474-0.118l49.912,65.293
					c1.95,2.551,0.911,6.259-2.081,7.426l-23.293,9.081l-51.991,1.077C1415.279,1247.093,1413.139,1245.183,1412.87,1242.688z"/>
			</g>
		</g>
		<g>
			<path style="opacity:0.7;fill:#FFFFFF;" d="M1661.85,1900.712h-331.409c-15.747,0-28.513-12.766-28.513-28.513V1540.79
				c0-15.747,12.766-28.513,28.513-28.513h331.409c15.747,0,28.513,12.766,28.513,28.513v331.409
				C1690.364,1887.947,1677.598,1900.712,1661.85,1900.712z"/>
			<g>
				<g>
					<g>
						
							<linearGradient id="SVGID_00000044171657264588434150000008167836731415370671_" gradientUnits="userSpaceOnUse" x1="1487.2111" y1="1899.1676" x2="1500.5466" y2="1581.3337">
							<stop  offset="0" style="stop-color:#FF928E"/>
							<stop  offset="1" style="stop-color:#FE7062"/>
						</linearGradient>
						
							<circle style="fill:url(#SVGID_00000044171657264588434150000008167836731415370671_);" cx="1497.591" cy="1651.776" r="103.309"/>
						
							<linearGradient id="SVGID_00000003098928742319582640000003933716274553200300_" gradientUnits="userSpaceOnUse" x1="1487.0717" y1="1899.1617" x2="1500.4072" y2="1581.3285">
							<stop  offset="0" style="stop-color:#FF928E"/>
							<stop  offset="1" style="stop-color:#FE7062"/>
						</linearGradient>
						<path style="fill:url(#SVGID_00000003098928742319582640000003933716274553200300_);" d="M1600.711,1646.238h-103.12h-103.309
							c0,0-8.224,57.341,83.977,214.399c4.023,6.852,11.373,10.947,19.319,10.951c7.946,0.004,15.309-4.023,19.332-10.875
							C1609.103,1703.641,1600.711,1646.238,1600.711,1646.238z"/>
					</g>
					<g>
						
							<linearGradient id="SVGID_00000101069273321084720610000003399191750251542176_" gradientUnits="userSpaceOnUse" x1="1458.8749" y1="1514.6205" x2="1567.3154" y2="1903.4561">
							<stop  offset="0" style="stop-color:#FF928E"/>
							<stop  offset="1" style="stop-color:#FE7062"/>
						</linearGradient>
						<path style="fill:url(#SVGID_00000101069273321084720610000003399191750251542176_);" d="M1497.545,1874.94v0.581h0.032
							c-8.992,0-17.386-4.948-21.904-12.644c-53.895-91.806-73.643-149.854-80.718-182.336c-2.017-7.472-3.176-14.797-3.542-22.307
							c-0.624-7.682-0.147-10.918-0.09-11.26l0.272-1.653c4.162-55.494,50.348-98.682,105.996-98.682
							c56.379,0,102.982,43.8,106.133,99.736c0.079,0.732,0.23,2.589,0.171,5.695l0.005,0.381c0,10.147-1.434,20.197-4.261,29.873
							c-7.318,32.453-27.188,89.929-80.164,180.186C1514.927,1870.257,1506.84,1874.94,1497.545,1874.94z M1397.102,1650.885
							c-0.025,1.549,0.022,3.761,0.294,7.092l0.007-0.011c0.343,7.114,1.443,13.964,3.362,21.056l0.035,0.119
							c6.968,32.041,26.512,89.363,80.045,180.553c3.447,5.871,9.836,9.512,16.711,9.516l-0.013,2.992v-2.999
							c6.197,0,13.281-3.677,16.756-9.598c52.637-89.679,72.288-146.672,79.495-178.691l0.053-0.185
							c2.684-9.156,3.447-18.67,3.447-28.277l-0.603-0.422v-0.034c0-2.99,0.506-4.608,0.458-5.032l0.286-0.174
							c-2.933-52.798-46.773-94.156-99.998-94.156c-53.123,0-97.033,41.941-100.061,95.202l-0.086,3.05H1397.102z"/>
					</g>
					
						<ellipse transform="matrix(0.9871 -0.1602 0.1602 0.9871 -245.1893 261.2645)" style="opacity:0.8;fill:#FFFFFF;" cx="1497.924" cy="1651.443" rx="59.652" ry="59.652"/>
					<g>
						
							<linearGradient id="SVGID_00000100370828104468898910000008725517152420654976_" gradientUnits="userSpaceOnUse" x1="1582.3083" y1="1560.3289" x2="1944.595" y2="1169.1483">
							<stop  offset="0" style="stop-color:#FEBBBA"/>
							<stop  offset="1" style="stop-color:#FF928E"/>
						</linearGradient>
						<path style="fill:url(#SVGID_00000100370828104468898910000008725517152420654976_);" d="M1497.924,1714.428
							c-34.73,0-62.985-28.255-62.985-62.985c0-34.73,28.255-62.985,62.985-62.985c34.73,0,62.985,28.255,62.985,62.985
							C1560.91,1686.173,1532.654,1714.428,1497.924,1714.428z M1497.924,1595.123c-31.055,0-56.32,25.265-56.32,56.32
							c0,31.055,25.265,56.32,56.32,56.32c31.055,0,56.32-25.265,56.32-56.32
							C1554.245,1620.388,1528.979,1595.123,1497.924,1595.123z"/>
					</g>
				</g>
				<g>
					<path style="opacity:0.8;fill:#FFFFFF;" d="M1441.338,1589.335c-0.281,0-0.561-0.118-0.759-0.349
						c-0.359-0.419-0.312-1.05,0.108-1.41c16.758-14.392,38.168-22.318,60.287-22.318c0.552,0,1,0.447,1,1c0,0.552-0.447,1-1,1
						c-21.641,0-42.589,7.755-58.984,21.835C1441.8,1589.256,1441.568,1589.335,1441.338,1589.335z"/>
				</g>
				<g>
					<path style="opacity:0.8;fill:#FFFFFF;" d="M1409.395,1658.837c-0.552,0-1-0.448-1-1c0-17.274,4.789-34.126,13.849-48.732
						c0.291-0.469,0.908-0.614,1.377-0.323c0.469,0.291,0.614,0.907,0.323,1.377c-8.864,14.29-13.549,30.777-13.549,47.678
						C1410.395,1658.39,1409.947,1658.837,1409.395,1658.837z"/>
				</g>
			</g>
		</g>
		<g>
			
				<linearGradient id="SVGID_00000044884039305194002380000006222666361129056133_" gradientUnits="userSpaceOnUse" x1="14330.5293" y1="3008.6267" x2="13723.29" y2="3669.1333" gradientTransform="matrix(1 0.0095 -0.0095 1 -13247.2676 -63.4747)">
				<stop  offset="0" style="stop-color:#09005D"/>
				<stop  offset="1" style="stop-color:#1A0F91"/>
			</linearGradient>
			<path style="fill:url(#SVGID_00000044884039305194002380000006222666361129056133_);" d="M862.263,3128.664
				c0,0-6.629,35.543-10.048,70.758c-1.337,13.762,9.168,25.822,22.977,26.53c46.914,2.402,147.271,7.161,183.311,5.897
				c5.418-0.19,9.011-5.7,7.055-10.756c-1.639-4.236-4.846-7.68-8.956-9.616l-165.101-77.797L862.263,3128.664z"/>
			
				<linearGradient id="SVGID_00000007393085082489791510000017107849984472681103_" gradientUnits="userSpaceOnUse" x1="14133.4287" y1="3057.6772" x2="14187.3672" y2="3057.6772" gradientTransform="matrix(1 0.0095 -0.0095 1 -13247.2676 -63.4747)">
				<stop  offset="0" style="stop-color:#FEBBBA"/>
				<stop  offset="1" style="stop-color:#FF928E"/>
			</linearGradient>
			<path style="fill:url(#SVGID_00000007393085082489791510000017107849984472681103_);" d="M857.311,3107.697l4.646,42.634
				c0,0,28.92,13.8,48.903-1.238l-11.576-47.573L857.311,3107.697z"/>
			
				<linearGradient id="SVGID_00000181061807008433445630000006243940059495439241_" gradientUnits="userSpaceOnUse" x1="573.2162" y1="3479.2202" x2="976.9281" y2="2258.5869">
				<stop  offset="0" style="stop-color:#09005D"/>
				<stop  offset="1" style="stop-color:#1A0F91"/>
			</linearGradient>
			<path style="fill:url(#SVGID_00000181061807008433445630000006243940059495439241_);" d="M868.747,2307.106
				c-2.288,11.1-17.009,554.853,38.798,799.124c0.911,3.986-1.144,8.066-4.943,9.576c-8.951,3.558-26.481,8.667-47.436,9.17
				c-6.489,0.156-12.266-4.116-14.036-10.36c-16.077-56.704-93.001-340.774-100.806-611.51
				c-8.722-302.522,0.098-10.297,0.098-10.297l8.591-186.867L868.747,2307.106z"/>
			
				<linearGradient id="SVGID_00000010312269438271163250000000033948653282333345_" gradientUnits="userSpaceOnUse" x1="14194.3057" y1="2883.3667" x2="13587.041" y2="3543.9009" gradientTransform="matrix(1 0.0095 -0.0095 1 -13247.2676 -63.4747)">
				<stop  offset="0" style="stop-color:#09005D"/>
				<stop  offset="1" style="stop-color:#1A0F91"/>
			</linearGradient>
			<path style="fill:url(#SVGID_00000010312269438271163250000000033948653282333345_);" d="M671.328,3145.419
				c0,0-10.182,17.878-20.33,65.546c-1.833,8.609,4.116,16.921,12.866,17.866c15.483,1.672,39.322,3.859,58.434,3.91
				c8.81,0.023,15.758-7.582,14.78-16.338c-1.95-17.453-8.272-46.118-28.432-68.604L671.328,3145.419z"/>
			
				<linearGradient id="SVGID_00000008838193025683799120000006173913246566783403_" gradientUnits="userSpaceOnUse" x1="13939.0303" y1="3054.9036" x2="13985.5996" y2="3054.9036" gradientTransform="matrix(1 0.0095 -0.0095 1 -13247.2676 -63.4747)">
				<stop  offset="0" style="stop-color:#FEBBBA"/>
				<stop  offset="1" style="stop-color:#FF928E"/>
			</linearGradient>
			<path style="fill:url(#SVGID_00000008838193025683799120000006173913246566783403_);" d="M663.058,3090.56l11.191,64.514
				c0,0,11.591,8.794,34.744,2.72l-4.975-69.345L663.058,3090.56z"/>
			
				<linearGradient id="SVGID_00000152962433268305189940000004748211349793193904_" gradientUnits="userSpaceOnUse" x1="440.244" y1="3435.241" x2="843.9562" y2="2214.6064">
				<stop  offset="0" style="stop-color:#09005D"/>
				<stop  offset="1" style="stop-color:#1A0F91"/>
			</linearGradient>
			<path style="fill:url(#SVGID_00000152962433268305189940000004748211349793193904_);" d="M638.496,2321.6
				c-50.282,286.484,3.547,709.287,22.272,792.118c1.146,5.072,5.193,8.987,10.313,9.886c8.696,1.526,23.025,2.842,37.202-1.13
				c4.884-1.367,8.349-5.728,8.595-10.795c3.255-66.791,2.457-477.02,48.304-638.704c2.323-8.194,7.408-15.311,14.397-20.18
				l86.568-60.307l7.536-98.746L638.496,2321.6z"/>
			<g>
				
					<linearGradient id="SVGID_00000061459231701897354220000008095200522289646493_" gradientUnits="userSpaceOnUse" x1="7573.314" y1="-10939.3428" x2="7063.249" y2="-10214.25" gradientTransform="matrix(-1 0 0 1 -703.6557 0)">
					<stop  offset="0" style="stop-color:#FF928E"/>
					<stop  offset="1" style="stop-color:#FE7062"/>
				</linearGradient>
				<path style="fill:url(#SVGID_00000061459231701897354220000008095200522289646493_);" d="M946.64,1780.8
					c-142.461-3.714-300.053,34.553-300.053,34.553c-44.836,247.412-12.518,533.589-12.518,533.589
					c110.031,29.979,234.908-15.447,234.908-15.447c19.322-103.407,107.644-394.106,107.644-394.106
					c69.699-7.975,127.24-27.514,174.72-53.617c-35.625-42.102-52.102-95.398-59.178-126.877
					C1041.636,1774.069,990.581,1781.946,946.64,1780.8z"/>
				
					<linearGradient id="SVGID_00000169535136410706301280000006800980049650931332_" gradientUnits="userSpaceOnUse" x1="14355.4473" y1="1650.4611" x2="14631.0244" y2="1650.4611" gradientTransform="matrix(1 0.0095 -0.0095 1 -13247.2676 -63.4747)">
					<stop  offset="0" style="stop-color:#FEBBBA"/>
					<stop  offset="1" style="stop-color:#FF928E"/>
				</linearGradient>
				<path style="fill:url(#SVGID_00000169535136410706301280000006800980049650931332_);" d="M1369.512,1574.946
					c-13.835-17.04-31.627-9.211-31.627-9.211c-21.813,88.37-132.438,159.135-245.723,193.16
					c7.076,31.479,23.552,84.775,59.178,126.877C1339.797,1782.164,1369.512,1574.946,1369.512,1574.946z"/>
			</g>
			<g>
				
					<linearGradient id="SVGID_00000018236025035106691430000001233658431760709271_" gradientUnits="userSpaceOnUse" x1="1454.4244" y1="1211.277" x2="1343.5959" y2="1660.9242">
					<stop  offset="0" style="stop-color:#FEBBBA"/>
					<stop  offset="1" style="stop-color:#FF928E"/>
				</linearGradient>
				<path style="fill:url(#SVGID_00000018236025035106691430000001233658431760709271_);" d="M1366.074,1579.212
					c1.42,4.67-15.607,11.598-25.412-7.539c-0.261-9.13-5.439-48.281,0.086-55.664c29.422-39.32,86.206-88.42,86.206-88.42
					c9.428,9.482,1.499,18.632,1.499,18.632l-27.589,28.197c5.616,10.379,12.502,19.162,15.65,31.682
					c2.383,9.481,0.774,19.574-4.086,28.137c-4.878,8.593-11.527,19.76-17.795,28.489
					C1382.768,1579.246,1366.074,1579.212,1366.074,1579.212z"/>
				
					<linearGradient id="SVGID_00000065062117388032985440000016755132175923442074_" gradientUnits="userSpaceOnUse" x1="1399.4069" y1="1354.4008" x2="1323.4099" y2="1861.0448">
					<stop  offset="0" style="stop-color:#FEBBBA"/>
					<stop  offset="1" style="stop-color:#FF928E"/>
				</linearGradient>
				<path style="fill:url(#SVGID_00000065062117388032985440000016755132175923442074_);" d="M1388.741,1492.767l-25.095,20.866
					l-8.016,20.936l21.96,24.834c0,0,7.86-41.618,13.493-50.588C1396.715,1499.845,1393.88,1495.454,1388.741,1492.767z"/>
			</g>
			
				<linearGradient id="SVGID_00000072991909998744871480000003465293344111958202_" gradientUnits="userSpaceOnUse" x1="7706.2998" y1="-10845.8008" x2="7196.2349" y2="-10120.709" gradientTransform="matrix(-1 0 0 1 -703.6557 0)">
				<stop  offset="0" style="stop-color:#FF928E"/>
				<stop  offset="1" style="stop-color:#FE7062"/>
			</linearGradient>
			<path style="fill:url(#SVGID_00000072991909998744871480000003465293344111958202_);" d="M699.921,1953.84l-53.334-138.487
				c0,0-133.951,89.157-156.931,203.599c25.129,2.092,70.826,9.069,115.4,32.113C615.414,1997.022,699.921,1953.84,699.921,1953.84z
				"/>
			
				<linearGradient id="SVGID_00000094587902870346329330000010781556645516364695_" gradientUnits="userSpaceOnUse" x1="13752.4297" y1="2040.7711" x2="14101.1641" y2="2040.7711" gradientTransform="matrix(1 0.0095 -0.0095 1 -13247.2676 -63.4747)">
				<stop  offset="0" style="stop-color:#FEBBBA"/>
				<stop  offset="1" style="stop-color:#FF928E"/>
			</linearGradient>
			<path style="fill:url(#SVGID_00000094587902870346329330000010781556645516364695_);" d="M814.986,2084.771
				c0,0-150.229,83.021-199.959,10.432c-10.324-15.073-12.686-29.976-9.971-44.138c-44.574-23.043-90.271-30.021-115.4-32.113
				c-6.928,34.501-3.791,71.295,16.165,108.642c86.774,162.396,328.589-5.794,328.589-5.794L814.986,2084.771z"/>
			
				<linearGradient id="SVGID_00000062181057863138158080000000967189457900483742_" gradientUnits="userSpaceOnUse" x1="14020.2217" y1="1667.9597" x2="14158.1055" y2="1667.9597" gradientTransform="matrix(1 0.0095 -0.0095 1 -13247.2676 -63.4747)">
				<stop  offset="0" style="stop-color:#FEBBBA"/>
				<stop  offset="1" style="stop-color:#FF928E"/>
			</linearGradient>
			<path style="fill:url(#SVGID_00000062181057863138158080000000967189457900483742_);" d="M803.42,1663.749l-46.587,130.677
				c-0.771,2.164,0.098,4.578,2.099,5.71c12.293,6.95,56.628,27.125,110.608-6.382c5.623-3.491,9.484-9.234,10.395-15.789
				l15.763-113.335L803.42,1663.749z"/>
			<g>
				
					<linearGradient id="SVGID_00000121977082187205389850000009618626888090105780_" gradientUnits="userSpaceOnUse" x1="5175.7363" y1="7815.3892" x2="5124.2109" y2="7645.4473" gradientTransform="matrix(0.7523 -0.6588 0.6588 0.7523 -8113.8643 -818.1582)">
					<stop  offset="0" style="stop-color:#FEBBBA"/>
					<stop  offset="1" style="stop-color:#FF928E"/>
				</linearGradient>
				<path style="fill:url(#SVGID_00000121977082187205389850000009618626888090105780_);" d="M903.223,1543.28
					c0,0,48.891,94.187,42.148,131.981c-6.742,37.794-68.416,34.487-122,3.229l-36.683-101.547L903.223,1543.28z"/>
				
					<linearGradient id="SVGID_00000082334829807413131110000015735678265389662598_" gradientUnits="userSpaceOnUse" x1="5129.2539" y1="7519.29" x2="5172.3535" y2="7765.1191" gradientTransform="matrix(0.7523 -0.6588 0.6588 0.7523 -8113.8643 -818.1582)">
					<stop  offset="0" style="stop-color:#09005D"/>
					<stop  offset="1" style="stop-color:#1A0F91"/>
				</linearGradient>
				<path style="fill:url(#SVGID_00000082334829807413131110000015735678265389662598_);" d="M826.226,1628.82
					c2.199-0.949,3.032-3.621,1.74-5.638c-3.931-6.131-11.289-18.633-13.571-29.539c0,0-8.894-5.817,22.905-13.109
					c31.801-7.292,79.228-18.628,89.431-45.539c9.948-26.239-14.897-92.698-56.046-40.326c-1.565,1.993-4.595,2.008-6.12-0.016
					c-6.579-8.735-23.926-26.904-48.351-16.223c-22.857,9.995-25.58,26.648-25.347,35.058c0.068,2.473-2.161,4.375-4.587,3.888
					c-11.486-2.305-39.082-4.453-52.241,23.751c-10.838,23.231-4.064,36.505,2.158,43.024c2.016,2.112,1.091,5.551-1.71,6.378
					c-7.585,2.243-17.411,8.563-16.603,26.291c1.118,24.507,28.525,22.611,36.332,21.568c1.279-0.17,2.563,0.28,3.418,1.246
					c6.615,7.462,36.437,39.164,69.003,43.262c2.82,0.355,5.035-2.411,4.136-5.108l-13.718-41.147
					c-0.637-1.911,0.294-3.992,2.143-4.79L826.226,1628.82z"/>
				
					<linearGradient id="SVGID_00000021826873738303118080000012051427170944695714_" gradientUnits="userSpaceOnUse" x1="5123.0659" y1="7814.5957" x2="5076.708" y2="7661.6958" gradientTransform="matrix(0.7523 -0.6588 0.6588 0.7523 -8113.8643 -818.1582)">
					<stop  offset="0" style="stop-color:#FEBBBA"/>
					<stop  offset="1" style="stop-color:#FF928E"/>
				</linearGradient>
				<path style="fill:url(#SVGID_00000021826873738303118080000012051427170944695714_);" d="M831.842,1634.695
					c0,0-35.214-24.658-38-4.202c-2.784,20.455,31.636,29.969,48.802,22.497L831.842,1634.695z"/>
			</g>
			<g>
				<g>
					
						<linearGradient id="SVGID_00000066500445852607020790000018175353701299535786_" gradientUnits="userSpaceOnUse" x1="13906.999" y1="1886.3579" x2="14099.4297" y2="2688.1553" gradientTransform="matrix(1 0 0 1 -12978.9785 0)">
						<stop  offset="0" style="stop-color:#09005D"/>
						<stop  offset="1" style="stop-color:#1A0F91"/>
					</linearGradient>
					<path style="fill:url(#SVGID_00000066500445852607020790000018175353701299535786_);" d="M784.284,2215.976l81.836-285.79
						c0.929-3.244,3.697-5.61,7.049-6.001c14.827-1.73,57.791-6.587,107.397-10.783c59.752-5.055,129.142-9.149,170.607-5.666
						c5.895,0.495,9.457,6.73,6.836,12.033c-23.579,47.705-120.571,241.755-169.141,305.324c-1.609,2.106-4.098,3.337-6.748,3.313
						l-189.873-1.766C786.72,2226.589,782.763,2221.288,784.284,2215.976z"/>
					
						<linearGradient id="SVGID_00000046319227529681053080000007765961562857501109_" gradientUnits="userSpaceOnUse" x1="13775.1396" y1="2098.4761" x2="13884.166" y2="2098.4761" gradientTransform="matrix(1 0 0 1 -12978.9785 0)">
						<stop  offset="0" style="stop-color:#FEBBBA"/>
						<stop  offset="1" style="stop-color:#FF928E"/>
					</linearGradient>
					<path style="fill:url(#SVGID_00000046319227529681053080000007765961562857501109_);" d="M804.056,2146.93
						c0,0-11.4-46.876-6.802-63.506c4.599-16.631,13.508-38.013,43.205-33.261c29.698,4.751,64.729,17.262,64.729,17.262
						s-1.77,21.662-24.34,14.673l13.997,10.83c0,0-2.001,17.344-21.065,8.078l13.018,14.362c0,0-8.188,14.245-22.214,5.109
						C850.557,2111.339,843.833,2152.574,804.056,2146.93z"/>
				</g>
			</g>
		</g>
		<path style="fill:#91B3FA;" d="M2351.469,2814.618l-1027.824-32.136c-42.559-1.331-76.363-35.84-76.363-77.957v-546.729
			c0-49.4,40.487-89.446,90.431-89.446h1097.716c39.064,0,70.315,32.086,68.859,70.698l-20.891,553.774
			C2480.772,2762.4,2421.827,2816.818,2351.469,2814.618z"/>
		<g>
			<g>
				
					<linearGradient id="SVGID_00000053542971214673451730000010422379290374438040_" gradientUnits="userSpaceOnUse" x1="1705.1539" y1="2933.5044" x2="1895.178" y2="2393.4358">
					<stop  offset="0" style="stop-color:#FF928E"/>
					<stop  offset="1" style="stop-color:#FE7062"/>
				</linearGradient>
				<path style="fill:url(#SVGID_00000053542971214673451730000010422379290374438040_);" d="M2231.826,2707.655h-711.737
					c-28.735,0-52.029-21.31-52.029-47.598v-423.983c0-25.258,21.566-46.119,49.133-47.524l739.202-37.693
					c30.949-1.578,56.532,21.796,54.848,50.111l-27.464,461.675C2282.276,2687.889,2259.462,2707.655,2231.826,2707.655z"/>
				<g>
					
						<linearGradient id="SVGID_00000000941098859164170970000003586278163740329882_" gradientUnits="userSpaceOnUse" x1="1845.4332" y1="2435.7852" x2="1975.4502" y2="1545.6716">
						<stop  offset="0" style="stop-color:#FF928E"/>
						<stop  offset="1" style="stop-color:#FE7062"/>
					</linearGradient>
					<path style="fill:url(#SVGID_00000000941098859164170970000003586278163740329882_);" d="M1892.575,2451.82l389.059-296.425
						c-7.59-3.311-16.182-5-25.24-4.538l-739.202,37.693c-12.711,0.648-24.14,5.44-32.773,12.885l291.176,247.736
						C1807.206,2476.064,1859.207,2477.242,1892.575,2451.82z"/>
				</g>
			</g>
			<path style="fill:#FFFFFF;" d="M1838.489,2437.129c-19.343,0-38.597-6.331-54.07-18.828l-109.709-88.605
				c-3.22-2.601-3.526-7.095-0.683-10.04c2.842-2.95,7.761-3.228,10.975-0.625l109.709,88.605
				c23.307,18.821,57.214,20.375,82.464,3.774l56.849-37.38c3.499-2.293,8.345-1.561,10.854,1.625
				c2.506,3.191,1.711,7.634-1.777,9.929l-56.849,37.38C1871.834,2432.442,1855.128,2437.129,1838.489,2437.129z"/>
			<path style="fill:#FFFFFF;" d="M1639.039,2298.512c-1.83,0-3.665-0.586-5.143-1.781l-14.769-11.927
				c-3.22-2.6-3.526-7.095-0.684-10.04c2.84-2.95,7.755-3.223,10.975-0.625l14.77,11.927c3.219,2.601,3.526,7.095,0.683,10.041
				C1643.334,2297.699,1641.19,2298.512,1639.039,2298.512z"/>
		</g>
	</g>
</g>
</svg>
