<?xml version="1.0" encoding="UTF-8"?>
<svg id="Layer_1" data-name="Layer 1" xmlns="http://www.w3.org/2000/svg" viewBox="0 0 3134.8 2105.37">
  <defs>
    <style>
      .cls-1 {
        fill: #fff;
      }

      .cls-2 {
        fill: #f9c710;
      }

      .cls-3 {
        fill: #10cdf9;
      }

      .cls-4 {
        fill: #ff3e84;
      }

      .cls-5 {
        fill: #262f6a;
      }

      .cls-6 {
        fill: #dad6fc;
      }

      .cls-7 {
        fill: #6b184e;
      }

      .cls-8 {
        fill: #f89f1d;
      }

      .cls-9 {
        opacity: .55;
      }

      .cls-9, .cls-10 {
        fill: none;
      }

      .cls-11 {
        fill: #000072;
      }

      .cls-10 {
        opacity: .3;
      }

      .cls-12 {
        fill: #b59bf0;
      }

      .cls-13 {
        fill: #5dcbed;
      }
    </style>
  </defs>
  <path class="cls-1" d="m436.6,1201.09c0-6.02,13.44-11.22,33-13.74,6.83-.88,12.17-6.22,13.05-13.05,2.53-19.56,7.72-33,13.74-33s11.22,13.44,13.74,33c.88,6.83,6.22,12.17,13.05,13.05,19.56,2.53,33,7.72,33,13.74s-13.44,11.22-33,13.74c-6.83.88-12.17,6.22-13.05,13.05-2.53,19.56-7.72,33-13.74,33s-11.22-13.44-13.74-33c-.88-6.83-6.22-12.17-13.05-13.05-19.56-2.53-33-7.72-33-13.74Z"/>
  <path class="cls-1" d="m2959.55,1486.55c0-6.02,13.44-11.22,33-13.74,6.83-.88,12.17-6.22,13.05-13.05,2.53-19.56,7.72-33,13.74-33s11.22,13.44,13.74,33c.88,6.83,6.22,12.17,13.05,13.05,19.56,2.53,33,7.72,33,13.74s-13.44,11.22-33,13.74c-6.83.88-12.17,6.22-13.05,13.05-2.53,19.56-7.72,33-13.74,33s-11.22-13.44-13.74-33c-.88-6.83-6.22-12.17-13.05-13.05-19.56-2.53-33-7.72-33-13.74Z"/>
  <path class="cls-1" d="m188.67,1454.71c0-4.66,10.41-8.69,25.57-10.65,5.29-.68,9.43-4.82,10.11-10.11,1.96-15.16,5.99-25.57,10.65-25.57s8.69,10.41,10.65,25.57c.68,5.29,4.82,9.43,10.11,10.11,15.16,1.96,25.57,5.99,25.57,10.65s-10.41,8.69-25.57,10.65c-5.29.68-9.43,4.82-10.11,10.11-1.96,15.16-5.99,25.57-10.65,25.57s-8.69-10.41-10.65-25.57c-.68-5.29-4.82-9.43-10.11-10.11-15.16-1.96-25.57-5.99-25.57-10.65Z"/>
  <circle class="cls-1" cx="270.92" cy="1184.99" r="25.23" transform="translate(-758.56 538.65) rotate(-45)"/>
  <circle class="cls-1" cx="2855.24" cy="1293.56" r="25.23" transform="translate(-220.82 690.6) rotate(-13.28)"/>
  <g>
    <g>
      <path class="cls-13" d="m2117.3,1830.16c61.8,153.4,131.93,192.42,218.9,0"/>
      <path class="cls-11" d="m2223.42,1962.76c-.34,0-.67,0-1.01,0-36.91-.77-72.05-43.83-107.43-131.65l4.64-1.87c34.55,85.76,68.21,127.79,102.89,128.52,35.13.74,72.51-42.54,111.41-128.61l4.56,2.06c-40,88.5-77.66,131.56-115.06,131.56Z"/>
    </g>
    <path class="cls-11" d="m2223.48,1977.76c-.46,0-.92,0-1.38-.01-44.17-.92-82.63-45.73-121.03-141.04-3.61-8.96.73-19.16,9.69-22.77,8.95-3.61,19.16.73,22.77,9.69,39.38,97.74,70.29,118.73,89.29,119.12,15.81.43,49.97-14.79,97.43-119.79,3.98-8.81,14.35-12.71,23.15-8.74,8.81,3.98,12.72,14.35,8.74,23.15-43.26,95.7-84.19,140.39-128.67,140.39Z"/>
    <g>
      <rect class="cls-3" x="743.83" y="77.26" width="1752.9" height="1752.9" rx="102.25" ry="102.25"/>
      <path class="cls-11" d="m2394.48,1832.66H846.08c-57.76,0-104.75-46.99-104.75-104.75V179.51c0-57.76,46.99-104.75,104.75-104.75h1548.4c57.76,0,104.75,46.99,104.75,104.75v1548.41c0,57.76-46.99,104.75-104.75,104.75ZM846.08,79.76c-55,0-99.75,44.75-99.75,99.75v1548.41c0,55,44.75,99.75,99.75,99.75h1548.4c55,0,99.75-44.75,99.75-99.75V179.51c0-55-44.75-99.75-99.75-99.75H846.08Z"/>
    </g>
    <g class="cls-10">
      <path class="cls-11" d="m2491.75,179.52v1548.4c0,56.45-45.8,102.25-102.25,102.25H841.1c-43.7,0-80.95-27.4-95.55-65.9,11.85,4.85,24.8,7.5,38.35,7.5h1178.3v-81.65h400.25v77.1c41.8-12.85,72.1-51.7,72.1-97.65V121.12c0-12.8-2.35-25.05-6.7-36.35,37.45,15.1,63.9,51.8,63.9,94.75Z"/>
    </g>
    <g class="cls-9">
      <path class="cls-1" d="m2481.7,126.07c-15.55-9.55-33.85-15.05-53.45-15.05H879.85c-56.5,0-102.25,45.75-102.25,102.25v1548.4c0,19.6,5.5,37.9,15.05,53.45-29.3-18-48.8-50.35-48.8-87.2V179.52c0-56.5,45.75-102.25,102.25-102.25h1548.4c36.85,0,69.2,19.5,87.2,48.8Z"/>
    </g>
    <g>
      <rect class="cls-6" x="890.77" y="224.2" width="1459.03" height="1459.03" rx="85.1" ry="85.1"/>
      <path class="cls-11" d="m2264.69,1685.73H975.87c-48.31,0-87.61-39.3-87.61-87.6V309.3c0-48.31,39.3-87.6,87.61-87.6h1288.82c48.31,0,87.61,39.3,87.61,87.6v1288.83c0,48.31-39.3,87.6-87.61,87.6ZM975.87,226.7c-45.55,0-82.61,37.06-82.61,82.6v1288.83c0,45.55,37.06,82.6,82.61,82.6h1288.82c45.55,0,82.61-37.06,82.61-82.6V309.3c0-45.55-37.06-82.6-82.61-82.6H975.87Z"/>
    </g>
    <rect class="cls-12" x="890.77" y="224.2" width="1459.03" height="1459.03" rx="85.1" ry="85.1"/>
    <g>
      <path class="cls-13" d="m903.66,1830.16c61.8,153.4,131.93,192.42,218.9,0"/>
      <path class="cls-11" d="m1009.78,1962.76c-.34,0-.67,0-1.01,0-36.91-.77-72.05-43.83-107.43-131.65l4.64-1.87c34.55,85.76,68.21,127.79,102.89,128.52,35.22.74,72.51-42.54,111.41-128.61l4.56,2.06c-40,88.5-77.66,131.56-115.06,131.56Z"/>
    </g>
    <g class="cls-10">
      <path class="cls-11" d="m2117.3,1830.16c61.8,153.4,131.93,192.42,218.9,0"/>
    </g>
    <g class="cls-10">
      <path class="cls-11" d="m903.66,1830.16c61.8,153.4,131.93,192.42,218.9,0"/>
    </g>
    <g>
      <g>
        <rect class="cls-2" x="799.35" y="980.92" width="266.37" height="90.85" rx="23.19" ry="23.19" transform="translate(-89.6 1963.48) rotate(-90.26)"/>
        <path class="cls-11" d="m910.78,1162.12c-6.82,0-13.23-2.64-18.08-7.44-4.87-4.83-7.57-11.27-7.6-18.13l-.99-219.99c-.03-6.86,2.61-13.32,7.44-18.19,4.83-4.87,11.26-7.58,18.13-7.61l44.48-.2h.11c14.12,0,25.63,11.45,25.69,25.57l.99,220c.03,6.86-2.61,13.32-7.44,18.19-4.83,4.87-11.27,7.57-18.13,7.6l-44.48.2h-.12Zm43.49-266.56h-.09l-44.48.2c-5.52.02-10.71,2.2-14.6,6.13-3.89,3.92-6.02,9.13-5.99,14.65l.99,219.99c.02,5.53,2.2,10.71,6.12,14.6,3.9,3.87,9.07,5.99,14.56,5.99h.1l44.48-.2c5.52-.02,10.71-2.2,14.6-6.12,3.89-3.92,6.02-9.13,5.99-14.65l-.99-220c-.05-11.37-9.32-20.59-20.69-20.59Z"/>
      </g>
      <g class="cls-9">
        <rect class="cls-1" x="912.28" y="933.08" width="38.18" height="87.1" transform="translate(-41.05 1912.38) rotate(-90.26)"/>
        <path class="cls-11" d="m885.42,998.42l-.19-43.18,92.09-.41.19,43.18-92.09.41Zm4.83-38.2l.15,33.18,82.09-.37-.15-33.18-82.09.37Z"/>
      </g>
      <g>
        <rect class="cls-8" x="896.73" y="1077.87" width="70.59" height="87.1" transform="translate(-185.2 2058.48) rotate(-90.26)"/>
        <path class="cls-11" d="m886.14,1159.42l-.34-75.59,92.09-.41.34,75.59-92.09.41Zm4.68-70.61l.3,65.59,82.09-.37-.3-65.59-82.09.37Z"/>
      </g>
      <g class="cls-9">
        <rect class="cls-1" x="921.94" y="886.9" width="22.2" height="87.1" transform="translate(6.8 1867.66) rotate(-90.26)"/>
        <path class="cls-11" d="m887.05,944.25l-.12-27.2,92.09-.41.12,27.2-92.09.41Zm4.9-22.22l.08,17.2,82.09-.37-.08-17.2-82.09.37Z"/>
      </g>
      <path class="cls-11" d="m910.78,1174.62c-10.13,0-19.67-3.93-26.87-11.06-7.25-7.18-11.26-16.76-11.3-26.96l-.99-219.99c-.05-10.2,3.88-19.8,11.06-27.05,7.18-7.25,16.75-11.26,26.95-11.31l44.48-.2h.17c10.14,0,19.68,3.93,26.88,11.06,7.25,7.18,11.26,16.75,11.3,26.95l.99,219.99c.05,10.2-3.88,19.8-11.06,27.05-7.18,7.25-16.76,11.26-26.96,11.3l-44.47.2h-.18Zm43.49-266.56h-.03l-44.47.2c-2.19,0-4.24.87-5.78,2.43-1.54,1.55-2.38,3.61-2.37,5.8l.99,219.99c0,2.19.87,4.24,2.42,5.78,1.54,1.53,3.58,2.37,5.76,2.37h.04l44.48-.2c2.19,0,4.24-.87,5.78-2.42,1.54-1.55,2.38-3.61,2.37-5.8l-.99-220h0c0-2.19-.87-4.24-2.42-5.78-1.54-1.53-3.59-2.37-5.77-2.37Z"/>
    </g>
    <g>
      <g>
        <rect class="cls-2" x="799.35" y="1221.44" width="266.37" height="90.85" rx="23.19" ry="23.19" transform="translate(-330.12 2205.08) rotate(-90.26)"/>
        <path class="cls-11" d="m910.79,1402.64c-14.12,0-25.63-11.45-25.69-25.57l-.99-220c-.03-6.86,2.61-13.32,7.44-18.19,4.83-4.87,11.26-7.58,18.13-7.61l44.48-.2h.11c14.12,0,25.63,11.45,25.69,25.57l.99,220c.03,6.86-2.61,13.32-7.44,18.19-4.83,4.87-11.26,7.58-18.13,7.61l-44.48.2h-.11Zm43.48-266.57h-.09l-44.48.2c-5.52.02-10.71,2.2-14.6,6.13-3.89,3.92-6.02,9.13-5.99,14.65l.99,220c.05,11.37,9.32,20.59,20.69,20.59h.09l44.48-.2c5.52-.02,10.71-2.2,14.6-6.13,3.89-3.92,6.02-9.13,5.99-14.65l-.99-220c-.05-11.37-9.32-20.59-20.69-20.59Z"/>
      </g>
      <g class="cls-9">
        <rect class="cls-1" x="912.28" y="1173.59" width="38.18" height="87.1" transform="translate(-281.57 2153.98) rotate(-90.26)"/>
        <path class="cls-11" d="m885.42,1238.94l-.19-43.18,92.09-.41.19,43.18-92.09.41Zm4.83-38.2l.15,33.18,82.09-.37-.15-33.18-82.09.37Z"/>
      </g>
      <g>
        <rect class="cls-8" x="896.73" y="1318.39" width="70.59" height="87.1" transform="translate(-425.71 2300.08) rotate(-90.26)"/>
        <path class="cls-11" d="m886.14,1399.94l-.34-75.59,92.09-.41.34,75.59-92.09.41Zm4.68-70.61l.3,65.59,82.09-.37-.3-65.59-82.09.37Z"/>
      </g>
      <g class="cls-9">
        <rect class="cls-1" x="921.94" y="1127.42" width="22.2" height="87.1" transform="translate(-233.72 2109.26) rotate(-90.26)"/>
        <path class="cls-11" d="m887.05,1184.77l-.12-27.2,92.09-.41.12,27.2-92.09.41Zm4.9-22.22l.08,17.2,82.09-.37-.08-17.2-82.09.37Z"/>
      </g>
      <path class="cls-11" d="m910.79,1415.14c-10.14,0-19.68-3.93-26.88-11.06-7.25-7.18-11.26-16.75-11.3-26.95l-.99-219.99c-.05-10.2,3.88-19.8,11.06-27.05,7.18-7.25,16.75-11.26,26.95-11.31l44.48-.2h.17c10.14,0,19.68,3.93,26.88,11.06,7.25,7.18,11.26,16.75,11.3,26.95l.99,219.99c.05,10.2-3.88,19.8-11.06,27.05-7.18,7.25-16.75,11.26-26.95,11.31l-44.48.2h-.17Zm43.48-266.57h-.03l-44.47.2c-2.19,0-4.24.87-5.78,2.43-1.54,1.55-2.38,3.61-2.37,5.8l.99,220c0,2.19.87,4.24,2.42,5.78,1.54,1.53,3.59,2.37,5.77,2.37h.03l44.47-.2c2.19,0,4.24-.87,5.78-2.43,1.54-1.55,2.38-3.61,2.37-5.8l-.99-220h0c0-2.19-.87-4.24-2.42-5.78-1.54-1.53-3.59-2.37-5.77-2.37Z"/>
    </g>
    <g>
      <g>
        <rect class="cls-2" x="799.35" y="1359.67" width="266.37" height="90.85" rx="23.19" ry="23.19" transform="translate(-468.35 2343.94) rotate(-90.26)"/>
        <path class="cls-11" d="m910.78,1540.88c-6.82,0-13.23-2.64-18.08-7.44-4.87-4.83-7.57-11.27-7.6-18.13l-.99-220c-.03-6.86,2.61-13.32,7.44-18.19s11.27-7.57,18.13-7.6l44.48-.2c6.89.19,13.33,2.61,18.19,7.44,4.87,4.83,7.57,11.27,7.6,18.13l.99,219.99c.03,6.86-2.61,13.32-7.44,18.19-4.83,4.87-11.26,7.58-18.13,7.61l-44.48.2h-.12Zm43.5-266.56h-.1l-44.48.2c-5.52.02-10.71,2.2-14.6,6.12-3.89,3.92-6.02,9.13-5.99,14.65l.99,220c.02,5.52,2.2,10.71,6.12,14.6,3.9,3.87,9.07,5.99,14.56,5.99h.1l44.48-.2c5.52-.02,10.71-2.2,14.6-6.13,3.89-3.92,6.02-9.13,5.99-14.65l-.99-219.99c-.02-5.53-2.2-10.71-6.12-14.6-3.9-3.87-9.07-5.99-14.56-5.99Z"/>
      </g>
      <g class="cls-9">
        <rect class="cls-1" x="912.28" y="1311.83" width="38.18" height="87.1" transform="translate(-419.81 2292.84) rotate(-90.26)"/>
        <path class="cls-11" d="m885.42,1377.17l-.19-43.18,92.09-.41.19,43.18-92.09.41Zm4.83-38.2l.15,33.18,82.09-.37-.15-33.18-82.09.37Z"/>
      </g>
      <g>
        <rect class="cls-8" x="896.73" y="1456.63" width="70.59" height="87.1" transform="translate(-563.95 2438.94) rotate(-90.26)"/>
        <path class="cls-11" d="m886.14,1538.18l-.34-75.59,92.09-.41.34,75.59-92.09.41Zm4.68-70.61l.3,65.59,82.09-.37-.3-65.59-82.09.37Z"/>
      </g>
      <g class="cls-9">
        <rect class="cls-1" x="921.94" y="1265.65" width="22.2" height="87.1" transform="translate(-371.95 2248.12) rotate(-90.26)"/>
        <path class="cls-11" d="m887.05,1323l-.12-27.19,92.09-.41.12,27.2-92.09.41Zm4.9-22.21l.08,17.19,82.09-.37-.08-17.2-82.09.38Z"/>
      </g>
      <path class="cls-11" d="m910.78,1553.38c-10.13,0-19.67-3.93-26.87-11.06-7.25-7.18-11.26-16.75-11.3-26.95l-.99-219.99c-.05-10.2,3.88-19.8,11.06-27.05,7.18-7.25,16.76-11.26,26.96-11.3l44.47-.2h.18c10.13,0,19.67,3.93,26.87,11.06,7.25,7.18,11.26,16.76,11.3,26.96l.99,219.99c.05,10.2-3.88,19.8-11.06,27.05-7.18,7.25-16.75,11.26-26.95,11.31l-44.48.2h-.18Zm43.5-266.56h-.04l-44.48.2c-2.19,0-4.24.87-5.78,2.42-1.54,1.55-2.38,3.61-2.37,5.8l.99,220c0,2.19.87,4.24,2.42,5.78,1.55,1.55,3.62,2.56,5.8,2.37l44.48-.2c2.19,0,4.24-.87,5.78-2.43,1.54-1.55,2.38-3.61,2.37-5.8l-.99-219.99h0c0-2.19-.87-4.24-2.42-5.78-1.54-1.53-3.58-2.37-5.76-2.37Z"/>
    </g>
    <g>
      <g>
        <circle class="cls-2" cx="1257.53" cy="875.49" r="150.85"/>
        <path class="cls-11" d="m1257.53,1028.84c-84.56,0-153.35-68.79-153.35-153.35s68.79-153.35,153.35-153.35,153.35,68.79,153.35,153.35-68.79,153.35-153.35,153.35Zm0-301.7c-81.8,0-148.35,66.55-148.35,148.35s66.55,148.35,148.35,148.35,148.35-66.55,148.35-148.35-66.55-148.35-148.35-148.35Z"/>
      </g>
      <g class="cls-9">
        <path class="cls-1" d="m1363.68,980.04c13.81-22.87,21.83-49.62,21.83-78.28,0-31.6-9.77-60.98-26.44-85.19-25.49,17.55-56.29-15.16-39.3-39.3-24.22-16.59-53.51-26.36-85.11-26.36-41.37,0-78.68,16.59-105.91,43.59,26.44-43.35,74.24-72.33,128.78-72.33,83.29,0,150.85,67.57,150.85,150.85,0,41.84-17.07,79.79-44.7,107.03Z"/>
      </g>
      <circle class="cls-8" cx="1257.53" cy="875.49" r="79.09"/>
      <g class="cls-9">
        <path class="cls-1" d="m1312.66,932.1c-14.45,18.18-36.76,29.77-61.77,29.77-17.94,0-34.54-5.95-47.8-16.04-16.59,10.72-35.41-12.07-22.31-26.36-5.8-10.96-9.05-23.42-9.05-36.68,0-22.31,9.29-42.56,24.22-56.85-10.96,13.5-17.55,30.81-17.55,49.54,0,43.67,35.41,79.08,79.16,79.08,21.44,0,40.89-8.57,55.1-22.47Z"/>
      </g>
      <g class="cls-10">
        <path class="cls-11" d="m1336.64,875.49c0,23.58-10.32,44.78-26.76,59.15,9.77-13.1,15.48-29.38,15.48-46.92,0-43.67-35.41-79.08-79.08-79.08-20.17,0-38.59,7.62-52.56,20.09,14.37-19.61,37.63-32.31,63.83-32.31,43.67,0,79.08,35.41,79.08,79.08Z"/>
      </g>
      <path class="cls-11" d="m1257.53,1041.34c-91.45,0-165.85-74.4-165.85-165.85s74.4-165.85,165.85-165.85,165.85,74.4,165.85,165.85-74.4,165.85-165.85,165.85Zm0-301.7c-74.91,0-135.85,60.94-135.85,135.85s60.94,135.85,135.85,135.85,135.85-60.94,135.85-135.85-60.94-135.85-135.85-135.85Z"/>
    </g>
    <g class="cls-10">
      <path class="cls-11" d="m2349.8,309.32v269.95c0-47-38.1-85.1-85.1-85.1H975.85c-47,0-85.1,38.1-85.1,85.1v-269.95c0-47,38.1-85.15,85.1-85.15h1288.85c47,0,85.1,38.15,85.1,85.15Z"/>
    </g>
    <path class="cls-11" d="m2394.48,1847.66H846.08c-66.03,0-119.75-53.72-119.75-119.75V179.51c0-66.03,53.72-119.75,119.75-119.75h1548.4c66.03,0,119.75,53.72,119.75,119.75v1548.41c0,66.03-53.72,119.75-119.75,119.75ZM846.08,94.76c-46.73,0-84.75,38.02-84.75,84.75v1548.41c0,46.73,38.02,84.75,84.75,84.75h1548.4c46.73,0,84.75-38.02,84.75-84.75V179.51c0-46.73-38.02-84.75-84.75-84.75H846.08Z"/>
    <g>
      <circle class="cls-2" cx="1252.92" cy="1044.46" r="150.85"/>
      <g class="cls-9">
        <path class="cls-1" d="m1359.07,1149.01c13.81-22.87,21.83-49.62,21.83-78.28,0-31.6-9.77-60.98-26.44-85.19-25.49,17.55-56.29-15.16-39.3-39.3-24.22-16.59-53.51-26.36-85.11-26.36-41.37,0-78.68,16.59-105.91,43.59,26.44-43.35,74.24-72.33,128.78-72.33,83.29,0,150.85,67.57,150.85,150.85,0,41.84-17.07,79.79-44.7,107.03Z"/>
      </g>
      <circle class="cls-8" cx="1252.92" cy="1044.46" r="79.09"/>
      <g class="cls-9">
        <path class="cls-1" d="m1308.06,1101.07c-14.45,18.18-36.76,29.77-61.77,29.77-17.94,0-34.54-5.95-47.8-16.04-16.59,10.72-35.41-12.07-22.31-26.36-5.8-10.96-9.05-23.42-9.05-36.68,0-22.31,9.29-42.56,24.22-56.85-10.96,13.5-17.55,30.81-17.55,49.54,0,43.67,35.41,79.08,79.16,79.08,21.44,0,40.89-8.57,55.1-22.47Z"/>
      </g>
      <g class="cls-10">
        <path class="cls-11" d="m1332.04,1044.46c0,23.58-10.32,44.78-26.76,59.15,9.77-13.1,15.48-29.38,15.48-46.92,0-43.67-35.41-79.08-79.08-79.08-20.17,0-38.59,7.62-52.56,20.09,14.37-19.61,37.63-32.31,63.83-32.31,43.67,0,79.08,35.41,79.08,79.08Z"/>
      </g>
      <path class="cls-11" d="m1252.92,1210.31c-91.45,0-165.85-74.4-165.85-165.85s74.4-165.85,165.85-165.85,165.85,74.4,165.85,165.85-74.4,165.85-165.85,165.85Zm0-301.7c-74.91,0-135.85,60.94-135.85,135.85s60.94,135.85,135.85,135.85,135.85-60.94,135.85-135.85-60.94-135.85-135.85-135.85Z"/>
    </g>
    <g>
      <circle class="cls-2" cx="1043.48" cy="1130.5" r="150.85"/>
      <g class="cls-9">
        <path class="cls-1" d="m1149.63,1235.04c13.81-22.87,21.83-49.62,21.83-78.28,0-31.6-9.77-60.98-26.44-85.19-25.49,17.55-56.29-15.16-39.3-39.3-24.22-16.59-53.51-26.36-85.11-26.36-41.37,0-78.68,16.59-105.91,43.59,26.44-43.35,74.24-72.33,128.78-72.33,83.29,0,150.85,67.57,150.85,150.85,0,41.84-17.07,79.79-44.7,107.03Z"/>
      </g>
      <circle class="cls-8" cx="1043.48" cy="1130.5" r="79.09"/>
      <g class="cls-9">
        <path class="cls-1" d="m1098.62,1187.11c-14.45,18.18-36.76,29.77-61.77,29.77-17.94,0-34.54-5.95-47.8-16.04-16.59,10.72-35.41-12.07-22.31-26.36-5.8-10.96-9.05-23.42-9.05-36.68,0-22.31,9.29-42.56,24.22-56.85-10.96,13.5-17.55,30.81-17.55,49.54,0,43.67,35.41,79.08,79.16,79.08,21.44,0,40.89-8.57,55.1-22.47Z"/>
      </g>
      <g class="cls-10">
        <path class="cls-11" d="m1122.59,1130.5c0,23.58-10.32,44.78-26.76,59.15,9.77-13.1,15.48-29.38,15.48-46.92,0-43.67-35.41-79.08-79.08-79.08-20.17,0-38.59,7.62-52.56,20.09,14.37-19.61,37.63-32.31,63.83-32.31,43.67,0,79.08,35.41,79.08,79.08Z"/>
      </g>
      <path class="cls-11" d="m1043.48,1296.35c-91.45,0-165.85-74.4-165.85-165.85s74.4-165.85,165.85-165.85,165.85,74.4,165.85,165.85-74.4,165.85-165.85,165.85Zm0-301.7c-74.91,0-135.85,60.94-135.85,135.85s60.94,135.85,135.85,135.85,135.85-60.94,135.85-135.85-60.94-135.85-135.85-135.85Z"/>
    </g>
    <g>
      <circle class="cls-2" cx="1054.52" cy="1345.95" r="150.85"/>
      <g class="cls-9">
        <path class="cls-1" d="m1160.67,1450.49c13.81-22.87,21.83-49.62,21.83-78.28,0-31.6-9.77-60.98-26.44-85.19-25.49,17.55-56.29-15.16-39.3-39.3-24.22-16.59-53.51-26.36-85.11-26.36-41.37,0-78.68,16.59-105.91,43.59,26.44-43.35,74.24-72.33,128.78-72.33,83.29,0,150.85,67.57,150.85,150.85,0,41.84-17.07,79.79-44.7,107.03Z"/>
      </g>
      <circle class="cls-8" cx="1054.52" cy="1345.95" r="79.09"/>
      <g class="cls-9">
        <path class="cls-1" d="m1109.65,1402.56c-14.45,18.18-36.76,29.77-61.77,29.77-17.94,0-34.54-5.95-47.8-16.04-16.59,10.72-35.41-12.07-22.31-26.36-5.8-10.96-9.05-23.42-9.05-36.68,0-22.31,9.29-42.56,24.22-56.85-10.96,13.5-17.55,30.81-17.55,49.54,0,43.67,35.41,79.08,79.16,79.08,21.44,0,40.89-8.57,55.1-22.47Z"/>
      </g>
      <g class="cls-10">
        <path class="cls-11" d="m1133.63,1345.95c0,23.58-10.32,44.78-26.76,59.15,9.77-13.1,15.48-29.38,15.48-46.92,0-43.67-35.41-79.08-79.08-79.08-20.17,0-38.59,7.62-52.56,20.09,14.37-19.61,37.63-32.31,63.83-32.31,43.67,0,79.08,35.41,79.08,79.08Z"/>
      </g>
      <path class="cls-11" d="m1054.51,1511.8c-91.45,0-165.85-74.4-165.85-165.85s74.4-165.85,165.85-165.85,165.85,74.4,165.85,165.85-74.4,165.85-165.85,165.85Zm0-301.7c-74.91,0-135.85,60.94-135.85,135.85s60.94,135.85,135.85,135.85,135.85-60.94,135.85-135.85-60.94-135.85-135.85-135.85Z"/>
    </g>
    <path class="cls-11" d="m2264.69,1700.73H975.87c-56.58,0-102.61-46.03-102.61-102.6V309.3c0-56.58,46.03-102.6,102.61-102.6h1288.82c56.58,0,102.61,46.03,102.61,102.6v1288.83c0,56.58-46.03,102.6-102.61,102.6ZM975.87,241.7c-37.28,0-67.61,30.33-67.61,67.6v1288.83c0,37.28,30.33,67.6,67.61,67.6h1288.82c37.28,0,67.61-30.33,67.61-67.6V309.3c0-37.28-30.33-67.6-67.61-67.6H975.87Z"/>
    <g>
      <ellipse class="cls-2" cx="1043.48" cy="1543.53" rx="157.69" ry="139.38" transform="translate(-677.21 828.99) rotate(-33.39)"/>
      <g class="cls-9">
        <path class="cls-1" d="m1080.75,1401.5c-26.98,2.5-54.41,11.7-79.43,28.19-27.58,18.18-48.25,42.61-60.91,69.4,28.27,9.57,15.39,52.15-14.32,52.93-2.17,28.23,4.2,56.45,20.27,80.82,21.03,31.91,54.49,51.15,91.9,56.63-51.28,4.54-100.87-15.66-128.61-57.74-42.35-64.25-17.73-155.24,54.96-203.15,36.52-24.07,78.32-32.73,116.14-27.08Z"/>
      </g>
      <ellipse class="cls-8" cx="1043.48" cy="1543.53" rx="82.67" ry="73.07" transform="translate(-677.21 828.99) rotate(-33.39)"/>
      <g class="cls-9">
        <path class="cls-1" d="m1064.85,1468.43c23.22.69,44.68,11.23,57.39,30.52,9.12,13.84,12.36,30.07,10.3,46.1,17.79,6.64,7.47,34.26-11.66,32.37-6.62,10.77-15.84,20.46-27.41,28.08-19.47,12.83-41.87,17.31-61.93,14.02,17.35.69,35.81-4.18,52.16-14.96,38.11-25.12,51.01-72.81,28.77-106.56-10.9-16.54-28.27-26.61-47.63-29.58Z"/>
      </g>
      <g class="cls-10">
        <path class="cls-11" d="m1003.25,1482.5c20.58-13.56,44.33-17.8,65.23-13.39-16.4,0-33.51,4.96-48.83,15.05-38.11,25.12-51.02,72.81-28.81,106.5,10.25,15.56,26.27,25.38,44.26,28.99-24.42.19-47.34-10.44-60.66-30.66-22.2-33.69-9.3-81.37,28.81-106.49Z"/>
      </g>
      <path class="cls-11" d="m1026.51,1703.62c-51.12,0-99.19-22.52-127.22-65.05-46.84-71.08-20.27-171.53,59.23-223.94h0c79.52-52.4,182.29-37.21,229.15,33.86,22.89,34.73,29.15,77.3,17.63,119.88-11.34,41.9-38.63,78.86-76.86,104.05-31.93,21.04-67.62,31.19-101.93,31.19Zm-51.47-263.94c-65.69,43.3-88.44,125.11-50.7,182.38,37.74,57.26,121.89,68.61,187.59,25.32,32.11-21.16,54.98-52,64.41-86.84,9.24-34.16,4.37-68.09-13.72-95.53-37.74-57.26-121.88-68.63-187.58-25.33h0Z"/>
    </g>
    <g>
      <circle class="cls-2" cx="1155.84" cy="1354.67" r="150.85"/>
      <g class="cls-9">
        <path class="cls-1" d="m1261.99,1459.22c13.81-22.87,21.83-49.62,21.83-78.28,0-31.6-9.77-60.98-26.44-85.19-25.49,17.55-56.29-15.16-39.3-39.3-24.22-16.59-53.51-26.36-85.11-26.36-41.37,0-78.68,16.59-105.91,43.59,26.44-43.35,74.24-72.33,128.78-72.33,83.29,0,150.85,67.57,150.85,150.85,0,41.84-17.07,79.79-44.7,107.03Z"/>
      </g>
      <circle class="cls-8" cx="1155.84" cy="1354.67" r="79.09" transform="translate(-619.36 1214.08) rotate(-45)"/>
      <g class="cls-9">
        <path class="cls-1" d="m1210.98,1411.28c-14.45,18.18-36.76,29.77-61.77,29.77-17.94,0-34.54-5.95-47.8-16.04-16.59,10.72-35.41-12.07-22.31-26.36-5.8-10.96-9.05-23.42-9.05-36.68,0-22.31,9.29-42.56,24.22-56.85-10.96,13.5-17.55,30.81-17.55,49.54,0,43.67,35.41,79.08,79.16,79.08,21.44,0,40.89-8.57,55.1-22.47Z"/>
      </g>
      <g class="cls-10">
        <path class="cls-11" d="m1234.96,1354.67c0,23.58-10.32,44.78-26.76,59.15,9.77-13.1,15.48-29.38,15.48-46.92,0-43.67-35.41-79.08-79.08-79.08-20.17,0-38.59,7.62-52.56,20.09,14.37-19.61,37.63-32.31,63.83-32.31,43.67,0,79.08,35.41,79.08,79.08Z"/>
      </g>
      <path class="cls-11" d="m1155.84,1520.52c-91.45,0-165.85-74.4-165.85-165.85s74.4-165.85,165.85-165.85,165.85,74.4,165.85,165.85-74.4,165.85-165.85,165.85Zm0-301.7c-74.91,0-135.85,60.94-135.85,135.85s60.94,135.85,135.85,135.85,135.85-60.94,135.85-135.85-60.94-135.85-135.85-135.85Z"/>
    </g>
    <g>
      <polygon class="cls-4" points="1563.1 1373.55 1316.61 1461.3 1251.23 1207.97 1342.1 1180.6 1534.84 1282.93 1563.1 1373.55"/>
      <g class="cls-9">
        <polygon class="cls-1" points="1316.61 1461.3 1475.09 1326.82 1475.26 1251.3 1534.84 1282.93 1563.1 1373.55 1316.61 1461.3"/>
      </g>
      <g class="cls-9">
        <polygon class="cls-1" points="1563.1 1373.55 1539.15 1382.1 1512.4 1296.23 1319.65 1193.9 1252.81 1214.02 1251.23 1207.97 1342.1 1180.6 1534.84 1282.93 1563.1 1373.55"/>
      </g>
      <g class="cls-10">
        <polygon class="cls-7" points="1316.61 1461.3 1251.23 1207.97 1342.1 1180.6 1401.71 1212.25 1339.24 1254.7 1316.61 1461.3"/>
        <path class="cls-11" d="m1317.6,1475.16l-69.39-268.88,94.15-28.37,64.18,34.08-64.95,44.14-23.99,219.04Zm-63.35-265.48l61.36,237.76,21.27-194.16,60-40.77-55.04-29.22-87.58,26.39Z"/>
      </g>
      <path class="cls-11" d="m1307.59,1478.31l-72.07-279.16,107.96-32.53,202.18,107.34,33.54,107.64-271.61,96.7Zm-40.66-261.48l58.72,227.47,221.32-78.79-22.93-73.6-183.3-97.31-73.81,22.24Z"/>
      <rect class="cls-11" x="1394.16" y="1114.23" width="25.98" height="353.08" transform="translate(-392.75 1928.36) rotate(-62.04)"/>
      <polygon class="cls-11" points="1325.03 1471.21 1308.21 1451.39 1462.11 1320.81 1462.27 1251.27 1488.25 1251.32 1488.07 1332.86 1325.03 1471.21"/>
      <polygon class="cls-11" points="1329.53 1462.71 1303.7 1459.89 1326.96 1247.33 1394.39 1201.49 1409 1222.98 1351.49 1262.07 1329.53 1462.71"/>
    </g>
    <g>
      <g>
        <path class="cls-2" d="m1448.57,1423.92l83.42,203.57c4.86,11.85-.81,25.39-12.66,30.25l-41.16,16.86c-11.85,4.86-25.39-.81-30.25-12.66l-83.42-203.57c-4.86-11.85.81-25.39,12.66-30.25l41.16-16.86c11.85-4.86,25.39.81,30.25,12.66Z"/>
        <path class="cls-11" d="m1469.42,1678.82c-10.12,0-19.74-6.02-23.81-15.95l-83.42-203.56c-2.6-6.35-2.57-13.33.08-19.66s7.61-11.25,13.96-13.85l41.15-16.87c6.34-2.6,13.33-2.58,19.66.07,6.33,2.65,11.25,7.6,13.85,13.96l83.42,203.56c5.37,13.11-.93,28.13-14.03,33.51l-41.15,16.87c-3.17,1.3-6.46,1.91-9.7,1.91Zm-42.29-266.81c-2.66,0-5.32.52-7.85,1.56l-41.15,16.87c-10.55,4.32-15.62,16.43-11.3,26.98l83.42,203.56c4.32,10.55,16.43,15.63,26.99,11.3l41.15-16.87c10.55-4.33,15.62-16.43,11.3-26.99l-83.42-203.56c-2.09-5.11-6.05-9.11-11.15-11.24-2.57-1.08-5.28-1.62-7.98-1.62Z"/>
      </g>
      <g class="cls-9">
        <rect class="cls-1" x="1409.44" y="1453.72" width="38.18" height="87.1" transform="translate(584.74 3386.86) rotate(-112.28)"/>
        <path class="cls-11" d="m1394.1,1534.71l-16.37-39.96,85.22-34.92,16.37,39.96-85.22,34.92Zm-9.85-37.22l12.58,30.7,75.96-31.13-12.58-30.7-75.97,31.13Z"/>
      </g>
      <g>
        <rect class="cls-8" x="1448.14" y="1587.71" width="70.59" height="87.1" transform="translate(536.48 3622.45) rotate(-112.28)"/>
        <path class="cls-11" d="m1455.15,1683.69l-28.66-69.94,85.22-34.92,28.66,69.95-85.22,34.92Zm-22.13-67.21l24.87,60.68,75.96-31.13-24.87-60.69-75.96,31.13Z"/>
      </g>
      <g class="cls-9">
        <rect class="cls-1" x="1401.66" y="1410.29" width="22.2" height="87.1" transform="translate(603.18 3312.36) rotate(-112.28)"/>
        <path class="cls-11" d="m1375.3,1483.88l-10.31-25.17,85.22-34.92,10.31,25.17-85.22,34.92Zm-3.79-22.44l6.52,15.91,75.96-31.13-6.52-15.91-75.96,31.13Z"/>
      </g>
      <path class="cls-11" d="m1469.43,1691.32c-15.04,0-29.34-8.95-35.39-23.71l-83.42-203.56c-3.87-9.44-3.82-19.82.12-29.23,3.94-9.41,11.3-16.72,20.75-20.59l41.15-16.87c19.47-7.98,41.83,1.37,49.81,20.85h0l83.42,203.56c7.98,19.48-1.38,41.83-20.86,49.81l-41.15,16.87c-4.72,1.93-9.61,2.85-14.43,2.85Zm-42.32-266.8c-1.04,0-2.08.2-3.1.61l-41.15,16.87c-4.18,1.71-6.19,6.5-4.47,10.68l83.42,203.56c1.71,4.18,6.5,6.18,10.68,4.47l41.15-16.87c4.18-1.71,6.19-6.5,4.47-10.68l-83.42-203.56h0c-1.3-3.16-4.37-5.08-7.59-5.08Z"/>
    </g>
    <g>
      <g>
        <ellipse class="cls-2" cx="1228.6" cy="1537.78" rx="139.38" ry="157.69" transform="translate(-428.67 2599.71) rotate(-84.03)"/>
        <path class="cls-11" d="m1232.94,1679.89c-6.33,0-12.7-.33-19.11-1-87.85-9.19-152.7-79.97-144.56-157.77,3.95-37.75,24.27-71.48,57.23-94.99,32.86-23.44,74.36-33.89,116.86-29.45,42.5,4.44,80.94,23.27,108.23,53,27.37,29.81,40.27,67.03,36.32,104.78-3.95,37.75-24.27,71.48-57.22,94.99-27.91,19.91-62.05,30.45-97.75,30.45Zm-8.7-279.21c-34.66,0-67.78,10.22-94.84,29.52-31.77,22.66-51.36,55.13-55.16,91.44-7.85,75.06,55,143.38,140.11,152.29,41.27,4.31,81.57-5.82,113.43-28.55,31.77-22.66,51.36-55.13,55.16-91.44,3.8-36.31-8.64-72.13-35.03-100.88-26.47-28.83-63.78-47.08-105.07-51.41-6.23-.65-12.44-.97-18.59-.97Z"/>
      </g>
      <g class="cls-9">
        <path class="cls-1" d="m1347.49,1451.61c-22.44-15.18-49.49-25.46-79.29-28.58-32.85-3.44-64.33,2.34-91.11,15.03,15.79,25.33-21.18,50.08-44.64,31.84-19.58,20.45-32.55,46.31-35.59,75.34-3.98,38.01,9.69,74.11,35.13,102.07-42.53-29.01-68.06-76.08-62.82-126.21,8.01-76.53,84.75-131.27,171.34-122.21,43.5,4.55,81.32,24.36,106.97,52.72Z"/>
      </g>
      <ellipse class="cls-8" cx="1228.6" cy="1537.78" rx="73.07" ry="82.67" transform="translate(-428.67 2599.71) rotate(-84.03)"/>
      <g class="cls-9">
        <path class="cls-1" d="m1292.75,1493.27c17.51,15.26,27.42,37.02,25.02,60-1.72,16.49-9.51,31.09-21.27,42.18,9.55,16.41-15.95,31.23-29.55,17.63-11.95,4.13-25.22,5.77-39.01,4.33-23.19-2.43-43.35-13.16-56.77-28.44,12.98,11.54,30.34,19.47,49.82,21.51,45.4,4.75,85.62-23.94,89.82-64.14,2.06-19.7-4.98-38.51-18.06-53.08Z"/>
      </g>
      <g class="cls-10">
        <path class="cls-11" d="m1236.2,1465.08c24.52,2.56,45.56,14.35,58.92,31.02-12.68-10.4-29.05-17.42-47.3-19.33-45.4-4.75-85.62,23.94-89.82,64.07-1.94,18.53,4.22,36.29,15.83,50.48-19.01-15.34-29.98-38.1-27.46-62.17,4.2-40.13,44.42-68.81,89.82-64.07Z"/>
      </g>
      <path class="cls-11" d="m1232.94,1692.39c-6.76,0-13.57-.35-20.41-1.07-94.7-9.91-164.55-86.85-155.69-171.51,4.33-41.36,26.48-78.25,62.4-103.86,35.35-25.21,79.92-36.47,125.42-31.7,45.53,4.76,86.78,25,116.14,56.97,29.83,32.5,43.88,73.17,39.55,114.54-4.33,41.36-26.48,78.25-62.39,103.86-30.04,21.43-66.72,32.77-105.01,32.77Zm-8.7-279.21c-32.07,0-62.65,9.41-87.58,27.2-28.81,20.55-46.56,49.87-49.99,82.56-7.13,68.21,50.73,130.36,128.98,138.55,38.23,4,75.49-5.34,104.87-26.29,28.81-20.55,46.56-49.87,49.98-82.56,3.42-32.69-7.88-65.05-31.81-91.12-24.4-26.58-58.91-43.43-97.16-47.43-5.79-.61-11.57-.9-17.29-.9Z"/>
    </g>
    <g>
      <g>
        <path class="cls-3" d="m2347.49,323v1264.65c0,46.35-30.1,87.3-74.35,101.1l-633.1,197.6c-6.05,1.9-12.15,2.75-18.05,2.75-31.8-.1-59.5-25.85-59.5-59.75V77.25c0-33.9,27.65-59.6,59.35-59.75h.8c5.85.05,11.75.95,17.7,2.85l633.35,201.7c43.95,14,73.8,54.8,73.8,100.95Z"/>
        <path class="cls-11" d="m1621.99,1891.6c-34.19-.11-62-28.04-62-62.25V77.25c0-34.16,27.74-62.09,61.84-62.25h.81c6.25.05,12.45,1.05,18.46,2.97l633.35,201.7c45.19,14.39,75.54,55.92,75.54,103.33v1264.65c0,47.7-30.59,89.29-76.11,103.49l-633.1,197.6c-6.05,1.9-12.38,2.86-18.8,2.86Zm.63-1871.6h-.78c-31.34.15-56.85,25.83-56.85,57.25v1752.1c0,31.46,25.57,57.15,57.01,57.25,5.9,0,11.72-.89,17.29-2.64l633.1-197.6c43.42-13.54,72.6-53.21,72.6-98.71V323c0-45.22-28.96-84.84-72.06-98.57L1639.58,22.74c-5.53-1.77-11.23-2.68-16.96-2.73Z"/>
      </g>
      <g class="cls-10">
        <path class="cls-11" d="m2347.5,1529.67v58c0,46.35-30.1,87.3-74.35,101.1l-633.1,197.6c-6.05,1.9-12.15,2.75-18.05,2.75-31.8-.1-59.5-25.85-59.5-59.75v-57.95c0,33.85,27.7,59.6,59.5,59.7,5.9,0,12-.85,18.05-2.75l633.1-197.55c44.25-13.85,74.35-54.8,74.35-101.15Z"/>
      </g>
      <g class="cls-9">
        <path class="cls-1" d="m2347.5,323.02v46.65c0-46.15-29.85-86.95-73.8-100.95l-633.35-201.7c-5.95-1.9-11.85-2.8-17.7-2.85h-.8c-31.7.15-59.35,25.85-59.35,59.75v-46.65c0-33.9,27.65-59.6,59.35-59.75h.8c5.85.05,11.75.95,17.7,2.85l633.35,201.7c43.95,14,73.8,54.8,73.8,100.95Z"/>
      </g>
      <g>
        <path class="cls-3" d="m1622,1889.12l-84.05-1.05-23.15-.3c-26.35-5.6-47.3-28.9-47.3-58.4V77.27c0-.55,0-1.05.05-1.6.75-30.1,23.45-53.4,51-57.5l16.4-.1,86.9-.55c-31.2.15-58.45,25.05-59.3,58.15-.05.55-.05,1.05-.05,1.6v1752.1c0,33.9,27.7,59.65,59.5,59.75Z"/>
        <path class="cls-11" d="m1621.99,1891.62c-.39,0-.78,0-1.18-.01l-106.04-1.33c-29.04-6.12-49.77-31.71-49.77-60.9V77.27c0-.63,0-1.2.06-1.82.74-30.08,23.09-55.28,53.12-59.75l103.5-.68h.16l.02,5h0c-30.54.15-56.02,25.14-56.81,55.71-.05.63-.05,1.06-.05,1.54v1752.1c0,31.11,24.98,56.56,55.91,57.24h1.11s-.04,5.01-.04,5.01Zm-24.39-1871.45l-79.03.5c-27.28,4.08-47.83,27.25-48.52,55.06-.05.63-.05,1.06-.05,1.54v1752.1c0,26.85,19.06,50.38,45.32,55.96l81.76.98c-21.81-9.69-37.08-31.59-37.08-56.94V77.27c0-.63,0-1.2.06-1.82.62-24.56,16.05-45.85,37.54-55.27Z"/>
      </g>
      <g>
        <path class="cls-3" d="m1386.52,205.55h80.98v1518.05h-80.98c-21.54,0-39.02-17.49-39.02-39.02V244.58c0-21.54,17.49-39.02,39.02-39.02Z"/>
        <path class="cls-11" d="m1469.99,1726.1h-83.48c-22.9,0-41.52-18.63-41.52-41.53V244.58c0-22.9,18.63-41.52,41.52-41.52h83.48v1523.05Zm-83.48-1518.05c-20.14,0-36.52,16.38-36.52,36.52v1440c0,20.14,16.39,36.53,36.52,36.53h78.48V208.05h-78.48Z"/>
      </g>
      <g class="cls-10">
        <path class="cls-11" d="m1467.5,1614.27v109.35h-81c-21.55,0-39-17.5-39-39.05v-109.3c0,21.55,17.45,39,39,39h81Z"/>
      </g>
      <g class="cls-9">
        <path class="cls-1" d="m1467.5,205.57v79.85h-81c-21.55,0-39,17.5-39,39.05v-79.9c0-21.55,17.45-39,39-39h81Z"/>
      </g>
      <path class="cls-11" d="m1621.99,1906.6c-42.48-.14-77-34.79-77-77.25V77.25C1544.99,34.86,1579.43.2,1621.76,0h.88c7.89.07,15.58,1.3,23.02,3.68l633.34,201.69c51.43,16.38,85.99,63.65,85.99,117.62v1264.65c0,54.3-34.82,101.65-86.64,117.81l-633.1,197.6c-7.48,2.35-15.32,3.54-23.27,3.54Zm.51-1871.6h-.65c-23.04.11-41.85,19.06-41.85,42.25v1752.1c0,23.22,18.87,42.18,42.06,42.25,4.33,0,8.64-.65,12.75-1.94l633.13-197.61c37.12-11.58,62.07-45.49,62.07-84.39V323c0-38.67-24.76-72.54-61.61-84.27L1635.03,37.03c-4.16-1.33-8.25-1.99-12.53-2.02Z"/>
      <g>
        <path class="cls-3" d="m2260.82,416.42v1077.05c0,37.69-22.06,70.99-54.49,82.21l-464.02,145.68c-4.43,1.55-8.9,2.24-13.23,2.24-23.31-.08-43.61-21.02-43.61-48.59V231.59c0-27.57,20.27-48.46,43.5-48.59h.59c4.29.04,8.61.77,12.97,2.32l464.2,149.02c32.21,11.38,54.09,44.56,54.09,82.09Z"/>
        <path class="cls-11" d="m1729.08,1726.1c-25.43-.09-46.11-23.01-46.11-51.09V231.59c0-28.04,20.63-50.95,45.98-51.09h.6c4.68.04,9.32.87,13.81,2.46l464.14,148.99c33.41,11.81,55.82,45.74,55.82,84.47v1077.05c0,38.96-22.57,72.95-56.18,84.58l-464.09,145.7c-4.45,1.55-9.18,2.35-13.97,2.35Zm-.11-1540.6c-22.6.12-41,20.79-41,46.09v1443.43c0,25.33,18.45,46.01,41.12,46.09,4.22,0,8.4-.71,12.4-2.1l464.09-145.7c31.52-10.91,52.74-43,52.74-79.83V416.42c0-36.61-21.06-68.65-52.42-79.73l-464.14-148.99c-4.03-1.43-8.12-2.16-12.23-2.2h-.56Z"/>
      </g>
      <g class="cls-10">
        <path class="cls-11" d="m2260.8,1425.42v68.05c0,37.7-22.05,71-54.45,82.2l-464.05,145.7c-4.4,1.55-8.9,2.25-13.2,2.25-23.3-.1-43.65-21.05-43.65-48.6v-68.05c0,27.55,20.35,48.5,43.65,48.6,4.3,0,8.8-.7,13.2-2.25l464.05-145.65c32.4-11.25,54.45-44.55,54.45-82.25Z"/>
      </g>
      <g class="cls-9">
        <path class="cls-1" d="m2260.8,416.42v41.2c0-37.55-21.85-70.7-54.05-82.1l-464.2-149c-4.4-1.55-8.7-2.3-13-2.35h-.6c-23.2.15-43.5,21.05-43.5,48.6v-41.2c0-27.55,20.3-48.45,43.5-48.55h.6c4.3,0,8.6.75,13,2.3l464.2,149c32.2,11.4,54.05,44.55,54.05,82.1Z"/>
      </g>
      <path class="cls-11" d="m1729.08,1738.6c-32.34-.12-58.61-28.64-58.61-63.59V231.59c0-34.89,26.21-63.42,58.42-63.59h.66c6.19.06,12.19,1.13,17.98,3.18l463.78,148.87c38.75,13.69,64.5,52.36,64.5,96.37v1077.05c0,44.29-25.96,83.02-64.59,96.39l-464.43,145.82c-5.41,1.89-11.52,2.92-17.72,2.92Zm.33-1540.6h-.44c-15.68.08-28.5,15.15-28.5,33.59v1443.43c0,18.47,12.86,33.54,28.66,33.59,2.78,0,5.57-.47,8.24-1.4l464.46-145.83c26.14-9.05,43.98-36.39,43.98-67.9V416.42c0-31.32-17.71-58.63-44.09-67.95l-463.79-148.88c-3.12-1.1-5.77-1.57-8.54-1.6Z"/>
      <path class="cls-11" d="m1527.03,1906.56c-5.37,0-10.69-.57-15.94-1.7l7.4-34.21c5.28,1.14,10.75,1.22,16.29.2l6.32,34.42c-4.7.86-9.4,1.29-14.07,1.29Z"/>
      <ellipse class="cls-1" cx="2020.46" cy="940.8" rx="130.63" ry="223.78"/>
      <g class="cls-10">
        <path class="cls-5" d="m2151.1,940.82c0,123.55-58.5,223.75-130.65,223.75s-130.6-100.2-130.6-223.75c0-17.2,1.15-33.95,3.3-50.05,13.25,99.5,65.2,173.75,127.3,173.75s114.1-74.25,127.35-173.75c2.15,16.1,3.3,32.85,3.3,50.05Z"/>
        <path class="cls-11" d="m2020.45,1167.07c-73.39,0-133.1-101.49-133.1-226.25,0-16.94,1.12-33.9,3.33-50.38l2.48-18.57,2.48,18.57c13.23,99.42,65.73,171.58,124.82,171.58s111.63-72.16,124.87-171.58l2.48-18.58,2.49,18.58c2.2,16.52,3.32,33.47,3.32,50.38,0,124.76-59.73,226.25-133.15,226.25Zm-126.83-257.4c-.84,10.31-1.27,20.73-1.27,31.15,0,122,57.47,221.25,128.1,221.25s128.15-99.25,128.15-221.25c0-10.4-.43-20.82-1.28-31.14-17.38,93.55-68.04,157.34-126.87,157.34s-109.45-63.79-126.83-157.35Z"/>
      </g>
      <g class="cls-9">
        <path class="cls-1" d="m2125.55,1073.67c9.15-30.5,14.25-65.05,14.25-101.6,0-123.6-58.5-223.8-130.65-223.8-43.05,0-81.3,35.75-105.05,90.9,21.55-72.5,65.55-122.15,116.35-122.15,72.15,0,130.65,100.2,130.65,223.8,0,49.75-9.45,95.7-25.55,132.85Z"/>
      </g>
      <g class="cls-9">
        <path class="cls-1" d="m1621.85,17.52c-31.2.15-58.45,25.05-59.3,58.15h-95c.75-30.1,23.45-53.4,51-57.5l16.4-.1,86.9-.55Z"/>
      </g>
      <path class="cls-11" d="m2020.46,1179.58c-81.66,0-145.62-104.88-145.62-238.78s63.96-238.78,145.62-238.78,145.63,104.88,145.63,238.78-63.97,238.78-145.63,238.78Zm0-447.56c-62.68,0-115.62,95.61-115.62,208.78s52.95,208.78,115.62,208.78,115.63-95.61,115.63-208.78-52.95-208.78-115.63-208.78Z"/>
      <path class="cls-11" d="m1521.16,35.46l-5.23-34.6c7.25-1.1,14.48-1.13,21.52-.12l-5,34.64c-3.64-.53-7.44-.5-11.28.08Z"/>
      <path class="cls-11" d="m1621.93,1906.6c-.44,0-.89,0-1.34-.01l-107.75-1.36-1.68-.36c-35.44-7.52-61.17-39.29-61.17-75.52V77.25c0-38,28.37-70.84,65.99-76.41l2.46-.19L1621.73,0h.03l.2,35h-.24c-23.03.22-41.72,19.13-41.72,42.25v1752.1c0,22.94,18.4,41.71,41.2,42.24h1.02s-.28,35.01-.28,35.01Zm-105.04-36.33l40.2.52c-7.65-11.99-12.09-26.21-12.09-41.44V77.25c0-15.39,4.54-29.77,12.35-41.84l-37.35.23c-20.35,3.54-35,20.87-35,41.61v1752.1c0,19.59,13.04,36.21,31.89,40.92Z"/>
      <g>
        <path class="cls-2" d="m2212.3,940.8c0,68.6-32.45,124.2-72.5,124.2-21.5,0-40.85-16.05-54.05-41.5-11.5-21.95-18.45-50.95-18.45-82.7s6.95-60.75,18.45-82.7c13.2-25.45,32.55-41.5,54.05-41.5,40.05,0,72.5,55.6,72.5,124.2Z"/>
        <path class="cls-2" d="m2139.8,1067.5c-21.64,0-42.14-15.62-56.27-42.85-12.08-23.06-18.73-52.84-18.73-83.85s6.65-60.8,18.73-83.86c14.13-27.22,34.63-42.84,56.27-42.84,41.36,0,75,56.84,75,126.7s-33.64,126.7-75,126.7Zm0-248.4c-19.7,0-38.59,14.63-51.84,40.15-11.71,22.36-18.16,51.32-18.16,81.55s6.45,59.18,18.16,81.54c13.24,25.53,32.13,40.16,51.84,40.16,38.6,0,70-54.59,70-121.7s-31.4-121.7-70-121.7Z"/>
      </g>
      <g class="cls-9">
        <path class="cls-1" d="m2196.65,1017.87c3.5-14.5,5.4-30.4,5.4-47.1,0-68.6-32.45-124.2-72.5-124.2-21.5,0-40.8,16.05-54.05,41.5-1,1.9-1.95,3.85-2.85,5.85,3.15-13.25,7.6-25.3,13.1-35.8,13.2-25.45,32.55-41.5,54.05-41.5,40.05,0,72.5,55.6,72.5,124.2,0,29.1-5.85,55.9-15.65,77.05Z"/>
      </g>
      <g>
        <path class="cls-2" d="m2139.8,1065.02h-108.15c-32.8,0-60.5-37.35-69.45-88.55-2-11.3-3.05-23.25-3.05-35.65,0-28.65,5.7-55,15.2-76,13.25-29.35,34-48.2,57.3-48.2h108.15c-21.5,0-40.85,16.05-54.05,41.5-1.15,2.15-2.2,4.4-3.25,6.7-9.55,21-15.2,47.35-15.2,76,0,12.4,1.05,24.35,3.05,35.65,3.05,17.65,8.4,33.65,15.4,47.05,13.2,25.45,32.55,41.5,54.05,41.5Z"/>
        <path class="cls-2" d="m2139.8,1067.52h-108.15c-33.54,0-62.44-36.42-71.91-90.62-2.05-11.6-3.09-23.74-3.09-36.08,0-28.09,5.33-54.72,15.42-77.03,14.25-31.57,35.97-49.67,59.58-49.67h108.15v5c-19.7,0-38.59,14.63-51.84,40.15-1.13,2.13-2.16,4.33-3.19,6.59-9.8,21.54-14.98,47.46-14.98,74.96,0,12.07,1.01,23.92,3.01,35.21,2.93,16.93,8.17,32.95,15.16,46.33,13.24,25.52,32.13,40.16,51.84,40.16v5Zm-108.15-248.4c-21.56,0-41.61,17.03-55.02,46.73-9.8,21.67-14.98,47.59-14.98,74.97,0,12.05,1.02,23.9,3.01,35.21,8.9,50.92,36.45,86.48,66.99,86.48h87.21c-13.58-6.63-25.88-19.64-35.32-37.85-7.22-13.83-12.63-30.35-15.65-47.78-2.04-11.57-3.08-23.71-3.08-36.07,0-28.21,5.33-54.85,15.42-77.03,1.07-2.35,2.14-4.65,3.32-6.85,9.44-18.19,21.73-31.2,35.31-37.82h-87.21Z"/>
      </g>
      <g class="cls-9">
        <path class="cls-1" d="m2139.8,816.62c-21.5,0-40.85,16.05-54.05,41.5-1.15,2.15-2.2,4.4-3.25,6.7h-108.15c13.25-29.35,34-48.2,57.3-48.2h108.15Z"/>
      </g>
      <rect class="cls-11" x="1621.84" y="0" width=".8" height="35"/>
      <path class="cls-11" d="m2139.8,1080c-26.46,0-51.02-18.08-67.37-49.59-12.97-24.77-20.13-56.61-20.13-89.61s7.16-64.85,20.16-89.66c16.32-31.46,40.88-49.54,67.34-49.54,49.07,0,87.5,61.14,87.5,139.2s-38.43,139.2-87.5,139.2Zm0-248.4c-14.87,0-29.72,12.18-40.74,33.41-10.82,20.65-16.76,47.55-16.76,75.79s5.94,55.14,16.73,75.74c11.04,21.28,25.89,33.46,40.77,33.46,27.77,0,57.5-43.88,57.5-109.2s-29.73-109.2-57.5-109.2Z"/>
      <path class="cls-11" d="m2139.8,1080h-108.15c-49.07,0-87.5-61.14-87.5-139.2s38.43-139.2,87.5-139.2h108.15v30c-14.87,0-29.72,12.18-40.74,33.41-10.82,20.65-16.76,47.55-16.76,75.79s5.94,55.14,16.73,75.74c11.04,21.28,25.89,33.46,40.77,33.46v30Zm-108.15-248.4c-30.63,0-57.5,51.03-57.5,109.2s26.87,109.2,57.5,109.2h53.32c-4.56-5.78-8.76-12.33-12.53-19.59-12.97-24.77-20.13-56.61-20.13-89.61s7.16-64.85,20.16-89.66c3.75-7.24,7.95-13.77,12.5-19.54h-53.32Z"/>
      <path class="cls-11" d="m1484.99,1741.1h-98.48c-31.17,0-56.52-25.36-56.52-56.53V244.58c0-31.17,25.36-56.52,56.52-56.52h98.48v1553.05Zm-98.48-1518.05c-11.87,0-21.52,9.66-21.52,21.52v1440c0,11.87,9.65,21.53,21.52,21.53h63.48V223.05h-63.48Z"/>
      <circle class="cls-11" cx="1425.82" cy="513.89" r="41.67"/>
      <circle class="cls-11" cx="1425.82" cy="1460.98" r="41.67"/>
      <g class="cls-10">
        <path class="cls-11" d="m2139.8,1065.02h-108.15c-32.8,0-60.5-37.35-69.45-88.55h108.15c3.05,17.65,8.4,33.65,15.4,47.05,13.2,25.45,32.55,41.5,54.05,41.5Z"/>
      </g>
    </g>
    <path class="cls-11" d="m1009.84,1977.76c-.46,0-.92,0-1.38-.01-44.17-.92-82.63-45.73-121.03-141.04-3.61-8.96.73-19.16,9.69-22.77,8.97-3.61,19.16.73,22.77,9.69,39.38,97.74,70.29,118.73,89.29,119.12,16,.43,49.97-14.79,97.43-119.79,3.98-8.81,14.35-12.71,23.15-8.74,8.81,3.98,12.72,14.35,8.74,23.15-43.26,95.7-84.19,140.39-128.67,140.39Z"/>
    <path class="cls-1" d="m2381.15,681.56h0c-18.59,0-33.65-15.07-33.65-33.65v-211.02c0-18.59,15.07-33.65,33.65-33.65h0c18.59,0,33.65,15.07,33.65,33.65v211.02c0,18.59-15.07,33.65-33.65,33.65Z"/>
    <g class="cls-9">
      <path class="cls-1" d="m2414.8,436.87v54.4c0-9.3-3.75-17.7-9.85-23.8-6.1-6.1-14.5-9.85-23.8-9.85-18.6,0-33.65,15.05-33.65,33.65v-54.4c0-18.55,15.05-33.65,33.65-33.65,9.3,0,17.7,3.8,23.8,9.85,6.1,6.1,9.85,14.55,9.85,23.8Z"/>
    </g>
    <path class="cls-1" d="m2381.15,1521.26h0c-18.59,0-33.65-15.07-33.65-33.65v-211.02c0-18.59,15.07-33.65,33.65-33.65h0c18.59,0,33.65,15.07,33.65,33.65v211.02c0,18.59-15.07,33.65-33.65,33.65Z"/>
    <g class="cls-9">
      <path class="cls-1" d="m2414.8,1276.57v76.25c0-9.3-3.75-17.7-9.85-23.8-6.1-6.1-14.5-9.85-23.8-9.85-18.6,0-33.65,15.1-33.65,33.65v-76.25c0-18.55,15.05-33.65,33.65-33.65,9.3,0,17.7,3.8,23.8,9.85,6.1,6.1,9.85,14.55,9.85,23.8Z"/>
    </g>
    <path class="cls-11" d="m2381.14,699.06c-28.2,0-51.15-22.95-51.15-51.15v-211.03c0-28.21,22.95-51.15,51.15-51.15s51.16,22.95,51.16,51.15v211.03c0,28.21-22.95,51.15-51.16,51.15Zm0-278.33c-8.91,0-16.15,7.25-16.15,16.15v211.03c0,8.91,7.25,16.15,16.15,16.15s16.16-7.25,16.16-16.15v-211.03c0-8.91-7.25-16.15-16.16-16.15Z"/>
    <path class="cls-11" d="m2381.14,1538.77c-28.2,0-51.15-22.95-51.15-51.16v-211.03c0-28.2,22.95-51.15,51.15-51.15s51.16,22.95,51.16,51.15v211.03c0,28.21-22.95,51.16-51.16,51.16Zm0-278.34c-8.91,0-16.15,7.25-16.15,16.15v211.03c0,8.91,7.25,16.16,16.15,16.16s16.16-7.25,16.16-16.16v-211.03c0-8.91-7.25-16.15-16.16-16.15Z"/>
    <path class="cls-11" d="m2986.45,1966.11c-58.68,9.06-117.36,11.23-176.04,12.34-58.68,1.25-117.36.59-176.04-.09l-88.02-.55-88.02-.03H521.88l-88.02.03-44.01.42-44.01.73c-29.34.38-58.68-.21-88.02-1.67-29.34-1.9-58.68-4.56-88.02-11.17-3.22-.73-5.24-3.93-4.52-7.15.52-2.32,2.34-4.02,4.52-4.52,29.34-6.61,58.68-9.27,88.02-11.17,29.34-1.47,58.68-2.05,88.02-1.67l44.01.73,44.01.42,88.02.03h1936.45l88.02-.03,88.02-.55c58.68-.68,117.36-1.35,176.04-.09,58.68,1.11,117.36,3.28,176.04,12.34,3.22.5,5.43,3.51,4.93,6.73-.4,2.6-2.46,4.55-4.93,4.93Z"/>
    <g>
      <polygon class="cls-4" points="1172.15 855.25 1086.52 1102.49 847.94 995.14 883.38 907.1 1083.75 820.65 1172.15 855.25"/>
      <g class="cls-9">
        <polygon class="cls-1" points="1086.52 1102.49 1080.65 894.73 1021.81 847.38 1083.75 820.65 1172.15 855.25 1086.52 1102.49"/>
      </g>
      <g class="cls-9">
        <polygon class="cls-1" points="1172.15 855.25 1163.84 879.3 1080.1 846.49 879.73 932.94 853.65 997.69 847.94 995.14 883.38 907.1 1083.75 820.65 1172.15 855.25"/>
      </g>
      <g class="cls-10">
        <polygon class="cls-7" points="1086.52 1102.49 847.94 995.14 883.38 907.1 945.35 880.36 939.43 955.66 1086.52 1102.49"/>
        <path class="cls-11" d="m1097.96,1110.38l-253.24-113.95,36.73-91.22,66.72-28.79-6.16,78.29,155.95,155.67Zm-246.81-116.54l223.92,100.76-138.23-137.99,5.69-72.31-57.22,24.69-34.16,84.85Z"/>
      </g>
      <path class="cls-11" d="m1094.15,1120.17l-262.92-118.29,42.1-104.59,210.19-90.68,104.98,41.12-94.35,272.44Zm-229.5-131.75l214.24,96.39,76.88-221.99-71.78-28.12-190.55,82.21-28.79,71.51Z"/>
      <rect class="cls-11" x="833.5" y="912.22" width="353.08" height="25.98" transform="translate(-283.88 475.81) rotate(-23.34)"/>
      <polygon class="cls-11" points="1073.54 1102.85 1067.84 901.1 1013.66 857.5 1029.96 837.25 1093.47 888.38 1099.51 1102.12 1073.54 1102.85"/>
      <polygon class="cls-11" points="1077.35 1111.69 925.99 960.64 932.39 879.35 958.29 881.39 952.84 950.71 1095.71 1093.29 1077.35 1111.69"/>
    </g>
    <g>
      <g>
        <circle class="cls-2" cx="2451.27" cy="1812.03" r="150.85"/>
        <path class="cls-11" d="m2451.27,1965.38c-84.56,0-153.35-68.79-153.35-153.35s68.79-153.35,153.35-153.35,153.35,68.79,153.35,153.35-68.79,153.35-153.35,153.35Zm0-301.7c-81.8,0-148.35,66.55-148.35,148.35s66.55,148.35,148.35,148.35,148.35-66.55,148.35-148.35-66.55-148.35-148.35-148.35Z"/>
      </g>
      <g class="cls-9">
        <path class="cls-1" d="m2557.42,1916.57c13.81-22.87,21.83-49.62,21.83-78.28,0-31.6-9.77-60.98-26.44-85.19-25.49,17.55-56.29-15.16-39.3-39.3-24.22-16.59-53.51-26.36-85.11-26.36-41.37,0-78.68,16.59-105.91,43.59,26.44-43.35,74.24-72.33,128.78-72.33,83.29,0,150.85,67.57,150.85,150.85,0,41.84-17.07,79.79-44.7,107.03Z"/>
      </g>
      <circle class="cls-8" cx="2451.27" cy="1812.03" r="79.09"/>
      <g class="cls-9">
        <path class="cls-1" d="m2506.41,1868.64c-14.45,18.18-36.76,29.77-61.77,29.77-17.94,0-34.54-5.95-47.8-16.04-16.59,10.72-35.41-12.07-22.31-26.36-5.8-10.96-9.05-23.42-9.05-36.68,0-22.31,9.29-42.56,24.22-56.85-10.96,13.5-17.55,30.81-17.55,49.54,0,43.67,35.41,79.08,79.16,79.08,21.44,0,40.89-8.57,55.1-22.47Z"/>
      </g>
      <g class="cls-10">
        <path class="cls-11" d="m2530.38,1812.03c0,23.58-10.32,44.78-26.76,59.15,9.77-13.1,15.48-29.38,15.48-46.92,0-43.67-35.41-79.08-79.08-79.08-20.17,0-38.59,7.62-52.56,20.09,14.37-19.61,37.63-32.31,63.83-32.31,43.67,0,79.08,35.41,79.08,79.08Z"/>
      </g>
      <path class="cls-11" d="m2451.27,1977.88c-91.45,0-165.85-74.4-165.85-165.85s74.4-165.85,165.85-165.85,165.85,74.4,165.85,165.85-74.4,165.85-165.85,165.85Zm0-301.7c-74.91,0-135.85,60.94-135.85,135.85s60.94,135.85,135.85,135.85,135.85-60.94,135.85-135.85-60.94-135.85-135.85-135.85Z"/>
    </g>
    <g>
      <rect class="cls-2" x="2537.86" y="1859.22" width="296.23" height="101.03" rx="25.79" ry="25.79"/>
      <g class="cls-9">
        <rect class="cls-1" x="2720.04" y="1860.26" width="42.46" height="96.86"/>
      </g>
      <rect class="cls-8" x="2540.98" y="1860.26" width="78.5" height="96.86"/>
      <g class="cls-9">
        <rect class="cls-1" x="2780.27" y="1862.35" width="24.69" height="96.86"/>
      </g>
      <path class="cls-11" d="m2808.3,1975.26h-244.66c-22.49,0-40.79-18.3-40.79-40.79v-49.46c0-22.49,18.3-40.79,40.79-40.79h244.66c22.49,0,40.79,18.3,40.79,40.79v49.46c0,22.49-18.3,40.79-40.79,40.79Zm-244.66-101.04c-5.95,0-10.79,4.84-10.79,10.79v49.46c0,5.95,4.84,10.79,10.79,10.79h244.66c5.95,0,10.79-4.84,10.79-10.79v-49.46c0-5.95-4.84-10.79-10.79-10.79h-244.66Z"/>
    </g>
    <g>
      <rect class="cls-2" x="497.39" y="1859.22" width="296.23" height="101.03" rx="25.79" ry="25.79"/>
      <g class="cls-9">
        <rect class="cls-1" x="679.57" y="1860.26" width="42.46" height="96.86"/>
      </g>
      <rect class="cls-8" x="500.52" y="1860.26" width="78.5" height="96.86"/>
      <g class="cls-9">
        <rect class="cls-1" x="739.81" y="1862.35" width="24.69" height="96.86"/>
      </g>
      <path class="cls-11" d="m767.83,1975.26h-244.66c-22.49,0-40.79-18.3-40.79-40.79v-49.46c0-22.49,18.3-40.79,40.79-40.79h244.66c22.49,0,40.79,18.3,40.79,40.79v49.46c0,22.49-18.3,40.79-40.79,40.79Zm-244.66-101.04c-5.95,0-10.79,4.84-10.79,10.79v49.46c0,5.95,4.84,10.79,10.79,10.79h244.66c5.95,0,10.79-4.84,10.79-10.79v-49.46c0-5.95-4.84-10.79-10.79-10.79h-244.66Z"/>
    </g>
    <g>
      <path class="cls-2" d="m569.75,1838.76l-217.11,112.79c-12.64,6.56-28.2,1.64-34.77-11l-22.8-43.89c-6.56-12.64-1.64-28.2,11-34.77l217.11-112.79c12.64-6.56,28.2-1.64,34.77,11l22.8,43.89c6.56,12.64,1.64,28.2-11,34.77Z"/>
      <g class="cls-9">
        <rect class="cls-1" x="465.26" y="1775.47" width="42.46" height="96.86" transform="translate(-786.02 429.63) rotate(-27.45)"/>
      </g>
      <rect class="cls-8" x="304.34" y="1849.71" width="78.5" height="96.86" transform="translate(-836.34 372.11) rotate(-27.45)"/>
      <g class="cls-9">
        <rect class="cls-1" x="520.68" y="1753.65" width="24.69" height="96.86" transform="translate(-770.72 448.62) rotate(-27.45)"/>
      </g>
      <path class="cls-11" d="m340.82,1969.44c-14.75,0-29.01-8.01-36.26-21.97l-22.8-43.9c-5.02-9.67-5.98-20.71-2.7-31.1,3.29-10.39,10.42-18.87,20.09-23.89l217.11-112.79c19.96-10.36,44.63-2.56,55,17.39l22.8,43.9c5.02,9.67,5.98,20.71,2.7,31.1-3.29,10.39-10.42,18.87-20.09,23.89l-217.11,112.79c-5.99,3.11-12.41,4.58-18.73,4.58Zm194.22-208.24c-1.67,0-3.37.39-4.95,1.21l-217.11,112.79c-5.28,2.74-7.34,9.26-4.6,14.54l22.8,43.9c2.74,5.27,9.28,7.34,14.55,4.6l217.11-112.79h0c5.28-2.74,7.34-9.26,4.6-14.54l-22.8-43.9c-1.92-3.69-5.69-5.81-9.59-5.81Z"/>
    </g>
    <g>
      <rect class="cls-2" x="2461.41" y="1758.19" width="296.23" height="101.03" rx="25.79" ry="25.79"/>
      <g class="cls-9">
        <rect class="cls-1" x="2643.59" y="1759.23" width="42.46" height="96.86"/>
      </g>
      <rect class="cls-8" x="2464.54" y="1759.23" width="78.5" height="96.86"/>
      <g class="cls-9">
        <rect class="cls-1" x="2703.83" y="1761.32" width="24.69" height="96.86"/>
      </g>
      <path class="cls-11" d="m2731.86,1874.22h-244.66c-22.49,0-40.78-18.3-40.78-40.79v-49.46c0-22.49,18.3-40.79,40.78-40.79h244.66c22.49,0,40.79,18.3,40.79,40.79v49.46c0,22.49-18.3,40.79-40.79,40.79Zm-244.66-101.04c-5.94,0-10.78,4.84-10.78,10.79v49.46c0,5.95,4.84,10.79,10.78,10.79h244.66c5.95,0,10.79-4.84,10.79-10.79v-49.46c0-5.95-4.84-10.79-10.79-10.79h-244.66Z"/>
    </g>
    <g>
      <rect class="cls-2" x="2537.86" y="1655.57" width="296.23" height="101.03" rx="25.79" ry="25.79"/>
      <g class="cls-9">
        <rect class="cls-1" x="2720.04" y="1656.61" width="42.46" height="96.86"/>
      </g>
      <rect class="cls-8" x="2540.98" y="1656.61" width="78.5" height="96.86"/>
      <g class="cls-9">
        <rect class="cls-1" x="2780.27" y="1658.7" width="24.69" height="96.86"/>
      </g>
      <path class="cls-11" d="m2808.3,1771.6h-244.66c-22.49,0-40.79-18.3-40.79-40.79v-49.46c0-22.49,18.3-40.79,40.79-40.79h244.66c22.49,0,40.79,18.3,40.79,40.79v49.46c0,22.49-18.3,40.79-40.79,40.79Zm-244.66-101.04c-5.95,0-10.79,4.84-10.79,10.79v49.46c0,5.95,4.84,10.79,10.79,10.79h244.66c5.95,0,10.79-4.84,10.79-10.79v-49.46c0-5.95-4.84-10.79-10.79-10.79h-244.66Z"/>
    </g>
    <g class="cls-10">
      <path class="cls-11" d="m3134.8,2010.97c0,52.15-701.75,94.4-1567.4,94.4S0,2063.12,0,2010.97c0-18.65,90-36.05,245.35-50.7h2644.1c155.35,14.65,245.35,32.05,245.35,50.7Z"/>
    </g>
  </g>
</svg>