<?xml version="1.0" encoding="UTF-8"?>
<svg id="Layer_1" data-name="Layer 1" xmlns="http://www.w3.org/2000/svg" xmlns:xlink="http://www.w3.org/1999/xlink" viewBox="0 0 3527.27 2535.08">
  <defs>
    <style>
      .cls-1 {
        fill: url(#linear-gradient-3);
      }

      .cls-1, .cls-2 {
        mix-blend-mode: multiply;
      }

      .cls-3 {
        mask: url(#mask-3);
      }

      .cls-3, .cls-4, .cls-5, .cls-6, .cls-7, .cls-8, .cls-9 {
        fill: none;
      }

      .cls-10 {
        fill: #fff;
      }

      .cls-11 {
        fill: #40a3db;
      }

      .cls-12 {
        fill: #ff791f;
      }

      .cls-2 {
        fill: url(#linear-gradient);
      }

      .cls-4 {
        mask: url(#mask-2);
      }

      .cls-5 {
        opacity: .35;
      }

      .cls-13 {
        fill: #ffd553;
      }

      .cls-14 {
        fill: #8ac457;
      }

      .cls-15 {
        fill: url(#linear-gradient-2);
      }

      .cls-15, .cls-9, .cls-16 {
        opacity: .3;
      }

      .cls-17 {
        fill: #12b3f9;
      }

      .cls-6 {
        mask: url(#mask-1);
      }

      .cls-18 {
        fill: #ff8a30;
      }

      .cls-19 {
        fill: #40e6ff;
      }

      .cls-20 {
        fill: #ff4516;
      }

      .cls-7 {
        opacity: .55;
      }

      .cls-21 {
        fill: #000072;
      }

      .cls-22 {
        fill: #ffb031;
      }

      .cls-23 {
        fill: #99a9b5;
      }

      .cls-8 {
        mask: url(#mask);
      }

      .cls-24 {
        filter: url(#luminosity-noclip);
      }

      .cls-16 {
        fill: url(#linear-gradient-4);
      }

      .cls-25 {
        filter: url(#luminosity-noclip-3);
      }
    </style>
    <filter id="luminosity-noclip" x="2390.35" y="2260.55" width="384.95" height="117.06" color-interpolation-filters="sRGB" filterUnits="userSpaceOnUse">
      <feFlood flood-color="#fff" result="bg"/>
      <feBlend in="SourceGraphic" in2="bg"/>
    </filter>
    <filter id="luminosity-noclip-2" x="2390.35" y="-9384.54" width="384.95" height="32766" color-interpolation-filters="sRGB" filterUnits="userSpaceOnUse">
      <feFlood flood-color="#fff" result="bg"/>
      <feBlend in="SourceGraphic" in2="bg"/>
    </filter>
    <mask id="mask-1" x="2390.35" y="-9384.54" width="384.95" height="32766" maskUnits="userSpaceOnUse"/>
    <linearGradient id="linear-gradient" x1="2531.34" y1="2199.73" x2="2634.31" y2="2438.43" gradientUnits="userSpaceOnUse">
      <stop offset="0" stop-color="#fff"/>
      <stop offset="1" stop-color="#000"/>
    </linearGradient>
    <mask id="mask" x="2390.35" y="2260.55" width="384.95" height="117.06" maskUnits="userSpaceOnUse">
      <g class="cls-24">
        <g class="cls-6">
          <polygon class="cls-2" points="2775.3 2377.61 2473.73 2377.61 2390.35 2260.55 2691.92 2260.55 2775.3 2377.61"/>
        </g>
      </g>
    </mask>
    <linearGradient id="linear-gradient-2" x1="2531.34" y1="2199.73" x2="2634.31" y2="2438.43" gradientUnits="userSpaceOnUse">
      <stop offset="0" stop-color="#000072"/>
      <stop offset="1" stop-color="#25a9e0"/>
    </linearGradient>
    <filter id="luminosity-noclip-3" x="829.8" y="2260.55" width="384.95" height="117.06" color-interpolation-filters="sRGB" filterUnits="userSpaceOnUse">
      <feFlood flood-color="#fff" result="bg"/>
      <feBlend in="SourceGraphic" in2="bg"/>
    </filter>
    <filter id="luminosity-noclip-4" x="829.8" y="-9384.54" width="384.95" height="32766" color-interpolation-filters="sRGB" filterUnits="userSpaceOnUse">
      <feFlood flood-color="#fff" result="bg"/>
      <feBlend in="SourceGraphic" in2="bg"/>
    </filter>
    <mask id="mask-3" x="829.8" y="-9384.54" width="384.95" height="32766" maskUnits="userSpaceOnUse"/>
    <linearGradient id="linear-gradient-3" x1="970.79" y1="2199.73" x2="1073.76" y2="2438.43" gradientUnits="userSpaceOnUse">
      <stop offset="0" stop-color="#fff"/>
      <stop offset="1" stop-color="#000"/>
    </linearGradient>
    <mask id="mask-2" x="829.8" y="2260.55" width="384.95" height="117.06" maskUnits="userSpaceOnUse">
      <g class="cls-25">
        <g class="cls-3">
          <polygon class="cls-1" points="1214.75 2377.61 913.18 2377.61 829.8 2260.55 1131.37 2260.55 1214.75 2377.61"/>
        </g>
      </g>
    </mask>
    <linearGradient id="linear-gradient-4" x1="970.79" x2="1073.76" y2="2438.43" xlink:href="#linear-gradient-2"/>
  </defs>
  <path class="cls-13" d="m3204.45,1440.82C3204.45,645.08,2559.38,0,1763.64,0S322.82,645.08,322.82,1440.82c0,392.84,157.29,748.9,412.24,1008.81h2057.16c254.95-259.91,412.24-615.97,412.24-1008.81Z"/>
  <g>
    <g>
      <path class="cls-14" d="m3219.36,1832.63c0,54.4-24.76,103.02-63.66,135.17-.13,0-.19.06-.19.06-32.92,27.2-75.95,42.57-122.57,39.68-90.67-5.59-162.95-81.86-164.11-172.66-.51-40.71,12.8-78.2,35.56-108.16,22.51-29.65,26.04-68.87,9.52-102.25-11.77-23.92-17.17-51.51-13.95-80.7,7.39-66.43,60.83-119.93,127.26-127.45,87.58-9.9,161.92,58.45,161.92,144.11,0,23.73-5.72,46.11-15.82,65.91-16.4,32.02-12.41,70.8,9.58,99.29,18.97,24.56,31.57,54.34,35.3,86.88v.06c.77,6.56,1.16,13.25,1.16,20.06Z"/>
      <g class="cls-9">
        <path class="cls-21" d="m3219.36,1832.63c0,29.97-7.52,58.2-20.84,82.89-.77,1.41-1.54,2.83-2.31,4.18-2.06,3.73-4.31,7.27-6.75,10.8-1.09,1.61-2.19,3.22-3.34,4.76-1.03,1.61-2.25,3.15-3.47,4.69-.96,1.22-1.93,2.44-2.96,3.67-2.7,3.34-5.53,6.62-8.55,9.71-.9.96-1.8,1.93-2.77,2.83-1.54,1.67-3.15,3.22-4.82,4.76-.58.58-1.22,1.16-1.86,1.67-1.61,1.48-3.28,2.96-5.02,4.37-.32.32-.64.58-.96.84h-.06c-32.93,27.27-76.01,42.63-122.7,39.74-90.67-5.59-162.95-81.86-164.11-172.66-.51-40.71,12.8-78.2,35.56-108.16,22.51-29.65,26.04-68.87,9.52-102.25-11.77-23.92-17.17-51.51-13.95-80.7,4.44-39.61,25.21-74.59,55.37-98-7.07,14.4-11.77,30.16-13.57,46.69-3.22,29.19,2.19,56.85,13.95,80.77,16.53,33.37,12.99,72.54-9.52,102.18-22.76,29.97-36.08,67.52-35.56,108.16.26,18.07,3.28,35.56,8.75,52.02q0,.06.06.13c33.25,102.37,268.48,132.92,298.77-23.15.77,6.56,1.16,13.25,1.16,20.06Z"/>
      </g>
      <g class="cls-7">
        <path class="cls-10" d="m3185.64,1928.2c7.91-19.93,12.28-41.73,12.28-64.5,0-40.26-13.63-77.42-36.46-107.01-22.06-28.49-26.04-67.26-9.58-99.29,10.03-19.74,15.75-42.18,15.75-65.91,0-34.08-11.77-65.46-31.57-90.22-21.54,10.16-52.15-15.3-46.36-38.39-24.69-12.93-53.5-18.91-83.98-15.43-42.63,4.76-79.8,28.55-103.02,62.51,18.52-50.09,64.43-87.46,119.09-93.63,87.58-9.9,161.92,58.45,161.92,144.11,0,23.73-5.72,46.11-15.76,65.91-16.46,32.02-12.48,70.8,9.58,99.29,22.83,29.58,36.46,66.69,36.46,107.01,0,35.24-10.42,68.1-28.36,95.56Z"/>
      </g>
      <path class="cls-21" d="m3044.23,2022.12c-4.04,0-8.1-.12-12.17-.38-98.27-6.07-176.22-88.08-177.47-186.69-.53-42.66,12.77-83.1,38.48-116.96,19.14-25.2,22.24-58.65,8.09-87.29-13.46-27.25-18.77-57.89-15.35-88.59,8.1-72.9,66.88-131.78,139.78-140.02,45.37-5.13,90.76,9.23,124.55,39.41,33.83,30.21,53.23,73.53,53.23,118.82,0,25.5-5.85,49.86-17.38,72.39-13.73,26.85-10.52,59.86,8.19,84.11,25.78,33.4,39.4,73.4,39.4,115.7,0,52.08-21.77,102.42-59.72,138.1-35.52,33.39-81.17,51.41-129.64,51.41Zm.03-592.51c-5.12,0-10.28.29-15.47.88-59.8,6.76-108.03,55.07-114.67,114.87-2.81,25.29,1.54,50.48,12.58,72.84,18.96,38.4,14.77,83.28-10.94,117.13-21.84,28.75-33.14,63.12-32.68,99.37,1.06,83.78,67.27,153.46,150.74,158.62,45.02,2.78,87.84-12.61,120.54-43.35,32.72-30.77,50.74-72.44,50.74-117.35,0-35.94-11.57-69.93-33.47-98.3-25.41-32.92-29.73-77.87-11-114.48,9.46-18.48,14.25-38.47,14.25-59.42,0-37.2-15.93-72.76-43.72-97.58-24.29-21.7-54.7-33.23-86.91-33.23Z"/>
      <path class="cls-21" d="m3044.08,2385.49c-7.87,0-14.24-6.38-14.24-14.24v-600.23c0-7.87,6.38-14.24,14.24-14.24s14.24,6.38,14.24,14.24v600.23c0,7.87-6.38,14.24-14.24,14.24Z"/>
      <path class="cls-21" d="m3044.09,1891.48c-4.22,0-8.41-1.87-11.22-5.45-4.85-6.19-3.77-15.14,2.41-20l61.47-48.23c6.19-4.86,15.14-3.78,20,2.42,4.85,6.19,3.77,15.14-2.41,20l-61.47,48.23c-2.61,2.05-5.71,3.04-8.78,3.04Z"/>
      <path class="cls-21" d="m3044.09,2212.02c-5.35,0-10.47-3.02-12.9-8.18-3.35-7.12-.29-15.6,6.83-18.95l58.79-27.65c7.12-3.34,15.6-.29,18.95,6.83,3.35,7.12.29,15.6-6.83,18.95l-58.79,27.65c-1.96.92-4.02,1.35-6.05,1.35Z"/>
      <g>
        <path class="cls-14" d="m3197.57,2446.59l-.06-.06h-643.25c-18.2-20.19-29.32-46.88-29.32-76.2,0-9.39,1.16-18.52,3.34-27.27.84-3.41,1.8-6.75,2.96-10.03,1.16-3.54,2.57-7.01,4.18-10.35v-.06c18.01-38.9,57.43-65.91,103.08-65.91,32.99,0,62.76,14.08,83.47,36.53,8.04,8.68,21.99,7.27,27.97-2.89,13.44-22.7,38.2-37.88,66.49-37.88,23.92,0,45.27,10.87,59.42,27.91,6.75,8.17,18.65,9.9,26.69,3.09,23.09-19.36,52.86-31,85.4-31,47.52,0,89.26,24.95,112.73,62.51,9.97,16.01,27.91,24.56,46.75,25.4,3.28.13,6.69.51,10.1,1.16,12.22,2.32,23.21,8.23,32.02,16.46v.06c1.22,1.09,2.38,2.32,3.54,3.54,8.75,9.32,14.79,21.22,16.85,34.34.39,2.31.64,4.63.71,6.88,1.03,16.4-3.99,31.64-13.05,43.79Z"/>
        <g class="cls-9">
          <path class="cls-21" d="m3210.63,2403.44c.9,16.14-4.12,31.12-13.05,43.15l-.06-.06h-643.25c-13.83-15.3-23.54-34.34-27.46-55.43-1.22-6.75-1.86-13.7-1.86-20.77,0-3.67.19-7.27.58-10.8,1.35-2.44,2.77-5.08,4.24-7.72,9.32-16.59,20.32-35.37,20.32-35.37,2.57,46.3,27.59,76.46,91.25,78.65,4.95.19,10.22.19,15.69,0h455.74c41.16-4.05,54.85-20.45,49.32-45.53,0,0,29.45,2.25,37.49,5.47,8.04,3.22,19.81,42.89,19.81,46.11,0,.71-3.41,1.54-8.75,2.31Z"/>
        </g>
        <g class="cls-7">
          <path class="cls-10" d="m3110.44,2326.34c-3.79,3.47-9,8.42-13.5,13.18-14.79-20-35.43-35.3-59.29-44.31-8.94,19.1-45.85,10.74-48.74-9h-.96c-32.54,0-62.31,11.64-85.4,31-8.04,6.82-19.93,5.08-26.69-3.09-14.15-17.04-35.5-27.91-59.42-27.91-28.29,0-53.05,15.18-66.49,37.88-5.98,10.16-19.94,11.57-27.97,2.89-20.71-22.44-50.48-36.53-83.47-36.53-56.91,0-104.11,41.93-112.34,96.65-.84-5.47-1.22-11.06-1.22-16.78,0-62.76,50.87-113.63,113.56-113.63,32.99,0,62.76,14.08,83.47,36.53,8.04,8.68,21.99,7.27,27.97-2.89,13.44-22.7,38.2-37.88,66.49-37.88,23.92,0,45.27,10.87,59.42,27.91,6.75,8.17,18.65,9.9,26.69,3.09,23.09-19.36,52.86-31,85.4-31,47.52,0,89.26,24.95,112.73,62.51,2.7,4.37,5.98,8.17,9.77,11.38Z"/>
        </g>
        <path class="cls-21" d="m3197.55,2460.81c-.45,0-.9-.02-1.35-.06h-641.97c-4.03,0-7.88-1.71-10.58-4.71-21.27-23.6-32.99-54.05-32.99-85.74,0-70.51,57.33-127.87,127.81-127.87,35.61,0,69.86,15,93.98,41.14.97,1.05,2.07,1.16,2.82,1.1.73-.08,1.74-.42,2.44-1.6,16.39-27.69,46.55-44.89,78.7-44.89,27.32,0,52.98,12.07,70.41,33.11,1,1.21,2.39,1.97,3.81,2.1,1.61.09,2.47-.6,2.76-.83,26.38-22.17,59.95-34.38,94.52-34.38,51.08,0,97.74,25.88,124.83,69.23,6.88,11.02,20.08,18.01,35.3,18.69,4.01.18,8.1.66,12.14,1.44,32.97,6.36,58.62,32.94,63.83,66.14h0c3.46,22.07-1.89,43.89-15.08,61.43-2.48,3.3-6.27,5.36-10.38,5.65-.34.02-.67.03-1,.03Zm-636.72-28.55h629.09c5.74-10.21,7.85-22.1,5.95-34.16-3.3-21.04-20.2-38.55-41.08-42.58-2.68-.51-5.38-.83-8.02-.95-24.59-1.1-46.34-13.09-58.19-32.06-21.85-34.97-59.48-55.84-100.67-55.84-27.88,0-54.94,9.84-76.2,27.7-6.6,5.55-14.99,8.17-23.64,7.4-8.93-.81-17.38-5.29-23.19-12.3-12-14.49-29.67-22.8-48.47-22.8-22.13,0-42.9,11.85-54.18,30.91-5.17,8.74-13.91,14.36-23.96,15.42-10.09,1.06-19.84-2.62-26.75-10.12-18.74-20.32-45.36-31.97-73.04-31.97-54.77,0-99.32,44.58-99.32,99.38,0,22.57,7.65,44.35,21.67,61.96Z"/>
      </g>
    </g>
    <g>
      <path class="cls-14" d="m307.91,1832.63c0,54.4,24.76,103.02,63.66,135.17.13,0,.19.06.19.06,32.92,27.2,75.95,42.57,122.57,39.68,90.67-5.59,162.95-81.86,164.11-172.66.51-40.71-12.8-78.2-35.56-108.16-22.51-29.65-26.04-68.87-9.52-102.25,11.77-23.92,17.17-51.51,13.95-80.7-7.39-66.43-60.83-119.93-127.26-127.45-87.58-9.9-161.92,58.45-161.92,144.11,0,23.73,5.72,46.11,15.82,65.91,16.4,32.02,12.41,70.8-9.58,99.29-18.97,24.56-31.57,54.34-35.3,86.88v.06c-.77,6.56-1.16,13.25-1.16,20.06Z"/>
      <g class="cls-9">
        <path class="cls-21" d="m307.91,1832.63c0,29.97,7.52,58.2,20.84,82.89.77,1.41,1.54,2.83,2.31,4.18,2.06,3.73,4.31,7.27,6.75,10.8,1.09,1.61,2.19,3.22,3.34,4.76,1.03,1.61,2.25,3.15,3.47,4.69.96,1.22,1.93,2.44,2.96,3.67,2.7,3.34,5.53,6.62,8.55,9.71.9.96,1.8,1.93,2.77,2.83,1.54,1.67,3.15,3.22,4.82,4.76.58.58,1.22,1.16,1.86,1.67,1.61,1.48,3.28,2.96,5.02,4.37.32.32.64.58.96.84h.06c32.93,27.27,76.01,42.63,122.7,39.74,90.67-5.59,162.95-81.86,164.11-172.66.51-40.71-12.8-78.2-35.56-108.16-22.51-29.65-26.04-68.87-9.52-102.25,11.77-23.92,17.17-51.51,13.95-80.7-4.44-39.61-25.21-74.59-55.37-98,7.07,14.4,11.77,30.16,13.57,46.69,3.22,29.19-2.19,56.85-13.95,80.77-16.53,33.37-12.99,72.54,9.52,102.18,22.76,29.97,36.08,67.52,35.56,108.16-.26,18.07-3.28,35.56-8.75,52.02q0,.06-.06.13c-33.25,102.37-268.48,132.92-298.77-23.15-.77,6.56-1.16,13.25-1.16,20.06Z"/>
      </g>
      <g class="cls-7">
        <path class="cls-10" d="m341.63,1928.2c-7.91-19.93-12.28-41.73-12.28-64.5,0-40.26,13.63-77.42,36.46-107.01,22.06-28.49,26.04-67.26,9.58-99.29-10.03-19.74-15.75-42.18-15.75-65.91,0-34.08,11.77-65.46,31.57-90.22,21.54,10.16,52.15-15.3,46.36-38.39,24.69-12.93,53.5-18.91,83.98-15.43,42.63,4.76,79.8,28.55,103.02,62.51-18.52-50.09-64.43-87.46-119.09-93.63-87.58-9.9-161.92,58.45-161.92,144.11,0,23.73,5.72,46.11,15.76,65.91,16.46,32.02,12.48,70.8-9.58,99.29-22.83,29.58-36.46,66.69-36.46,107.01,0,35.24,10.42,68.1,28.36,95.56Z"/>
      </g>
      <path class="cls-21" d="m483.04,2022.12c-48.47,0-94.11-18.01-129.64-51.41-37.95-35.68-59.72-86.02-59.72-138.1,0-42.29,13.63-82.3,39.4-115.7,18.71-24.24,21.93-57.26,8.19-84.11-11.53-22.53-17.37-46.89-17.37-72.39,0-45.3,19.4-88.61,53.23-118.82,33.79-30.18,79.18-44.53,124.55-39.41,72.89,8.24,131.68,67.13,139.78,140.02,3.41,30.71-1.9,61.35-15.35,88.6-14.15,28.64-11.04,62.09,8.09,87.29,25.71,33.86,39.02,74.3,38.48,116.96-1.24,98.61-79.19,180.62-177.46,186.69-4.07.25-8.13.38-12.17.38Zm-.03-592.51c-32.21,0-62.61,11.53-86.91,33.23-27.78,24.81-43.72,60.38-43.72,97.58,0,20.95,4.79,40.94,14.25,59.42,18.73,36.62,14.42,81.55-11,114.48-21.89,28.37-33.47,62.36-33.47,98.3,0,44.91,18.02,86.58,50.74,117.35,32.7,30.74,75.5,46.12,120.54,43.35,83.47-5.16,149.68-74.84,150.74-158.62.46-36.25-10.85-70.61-32.68-99.37-25.71-33.85-29.9-78.74-10.94-117.13,11.04-22.36,15.39-47.55,12.58-72.84-6.64-59.79-54.87-108.11-114.67-114.87-5.19-.59-10.35-.88-15.47-.88Z"/>
      <path class="cls-21" d="m483.19,2385.49c-7.87,0-14.24-6.38-14.24-14.24v-600.23c0-7.87,6.38-14.24,14.24-14.24s14.24,6.38,14.24,14.24v600.23c0,7.87-6.38,14.24-14.24,14.24Z"/>
      <path class="cls-21" d="m483.18,1891.48c-3.08,0-6.17-.99-8.78-3.04l-61.47-48.23c-6.19-4.86-7.27-13.81-2.41-20,4.85-6.19,13.81-7.27,20-2.42l61.47,48.23c6.19,4.86,7.27,13.81,2.41,20-2.81,3.58-6.99,5.45-11.21,5.45Z"/>
      <path class="cls-21" d="m483.18,2212.02c-2.03,0-4.09-.43-6.05-1.36l-58.79-27.65c-7.12-3.34-10.17-11.83-6.83-18.95,3.35-7.12,11.83-10.18,18.95-6.83l58.79,27.65c7.12,3.34,10.17,11.83,6.83,18.95-2.43,5.16-7.55,8.18-12.9,8.18Z"/>
      <g>
        <path class="cls-14" d="m329.7,2446.59l.06-.06h643.25c18.2-20.19,29.32-46.88,29.32-76.2,0-9.39-1.16-18.52-3.34-27.27-.84-3.41-1.8-6.75-2.96-10.03-1.16-3.54-2.57-7.01-4.18-10.35v-.06c-18.01-38.9-57.43-65.91-103.08-65.91-32.99,0-62.76,14.08-83.47,36.53-8.04,8.68-21.99,7.27-27.97-2.89-13.44-22.7-38.2-37.88-66.49-37.88-23.92,0-45.27,10.87-59.42,27.91-6.75,8.17-18.65,9.9-26.69,3.09-23.09-19.36-52.86-31-85.4-31-47.52,0-89.26,24.95-112.73,62.51-9.97,16.01-27.91,24.56-46.75,25.4-3.28.13-6.69.51-10.1,1.16-12.22,2.32-23.21,8.23-32.02,16.46v.06c-1.22,1.09-2.38,2.32-3.54,3.54-8.75,9.32-14.79,21.22-16.85,34.34-.39,2.31-.64,4.63-.71,6.88-1.03,16.4,3.99,31.64,13.05,43.79Z"/>
        <g class="cls-9">
          <path class="cls-21" d="m316.65,2403.44c-.9,16.14,4.12,31.12,13.05,43.15l.06-.06h643.25c13.83-15.3,23.54-34.34,27.46-55.43,1.22-6.75,1.86-13.7,1.86-20.77,0-3.67-.19-7.27-.58-10.8-1.35-2.44-2.77-5.08-4.24-7.72-9.32-16.59-20.32-35.37-20.32-35.37-2.57,46.3-27.59,76.46-91.25,78.65-4.95.19-10.22.19-15.69,0h-455.74c-41.16-4.05-54.85-20.45-49.32-45.53,0,0-29.45,2.25-37.49,5.47-8.04,3.22-19.81,42.89-19.81,46.11,0,.71,3.41,1.54,8.75,2.31Z"/>
        </g>
        <g class="cls-7">
          <path class="cls-10" d="m416.84,2326.34c3.79,3.47,9,8.42,13.5,13.18,14.79-20,35.43-35.3,59.29-44.31,8.94,19.1,45.85,10.74,48.74-9h.96c32.54,0,62.31,11.64,85.4,31,8.04,6.82,19.93,5.08,26.69-3.09,14.15-17.04,35.5-27.91,59.42-27.91,28.29,0,53.05,15.18,66.49,37.88,5.98,10.16,19.94,11.57,27.97,2.89,20.71-22.44,50.48-36.53,83.47-36.53,56.91,0,104.11,41.93,112.34,96.65.84-5.47,1.22-11.06,1.22-16.78,0-62.76-50.87-113.63-113.56-113.63-32.99,0-62.76,14.08-83.47,36.53-8.04,8.68-21.99,7.27-27.97-2.89-13.44-22.7-38.2-37.88-66.49-37.88-23.92,0-45.27,10.87-59.42,27.91-6.75,8.17-18.65,9.9-26.69,3.09-23.09-19.36-52.86-31-85.4-31-47.52,0-89.26,24.95-112.73,62.51-2.7,4.37-5.98,8.17-9.77,11.38Z"/>
        </g>
        <path class="cls-21" d="m329.74,2460.78c-.33,0-.66,0-.99-.03-4.12-.29-7.94-2.32-10.42-5.62-13.18-17.54-18.54-39.36-15.08-61.43h0c5.21-33.2,30.86-59.78,63.82-66.14,4.05-.78,8.14-1.26,12.16-1.44,15.21-.68,28.4-7.67,35.29-18.69,27.09-43.35,73.76-69.24,124.83-69.24,34.57,0,68.14,12.21,94.52,34.38.29.24,1.15.93,2.76.83,1.42-.13,2.81-.9,3.81-2.1,17.43-21.04,43.09-33.11,70.41-33.11,32.15,0,62.3,17.2,78.7,44.89.7,1.18,1.71,1.52,2.44,1.6.74.05,1.85-.05,2.82-1.1,24.11-26.14,58.37-41.14,93.98-41.14,70.47,0,127.81,57.36,127.81,127.87,0,31.69-11.72,62.13-32.99,85.74-2.7,2.99-6.55,4.71-10.58,4.71H330.68c-.31.02-.62.03-.94.03Zm7.61-28.52h629.09c14.02-17.61,21.67-39.38,21.67-61.96,0-54.8-44.56-99.38-99.32-99.38-27.68,0-54.3,11.65-73.04,31.97-6.91,7.5-16.67,11.18-26.75,10.12-10.06-1.06-18.79-6.68-23.96-15.42-11.29-19.07-32.05-30.91-54.18-30.91-18.8,0-36.47,8.31-48.47,22.8-5.81,7.01-14.26,11.49-23.19,12.29-8.66.8-17.04-1.85-23.65-7.39-21.26-17.86-48.32-27.7-76.2-27.7-41.19,0-78.83,20.87-100.68,55.84-11.85,18.96-33.6,30.95-58.18,32.05-2.65.12-5.35.44-8.04.95-20.87,4.03-37.77,21.54-41.07,42.58h0c-1.89,12.06.22,23.95,5.95,34.16Z"/>
      </g>
    </g>
  </g>
  <g>
    <rect class="cls-17" x="707.43" y="1795.25" width="2112.57" height="582.36"/>
    <rect class="cls-17" x="707.43" y="1795.25" width="2112.57" height="582.36"/>
    <g class="cls-9">
      <rect class="cls-21" x="707.43" y="1795.25" width="2112.57" height="84.5"/>
    </g>
    <path class="cls-21" d="m2820.01,2391.86H707.44c-7.86,0-14.24-6.38-14.24-14.24v-582.38c0-7.87,6.38-14.24,14.24-14.24h2112.57c7.87,0,14.24,6.38,14.24,14.24v582.38c0,7.87-6.38,14.24-14.24,14.24Zm-2098.33-28.49h2084.08v-553.89H721.69v553.89Z"/>
    <g>
      <path class="cls-20" d="m2859.35,1733.54H667.93l29.67-81.32,127.85-350.35c9.92-27.25,35.84-45.38,64.85-45.38h1746.69c29.01,0,54.88,18.13,64.85,45.38l157.52,431.68Z"/>
      <path class="cls-21" d="m2862.74,1735.91H664.53l158.68-434.86c10.23-28.08,37.18-46.94,67.08-46.94h1746.69c29.85,0,56.8,18.86,67.08,46.94l158.68,434.86Zm-2191.42-4.75h2184.63l-156.35-428.49c-9.59-26.22-34.76-43.83-62.62-43.83H890.29c-27.91,0-53.07,17.61-62.62,43.82l-156.35,428.49Z"/>
    </g>
    <g class="cls-9">
      <path class="cls-21" d="m2859.35,1733.54H667.93l29.67-81.32c1111.35,15.14,1879.47-71.87,2004.23-350.35l157.52,431.68Z"/>
    </g>
    <g class="cls-7">
      <path class="cls-10" d="m2868.83,1738.29h-9.92l-147.59-404.52c-9.92-27.25-35.84-45.38-64.85-45.38H899.83c-29.01,0-54.93,18.13-64.9,45.38l-147.59,404.52h-9.92l157.52-431.68c9.97-27.25,35.89-45.38,64.9-45.38h1746.64c29.01,0,54.93,18.13,64.85,45.38l157.52,431.68Z"/>
    </g>
    <path class="cls-21" d="m2859.34,1747.8c-5.82,0-11.27-3.59-13.38-9.37l-157.51-431.71c-7.86-21.55-28.55-36.02-51.48-36.02H890.3c-22.93,0-43.62,14.47-51.48,36.02l-157.51,431.71c-2.7,7.39-10.87,11.21-18.26,8.5-7.39-2.7-11.19-10.87-8.5-18.26l157.51-431.71c11.95-32.74,43.39-54.74,78.24-54.74h1746.66c34.85,0,66.3,22,78.24,54.74l157.51,431.71c2.7,7.39-1.11,15.57-8.5,18.26-1.61.59-3.26.87-4.88.87Z"/>
    <rect class="cls-10" x="625.06" y="1733.55" width="2277.14" height="84.5" rx="17.88" ry="17.88"/>
    <g class="cls-7">
      <path class="cls-10" d="m2902.22,1756.18v24.12c0-9.87-8.02-17.85-17.9-17.85H642.96c-9.87,0-17.9,7.98-17.9,17.85v-24.12c0-9.87,8.02-17.9,17.9-17.9h2241.36c9.87,0,17.9,8.02,17.9,17.9Z"/>
    </g>
    <path class="cls-21" d="m2884.32,1832.3H642.94c-17.71,0-32.12-14.41-32.12-32.12v-48.74c0-17.71,14.41-32.12,32.12-32.12h2241.38c17.71,0,32.12,14.41,32.12,32.12v48.74c0,17.71-14.41,32.12-32.12,32.12Zm-2241.38-84.5c-2.01,0-3.64,1.63-3.64,3.64v48.74c0,2.01,1.63,3.64,3.64,3.64h2241.38c2,0,3.64-1.63,3.64-3.64v-48.74c0-2.01-1.63-3.64-3.64-3.64H642.94Z"/>
    <rect class="cls-10" x="625.06" y="2362.09" width="2277.14" height="84.5" rx="17.88" ry="17.88"/>
    <g class="cls-7">
      <path class="cls-10" d="m2902.22,2379.97v24.12c0-9.87-8.02-17.85-17.9-17.85H642.96c-9.87,0-17.9,7.98-17.9,17.85v-24.12c0-9.87,8.02-17.9,17.9-17.9h2241.36c9.87,0,17.9,8.02,17.9,17.9Z"/>
    </g>
    <path class="cls-21" d="m2884.32,2460.83H642.94c-17.71,0-32.12-14.41-32.12-32.12v-48.74c0-17.71,14.41-32.12,32.12-32.12h2241.38c17.71,0,32.12,14.41,32.12,32.12v48.74c0,17.71-14.41,32.12-32.12,32.12Zm-2241.38-84.5c-2.01,0-3.64,1.63-3.64,3.64v48.74c0,2.01,1.63,3.64,3.64,3.64h2241.38c2,0,3.64-1.63,3.64-3.64v-48.74c0-2.01-1.63-3.64-3.64-3.64H642.94Z"/>
    <g>
      <polygon class="cls-17" points="2019.13 1122.75 2019.13 1678.99 1492.84 1678.99 1492.84 1122.75 1714.01 981.18 1760.4 951.46 1763.53 949.47 1766.42 951.46 2019.13 1122.75"/>
      <g>
        <path class="cls-11" d="m1757.21,1141.27h0c56.33,0,102.07,45.74,102.07,102.07v94.95h-204.14v-94.95c0-56.33,45.74-102.07,102.07-102.07Z"/>
        <path class="cls-21" d="m1861.66,1340.66h-208.88v-97.32c0-57.59,46.85-104.44,104.44-104.44h0c57.59,0,104.44,46.85,104.44,104.44v97.32Zm-204.13-4.75h199.39v-92.57c0-54.97-44.72-99.7-99.69-99.7s-99.69,44.73-99.69,99.7v92.57Z"/>
      </g>
      <path class="cls-21" d="m1757.21,1141.27h0c56.33,0,102.07,45.74,102.07,102.07v94.95h-204.14v-94.95c0-56.33,45.74-102.07,102.07-102.07Z"/>
      <path class="cls-22" d="m1773.36,1274.95c0,2.9-.71,5.6-1.95,7.98-2.9,5.55-8.73,9.35-15.43,9.35s-12.49-3.8-15.38-9.35c-1.23-2.37-1.95-5.08-1.95-7.98h34.7Z"/>
      <g>
        <path class="cls-23" d="m1861.66,1388.92h-215.21c-13.98,0-25.32-11.34-25.32-25.32h0c0-13.98,11.34-25.32,25.32-25.32h215.21c13.98,0,25.32,11.34,25.32,25.32h0c0,13.98-11.34,25.32-25.32,25.32Z"/>
        <path class="cls-21" d="m1861.66,1391.3h-215.21c-15.27,0-27.69-12.42-27.69-27.7s12.42-27.69,27.69-27.69h215.21c15.27,0,27.69,12.42,27.69,27.69s-12.42,27.7-27.69,27.7Zm-215.21-50.64c-12.65,0-22.95,10.29-22.95,22.94s10.29,22.95,22.95,22.95h215.21c12.65,0,22.94-10.29,22.94-22.95s-10.29-22.94-22.94-22.94h-215.21Z"/>
      </g>
      <g class="cls-7">
        <path class="cls-10" d="m1886.96,1363.59c0,3.37-.67,6.6-1.85,9.54-3.7-9.3-12.82-15.86-23.45-15.86h-215.2c-6.98,0-13.34,2.85-17.94,7.41-2.37,2.37-4.27,5.27-5.55,8.45-1.19-2.94-1.85-6.17-1.85-9.54,0-6.98,2.85-13.29,7.41-17.9,4.6-4.56,10.97-7.41,17.94-7.41h215.2c14,0,25.3,11.35,25.3,25.3Z"/>
      </g>
      <path class="cls-21" d="m1861.66,1400.79h-215.21c-20.51,0-37.19-16.68-37.19-37.19s16.68-37.19,37.19-37.19h215.21c20.51,0,37.19,16.68,37.19,37.19s-16.68,37.19-37.19,37.19Zm-215.21-50.64c-7.42,0-13.45,6.03-13.45,13.45s6.03,13.45,13.45,13.45h215.21c7.42,0,13.45-6.04,13.45-13.45s-6.03-13.45-13.45-13.45h-215.21Z"/>
      <g class="cls-7">
        <path class="cls-21" d="m1773.36,1274.95c0,2.9-.71,5.6-1.95,7.98h-30.81c-1.23-2.37-1.95-5.08-1.95-7.98h34.7Z"/>
      </g>
      <g class="cls-9">
        <path class="cls-21" d="m2019.13,1122.75v95.47l-245.86-166.54c-5.89-3.99-13.58-3.99-19.46,0l-260.96,176.74v-97.42l221.18-149.83,39.78-26.96c2.04-1.38,4.27-2.28,6.6-2.75,1.99-.33,4.04-.38,6.03,0l252.7,171.28Z"/>
      </g>
      <g>
        <rect class="cls-10" x="1748.43" y="1141.41" width="15.1" height="63.14"/>
        <path class="cls-21" d="m1765.9,1206.93h-19.85v-67.89h19.85v67.89Zm-15.1-4.75h10.35v-58.39h-10.35v58.39Z"/>
      </g>
      <path class="cls-22" d="m1813.8,1262.04c0,4.04-1.61,7.69-4.27,10.35s-6.36,4.27-10.4,4.27h-83.84c-8.12,0-14.67-6.55-14.67-14.62,0-4.08,1.61-7.74,4.27-10.4,2.66-2.61,6.31-4.27,10.35-4.27v-15.71c0-22.5,18.23-40.73,40.73-40.73s40.78,18.23,40.78,40.73v15.71h2.37c8.12,0,14.67,6.55,14.67,14.67Z"/>
      <g class="cls-7">
        <path class="cls-21" d="m1813.8,1262.04c0,4.04-1.61,7.69-4.27,10.35s-6.36,4.27-10.4,4.27h-6.74c4.04,0,7.74-1.61,10.4-4.27s4.27-6.31,4.27-10.35c0-8.12-6.55-14.67-14.67-14.67h-2.37v-15.71c0-21.36-16.47-38.88-37.41-40.59,1.09-.1,2.23-.14,3.37-.14,22.5,0,40.78,18.23,40.78,40.73v15.71h2.37c8.12,0,14.67,6.55,14.67,14.67Z"/>
      </g>
      <g class="cls-7">
        <path class="cls-10" d="m1790.3,1209.68c-7.45-8.59-18.47-14-30.76-14-22.5,0-40.73,18.23-40.73,40.73v15.71c-4.03,0-7.69,1.66-10.35,4.27-2.66,2.66-4.27,6.31-4.27,10.4,0,2.23.52,4.32,1.38,6.22-3.04-2.71-4.94-6.6-4.94-10.97,0-4.08,1.61-7.74,4.27-10.4,2.66-2.61,6.31-4.27,10.35-4.27v-15.71c0-22.5,18.23-40.73,40.73-40.73,14.38,0,27.06,7.45,34.32,18.75Z"/>
      </g>
      <path class="cls-21" d="m1859.28,1350.15h-204.13c-6.56,0-11.87-5.32-11.87-11.87v-94.95c0-62.83,51.11-113.94,113.94-113.94h0c62.82,0,113.94,51.11,113.94,113.94v94.95c0,6.55-5.31,11.87-11.87,11.87Zm-192.27-23.74h180.4v-83.08c0-49.74-40.46-90.2-90.2-90.2s-90.2,40.46-90.2,90.2v83.08Z"/>
      <polygon class="cls-21" points="1801.62 1247.97 1715.25 1243.22 1801.62 1238.47 1801.62 1247.97"/>
      <g class="cls-7">
        <path class="cls-21" d="m1763.53,1143.12v24.78c-4.94-1.71-9.97-1.42-15.1.62v-26.96c4.18.09,10.11.85,15.1,1.57Z"/>
      </g>
      <g class="cls-5">
        <path class="cls-10" d="m1747.6,1211.87c2.42,2.29-.82,5.92-5.1,10.45s-7.95,8.24-10.37,5.96c-2.42-2.29-.93-7.81,3.35-12.34s9.7-6.35,12.12-4.06Z"/>
      </g>
      <path class="cls-21" d="m2019.11,1693.25h-526.25c-7.86,0-14.24-6.38-14.24-14.24v-556.26c0-4.85,2.47-9.38,6.56-12l270.67-173.28c4.79-3.07,10.96-2.99,15.67.21l255.58,173.28c3.91,2.65,6.25,7.07,6.25,11.79v556.26c0,7.87-6.38,14.24-14.24,14.24Zm-512.01-28.49h497.76v-534.47l-241.56-163.77-256.21,164.01v534.22Z"/>
      <path class="cls-10" d="m2052.22,1191.29l-282.3-191.24c-5.89-3.99-13.62-3.99-19.51,0l-282.3,191.24c-7.95,5.39-18.77,3.31-24.15-4.64l-25.76-38.02c-5.39-7.95-3.31-18.77,4.64-24.15l327.57-221.9c5.89-3.99,13.62-3.99,19.51,0l327.57,221.9c7.95,5.39,10.03,16.2,4.64,24.15l-25.76,38.02c-5.39,7.95-16.2,10.03-24.15,4.64Z"/>
      <g class="cls-7">
        <path class="cls-10" d="m2105.48,1145.68l-5.7,8.36-326.52-221.18c-5.89-4.04-13.58-4.04-19.46,0l-326.52,221.18-5.7-8.36c-5.41-7.98-3.32-18.8,4.65-24.16l327.57-221.89c5.89-4.04,13.58-4.04,19.46,0l327.57,221.89c7.98,5.36,10.06,16.19,4.65,24.16Z"/>
      </g>
      <path class="cls-21" d="m1461.78,1205.56c-2,0-4.03-.19-6.04-.58-8.3-1.6-15.48-6.33-20.22-13.33l-25.76-38.02c-4.74-6.99-6.47-15.41-4.88-23.72,1.6-8.3,6.33-15.48,13.33-20.21l327.56-221.9c10.78-7.31,24.71-7.3,35.49,0l327.56,221.9c6.99,4.74,11.73,11.92,13.32,20.21,1.59,8.3-.14,16.72-4.88,23.72l-25.75,38.01c-4.74,7-11.92,11.73-20.22,13.33-8.31,1.59-16.73-.14-23.72-4.88l-282.3-191.24c-1.07-.72-2.46-.72-3.54,0l-282.3,191.24c-5.3,3.59-11.41,5.45-17.68,5.45Zm301.75-225.75c6.18,0,12.35,1.83,17.74,5.47l282.3,191.24h0c.89.61,1.77.6,2.36.49.58-.11,1.41-.43,2.01-1.33l25.76-38.02c.61-.89.6-1.78.49-2.36-.11-.59-.43-1.41-1.32-2.01l-327.57-221.9c-1.07-.73-2.46-.73-3.53,0l-327.57,221.91c-.89.61-1.21,1.43-1.33,2.01-.11.58-.12,1.46.48,2.36l25.76,38.02c.61.89,1.43,1.22,2.01,1.33.58.11,1.46.12,2.36-.48l282.3-191.25c5.39-3.65,11.57-5.47,17.74-5.47Z"/>
      <polygon class="cls-17" points="2184.48 1826.16 2184.48 2361 1342.58 2361 1342.58 1826.16 1763.53 1544.45 2184.48 1826.16"/>
      <path class="cls-21" d="m2184.46,2375.26h-841.86c-7.87,0-14.24-6.38-14.24-14.24v-534.87c0-4.75,2.37-9.19,6.32-11.84l420.93-281.67c4.79-3.21,11.05-3.21,15.84,0l420.93,281.67c3.95,2.64,6.32,7.08,6.32,11.84v534.87c0,7.87-6.38,14.24-14.24,14.24Zm-827.62-28.49h813.38v-513.02l-406.69-272.14-406.69,272.14v513.02Z"/>
      <g class="cls-9">
        <path class="cls-21" d="m2184.48,1826.16v77.43l-411.21-278.53c-5.89-3.99-13.58-3.99-19.46,0l-411.22,278.53v-77.43l420.95-281.71,420.95,281.71Z"/>
      </g>
      <rect class="cls-10" x="1272.97" y="2361.01" width="981.12" height="85.45"/>
      <g class="cls-7">
        <rect class="cls-10" x="1272.99" y="2366.53" width="981.08" height="22.17"/>
      </g>
      <path class="cls-22" d="m1568.41,1935.08h390.23c22.66,0,41.06,18.4,41.06,41.06v384.87h-472.36v-384.87c0-22.66,18.4-41.06,41.06-41.06Z"/>
      <g class="cls-7">
        <path class="cls-10" d="m1994.77,1957.41c-5.22-2.42-11.01-3.75-17.14-3.75h-390.23c-22.69,0-41.06,18.42-41.06,41.06v364.69h-20.18v-384.87c0-22.64,18.37-41.06,41.06-41.06h390.23c16.57,0,30.81,9.83,37.31,23.93Z"/>
      </g>
      <g>
        <rect class="cls-18" x="1763.53" y="1982.55" width="188.71" height="378.46"/>
        <path class="cls-21" d="m1954.61,2363.39h-193.46v-383.21h193.46v383.21Zm-188.71-4.75h183.96v-373.72h-183.96v373.72Z"/>
      </g>
      <g>
        <rect class="cls-18" x="1574.82" y="1982.55" width="188.71" height="378.46"/>
        <path class="cls-21" d="m1765.9,2363.39h-193.45v-383.21h193.45v383.21Zm-188.71-4.75h183.96v-373.72h-183.96v373.72Z"/>
      </g>
      <path class="cls-21" d="m2254.09,2460.71h-981.12c-7.86,0-14.24-6.38-14.24-14.24v-85.45c0-7.87,6.38-14.24,14.24-14.24h981.12c7.87,0,14.24,6.38,14.24,14.24v85.45c0,7.87-6.38,14.24-14.24,14.24Zm-966.88-28.49h952.63v-56.96h-952.63v56.96Z"/>
      <path class="cls-21" d="m1999.71,2372.88h-472.36c-6.56,0-11.87-5.32-11.87-11.87v-384.87c0-29.19,23.75-52.93,52.93-52.93h390.23c29.19,0,52.93,23.75,52.93,52.93v384.87c0,6.55-5.31,11.87-11.87,11.87Zm-460.49-23.74h448.62v-373c0-16.1-13.1-29.19-29.2-29.19h-390.23c-16.1,0-29.2,13.1-29.2,29.19v373Z"/>
      <path class="cls-21" d="m1952.24,2370.51h-377.41c-5.24,0-9.49-4.25-9.49-9.5v-378.46c0-5.24,4.25-9.5,9.49-9.5h377.41c5.24,0,9.49,4.25,9.49,9.5v378.46c0,5.24-4.25,9.5-9.49,9.5Zm-367.92-18.99h358.42v-359.47h-358.42v359.47Z"/>
      <g class="cls-9">
        <path class="cls-21" d="m1952.24,1982.54v30.34h-312.65c-17.86,0-32.34,14.48-32.34,32.34v315.78h-32.42v-378.46h377.41Z"/>
      </g>
      <path class="cls-21" d="m1763.53,2368.13c-3.93,0-7.12-3.19-7.12-7.12v-378.46c0-3.93,3.19-7.12,7.12-7.12s7.12,3.19,7.12,7.12v378.46c0,3.93-3.19,7.12-7.12,7.12Z"/>
      <path class="cls-21" d="m1822.87,2217.8h0c-7.43,0-13.45-6.02-13.45-13.45v-56.18c0-7.43,6.02-13.45,13.45-13.45h0c7.43,0,13.45,6.02,13.45,13.45v56.18c0,7.43-6.02,13.45-13.45,13.45Z"/>
      <rect class="cls-21" x="1690.74" y="2134.72" width="26.9" height="83.08" rx="13.45" ry="13.45"/>
      <g>
        <circle class="cls-10" cx="1763.53" cy="1773.67" r="94.66" transform="translate(-737.65 1766.5) rotate(-45)"/>
        <path class="cls-21" d="m1763.53,1870.71c-53.51,0-97.04-43.53-97.04-97.04s43.53-97.04,97.04-97.04,97.04,43.53,97.04,97.04-43.53,97.04-97.04,97.04Zm0-189.33c-50.89,0-92.29,41.4-92.29,92.29s41.4,92.29,92.29,92.29,92.29-41.4,92.29-92.29-41.4-92.29-92.29-92.29Z"/>
      </g>
      <rect class="cls-17" x="1815.12" y="789.84" width="86.96" height="86.96"/>
      <g class="cls-7">
        <rect class="cls-10" x="1815.13" y="789.86" width="86.97" height="22.74"/>
      </g>
      <path class="cls-21" d="m1902.08,888.67h-86.96c-6.56,0-11.87-5.32-11.87-11.87v-86.96c0-6.55,5.31-11.87,11.87-11.87h86.96c6.56,0,11.87,5.32,11.87,11.87v86.96c0,6.55-5.31,11.87-11.87,11.87Zm-75.09-23.74h63.23v-63.22h-63.23v63.22Z"/>
      <g class="cls-9">
        <path class="cls-21" d="m1875.19,1831.71c-14.28,50.28-66.64,79.48-116.92,65.2-32.24-9.16-55.83-34.02-64.81-63.91,10.45,9.43,23.14,16.69,37.57,20.79,50.28,14.28,102.63-14.87,116.92-65.2,5.12-18.04,4.64-36.34-.39-53.01,25.88,23.39,37.81,60.29,27.63,96.13Z"/>
      </g>
      <g class="cls-9">
        <path class="cls-21" d="m1847.84,1730.64c-17.14-17.04-40.73-27.58-66.8-27.58-52.32,0-94.66,42.39-94.66,94.66,0,15.48,3.7,30.1,10.35,43.01-17.23-17.14-27.87-40.87-27.87-67.08,0-52.27,42.39-94.66,94.66-94.66,36.79,0,68.69,20.98,84.31,51.65Z"/>
      </g>
      <path class="cls-21" d="m1763.53,1880.2c-58.74,0-106.53-47.79-106.53-106.53s47.79-106.53,106.53-106.53,106.53,47.79,106.53,106.53-47.79,106.53-106.53,106.53Zm0-189.33c-45.65,0-82.79,37.14-82.79,82.79s37.14,82.79,82.79,82.79,82.8-37.14,82.8-82.79-37.14-82.79-82.8-82.79Z"/>
      <path class="cls-21" d="m1747.02,1803.99c-1.43,0-2.87-.42-4.12-1.32-3.2-2.28-3.95-6.72-1.67-9.93l15.19-21.34v-41.05c0-3.93,3.19-7.12,7.12-7.12s7.12,3.19,7.12,7.12v43.32c0,1.48-.46,2.92-1.32,4.13l-16.51,23.2c-1.39,1.95-3.58,2.99-5.81,2.99Z"/>
      <g>
        <path class="cls-23" d="m2315.17,1932.09l-541.88-367.08c-5.89-3.99-13.62-3.99-19.51,0l-541.88,367.08c-7.95,5.39-18.77,3.31-24.15-4.64l-25.76-38.02c-5.39-7.95-3.31-18.77,4.64-24.15l587.15-397.75c5.89-3.99,13.62-3.99,19.51,0l587.15,397.75c7.95,5.39,10.03,16.2,4.64,24.15l-25.76,38.02c-5.39,7.95-16.2,10.03-24.15,4.64Z"/>
        <path class="cls-21" d="m2324.89,1937.45c-3.81,0-7.67-1.1-11.05-3.4l-541.88-367.08c-5.11-3.46-11.73-3.46-16.85,0l-541.88,367.08c-9.02,6.11-21.34,3.74-27.45-5.27l-25.76-38.02c-2.96-4.37-4.04-9.63-3.05-14.82,1-5.19,3.95-9.67,8.33-12.63l587.15-397.74c6.73-4.57,15.44-4.57,22.17,0l587.15,397.75c4.37,2.96,7.33,7.44,8.33,12.63,1,5.19-.09,10.45-3.05,14.82l-25.76,38.02c-3.82,5.63-10.05,8.67-16.39,8.67Zm-8.39-7.32c6.86,4.64,16.21,2.84,20.86-4.01l25.76-38.02c2.25-3.32,3.07-7.31,2.31-11.25-.76-3.94-3-7.35-6.32-9.6l-587.15-397.75c-5.11-3.46-11.73-3.46-16.85,0l-587.15,397.75c-3.32,2.25-5.57,5.66-6.33,9.6-.76,3.94.06,7.93,2.31,11.25l25.76,38.02c4.64,6.86,14,8.66,20.86,4.01l541.88-367.08c6.73-4.57,15.44-4.57,22.17,0l541.88,367.09Z"/>
      </g>
      <g class="cls-7">
        <path class="cls-10" d="m2365.26,1886.67l-6.5,9.59-585.3-396.5c-5.89-3.99-13.58-3.99-19.46,0l-585.3,396.5-6.5-9.59c-5.41-7.98-3.32-18.8,4.65-24.16l587.15-397.73c5.89-4.04,13.58-4.04,19.46,0l587.15,397.73c7.98,5.36,10.06,16.19,4.65,24.16Z"/>
      </g>
      <path class="cls-21" d="m2324.87,1949.31c-6.11,0-12.27-1.76-17.69-5.43h0l-541.88-367.08c-1.07-.73-2.46-.72-3.53,0l-541.88,367.08c-14.43,9.78-34.15,5.99-43.93-8.45l-25.76-38.02c-4.74-6.99-6.47-15.41-4.88-23.72,1.6-8.3,6.33-15.48,13.33-20.21l587.15-397.75c10.78-7.29,24.7-7.29,35.48,0l587.15,397.75c6.99,4.74,11.73,11.92,13.32,20.21,1.59,8.3-.14,16.72-4.88,23.72l-25.75,38.02c-6.11,9.01-16.09,13.88-26.24,13.88Zm-1.72-29.02c1.44.97,3.4.6,4.38-.84l25.75-38.02c.61-.89.6-1.78.49-2.36-.11-.59-.43-1.41-1.32-2.01l-587.15-397.75c-1.07-.72-2.46-.72-3.53,0l-587.15,397.75c-.89.61-1.22,1.43-1.33,2.01-.11.59-.12,1.46.48,2.35l25.76,38.03c.97,1.44,2.94,1.81,4.38.84l541.88-367.08c10.78-7.29,24.7-7.29,35.48,0l541.89,367.08h0Z"/>
      <path class="cls-21" d="m1763.69,910.85c-7.87,0-14.24-6.38-14.24-14.24v-171.45c0-7.87,6.38-14.24,14.24-14.24s14.24,6.38,14.24,14.24v171.45c0,7.87-6.38,14.24-14.24,14.24Z"/>
      <rect class="cls-17" x="1763.69" y="754.23" width="86.96" height="86.96"/>
      <g class="cls-7">
        <rect class="cls-10" x="1763.67" y="754.26" width="86.97" height="22.74"/>
      </g>
      <circle class="cls-21" cx="1763.69" cy="725.16" r="29.08" transform="translate(3.81 1459.51) rotate(-45)"/>
      <path class="cls-21" d="m1850.65,853.07h-86.96c-6.56,0-11.87-5.32-11.87-11.87v-86.96c0-6.55,5.31-11.87,11.87-11.87h86.96c6.56,0,11.87,5.32,11.87,11.87v86.96c0,6.55-5.31,11.87-11.87,11.87Zm-75.09-23.74h63.23v-63.22h-63.23v63.22Z"/>
    </g>
  </g>
  <path class="cls-21" d="m3357.95,2452.13c-66.43,8.6-132.86,10.66-199.29,11.72-33.21.58-66.43.7-99.64.54-33.22.04-66.43-.35-99.64-.63-66.43-.51-132.86-.63-199.29-.55H567.9l-99.64.03-49.82.4-49.82.69c-66.43.2-132.86-.3-199.29-12.19-3.06-.55-5.09-3.47-4.55-6.53.43-2.38,2.3-4.14,4.55-4.55,66.43-11.89,132.86-12.39,199.29-12.19l49.82.69,49.82.4,99.64.03h2192.18c66.43.08,132.86-.05,199.29-.55,33.22-.28,66.43-.68,99.64-.63,33.21-.15,66.43-.03,99.64.55,66.43,1.06,132.86,3.12,199.29,11.72,3.06.4,5.22,3.2,4.82,6.25-.33,2.57-2.37,4.5-4.82,4.82Z"/>
  <g class="cls-9">
    <path class="cls-21" d="m3527.27,2472.79c0,34.37-789.6,62.29-1763.61,62.29S0,2507.16,0,2472.79c0-9.34,58.43-18.22,163.07-26.2h3201.14c104.64,7.98,163.07,16.87,163.07,26.2Z"/>
  </g>
  <g>
    <g>
      <rect class="cls-12" x="2412.03" y="1962.51" width="247.84" height="247.84" rx="25.2" ry="25.2"/>
      <path class="cls-21" d="m2634.68,2212.73h-197.45c-15.2,0-27.57-12.37-27.57-27.57v-197.46c0-15.2,12.37-27.57,27.57-27.57h197.45c15.2,0,27.57,12.37,27.57,27.57v197.46c0,15.2-12.37,27.57-27.57,27.57Zm-197.45-247.85c-12.58,0-22.82,10.24-22.82,22.82v197.46c0,12.58,10.24,22.82,22.82,22.82h197.45c12.58,0,22.82-10.24,22.82-22.82v-197.46c0-12.58-10.24-22.82-22.82-22.82h-197.45Z"/>
    </g>
    <g class="cls-7">
      <path class="cls-10" d="m2658.69,1980.02h-210.45c-9.68,0-17.52,7.83-17.52,17.52v211.92c-10.78-2.8-18.7-12.63-18.7-24.31v-197.44c0-13.91,11.3-25.21,25.21-25.21h197.44c11.25,0,20.75,7.36,24.02,17.52Z"/>
    </g>
    <path class="cls-21" d="m2634.68,2222.22h-197.45c-20.44,0-37.06-16.63-37.06-37.07v-197.46c0-20.43,16.63-37.07,37.06-37.07h197.45c20.44,0,37.06,16.63,37.06,37.07v197.46c0,20.43-16.63,37.07-37.06,37.07Zm-197.45-247.85c-7.35,0-13.33,5.98-13.33,13.33v197.46c0,7.35,5.98,13.33,13.33,13.33h197.45c7.35,0,13.33-5.98,13.33-13.33v-197.46c0-7.35-5.98-13.33-13.33-13.33h-197.45Z"/>
    <g>
      <rect class="cls-19" x="2454.75" y="2005.23" width="162.39" height="162.39" transform="translate(4622.38 -449.52) rotate(90)"/>
      <path class="cls-21" d="m2619.52,2170h-167.14v-167.14h167.14v167.14Zm-162.39-4.75h157.65v-157.65h-157.65v157.65Z"/>
    </g>
    <g class="cls-7">
      <path class="cls-10" d="m2636.14,2036.89v134.63c0,7.69-6.22,13.91-13.86,13.91h-134.64c-7.69,0-13.91-6.22-13.91-13.91v-3.89h143.42v-144.6h5.13c7.64,0,13.86,6.22,13.86,13.86Z"/>
    </g>
    <path class="cls-21" d="m2617.14,2174.75h-162.39c-3.93,0-7.12-3.19-7.12-7.12v-162.4c0-3.93,3.19-7.12,7.12-7.12h162.39c3.93,0,7.12,3.19,7.12,7.12v162.4c0,3.93-3.19,7.12-7.12,7.12Zm-155.27-14.24h148.15v-148.16h-148.15v148.16Z"/>
    <path class="cls-21" d="m2535.95,2174.75c-3.93,0-7.12-3.19-7.12-7.12v-162.4c0-3.93,3.19-7.12,7.12-7.12s7.12,3.19,7.12,7.12v162.4c0,3.93-3.19,7.12-7.12,7.12Z"/>
    <path class="cls-21" d="m2617.15,2093.55h-162.4c-3.93,0-7.12-3.19-7.12-7.12s3.19-7.12,7.12-7.12h162.4c3.93,0,7.12,3.19,7.12,7.12s-3.19,7.12-7.12,7.12Z"/>
    <g>
      <rect class="cls-11" x="2361.98" y="2210.35" width="329.94" height="50.96" rx="25.48" ry="25.48"/>
      <path class="cls-21" d="m2666.43,2263.69h-278.97c-15.36,0-27.86-12.5-27.86-27.85s12.5-27.86,27.86-27.86h278.97c15.36,0,27.85,12.5,27.85,27.86s-12.5,27.85-27.85,27.85Zm-278.97-50.96c-12.74,0-23.11,10.37-23.11,23.11s10.37,23.11,23.11,23.11h278.97c12.74,0,23.11-10.37,23.11-23.11s-10.37-23.11-23.11-23.11h-278.97Z"/>
    </g>
    <g>
      <rect class="cls-23" x="2370.98" y="2210.35" width="329.94" height="50.96" rx="25.48" ry="25.48"/>
      <path class="cls-21" d="m2675.44,2263.69h-278.98c-15.36,0-27.85-12.5-27.85-27.85s12.5-27.86,27.85-27.86h278.98c15.36,0,27.85,12.5,27.85,27.86s-12.5,27.85-27.85,27.85Zm-278.98-50.96c-12.74,0-23.11,10.37-23.11,23.11s10.37,23.11,23.11,23.11h278.98c12.74,0,23.11-10.37,23.11-23.11s-10.37-23.11-23.11-23.11h-278.98Z"/>
    </g>
    <g class="cls-7">
      <path class="cls-10" d="m2700.94,2235.86c0,3.18-.57,6.27-1.71,9.07-3.66-9.59-12.96-16.38-23.78-16.38h-279c-7.03,0-13.39,2.85-17.99,7.45-2.52,2.52-4.46,5.55-5.74,8.92-1.14-2.8-1.71-5.89-1.71-9.07,0-7.07,2.85-13.43,7.45-18.04,4.6-4.6,10.97-7.45,17.99-7.45h279c14.05,0,25.49,11.39,25.49,25.49Z"/>
    </g>
    <path class="cls-21" d="m2675.44,2273.19h-278.98c-20.59,0-37.35-16.76-37.35-37.35s16.76-37.35,37.35-37.35h278.98c20.59,0,37.35,16.76,37.35,37.35s-16.76,37.35-37.35,37.35Zm-278.98-50.96c-7.5,0-13.61,6.1-13.61,13.61s6.11,13.61,13.61,13.61h278.98c7.5,0,13.61-6.1,13.61-13.61s-6.11-13.61-13.61-13.61h-278.98Z"/>
    <g class="cls-8">
      <polygon class="cls-15" points="2775.3 2377.61 2473.73 2377.61 2390.35 2260.55 2691.92 2260.55 2775.3 2377.61"/>
    </g>
  </g>
  <g>
    <path class="cls-10" d="m2567.87,478.25c-13.93-4.7-28.89-7.18-44.4-7.18-78.29,0-141.75,63.46-141.75,141.75,0,14.36,2.11,28.17,6.09,41.2h582.93c-75.02-114.86-165.96-218.37-269.74-307.36-62.48,20.39-112.05,69.4-133.14,131.58Z"/>
    <path class="cls-10" d="m672.53,879.02h246.41c3.62-11.83,5.53-24.38,5.53-37.42,0-71.11-57.63-128.74-128.74-128.74-14.08,0-27.67,2.25-40.32,6.52-22.96-67.7-83.08-118.23-156.04-127.36-64.68,88.56-119.56,184.73-162.91,286.99h236.06Z"/>
  </g>
  <g>
    <g>
      <rect class="cls-12" x="851.48" y="1962.51" width="247.84" height="247.84" rx="25.2" ry="25.2"/>
      <path class="cls-21" d="m1074.13,2212.73h-197.45c-15.2,0-27.57-12.37-27.57-27.57v-197.46c0-15.2,12.37-27.57,27.57-27.57h197.45c15.2,0,27.57,12.37,27.57,27.57v197.46c0,15.2-12.37,27.57-27.57,27.57Zm-197.45-247.85c-12.58,0-22.82,10.24-22.82,22.82v197.46c0,12.58,10.24,22.82,22.82,22.82h197.45c12.58,0,22.82-10.24,22.82-22.82v-197.46c0-12.58-10.24-22.82-22.82-22.82h-197.45Z"/>
    </g>
    <g class="cls-7">
      <path class="cls-10" d="m1098.14,1980.02h-210.45c-9.68,0-17.52,7.83-17.52,17.52v211.92c-10.78-2.8-18.7-12.63-18.7-24.31v-197.44c0-13.91,11.3-25.21,25.21-25.21h197.44c11.25,0,20.75,7.36,24.02,17.52Z"/>
    </g>
    <path class="cls-21" d="m1074.13,2222.22h-197.45c-20.44,0-37.06-16.63-37.06-37.07v-197.46c0-20.43,16.63-37.07,37.06-37.07h197.45c20.44,0,37.07,16.63,37.07,37.07v197.46c0,20.43-16.63,37.07-37.07,37.07Zm-197.45-247.85c-7.35,0-13.33,5.98-13.33,13.33v197.46c0,7.35,5.98,13.33,13.33,13.33h197.45c7.35,0,13.33-5.98,13.33-13.33v-197.46c0-7.35-5.98-13.33-13.33-13.33h-197.45Z"/>
    <g>
      <rect class="cls-19" x="894.21" y="2005.23" width="162.39" height="162.39" transform="translate(3061.83 1111.03) rotate(90)"/>
      <path class="cls-21" d="m1058.97,2170h-167.14v-167.14h167.14v167.14Zm-162.39-4.75h157.64v-157.65h-157.64v157.65Z"/>
    </g>
    <g class="cls-7">
      <path class="cls-10" d="m1075.59,2036.89v134.63c0,7.69-6.22,13.91-13.86,13.91h-134.64c-7.69,0-13.91-6.22-13.91-13.91v-3.89h143.42v-144.6h5.13c7.64,0,13.86,6.22,13.86,13.86Z"/>
    </g>
    <path class="cls-21" d="m1056.6,2174.75h-162.39c-3.93,0-7.12-3.19-7.12-7.12v-162.4c0-3.93,3.19-7.12,7.12-7.12h162.39c3.93,0,7.12,3.19,7.12,7.12v162.4c0,3.93-3.19,7.12-7.12,7.12Zm-155.27-14.24h148.15v-148.16h-148.15v148.16Z"/>
    <path class="cls-21" d="m975.4,2174.75c-3.93,0-7.12-3.19-7.12-7.12v-162.4c0-3.93,3.19-7.12,7.12-7.12s7.12,3.19,7.12,7.12v162.4c0,3.93-3.19,7.12-7.12,7.12Z"/>
    <path class="cls-21" d="m1056.6,2093.55h-162.4c-3.93,0-7.12-3.19-7.12-7.12s3.19-7.12,7.12-7.12h162.4c3.93,0,7.12,3.19,7.12,7.12s-3.19,7.12-7.12,7.12Z"/>
    <g>
      <rect class="cls-11" x="801.43" y="2210.35" width="329.94" height="50.96" rx="25.48" ry="25.48"/>
      <path class="cls-21" d="m1105.89,2263.69h-278.98c-15.36,0-27.86-12.5-27.86-27.85s12.5-27.86,27.86-27.86h278.98c15.36,0,27.86,12.5,27.86,27.86s-12.5,27.85-27.86,27.85Zm-278.98-50.96c-12.74,0-23.11,10.37-23.11,23.11s10.37,23.11,23.11,23.11h278.98c12.74,0,23.11-10.37,23.11-23.11s-10.37-23.11-23.11-23.11h-278.98Z"/>
    </g>
    <g>
      <rect class="cls-23" x="810.43" y="2210.35" width="329.94" height="50.96" rx="25.48" ry="25.48"/>
      <path class="cls-21" d="m1114.89,2263.69h-278.97c-15.36,0-27.86-12.5-27.86-27.85s12.5-27.86,27.86-27.86h278.97c15.36,0,27.86,12.5,27.86,27.86s-12.5,27.85-27.86,27.85Zm-278.97-50.96c-12.74,0-23.11,10.37-23.11,23.11s10.37,23.11,23.11,23.11h278.97c12.74,0,23.11-10.37,23.11-23.11s-10.37-23.11-23.11-23.11h-278.97Z"/>
    </g>
    <g class="cls-7">
      <path class="cls-10" d="m1140.39,2235.86c0,3.18-.57,6.27-1.71,9.07-3.66-9.59-12.96-16.38-23.78-16.38h-279c-7.03,0-13.39,2.85-17.99,7.45-2.52,2.52-4.46,5.55-5.74,8.92-1.14-2.8-1.71-5.89-1.71-9.07,0-7.07,2.85-13.43,7.45-18.04,4.6-4.6,10.97-7.45,17.99-7.45h279c14.05,0,25.49,11.39,25.49,25.49Z"/>
    </g>
    <path class="cls-21" d="m1114.89,2273.19h-278.97c-20.6,0-37.35-16.76-37.35-37.35s16.76-37.35,37.35-37.35h278.97c20.6,0,37.35,16.76,37.35,37.35s-16.76,37.35-37.35,37.35Zm-278.97-50.96c-7.51,0-13.61,6.1-13.61,13.61s6.11,13.61,13.61,13.61h278.97c7.51,0,13.61-6.1,13.61-13.61s-6.11-13.61-13.61-13.61h-278.97Z"/>
    <g class="cls-4">
      <polygon class="cls-16" points="1214.75 2377.61 913.18 2377.61 829.8 2260.55 1131.37 2260.55 1214.75 2377.61"/>
    </g>
  </g>
</svg>