<?xml version="1.0" encoding="UTF-8"?>
<svg id="objects" xmlns="http://www.w3.org/2000/svg" viewBox="0 0 1471.83 1125.35">
  <defs>
    <style>
      .cls-1 {
        opacity: .3;
      }

      .cls-1, .cls-2 {
        fill: #fff;
      }

      .cls-2 {
        opacity: .5;
      }

      .cls-3 {
        fill: #dadada;
      }

      .cls-4 {
        opacity: .3;
      }

      .cls-4, .cls-5 {
        fill: #390176;
      }
    </style>
  </defs>
  <circle class="cls-5" cx="890.47" cy="562.68" r="157.53"/>
  <path class="cls-5" d="m84.31,298.15h363.59v529.06H84.31c-46.53,0-84.31-37.78-84.31-84.31v-360.45c0-46.53,37.78-84.31,84.31-84.31Z"/>
  <path class="cls-3" d="m862.41,1022.72c0,6.01-.48,11.82-1.41,17.42-3.56,21.76-13.72,40.32-27.85,54.5-36.02,36.17-97.83,43.94-141.93,4.01l-266.13-240.94c-21.44-19.42-33.68-47-33.68-75.94v-438.18c-.01-28.93,12.22-56.52,33.67-75.94L691.21,26.7c40.25-36.44,95.26-33.15,131.94-4.79,19.28,14.9,33.51,36.73,37.85,63.36.92,5.58,1.4,11.38,1.4,17.37v920.08Z"/>
  <path class="cls-4" d="m861,85.27v954.87c-3.56,21.76-13.72,40.32-27.85,54.5-.53.03-1.06.04-1.59.04-16.25,0-29.43-13.18-29.43-29.44V50.12c0-13.33,8.86-24.6,21.02-28.21,19.28,14.9,33.51,36.73,37.85,63.36Z"/>
  <path class="cls-5" d="m1097.13,764.16c-7.53,0-15.08-2.66-21.15-8.06-13.13-11.69-14.29-31.8-2.61-44.93,37.52-42.14,57.54-96.51,56.39-153.11-1.16-56.75-23.57-110.42-63.1-151.12-12.25-12.61-11.95-32.75.66-45,12.61-12.25,32.76-11.95,45,.66,50.79,52.29,79.59,121.25,81.08,194.16,1.49,72.69-24.25,142.56-72.48,196.73-6.29,7.06-15.01,10.66-23.78,10.66Z"/>
  <path class="cls-5" d="m1202.92,882.79c-6.86,0-13.78-2.02-19.84-6.22-15.81-10.98-19.74-32.7-8.76-48.51,57.42-82.73,87.18-176.13,86.06-270.09-1.12-94.11-33.19-187.19-92.76-269.2-11.31-15.58-7.86-37.37,7.72-48.69,15.58-11.31,37.37-7.86,48.69,7.72,68.1,93.75,104.77,200.72,106.06,309.34,1.29,108.54-32.77,215.97-98.5,310.67-6.77,9.75-17.63,14.99-28.67,14.99Z"/>
  <path class="cls-5" d="m1303.18,1012.91c-6.86,0-13.78-2.02-19.84-6.22-15.81-10.98-19.74-32.7-8.76-48.51,42.87-61.77,75.5-127.64,96.97-195.78,21.08-66.89,31.35-135.76,30.53-204.69-.82-68.98-12.74-137.74-35.44-204.35-23.15-67.95-57.45-133.46-101.95-194.73-11.31-15.58-7.86-37.37,7.72-48.69,15.58-11.31,37.37-7.86,48.69,7.72,48.6,66.92,86.13,138.65,111.54,213.21,25.08,73.6,38.25,149.64,39.16,226.01.91,76.33-10.45,152.52-33.75,226.47-23.58,74.84-59.31,147.03-106.19,214.58-6.77,9.75-17.63,14.99-28.67,14.99Z"/>
  <path class="cls-1" d="m53.3,584.16v-194.35c0-20.53,16.64-37.17,37.17-37.17h164.91s-139.23,60.46-202.08,231.51Z"/>
  <rect class="cls-2" x="372.33" y="176.92" width="452.92" height="67.95" rx="33.98" ry="33.98" transform="translate(9.37 446.71) rotate(-41.21)"/>
</svg>