<?xml version="1.0" encoding="UTF-8"?>
<svg id="Layer_1" data-name="Layer 1" xmlns="http://www.w3.org/2000/svg" viewBox="0 0 2031.91 2510.29">
  <defs>
    <style>
      .cls-1 {
        opacity: .45;
      }

      .cls-1, .cls-2, .cls-3, .cls-4 {
        fill: none;
      }

      .cls-5 {
        fill: #fff;
      }

      .cls-2 {
        opacity: .35;
      }

      .cls-6 {
        fill: #c9ccd2;
      }

      .cls-3 {
        opacity: .6;
      }

      .cls-7 {
        fill: #f7c714;
      }

      .cls-8 {
        fill: #000072;
      }

      .cls-4 {
        opacity: .3;
      }
    </style>
  </defs>
  <g>
    <path class="cls-5" d="m1015.96,494.66c-130.25,0-236.2-105.91-236.2-236.08S885.71,22.49,1015.96,22.49s236.21,105.9,236.21,236.08-105.96,236.08-236.21,236.08Zm0-437.56c-111.15,0-201.59,90.39-201.59,201.48s90.43,201.48,201.59,201.48,201.59-90.39,201.59-201.48-90.43-201.48-201.59-201.48Z"/>
    <path class="cls-8" d="m1015.96,517.16c-142.65,0-258.7-116-258.7-258.58S873.31,0,1015.96,0s258.7,116,258.7,258.57-116.05,258.58-258.7,258.58Zm0-437.57c-98.75,0-179.09,80.29-179.09,178.98s80.34,178.99,179.09,178.99,179.09-80.29,179.09-178.99-80.34-178.98-179.09-178.98Z"/>
  </g>
  <rect class="cls-7" x="923.27" y="239.81" width="184.11" height="115.98" rx="32.49" ry="32.49"/>
  <g class="cls-3">
    <path class="cls-5" d="m963.27,297.87c0-9.98,8.1-18.08,18.09-18.08h126.02v-7.5c0-17.94-14.55-32.48-32.5-32.48h-119.11c-17.95,0-32.5,14.54-32.5,32.48v51.02c0,17.94,14.55,32.48,32.5,32.48h7.5v-57.92Z"/>
  </g>
  <path class="cls-8" d="m1074.89,383.29h-119.13c-33.08,0-59.99-26.91-59.99-59.98v-51c0-33.07,26.91-59.98,59.99-59.98h119.13c33.08,0,59.99,26.91,59.99,59.98v51c0,33.07-26.91,59.98-59.99,59.98Zm-119.13-115.98c-2.75,0-5,2.24-5,5v51c0,2.76,2.24,5,5,5h119.13c2.75,0,5-2.24,5-5v-51c0-2.76-2.24-5-5-5h-119.13Z"/>
  <g>
    <rect class="cls-7" x="953.4" y="355.79" width="121.62" height="199.09"/>
    <path class="cls-8" d="m1075.02,582.37h-121.62c-15.19,0-27.5-12.31-27.5-27.49v-199.09c0-15.18,12.31-27.49,27.5-27.49h121.62c15.19,0,27.5,12.31,27.5,27.49v199.09c0,15.18-12.31,27.49-27.5,27.49Zm-94.13-54.99h66.63v-144.1h-66.63v144.1Z"/>
  </g>
  <g class="cls-4">
    <rect class="cls-8" x="953.4" y="355.79" width="121.62" height="199.09"/>
  </g>
  <path class="cls-7" d="m1701.08,643.07l128.78,126.87c12.68,12.49,33.08,12.34,45.58-.33l63.27-64.15c12.51-12.68,12.36-33.1-.33-45.6l-128.78-126.87c-12.68-12.49-33.08-12.34-45.58.33l-63.27,64.15c-12.51,12.68-12.36,33.1.33,45.6Z"/>
  <g class="cls-3">
    <path class="cls-5" d="m1710.6,652.45l53.41-54.16c12.5-12.68,32.92-12.82,45.6-.33l119.25,117.48,9.86-10c12.5-12.68,12.36-33.08-.33-45.58l-128.78-126.87c-12.68-12.5-33.1-12.35-45.6.33l-63.27,64.15c-12.5,12.68-12.36,33.08.33,45.58l9.53,9.39Z"/>
  </g>
  <path class="cls-8" d="m1852.48,810.13c-16.03,0-32.06-6.04-44.35-18.14l-128.77-126.87h0c-12.03-11.85-18.72-27.67-18.85-44.56-.12-16.88,6.34-32.81,18.2-44.83l63.27-64.16c24.46-24.8,64.54-25.08,89.35-.64l128.77,126.87c12.03,11.85,18.72,27.67,18.85,44.56.12,16.88-6.34,32.81-18.2,44.83l-63.27,64.16c-12.34,12.51-28.67,18.79-45,18.79Zm-65.5-255.47c-.33,0-.66.13-.92.38l-63.27,64.15c-.11.11-.37.38-.37.91,0,.53.27.79.38.91h0s128.77,126.87,128.77,126.87c.5.49,1.32.49,1.82-.02l63.27-64.15c.11-.11.37-.38.37-.91,0-.53-.27-.79-.38-.91l-128.77-126.87c-.25-.24-.58-.37-.9-.37Z"/>
  <g>
    <rect class="cls-7" x="1635.54" y="678.6" width="121.59" height="199.14" transform="translate(2358.61 2523.02) rotate(-135.43)"/>
    <path class="cls-8" d="m1669.73,922.68c-7.85,0-15.69-2.96-21.72-8.9l-86.62-85.33c-5.85-5.76-9.17-13.62-9.23-21.83-.06-8.21,3.15-16.11,8.92-21.96l139.83-141.78c12.01-12.17,31.59-12.31,43.76-.31l86.62,85.33c5.85,5.76,9.17,13.62,9.23,21.83.06,8.21-3.15,16.11-8.92,21.96l-139.83,141.78c-6.06,6.14-14.05,9.22-22.04,9.22Zm-42.83-116.6l42.51,41.88,96.36-97.71-42.51-41.88-96.36,97.71Z"/>
  </g>
  <g class="cls-4">
    <rect class="cls-8" x="1635.54" y="678.6" width="121.59" height="199.14" transform="translate(2358.61 2523.02) rotate(-135.43)"/>
  </g>
  <path class="cls-7" d="m318.92,649.5l-128.78,126.87c-12.68,12.49-33.08,12.34-45.58-.33l-63.27-64.15c-12.51-12.68-12.36-33.1.33-45.6l128.78-126.87c12.68-12.49,33.08-12.34,45.58.33l63.27,64.15c12.51,12.68,12.36,33.1-.33,45.6Z"/>
  <g class="cls-3">
    <path class="cls-5" d="m141.28,716.88c-12.5-12.68-12.36-33.08.33-45.58l123.81-121.98-9.43-9.56c-12.5-12.68-32.92-12.82-45.6-.33l-128.78,126.87c-12.69,12.5-12.83,32.9-.33,45.58l63.27,64.15c12.5,12.68,32.92,12.82,45.6.33l4.97-4.89-53.84-54.59Z"/>
  </g>
  <path class="cls-8" d="m167.52,816.57c-16.33,0-32.65-6.27-45-18.78l-63.27-64.16c-11.86-12.02-18.32-27.94-18.2-44.83.12-16.88,6.81-32.71,18.84-44.56l128.77-126.87c24.8-24.44,64.89-24.15,89.35.64l63.27,64.16c11.86,12.02,18.32,27.94,18.2,44.83-.12,16.88-6.81,32.71-18.84,44.56,0,0,0,0,0,0l-128.78,126.87c-12.29,12.1-28.32,18.14-44.35,18.14Zm65.5-255.47c-.33,0-.65.12-.9.37l-128.77,126.87c-.11.11-.38.38-.38.91,0,.53.26.8.37.91l63.27,64.16c.5.51,1.32.51,1.82.01l128.78-126.87h0c.12-.11.38-.37.39-.91,0-.53-.26-.8-.37-.91l-63.27-64.15c-.25-.25-.58-.38-.91-.38Zm85.9,88.4h.05-.05Z"/>
  <g>
    <rect class="cls-7" x="262.87" y="685.03" width="121.59" height="199.14" transform="translate(-457.55 452.84) rotate(-44.57)"/>
    <path class="cls-8" d="m350.28,929.12c-7.99,0-15.98-3.08-22.04-9.22l-139.83-141.79c-5.77-5.85-8.97-13.75-8.92-21.96.06-8.21,3.38-16.07,9.23-21.83l86.62-85.33c12.17-11.99,31.76-11.86,43.76.32l139.83,141.78c5.77,5.85,8.97,13.75,8.92,21.96-.06,8.21-3.38,16.06-9.23,21.83l-86.62,85.33c-6.03,5.94-13.88,8.9-21.72,8.9Zm-96.04-172.43l96.36,97.71,42.51-41.88-96.36-97.71-42.51,41.88Z"/>
  </g>
  <g class="cls-4">
    <rect class="cls-8" x="262.87" y="685.03" width="121.59" height="199.14" transform="translate(-457.55 452.84) rotate(-44.57)"/>
  </g>
  <ellipse class="cls-7" cx="1015.96" cy="1494.85" rx="985" ry="984.48"/>
  <g>
    <g class="cls-4">
      <path class="cls-8" d="m130.89,1927.2c1.77,3.62,3.55,7.23,5.36,10.82-1.81-3.59-3.59-7.21-5.36-10.82Z"/>
    </g>
    <g class="cls-4">
      <path class="cls-8" d="m122.08,1908.78c1.69,3.65,3.42,7.27,5.15,10.9-1.74-3.62-3.46-7.25-5.15-10.9Z"/>
    </g>
    <g class="cls-4">
      <path class="cls-8" d="m154.06,1971.65c1.95,3.51,3.94,6.99,5.92,10.47-1.99-3.48-3.98-6.96-5.92-10.47Z"/>
    </g>
    <g class="cls-4">
      <path class="cls-8" d="m139.8,1944.93c3.49,6.77,7.05,13.5,10.69,20.18-3.64-6.68-7.2-13.41-10.69-20.18Z"/>
    </g>
    <g class="cls-4">
      <path class="cls-8" d="m164.15,1989.36c2,3.44,4.02,6.86,6.06,10.28-2.04-3.41-4.06-6.84-6.06-10.28Z"/>
    </g>
    <g class="cls-4">
      <path class="cls-8" d="m316.8,2188.21c2.48,2.49,4.95,4.98,7.45,7.45-2.5-2.47-4.98-4.96-7.45-7.45Z"/>
    </g>
    <g class="cls-4">
      <path class="cls-8" d="m986.83,2478.87c2.27.07,4.54.14,6.82.19-2.28-.05-4.54-.13-6.82-.19Z"/>
    </g>
    <g class="cls-4">
      <path class="cls-8" d="m941.47,2476.55c1.8.13,3.61.24,5.41.36-1.8-.12-3.61-.23-5.41-.36Z"/>
    </g>
    <g class="cls-4">
      <path class="cls-8" d="m914.63,2474.15c1.68.17,3.36.37,5.05.53-1.69-.16-3.37-.36-5.05-.53Z"/>
    </g>
    <g class="cls-4">
      <path class="cls-8" d="m890.58,2471.39c2.41.31,4.82.61,7.24.9-2.42-.29-4.83-.59-7.24-.9Z"/>
    </g>
    <g class="cls-4">
      <path class="cls-8" d="m309.88,2181.17c-2.49-2.56-4.97-5.12-7.43-7.7,2.46,2.58,4.94,5.14,7.43,7.7Z"/>
    </g>
    <g class="cls-4">
      <path class="cls-8" d="m174.53,2006.75c2.09,3.42,4.17,6.84,6.29,10.23-2.13-3.39-4.2-6.81-6.29-10.23Z"/>
    </g>
    <g class="cls-4">
      <path class="cls-8" d="m963.68,2477.94c2.45.13,4.9.24,7.34.35-2.45-.11-4.9-.22-7.34-.35Z"/>
    </g>
    <g class="cls-4">
      <path class="cls-8" d="m1990.91,1402.79c.11-.41.22-.81.33-1.22-.11.41-.22.81-.33,1.22Z"/>
    </g>
    <g class="cls-4">
      <path class="cls-8" d="m1986.34,1418.51c.12-.39.23-.78.35-1.17-.12.39-.23.78-.35,1.17Z"/>
    </g>
    <g class="cls-4">
      <path class="cls-8" d="m183.77,2021.59c4.3,6.77,8.68,13.48,13.14,20.14-4.46-6.66-8.84-13.37-13.14-20.14Z"/>
    </g>
    <g class="cls-4">
      <path class="cls-8" d="m284.45,2154.04c3.7,4.09,7.42,8.15,11.18,12.18-3.76-4.03-7.49-8.09-11.18-12.18Z"/>
    </g>
    <g class="cls-4">
      <path class="cls-8" d="m116.64,1858.78c160.47,326.13,496.14,550.59,884.32,550.59,540.71,0,979.58-435.46,984.88-974.63,0,0,0,0,0-.01-60.96,165.84-213.3,352.33-559.46,498.26-670.61,282.7-1180.76-67.74-1383.88-398.39,6.85,124.88,37.04,243.53,86.19,351.75-4.14-9.12-8.18-18.3-12.05-27.57Z"/>
    </g>
    <g class="cls-4">
      <path class="cls-8" d="m269.26,2136.8c2.38,2.77,4.76,5.54,7.17,8.28-2.41-2.74-4.79-5.51-7.17-8.28Z"/>
    </g>
    <g class="cls-4">
      <path class="cls-8" d="m868.57,2468.36c2.26.34,4.53.65,6.8.98-2.27-.32-4.54-.64-6.8-.98Z"/>
    </g>
    <g class="cls-4">
      <path class="cls-8" d="m1981.31,1434.16c.08-.23.16-.46.23-.69-.08.23-.15.46-.23.69Z"/>
    </g>
    <g class="cls-4">
      <path class="cls-8" d="m201.65,2048.79c2.19,3.21,4.41,6.41,6.64,9.59-2.23-3.19-4.45-6.38-6.64-9.59Z"/>
    </g>
    <g class="cls-4">
      <path class="cls-8" d="m213.31,2065.48c2.25,3.15,4.49,6.29,6.77,9.41-2.28-3.12-4.53-6.27-6.77-9.41Z"/>
    </g>
    <g class="cls-4">
      <path class="cls-8" d="m256.01,2121.11c2.38,2.87,4.76,5.74,7.17,8.58-2.4-2.85-4.79-5.71-7.17-8.58Z"/>
    </g>
    <g class="cls-4">
      <path class="cls-8" d="m243.17,2105.26c2.33,2.95,4.7,5.86,7.07,8.78-2.37-2.92-4.73-5.83-7.07-8.78Z"/>
    </g>
    <g class="cls-4">
      <path class="cls-8" d="m225.28,2081.9c4.06,5.45,8.17,10.85,12.33,16.21-4.17-5.36-8.28-10.76-12.33-16.21Z"/>
    </g>
    <g class="cls-4">
      <path class="cls-8" d="m383.71,2249.69c2.46,2.06,4.91,4.13,7.4,6.17-2.48-2.04-4.94-4.11-7.4-6.17Z"/>
    </g>
    <g class="cls-4">
      <path class="cls-8" d="m496.97,2331.69c2.53,1.57,5.08,3.13,7.62,4.68-2.55-1.55-5.09-3.11-7.62-4.68Z"/>
    </g>
    <g class="cls-4">
      <path class="cls-8" d="m479.38,2320.53c2.36,1.53,4.74,3.03,7.11,4.55-2.37-1.51-4.75-3.01-7.11-4.55Z"/>
    </g>
    <g class="cls-4">
      <path class="cls-8" d="m456.96,2305.47c2.11,1.46,4.21,2.94,6.33,4.38-2.12-1.44-4.22-2.92-6.33-4.38Z"/>
    </g>
    <g class="cls-4">
      <path class="cls-8" d="m438.83,2292.66c2.52,1.83,5.05,3.66,7.59,5.46-2.54-1.8-5.07-3.63-7.59-5.46Z"/>
    </g>
    <g class="cls-4">
      <path class="cls-8" d="m515.34,2342.81c2.37,1.4,4.73,2.81,7.12,4.2-2.38-1.38-4.75-2.79-7.12-4.2Z"/>
    </g>
    <g class="cls-4">
      <path class="cls-8" d="m539.6,2356.74c1.71.95,3.44,1.86,5.16,2.79-1.72-.94-3.45-1.85-5.16-2.79Z"/>
    </g>
    <g class="cls-4">
      <path class="cls-8" d="m847.14,2464.93c.52.09,1.04.17,1.56.25-.52-.09-1.04-.16-1.56-.25Z"/>
    </g>
    <g class="cls-4">
      <path class="cls-8" d="m557.94,2366.61c2.44,1.28,4.9,2.54,7.35,3.81-2.45-1.26-4.91-2.52-7.35-3.81Z"/>
    </g>
    <g class="cls-4">
      <path class="cls-8" d="m331.96,2203.15c3.52,3.39,7.05,6.77,10.62,10.11-3.57-3.34-7.1-6.71-10.62-10.11Z"/>
    </g>
    <g class="cls-4">
      <path class="cls-8" d="m422.06,2280.26c2.51,1.9,5.04,3.78,7.58,5.66-2.53-1.88-5.06-3.76-7.58-5.66Z"/>
    </g>
    <g class="cls-4">
      <path class="cls-8" d="m404.4,2266.59c2.62,2.08,5.27,4.12,7.91,6.18-2.64-2.05-5.29-4.1-7.91-6.18Z"/>
    </g>
    <g class="cls-4">
      <path class="cls-8" d="m367.78,2236.07c2.54,2.22,5.09,4.43,7.65,6.62-2.56-2.19-5.11-4.4-7.65-6.62Z"/>
    </g>
    <g class="cls-4">
      <path class="cls-8" d="m352.43,2222.4c2.45,2.24,4.94,4.44,7.41,6.65-2.48-2.21-4.96-4.42-7.41-6.65Z"/>
    </g>
    <g class="cls-4">
      <path class="cls-8" d="m750.98,2443.26c1.68.47,3.35.96,5.03,1.42-1.68-.46-3.35-.95-5.03-1.42Z"/>
    </g>
    <g class="cls-4">
      <path class="cls-8" d="m728.26,2436.63c2.41.73,4.82,1.47,7.24,2.18-2.42-.72-4.83-1.45-7.24-2.18Z"/>
    </g>
    <g class="cls-4">
      <path class="cls-8" d="m776.39,2449.99c1.91.48,3.84.92,5.76,1.39-1.92-.47-3.85-.91-5.76-1.39Z"/>
    </g>
    <g class="cls-4">
      <path class="cls-8" d="m797.42,2454.98c2.41.54,4.82,1.08,7.23,1.6-2.41-.53-4.82-1.06-7.23-1.6Z"/>
    </g>
    <g class="cls-4">
      <path class="cls-8" d="m707.59,2430.1c2.34.77,4.69,1.52,7.04,2.27-2.35-.75-4.7-1.5-7.04-2.27Z"/>
    </g>
    <g class="cls-4">
      <path class="cls-8" d="m819.44,2459.69c2.2.45,4.4.9,6.61,1.34-2.21-.43-4.41-.89-6.61-1.34Z"/>
    </g>
    <g class="cls-4">
      <path class="cls-8" d="m661.47,2413.6c2.24.86,4.48,1.74,6.73,2.59-2.25-.85-4.48-1.73-6.73-2.59Z"/>
    </g>
    <g class="cls-4">
      <path class="cls-8" d="m621.53,2397.2c2.14.94,4.3,1.84,6.45,2.76-2.15-.92-4.31-1.83-6.45-2.76Z"/>
    </g>
    <g class="cls-4">
      <path class="cls-8" d="m597.6,2386.32c1.84.86,3.66,1.75,5.5,2.6-1.84-.85-3.66-1.74-5.5-2.6Z"/>
    </g>
    <g class="cls-4">
      <path class="cls-8" d="m641.03,2405.46c2.45,1.01,4.91,2.01,7.37,3-2.46-.99-4.92-1.99-7.37-3Z"/>
    </g>
    <g class="cls-4">
      <path class="cls-8" d="m576.87,2376.29c2.45,1.22,4.9,2.45,7.37,3.65-2.46-1.2-4.91-2.43-7.37-3.65Z"/>
    </g>
    <g class="cls-4">
      <path class="cls-8" d="m687.56,2423.28c1.11.39,2.22.76,3.33,1.14-1.11-.39-2.23-.75-3.33-1.14Z"/>
    </g>
  </g>
  <g class="cls-1">
    <path class="cls-5" d="m470.41,697.46s-147.67,62.7-252.27,219.89c-104.6,157.19,24.42,196.98,236,0,211.58-196.98,113.16-271,16.27-219.89Z"/>
  </g>
  <g class="cls-1">
    <ellipse class="cls-5" cx="176.4" cy="1177.8" rx="74.06" ry="48.79" transform="translate(-1004.03 1020.02) rotate(-73.87)"/>
  </g>
  <path class="cls-8" d="m1015.96,2510.29C455.76,2510.29,0,2054.77,0,1494.85S455.76,479.41,1015.96,479.41s1015.96,455.52,1015.96,1015.44-455.76,1015.44-1015.96,1015.44Zm0-1968.96c-526.06,0-954.04,427.75-954.04,953.53s427.98,953.53,954.04,953.53,954.04-427.75,954.04-953.53-427.98-953.53-954.04-953.53Z"/>
  <g class="cls-3">
    <path class="cls-5" d="m398.27,873.87c-354.18,341.99-318.2,815.29,21.07,1166.27,339.27,350.99,808.26,381.32,1162.43,39.33,354.18-341.99,425.73-826.27,116.25-1159.01-174.4-187.5-431.09-237.88-682.06-239.04-227.45-1.06-449.31,29.85-617.69,192.44Zm1216.99,1126.85c-285.75,340.16-790.95,386.36-1128.4,103.19-337.45-283.17-379.37-788.48-93.62-1128.64,285.75-340.16,790.95-386.36,1128.4-103.19,337.45,283.17,379.37,788.48,93.63,1128.64Z"/>
  </g>
  <g>
    <ellipse class="cls-7" cx="1015.96" cy="1494.85" rx="813.85" ry="813.42"/>
    <path class="cls-8" d="m1015.96,2335.76c-463.92,0-841.34-377.23-841.34-840.91s377.43-840.91,841.34-840.91,841.34,377.23,841.34,840.91-377.43,840.91-841.34,840.91Zm0-1626.84c-433.6,0-786.36,352.57-786.36,785.93s352.76,785.93,786.36,785.93,786.36-352.57,786.36-785.93-352.76-785.93-786.36-785.93Z"/>
  </g>
  <g>
    <ellipse class="cls-5" cx="1015.96" cy="1494.85" rx="690.02" ry="689.66"/>
    <path class="cls-8" d="m1015.96,2187.01c-381.86,0-692.52-310.5-692.52-692.16s310.66-692.16,692.52-692.16,692.52,310.5,692.52,692.16-310.66,692.16-692.52,692.16Zm0-1379.32c-379.1,0-687.52,308.26-687.52,687.16s308.42,687.16,687.52,687.16,687.52-308.26,687.52-687.16-308.42-687.16-687.52-687.16Z"/>
  </g>
  <g>
    <ellipse class="cls-5" cx="1015.96" cy="1494.85" rx="690.02" ry="689.66"/>
    <path class="cls-8" d="m1015.96,2187.01c-381.86,0-692.52-310.5-692.52-692.16s310.66-692.16,692.52-692.16,692.52,310.5,692.52,692.16-310.66,692.16-692.52,692.16Zm0-1379.32c-379.1,0-687.52,308.26-687.52,687.16s308.42,687.16,687.52,687.16,687.52-308.26,687.52-687.16-308.42-687.16-687.52-687.16Z"/>
  </g>
  <g class="cls-4">
    <path class="cls-8" d="m1015.96,778.17c-396.02,0-717.06,320.87-717.06,716.68s321.04,716.68,717.06,716.68,717.06-320.87,717.06-716.68-321.04-716.68-717.06-716.68Zm0,1374.24c-348.96,0-631.86-308.78-631.86-657.56s282.89-663.68,631.86-663.68,631.86,314.9,631.86,663.68-282.89,657.56-631.86,657.56Z"/>
  </g>
  <g class="cls-4">
    <path class="cls-8" d="m1015.96,681.44c-421.31,0-762.85,392.33-762.85,813.41s341.54,813.42,762.85,813.42,762.85-392.33,762.85-813.42-341.54-813.41-762.85-813.41Zm0,1530.1c-396.02,0-717.06-320.87-717.06-716.68s321.04-716.68,717.06-716.68,717.06,320.87,717.06,716.68-321.04,716.68-717.06,716.68Z"/>
  </g>
  <path class="cls-8" d="m1015.96,2233.02c-407.23,0-738.54-331.14-738.54-738.16s331.31-738.16,738.54-738.16,738.54,331.14,738.54,738.16-331.31,738.16-738.54,738.16Zm0-1431.34c-382.43,0-693.55,310.96-693.55,693.17s311.12,693.17,693.55,693.17,693.55-310.96,693.55-693.17-311.12-693.17-693.55-693.17Z"/>
  <g>
    <g>
      <ellipse class="cls-6" cx="1015.96" cy="1494.85" rx="91.29" ry="91.24"/>
      <path class="cls-8" d="m1015.96,1588.55c-24.02,0-48.03-9.14-66.32-27.41-17.71-17.71-27.47-41.25-27.47-66.28s9.76-48.58,27.47-66.28c36.57-36.55,96.06-36.55,132.64,0,17.71,17.7,27.47,41.25,27.47,66.28s-9.76,48.58-27.47,66.28c-18.29,18.28-42.3,27.41-66.32,27.41Zm0-182.4c-22.74,0-45.47,8.65-62.78,25.95-16.77,16.76-26.01,39.05-26.01,62.75s9.24,45.99,26.01,62.75c34.62,34.6,90.95,34.6,125.57,0,16.77-16.76,26.01-39.05,26.01-62.75s-9.24-45.99-26.01-62.75c-17.31-17.3-40.04-25.95-62.78-25.95Z"/>
    </g>
    <path class="cls-8" d="m1015.96,1606.68c-28.66,0-57.32-10.91-79.14-32.71-21.14-21.13-32.78-49.23-32.78-79.11s11.64-57.98,32.78-79.11c43.64-43.61,114.64-43.61,158.28,0,21.14,21.13,32.78,49.23,32.78,79.11s-11.64,57.98-32.78,79.11c-21.82,21.81-50.48,32.71-79.14,32.71Zm0-182.4c-18.1,0-36.19,6.88-49.96,20.65-13.34,13.33-20.69,31.06-20.69,49.92s7.34,36.58,20.69,49.92c27.55,27.54,72.37,27.54,99.92,0,13.34-13.34,20.69-31.06,20.69-49.92s-7.34-36.58-20.69-49.92c-13.77-13.77-31.87-20.65-49.96-20.65Z"/>
  </g>
  <path class="cls-8" d="m771.25,1207.88l135.27,134.96,67.95,67.17,67.48,67.64h-43.15s334.24-333.28,334.24-333.28c11.71-11.68,30.68-11.66,42.36.05,11.68,11.71,11.71,30.61,0,42.29l-333.46,334.07c-11.89,11.91-31.18,11.93-43.1.05l-.05-.05-67.67-67.44-67.2-67.91-135.04-135.2c-11.69-11.7-11.67-30.66.04-42.34,11.71-11.68,30.64-11.7,42.32,0Z"/>
  <path class="cls-8" d="m1416.38,1115.28c-5.28,0-10.57-2.02-14.59-6.05-8.06-8.06-8.06-21.13,0-29.19l105.9-105.85c8.06-8.06,21.13-8.05,29.18,0,8.06,8.06,8.06,21.13,0,29.19l-105.9,105.85c-4.03,4.03-9.31,6.04-14.59,6.04Z"/>
  <path class="cls-8" d="m1560.37,1359.77c-8.98,0-17.24-5.91-19.83-14.97-3.13-10.96,3.2-22.38,14.17-25.52l143.99-41.19c10.94-3.14,22.38,3.21,25.51,14.17,3.13,10.96-3.2,22.38-14.17,25.52l-143.99,41.19c-1.89.54-3.8.8-5.68.8Z"/>
  <path class="cls-8" d="m1710.67,1688.94c-1.66,0-3.34-.2-5.01-.62l-145.31-36.28c-11.05-2.76-17.78-13.96-15.02-25.02,2.76-11.06,13.95-17.78,25.02-15.02l145.31,36.28c11.05,2.76,17.78,13.96,15.02,25.02-2.34,9.38-10.76,15.64-20.01,15.64Z"/>
  <path class="cls-8" d="m1522.28,2021.54c-5.28,0-10.56-2.01-14.59-6.04l-105.9-105.85c-8.06-8.06-8.06-21.13,0-29.19,8.06-8.06,21.12-8.06,29.18,0l105.9,105.85c8.06,8.06,8.06,21.13,0,29.19-4.03,4.03-9.31,6.05-14.59,6.05Z"/>
  <path class="cls-8" d="m1196.31,2208.09c-9.17,0-17.54-6.15-19.96-15.44l-37.72-144.87c-2.87-11.03,3.74-22.3,14.77-25.17,11.01-2.88,22.3,3.74,25.17,14.77l37.72,144.87c2.87,11.03-3.74,22.3-14.77,25.17-1.74.45-3.49.67-5.21.67Z"/>
  <path class="cls-8" d="m824.17,2205.01c-1.83,0-3.69-.24-5.54-.76-10.98-3.05-17.4-14.43-14.35-25.41l40.12-144.22c3.05-10.98,14.45-17.4,25.41-14.35,10.98,3.05,17.4,14.43,14.35,25.41l-40.12,144.22c-2.54,9.13-10.83,15.11-19.87,15.11Z"/>
  <path class="cls-8" d="m509.64,2021.54c-5.28,0-10.57-2.02-14.59-6.05-8.06-8.06-8.06-21.13,0-29.19l105.9-105.85c8.06-8.05,21.13-8.05,29.18,0,8.06,8.06,8.06,21.13,0,29.19l-105.9,105.85c-4.03,4.03-9.31,6.04-14.59,6.04Z"/>
  <path class="cls-8" d="m319.29,1680.95c-9.34,0-17.81-6.39-20.06-15.87-2.63-11.09,4.22-22.21,15.31-24.85l145.71-34.61c11.09-2.64,22.22,4.22,24.85,15.31,2.63,11.09-4.22,22.21-15.31,24.85l-145.71,34.61c-1.61.38-3.21.56-4.79.56Z"/>
  <path class="cls-8" d="m470.42,1363.76c-1.83,0-3.69-.24-5.54-.76l-144.29-40.13c-10.98-3.05-17.4-14.43-14.35-25.41,3.05-10.98,14.45-17.41,25.41-14.35l144.29,40.13c10.98,3.05,17.4,14.43,14.35,25.41-2.54,9.13-10.83,15.11-19.87,15.11Z"/>
  <path class="cls-8" d="m615.54,1115.28c-5.28,0-10.56-2.01-14.59-6.04l-105.9-105.85c-8.06-8.06-8.06-21.13,0-29.19,8.06-8.06,21.12-8.06,29.18,0l105.9,105.85c8.06,8.06,8.06,21.13,0,29.19-4.03,4.03-9.31,6.05-14.59,6.05Z"/>
  <path class="cls-8" d="m864.66,970.09c-9.04,0-17.34-5.99-19.88-15.13l-40.01-144.25c-3.05-10.98,3.39-22.36,14.37-25.4,11.01-3.05,22.36,3.39,25.41,14.37l40.01,144.25c3.05,10.98-3.39,22.36-14.37,25.4-1.85.51-3.71.76-5.53.76Z"/>
  <path class="cls-8" d="m1155.81,967.05c-1.69,0-3.4-.21-5.11-.64-11.04-2.82-17.71-14.05-14.9-25.1l36.99-145.06c2.82-11.04,14.07-17.72,25.09-14.9,11.05,2.82,17.71,14.05,14.9,25.1l-36.99,145.06c-2.38,9.33-10.77,15.54-19.98,15.54Z"/>
  <path class="cls-8" d="m430.45,1519.04c-11.34,0-20.56-9.16-20.63-20.51-.07-11.4,9.11-20.69,20.51-20.76l748.89-4.54h.13c11.34,0,20.56,9.16,20.63,20.51.07,11.4-9.11,20.69-20.51,20.76l-748.89,4.54h-.13Z"/>
  <g class="cls-2">
    <path class="cls-8" d="m1383.3,1162.47c-11.68-11.71-30.65-11.73-42.36-.05l-312.61,311.71-45.96-46.07-67.95-67.17-135.27-134.96c-11.69-11.7-30.62-11.68-42.32,0-11.71,11.68-11.72,30.64-.04,42.34l135.04,135.2,67.2,67.91,21.35,21.27-522.14,3.17c-11.4.07-20.59,9.36-20.52,20.75.07,11.35,9.3,20.51,20.64,20.51h.13l563.04-3.42,5.17,5.15.05.05c11.92,11.88,31.21,11.86,43.1-.05l5.47-5.48,132.05-.8c11.4-.07,20.59-9.36,20.52-20.75-.07-11.35-9.3-20.51-20.64-20.51h-.13l-90.36.55,286.54-287.07c11.71-11.68,11.68-30.58,0-42.29Z"/>
  </g>
  <g class="cls-4">
    <path class="cls-8" d="m1075.02,258.58s-24.06,80.1-144.06,70.1l15,14.99h147.89v-63.88l-18.83-21.21Z"/>
  </g>
  <g class="cls-4">
    <path class="cls-8" d="m237.26,554.88s28.43,115.12-88.94,209.32l10.5,13.97,154.63-137.15,5-54.97-81.2-31.16Z"/>
  </g>
  <g class="cls-4">
    <path class="cls-8" d="m1927.41,686.57s-96.45,21.91-216.45-78.04l-7.5,27.49,135.31,140.09,59.83-29.99,28.81-59.55Z"/>
  </g>
</svg>