<?xml version="1.0" encoding="UTF-8"?>
<svg id="Layer_1" data-name="Layer 1" xmlns="http://www.w3.org/2000/svg" viewBox="0 0 1214.56 995.64">
  <defs>
    <style>
      .cls-1 {
        fill: #fff;
      }

      .cls-2 {
        fill: #380076;
      }

      .cls-3 {
        fill: #ffd400;
      }

      .cls-4 {
        opacity: .6;
      }

      .cls-4, .cls-5 {
        fill: none;
      }

      .cls-5 {
        opacity: .3;
      }
    </style>
  </defs>
  <path class="cls-3" d="m458.22,974.23c-24.07,0-48.28-7.85-68.51-23.96L62.88,690.07c-47.57-37.87-55.43-107.13-17.56-154.7,37.87-47.57,107.13-55.44,154.7-17.56l243.55,193.9L999.28,60.08c39.45-46.26,108.94-51.79,155.21-12.33,46.27,39.46,51.79,108.95,12.33,155.21l-624.77,732.62c-21.73,25.48-52.66,38.66-83.83,38.66Z"/>
  <g class="cls-5">
    <path class="cls-2" d="m1166.83,202.94l-624.8,732.63c-21.71,25.51-52.66,38.66-83.8,38.66-24.1,0-48.32-7.83-68.5-23.98l-19.39-15.41c6.85,1.35,13.7,1.96,20.61,1.96,31.13,0,62.08-13.15,83.8-38.66L1099.55,165.51c35.6-41.71,34.62-102.39,0-142.82,19.63,2.94,38.72,11.25,54.93,25.08,46.3,39.45,51.81,108.93,12.36,155.17Z"/>
  </g>
  <g class="cls-4">
    <path class="cls-1" d="m96.51,715.56l305.52,243.19c-4.22-2.51-8.32-5.32-12.29-8.5L62.87,690.06c-47.59-37.86-55.42-107.1-17.55-154.69s107.16-55.42,154.69-17.56l21.16,16.88c-46.49-27.71-107.53-17.37-142.21,26.18-37.86,47.53-30.03,116.83,17.55,154.69Z"/>
    <path class="cls-1" d="m1165,58.04c-44.04-21.53-98.78-11.5-132.05,27.52L477.2,737.22l-32.97-26.24L999.3,60.06c39.45-46.24,108.93-51.75,155.17-12.29,3.79,3.24,7.34,6.67,10.52,10.28Z"/>
  </g>
  <path class="cls-2" d="m458.22,995.64c-29.61,0-58.68-10.17-81.85-28.63L49.54,706.82c-56.72-45.16-66.13-128.06-20.97-184.79,21.88-27.48,53.14-44.8,88.05-48.76,34.88-3.95,69.26,5.9,96.74,27.79l227.36,181.01L982.99,46.19c22.79-26.72,54.62-42.98,89.64-45.76,35.03-2.8,69.02,8.24,95.75,31.03,26.73,22.79,42.98,54.63,45.76,89.65,2.78,35.02-8.24,69.02-31.04,95.74l-624.77,732.61c-25.02,29.34-61.51,46.17-100.11,46.17Zm-326.6-480.4c-3.37,0-6.77.19-10.18.58-23.54,2.67-44.62,14.35-59.38,32.89-30.46,38.26-24.11,94.17,14.15,124.62l326.83,260.2c15.85,12.63,34.94,19.3,55.18,19.3,26.05,0,50.66-11.35,67.53-31.14L1150.53,189.07c15.38-18.02,22.81-40.96,20.93-64.57-1.88-23.62-12.84-45.09-30.86-60.46-18.02-15.37-40.95-22.8-64.58-20.93-23.61,1.88-45.08,12.84-60.45,30.86L459.86,725.6c-7.49,8.78-20.6,10.04-29.62,2.86l-243.55-193.9c-15.85-12.62-35.1-19.32-55.06-19.32Z"/>
</svg>