<?xml version="1.0" encoding="UTF-8"?>
<svg id="Layer_1" data-name="Layer 1" xmlns="http://www.w3.org/2000/svg" viewBox="0 0 139.33 574.33">
  <defs>
    <style>
      .cls-1, .cls-2 {
        fill: #ffbbba;
      }

      .cls-3 {
        stroke: #fe7062;
      }

      .cls-3, .cls-4, .cls-5, .cls-6, .cls-7, .cls-2, .cls-8, .cls-9, .cls-10, .cls-11 {
        fill-rule: evenodd;
      }

      .cls-3, .cls-12 {
        fill: #fe7062;
      }

      .cls-3, .cls-6, .cls-2, .cls-9, .cls-10 {
        stroke-miterlimit: 8;
        stroke-width: 1.33px;
      }

      .cls-4 {
        fill: rgba(255, 187, 186, .1);
      }

      .cls-5 {
        fill: rgba(72, 75, 242, .1);
      }

      .cls-13, .cls-9 {
        fill: #1a0f91;
      }

      .cls-6 {
        stroke: #484bf2;
      }

      .cls-6, .cls-14 {
        fill: #484bf2;
      }

      .cls-7 {
        fill: rgba(26, 15, 145, .1);
      }

      .cls-2 {
        stroke: #ffbbba;
      }

      .cls-15, .cls-10 {
        fill: #91b3fa;
      }

      .cls-8 {
        fill: rgba(254, 112, 98, .1);
      }

      .cls-9 {
        stroke: #1a0f91;
      }

      .cls-10 {
        stroke: #91b3fa;
      }

      .cls-11 {
        fill: rgba(145, 179, 250, .1);
      }
    </style>
  </defs>
  <path class="cls-7" d="m69.21,138.17C31.11,138.19.19,107.32.17,69.21.14,31.11,31.01.19,69.12.17h.05v29.72c-21.69,0-39.28,17.58-39.28,39.28s17.59,39.28,39.28,39.28h.03l.02,29.72Z"/>
  <path class="cls-5" d="m69.17,108.17c38.11,0,69,31.12,69,69.5s-30.89,69.5-69,69.5v-29.72c21.69,0,39.28-17.81,39.28-39.78s-17.59-39.78-39.28-39.78v-29.72Z"/>
  <path class="cls-11" d="m69.21,356.17c-38.11.03-69.02-31.07-69.05-69.45s30.84-69.52,68.95-69.55h.05v29.72c-21.69,0-39.28,17.81-39.28,39.78s17.58,39.78,39.28,39.78h.03l.02,29.72Z"/>
  <path class="cls-4" d="m69.17,326.17c38.11,0,69,31.12,69,69.5s-30.89,69.5-69,69.5v-29.72c21.69,0,39.28-17.81,39.28-39.78s-17.59-39.78-39.28-39.78v-29.72Z"/>
  <path class="cls-9" d="m69.67.67c38.11,0,69,30.89,69,69s-30.89,69-69,69v-29.72c21.69,0,39.28-17.59,39.28-39.28s-17.59-39.28-39.28-39.28V.67Z"/>
  <path class="cls-6" d="m69.72,247.67c-38.11.03-69.02-31.07-69.05-69.45-.03-38.38,30.84-69.52,68.95-69.55h.05v29.72c-21.69,0-39.28,17.81-39.28,39.78s17.59,39.78,39.28,39.78h.03l.02,29.72Z"/>
  <path class="cls-10" d="m69.67,217.67c38.11,0,69,31.12,69,69.5s-30.89,69.5-69,69.5v-29.72c21.69,0,39.28-17.81,39.28-39.78s-17.59-39.78-39.28-39.78v-29.72Z"/>
  <path class="cls-3" d="m69.67,435.67c38.11,0,69,30.89,69,69s-30.89,69-69,69v-29.72c21.69,0,39.28-17.59,39.28-39.28s-17.59-39.28-39.28-39.28v-29.72Z"/>
  <path class="cls-8" d="m71.21,573.17c-38.11.03-69.02-30.84-69.05-68.95-.03-38.11,30.84-69.02,68.95-69.05h.05v29.72c-21.69,0-39.28,17.58-39.28,39.28s17.59,39.28,39.28,39.28h.03l.02,29.72Z"/>
  <path class="cls-2" d="m69.71,464.67c-38.11.03-69.02-30.84-69.05-68.95-.03-38.11,30.84-69.02,68.95-69.05h.05v29.72c-21.69,0-39.28,17.58-39.28,39.28s17.59,39.28,39.28,39.28h.03l.02,29.72Z"/>
  <g>
    <path class="cls-13" d="m68.92,79.66c0,1.31-1.06,2.36-2.36,2.36s-2.36-1.06-2.36-2.36,1.06-2.37,2.36-2.37,2.36,1.06,2.36,2.37Z"/>
    <path class="cls-13" d="m71.21,87.4v-2.36c0-.37-.18-.72-.47-.94-.68-.52-1.46-.91-2.29-1.12-.63-.19-1.28-.29-1.93-.29-.65,0-1.3.11-1.93.29-.82.24-1.59.62-2.29,1.12-.29.23-.46.57-.47.94v2.36h9.38Z"/>
    <path class="cls-13" d="m79.27,79.66c0,1.31-1.06,2.36-2.36,2.36s-2.36-1.06-2.36-2.36,1.06-2.37,2.36-2.37,2.36,1.06,2.36,2.37Z"/>
    <path class="cls-13" d="m81.62,87.4v-2.36c0-.37-.18-.72-.47-.94-.68-.52-1.46-.91-2.29-1.12-.63-.19-1.28-.29-1.93-.29-.65,0-1.3.11-1.93.29-.82.24-1.59.62-2.29,1.12-.29.23-.46.57-.47.94v2.36h9.38Z"/>
    <path class="cls-13" d="m89.68,79.66c0,1.31-1.06,2.36-2.36,2.36s-2.36-1.06-2.36-2.36,1.06-2.37,2.36-2.37,2.36,1.06,2.36,2.37Z"/>
    <path class="cls-13" d="m92.04,87.4v-2.36c0-.37-.18-.72-.47-.94-.68-.52-1.46-.91-2.29-1.12-.63-.19-1.28-.29-1.93-.29-.65,0-1.3.11-1.93.29-.82.24-1.59.62-2.29,1.12-.29.23-.46.57-.47.94v2.36h9.38Z"/>
    <path class="cls-13" d="m59.45,57.79c0,1.71-1.39,3.09-3.09,3.09s-3.09-1.39-3.09-3.09,1.39-3.09,3.09-3.09,3.09,1.39,3.09,3.09Z"/>
    <path class="cls-13" d="m74.6,56.6c-.31-.3-.8-.3-1.1,0l-6.73,6.73c-.54-.15-1.12,0-1.52.39-.11.11-2.05,3.29-2.05,3.29l-.58-2.48c-.08-.32-.24-.62-.46-.85-.96-.78-2.06-1.35-3.25-1.7-.84-.18-1.69-.28-2.55-.31-.86.01-1.72.14-2.55.39-1.2.31-2.3.89-3.24,1.7-.23.24-.39.53-.46.85,0,0-2.24,9.43-2.24,9.58,0,.86.7,1.56,1.56,1.56.69-.02,1.29-.49,1.47-1.16l1.62-6.72v21.62h3.08v-13.91h1.56v13.91h3.07v-21.72l.57,2.45c.04.17.15.31.31.39.6.46,1.33.72,2.08.74.49.07.98-.15,1.25-.57l3.18-5.21c.2-.32.28-.71.21-1.08l6.77-6.77c.31-.31.31-.8,0-1.11Z"/>
    <path class="cls-13" d="m85.27,49.37h-25.52c-1.15,0-2.08.93-2.08,2.08v1.88c.8.22,1.52.65,2.08,1.25v-3.12h25.52v17.19h-17.78l-1.27,2.08h19.05c1.15,0,2.08-.93,2.08-2.08v-17.19c0-1.15-.93-2.08-2.08-2.08Z"/>
  </g>
  <g>
    <path class="cls-14" d="m81.62,154.21h-22.92c-1.15,0-2.08.93-2.08,2.08v43.75c0,1.15.93,2.08,2.08,2.08h22.92c1.15,0,2.08-.93,2.08-2.08v-43.75c0-1.15-.93-2.08-2.08-2.08Zm-13.28,2.08h3.65c.43,0,.78.35.78.78s-.35.78-.78.78h-3.65c-.43,0-.78-.35-.78-.78s.35-.78.78-.78Zm13.28,40.1h-22.92v-36.46h22.92v36.46Z"/>
    <path class="cls-14" d="m67.04,174c2.3,0,4.17-1.86,4.17-4.17s-1.87-4.17-4.17-4.17-4.17,1.87-4.17,4.17,1.87,4.17,4.17,4.17Zm0-6.72c.64,0,1.17.52,1.17,1.17s-.52,1.17-1.17,1.17-1.17-.52-1.17-1.17c0-.64.52-1.17,1.17-1.17Zm-2.34,3.79c0-.18.09-.35.23-.47.34-.25.73-.44,1.14-.55.31-.09.64-.14.96-.15.33,0,.65.05.96.15.41.11.8.29,1.14.55.14.11.23.29.23.47v.89h-4.67v-.89Z"/>
    <path class="cls-14" d="m68.39,183.53c.32.42.56.88.73,1.38l3.11-1.87c-.35-.39-.64-.83-.86-1.31l-2.99,1.79Z"/>
    <path class="cls-14" d="m69.51,174.11l2.4,2.7c.31-.42.69-.79,1.11-1.1l-2.3-2.58c-.35.39-.76.73-1.21.99Z"/>
    <path class="cls-14" d="m75.9,175.56c-2.3,0-4.17,1.87-4.17,4.17s1.87,4.17,4.17,4.17,4.17-1.87,4.17-4.17-1.87-4.17-4.17-4.17Zm0,1.61c.65,0,1.17.52,1.17,1.17s-.52,1.17-1.17,1.17-1.17-.52-1.17-1.17c0-.64.52-1.17,1.17-1.17Zm2.34,4.69h-4.67v-.89c0-.18.09-.36.23-.47.34-.25.73-.44,1.14-.55.31-.09.64-.14.96-.15.33,0,.65.05.96.15.41.11.8.29,1.14.55.14.11.23.29.23.47v.89Z"/>
    <path class="cls-14" d="m65.52,174.54l-.96,7.02c.52.01,1.04.11,1.54.29l.96-7.06h-.02c-.52,0-1.03-.08-1.53-.24Z"/>
    <path class="cls-14" d="m68.6,186.5c0-2.3-1.87-4.17-4.17-4.17s-4.17,1.86-4.17,4.17,1.87,4.17,4.17,4.17,4.17-1.87,4.17-4.17Zm-4.18-2.56c.64,0,1.17.52,1.17,1.17s-.52,1.17-1.17,1.17-1.17-.52-1.17-1.17c0-.64.52-1.17,1.17-1.17Zm2.33,4.69h-4.67v-.89c0-.18.09-.36.23-.47.35-.25.73-.44,1.14-.55.31-.09.64-.14.96-.15.33,0,.65.05.96.15.41.11.8.3,1.14.55.14.11.23.29.23.47v.89Z"/>
  </g>
  <g>
    <path class="cls-15" d="m62.35,277.21c0,2.59-2.1,4.69-4.69,4.69s-4.69-2.1-4.69-4.69,2.1-4.69,4.69-4.69,4.69,2.1,4.69,4.69Z"/>
    <path class="cls-15" d="m87.35,277.21c0,2.59-2.1,4.69-4.69,4.69s-4.69-2.1-4.69-4.69,2.1-4.69,4.69-4.69,4.69,2.1,4.69,4.69Z"/>
    <path class="cls-15" d="m79.54,299.81v-4.69c0-.73-.31-1.46-.94-1.88-1.25-1.04-2.92-1.77-4.58-2.19-1.15-.31-2.5-.62-3.85-.62-1.25,0-2.6.21-3.85.62-1.67.42-3.23,1.25-4.58,2.19-.62.52-.94,1.15-.94,1.88v4.69h18.75Z"/>
    <path class="cls-15" d="m74.85,284.5c0,2.59-2.1,4.69-4.69,4.69s-4.69-2.1-4.69-4.69,2.1-4.69,4.69-4.69,4.69,2.1,4.69,4.69Z"/>
    <path class="cls-15" d="m91.1,285.96c-1.25-1.04-2.92-1.77-4.58-2.19-1.15-.31-2.5-.62-3.85-.62-1.25,0-2.6.21-3.85.62-.62.21-1.25.42-1.88.73v.1c0,1.77-.73,3.44-1.88,4.58,1.98.62,3.54,1.46,4.79,2.4.31.31.62.52.83.94h11.35v-4.69c0-.73-.31-1.46-.94-1.88Z"/>
    <path class="cls-15" d="m60.48,291.58h0c1.46-1.04,3.13-1.88,4.79-2.4-1.15-1.25-1.88-2.81-1.88-4.58v-.21c-.62-.21-1.25-.52-1.88-.62-1.15-.31-2.5-.62-3.85-.62-1.25,0-2.6.21-3.85.62-1.67.52-3.23,1.25-4.58,2.19-.62.42-.94,1.15-.94,1.88v4.69h11.25c.31-.42.52-.62.94-.94Z"/>
  </g>
  <path class="cls-1" d="m90.34,390.53h-.47l-1.35-3.65c3.12-1.77,4.22-5.73,2.5-8.85-1.77-3.12-5.73-4.22-8.85-2.5-1.51.83-2.66,2.29-3.07,3.96l-4.84-.52c-.36-2.29-2.5-3.91-4.79-3.54-2.08.31-3.59,2.08-3.59,4.17,0,.73.21,1.46.57,2.14l-5.83,5.73c-1.09-.83-2.45-1.3-3.85-1.3-3.59,0-6.51,2.92-6.51,6.51s2.92,6.51,6.51,6.51l1.3,7.81c-2.14.94-3.12,3.44-2.19,5.57.94,2.14,3.44,3.12,5.57,2.19,1.98-.83,2.97-3.02,2.4-5.1l4.58-2.4c2.97,3.28,8.07,3.54,11.41.57,1.67-1.51,2.66-3.7,2.66-5.94,0-.57-.05-1.2-.21-1.77l5.05-2.6c1.56,1.77,4.22,1.93,5.99.36,1.77-1.56,1.93-4.22.36-5.99-.99-.83-2.14-1.35-3.33-1.35h0Zm0,1.56c.68,0,1.2.52,1.2,1.2s-.52,1.2-1.2,1.2-1.2-.52-1.2-1.2h0c0-.68.52-1.2,1.2-1.2h0Zm-5-14.84c.99,0,1.82.83,1.82,1.82s-.83,1.82-1.82,1.82-1.82-.83-1.82-1.82h0c0-.99.78-1.82,1.82-1.82Zm-3.7,5.94c0-.26.16-.57.36-.73.52-.36,1.15-.68,1.77-.83.47-.16.99-.21,1.51-.21s1.04.1,1.51.21c.62.16,1.25.47,1.77.89.21.16.36.47.36.73v1.41h-7.29v-1.46Zm-11.61-6.25c.68,0,1.2.52,1.2,1.2s-.52,1.2-1.2,1.2-1.2-.52-1.2-1.2h0c0-.62.52-1.2,1.2-1.2h0Zm-2.45,3.91c0-.21.1-.36.26-.47.36-.26.78-.42,1.2-.52.31-.1.68-.16.99-.16s.68.05.99.16c.42.1.78.31,1.15.57.16.1.26.31.26.47v.94h-4.79v-.99h-.05Zm-10.94,7.86c.99,0,1.82.83,1.82,1.82s-.83,1.82-1.82,1.82-1.82-.83-1.82-1.82h0c.05-.99.83-1.82,1.82-1.82h0Zm-3.65,7.34v-1.41c0-.26.16-.57.36-.73.52-.36,1.15-.68,1.77-.83.47-.16.99-.21,1.51-.21s1.04.1,1.51.21c.62.16,1.25.47,1.77.89.21.16.36.47.36.73v1.41l-7.29-.05Zm9.01,16.98h-4.84v-.94c0-.21.1-.36.26-.47.36-.26.78-.47,1.2-.57.31-.1.68-.16.99-.16s.68.05.99.16c.42.1.78.31,1.15.57.16.1.26.31.26.47v.94Zm-3.65-3.65c0-.68.52-1.2,1.2-1.2s1.2.52,1.2,1.2-.52,1.2-1.2,1.2c-.62.05-1.15-.52-1.2-1.2h0Zm4.17-1.46c-.68-.68-1.61-1.09-2.55-1.2l-1.3-7.81c1.25-.42,2.34-1.2,3.12-2.24l4.84,2.55c-.78,2.08-.62,4.43.42,6.41l-4.53,2.29Zm5.1-10.62l-4.79-2.5c.21-.68.31-1.35.31-2.08,0-1.35-.42-2.66-1.2-3.75l5.83-5.68c1.98,1.2,4.58.62,5.78-1.35.16-.26.26-.52.36-.78l4.84.52c.1,1.88,1.04,3.65,2.55,4.79l-4.27,7.97c-3.39-1.35-7.29-.16-9.43,2.86h0Zm8.85,1.93c0,1.25-1.04,2.24-2.29,2.24s-2.24-.99-2.24-2.24.99-2.24,2.24-2.24h.05c1.25,0,2.24.99,2.24,2.24h0Zm2.24,6.82h-9.01v-1.72c0-.36.16-.68.47-.89.68-.47,1.41-.83,2.19-1.09.62-.16,1.25-.26,1.88-.26s1.25.1,1.88.26c.78.21,1.56.57,2.19,1.09.26.21.47.57.47.89l-.05,1.72Zm7.4-11.25c0,.31.05.62.16.94l-4.79,2.5c-.57-1.15-1.46-2.08-2.5-2.81l4.27-7.97c.68.26,1.41.36,2.14.36.42,0,.83-.05,1.25-.1l1.35,3.65c-1.25.73-1.93,2.03-1.88,3.44Zm6.61,2.08h-4.84v-.94c0-.21.1-.36.26-.47.36-.26.78-.47,1.2-.57.31-.1.68-.16.99-.16s.68.05.99.16c.42.1.78.31,1.15.57.16.1.26.31.26.47v.94Z"/>
  <path class="cls-12" d="m94.35,498.07l-2.71-.99v-5.68l2.71-1.15-18.33-6.77-22.29,7.81c-2.14,1.04-2.19,3.91-2.19,6.25,0,.78.1,1.56.26,2.29-1.77,1.15-1.82,3.8-1.82,6.04,0,1.82.42,3.49,1.56,4.53-.26.89-.1,1.98-.1,3.28,0,2.34.62,4.48,2.71,5.21l14.48,5.99,25.62-10.62-2.71-.99v-5.73l2.71-1.15-4.17-1.56v-5l4.27-1.77Zm-40-3.12l14.48,5.68,20.78-8.39v4.48l-20.78,8.65-14.48-5.73v-4.69Zm35.16,17.97l-20.78,8.59-14.53-5.73v-4.06l12.97,5.31,22.4-8.85-.05,4.74Zm-1.46-7.81l-20.78,8.59-14.48-5.73v-4.69l14.9,5.94,20.42-8.54v4.43h-.05Z"/>
</svg>